<?xml version="1.0" encoding="utf-8"?>
<!-- Generator: Adobe Illustrator 18.1.0, SVG Export Plug-In . SVG Version: 6.00 Build 0)  -->
<svg version="1.1"
	 id="svg2" sodipodi:docname="130608_tempescope_CAD_part2_of_2_r2.png" inkscape:version="0.48.2 r9819" xmlns:dc="http://purl.org/dc/elements/1.1/" xmlns:cc="http://creativecommons.org/ns#" xmlns:rdf="http://www.w3.org/1999/02/22-rdf-syntax-ns#" xmlns:svg="http://www.w3.org/2000/svg" xmlns:sodipodi="http://sodipodi.sourceforge.net/DTD/sodipodi-0.dtd" xmlns:inkscape="http://www.inkscape.org/namespaces/inkscape"
	 xmlns="http://www.w3.org/2000/svg" xmlns:xlink="http://www.w3.org/1999/xlink" x="0px" y="0px"
	 viewBox="172 -170.9 956.7 1133.9" enable-background="new 172 -170.9 956.7 1133.9" xml:space="preserve">
<sodipodi:namedview  inkscape:window-maximized="0" inkscape:window-y="0" inkscape:current-layer="layer1" inkscape:window-x="582" inkscape:document-units="px" inkscape:pageopacity="0.0" inkscape:window-height="718" inkscape:window-width="1078" inkscape:pageshadow="2" units="mm" showgrid="false" inkscape:cy="555.1767" inkscape:cx="276.60714" inkscape:zoom="0.42" borderopacity="1.0" bordercolor="#666666" pagecolor="#ffffff" id="base">
	</sodipodi:namedview>
<rect id="rect4116" x="172.1" y="-170.8" fill="#FFFFFF" stroke="#000000" stroke-width="2.484147e-02" width="956.6" height="1133.8"/>
<g id="g3906" transform="translate(-710.45173,-217.16542)">
	<text transform="matrix(1 0 0 1 974.3339 579.1302)" font-family="'ArialMT'" font-size="40.2699">TC</text>
	
		<text transform="matrix(1 0 0 1 974.3339 579.1302)" fill="none" stroke="#0000FF" stroke-width="0.1063" font-family="'ArialMT'" font-size="40.2699">TC</text>
	<g id="g3903">
		<path id="path3847" inkscape:connector-curvature="0" fill="none" stroke="#0000FF" stroke-width="0.1063" d="M912.2,808.8h353.9
			V489.4H1231v-35.2H912.8L912.2,808.8z"/>
	</g>
</g>
<g id="g3896" transform="translate(-343.04542,-606.07998)">
	<g id="g3861" transform="translate(372.72727,-147.27273)">
		<rect id="rect3129" x="172.1" y="609.6" fill="#FFFFFF" stroke="#0000FF" stroke-width="0.1063" width="353.3" height="353.3"/>
		
			<path id="path3859" sodipodi:cx="197.27272" sodipodi:cy="1902.4552" sodipodi:type="arc" sodipodi:ry="31.818182" sodipodi:rx="31.818182" fill="none" stroke="#0000FF" stroke-width="0.1913" d="
			M225.1,927.5c0,9.8-7.9,17.7-17.7,17.7s-17.7-7.9-17.7-17.7c0-9.8,7.9-17.7,17.7-17.7C217.2,909.9,225.1,917.8,225.1,927.5z"/>
	</g>
	<text transform="matrix(1 0 0 1 569.0511 542.3233)" font-family="'ArialMT'" font-size="40.2743">CB-S</text>
	
		<text transform="matrix(1 0 0 1 569.0511 542.3233)" fill="none" stroke="#0000FF" stroke-width="0.1063" font-family="'ArialMT'" font-size="40.2743">CB-S</text>
</g>
<g id="g3958" transform="translate(-597.42846,-366.66677)">
	<rect id="rect3930" x="1165" y="222.7" fill="none" stroke="#0000FF" stroke-width="0.1063" width="283.3" height="63.7"/>
	<text transform="matrix(1 0 0 1 1179.6924 269.4102)" font-family="'ArialMT'" font-size="40">TCG1</text>
	
		<text transform="matrix(1 0 0 1 1179.6924 269.4102)" fill="none" stroke="#0000FF" stroke-width="0.1063" font-family="'ArialMT'" font-size="40">TCG1</text>
</g>
<g id="g3963" transform="translate(-597.42926,-360.13013)">
	<rect id="rect3932" x="1165" y="292.6" fill="none" stroke="#0000FF" stroke-width="0.1063" width="283.3" height="70.7"/>
	<text transform="matrix(1 0 0 1 1177.1282 339.923)" font-family="'ArialMT'" font-size="40">TCG2</text>
	
		<text transform="matrix(1 0 0 1 1177.1282 339.923)" fill="none" stroke="#0000FF" stroke-width="0.1063" font-family="'ArialMT'" font-size="40">TCG2</text>
</g>
<g id="g3968" transform="translate(-597.42297,-356.16441)">
	<rect id="rect3934" x="1165" y="372.1" fill="none" stroke="#0000FF" stroke-width="0.1063" width="251.5" height="70.7"/>
	<text transform="matrix(1 0 0 1 1183.5386 423.2564)" font-family="'ArialMT'" font-size="40">TCG3</text>
	
		<text transform="matrix(1 0 0 1 1183.5386 423.2564)" fill="none" stroke="#0000FF" stroke-width="0.1063" font-family="'ArialMT'" font-size="40">TCG3</text>
</g>
<g id="g3973" transform="translate(-597.42297,-354.76194)">
	<rect id="rect3936" x="1165" y="454.1" fill="none" stroke="#0000FF" stroke-width="0.1063" width="251.5" height="70.7"/>
	<text transform="matrix(1 0 0 1 1182.2565 504.0256)" font-family="'ArialMT'" font-size="40">TCG4</text>
	
		<text transform="matrix(1 0 0 1 1182.2565 504.0256)" fill="none" stroke="#0000FF" stroke-width="0.1063" font-family="'ArialMT'" font-size="40">TCG4</text>
</g>
<text transform="matrix(1 0 0 1 183.9048 884.4286)" font-family="'ArialMT'" font-size="18">OpenTempescope1.0.0 (part 2/2) 2014/11/29</text>
<text transform="matrix(1 0 0 1 183.9048 906.9286)" font-family="'ArialMT'" font-size="18">Ken Kawamoto</text>
<text transform="matrix(1 0 0 1 183.9048 929.4287)" font-family="'ArialMT'" font-size="18">ken@kawamoto.co.uk</text>
<text transform="matrix(1 0 0 1 183.9048 951.9287)" font-family="'ArialMT'" font-size="18">Released under Creative Commons Attribution-ShareAlike 3.0a</text>
</svg>
