  0
SECTION
  2
HEADER
  9
$ACADVER
  1
AC1014
  9
$HANDSEED
  5
FFFF
  9
$MEASUREMENT
 70
     1
  0
ENDSEC
  0
SECTION
  2
TABLES
  0
TABLE
  2
VPORT
  5
8
330
0
100
AcDbSymbolTable
 70
     4
  0
VPORT
  5
2E
330
8
100
AcDbSymbolTableRecord
100
AcDbViewportTableRecord
  2
*ACTIVE
 70
     0
 10
0.0
 20
0.0
 11
1.0
 21
1.0
 12
210.0
 22
148.5
 13
0.0
 23
0.0
 14
10.0
 24
10.0
 15
10.0
 25
10.0
 16
0.0
 26
0.0
 36
1.0
 17
0.0
 27
0.0
 37
0.0
 40
341.0
 41
1.24
 42
50.0
 43
0.0
 44
0.0
 50
0.0
 51
0.0
 71
     0
 72
   100
 73
     1
 74
     3
 75
     0
 76
     0
 77
     0
 78
     0
  0
ENDTAB
  0
TABLE
  2
LTYPE
  5
5
330
0
100
AcDbSymbolTable
 70
     1
  0
LTYPE
  5
14
330
5
100
AcDbSymbolTableRecord
100
AcDbLinetypeTableRecord
  2
BYBLOCK
 70
     0
  3

 72
    65
 73
     0
 40
0.0
  0
LTYPE
  5
15
330
5
100
AcDbSymbolTableRecord
100
AcDbLinetypeTableRecord
  2
BYLAYER
 70
     0
  3

 72
    65
 73
     0
 40
0.0
  0
LTYPE
  5
16
330
5
100
AcDbSymbolTableRecord
100
AcDbLinetypeTableRecord
  2
CONTINUOUS
 70
     0
  3
Solid line
 72
    65
 73
     0
 40
0.0
  0
ENDTAB
  0
TABLE
  2
LAYER
  5
2
100
AcDbSymbolTable
 70
1
  0
LAYER
  5
50
100
AcDbSymbolTableRecord
100
AcDbLayerTableRecord
  2
0
 70
0
  6
CONTINUOUS
  0
ENDTAB
  0
TABLE
  2
STYLE
  5
3
330
0
100
AcDbSymbolTable
 70
     1
  0
STYLE
  5
11
330
3
100
AcDbSymbolTableRecord
100
AcDbTextStyleTableRecord
  2
STANDARD
 70
     0
 40
0.0
 41
1.0
 50
0.0
 71
     0
 42
2.5
  3
txt
  4

  0
ENDTAB
  0
TABLE
  2
VIEW
  5
6
330
0
100
AcDbSymbolTable
 70
     0
  0
ENDTAB
  0
TABLE
  2
UCS
  5
7
330
0
100
AcDbSymbolTable
 70
     0
  0
ENDTAB
  0
TABLE
  2
APPID
  5
9
330
0
100
AcDbSymbolTable
 70
     2
  0
APPID
  5
12
330
9
100
AcDbSymbolTableRecord
100
AcDbRegAppTableRecord
  2
ACAD
 70
     0
  0
ENDTAB
  0
TABLE
  2
DIMSTYLE
  5
A
330
0
100
AcDbSymbolTable
 70
     1
  0
DIMSTYLE
105
27
330
A
100
AcDbSymbolTableRecord
100
AcDbDimStyleTableRecord
  2
ISO-25
 70
     0
  3

  4

  5

  6

  7

 40
1.0
 41
2.5
 42
0.625
 43
3.75
 44
1.25
 45
0.0
 46
0.0
 47
0.0
 48
0.0
140
2.5
141
2.5
142
0.0
143
0.03937007874016
144
1.0
145
0.0
146
1.0
147
0.625
 71
     0
 72
     0
 73
     0
 74
     0
 75
     0
 76
     0
 77
     1
 78
     8
170
     0
171
     3
172
     1
173
     0
174
     0
175
     0
176
     0
177
     0
178
     0
270
     2
271
     2
272
     2
273
     2
274
     3
340
11
275
     0
280
     0
281
     0
282
     0
283
     0
284
     8
285
     0
286
     0
287
     3
288
     0
  0
ENDTAB
  0
TABLE
  2
BLOCK_RECORD
  5
1
330
0
100
AcDbSymbolTable
 70
     1
  0
BLOCK_RECORD
  5
1F
330
1
100
AcDbSymbolTableRecord
100
AcDbBlockTableRecord
  2
*MODEL_SPACE
  0
BLOCK_RECORD
  5
1B
330
1
100
AcDbSymbolTableRecord
100
AcDbBlockTableRecord
  2
*PAPER_SPACE
  0
ENDTAB
  0
ENDSEC
  0
SECTION
  2
BLOCKS
  0
BLOCK
  5
20
330
1F
100
AcDbEntity
  8
0
100
AcDbBlockBegin
  2
*MODEL_SPACE
 70
     0
 10
0.0
 20
0.0
 30
0.0
  3
*MODEL_SPACE
  1

  0
ENDBLK
  5
21
330
1F
100
AcDbEntity
  8
0
100
AcDbBlockEnd
  0
BLOCK
  5
1C
330
1B
100
AcDbEntity
 67
     1
  8
0
100
AcDbBlockBegin
  2
*PAPER_SPACE
  1

  0
ENDBLK
  5
1D
330
1B
100
AcDbEntity
 67
     1
  8
0
100
AcDbBlockEnd
  0
ENDSEC
  0
SECTION
  2
ENTITIES
  0
SPLINE
  5
100
100
AcDbEntity
  8
0
 62
7
100
AcDbSpline
 70
8
 71
3
 72
8
 73
4
 74
0
 40
0
 40
0
 40
0
 40
0
 40
1
 40
1
 40
1
 40
1
 10
17.325516
 20
230.091302
 30
0.0
 10
17.325516
 20
231.841904
 30
0.0
 10
16.391581
 20
233.459526
 30
0.0
 10
14.875516
 20
234.334827
 30
0.0
  0
SPLINE
  5
101
100
AcDbEntity
  8
0
 62
7
100
AcDbSpline
 70
8
 71
3
 72
8
 73
4
 74
0
 40
0
 40
0
 40
0
 40
0
 40
1
 40
1
 40
1
 40
1
 10
14.875516
 20
234.334827
 30
0.0
 10
13.359450
 20
235.210128
 30
0.0
 10
11.491581
 20
235.210128
 30
0.0
 10
9.975515
 20
234.334827
 30
0.0
  0
SPLINE
  5
102
100
AcDbEntity
  8
0
 62
7
100
AcDbSpline
 70
8
 71
3
 72
8
 73
4
 74
0
 40
0
 40
0
 40
0
 40
0
 40
1
 40
1
 40
1
 40
1
 10
9.975515
 20
234.334827
 30
0.0
 10
8.459450
 20
233.459526
 30
0.0
 10
7.525515
 20
231.841904
 30
0.0
 10
7.525515
 20
230.091302
 30
0.0
  0
SPLINE
  5
103
100
AcDbEntity
  8
0
 62
7
100
AcDbSpline
 70
8
 71
3
 72
8
 73
4
 74
0
 40
0
 40
0
 40
0
 40
0
 40
1
 40
1
 40
1
 40
1
 10
7.525515
 20
230.091302
 30
0.0
 10
7.525515
 20
228.340701
 30
0.0
 10
8.459450
 20
226.723078
 30
0.0
 10
9.975515
 20
225.847778
 30
0.0
  0
SPLINE
  5
104
100
AcDbEntity
  8
0
 62
7
100
AcDbSpline
 70
8
 71
3
 72
8
 73
4
 74
0
 40
0
 40
0
 40
0
 40
0
 40
1
 40
1
 40
1
 40
1
 10
9.975515
 20
225.847778
 30
0.0
 10
11.491581
 20
224.972477
 30
0.0
 10
13.359450
 20
224.972477
 30
0.0
 10
14.875516
 20
225.847778
 30
0.0
  0
SPLINE
  5
105
100
AcDbEntity
  8
0
 62
7
100
AcDbSpline
 70
8
 71
3
 72
8
 73
4
 74
0
 40
0
 40
0
 40
0
 40
0
 40
1
 40
1
 40
1
 40
1
 10
14.875516
 20
225.847778
 30
0.0
 10
16.391581
 20
226.723078
 30
0.0
 10
17.325516
 20
228.340701
 30
0.0
 10
17.325516
 20
230.091302
 30
0.0
  0
SPLINE
  5
106
100
AcDbEntity
  8
0
 62
7
100
AcDbSpline
 70
8
 71
3
 72
8
 73
4
 74
0
 40
0
 40
0
 40
0
 40
0
 40
1
 40
1
 40
1
 40
1
 10
62.325515
 20
298.472564
 30
0.0
 10
62.325844
 20
299.008681
 30
0.0
 10
62.040018
 20
299.504215
 30
0.0
 10
61.575781
 20
299.772369
 30
0.0
  0
SPLINE
  5
107
100
AcDbEntity
  8
0
 62
7
100
AcDbSpline
 70
8
 71
3
 72
8
 73
4
 74
0
 40
0
 40
0
 40
0
 40
0
 40
1
 40
1
 40
1
 40
1
 10
61.575781
 20
299.772369
 30
0.0
 10
61.111544
 20
300.040522
 30
0.0
 10
60.539486
 20
300.040522
 30
0.0
 10
60.075250
 20
299.772369
 30
0.0
  0
SPLINE
  5
108
100
AcDbEntity
  8
0
 62
7
100
AcDbSpline
 70
8
 71
3
 72
8
 73
4
 74
0
 40
0
 40
0
 40
0
 40
0
 40
1
 40
1
 40
1
 40
1
 10
60.075250
 20
299.772369
 30
0.0
 10
59.611013
 20
299.504215
 30
0.0
 10
59.325187
 20
299.008681
 30
0.0
 10
59.325516
 20
298.472564
 30
0.0
  0
SPLINE
  5
109
100
AcDbEntity
  8
0
 62
7
100
AcDbSpline
 70
8
 71
3
 72
8
 73
4
 74
0
 40
0
 40
0
 40
0
 40
0
 40
1
 40
1
 40
1
 40
1
 10
59.325516
 20
298.472564
 30
0.0
 10
59.325187
 20
297.936446
 30
0.0
 10
59.611013
 20
297.440912
 30
0.0
 10
60.075250
 20
297.172759
 30
0.0
  0
SPLINE
  5
10a
100
AcDbEntity
  8
0
 62
7
100
AcDbSpline
 70
8
 71
3
 72
8
 73
4
 74
0
 40
0
 40
0
 40
0
 40
0
 40
1
 40
1
 40
1
 40
1
 10
60.075250
 20
297.172759
 30
0.0
 10
60.539486
 20
296.904605
 30
0.0
 10
61.111544
 20
296.904605
 30
0.0
 10
61.575781
 20
297.172759
 30
0.0
  0
SPLINE
  5
10b
100
AcDbEntity
  8
0
 62
7
100
AcDbSpline
 70
8
 71
3
 72
8
 73
4
 74
0
 40
0
 40
0
 40
0
 40
0
 40
1
 40
1
 40
1
 40
1
 10
61.575781
 20
297.172759
 30
0.0
 10
62.040018
 20
297.440912
 30
0.0
 10
62.325844
 20
297.936446
 30
0.0
 10
62.325515
 20
298.472564
 30
0.0
  0
LWPOLYLINE
  5
10c
100
AcDbEntity
  8
0
 62
7
100
AcDbPolyline
 90
2
 70
1
 10
17.325516
 20
230.091302
 30
0.0
 10
17.325516
 20
230.091302
 30
0.0
  0
SPLINE
  5
10d
100
AcDbEntity
  8
0
 62
7
100
AcDbSpline
 70
8
 71
3
 72
8
 73
4
 74
0
 40
0
 40
0
 40
0
 40
0
 40
1
 40
1
 40
1
 40
1
 10
82.325515
 20
308.472563
 30
0.0
 10
82.326802
 20
312.581976
 30
0.0
 10
80.135196
 20
316.379780
 30
0.0
 10
76.576555
 20
318.434858
 30
0.0
  0
SPLINE
  5
10e
100
AcDbEntity
  8
0
 62
7
100
AcDbSpline
 70
8
 71
3
 72
8
 73
4
 74
0
 40
0
 40
0
 40
0
 40
0
 40
1
 40
1
 40
1
 40
1
 10
76.576555
 20
318.434858
 30
0.0
 10
73.017914
 20
320.489936
 30
0.0
 10
68.633116
 20
320.489936
 30
0.0
 10
65.074475
 20
318.434858
 30
0.0
  0
SPLINE
  5
10f
100
AcDbEntity
  8
0
 62
7
100
AcDbSpline
 70
8
 71
3
 72
8
 73
4
 74
0
 40
0
 40
0
 40
0
 40
0
 40
1
 40
1
 40
1
 40
1
 10
65.074475
 20
318.434858
 30
0.0
 10
61.515834
 20
316.379780
 30
0.0
 10
59.324228
 20
312.581976
 30
0.0
 10
59.325516
 20
308.472563
 30
0.0
  0
SPLINE
  5
110
100
AcDbEntity
  8
0
 62
7
100
AcDbSpline
 70
8
 71
3
 72
8
 73
4
 74
0
 40
0
 40
0
 40
0
 40
0
 40
1
 40
1
 40
1
 40
1
 10
59.325516
 20
308.472563
 30
0.0
 10
59.324228
 20
304.363151
 30
0.0
 10
61.515834
 20
300.565347
 30
0.0
 10
65.074475
 20
298.510269
 30
0.0
  0
SPLINE
  5
111
100
AcDbEntity
  8
0
 62
7
100
AcDbSpline
 70
8
 71
3
 72
8
 73
4
 74
0
 40
0
 40
0
 40
0
 40
0
 40
1
 40
1
 40
1
 40
1
 10
65.074475
 20
298.510269
 30
0.0
 10
68.633116
 20
296.455191
 30
0.0
 10
73.017914
 20
296.455191
 30
0.0
 10
76.576555
 20
298.510269
 30
0.0
  0
SPLINE
  5
112
100
AcDbEntity
  8
0
 62
7
100
AcDbSpline
 70
8
 71
3
 72
8
 73
4
 74
0
 40
0
 40
0
 40
0
 40
0
 40
1
 40
1
 40
1
 40
1
 10
76.576555
 20
298.510269
 30
0.0
 10
80.135196
 20
300.565347
 30
0.0
 10
82.326802
 20
304.363151
 30
0.0
 10
82.325515
 20
308.472563
 30
0.0
  0
LWPOLYLINE
  5
113
100
AcDbEntity
  8
0
 62
7
100
AcDbPolyline
 90
2
 70
1
 10
62.325515
 20
298.472564
 30
0.0
 10
62.325515
 20
298.472564
 30
0.0
  0
SPLINE
  5
114
100
AcDbEntity
  8
0
 62
7
100
AcDbSpline
 70
8
 71
3
 72
8
 73
4
 74
0
 40
0
 40
0
 40
0
 40
0
 40
1
 40
1
 40
1
 40
1
 10
82.325515
 20
318.472563
 30
0.0
 10
82.325844
 20
319.008681
 30
0.0
 10
82.040017
 20
319.504214
 30
0.0
 10
81.575781
 20
319.772368
 30
0.0
  0
SPLINE
  5
115
100
AcDbEntity
  8
0
 62
7
100
AcDbSpline
 70
8
 71
3
 72
8
 73
4
 74
0
 40
0
 40
0
 40
0
 40
0
 40
1
 40
1
 40
1
 40
1
 10
81.575781
 20
319.772368
 30
0.0
 10
81.111544
 20
320.040522
 30
0.0
 10
80.539486
 20
320.040522
 30
0.0
 10
80.075249
 20
319.772368
 30
0.0
  0
SPLINE
  5
116
100
AcDbEntity
  8
0
 62
7
100
AcDbSpline
 70
8
 71
3
 72
8
 73
4
 74
0
 40
0
 40
0
 40
0
 40
0
 40
1
 40
1
 40
1
 40
1
 10
80.075249
 20
319.772368
 30
0.0
 10
79.611013
 20
319.504214
 30
0.0
 10
79.325186
 20
319.008681
 30
0.0
 10
79.325515
 20
318.472563
 30
0.0
  0
SPLINE
  5
117
100
AcDbEntity
  8
0
 62
7
100
AcDbSpline
 70
8
 71
3
 72
8
 73
4
 74
0
 40
0
 40
0
 40
0
 40
0
 40
1
 40
1
 40
1
 40
1
 10
79.325515
 20
318.472563
 30
0.0
 10
79.325186
 20
317.936446
 30
0.0
 10
79.611013
 20
317.440912
 30
0.0
 10
80.075249
 20
317.172758
 30
0.0
  0
SPLINE
  5
118
100
AcDbEntity
  8
0
 62
7
100
AcDbSpline
 70
8
 71
3
 72
8
 73
4
 74
0
 40
0
 40
0
 40
0
 40
0
 40
1
 40
1
 40
1
 40
1
 10
80.075249
 20
317.172758
 30
0.0
 10
80.539486
 20
316.904604
 30
0.0
 10
81.111544
 20
316.904604
 30
0.0
 10
81.575781
 20
317.172758
 30
0.0
  0
SPLINE
  5
119
100
AcDbEntity
  8
0
 62
7
100
AcDbSpline
 70
8
 71
3
 72
8
 73
4
 74
0
 40
0
 40
0
 40
0
 40
0
 40
1
 40
1
 40
1
 40
1
 10
81.575781
 20
317.172758
 30
0.0
 10
82.040017
 20
317.440912
 30
0.0
 10
82.325844
 20
317.936446
 30
0.0
 10
82.325515
 20
318.472563
 30
0.0
  0
LWPOLYLINE
  5
11a
100
AcDbEntity
  8
0
 62
7
100
AcDbPolyline
 90
2
 70
1
 10
82.325515
 20
308.472563
 30
0.0
 10
82.325515
 20
308.472563
 30
0.0
  0
SPLINE
  5
11b
100
AcDbEntity
  8
0
 62
7
100
AcDbSpline
 70
8
 71
3
 72
8
 73
4
 74
0
 40
0
 40
0
 40
0
 40
0
 40
1
 40
1
 40
1
 40
1
 10
82.325515
 20
298.472564
 30
0.0
 10
82.325844
 20
299.008681
 30
0.0
 10
82.040017
 20
299.504215
 30
0.0
 10
81.575781
 20
299.772369
 30
0.0
  0
SPLINE
  5
11c
100
AcDbEntity
  8
0
 62
7
100
AcDbSpline
 70
8
 71
3
 72
8
 73
4
 74
0
 40
0
 40
0
 40
0
 40
0
 40
1
 40
1
 40
1
 40
1
 10
81.575781
 20
299.772369
 30
0.0
 10
81.111544
 20
300.040522
 30
0.0
 10
80.539486
 20
300.040522
 30
0.0
 10
80.075249
 20
299.772369
 30
0.0
  0
SPLINE
  5
11d
100
AcDbEntity
  8
0
 62
7
100
AcDbSpline
 70
8
 71
3
 72
8
 73
4
 74
0
 40
0
 40
0
 40
0
 40
0
 40
1
 40
1
 40
1
 40
1
 10
80.075249
 20
299.772369
 30
0.0
 10
79.611013
 20
299.504215
 30
0.0
 10
79.325186
 20
299.008681
 30
0.0
 10
79.325515
 20
298.472564
 30
0.0
  0
SPLINE
  5
11e
100
AcDbEntity
  8
0
 62
7
100
AcDbSpline
 70
8
 71
3
 72
8
 73
4
 74
0
 40
0
 40
0
 40
0
 40
0
 40
1
 40
1
 40
1
 40
1
 10
79.325515
 20
298.472564
 30
0.0
 10
79.325186
 20
297.936446
 30
0.0
 10
79.611013
 20
297.440912
 30
0.0
 10
80.075249
 20
297.172759
 30
0.0
  0
SPLINE
  5
11f
100
AcDbEntity
  8
0
 62
7
100
AcDbSpline
 70
8
 71
3
 72
8
 73
4
 74
0
 40
0
 40
0
 40
0
 40
0
 40
1
 40
1
 40
1
 40
1
 10
80.075249
 20
297.172759
 30
0.0
 10
80.539486
 20
296.904605
 30
0.0
 10
81.111544
 20
296.904605
 30
0.0
 10
81.575781
 20
297.172759
 30
0.0
  0
SPLINE
  5
120
100
AcDbEntity
  8
0
 62
7
100
AcDbSpline
 70
8
 71
3
 72
8
 73
4
 74
0
 40
0
 40
0
 40
0
 40
0
 40
1
 40
1
 40
1
 40
1
 10
81.575781
 20
297.172759
 30
0.0
 10
82.040017
 20
297.440912
 30
0.0
 10
82.325844
 20
297.936446
 30
0.0
 10
82.325515
 20
298.472564
 30
0.0
  0
LWPOLYLINE
  5
121
100
AcDbEntity
  8
0
 62
7
100
AcDbPolyline
 90
2
 70
1
 10
82.325515
 20
318.472563
 30
0.0
 10
82.325515
 20
318.472563
 30
0.0
  0
SPLINE
  5
122
100
AcDbEntity
  8
0
 62
7
100
AcDbSpline
 70
8
 71
3
 72
8
 73
4
 74
0
 40
0
 40
0
 40
0
 40
0
 40
1
 40
1
 40
1
 40
1
 10
62.325515
 20
318.472563
 30
0.0
 10
62.325844
 20
319.008681
 30
0.0
 10
62.040018
 20
319.504214
 30
0.0
 10
61.575781
 20
319.772368
 30
0.0
  0
SPLINE
  5
123
100
AcDbEntity
  8
0
 62
7
100
AcDbSpline
 70
8
 71
3
 72
8
 73
4
 74
0
 40
0
 40
0
 40
0
 40
0
 40
1
 40
1
 40
1
 40
1
 10
61.575781
 20
319.772368
 30
0.0
 10
61.111544
 20
320.040522
 30
0.0
 10
60.539486
 20
320.040522
 30
0.0
 10
60.075250
 20
319.772368
 30
0.0
  0
SPLINE
  5
124
100
AcDbEntity
  8
0
 62
7
100
AcDbSpline
 70
8
 71
3
 72
8
 73
4
 74
0
 40
0
 40
0
 40
0
 40
0
 40
1
 40
1
 40
1
 40
1
 10
60.075250
 20
319.772368
 30
0.0
 10
59.611013
 20
319.504214
 30
0.0
 10
59.325187
 20
319.008681
 30
0.0
 10
59.325516
 20
318.472563
 30
0.0
  0
SPLINE
  5
125
100
AcDbEntity
  8
0
 62
7
100
AcDbSpline
 70
8
 71
3
 72
8
 73
4
 74
0
 40
0
 40
0
 40
0
 40
0
 40
1
 40
1
 40
1
 40
1
 10
59.325516
 20
318.472563
 30
0.0
 10
59.325187
 20
317.936446
 30
0.0
 10
59.611013
 20
317.440912
 30
0.0
 10
60.075250
 20
317.172758
 30
0.0
  0
SPLINE
  5
126
100
AcDbEntity
  8
0
 62
7
100
AcDbSpline
 70
8
 71
3
 72
8
 73
4
 74
0
 40
0
 40
0
 40
0
 40
0
 40
1
 40
1
 40
1
 40
1
 10
60.075250
 20
317.172758
 30
0.0
 10
60.539486
 20
316.904604
 30
0.0
 10
61.111544
 20
316.904604
 30
0.0
 10
61.575781
 20
317.172758
 30
0.0
  0
SPLINE
  5
127
100
AcDbEntity
  8
0
 62
7
100
AcDbSpline
 70
8
 71
3
 72
8
 73
4
 74
0
 40
0
 40
0
 40
0
 40
0
 40
1
 40
1
 40
1
 40
1
 10
61.575781
 20
317.172758
 30
0.0
 10
62.040018
 20
317.440912
 30
0.0
 10
62.325844
 20
317.936446
 30
0.0
 10
62.325515
 20
318.472563
 30
0.0
  0
LWPOLYLINE
  5
128
100
AcDbEntity
  8
0
 62
7
100
AcDbPolyline
 90
2
 70
1
 10
82.325515
 20
298.472564
 30
0.0
 10
82.325515
 20
298.472564
 30
0.0
  0
LWPOLYLINE
  5
129
100
AcDbEntity
  8
0
 62
7
100
AcDbPolyline
 90
2
 70
1
 10
62.325515
 20
318.472563
 30
0.0
 10
62.325515
 20
318.472563
 30
0.0
  0
LWPOLYLINE
  5
12a
100
AcDbEntity
  8
0
 62
7
100
AcDbPolyline
 90
6
 70
1
 10
4.825515
 20
224.472565
 30
0.0
 10
4.825515
 20
594.472565
 30
0.0
 10
104.825515
 20
594.472565
 30
0.0
 10
104.825515
 20
224.472565
 30
0.0
 10
4.825515
 20
224.472565
 30
0.0
 10
4.825515
 20
224.472565
 30
0.0
  0
SPLINE
  5
12b
100
AcDbEntity
  8
0
 62
7
100
AcDbSpline
 70
8
 71
3
 72
8
 73
4
 74
0
 40
0
 40
0
 40
0
 40
0
 40
1
 40
1
 40
1
 40
1
 10
224.181896
 20
584.975025
 30
0.0
 10
224.182496
 20
586.761753
 30
0.0
 10
223.229633
 20
588.413015
 30
0.0
 10
221.682381
 20
589.306552
 30
0.0
  0
SPLINE
  5
12c
100
AcDbEntity
  8
0
 62
7
100
AcDbSpline
 70
8
 71
3
 72
8
 73
4
 74
0
 40
0
 40
0
 40
0
 40
0
 40
1
 40
1
 40
1
 40
1
 10
221.682381
 20
589.306552
 30
0.0
 10
220.135129
 20
590.200090
 30
0.0
 10
218.228663
 20
590.200090
 30
0.0
 10
216.681411
 20
589.306552
 30
0.0
  0
SPLINE
  5
12d
100
AcDbEntity
  8
0
 62
7
100
AcDbSpline
 70
8
 71
3
 72
8
 73
4
 74
0
 40
0
 40
0
 40
0
 40
0
 40
1
 40
1
 40
1
 40
1
 10
216.681411
 20
589.306552
 30
0.0
 10
215.134159
 20
588.413015
 30
0.0
 10
214.181296
 20
586.761753
 30
0.0
 10
214.181896
 20
584.975025
 30
0.0
  0
SPLINE
  5
12e
100
AcDbEntity
  8
0
 62
7
100
AcDbSpline
 70
8
 71
3
 72
8
 73
4
 74
0
 40
0
 40
0
 40
0
 40
0
 40
1
 40
1
 40
1
 40
1
 10
214.181896
 20
584.975025
 30
0.0
 10
214.181296
 20
583.188297
 30
0.0
 10
215.134159
 20
581.537035
 30
0.0
 10
216.681411
 20
580.643498
 30
0.0
  0
SPLINE
  5
12f
100
AcDbEntity
  8
0
 62
7
100
AcDbSpline
 70
8
 71
3
 72
8
 73
4
 74
0
 40
0
 40
0
 40
0
 40
0
 40
1
 40
1
 40
1
 40
1
 10
216.681411
 20
580.643498
 30
0.0
 10
218.228663
 20
579.749961
 30
0.0
 10
220.135129
 20
579.749961
 30
0.0
 10
221.682381
 20
580.643498
 30
0.0
  0
SPLINE
  5
130
100
AcDbEntity
  8
0
 62
7
100
AcDbSpline
 70
8
 71
3
 72
8
 73
4
 74
0
 40
0
 40
0
 40
0
 40
0
 40
1
 40
1
 40
1
 40
1
 10
221.682381
 20
580.643498
 30
0.0
 10
223.229633
 20
581.537035
 30
0.0
 10
224.182496
 20
583.188297
 30
0.0
 10
224.181896
 20
584.975025
 30
0.0
  0
LWPOLYLINE
  5
131
100
AcDbEntity
  8
0
 62
7
100
AcDbPolyline
 90
6
 70
1
 10
207.000134
 20
594.472565
 30
0.0
 10
207.000134
 20
224.472565
 30
0.0
 10
107.000133
 20
224.472565
 30
0.0
 10
107.000133
 20
594.472565
 30
0.0
 10
207.000134
 20
594.472565
 30
0.0
 10
207.000134
 20
594.472565
 30
0.0
  0
LWPOLYLINE
  5
132
100
AcDbEntity
  8
0
 62
7
100
AcDbPolyline
 90
2
 70
1
 10
224.181896
 20
584.975025
 30
0.0
 10
224.181896
 20
584.975025
 30
0.0
  0
LWPOLYLINE
  5
133
100
AcDbEntity
  8
0
 62
7
100
AcDbPolyline
 90
6
 70
1
 10
209.181898
 20
494.975013
 30
0.0
 10
209.181898
 20
594.975005
 30
0.0
 10
309.181895
 20
594.975005
 30
0.0
 10
309.181895
 20
494.975013
 30
0.0
 10
209.181898
 20
494.975013
 30
0.0
 10
209.181898
 20
494.975013
 30
0.0
  0
LWPOLYLINE
  5
134
100
AcDbEntity
  8
0
 62
7
100
AcDbPolyline
 90
6
 70
1
 10
309.555727
 20
441.297540
 30
0.0
 10
213.555727
 20
441.297540
 30
0.0
 10
213.555727
 20
391.297539
 30
0.0
 10
309.555727
 20
391.297539
 30
0.0
 10
309.555727
 20
441.297540
 30
0.0
 10
309.555727
 20
441.297540
 30
0.0
  0
LWPOLYLINE
  5
135
100
AcDbEntity
  8
0
 62
7
100
AcDbPolyline
 90
6
 70
1
 10
209.555726
 20
493.297541
 30
0.0
 10
313.555719
 20
493.297541
 30
0.0
 10
313.555719
 20
389.297540
 30
0.0
 10
209.555726
 20
389.297540
 30
0.0
 10
209.555726
 20
493.297541
 30
0.0
 10
209.555726
 20
493.297541
 30
0.0
  0
LWPOLYLINE
  5
136
100
AcDbEntity
  8
0
 62
7
100
AcDbPolyline
 90
6
 70
1
 10
313.524618
 20
283.913264
 30
0.0
 10
209.524631
 20
283.913264
 30
0.0
 10
209.524631
 20
387.913265
 30
0.0
 10
313.524618
 20
387.913265
 30
0.0
 10
313.524618
 20
283.913264
 30
0.0
 10
313.524618
 20
283.913264
 30
0.0
  0
LWPOLYLINE
  5
137
100
AcDbEntity
  8
0
 62
7
100
AcDbPolyline
 90
6
 70
1
 10
310.767786
 20
224.472565
 30
0.0
 10
210.767775
 20
224.472565
 30
0.0
 10
210.767775
 20
276.472565
 30
0.0
 10
310.767786
 20
276.472565
 30
0.0
 10
310.767786
 20
224.472565
 30
0.0
 10
310.767786
 20
224.472565
 30
0.0
  0
ENDSEC
  0
SECTION
  2
OBJECTS
  0
DICTIONARY
  5
C
330
0
100
AcDbDictionary
  3
ACAD_GROUP
350
D
  3
ACAD_MLINESTYLE
350
17
  0
DICTIONARY
  5
D
330
C
100
AcDbDictionary
  0
DICTIONARY
  5
1A
330
C
100
AcDbDictionary
  0
DICTIONARY
  5
17
330
C
100
AcDbDictionary
  3
STANDARD
350
18
  0
DICTIONARY
  5
19
330
C
100
AcDbDictionary
  0
ENDSEC
  0
EOF
