  0
SECTION
  2
HEADER
  9
$ACADVER
  1
AC1014
  9
$HANDSEED
  5
FFFF
  9
$MEASUREMENT
 70
     1
  0
ENDSEC
  0
SECTION
  2
TABLES
  0
TABLE
  2
VPORT
  5
8
330
0
100
AcDbSymbolTable
 70
     4
  0
VPORT
  5
2E
330
8
100
AcDbSymbolTableRecord
100
AcDbViewportTableRecord
  2
*ACTIVE
 70
     0
 10
0.0
 20
0.0
 11
1.0
 21
1.0
 12
210.0
 22
148.5
 13
0.0
 23
0.0
 14
10.0
 24
10.0
 15
10.0
 25
10.0
 16
0.0
 26
0.0
 36
1.0
 17
0.0
 27
0.0
 37
0.0
 40
341.0
 41
1.24
 42
50.0
 43
0.0
 44
0.0
 50
0.0
 51
0.0
 71
     0
 72
   100
 73
     1
 74
     3
 75
     0
 76
     0
 77
     0
 78
     0
  0
ENDTAB
  0
TABLE
  2
LTYPE
  5
5
330
0
100
AcDbSymbolTable
 70
     1
  0
LTYPE
  5
14
330
5
100
AcDbSymbolTableRecord
100
AcDbLinetypeTableRecord
  2
BYBLOCK
 70
     0
  3

 72
    65
 73
     0
 40
0.0
  0
LTYPE
  5
15
330
5
100
AcDbSymbolTableRecord
100
AcDbLinetypeTableRecord
  2
BYLAYER
 70
     0
  3

 72
    65
 73
     0
 40
0.0
  0
LTYPE
  5
16
330
5
100
AcDbSymbolTableRecord
100
AcDbLinetypeTableRecord
  2
CONTINUOUS
 70
     0
  3
Solid line
 72
    65
 73
     0
 40
0.0
  0
ENDTAB
  0
TABLE
  2
LAYER
  5
2
100
AcDbSymbolTable
 70
1
  0
LAYER
  5
50
100
AcDbSymbolTableRecord
100
AcDbLayerTableRecord
  2
0
 70
0
  6
CONTINUOUS
  0
ENDTAB
  0
TABLE
  2
STYLE
  5
3
330
0
100
AcDbSymbolTable
 70
     1
  0
STYLE
  5
11
330
3
100
AcDbSymbolTableRecord
100
AcDbTextStyleTableRecord
  2
STANDARD
 70
     0
 40
0.0
 41
1.0
 50
0.0
 71
     0
 42
2.5
  3
txt
  4

  0
ENDTAB
  0
TABLE
  2
VIEW
  5
6
330
0
100
AcDbSymbolTable
 70
     0
  0
ENDTAB
  0
TABLE
  2
UCS
  5
7
330
0
100
AcDbSymbolTable
 70
     0
  0
ENDTAB
  0
TABLE
  2
APPID
  5
9
330
0
100
AcDbSymbolTable
 70
     2
  0
APPID
  5
12
330
9
100
AcDbSymbolTableRecord
100
AcDbRegAppTableRecord
  2
ACAD
 70
     0
  0
ENDTAB
  0
TABLE
  2
DIMSTYLE
  5
A
330
0
100
AcDbSymbolTable
 70
     1
  0
DIMSTYLE
105
27
330
A
100
AcDbSymbolTableRecord
100
AcDbDimStyleTableRecord
  2
ISO-25
 70
     0
  3

  4

  5

  6

  7

 40
1.0
 41
2.5
 42
0.625
 43
3.75
 44
1.25
 45
0.0
 46
0.0
 47
0.0
 48
0.0
140
2.5
141
2.5
142
0.0
143
0.03937007874016
144
1.0
145
0.0
146
1.0
147
0.625
 71
     0
 72
     0
 73
     0
 74
     0
 75
     0
 76
     0
 77
     1
 78
     8
170
     0
171
     3
172
     1
173
     0
174
     0
175
     0
176
     0
177
     0
178
     0
270
     2
271
     2
272
     2
273
     2
274
     3
340
11
275
     0
280
     0
281
     0
282
     0
283
     0
284
     8
285
     0
286
     0
287
     3
288
     0
  0
ENDTAB
  0
TABLE
  2
BLOCK_RECORD
  5
1
330
0
100
AcDbSymbolTable
 70
     1
  0
BLOCK_RECORD
  5
1F
330
1
100
AcDbSymbolTableRecord
100
AcDbBlockTableRecord
  2
*MODEL_SPACE
  0
BLOCK_RECORD
  5
1B
330
1
100
AcDbSymbolTableRecord
100
AcDbBlockTableRecord
  2
*PAPER_SPACE
  0
ENDTAB
  0
ENDSEC
  0
SECTION
  2
BLOCKS
  0
BLOCK
  5
20
330
1F
100
AcDbEntity
  8
0
100
AcDbBlockBegin
  2
*MODEL_SPACE
 70
     0
 10
0.0
 20
0.0
 30
0.0
  3
*MODEL_SPACE
  1

  0
ENDBLK
  5
21
330
1F
100
AcDbEntity
  8
0
100
AcDbBlockEnd
  0
BLOCK
  5
1C
330
1B
100
AcDbEntity
 67
     1
  8
0
100
AcDbBlockBegin
  2
*PAPER_SPACE
  1

  0
ENDBLK
  5
1D
330
1B
100
AcDbEntity
 67
     1
  8
0
100
AcDbBlockEnd
  0
ENDSEC
  0
SECTION
  2
ENTITIES
  0
SPLINE
  5
100
100
AcDbEntity
  8
0
 62
7
100
AcDbSpline
 70
8
 71
3
 72
8
 73
4
 74
0
 40
0
 40
0
 40
0
 40
0
 40
1
 40
1
 40
1
 40
1
 10
20.191421
 20
228.105553
 30
0.0
 10
20.191421
 20
229.856154
 30
0.0
 10
19.257487
 20
231.473777
 30
0.0
 10
17.741421
 20
232.349077
 30
0.0
  0
SPLINE
  5
101
100
AcDbEntity
  8
0
 62
7
100
AcDbSpline
 70
8
 71
3
 72
8
 73
4
 74
0
 40
0
 40
0
 40
0
 40
0
 40
1
 40
1
 40
1
 40
1
 10
17.741421
 20
232.349077
 30
0.0
 10
16.225356
 20
233.224378
 30
0.0
 10
14.357486
 20
233.224378
 30
0.0
 10
12.841421
 20
232.349077
 30
0.0
  0
SPLINE
  5
102
100
AcDbEntity
  8
0
 62
7
100
AcDbSpline
 70
8
 71
3
 72
8
 73
4
 74
0
 40
0
 40
0
 40
0
 40
0
 40
1
 40
1
 40
1
 40
1
 10
12.841421
 20
232.349077
 30
0.0
 10
11.325356
 20
231.473777
 30
0.0
 10
10.391421
 20
229.856154
 30
0.0
 10
10.391421
 20
228.105553
 30
0.0
  0
SPLINE
  5
103
100
AcDbEntity
  8
0
 62
7
100
AcDbSpline
 70
8
 71
3
 72
8
 73
4
 74
0
 40
0
 40
0
 40
0
 40
0
 40
1
 40
1
 40
1
 40
1
 10
10.391421
 20
228.105553
 30
0.0
 10
10.391421
 20
226.354951
 30
0.0
 10
11.325356
 20
224.737329
 30
0.0
 10
12.841421
 20
223.862028
 30
0.0
  0
SPLINE
  5
104
100
AcDbEntity
  8
0
 62
7
100
AcDbSpline
 70
8
 71
3
 72
8
 73
4
 74
0
 40
0
 40
0
 40
0
 40
0
 40
1
 40
1
 40
1
 40
1
 10
12.841421
 20
223.862028
 30
0.0
 10
14.357486
 20
222.986728
 30
0.0
 10
16.225356
 20
222.986728
 30
0.0
 10
17.741421
 20
223.862028
 30
0.0
  0
SPLINE
  5
105
100
AcDbEntity
  8
0
 62
7
100
AcDbSpline
 70
8
 71
3
 72
8
 73
4
 74
0
 40
0
 40
0
 40
0
 40
0
 40
1
 40
1
 40
1
 40
1
 10
17.741421
 20
223.862028
 30
0.0
 10
19.257487
 20
224.737329
 30
0.0
 10
20.191421
 20
226.354951
 30
0.0
 10
20.191421
 20
228.105553
 30
0.0
  0
SPLINE
  5
106
100
AcDbEntity
  8
0
 62
7
100
AcDbSpline
 70
8
 71
3
 72
8
 73
4
 74
0
 40
0
 40
0
 40
0
 40
0
 40
1
 40
1
 40
1
 40
1
 10
65.191423
 20
296.486814
 30
0.0
 10
65.191752
 20
297.022931
 30
0.0
 10
64.905925
 20
297.518465
 30
0.0
 10
64.441689
 20
297.786619
 30
0.0
  0
SPLINE
  5
107
100
AcDbEntity
  8
0
 62
7
100
AcDbSpline
 70
8
 71
3
 72
8
 73
4
 74
0
 40
0
 40
0
 40
0
 40
0
 40
1
 40
1
 40
1
 40
1
 10
64.441689
 20
297.786619
 30
0.0
 10
63.977452
 20
298.054773
 30
0.0
 10
63.405394
 20
298.054773
 30
0.0
 10
62.941157
 20
297.786619
 30
0.0
  0
SPLINE
  5
108
100
AcDbEntity
  8
0
 62
7
100
AcDbSpline
 70
8
 71
3
 72
8
 73
4
 74
0
 40
0
 40
0
 40
0
 40
0
 40
1
 40
1
 40
1
 40
1
 10
62.941157
 20
297.786619
 30
0.0
 10
62.476921
 20
297.518465
 30
0.0
 10
62.191094
 20
297.022931
 30
0.0
 10
62.191423
 20
296.486814
 30
0.0
  0
SPLINE
  5
109
100
AcDbEntity
  8
0
 62
7
100
AcDbSpline
 70
8
 71
3
 72
8
 73
4
 74
0
 40
0
 40
0
 40
0
 40
0
 40
1
 40
1
 40
1
 40
1
 10
62.191423
 20
296.486814
 30
0.0
 10
62.191094
 20
295.950696
 30
0.0
 10
62.476921
 20
295.455163
 30
0.0
 10
62.941157
 20
295.187009
 30
0.0
  0
SPLINE
  5
10a
100
AcDbEntity
  8
0
 62
7
100
AcDbSpline
 70
8
 71
3
 72
8
 73
4
 74
0
 40
0
 40
0
 40
0
 40
0
 40
1
 40
1
 40
1
 40
1
 10
62.941157
 20
295.187009
 30
0.0
 10
63.405394
 20
294.918855
 30
0.0
 10
63.977452
 20
294.918855
 30
0.0
 10
64.441689
 20
295.187009
 30
0.0
  0
SPLINE
  5
10b
100
AcDbEntity
  8
0
 62
7
100
AcDbSpline
 70
8
 71
3
 72
8
 73
4
 74
0
 40
0
 40
0
 40
0
 40
0
 40
1
 40
1
 40
1
 40
1
 10
64.441689
 20
295.187009
 30
0.0
 10
64.905925
 20
295.455163
 30
0.0
 10
65.191752
 20
295.950696
 30
0.0
 10
65.191423
 20
296.486814
 30
0.0
  0
LWPOLYLINE
  5
10c
100
AcDbEntity
  8
0
 62
7
100
AcDbPolyline
 90
2
 70
1
 10
20.191421
 20
228.105553
 30
0.0
 10
20.191421
 20
228.105553
 30
0.0
  0
SPLINE
  5
10d
100
AcDbEntity
  8
0
 62
7
100
AcDbSpline
 70
8
 71
3
 72
8
 73
4
 74
0
 40
0
 40
0
 40
0
 40
0
 40
1
 40
1
 40
1
 40
1
 10
85.191422
 20
306.486814
 30
0.0
 10
85.192710
 20
310.596226
 30
0.0
 10
83.001104
 20
314.394031
 30
0.0
 10
79.442463
 20
316.449108
 30
0.0
  0
SPLINE
  5
10e
100
AcDbEntity
  8
0
 62
7
100
AcDbSpline
 70
8
 71
3
 72
8
 73
4
 74
0
 40
0
 40
0
 40
0
 40
0
 40
1
 40
1
 40
1
 40
1
 10
79.442463
 20
316.449108
 30
0.0
 10
75.883822
 20
318.504186
 30
0.0
 10
71.499023
 20
318.504186
 30
0.0
 10
67.940382
 20
316.449108
 30
0.0
  0
SPLINE
  5
10f
100
AcDbEntity
  8
0
 62
7
100
AcDbSpline
 70
8
 71
3
 72
8
 73
4
 74
0
 40
0
 40
0
 40
0
 40
0
 40
1
 40
1
 40
1
 40
1
 10
67.940382
 20
316.449108
 30
0.0
 10
64.381741
 20
314.394031
 30
0.0
 10
62.190136
 20
310.596226
 30
0.0
 10
62.191423
 20
306.486814
 30
0.0
  0
SPLINE
  5
110
100
AcDbEntity
  8
0
 62
7
100
AcDbSpline
 70
8
 71
3
 72
8
 73
4
 74
0
 40
0
 40
0
 40
0
 40
0
 40
1
 40
1
 40
1
 40
1
 10
62.191423
 20
306.486814
 30
0.0
 10
62.190136
 20
302.377401
 30
0.0
 10
64.381741
 20
298.579597
 30
0.0
 10
67.940382
 20
296.524519
 30
0.0
  0
SPLINE
  5
111
100
AcDbEntity
  8
0
 62
7
100
AcDbSpline
 70
8
 71
3
 72
8
 73
4
 74
0
 40
0
 40
0
 40
0
 40
0
 40
1
 40
1
 40
1
 40
1
 10
67.940382
 20
296.524519
 30
0.0
 10
71.499023
 20
294.469441
 30
0.0
 10
75.883822
 20
294.469441
 30
0.0
 10
79.442463
 20
296.524519
 30
0.0
  0
SPLINE
  5
112
100
AcDbEntity
  8
0
 62
7
100
AcDbSpline
 70
8
 71
3
 72
8
 73
4
 74
0
 40
0
 40
0
 40
0
 40
0
 40
1
 40
1
 40
1
 40
1
 10
79.442463
 20
296.524519
 30
0.0
 10
83.001104
 20
298.579597
 30
0.0
 10
85.192710
 20
302.377401
 30
0.0
 10
85.191422
 20
306.486814
 30
0.0
  0
LWPOLYLINE
  5
113
100
AcDbEntity
  8
0
 62
7
100
AcDbPolyline
 90
2
 70
1
 10
65.191423
 20
296.486814
 30
0.0
 10
65.191423
 20
296.486814
 30
0.0
  0
SPLINE
  5
114
100
AcDbEntity
  8
0
 62
7
100
AcDbSpline
 70
8
 71
3
 72
8
 73
4
 74
0
 40
0
 40
0
 40
0
 40
0
 40
1
 40
1
 40
1
 40
1
 10
85.191422
 20
316.486813
 30
0.0
 10
85.191751
 20
317.022931
 30
0.0
 10
84.905925
 20
317.518465
 30
0.0
 10
84.441688
 20
317.786618
 30
0.0
  0
SPLINE
  5
115
100
AcDbEntity
  8
0
 62
7
100
AcDbSpline
 70
8
 71
3
 72
8
 73
4
 74
0
 40
0
 40
0
 40
0
 40
0
 40
1
 40
1
 40
1
 40
1
 10
84.441688
 20
317.786618
 30
0.0
 10
83.977451
 20
318.054772
 30
0.0
 10
83.405393
 20
318.054772
 30
0.0
 10
82.941157
 20
317.786618
 30
0.0
  0
SPLINE
  5
116
100
AcDbEntity
  8
0
 62
7
100
AcDbSpline
 70
8
 71
3
 72
8
 73
4
 74
0
 40
0
 40
0
 40
0
 40
0
 40
1
 40
1
 40
1
 40
1
 10
82.941157
 20
317.786618
 30
0.0
 10
82.476920
 20
317.518465
 30
0.0
 10
82.191094
 20
317.022931
 30
0.0
 10
82.191423
 20
316.486813
 30
0.0
  0
SPLINE
  5
117
100
AcDbEntity
  8
0
 62
7
100
AcDbSpline
 70
8
 71
3
 72
8
 73
4
 74
0
 40
0
 40
0
 40
0
 40
0
 40
1
 40
1
 40
1
 40
1
 10
82.191423
 20
316.486813
 30
0.0
 10
82.191094
 20
315.950696
 30
0.0
 10
82.476920
 20
315.455162
 30
0.0
 10
82.941157
 20
315.187009
 30
0.0
  0
SPLINE
  5
118
100
AcDbEntity
  8
0
 62
7
100
AcDbSpline
 70
8
 71
3
 72
8
 73
4
 74
0
 40
0
 40
0
 40
0
 40
0
 40
1
 40
1
 40
1
 40
1
 10
82.941157
 20
315.187009
 30
0.0
 10
83.405393
 20
314.918855
 30
0.0
 10
83.977451
 20
314.918855
 30
0.0
 10
84.441688
 20
315.187009
 30
0.0
  0
SPLINE
  5
119
100
AcDbEntity
  8
0
 62
7
100
AcDbSpline
 70
8
 71
3
 72
8
 73
4
 74
0
 40
0
 40
0
 40
0
 40
0
 40
1
 40
1
 40
1
 40
1
 10
84.441688
 20
315.187009
 30
0.0
 10
84.905925
 20
315.455162
 30
0.0
 10
85.191751
 20
315.950696
 30
0.0
 10
85.191422
 20
316.486813
 30
0.0
  0
LWPOLYLINE
  5
11a
100
AcDbEntity
  8
0
 62
7
100
AcDbPolyline
 90
2
 70
1
 10
85.191422
 20
306.486814
 30
0.0
 10
85.191422
 20
306.486814
 30
0.0
  0
SPLINE
  5
11b
100
AcDbEntity
  8
0
 62
7
100
AcDbSpline
 70
8
 71
3
 72
8
 73
4
 74
0
 40
0
 40
0
 40
0
 40
0
 40
1
 40
1
 40
1
 40
1
 10
85.191422
 20
296.486814
 30
0.0
 10
85.191751
 20
297.022931
 30
0.0
 10
84.905925
 20
297.518465
 30
0.0
 10
84.441688
 20
297.786619
 30
0.0
  0
SPLINE
  5
11c
100
AcDbEntity
  8
0
 62
7
100
AcDbSpline
 70
8
 71
3
 72
8
 73
4
 74
0
 40
0
 40
0
 40
0
 40
0
 40
1
 40
1
 40
1
 40
1
 10
84.441688
 20
297.786619
 30
0.0
 10
83.977451
 20
298.054773
 30
0.0
 10
83.405393
 20
298.054773
 30
0.0
 10
82.941157
 20
297.786619
 30
0.0
  0
SPLINE
  5
11d
100
AcDbEntity
  8
0
 62
7
100
AcDbSpline
 70
8
 71
3
 72
8
 73
4
 74
0
 40
0
 40
0
 40
0
 40
0
 40
1
 40
1
 40
1
 40
1
 10
82.941157
 20
297.786619
 30
0.0
 10
82.476920
 20
297.518465
 30
0.0
 10
82.191094
 20
297.022931
 30
0.0
 10
82.191423
 20
296.486814
 30
0.0
  0
SPLINE
  5
11e
100
AcDbEntity
  8
0
 62
7
100
AcDbSpline
 70
8
 71
3
 72
8
 73
4
 74
0
 40
0
 40
0
 40
0
 40
0
 40
1
 40
1
 40
1
 40
1
 10
82.191423
 20
296.486814
 30
0.0
 10
82.191094
 20
295.950696
 30
0.0
 10
82.476920
 20
295.455163
 30
0.0
 10
82.941157
 20
295.187009
 30
0.0
  0
SPLINE
  5
11f
100
AcDbEntity
  8
0
 62
7
100
AcDbSpline
 70
8
 71
3
 72
8
 73
4
 74
0
 40
0
 40
0
 40
0
 40
0
 40
1
 40
1
 40
1
 40
1
 10
82.941157
 20
295.187009
 30
0.0
 10
83.405393
 20
294.918855
 30
0.0
 10
83.977451
 20
294.918855
 30
0.0
 10
84.441688
 20
295.187009
 30
0.0
  0
SPLINE
  5
120
100
AcDbEntity
  8
0
 62
7
100
AcDbSpline
 70
8
 71
3
 72
8
 73
4
 74
0
 40
0
 40
0
 40
0
 40
0
 40
1
 40
1
 40
1
 40
1
 10
84.441688
 20
295.187009
 30
0.0
 10
84.905925
 20
295.455163
 30
0.0
 10
85.191751
 20
295.950696
 30
0.0
 10
85.191422
 20
296.486814
 30
0.0
  0
LWPOLYLINE
  5
121
100
AcDbEntity
  8
0
 62
7
100
AcDbPolyline
 90
2
 70
1
 10
85.191422
 20
316.486813
 30
0.0
 10
85.191422
 20
316.486813
 30
0.0
  0
SPLINE
  5
122
100
AcDbEntity
  8
0
 62
7
100
AcDbSpline
 70
8
 71
3
 72
8
 73
4
 74
0
 40
0
 40
0
 40
0
 40
0
 40
1
 40
1
 40
1
 40
1
 10
65.191423
 20
316.486813
 30
0.0
 10
65.191752
 20
317.022931
 30
0.0
 10
64.905925
 20
317.518465
 30
0.0
 10
64.441689
 20
317.786618
 30
0.0
  0
SPLINE
  5
123
100
AcDbEntity
  8
0
 62
7
100
AcDbSpline
 70
8
 71
3
 72
8
 73
4
 74
0
 40
0
 40
0
 40
0
 40
0
 40
1
 40
1
 40
1
 40
1
 10
64.441689
 20
317.786618
 30
0.0
 10
63.977452
 20
318.054772
 30
0.0
 10
63.405394
 20
318.054772
 30
0.0
 10
62.941157
 20
317.786618
 30
0.0
  0
SPLINE
  5
124
100
AcDbEntity
  8
0
 62
7
100
AcDbSpline
 70
8
 71
3
 72
8
 73
4
 74
0
 40
0
 40
0
 40
0
 40
0
 40
1
 40
1
 40
1
 40
1
 10
62.941157
 20
317.786618
 30
0.0
 10
62.476921
 20
317.518465
 30
0.0
 10
62.191094
 20
317.022931
 30
0.0
 10
62.191423
 20
316.486813
 30
0.0
  0
SPLINE
  5
125
100
AcDbEntity
  8
0
 62
7
100
AcDbSpline
 70
8
 71
3
 72
8
 73
4
 74
0
 40
0
 40
0
 40
0
 40
0
 40
1
 40
1
 40
1
 40
1
 10
62.191423
 20
316.486813
 30
0.0
 10
62.191094
 20
315.950696
 30
0.0
 10
62.476921
 20
315.455162
 30
0.0
 10
62.941157
 20
315.187009
 30
0.0
  0
SPLINE
  5
126
100
AcDbEntity
  8
0
 62
7
100
AcDbSpline
 70
8
 71
3
 72
8
 73
4
 74
0
 40
0
 40
0
 40
0
 40
0
 40
1
 40
1
 40
1
 40
1
 10
62.941157
 20
315.187009
 30
0.0
 10
63.405394
 20
314.918855
 30
0.0
 10
63.977452
 20
314.918855
 30
0.0
 10
64.441689
 20
315.187009
 30
0.0
  0
SPLINE
  5
127
100
AcDbEntity
  8
0
 62
7
100
AcDbSpline
 70
8
 71
3
 72
8
 73
4
 74
0
 40
0
 40
0
 40
0
 40
0
 40
1
 40
1
 40
1
 40
1
 10
64.441689
 20
315.187009
 30
0.0
 10
64.905925
 20
315.455162
 30
0.0
 10
65.191752
 20
315.950696
 30
0.0
 10
65.191423
 20
316.486813
 30
0.0
  0
LWPOLYLINE
  5
128
100
AcDbEntity
  8
0
 62
7
100
AcDbPolyline
 90
2
 70
1
 10
85.191422
 20
296.486814
 30
0.0
 10
85.191422
 20
296.486814
 30
0.0
  0
LWPOLYLINE
  5
129
100
AcDbEntity
  8
0
 62
7
100
AcDbPolyline
 90
2
 70
1
 10
65.191423
 20
316.486813
 30
0.0
 10
65.191423
 20
316.486813
 30
0.0
  0
LWPOLYLINE
  5
12a
100
AcDbEntity
  8
0
 62
7
100
AcDbPolyline
 90
6
 70
1
 10
7.691421
 20
222.486816
 30
0.0
 10
7.691421
 20
592.486793
 30
0.0
 10
107.691422
 20
592.486793
 30
0.0
 10
107.691422
 20
222.486816
 30
0.0
 10
7.691421
 20
222.486816
 30
0.0
 10
7.691421
 20
222.486816
 30
0.0
  0
SPLINE
  5
12b
100
AcDbEntity
  8
0
 62
7
100
AcDbSpline
 70
8
 71
3
 72
8
 73
4
 74
0
 40
0
 40
0
 40
0
 40
0
 40
1
 40
1
 40
1
 40
1
 10
227.047800
 20
582.989253
 30
0.0
 10
227.048401
 20
584.775981
 30
0.0
 10
226.095537
 20
586.427243
 30
0.0
 10
224.548286
 20
587.320780
 30
0.0
  0
SPLINE
  5
12c
100
AcDbEntity
  8
0
 62
7
100
AcDbSpline
 70
8
 71
3
 72
8
 73
4
 74
0
 40
0
 40
0
 40
0
 40
0
 40
1
 40
1
 40
1
 40
1
 10
224.548286
 20
587.320780
 30
0.0
 10
223.001034
 20
588.214318
 30
0.0
 10
221.094567
 20
588.214318
 30
0.0
 10
219.547315
 20
587.320780
 30
0.0
  0
SPLINE
  5
12d
100
AcDbEntity
  8
0
 62
7
100
AcDbSpline
 70
8
 71
3
 72
8
 73
4
 74
0
 40
0
 40
0
 40
0
 40
0
 40
1
 40
1
 40
1
 40
1
 10
219.547315
 20
587.320780
 30
0.0
 10
218.000064
 20
586.427243
 30
0.0
 10
217.047200
 20
584.775981
 30
0.0
 10
217.047801
 20
582.989253
 30
0.0
  0
SPLINE
  5
12e
100
AcDbEntity
  8
0
 62
7
100
AcDbSpline
 70
8
 71
3
 72
8
 73
4
 74
0
 40
0
 40
0
 40
0
 40
0
 40
1
 40
1
 40
1
 40
1
 10
217.047801
 20
582.989253
 30
0.0
 10
217.047200
 20
581.202525
 30
0.0
 10
218.000064
 20
579.551263
 30
0.0
 10
219.547315
 20
578.657726
 30
0.0
  0
SPLINE
  5
12f
100
AcDbEntity
  8
0
 62
7
100
AcDbSpline
 70
8
 71
3
 72
8
 73
4
 74
0
 40
0
 40
0
 40
0
 40
0
 40
1
 40
1
 40
1
 40
1
 10
219.547315
 20
578.657726
 30
0.0
 10
221.094567
 20
577.764189
 30
0.0
 10
223.001034
 20
577.764189
 30
0.0
 10
224.548286
 20
578.657726
 30
0.0
  0
SPLINE
  5
130
100
AcDbEntity
  8
0
 62
7
100
AcDbSpline
 70
8
 71
3
 72
8
 73
4
 74
0
 40
0
 40
0
 40
0
 40
0
 40
1
 40
1
 40
1
 40
1
 10
224.548286
 20
578.657726
 30
0.0
 10
226.095537
 20
579.551263
 30
0.0
 10
227.048401
 20
581.202525
 30
0.0
 10
227.047800
 20
582.989253
 30
0.0
  0
LWPOLYLINE
  5
131
100
AcDbEntity
  8
0
 62
7
100
AcDbPolyline
 90
6
 70
1
 10
209.866038
 20
592.486793
 30
0.0
 10
209.866038
 20
222.486816
 30
0.0
 10
109.866041
 20
222.486816
 30
0.0
 10
109.866041
 20
592.486793
 30
0.0
 10
209.866038
 20
592.486793
 30
0.0
 10
209.866038
 20
592.486793
 30
0.0
  0
LWPOLYLINE
  5
132
100
AcDbEntity
  8
0
 62
7
100
AcDbPolyline
 90
2
 70
1
 10
227.047800
 20
582.989253
 30
0.0
 10
227.047800
 20
582.989253
 30
0.0
  0
LWPOLYLINE
  5
133
100
AcDbEntity
  8
0
 62
7
100
AcDbPolyline
 90
6
 70
1
 10
212.047802
 20
492.989264
 30
0.0
 10
212.047802
 20
592.989233
 30
0.0
 10
312.047805
 20
592.989233
 30
0.0
 10
312.047805
 20
492.989264
 30
0.0
 10
212.047802
 20
492.989264
 30
0.0
 10
212.047802
 20
492.989264
 30
0.0
  0
LWPOLYLINE
  5
134
100
AcDbEntity
  8
0
 62
7
100
AcDbPolyline
 90
6
 70
1
 10
312.421637
 20
439.311791
 30
0.0
 10
216.421631
 20
439.311791
 30
0.0
 10
216.421631
 20
389.311789
 30
0.0
 10
312.421637
 20
389.311789
 30
0.0
 10
312.421637
 20
439.311791
 30
0.0
 10
312.421637
 20
439.311791
 30
0.0
  0
LWPOLYLINE
  5
135
100
AcDbEntity
  8
0
 62
7
100
AcDbPolyline
 90
6
 70
1
 10
212.421634
 20
491.311791
 30
0.0
 10
316.421629
 20
491.311791
 30
0.0
 10
316.421629
 20
387.311790
 30
0.0
 10
212.421634
 20
387.311790
 30
0.0
 10
212.421634
 20
491.311791
 30
0.0
 10
212.421634
 20
491.311791
 30
0.0
  0
LWPOLYLINE
  5
136
100
AcDbEntity
  8
0
 62
7
100
AcDbPolyline
 90
6
 70
1
 10
316.390528
 20
281.927514
 30
0.0
 10
212.390536
 20
281.927514
 30
0.0
 10
212.390536
 20
385.927516
 30
0.0
 10
316.390528
 20
385.927516
 30
0.0
 10
316.390528
 20
281.927514
 30
0.0
 10
316.390528
 20
281.927514
 30
0.0
  0
LWPOLYLINE
  5
137
100
AcDbEntity
  8
0
 62
7
100
AcDbPolyline
 90
6
 70
1
 10
313.633697
 20
222.486816
 30
0.0
 10
213.633682
 20
222.486816
 30
0.0
 10
213.633682
 20
274.486816
 30
0.0
 10
313.633697
 20
274.486816
 30
0.0
 10
313.633697
 20
222.486816
 30
0.0
 10
313.633697
 20
222.486816
 30
0.0
  0
LWPOLYLINE
  5
138
100
AcDbEntity
  8
0
 62
7
100
AcDbPolyline
 90
6
 70
1
 10
422.009739
 20
592.486793
 30
0.0
 10
422.009739
 20
222.486816
 30
0.0
 10
318.009750
 20
222.486816
 30
0.0
 10
318.009750
 20
592.486793
 30
0.0
 10
422.009739
 20
592.486793
 30
0.0
 10
422.009739
 20
592.486793
 30
0.0
  0
SPLINE
  5
139
100
AcDbEntity
  8
0
 62
7
100
AcDbSpline
 70
8
 71
3
 72
8
 73
4
 74
0
 40
0
 40
0
 40
0
 40
0
 40
1
 40
1
 40
1
 40
1
 10
558.957057
 20
576.486816
 30
0.0
 10
558.962210
 20
580.598800
 30
0.0
 10
556.771452
 20
584.400637
 30
0.0
 10
553.211226
 20
586.458118
 30
0.0
  0
SPLINE
  5
13a
100
AcDbEntity
  8
0
 62
7
100
AcDbSpline
 70
8
 71
3
 72
8
 73
4
 74
0
 40
0
 40
0
 40
0
 40
0
 40
1
 40
1
 40
1
 40
1
 10
553.211226
 20
586.458118
 30
0.0
 10
549.650999
 20
588.515599
 30
0.0
 10
545.263132
 20
588.515599
 30
0.0
 10
541.702906
 20
586.458118
 30
0.0
  0
SPLINE
  5
13b
100
AcDbEntity
  8
0
 62
7
100
AcDbSpline
 70
8
 71
3
 72
8
 73
4
 74
0
 40
0
 40
0
 40
0
 40
0
 40
1
 40
1
 40
1
 40
1
 10
541.702906
 20
586.458118
 30
0.0
 10
538.142679
 20
584.400637
 30
0.0
 10
535.951921
 20
580.598800
 30
0.0
 10
535.957074
 20
576.486816
 30
0.0
  0
SPLINE
  5
13c
100
AcDbEntity
  8
0
 62
7
100
AcDbSpline
 70
8
 71
3
 72
8
 73
4
 74
0
 40
0
 40
0
 40
0
 40
0
 40
1
 40
1
 40
1
 40
1
 10
535.957074
 20
576.486816
 30
0.0
 10
535.951921
 20
572.374832
 30
0.0
 10
538.142679
 20
568.572996
 30
0.0
 10
541.702906
 20
566.515515
 30
0.0
  0
SPLINE
  5
13d
100
AcDbEntity
  8
0
 62
7
100
AcDbSpline
 70
8
 71
3
 72
8
 73
4
 74
0
 40
0
 40
0
 40
0
 40
0
 40
1
 40
1
 40
1
 40
1
 10
541.702906
 20
566.515515
 30
0.0
 10
545.263132
 20
564.458034
 30
0.0
 10
549.650999
 20
564.458034
 30
0.0
 10
553.211226
 20
566.515515
 30
0.0
  0
SPLINE
  5
13e
100
AcDbEntity
  8
0
 62
7
100
AcDbSpline
 70
8
 71
3
 72
8
 73
4
 74
0
 40
0
 40
0
 40
0
 40
0
 40
1
 40
1
 40
1
 40
1
 10
553.211226
 20
566.515515
 30
0.0
 10
556.771452
 20
568.572996
 30
0.0
 10
558.962210
 20
572.374832
 30
0.0
 10
558.957057
 20
576.486816
 30
0.0
  0
LWPOLYLINE
  5
13f
100
AcDbEntity
  8
0
 62
7
100
AcDbPolyline
 90
6
 70
1
 10
425.446021
 20
222.486816
 30
0.0
 10
425.446021
 20
592.486793
 30
0.0
 10
529.446010
 20
592.486793
 30
0.0
 10
529.446010
 20
222.486816
 30
0.0
 10
425.446021
 20
222.486816
 30
0.0
 10
425.446021
 20
222.486816
 30
0.0
  0
LWPOLYLINE
  5
140
100
AcDbEntity
  8
0
 62
7
100
AcDbPolyline
 90
2
 70
1
 10
558.957057
 20
576.486816
 30
0.0
 10
558.957057
 20
576.486816
 30
0.0
  0
LWPOLYLINE
  5
141
100
AcDbEntity
  8
0
 62
7
100
AcDbPolyline
 90
6
 70
1
 10
531.457069
 20
562.486816
 30
0.0
 10
531.457069
 20
592.486793
 30
0.0
 10
563.457062
 20
592.486793
 30
0.0
 10
563.457062
 20
562.486816
 30
0.0
 10
531.457069
 20
562.486816
 30
0.0
 10
531.457069
 20
562.486816
 30
0.0
  0
LWPOLYLINE
  5
142
100
AcDbEntity
  8
0
 62
7
100
AcDbPolyline
 90
6
 70
1
 10
566.613915
 20
592.486793
 30
0.0
 10
577.613921
 20
592.486793
 30
0.0
 10
577.613921
 20
564.486815
 30
0.0
 10
566.613915
 20
564.486815
 30
0.0
 10
566.613915
 20
592.486793
 30
0.0
 10
566.613915
 20
592.486793
 30
0.0
  0
LWPOLYLINE
  5
143
100
AcDbEntity
  8
0
 62
7
100
AcDbPolyline
 90
6
 70
1
 10
590.891207
 20
592.486793
 30
0.0
 10
590.891207
 20
562.486816
 30
0.0
 10
579.891200
 20
562.486816
 30
0.0
 10
579.891200
 20
592.486793
 30
0.0
 10
590.891207
 20
592.486793
 30
0.0
 10
590.891207
 20
592.486793
 30
0.0
  0
SPLINE
  5
144
100
AcDbEntity
  8
0
 62
7
100
AcDbSpline
 70
8
 71
3
 72
8
 73
4
 74
0
 40
0
 40
0
 40
0
 40
0
 40
1
 40
1
 40
1
 40
1
 10
587.268574
 20
544.360981
 30
0.0
 10
587.269285
 20
544.718719
 30
0.0
 10
587.078842
 20
545.049588
 30
0.0
 10
586.769150
 20
545.228663
 30
0.0
  0
SPLINE
  5
145
100
AcDbEntity
  8
0
 62
7
100
AcDbSpline
 70
8
 71
3
 72
8
 73
4
 74
0
 40
0
 40
0
 40
0
 40
0
 40
1
 40
1
 40
1
 40
1
 10
586.769150
 20
545.228663
 30
0.0
 10
586.459457
 20
545.407737
 30
0.0
 10
586.077695
 20
545.407737
 30
0.0
 10
585.768002
 20
545.228663
 30
0.0
  0
SPLINE
  5
146
100
AcDbEntity
  8
0
 62
7
100
AcDbSpline
 70
8
 71
3
 72
8
 73
4
 74
0
 40
0
 40
0
 40
0
 40
0
 40
1
 40
1
 40
1
 40
1
 10
585.768002
 20
545.228663
 30
0.0
 10
585.458310
 20
545.049588
 30
0.0
 10
585.267867
 20
544.718719
 30
0.0
 10
585.268578
 20
544.360981
 30
0.0
  0
SPLINE
  5
147
100
AcDbEntity
  8
0
 62
7
100
AcDbSpline
 70
8
 71
3
 72
8
 73
4
 74
0
 40
0
 40
0
 40
0
 40
0
 40
1
 40
1
 40
1
 40
1
 10
585.268578
 20
544.360981
 30
0.0
 10
585.267867
 20
544.003243
 30
0.0
 10
585.458310
 20
543.672374
 30
0.0
 10
585.768002
 20
543.493299
 30
0.0
  0
SPLINE
  5
148
100
AcDbEntity
  8
0
 62
7
100
AcDbSpline
 70
8
 71
3
 72
8
 73
4
 74
0
 40
0
 40
0
 40
0
 40
0
 40
1
 40
1
 40
1
 40
1
 10
585.768002
 20
543.493299
 30
0.0
 10
586.077695
 20
543.314225
 30
0.0
 10
586.459457
 20
543.314225
 30
0.0
 10
586.769150
 20
543.493299
 30
0.0
  0
SPLINE
  5
149
100
AcDbEntity
  8
0
 62
7
100
AcDbSpline
 70
8
 71
3
 72
8
 73
4
 74
0
 40
0
 40
0
 40
0
 40
0
 40
1
 40
1
 40
1
 40
1
 10
586.769150
 20
543.493299
 30
0.0
 10
587.078842
 20
543.672374
 30
0.0
 10
587.269285
 20
544.003243
 30
0.0
 10
587.268574
 20
544.360981
 30
0.0
  0
LWPOLYLINE
  5
14a
100
AcDbEntity
  8
0
 62
7
100
AcDbPolyline
 90
6
 70
1
 10
603.801688
 20
562.486816
 30
0.0
 10
592.801682
 20
562.486816
 30
0.0
 10
592.801682
 20
592.486793
 30
0.0
 10
603.801688
 20
592.486793
 30
0.0
 10
603.801688
 20
562.486816
 30
0.0
 10
603.801688
 20
562.486816
 30
0.0
  0
SPLINE
  5
14b
100
AcDbEntity
  8
0
 62
7
100
AcDbSpline
 70
8
 71
3
 72
8
 73
4
 74
0
 40
0
 40
0
 40
0
 40
0
 40
1
 40
1
 40
1
 40
1
 10
598.370124
 20
530.153310
 30
0.0
 10
598.370835
 20
530.511049
 30
0.0
 10
598.180392
 20
530.841917
 30
0.0
 10
597.870699
 20
531.020992
 30
0.0
  0
SPLINE
  5
14c
100
AcDbEntity
  8
0
 62
7
100
AcDbSpline
 70
8
 71
3
 72
8
 73
4
 74
0
 40
0
 40
0
 40
0
 40
0
 40
1
 40
1
 40
1
 40
1
 10
597.870699
 20
531.020992
 30
0.0
 10
597.561007
 20
531.200067
 30
0.0
 10
597.179245
 20
531.200067
 30
0.0
 10
596.869552
 20
531.020992
 30
0.0
  0
SPLINE
  5
14d
100
AcDbEntity
  8
0
 62
7
100
AcDbSpline
 70
8
 71
3
 72
8
 73
4
 74
0
 40
0
 40
0
 40
0
 40
0
 40
1
 40
1
 40
1
 40
1
 10
596.869552
 20
531.020992
 30
0.0
 10
596.559860
 20
530.841917
 30
0.0
 10
596.369417
 20
530.511049
 30
0.0
 10
596.370128
 20
530.153310
 30
0.0
  0
SPLINE
  5
14e
100
AcDbEntity
  8
0
 62
7
100
AcDbSpline
 70
8
 71
3
 72
8
 73
4
 74
0
 40
0
 40
0
 40
0
 40
0
 40
1
 40
1
 40
1
 40
1
 10
596.370128
 20
530.153310
 30
0.0
 10
596.369417
 20
529.795572
 30
0.0
 10
596.559860
 20
529.464704
 30
0.0
 10
596.869552
 20
529.285629
 30
0.0
  0
SPLINE
  5
14f
100
AcDbEntity
  8
0
 62
7
100
AcDbSpline
 70
8
 71
3
 72
8
 73
4
 74
0
 40
0
 40
0
 40
0
 40
0
 40
1
 40
1
 40
1
 40
1
 10
596.869552
 20
529.285629
 30
0.0
 10
597.179245
 20
529.106554
 30
0.0
 10
597.561007
 20
529.106554
 30
0.0
 10
597.870699
 20
529.285629
 30
0.0
  0
SPLINE
  5
150
100
AcDbEntity
  8
0
 62
7
100
AcDbSpline
 70
8
 71
3
 72
8
 73
4
 74
0
 40
0
 40
0
 40
0
 40
0
 40
1
 40
1
 40
1
 40
1
 10
597.870699
 20
529.285629
 30
0.0
 10
598.180392
 20
529.464704
 30
0.0
 10
598.370835
 20
529.795572
 30
0.0
 10
598.370124
 20
530.153310
 30
0.0
  0
LWPOLYLINE
  5
151
100
AcDbEntity
  8
0
 62
7
100
AcDbPolyline
 90
2
 70
1
 10
587.268574
 20
544.360981
 30
0.0
 10
587.268574
 20
544.360981
 30
0.0
  0
SPLINE
  5
152
100
AcDbEntity
  8
0
 62
7
100
AcDbSpline
 70
8
 71
3
 72
8
 73
4
 74
0
 40
0
 40
0
 40
0
 40
0
 40
1
 40
1
 40
1
 40
1
 10
609.049102
 20
485.747145
 30
0.0
 10
609.049102
 20
486.015096
 30
0.0
 10
608.906152
 20
486.262694
 30
0.0
 10
608.674100
 20
486.396669
 30
0.0
  0
SPLINE
  5
153
100
AcDbEntity
  8
0
 62
7
100
AcDbSpline
 70
8
 71
3
 72
8
 73
4
 74
0
 40
0
 40
0
 40
0
 40
0
 40
1
 40
1
 40
1
 40
1
 10
608.674100
 20
486.396669
 30
0.0
 10
608.442047
 20
486.530645
 30
0.0
 10
608.156146
 20
486.530645
 30
0.0
 10
607.924094
 20
486.396669
 30
0.0
  0
SPLINE
  5
154
100
AcDbEntity
  8
0
 62
7
100
AcDbSpline
 70
8
 71
3
 72
8
 73
4
 74
0
 40
0
 40
0
 40
0
 40
0
 40
1
 40
1
 40
1
 40
1
 10
607.924094
 20
486.396669
 30
0.0
 10
607.692041
 20
486.262694
 30
0.0
 10
607.549091
 20
486.015096
 30
0.0
 10
607.549091
 20
485.747145
 30
0.0
  0
SPLINE
  5
155
100
AcDbEntity
  8
0
 62
7
100
AcDbSpline
 70
8
 71
3
 72
8
 73
4
 74
0
 40
0
 40
0
 40
0
 40
0
 40
1
 40
1
 40
1
 40
1
 10
607.549091
 20
485.747145
 30
0.0
 10
607.549091
 20
485.332929
 30
0.0
 10
607.884880
 20
484.997140
 30
0.0
 10
608.299097
 20
484.997140
 30
0.0
  0
SPLINE
  5
156
100
AcDbEntity
  8
0
 62
7
100
AcDbSpline
 70
8
 71
3
 72
8
 73
4
 74
0
 40
0
 40
0
 40
0
 40
0
 40
1
 40
1
 40
1
 40
1
 10
608.299097
 20
484.997140
 30
0.0
 10
608.713313
 20
484.997140
 30
0.0
 10
609.049102
 20
485.332929
 30
0.0
 10
609.049102
 20
485.747145
 30
0.0
  0
LWPOLYLINE
  5
157
100
AcDbEntity
  8
0
 62
7
100
AcDbPolyline
 90
2
 70
1
 10
598.370124
 20
530.153310
 30
0.0
 10
598.370124
 20
530.153310
 30
0.0
  0
SPLINE
  5
158
100
AcDbEntity
  8
0
 62
7
100
AcDbSpline
 70
8
 71
3
 72
8
 73
4
 74
0
 40
0
 40
0
 40
0
 40
0
 40
1
 40
1
 40
1
 40
1
 10
603.929732
 20
544.418501
 30
0.0
 10
603.931009
 20
544.687296
 30
0.0
 10
603.788342
 20
544.936221
 30
0.0
 10
603.555769
 20
545.070989
 30
0.0
  0
SPLINE
  5
159
100
AcDbEntity
  8
0
 62
7
100
AcDbSpline
 70
8
 71
3
 72
8
 73
4
 74
0
 40
0
 40
0
 40
0
 40
0
 40
1
 40
1
 40
1
 40
1
 10
603.555769
 20
545.070989
 30
0.0
 10
603.323196
 20
545.205756
 30
0.0
 10
603.036285
 20
545.205756
 30
0.0
 10
602.803713
 20
545.070989
 30
0.0
  0
SPLINE
  5
15a
100
AcDbEntity
  8
0
 62
7
100
AcDbSpline
 70
8
 71
3
 72
8
 73
4
 74
0
 40
0
 40
0
 40
0
 40
0
 40
1
 40
1
 40
1
 40
1
 10
602.803713
 20
545.070989
 30
0.0
 10
602.571140
 20
544.936221
 30
0.0
 10
602.428472
 20
544.687296
 30
0.0
 10
602.429749
 20
544.418501
 30
0.0
  0
SPLINE
  5
15b
100
AcDbEntity
  8
0
 62
7
100
AcDbSpline
 70
8
 71
3
 72
8
 73
4
 74
0
 40
0
 40
0
 40
0
 40
0
 40
1
 40
1
 40
1
 40
1
 10
602.429749
 20
544.418501
 30
0.0
 10
602.428472
 20
544.149706
 30
0.0
 10
602.571140
 20
543.900780
 30
0.0
 10
602.803713
 20
543.766013
 30
0.0
  0
SPLINE
  5
15c
100
AcDbEntity
  8
0
 62
7
100
AcDbSpline
 70
8
 71
3
 72
8
 73
4
 74
0
 40
0
 40
0
 40
0
 40
0
 40
1
 40
1
 40
1
 40
1
 10
602.803713
 20
543.766013
 30
0.0
 10
603.036285
 20
543.631245
 30
0.0
 10
603.323196
 20
543.631245
 30
0.0
 10
603.555769
 20
543.766013
 30
0.0
  0
SPLINE
  5
15d
100
AcDbEntity
  8
0
 62
7
100
AcDbSpline
 70
8
 71
3
 72
8
 73
4
 74
0
 40
0
 40
0
 40
0
 40
0
 40
1
 40
1
 40
1
 40
1
 10
603.555769
 20
543.766013
 30
0.0
 10
603.788342
 20
543.900780
 30
0.0
 10
603.931009
 20
544.149706
 30
0.0
 10
603.929732
 20
544.418501
 30
0.0
  0
LWPOLYLINE
  5
15e
100
AcDbEntity
  8
0
 62
7
100
AcDbPolyline
 90
2
 70
1
 10
609.049102
 20
485.747145
 30
0.0
 10
609.049102
 20
485.747145
 30
0.0
  0
SPLINE
  5
15f
100
AcDbEntity
  8
0
 62
7
100
AcDbSpline
 70
8
 71
3
 72
8
 73
4
 74
0
 40
0
 40
0
 40
0
 40
0
 40
1
 40
1
 40
1
 40
1
 10
589.031814
 20
520.777397
 30
0.0
 10
589.031814
 20
521.045348
 30
0.0
 10
588.888864
 20
521.292945
 30
0.0
 10
588.656811
 20
521.426921
 30
0.0
  0
SPLINE
  5
160
100
AcDbEntity
  8
0
 62
7
100
AcDbSpline
 70
8
 71
3
 72
8
 73
4
 74
0
 40
0
 40
0
 40
0
 40
0
 40
1
 40
1
 40
1
 40
1
 10
588.656811
 20
521.426921
 30
0.0
 10
588.424758
 20
521.560897
 30
0.0
 10
588.138858
 20
521.560897
 30
0.0
 10
587.906805
 20
521.426921
 30
0.0
  0
SPLINE
  5
161
100
AcDbEntity
  8
0
 62
7
100
AcDbSpline
 70
8
 71
3
 72
8
 73
4
 74
0
 40
0
 40
0
 40
0
 40
0
 40
1
 40
1
 40
1
 40
1
 10
587.906805
 20
521.426921
 30
0.0
 10
587.674753
 20
521.292945
 30
0.0
 10
587.531803
 20
521.045348
 30
0.0
 10
587.531803
 20
520.777397
 30
0.0
  0
SPLINE
  5
162
100
AcDbEntity
  8
0
 62
7
100
AcDbSpline
 70
8
 71
3
 72
8
 73
4
 74
0
 40
0
 40
0
 40
0
 40
0
 40
1
 40
1
 40
1
 40
1
 10
587.531803
 20
520.777397
 30
0.0
 10
587.531803
 20
520.363181
 30
0.0
 10
587.867592
 20
520.027392
 30
0.0
 10
588.281808
 20
520.027392
 30
0.0
  0
SPLINE
  5
163
100
AcDbEntity
  8
0
 62
7
100
AcDbSpline
 70
8
 71
3
 72
8
 73
4
 74
0
 40
0
 40
0
 40
0
 40
0
 40
1
 40
1
 40
1
 40
1
 10
588.281808
 20
520.027392
 30
0.0
 10
588.696025
 20
520.027392
 30
0.0
 10
589.031814
 20
520.363181
 30
0.0
 10
589.031814
 20
520.777397
 30
0.0
  0
LWPOLYLINE
  5
164
100
AcDbEntity
  8
0
 62
7
100
AcDbPolyline
 90
2
 70
1
 10
603.929732
 20
544.418501
 30
0.0
 10
603.929732
 20
544.418501
 30
0.0
  0
SPLINE
  5
165
100
AcDbEntity
  8
0
 62
7
100
AcDbSpline
 70
8
 71
3
 72
8
 73
4
 74
0
 40
0
 40
0
 40
0
 40
0
 40
1
 40
1
 40
1
 40
1
 10
582.186824
 20
508.870563
 30
0.0
 10
582.186824
 20
509.138514
 30
0.0
 10
582.043874
 20
509.386111
 30
0.0
 10
581.811821
 20
509.520087
 30
0.0
  0
SPLINE
  5
166
100
AcDbEntity
  8
0
 62
7
100
AcDbSpline
 70
8
 71
3
 72
8
 73
4
 74
0
 40
0
 40
0
 40
0
 40
0
 40
1
 40
1
 40
1
 40
1
 10
581.811821
 20
509.520087
 30
0.0
 10
581.579769
 20
509.654062
 30
0.0
 10
581.293868
 20
509.654062
 30
0.0
 10
581.061816
 20
509.520087
 30
0.0
  0
SPLINE
  5
167
100
AcDbEntity
  8
0
 62
7
100
AcDbSpline
 70
8
 71
3
 72
8
 73
4
 74
0
 40
0
 40
0
 40
0
 40
0
 40
1
 40
1
 40
1
 40
1
 10
581.061816
 20
509.520087
 30
0.0
 10
580.829763
 20
509.386111
 30
0.0
 10
580.686813
 20
509.138514
 30
0.0
 10
580.686813
 20
508.870563
 30
0.0
  0
SPLINE
  5
168
100
AcDbEntity
  8
0
 62
7
100
AcDbSpline
 70
8
 71
3
 72
8
 73
4
 74
0
 40
0
 40
0
 40
0
 40
0
 40
1
 40
1
 40
1
 40
1
 10
580.686813
 20
508.870563
 30
0.0
 10
580.686813
 20
508.456346
 30
0.0
 10
581.022602
 20
508.120558
 30
0.0
 10
581.436819
 20
508.120558
 30
0.0
  0
SPLINE
  5
169
100
AcDbEntity
  8
0
 62
7
100
AcDbSpline
 70
8
 71
3
 72
8
 73
4
 74
0
 40
0
 40
0
 40
0
 40
0
 40
1
 40
1
 40
1
 40
1
 10
581.436819
 20
508.120558
 30
0.0
 10
581.851035
 20
508.120558
 30
0.0
 10
582.186824
 20
508.456346
 30
0.0
 10
582.186824
 20
508.870563
 30
0.0
  0
LWPOLYLINE
  5
16a
100
AcDbEntity
  8
0
 62
7
100
AcDbPolyline
 90
2
 70
1
 10
589.031814
 20
520.777397
 30
0.0
 10
589.031814
 20
520.777397
 30
0.0
  0
SPLINE
  5
16b
100
AcDbEntity
  8
0
 62
7
100
AcDbSpline
 70
8
 71
3
 72
8
 73
4
 74
0
 40
0
 40
0
 40
0
 40
0
 40
1
 40
1
 40
1
 40
1
 10
590.930012
 20
490.636425
 30
0.0
 10
590.930012
 20
490.904376
 30
0.0
 10
590.787062
 20
491.151973
 30
0.0
 10
590.555009
 20
491.285949
 30
0.0
  0
SPLINE
  5
16c
100
AcDbEntity
  8
0
 62
7
100
AcDbSpline
 70
8
 71
3
 72
8
 73
4
 74
0
 40
0
 40
0
 40
0
 40
0
 40
1
 40
1
 40
1
 40
1
 10
590.555009
 20
491.285949
 30
0.0
 10
590.322957
 20
491.419925
 30
0.0
 10
590.037056
 20
491.419925
 30
0.0
 10
589.805004
 20
491.285949
 30
0.0
  0
SPLINE
  5
16d
100
AcDbEntity
  8
0
 62
7
100
AcDbSpline
 70
8
 71
3
 72
8
 73
4
 74
0
 40
0
 40
0
 40
0
 40
0
 40
1
 40
1
 40
1
 40
1
 10
589.805004
 20
491.285949
 30
0.0
 10
589.572951
 20
491.151973
 30
0.0
 10
589.430001
 20
490.904376
 30
0.0
 10
589.430001
 20
490.636425
 30
0.0
  0
SPLINE
  5
16e
100
AcDbEntity
  8
0
 62
7
100
AcDbSpline
 70
8
 71
3
 72
8
 73
4
 74
0
 40
0
 40
0
 40
0
 40
0
 40
1
 40
1
 40
1
 40
1
 10
589.430001
 20
490.636425
 30
0.0
 10
589.430001
 20
490.368474
 30
0.0
 10
589.572951
 20
490.120877
 30
0.0
 10
589.805004
 20
489.986901
 30
0.0
  0
SPLINE
  5
16f
100
AcDbEntity
  8
0
 62
7
100
AcDbSpline
 70
8
 71
3
 72
8
 73
4
 74
0
 40
0
 40
0
 40
0
 40
0
 40
1
 40
1
 40
1
 40
1
 10
589.805004
 20
489.986901
 30
0.0
 10
590.037056
 20
489.852926
 30
0.0
 10
590.322957
 20
489.852926
 30
0.0
 10
590.555009
 20
489.986901
 30
0.0
  0
SPLINE
  5
170
100
AcDbEntity
  8
0
 62
7
100
AcDbSpline
 70
8
 71
3
 72
8
 73
4
 74
0
 40
0
 40
0
 40
0
 40
0
 40
1
 40
1
 40
1
 40
1
 10
590.555009
 20
489.986901
 30
0.0
 10
590.787062
 20
490.120877
 30
0.0
 10
590.930012
 20
490.368474
 30
0.0
 10
590.930012
 20
490.636425
 30
0.0
  0
LWPOLYLINE
  5
171
100
AcDbEntity
  8
0
 62
7
100
AcDbPolyline
 90
2
 70
1
 10
582.186824
 20
508.870563
 30
0.0
 10
582.186824
 20
508.870563
 30
0.0
  0
SPLINE
  5
172
100
AcDbEntity
  8
0
 62
7
100
AcDbSpline
 70
8
 71
3
 72
8
 73
4
 74
0
 40
0
 40
0
 40
0
 40
0
 40
1
 40
1
 40
1
 40
1
 10
584.832799
 20
496.330998
 30
0.0
 10
584.832799
 20
496.598949
 30
0.0
 10
584.689848
 20
496.846546
 30
0.0
 10
584.457796
 20
496.980522
 30
0.0
  0
SPLINE
  5
173
100
AcDbEntity
  8
0
 62
7
100
AcDbSpline
 70
8
 71
3
 72
8
 73
4
 74
0
 40
0
 40
0
 40
0
 40
0
 40
1
 40
1
 40
1
 40
1
 10
584.457796
 20
496.980522
 30
0.0
 10
584.225743
 20
497.114497
 30
0.0
 10
583.939843
 20
497.114497
 30
0.0
 10
583.707790
 20
496.980522
 30
0.0
  0
SPLINE
  5
174
100
AcDbEntity
  8
0
 62
7
100
AcDbSpline
 70
8
 71
3
 72
8
 73
4
 74
0
 40
0
 40
0
 40
0
 40
0
 40
1
 40
1
 40
1
 40
1
 10
583.707790
 20
496.980522
 30
0.0
 10
583.475738
 20
496.846546
 30
0.0
 10
583.332788
 20
496.598949
 30
0.0
 10
583.332788
 20
496.330998
 30
0.0
  0
SPLINE
  5
175
100
AcDbEntity
  8
0
 62
7
100
AcDbSpline
 70
8
 71
3
 72
8
 73
4
 74
0
 40
0
 40
0
 40
0
 40
0
 40
1
 40
1
 40
1
 40
1
 10
583.332788
 20
496.330998
 30
0.0
 10
583.332788
 20
496.063047
 30
0.0
 10
583.475738
 20
495.815450
 30
0.0
 10
583.707790
 20
495.681474
 30
0.0
  0
SPLINE
  5
176
100
AcDbEntity
  8
0
 62
7
100
AcDbSpline
 70
8
 71
3
 72
8
 73
4
 74
0
 40
0
 40
0
 40
0
 40
0
 40
1
 40
1
 40
1
 40
1
 10
583.707790
 20
495.681474
 30
0.0
 10
583.939843
 20
495.547498
 30
0.0
 10
584.225743
 20
495.547498
 30
0.0
 10
584.457796
 20
495.681474
 30
0.0
  0
SPLINE
  5
177
100
AcDbEntity
  8
0
 62
7
100
AcDbSpline
 70
8
 71
3
 72
8
 73
4
 74
0
 40
0
 40
0
 40
0
 40
0
 40
1
 40
1
 40
1
 40
1
 10
584.457796
 20
495.681474
 30
0.0
 10
584.689848
 20
495.815450
 30
0.0
 10
584.832799
 20
496.063047
 30
0.0
 10
584.832799
 20
496.330998
 30
0.0
  0
LWPOLYLINE
  5
178
100
AcDbEntity
  8
0
 62
7
100
AcDbPolyline
 90
2
 70
1
 10
590.930012
 20
490.636425
 30
0.0
 10
590.930012
 20
490.636425
 30
0.0
  0
SPLINE
  5
179
100
AcDbEntity
  8
0
 62
7
100
AcDbSpline
 70
8
 71
3
 72
8
 73
4
 74
0
 40
0
 40
0
 40
0
 40
0
 40
1
 40
1
 40
1
 40
1
 10
565.200461
 20
483.158705
 30
0.0
 10
565.200461
 20
483.605288
 30
0.0
 10
564.962212
 20
484.017949
 30
0.0
 10
564.575459
 20
484.241241
 30
0.0
  0
SPLINE
  5
17a
100
AcDbEntity
  8
0
 62
7
100
AcDbSpline
 70
8
 71
3
 72
8
 73
4
 74
0
 40
0
 40
0
 40
0
 40
0
 40
1
 40
1
 40
1
 40
1
 10
564.575459
 20
484.241241
 30
0.0
 10
564.188706
 20
484.464532
 30
0.0
 10
563.712207
 20
484.464532
 30
0.0
 10
563.325454
 20
484.241241
 30
0.0
  0
SPLINE
  5
17b
100
AcDbEntity
  8
0
 62
7
100
AcDbSpline
 70
8
 71
3
 72
8
 73
4
 74
0
 40
0
 40
0
 40
0
 40
0
 40
1
 40
1
 40
1
 40
1
 10
563.325454
 20
484.241241
 30
0.0
 10
562.938702
 20
484.017949
 30
0.0
 10
562.700452
 20
483.605288
 30
0.0
 10
562.700452
 20
483.158705
 30
0.0
  0
SPLINE
  5
17c
100
AcDbEntity
  8
0
 62
7
100
AcDbSpline
 70
8
 71
3
 72
8
 73
4
 74
0
 40
0
 40
0
 40
0
 40
0
 40
1
 40
1
 40
1
 40
1
 10
562.700452
 20
483.158705
 30
0.0
 10
562.700452
 20
482.712121
 30
0.0
 10
562.938702
 20
482.299461
 30
0.0
 10
563.325454
 20
482.076169
 30
0.0
  0
SPLINE
  5
17d
100
AcDbEntity
  8
0
 62
7
100
AcDbSpline
 70
8
 71
3
 72
8
 73
4
 74
0
 40
0
 40
0
 40
0
 40
0
 40
1
 40
1
 40
1
 40
1
 10
563.325454
 20
482.076169
 30
0.0
 10
563.712207
 20
481.852877
 30
0.0
 10
564.188706
 20
481.852877
 30
0.0
 10
564.575459
 20
482.076169
 30
0.0
  0
SPLINE
  5
17e
100
AcDbEntity
  8
0
 62
7
100
AcDbSpline
 70
8
 71
3
 72
8
 73
4
 74
0
 40
0
 40
0
 40
0
 40
0
 40
1
 40
1
 40
1
 40
1
 10
564.575459
 20
482.076169
 30
0.0
 10
564.962212
 20
482.299461
 30
0.0
 10
565.200461
 20
482.712121
 30
0.0
 10
565.200461
 20
483.158705
 30
0.0
  0
LWPOLYLINE
  5
17f
100
AcDbEntity
  8
0
 62
7
100
AcDbPolyline
 90
2
 70
1
 10
584.832799
 20
496.330998
 30
0.0
 10
584.832799
 20
496.330998
 30
0.0
  0
SPLINE
  5
180
100
AcDbEntity
  8
0
 62
7
100
AcDbSpline
 70
8
 71
3
 72
8
 73
4
 74
0
 40
0
 40
0
 40
0
 40
0
 40
1
 40
1
 40
1
 40
1
 10
552.660905
 20
501.277800
 30
0.0
 10
552.660905
 20
501.724384
 30
0.0
 10
552.422655
 20
502.137044
 30
0.0
 10
552.035902
 20
502.360336
 30
0.0
  0
SPLINE
  5
181
100
AcDbEntity
  8
0
 62
7
100
AcDbSpline
 70
8
 71
3
 72
8
 73
4
 74
0
 40
0
 40
0
 40
0
 40
0
 40
1
 40
1
 40
1
 40
1
 10
552.035902
 20
502.360336
 30
0.0
 10
551.649150
 20
502.583628
 30
0.0
 10
551.172651
 20
502.583628
 30
0.0
 10
550.785898
 20
502.360336
 30
0.0
  0
SPLINE
  5
182
100
AcDbEntity
  8
0
 62
7
100
AcDbSpline
 70
8
 71
3
 72
8
 73
4
 74
0
 40
0
 40
0
 40
0
 40
0
 40
1
 40
1
 40
1
 40
1
 10
550.785898
 20
502.360336
 30
0.0
 10
550.399145
 20
502.137044
 30
0.0
 10
550.160896
 20
501.724384
 30
0.0
 10
550.160896
 20
501.277800
 30
0.0
  0
SPLINE
  5
183
100
AcDbEntity
  8
0
 62
7
100
AcDbSpline
 70
8
 71
3
 72
8
 73
4
 74
0
 40
0
 40
0
 40
0
 40
0
 40
1
 40
1
 40
1
 40
1
 10
550.160896
 20
501.277800
 30
0.0
 10
550.160896
 20
500.831217
 30
0.0
 10
550.399145
 20
500.418556
 30
0.0
 10
550.785898
 20
500.195265
 30
0.0
  0
SPLINE
  5
184
100
AcDbEntity
  8
0
 62
7
100
AcDbSpline
 70
8
 71
3
 72
8
 73
4
 74
0
 40
0
 40
0
 40
0
 40
0
 40
1
 40
1
 40
1
 40
1
 10
550.785898
 20
500.195265
 30
0.0
 10
551.172651
 20
499.971973
 30
0.0
 10
551.649150
 20
499.971973
 30
0.0
 10
552.035902
 20
500.195265
 30
0.0
  0
SPLINE
  5
185
100
AcDbEntity
  8
0
 62
7
100
AcDbSpline
 70
8
 71
3
 72
8
 73
4
 74
0
 40
0
 40
0
 40
0
 40
0
 40
1
 40
1
 40
1
 40
1
 10
552.035902
 20
500.195265
 30
0.0
 10
552.422655
 20
500.418556
 30
0.0
 10
552.660905
 20
500.831217
 30
0.0
 10
552.660905
 20
501.277800
 30
0.0
  0
LWPOLYLINE
  5
186
100
AcDbEntity
  8
0
 62
7
100
AcDbPolyline
 90
2
 70
1
 10
565.200461
 20
483.158705
 30
0.0
 10
565.200461
 20
483.158705
 30
0.0
  0
SPLINE
  5
187
100
AcDbEntity
  8
0
 62
7
100
AcDbSpline
 70
8
 71
3
 72
8
 73
4
 74
0
 40
0
 40
0
 40
0
 40
0
 40
1
 40
1
 40
1
 40
1
 10
603.969582
 20
518.073911
 30
0.0
 10
603.969582
 20
518.520495
 30
0.0
 10
603.731332
 20
518.933155
 30
0.0
 10
603.344580
 20
519.156447
 30
0.0
  0
SPLINE
  5
188
100
AcDbEntity
  8
0
 62
7
100
AcDbSpline
 70
8
 71
3
 72
8
 73
4
 74
0
 40
0
 40
0
 40
0
 40
0
 40
1
 40
1
 40
1
 40
1
 10
603.344580
 20
519.156447
 30
0.0
 10
602.957827
 20
519.379739
 30
0.0
 10
602.481328
 20
519.379739
 30
0.0
 10
602.094575
 20
519.156447
 30
0.0
  0
SPLINE
  5
189
100
AcDbEntity
  8
0
 62
7
100
AcDbSpline
 70
8
 71
3
 72
8
 73
4
 74
0
 40
0
 40
0
 40
0
 40
0
 40
1
 40
1
 40
1
 40
1
 10
602.094575
 20
519.156447
 30
0.0
 10
601.707822
 20
518.933155
 30
0.0
 10
601.469573
 20
518.520495
 30
0.0
 10
601.469573
 20
518.073911
 30
0.0
  0
SPLINE
  5
18a
100
AcDbEntity
  8
0
 62
7
100
AcDbSpline
 70
8
 71
3
 72
8
 73
4
 74
0
 40
0
 40
0
 40
0
 40
0
 40
1
 40
1
 40
1
 40
1
 10
601.469573
 20
518.073911
 30
0.0
 10
601.469573
 20
517.627328
 30
0.0
 10
601.707822
 20
517.214668
 30
0.0
 10
602.094575
 20
516.991376
 30
0.0
  0
SPLINE
  5
18b
100
AcDbEntity
  8
0
 62
7
100
AcDbSpline
 70
8
 71
3
 72
8
 73
4
 74
0
 40
0
 40
0
 40
0
 40
0
 40
1
 40
1
 40
1
 40
1
 10
602.094575
 20
516.991376
 30
0.0
 10
602.481328
 20
516.768084
 30
0.0
 10
602.957827
 20
516.768084
 30
0.0
 10
603.344580
 20
516.991376
 30
0.0
  0
SPLINE
  5
18c
100
AcDbEntity
  8
0
 62
7
100
AcDbSpline
 70
8
 71
3
 72
8
 73
4
 74
0
 40
0
 40
0
 40
0
 40
0
 40
1
 40
1
 40
1
 40
1
 10
603.344580
 20
516.991376
 30
0.0
 10
603.731332
 20
517.214668
 30
0.0
 10
603.969582
 20
517.627328
 30
0.0
 10
603.969582
 20
518.073911
 30
0.0
  0
LWPOLYLINE
  5
18d
100
AcDbEntity
  8
0
 62
7
100
AcDbPolyline
 90
2
 70
1
 10
552.660905
 20
501.277800
 30
0.0
 10
552.660905
 20
501.277800
 30
0.0
  0
SPLINE
  5
18e
100
AcDbEntity
  8
0
 62
7
100
AcDbSpline
 70
8
 71
3
 72
8
 73
4
 74
0
 40
0
 40
0
 40
0
 40
0
 40
1
 40
1
 40
1
 40
1
 10
562.764658
 20
499.897296
 30
0.0
 10
562.765369
 20
500.255034
 30
0.0
 10
562.574926
 20
500.585903
 30
0.0
 10
562.265233
 20
500.764978
 30
0.0
  0
SPLINE
  5
18f
100
AcDbEntity
  8
0
 62
7
100
AcDbSpline
 70
8
 71
3
 72
8
 73
4
 74
0
 40
0
 40
0
 40
0
 40
0
 40
1
 40
1
 40
1
 40
1
 10
562.265233
 20
500.764978
 30
0.0
 10
561.955541
 20
500.944053
 30
0.0
 10
561.573779
 20
500.944053
 30
0.0
 10
561.264086
 20
500.764978
 30
0.0
  0
SPLINE
  5
190
100
AcDbEntity
  8
0
 62
7
100
AcDbSpline
 70
8
 71
3
 72
8
 73
4
 74
0
 40
0
 40
0
 40
0
 40
0
 40
1
 40
1
 40
1
 40
1
 10
561.264086
 20
500.764978
 30
0.0
 10
560.954394
 20
500.585903
 30
0.0
 10
560.763951
 20
500.255034
 30
0.0
 10
560.764662
 20
499.897296
 30
0.0
  0
SPLINE
  5
191
100
AcDbEntity
  8
0
 62
7
100
AcDbSpline
 70
8
 71
3
 72
8
 73
4
 74
0
 40
0
 40
0
 40
0
 40
0
 40
1
 40
1
 40
1
 40
1
 10
560.764662
 20
499.897296
 30
0.0
 10
560.763951
 20
499.539558
 30
0.0
 10
560.954394
 20
499.208689
 30
0.0
 10
561.264086
 20
499.029614
 30
0.0
  0
SPLINE
  5
192
100
AcDbEntity
  8
0
 62
7
100
AcDbSpline
 70
8
 71
3
 72
8
 73
4
 74
0
 40
0
 40
0
 40
0
 40
0
 40
1
 40
1
 40
1
 40
1
 10
561.264086
 20
499.029614
 30
0.0
 10
561.573779
 20
498.850540
 30
0.0
 10
561.955541
 20
498.850540
 30
0.0
 10
562.265233
 20
499.029614
 30
0.0
  0
SPLINE
  5
193
100
AcDbEntity
  8
0
 62
7
100
AcDbSpline
 70
8
 71
3
 72
8
 73
4
 74
0
 40
0
 40
0
 40
0
 40
0
 40
1
 40
1
 40
1
 40
1
 10
562.265233
 20
499.029614
 30
0.0
 10
562.574926
 20
499.208689
 30
0.0
 10
562.765369
 20
499.539558
 30
0.0
 10
562.764658
 20
499.897296
 30
0.0
  0
LWPOLYLINE
  5
194
100
AcDbEntity
  8
0
 62
7
100
AcDbPolyline
 90
2
 70
1
 10
603.969582
 20
518.073911
 30
0.0
 10
603.969582
 20
518.073911
 30
0.0
  0
SPLINE
  5
195
100
AcDbEntity
  8
0
 62
7
100
AcDbSpline
 70
8
 71
3
 72
8
 73
4
 74
0
 40
0
 40
0
 40
0
 40
0
 40
1
 40
1
 40
1
 40
1
 10
574.461330
 20
499.092003
 30
0.0
 10
574.461330
 20
499.538587
 30
0.0
 10
574.223080
 20
499.951247
 30
0.0
 10
573.836327
 20
500.174539
 30
0.0
  0
SPLINE
  5
196
100
AcDbEntity
  8
0
 62
7
100
AcDbSpline
 70
8
 71
3
 72
8
 73
4
 74
0
 40
0
 40
0
 40
0
 40
0
 40
1
 40
1
 40
1
 40
1
 10
573.836327
 20
500.174539
 30
0.0
 10
573.449575
 20
500.397831
 30
0.0
 10
572.973075
 20
500.397831
 30
0.0
 10
572.586323
 20
500.174539
 30
0.0
  0
SPLINE
  5
197
100
AcDbEntity
  8
0
 62
7
100
AcDbSpline
 70
8
 71
3
 72
8
 73
4
 74
0
 40
0
 40
0
 40
0
 40
0
 40
1
 40
1
 40
1
 40
1
 10
572.586323
 20
500.174539
 30
0.0
 10
572.199570
 20
499.951247
 30
0.0
 10
571.961320
 20
499.538587
 30
0.0
 10
571.961320
 20
499.092003
 30
0.0
  0
SPLINE
  5
198
100
AcDbEntity
  8
0
 62
7
100
AcDbSpline
 70
8
 71
3
 72
8
 73
4
 74
0
 40
0
 40
0
 40
0
 40
0
 40
1
 40
1
 40
1
 40
1
 10
571.961320
 20
499.092003
 30
0.0
 10
571.961320
 20
498.645420
 30
0.0
 10
572.199570
 20
498.232759
 30
0.0
 10
572.586323
 20
498.009468
 30
0.0
  0
SPLINE
  5
199
100
AcDbEntity
  8
0
 62
7
100
AcDbSpline
 70
8
 71
3
 72
8
 73
4
 74
0
 40
0
 40
0
 40
0
 40
0
 40
1
 40
1
 40
1
 40
1
 10
572.586323
 20
498.009468
 30
0.0
 10
572.973075
 20
497.786176
 30
0.0
 10
573.449575
 20
497.786176
 30
0.0
 10
573.836327
 20
498.009468
 30
0.0
  0
SPLINE
  5
19a
100
AcDbEntity
  8
0
 62
7
100
AcDbSpline
 70
8
 71
3
 72
8
 73
4
 74
0
 40
0
 40
0
 40
0
 40
0
 40
1
 40
1
 40
1
 40
1
 10
573.836327
 20
498.009468
 30
0.0
 10
574.223080
 20
498.232759
 30
0.0
 10
574.461330
 20
498.645420
 30
0.0
 10
574.461330
 20
499.092003
 30
0.0
  0
LWPOLYLINE
  5
19b
100
AcDbEntity
  8
0
 62
7
100
AcDbPolyline
 90
2
 70
1
 10
562.764658
 20
499.897296
 30
0.0
 10
562.764658
 20
499.897296
 30
0.0
  0
SPLINE
  5
19c
100
AcDbEntity
  8
0
 62
7
100
AcDbSpline
 70
8
 71
3
 72
8
 73
4
 74
0
 40
0
 40
0
 40
0
 40
0
 40
1
 40
1
 40
1
 40
1
 10
612.885321
 20
501.105235
 30
0.0
 10
612.885321
 20
501.551819
 30
0.0
 10
612.647071
 20
501.964480
 30
0.0
 10
612.260318
 20
502.187771
 30
0.0
  0
SPLINE
  5
19d
100
AcDbEntity
  8
0
 62
7
100
AcDbSpline
 70
8
 71
3
 72
8
 73
4
 74
0
 40
0
 40
0
 40
0
 40
0
 40
1
 40
1
 40
1
 40
1
 10
612.260318
 20
502.187771
 30
0.0
 10
611.873566
 20
502.411063
 30
0.0
 10
611.397067
 20
502.411063
 30
0.0
 10
611.010314
 20
502.187771
 30
0.0
  0
SPLINE
  5
19e
100
AcDbEntity
  8
0
 62
7
100
AcDbSpline
 70
8
 71
3
 72
8
 73
4
 74
0
 40
0
 40
0
 40
0
 40
0
 40
1
 40
1
 40
1
 40
1
 10
611.010314
 20
502.187771
 30
0.0
 10
610.623561
 20
501.964480
 30
0.0
 10
610.385311
 20
501.551819
 30
0.0
 10
610.385312
 20
501.105235
 30
0.0
  0
SPLINE
  5
19f
100
AcDbEntity
  8
0
 62
7
100
AcDbSpline
 70
8
 71
3
 72
8
 73
4
 74
0
 40
0
 40
0
 40
0
 40
0
 40
1
 40
1
 40
1
 40
1
 10
610.385312
 20
501.105235
 30
0.0
 10
610.385312
 20
500.414877
 30
0.0
 10
610.944958
 20
499.855231
 30
0.0
 10
611.635316
 20
499.855231
 30
0.0
  0
SPLINE
  5
1a0
100
AcDbEntity
  8
0
 62
7
100
AcDbSpline
 70
8
 71
3
 72
8
 73
4
 74
0
 40
0
 40
0
 40
0
 40
0
 40
1
 40
1
 40
1
 40
1
 10
611.635316
 20
499.855231
 30
0.0
 10
612.325674
 20
499.855231
 30
0.0
 10
612.885321
 20
500.414877
 30
0.0
 10
612.885321
 20
501.105235
 30
0.0
  0
LWPOLYLINE
  5
1a1
100
AcDbEntity
  8
0
 62
7
100
AcDbPolyline
 90
2
 70
1
 10
574.461330
 20
499.092003
 30
0.0
 10
574.461330
 20
499.092003
 30
0.0
  0
SPLINE
  5
1a2
100
AcDbEntity
  8
0
 62
7
100
AcDbSpline
 70
8
 71
3
 72
8
 73
4
 74
0
 40
0
 40
0
 40
0
 40
0
 40
1
 40
1
 40
1
 40
1
 10
577.764543
 20
517.756078
 30
0.0
 10
577.764543
 20
518.202662
 30
0.0
 10
577.526294
 20
518.615322
 30
0.0
 10
577.139541
 20
518.838614
 30
0.0
  0
SPLINE
  5
1a3
100
AcDbEntity
  8
0
 62
7
100
AcDbSpline
 70
8
 71
3
 72
8
 73
4
 74
0
 40
0
 40
0
 40
0
 40
0
 40
1
 40
1
 40
1
 40
1
 10
577.139541
 20
518.838614
 30
0.0
 10
576.752788
 20
519.061906
 30
0.0
 10
576.276289
 20
519.061906
 30
0.0
 10
575.889536
 20
518.838614
 30
0.0
  0
SPLINE
  5
1a4
100
AcDbEntity
  8
0
 62
7
100
AcDbSpline
 70
8
 71
3
 72
8
 73
4
 74
0
 40
0
 40
0
 40
0
 40
0
 40
1
 40
1
 40
1
 40
1
 10
575.889536
 20
518.838614
 30
0.0
 10
575.502784
 20
518.615322
 30
0.0
 10
575.264534
 20
518.202662
 30
0.0
 10
575.264534
 20
517.756078
 30
0.0
  0
SPLINE
  5
1a5
100
AcDbEntity
  8
0
 62
7
100
AcDbSpline
 70
8
 71
3
 72
8
 73
4
 74
0
 40
0
 40
0
 40
0
 40
0
 40
1
 40
1
 40
1
 40
1
 10
575.264534
 20
517.756078
 30
0.0
 10
575.264534
 20
517.309495
 30
0.0
 10
575.502784
 20
516.896835
 30
0.0
 10
575.889536
 20
516.673543
 30
0.0
  0
SPLINE
  5
1a6
100
AcDbEntity
  8
0
 62
7
100
AcDbSpline
 70
8
 71
3
 72
8
 73
4
 74
0
 40
0
 40
0
 40
0
 40
0
 40
1
 40
1
 40
1
 40
1
 10
575.889536
 20
516.673543
 30
0.0
 10
576.276289
 20
516.450251
 30
0.0
 10
576.752788
 20
516.450251
 30
0.0
 10
577.139541
 20
516.673543
 30
0.0
  0
SPLINE
  5
1a7
100
AcDbEntity
  8
0
 62
7
100
AcDbSpline
 70
8
 71
3
 72
8
 73
4
 74
0
 40
0
 40
0
 40
0
 40
0
 40
1
 40
1
 40
1
 40
1
 10
577.139541
 20
516.673543
 30
0.0
 10
577.526294
 20
516.896835
 30
0.0
 10
577.764543
 20
517.309495
 30
0.0
 10
577.764543
 20
517.756078
 30
0.0
  0
LWPOLYLINE
  5
1a8
100
AcDbEntity
  8
0
 62
7
100
AcDbPolyline
 90
2
 70
1
 10
612.885321
 20
501.105235
 30
0.0
 10
612.885321
 20
501.105235
 30
0.0
  0
SPLINE
  5
1a9
100
AcDbEntity
  8
0
 62
7
100
AcDbSpline
 70
8
 71
3
 72
8
 73
4
 74
0
 40
0
 40
0
 40
0
 40
0
 40
1
 40
1
 40
1
 40
1
 10
584.067327
 20
487.300211
 30
0.0
 10
584.067327
 20
487.746795
 30
0.0
 10
583.829078
 20
488.159455
 30
0.0
 10
583.442325
 20
488.382747
 30
0.0
  0
SPLINE
  5
1aa
100
AcDbEntity
  8
0
 62
7
100
AcDbSpline
 70
8
 71
3
 72
8
 73
4
 74
0
 40
0
 40
0
 40
0
 40
0
 40
1
 40
1
 40
1
 40
1
 10
583.442325
 20
488.382747
 30
0.0
 10
583.055572
 20
488.606039
 30
0.0
 10
582.579073
 20
488.606039
 30
0.0
 10
582.192321
 20
488.382747
 30
0.0
  0
SPLINE
  5
1ab
100
AcDbEntity
  8
0
 62
7
100
AcDbSpline
 70
8
 71
3
 72
8
 73
4
 74
0
 40
0
 40
0
 40
0
 40
0
 40
1
 40
1
 40
1
 40
1
 10
582.192321
 20
488.382747
 30
0.0
 10
581.805568
 20
488.159455
 30
0.0
 10
581.567318
 20
487.746795
 30
0.0
 10
581.567318
 20
487.300211
 30
0.0
  0
SPLINE
  5
1ac
100
AcDbEntity
  8
0
 62
7
100
AcDbSpline
 70
8
 71
3
 72
8
 73
4
 74
0
 40
0
 40
0
 40
0
 40
0
 40
1
 40
1
 40
1
 40
1
 10
581.567318
 20
487.300211
 30
0.0
 10
581.567318
 20
486.853628
 30
0.0
 10
581.805568
 20
486.440967
 30
0.0
 10
582.192321
 20
486.217676
 30
0.0
  0
SPLINE
  5
1ad
100
AcDbEntity
  8
0
 62
7
100
AcDbSpline
 70
8
 71
3
 72
8
 73
4
 74
0
 40
0
 40
0
 40
0
 40
0
 40
1
 40
1
 40
1
 40
1
 10
582.192321
 20
486.217676
 30
0.0
 10
582.579073
 20
485.994384
 30
0.0
 10
583.055572
 20
485.994384
 30
0.0
 10
583.442325
 20
486.217676
 30
0.0
  0
SPLINE
  5
1ae
100
AcDbEntity
  8
0
 62
7
100
AcDbSpline
 70
8
 71
3
 72
8
 73
4
 74
0
 40
0
 40
0
 40
0
 40
0
 40
1
 40
1
 40
1
 40
1
 10
583.442325
 20
486.217676
 30
0.0
 10
583.829078
 20
486.440967
 30
0.0
 10
584.067327
 20
486.853628
 30
0.0
 10
584.067327
 20
487.300211
 30
0.0
  0
LWPOLYLINE
  5
1af
100
AcDbEntity
  8
0
 62
7
100
AcDbPolyline
 90
2
 70
1
 10
577.764543
 20
517.756078
 30
0.0
 10
577.764543
 20
517.756078
 30
0.0
  0
SPLINE
  5
1b0
100
AcDbEntity
  8
0
 62
7
100
AcDbSpline
 70
8
 71
3
 72
8
 73
4
 74
0
 40
0
 40
0
 40
0
 40
0
 40
1
 40
1
 40
1
 40
1
 10
558.315622
 20
504.844096
 30
0.0
 10
558.316899
 20
505.112891
 30
0.0
 10
558.174232
 20
505.361816
 30
0.0
 10
557.941659
 20
505.496584
 30
0.0
  0
SPLINE
  5
1b1
100
AcDbEntity
  8
0
 62
7
100
AcDbSpline
 70
8
 71
3
 72
8
 73
4
 74
0
 40
0
 40
0
 40
0
 40
0
 40
1
 40
1
 40
1
 40
1
 10
557.941659
 20
505.496584
 30
0.0
 10
557.709086
 20
505.631351
 30
0.0
 10
557.422175
 20
505.631351
 30
0.0
 10
557.189602
 20
505.496584
 30
0.0
  0
SPLINE
  5
1b2
100
AcDbEntity
  8
0
 62
7
100
AcDbSpline
 70
8
 71
3
 72
8
 73
4
 74
0
 40
0
 40
0
 40
0
 40
0
 40
1
 40
1
 40
1
 40
1
 10
557.189602
 20
505.496584
 30
0.0
 10
556.957029
 20
505.361816
 30
0.0
 10
556.814362
 20
505.112891
 30
0.0
 10
556.815639
 20
504.844096
 30
0.0
  0
SPLINE
  5
1b3
100
AcDbEntity
  8
0
 62
7
100
AcDbSpline
 70
8
 71
3
 72
8
 73
4
 74
0
 40
0
 40
0
 40
0
 40
0
 40
1
 40
1
 40
1
 40
1
 10
556.815639
 20
504.844096
 30
0.0
 10
556.814362
 20
504.575301
 30
0.0
 10
556.957029
 20
504.326375
 30
0.0
 10
557.189602
 20
504.191608
 30
0.0
  0
SPLINE
  5
1b4
100
AcDbEntity
  8
0
 62
7
100
AcDbSpline
 70
8
 71
3
 72
8
 73
4
 74
0
 40
0
 40
0
 40
0
 40
0
 40
1
 40
1
 40
1
 40
1
 10
557.189602
 20
504.191608
 30
0.0
 10
557.422175
 20
504.056840
 30
0.0
 10
557.709086
 20
504.056840
 30
0.0
 10
557.941659
 20
504.191608
 30
0.0
  0
SPLINE
  5
1b5
100
AcDbEntity
  8
0
 62
7
100
AcDbSpline
 70
8
 71
3
 72
8
 73
4
 74
0
 40
0
 40
0
 40
0
 40
0
 40
1
 40
1
 40
1
 40
1
 10
557.941659
 20
504.191608
 30
0.0
 10
558.174232
 20
504.326375
 30
0.0
 10
558.316899
 20
504.575301
 30
0.0
 10
558.315622
 20
504.844096
 30
0.0
  0
LWPOLYLINE
  5
1b6
100
AcDbEntity
  8
0
 62
7
100
AcDbPolyline
 90
2
 70
1
 10
584.067327
 20
487.300211
 30
0.0
 10
584.067327
 20
487.300211
 30
0.0
  0
SPLINE
  5
1b7
100
AcDbEntity
  8
0
 62
7
100
AcDbSpline
 70
8
 71
3
 72
8
 73
4
 74
0
 40
0
 40
0
 40
0
 40
0
 40
1
 40
1
 40
1
 40
1
 10
567.058810
 20
513.357196
 30
0.0
 10
567.060098
 20
513.625999
 30
0.0
 10
566.917433
 20
513.874935
 30
0.0
 10
566.684855
 20
514.009709
 30
0.0
  0
SPLINE
  5
1b8
100
AcDbEntity
  8
0
 62
7
100
AcDbSpline
 70
8
 71
3
 72
8
 73
4
 74
0
 40
0
 40
0
 40
0
 40
0
 40
1
 40
1
 40
1
 40
1
 10
566.684855
 20
514.009709
 30
0.0
 10
566.452278
 20
514.144483
 30
0.0
 10
566.165359
 20
514.144483
 30
0.0
 10
565.932782
 20
514.009709
 30
0.0
  0
SPLINE
  5
1b9
100
AcDbEntity
  8
0
 62
7
100
AcDbSpline
 70
8
 71
3
 72
8
 73
4
 74
0
 40
0
 40
0
 40
0
 40
0
 40
1
 40
1
 40
1
 40
1
 10
565.932782
 20
514.009709
 30
0.0
 10
565.700204
 20
513.874935
 30
0.0
 10
565.557539
 20
513.625999
 30
0.0
 10
565.558827
 20
513.357196
 30
0.0
  0
SPLINE
  5
1ba
100
AcDbEntity
  8
0
 62
7
100
AcDbSpline
 70
8
 71
3
 72
8
 73
4
 74
0
 40
0
 40
0
 40
0
 40
0
 40
1
 40
1
 40
1
 40
1
 10
565.558827
 20
513.357196
 30
0.0
 10
565.557539
 20
513.088394
 30
0.0
 10
565.700204
 20
512.839458
 30
0.0
 10
565.932782
 20
512.704684
 30
0.0
  0
SPLINE
  5
1bb
100
AcDbEntity
  8
0
 62
7
100
AcDbSpline
 70
8
 71
3
 72
8
 73
4
 74
0
 40
0
 40
0
 40
0
 40
0
 40
1
 40
1
 40
1
 40
1
 10
565.932782
 20
512.704684
 30
0.0
 10
566.165359
 20
512.569910
 30
0.0
 10
566.452278
 20
512.569910
 30
0.0
 10
566.684855
 20
512.704684
 30
0.0
  0
SPLINE
  5
1bc
100
AcDbEntity
  8
0
 62
7
100
AcDbSpline
 70
8
 71
3
 72
8
 73
4
 74
0
 40
0
 40
0
 40
0
 40
0
 40
1
 40
1
 40
1
 40
1
 10
566.684855
 20
512.704684
 30
0.0
 10
566.917433
 20
512.839458
 30
0.0
 10
567.060098
 20
513.088394
 30
0.0
 10
567.058810
 20
513.357196
 30
0.0
  0
LWPOLYLINE
  5
1bd
100
AcDbEntity
  8
0
 62
7
100
AcDbPolyline
 90
2
 70
1
 10
558.315622
 20
504.844096
 30
0.0
 10
558.315622
 20
504.844096
 30
0.0
  0
SPLINE
  5
1be
100
AcDbEntity
  8
0
 62
7
100
AcDbSpline
 70
8
 71
3
 72
8
 73
4
 74
0
 40
0
 40
0
 40
0
 40
0
 40
1
 40
1
 40
1
 40
1
 10
573.731249
 20
507.720143
 30
0.0
 10
573.731249
 20
507.988095
 30
0.0
 10
573.588299
 20
508.235692
 30
0.0
 10
573.356246
 20
508.369667
 30
0.0
  0
SPLINE
  5
1bf
100
AcDbEntity
  8
0
 62
7
100
AcDbSpline
 70
8
 71
3
 72
8
 73
4
 74
0
 40
0
 40
0
 40
0
 40
0
 40
1
 40
1
 40
1
 40
1
 10
573.356246
 20
508.369667
 30
0.0
 10
573.124194
 20
508.503643
 30
0.0
 10
572.838293
 20
508.503643
 30
0.0
 10
572.606241
 20
508.369667
 30
0.0
  0
SPLINE
  5
1c0
100
AcDbEntity
  8
0
 62
7
100
AcDbSpline
 70
8
 71
3
 72
8
 73
4
 74
0
 40
0
 40
0
 40
0
 40
0
 40
1
 40
1
 40
1
 40
1
 10
572.606241
 20
508.369667
 30
0.0
 10
572.374188
 20
508.235692
 30
0.0
 10
572.231238
 20
507.988095
 30
0.0
 10
572.231238
 20
507.720143
 30
0.0
  0
SPLINE
  5
1c1
100
AcDbEntity
  8
0
 62
7
100
AcDbSpline
 70
8
 71
3
 72
8
 73
4
 74
0
 40
0
 40
0
 40
0
 40
0
 40
1
 40
1
 40
1
 40
1
 10
572.231238
 20
507.720143
 30
0.0
 10
572.231238
 20
507.452192
 30
0.0
 10
572.374188
 20
507.204595
 30
0.0
 10
572.606241
 20
507.070619
 30
0.0
  0
SPLINE
  5
1c2
100
AcDbEntity
  8
0
 62
7
100
AcDbSpline
 70
8
 71
3
 72
8
 73
4
 74
0
 40
0
 40
0
 40
0
 40
0
 40
1
 40
1
 40
1
 40
1
 10
572.606241
 20
507.070619
 30
0.0
 10
572.838293
 20
506.936644
 30
0.0
 10
573.124194
 20
506.936644
 30
0.0
 10
573.356246
 20
507.070619
 30
0.0
  0
SPLINE
  5
1c3
100
AcDbEntity
  8
0
 62
7
100
AcDbSpline
 70
8
 71
3
 72
8
 73
4
 74
0
 40
0
 40
0
 40
0
 40
0
 40
1
 40
1
 40
1
 40
1
 10
573.356246
 20
507.070619
 30
0.0
 10
573.588299
 20
507.204595
 30
0.0
 10
573.731249
 20
507.452192
 30
0.0
 10
573.731249
 20
507.720143
 30
0.0
  0
LWPOLYLINE
  5
1c4
100
AcDbEntity
  8
0
 62
7
100
AcDbPolyline
 90
2
 70
1
 10
567.058810
 20
513.357196
 30
0.0
 10
567.058810
 20
513.357196
 30
0.0
  0
SPLINE
  5
1c5
100
AcDbEntity
  8
0
 62
7
100
AcDbSpline
 70
8
 71
3
 72
8
 73
4
 74
0
 40
0
 40
0
 40
0
 40
0
 40
1
 40
1
 40
1
 40
1
 10
568.229157
 20
528.945368
 30
0.0
 10
568.229868
 20
529.303107
 30
0.0
 10
568.039426
 20
529.633975
 30
0.0
 10
567.729733
 20
529.813050
 30
0.0
  0
SPLINE
  5
1c6
100
AcDbEntity
  8
0
 62
7
100
AcDbSpline
 70
8
 71
3
 72
8
 73
4
 74
0
 40
0
 40
0
 40
0
 40
0
 40
1
 40
1
 40
1
 40
1
 10
567.729733
 20
529.813050
 30
0.0
 10
567.420040
 20
529.992125
 30
0.0
 10
567.038278
 20
529.992125
 30
0.0
 10
566.728586
 20
529.813050
 30
0.0
  0
SPLINE
  5
1c7
100
AcDbEntity
  8
0
 62
7
100
AcDbSpline
 70
8
 71
3
 72
8
 73
4
 74
0
 40
0
 40
0
 40
0
 40
0
 40
1
 40
1
 40
1
 40
1
 10
566.728586
 20
529.813050
 30
0.0
 10
566.418893
 20
529.633975
 30
0.0
 10
566.228450
 20
529.303107
 30
0.0
 10
566.229161
 20
528.945368
 30
0.0
  0
SPLINE
  5
1c8
100
AcDbEntity
  8
0
 62
7
100
AcDbSpline
 70
8
 71
3
 72
8
 73
4
 74
0
 40
0
 40
0
 40
0
 40
0
 40
1
 40
1
 40
1
 40
1
 10
566.229161
 20
528.945368
 30
0.0
 10
566.228450
 20
528.587630
 30
0.0
 10
566.418893
 20
528.256761
 30
0.0
 10
566.728586
 20
528.077687
 30
0.0
  0
SPLINE
  5
1c9
100
AcDbEntity
  8
0
 62
7
100
AcDbSpline
 70
8
 71
3
 72
8
 73
4
 74
0
 40
0
 40
0
 40
0
 40
0
 40
1
 40
1
 40
1
 40
1
 10
566.728586
 20
528.077687
 30
0.0
 10
567.038278
 20
527.898612
 30
0.0
 10
567.420040
 20
527.898612
 30
0.0
 10
567.729733
 20
528.077687
 30
0.0
  0
SPLINE
  5
1ca
100
AcDbEntity
  8
0
 62
7
100
AcDbSpline
 70
8
 71
3
 72
8
 73
4
 74
0
 40
0
 40
0
 40
0
 40
0
 40
1
 40
1
 40
1
 40
1
 10
567.729733
 20
528.077687
 30
0.0
 10
568.039426
 20
528.256761
 30
0.0
 10
568.229868
 20
528.587630
 30
0.0
 10
568.229157
 20
528.945368
 30
0.0
  0
LWPOLYLINE
  5
1cb
100
AcDbEntity
  8
0
 62
7
100
AcDbPolyline
 90
2
 70
1
 10
573.731249
 20
507.720143
 30
0.0
 10
573.731249
 20
507.720143
 30
0.0
  0
SPLINE
  5
1cc
100
AcDbEntity
  8
0
 62
7
100
AcDbSpline
 70
8
 71
3
 72
8
 73
4
 74
0
 40
0
 40
0
 40
0
 40
0
 40
1
 40
1
 40
1
 40
1
 10
550.455197
 20
514.220009
 30
0.0
 10
550.455197
 20
514.577279
 30
0.0
 10
550.264596
 20
514.907410
 30
0.0
 10
549.955191
 20
515.086045
 30
0.0
  0
SPLINE
  5
1cd
100
AcDbEntity
  8
0
 62
7
100
AcDbSpline
 70
8
 71
3
 72
8
 73
4
 74
0
 40
0
 40
0
 40
0
 40
0
 40
1
 40
1
 40
1
 40
1
 10
549.955191
 20
515.086045
 30
0.0
 10
549.645786
 20
515.264680
 30
0.0
 10
549.264584
 20
515.264680
 30
0.0
 10
548.955179
 20
515.086045
 30
0.0
  0
SPLINE
  5
1ce
100
AcDbEntity
  8
0
 62
7
100
AcDbSpline
 70
8
 71
3
 72
8
 73
4
 74
0
 40
0
 40
0
 40
0
 40
0
 40
1
 40
1
 40
1
 40
1
 10
548.955179
 20
515.086045
 30
0.0
 10
548.645774
 20
514.907410
 30
0.0
 10
548.455173
 20
514.577279
 30
0.0
 10
548.455173
 20
514.220009
 30
0.0
  0
SPLINE
  5
1cf
100
AcDbEntity
  8
0
 62
7
100
AcDbSpline
 70
8
 71
3
 72
8
 73
4
 74
0
 40
0
 40
0
 40
0
 40
0
 40
1
 40
1
 40
1
 40
1
 10
548.455173
 20
514.220009
 30
0.0
 10
548.455173
 20
513.862739
 30
0.0
 10
548.645774
 20
513.532608
 30
0.0
 10
548.955179
 20
513.353973
 30
0.0
  0
SPLINE
  5
1d0
100
AcDbEntity
  8
0
 62
7
100
AcDbSpline
 70
8
 71
3
 72
8
 73
4
 74
0
 40
0
 40
0
 40
0
 40
0
 40
1
 40
1
 40
1
 40
1
 10
548.955179
 20
513.353973
 30
0.0
 10
549.264584
 20
513.175338
 30
0.0
 10
549.645786
 20
513.175338
 30
0.0
 10
549.955191
 20
513.353973
 30
0.0
  0
SPLINE
  5
1d1
100
AcDbEntity
  8
0
 62
7
100
AcDbSpline
 70
8
 71
3
 72
8
 73
4
 74
0
 40
0
 40
0
 40
0
 40
0
 40
1
 40
1
 40
1
 40
1
 10
549.955191
 20
513.353973
 30
0.0
 10
550.264596
 20
513.532608
 30
0.0
 10
550.455197
 20
513.862739
 30
0.0
 10
550.455197
 20
514.220009
 30
0.0
  0
LWPOLYLINE
  5
1d2
100
AcDbEntity
  8
0
 62
7
100
AcDbPolyline
 90
2
 70
1
 10
568.229157
 20
528.945368
 30
0.0
 10
568.229157
 20
528.945368
 30
0.0
  0
SPLINE
  5
1d3
100
AcDbEntity
  8
0
 62
7
100
AcDbSpline
 70
8
 71
3
 72
8
 73
4
 74
0
 40
0
 40
0
 40
0
 40
0
 40
1
 40
1
 40
1
 40
1
 10
589.491977
 20
514.680178
 30
0.0
 10
589.493265
 20
514.948980
 30
0.0
 10
589.350600
 20
515.197916
 30
0.0
 10
589.118023
 20
515.332691
 30
0.0
  0
SPLINE
  5
1d4
100
AcDbEntity
  8
0
 62
7
100
AcDbSpline
 70
8
 71
3
 72
8
 73
4
 74
0
 40
0
 40
0
 40
0
 40
0
 40
1
 40
1
 40
1
 40
1
 10
589.118023
 20
515.332691
 30
0.0
 10
588.885445
 20
515.467465
 30
0.0
 10
588.598526
 20
515.467465
 30
0.0
 10
588.365949
 20
515.332691
 30
0.0
  0
SPLINE
  5
1d5
100
AcDbEntity
  8
0
 62
7
100
AcDbSpline
 70
8
 71
3
 72
8
 73
4
 74
0
 40
0
 40
0
 40
0
 40
0
 40
1
 40
1
 40
1
 40
1
 10
588.365949
 20
515.332691
 30
0.0
 10
588.133372
 20
515.197916
 30
0.0
 10
587.990706
 20
514.948980
 30
0.0
 10
587.991994
 20
514.680178
 30
0.0
  0
SPLINE
  5
1d6
100
AcDbEntity
  8
0
 62
7
100
AcDbSpline
 70
8
 71
3
 72
8
 73
4
 74
0
 40
0
 40
0
 40
0
 40
0
 40
1
 40
1
 40
1
 40
1
 10
587.991994
 20
514.680178
 30
0.0
 10
587.990706
 20
514.411376
 30
0.0
 10
588.133372
 20
514.162440
 30
0.0
 10
588.365949
 20
514.027665
 30
0.0
  0
SPLINE
  5
1d7
100
AcDbEntity
  8
0
 62
7
100
AcDbSpline
 70
8
 71
3
 72
8
 73
4
 74
0
 40
0
 40
0
 40
0
 40
0
 40
1
 40
1
 40
1
 40
1
 10
588.365949
 20
514.027665
 30
0.0
 10
588.598526
 20
513.892891
 30
0.0
 10
588.885445
 20
513.892891
 30
0.0
 10
589.118023
 20
514.027665
 30
0.0
  0
SPLINE
  5
1d8
100
AcDbEntity
  8
0
 62
7
100
AcDbSpline
 70
8
 71
3
 72
8
 73
4
 74
0
 40
0
 40
0
 40
0
 40
0
 40
1
 40
1
 40
1
 40
1
 10
589.118023
 20
514.027665
 30
0.0
 10
589.350600
 20
514.162440
 30
0.0
 10
589.493265
 20
514.411376
 30
0.0
 10
589.491977
 20
514.680178
 30
0.0
  0
LWPOLYLINE
  5
1d9
100
AcDbEntity
  8
0
 62
7
100
AcDbPolyline
 90
2
 70
1
 10
550.455197
 20
514.220009
 30
0.0
 10
550.455197
 20
514.220009
 30
0.0
  0
SPLINE
  5
1da
100
AcDbEntity
  8
0
 62
7
100
AcDbSpline
 70
8
 71
3
 72
8
 73
4
 74
0
 40
0
 40
0
 40
0
 40
0
 40
1
 40
1
 40
1
 40
1
 10
576.722325
 20
524.746342
 30
0.0
 10
576.723602
 20
525.015137
 30
0.0
 10
576.580934
 20
525.264062
 30
0.0
 10
576.348361
 20
525.398830
 30
0.0
  0
SPLINE
  5
1db
100
AcDbEntity
  8
0
 62
7
100
AcDbSpline
 70
8
 71
3
 72
8
 73
4
 74
0
 40
0
 40
0
 40
0
 40
0
 40
1
 40
1
 40
1
 40
1
 10
576.348361
 20
525.398830
 30
0.0
 10
576.115789
 20
525.533597
 30
0.0
 10
575.828878
 20
525.533597
 30
0.0
 10
575.596305
 20
525.398830
 30
0.0
  0
SPLINE
  5
1dc
100
AcDbEntity
  8
0
 62
7
100
AcDbSpline
 70
8
 71
3
 72
8
 73
4
 74
0
 40
0
 40
0
 40
0
 40
0
 40
1
 40
1
 40
1
 40
1
 10
575.596305
 20
525.398830
 30
0.0
 10
575.363732
 20
525.264062
 30
0.0
 10
575.221065
 20
525.015137
 30
0.0
 10
575.222342
 20
524.746342
 30
0.0
  0
SPLINE
  5
1dd
100
AcDbEntity
  8
0
 62
7
100
AcDbSpline
 70
8
 71
3
 72
8
 73
4
 74
0
 40
0
 40
0
 40
0
 40
0
 40
1
 40
1
 40
1
 40
1
 10
575.222342
 20
524.746342
 30
0.0
 10
575.221065
 20
524.477547
 30
0.0
 10
575.363732
 20
524.228622
 30
0.0
 10
575.596305
 20
524.093854
 30
0.0
  0
SPLINE
  5
1de
100
AcDbEntity
  8
0
 62
7
100
AcDbSpline
 70
8
 71
3
 72
8
 73
4
 74
0
 40
0
 40
0
 40
0
 40
0
 40
1
 40
1
 40
1
 40
1
 10
575.596305
 20
524.093854
 30
0.0
 10
575.828878
 20
523.959086
 30
0.0
 10
576.115789
 20
523.959086
 30
0.0
 10
576.348361
 20
524.093854
 30
0.0
  0
SPLINE
  5
1df
100
AcDbEntity
  8
0
 62
7
100
AcDbSpline
 70
8
 71
3
 72
8
 73
4
 74
0
 40
0
 40
0
 40
0
 40
0
 40
1
 40
1
 40
1
 40
1
 10
576.348361
 20
524.093854
 30
0.0
 10
576.580934
 20
524.228622
 30
0.0
 10
576.723602
 20
524.477547
 30
0.0
 10
576.722325
 20
524.746342
 30
0.0
  0
LWPOLYLINE
  5
1e0
100
AcDbEntity
  8
0
 62
7
100
AcDbPolyline
 90
2
 70
1
 10
589.491977
 20
514.680178
 30
0.0
 10
589.491977
 20
514.680178
 30
0.0
  0
SPLINE
  5
1e1
100
AcDbEntity
  8
0
 62
7
100
AcDbSpline
 70
8
 71
3
 72
8
 73
4
 74
0
 40
0
 40
0
 40
0
 40
0
 40
1
 40
1
 40
1
 40
1
 10
601.628887
 20
494.260246
 30
0.0
 10
601.630175
 20
494.529048
 30
0.0
 10
601.487510
 20
494.777984
 30
0.0
 10
601.254933
 20
494.912759
 30
0.0
  0
SPLINE
  5
1e2
100
AcDbEntity
  8
0
 62
7
100
AcDbSpline
 70
8
 71
3
 72
8
 73
4
 74
0
 40
0
 40
0
 40
0
 40
0
 40
1
 40
1
 40
1
 40
1
 10
601.254933
 20
494.912759
 30
0.0
 10
601.022356
 20
495.047533
 30
0.0
 10
600.735436
 20
495.047533
 30
0.0
 10
600.502859
 20
494.912759
 30
0.0
  0
SPLINE
  5
1e3
100
AcDbEntity
  8
0
 62
7
100
AcDbSpline
 70
8
 71
3
 72
8
 73
4
 74
0
 40
0
 40
0
 40
0
 40
0
 40
1
 40
1
 40
1
 40
1
 10
600.502859
 20
494.912759
 30
0.0
 10
600.270282
 20
494.777984
 30
0.0
 10
600.127617
 20
494.529048
 30
0.0
 10
600.128904
 20
494.260246
 30
0.0
  0
SPLINE
  5
1e4
100
AcDbEntity
  8
0
 62
7
100
AcDbSpline
 70
8
 71
3
 72
8
 73
4
 74
0
 40
0
 40
0
 40
0
 40
0
 40
1
 40
1
 40
1
 40
1
 10
600.128904
 20
494.260246
 30
0.0
 10
600.127617
 20
493.991444
 30
0.0
 10
600.270282
 20
493.742507
 30
0.0
 10
600.502859
 20
493.607733
 30
0.0
  0
SPLINE
  5
1e5
100
AcDbEntity
  8
0
 62
7
100
AcDbSpline
 70
8
 71
3
 72
8
 73
4
 74
0
 40
0
 40
0
 40
0
 40
0
 40
1
 40
1
 40
1
 40
1
 10
600.502859
 20
493.607733
 30
0.0
 10
600.735436
 20
493.472959
 30
0.0
 10
601.022356
 20
493.472959
 30
0.0
 10
601.254933
 20
493.607733
 30
0.0
  0
SPLINE
  5
1e6
100
AcDbEntity
  8
0
 62
7
100
AcDbSpline
 70
8
 71
3
 72
8
 73
4
 74
0
 40
0
 40
0
 40
0
 40
0
 40
1
 40
1
 40
1
 40
1
 10
601.254933
 20
493.607733
 30
0.0
 10
601.487510
 20
493.742507
 30
0.0
 10
601.630175
 20
493.991444
 30
0.0
 10
601.628887
 20
494.260246
 30
0.0
  0
LWPOLYLINE
  5
1e7
100
AcDbEntity
  8
0
 62
7
100
AcDbPolyline
 90
2
 70
1
 10
576.722325
 20
524.746342
 30
0.0
 10
576.722325
 20
524.746342
 30
0.0
  0
SPLINE
  5
1e8
100
AcDbEntity
  8
0
 62
7
100
AcDbSpline
 70
8
 71
3
 72
8
 73
4
 74
0
 40
0
 40
0
 40
0
 40
0
 40
1
 40
1
 40
1
 40
1
 10
586.808411
 20
471.999644
 30
0.0
 10
586.809122
 20
472.357382
 30
0.0
 10
586.618679
 20
472.688250
 30
0.0
 10
586.308986
 20
472.867325
 30
0.0
  0
SPLINE
  5
1e9
100
AcDbEntity
  8
0
 62
7
100
AcDbSpline
 70
8
 71
3
 72
8
 73
4
 74
0
 40
0
 40
0
 40
0
 40
0
 40
1
 40
1
 40
1
 40
1
 10
586.308986
 20
472.867325
 30
0.0
 10
585.999294
 20
473.046400
 30
0.0
 10
585.617532
 20
473.046400
 30
0.0
 10
585.307839
 20
472.867325
 30
0.0
  0
SPLINE
  5
1ea
100
AcDbEntity
  8
0
 62
7
100
AcDbSpline
 70
8
 71
3
 72
8
 73
4
 74
0
 40
0
 40
0
 40
0
 40
0
 40
1
 40
1
 40
1
 40
1
 10
585.307839
 20
472.867325
 30
0.0
 10
584.998146
 20
472.688250
 30
0.0
 10
584.807704
 20
472.357382
 30
0.0
 10
584.808415
 20
471.999644
 30
0.0
  0
SPLINE
  5
1eb
100
AcDbEntity
  8
0
 62
7
100
AcDbSpline
 70
8
 71
3
 72
8
 73
4
 74
0
 40
0
 40
0
 40
0
 40
0
 40
1
 40
1
 40
1
 40
1
 10
584.808415
 20
471.999644
 30
0.0
 10
584.807704
 20
471.641905
 30
0.0
 10
584.998146
 20
471.311037
 30
0.0
 10
585.307839
 20
471.131962
 30
0.0
  0
SPLINE
  5
1ec
100
AcDbEntity
  8
0
 62
7
100
AcDbSpline
 70
8
 71
3
 72
8
 73
4
 74
0
 40
0
 40
0
 40
0
 40
0
 40
1
 40
1
 40
1
 40
1
 10
585.307839
 20
471.131962
 30
0.0
 10
585.617532
 20
470.952887
 30
0.0
 10
585.999294
 20
470.952887
 30
0.0
 10
586.308986
 20
471.131962
 30
0.0
  0
SPLINE
  5
1ed
100
AcDbEntity
  8
0
 62
7
100
AcDbSpline
 70
8
 71
3
 72
8
 73
4
 74
0
 40
0
 40
0
 40
0
 40
0
 40
1
 40
1
 40
1
 40
1
 10
586.308986
 20
471.131962
 30
0.0
 10
586.618679
 20
471.311037
 30
0.0
 10
586.809122
 20
471.641905
 30
0.0
 10
586.808411
 20
471.999644
 30
0.0
  0
LWPOLYLINE
  5
1ee
100
AcDbEntity
  8
0
 62
7
100
AcDbPolyline
 90
2
 70
1
 10
601.628887
 20
494.260246
 30
0.0
 10
601.628887
 20
494.260246
 30
0.0
  0
SPLINE
  5
1ef
100
AcDbEntity
  8
0
 62
7
100
AcDbSpline
 70
8
 71
3
 72
8
 73
4
 74
0
 40
0
 40
0
 40
0
 40
0
 40
1
 40
1
 40
1
 40
1
 10
613.518035
 20
477.119005
 30
0.0
 10
613.519789
 20
477.566750
 30
0.0
 10
613.281927
 20
477.981237
 30
0.0
 10
612.894458
 20
478.205618
 30
0.0
  0
SPLINE
  5
1f0
100
AcDbEntity
  8
0
 62
7
100
AcDbSpline
 70
8
 71
3
 72
8
 73
4
 74
0
 40
0
 40
0
 40
0
 40
0
 40
1
 40
1
 40
1
 40
1
 10
612.894458
 20
478.205618
 30
0.0
 10
612.506989
 20
478.429998
 30
0.0
 10
612.029100
 20
478.429998
 30
0.0
 10
611.641631
 20
478.205618
 30
0.0
  0
SPLINE
  5
1f1
100
AcDbEntity
  8
0
 62
7
100
AcDbSpline
 70
8
 71
3
 72
8
 73
4
 74
0
 40
0
 40
0
 40
0
 40
0
 40
1
 40
1
 40
1
 40
1
 10
611.641631
 20
478.205618
 30
0.0
 10
611.254162
 20
477.981237
 30
0.0
 10
611.016299
 20
477.566750
 30
0.0
 10
611.018054
 20
477.119005
 30
0.0
  0
SPLINE
  5
1f2
100
AcDbEntity
  8
0
 62
7
100
AcDbSpline
 70
8
 71
3
 72
8
 73
4
 74
0
 40
0
 40
0
 40
0
 40
0
 40
1
 40
1
 40
1
 40
1
 10
611.018054
 20
477.119005
 30
0.0
 10
611.016299
 20
476.671260
 30
0.0
 10
611.254162
 20
476.256773
 30
0.0
 10
611.641631
 20
476.032393
 30
0.0
  0
SPLINE
  5
1f3
100
AcDbEntity
  8
0
 62
7
100
AcDbSpline
 70
8
 71
3
 72
8
 73
4
 74
0
 40
0
 40
0
 40
0
 40
0
 40
1
 40
1
 40
1
 40
1
 10
611.641631
 20
476.032393
 30
0.0
 10
612.029100
 20
475.808012
 30
0.0
 10
612.506989
 20
475.808012
 30
0.0
 10
612.894458
 20
476.032393
 30
0.0
  0
SPLINE
  5
1f4
100
AcDbEntity
  8
0
 62
7
100
AcDbSpline
 70
8
 71
3
 72
8
 73
4
 74
0
 40
0
 40
0
 40
0
 40
0
 40
1
 40
1
 40
1
 40
1
 10
612.894458
 20
476.032393
 30
0.0
 10
613.281927
 20
476.256773
 30
0.0
 10
613.519789
 20
476.671260
 30
0.0
 10
613.518035
 20
477.119005
 30
0.0
  0
LWPOLYLINE
  5
1f5
100
AcDbEntity
  8
0
 62
7
100
AcDbPolyline
 90
2
 70
1
 10
586.808411
 20
471.999644
 30
0.0
 10
586.808411
 20
471.999644
 30
0.0
  0
SPLINE
  5
1f6
100
AcDbEntity
  8
0
 62
7
100
AcDbSpline
 70
8
 71
3
 72
8
 73
4
 74
0
 40
0
 40
0
 40
0
 40
0
 40
1
 40
1
 40
1
 40
1
 10
547.944181
 20
476.313712
 30
0.0
 10
547.944181
 20
476.760296
 30
0.0
 10
547.705932
 20
477.172956
 30
0.0
 10
547.319179
 20
477.396248
 30
0.0
  0
SPLINE
  5
1f7
100
AcDbEntity
  8
0
 62
7
100
AcDbSpline
 70
8
 71
3
 72
8
 73
4
 74
0
 40
0
 40
0
 40
0
 40
0
 40
1
 40
1
 40
1
 40
1
 10
547.319179
 20
477.396248
 30
0.0
 10
546.932426
 20
477.619540
 30
0.0
 10
546.455927
 20
477.619540
 30
0.0
 10
546.069174
 20
477.396248
 30
0.0
  0
SPLINE
  5
1f8
100
AcDbEntity
  8
0
 62
7
100
AcDbSpline
 70
8
 71
3
 72
8
 73
4
 74
0
 40
0
 40
0
 40
0
 40
0
 40
1
 40
1
 40
1
 40
1
 10
546.069174
 20
477.396248
 30
0.0
 10
545.682422
 20
477.172956
 30
0.0
 10
545.444172
 20
476.760296
 30
0.0
 10
545.444172
 20
476.313712
 30
0.0
  0
SPLINE
  5
1f9
100
AcDbEntity
  8
0
 62
7
100
AcDbSpline
 70
8
 71
3
 72
8
 73
4
 74
0
 40
0
 40
0
 40
0
 40
0
 40
1
 40
1
 40
1
 40
1
 10
545.444172
 20
476.313712
 30
0.0
 10
545.444172
 20
475.867129
 30
0.0
 10
545.682422
 20
475.454468
 30
0.0
 10
546.069174
 20
475.231177
 30
0.0
  0
SPLINE
  5
1fa
100
AcDbEntity
  8
0
 62
7
100
AcDbSpline
 70
8
 71
3
 72
8
 73
4
 74
0
 40
0
 40
0
 40
0
 40
0
 40
1
 40
1
 40
1
 40
1
 10
546.069174
 20
475.231177
 30
0.0
 10
546.455927
 20
475.007885
 30
0.0
 10
546.932426
 20
475.007885
 30
0.0
 10
547.319179
 20
475.231177
 30
0.0
  0
SPLINE
  5
1fb
100
AcDbEntity
  8
0
 62
7
100
AcDbSpline
 70
8
 71
3
 72
8
 73
4
 74
0
 40
0
 40
0
 40
0
 40
0
 40
1
 40
1
 40
1
 40
1
 10
547.319179
 20
475.231177
 30
0.0
 10
547.705932
 20
475.454468
 30
0.0
 10
547.944181
 20
475.867129
 30
0.0
 10
547.944181
 20
476.313712
 30
0.0
  0
LWPOLYLINE
  5
1fc
100
AcDbEntity
  8
0
 62
7
100
AcDbPolyline
 90
2
 70
1
 10
613.518035
 20
477.119005
 30
0.0
 10
613.518035
 20
477.119005
 30
0.0
  0
SPLINE
  5
1fd
100
AcDbEntity
  8
0
 62
7
100
AcDbSpline
 70
8
 71
3
 72
8
 73
4
 74
0
 40
0
 40
0
 40
0
 40
0
 40
1
 40
1
 40
1
 40
1
 10
562.572182
 20
491.844364
 30
0.0
 10
562.573470
 20
492.113167
 30
0.0
 10
562.430805
 20
492.362103
 30
0.0
 10
562.198228
 20
492.496877
 30
0.0
  0
SPLINE
  5
1fe
100
AcDbEntity
  8
0
 62
7
100
AcDbSpline
 70
8
 71
3
 72
8
 73
4
 74
0
 40
0
 40
0
 40
0
 40
0
 40
1
 40
1
 40
1
 40
1
 10
562.198228
 20
492.496877
 30
0.0
 10
561.965650
 20
492.631651
 30
0.0
 10
561.678731
 20
492.631651
 30
0.0
 10
561.446154
 20
492.496877
 30
0.0
  0
SPLINE
  5
1ff
100
AcDbEntity
  8
0
 62
7
100
AcDbSpline
 70
8
 71
3
 72
8
 73
4
 74
0
 40
0
 40
0
 40
0
 40
0
 40
1
 40
1
 40
1
 40
1
 10
561.446154
 20
492.496877
 30
0.0
 10
561.213577
 20
492.362103
 30
0.0
 10
561.070911
 20
492.113167
 30
0.0
 10
561.072199
 20
491.844364
 30
0.0
  0
SPLINE
  5
200
100
AcDbEntity
  8
0
 62
7
100
AcDbSpline
 70
8
 71
3
 72
8
 73
4
 74
0
 40
0
 40
0
 40
0
 40
0
 40
1
 40
1
 40
1
 40
1
 10
561.072199
 20
491.844364
 30
0.0
 10
561.070911
 20
491.575562
 30
0.0
 10
561.213577
 20
491.326626
 30
0.0
 10
561.446154
 20
491.191852
 30
0.0
  0
SPLINE
  5
201
100
AcDbEntity
  8
0
 62
7
100
AcDbSpline
 70
8
 71
3
 72
8
 73
4
 74
0
 40
0
 40
0
 40
0
 40
0
 40
1
 40
1
 40
1
 40
1
 10
561.446154
 20
491.191852
 30
0.0
 10
561.678731
 20
491.057078
 30
0.0
 10
561.965650
 20
491.057078
 30
0.0
 10
562.198228
 20
491.191852
 30
0.0
  0
SPLINE
  5
202
100
AcDbEntity
  8
0
 62
7
100
AcDbSpline
 70
8
 71
3
 72
8
 73
4
 74
0
 40
0
 40
0
 40
0
 40
0
 40
1
 40
1
 40
1
 40
1
 10
562.198228
 20
491.191852
 30
0.0
 10
562.430805
 20
491.326626
 30
0.0
 10
562.573470
 20
491.575562
 30
0.0
 10
562.572182
 20
491.844364
 30
0.0
  0
LWPOLYLINE
  5
203
100
AcDbEntity
  8
0
 62
7
100
AcDbPolyline
 90
2
 70
1
 10
547.944181
 20
476.313712
 30
0.0
 10
547.944181
 20
476.313712
 30
0.0
  0
SPLINE
  5
204
100
AcDbEntity
  8
0
 62
7
100
AcDbSpline
 70
8
 71
3
 72
8
 73
4
 74
0
 40
0
 40
0
 40
0
 40
0
 40
1
 40
1
 40
1
 40
1
 10
616.681689
 20
539.126574
 30
0.0
 10
616.683444
 20
539.574320
 30
0.0
 10
616.445581
 20
539.988806
 30
0.0
 10
616.058112
 20
540.213187
 30
0.0
  0
SPLINE
  5
205
100
AcDbEntity
  8
0
 62
7
100
AcDbSpline
 70
8
 71
3
 72
8
 73
4
 74
0
 40
0
 40
0
 40
0
 40
0
 40
1
 40
1
 40
1
 40
1
 10
616.058112
 20
540.213187
 30
0.0
 10
615.670643
 20
540.437568
 30
0.0
 10
615.192755
 20
540.437568
 30
0.0
 10
614.805286
 20
540.213187
 30
0.0
  0
SPLINE
  5
206
100
AcDbEntity
  8
0
 62
7
100
AcDbSpline
 70
8
 71
3
 72
8
 73
4
 74
0
 40
0
 40
0
 40
0
 40
0
 40
1
 40
1
 40
1
 40
1
 10
614.805286
 20
540.213187
 30
0.0
 10
614.417816
 20
539.988806
 30
0.0
 10
614.179954
 20
539.574320
 30
0.0
 10
614.181708
 20
539.126574
 30
0.0
  0
SPLINE
  5
207
100
AcDbEntity
  8
0
 62
7
100
AcDbSpline
 70
8
 71
3
 72
8
 73
4
 74
0
 40
0
 40
0
 40
0
 40
0
 40
1
 40
1
 40
1
 40
1
 10
614.181708
 20
539.126574
 30
0.0
 10
614.179954
 20
538.678829
 30
0.0
 10
614.417816
 20
538.264343
 30
0.0
 10
614.805286
 20
538.039962
 30
0.0
  0
SPLINE
  5
208
100
AcDbEntity
  8
0
 62
7
100
AcDbSpline
 70
8
 71
3
 72
8
 73
4
 74
0
 40
0
 40
0
 40
0
 40
0
 40
1
 40
1
 40
1
 40
1
 10
614.805286
 20
538.039962
 30
0.0
 10
615.192755
 20
537.815581
 30
0.0
 10
615.670643
 20
537.815581
 30
0.0
 10
616.058112
 20
538.039962
 30
0.0
  0
SPLINE
  5
209
100
AcDbEntity
  8
0
 62
7
100
AcDbSpline
 70
8
 71
3
 72
8
 73
4
 74
0
 40
0
 40
0
 40
0
 40
0
 40
1
 40
1
 40
1
 40
1
 10
616.058112
 20
538.039962
 30
0.0
 10
616.445581
 20
538.264343
 30
0.0
 10
616.683444
 20
538.678829
 30
0.0
 10
616.681689
 20
539.126574
 30
0.0
  0
LWPOLYLINE
  5
20a
100
AcDbEntity
  8
0
 62
7
100
AcDbPolyline
 90
2
 70
1
 10
562.572182
 20
491.844364
 30
0.0
 10
562.572182
 20
491.844364
 30
0.0
  0
SPLINE
  5
20b
100
AcDbEntity
  8
0
 62
7
100
AcDbSpline
 70
8
 71
3
 72
8
 73
4
 74
0
 40
0
 40
0
 40
0
 40
0
 40
1
 40
1
 40
1
 40
1
 10
551.107836
 20
525.564597
 30
0.0
 10
551.107836
 20
526.011181
 30
0.0
 10
550.869586
 20
526.423841
 30
0.0
 10
550.482833
 20
526.647133
 30
0.0
  0
SPLINE
  5
20c
100
AcDbEntity
  8
0
 62
7
100
AcDbSpline
 70
8
 71
3
 72
8
 73
4
 74
0
 40
0
 40
0
 40
0
 40
0
 40
1
 40
1
 40
1
 40
1
 10
550.482833
 20
526.647133
 30
0.0
 10
550.096081
 20
526.870425
 30
0.0
 10
549.619582
 20
526.870425
 30
0.0
 10
549.232829
 20
526.647133
 30
0.0
  0
SPLINE
  5
20d
100
AcDbEntity
  8
0
 62
7
100
AcDbSpline
 70
8
 71
3
 72
8
 73
4
 74
0
 40
0
 40
0
 40
0
 40
0
 40
1
 40
1
 40
1
 40
1
 10
549.232829
 20
526.647133
 30
0.0
 10
548.846076
 20
526.423841
 30
0.0
 10
548.607827
 20
526.011181
 30
0.0
 10
548.607827
 20
525.564597
 30
0.0
  0
SPLINE
  5
20e
100
AcDbEntity
  8
0
 62
7
100
AcDbSpline
 70
8
 71
3
 72
8
 73
4
 74
0
 40
0
 40
0
 40
0
 40
0
 40
1
 40
1
 40
1
 40
1
 10
548.607827
 20
525.564597
 30
0.0
 10
548.607827
 20
525.118014
 30
0.0
 10
548.846076
 20
524.705353
 30
0.0
 10
549.232829
 20
524.482062
 30
0.0
  0
SPLINE
  5
20f
100
AcDbEntity
  8
0
 62
7
100
AcDbSpline
 70
8
 71
3
 72
8
 73
4
 74
0
 40
0
 40
0
 40
0
 40
0
 40
1
 40
1
 40
1
 40
1
 10
549.232829
 20
524.482062
 30
0.0
 10
549.619582
 20
524.258770
 30
0.0
 10
550.096081
 20
524.258770
 30
0.0
 10
550.482833
 20
524.482062
 30
0.0
  0
SPLINE
  5
210
100
AcDbEntity
  8
0
 62
7
100
AcDbSpline
 70
8
 71
3
 72
8
 73
4
 74
0
 40
0
 40
0
 40
0
 40
0
 40
1
 40
1
 40
1
 40
1
 10
550.482833
 20
524.482062
 30
0.0
 10
550.869586
 20
524.705353
 30
0.0
 10
551.107836
 20
525.118014
 30
0.0
 10
551.107836
 20
525.564597
 30
0.0
  0
LWPOLYLINE
  5
211
100
AcDbEntity
  8
0
 62
7
100
AcDbPolyline
 90
2
 70
1
 10
616.681689
 20
539.126574
 30
0.0
 10
616.681689
 20
539.126574
 30
0.0
  0
SPLINE
  5
212
100
AcDbEntity
  8
0
 62
7
100
AcDbSpline
 70
8
 71
3
 72
8
 73
4
 74
0
 40
0
 40
0
 40
0
 40
0
 40
1
 40
1
 40
1
 40
1
 10
573.673732
 20
486.379876
 30
0.0
 10
573.673732
 20
486.647827
 30
0.0
 10
573.530782
 20
486.895424
 30
0.0
 10
573.298729
 20
487.029400
 30
0.0
  0
SPLINE
  5
213
100
AcDbEntity
  8
0
 62
7
100
AcDbSpline
 70
8
 71
3
 72
8
 73
4
 74
0
 40
0
 40
0
 40
0
 40
0
 40
1
 40
1
 40
1
 40
1
 10
573.298729
 20
487.029400
 30
0.0
 10
573.066677
 20
487.163376
 30
0.0
 10
572.780776
 20
487.163376
 30
0.0
 10
572.548724
 20
487.029400
 30
0.0
  0
SPLINE
  5
214
100
AcDbEntity
  8
0
 62
7
100
AcDbSpline
 70
8
 71
3
 72
8
 73
4
 74
0
 40
0
 40
0
 40
0
 40
0
 40
1
 40
1
 40
1
 40
1
 10
572.548724
 20
487.029400
 30
0.0
 10
572.316671
 20
486.895424
 30
0.0
 10
572.173721
 20
486.647827
 30
0.0
 10
572.173721
 20
486.379876
 30
0.0
  0
SPLINE
  5
215
100
AcDbEntity
  8
0
 62
7
100
AcDbSpline
 70
8
 71
3
 72
8
 73
4
 74
0
 40
0
 40
0
 40
0
 40
0
 40
1
 40
1
 40
1
 40
1
 10
572.173721
 20
486.379876
 30
0.0
 10
572.173721
 20
486.111925
 30
0.0
 10
572.316671
 20
485.864328
 30
0.0
 10
572.548724
 20
485.730352
 30
0.0
  0
SPLINE
  5
216
100
AcDbEntity
  8
0
 62
7
100
AcDbSpline
 70
8
 71
3
 72
8
 73
4
 74
0
 40
0
 40
0
 40
0
 40
0
 40
1
 40
1
 40
1
 40
1
 10
572.548724
 20
485.730352
 30
0.0
 10
572.780776
 20
485.596377
 30
0.0
 10
573.066677
 20
485.596377
 30
0.0
 10
573.298729
 20
485.730352
 30
0.0
  0
SPLINE
  5
217
100
AcDbEntity
  8
0
 62
7
100
AcDbSpline
 70
8
 71
3
 72
8
 73
4
 74
0
 40
0
 40
0
 40
0
 40
0
 40
1
 40
1
 40
1
 40
1
 10
573.298729
 20
485.730352
 30
0.0
 10
573.530782
 20
485.864328
 30
0.0
 10
573.673732
 20
486.111925
 30
0.0
 10
573.673732
 20
486.379876
 30
0.0
  0
LWPOLYLINE
  5
218
100
AcDbEntity
  8
0
 62
7
100
AcDbPolyline
 90
2
 70
1
 10
551.107836
 20
525.564597
 30
0.0
 10
551.107836
 20
525.564597
 30
0.0
  0
SPLINE
  5
219
100
AcDbEntity
  8
0
 62
7
100
AcDbSpline
 70
8
 71
3
 72
8
 73
4
 74
0
 40
0
 40
0
 40
0
 40
0
 40
1
 40
1
 40
1
 40
1
 10
559.107820
 20
540.564598
 30
0.0
 10
559.109574
 20
541.012344
 30
0.0
 10
558.871712
 20
541.426830
 30
0.0
 10
558.484243
 20
541.651211
 30
0.0
  0
SPLINE
  5
21a
100
AcDbEntity
  8
0
 62
7
100
AcDbSpline
 70
8
 71
3
 72
8
 73
4
 74
0
 40
0
 40
0
 40
0
 40
0
 40
1
 40
1
 40
1
 40
1
 10
558.484243
 20
541.651211
 30
0.0
 10
558.096774
 20
541.875591
 30
0.0
 10
557.618885
 20
541.875591
 30
0.0
 10
557.231416
 20
541.651211
 30
0.0
  0
SPLINE
  5
21b
100
AcDbEntity
  8
0
 62
7
100
AcDbSpline
 70
8
 71
3
 72
8
 73
4
 74
0
 40
0
 40
0
 40
0
 40
0
 40
1
 40
1
 40
1
 40
1
 10
557.231416
 20
541.651211
 30
0.0
 10
556.843947
 20
541.426830
 30
0.0
 10
556.606084
 20
541.012344
 30
0.0
 10
556.607839
 20
540.564598
 30
0.0
  0
SPLINE
  5
21c
100
AcDbEntity
  8
0
 62
7
100
AcDbSpline
 70
8
 71
3
 72
8
 73
4
 74
0
 40
0
 40
0
 40
0
 40
0
 40
1
 40
1
 40
1
 40
1
 10
556.607839
 20
540.564598
 30
0.0
 10
556.606084
 20
540.116853
 30
0.0
 10
556.843947
 20
539.702367
 30
0.0
 10
557.231416
 20
539.477986
 30
0.0
  0
SPLINE
  5
21d
100
AcDbEntity
  8
0
 62
7
100
AcDbSpline
 70
8
 71
3
 72
8
 73
4
 74
0
 40
0
 40
0
 40
0
 40
0
 40
1
 40
1
 40
1
 40
1
 10
557.231416
 20
539.477986
 30
0.0
 10
557.618885
 20
539.253605
 30
0.0
 10
558.096774
 20
539.253605
 30
0.0
 10
558.484243
 20
539.477986
 30
0.0
  0
SPLINE
  5
21e
100
AcDbEntity
  8
0
 62
7
100
AcDbSpline
 70
8
 71
3
 72
8
 73
4
 74
0
 40
0
 40
0
 40
0
 40
0
 40
1
 40
1
 40
1
 40
1
 10
558.484243
 20
539.477986
 30
0.0
 10
558.871712
 20
539.702367
 30
0.0
 10
559.109574
 20
540.116853
 30
0.0
 10
559.107820
 20
540.564598
 30
0.0
  0
LWPOLYLINE
  5
21f
100
AcDbEntity
  8
0
 62
7
100
AcDbPolyline
 90
2
 70
1
 10
573.673732
 20
486.379876
 30
0.0
 10
573.673732
 20
486.379876
 30
0.0
  0
SPLINE
  5
220
100
AcDbEntity
  8
0
 62
7
100
AcDbSpline
 70
8
 71
3
 72
8
 73
4
 74
0
 40
0
 40
0
 40
0
 40
0
 40
1
 40
1
 40
1
 40
1
 10
585.217750
 20
527.219740
 30
0.0
 10
585.217750
 20
527.666324
 30
0.0
 10
584.979500
 20
528.078984
 30
0.0
 10
584.592747
 20
528.302276
 30
0.0
  0
SPLINE
  5
221
100
AcDbEntity
  8
0
 62
7
100
AcDbSpline
 70
8
 71
3
 72
8
 73
4
 74
0
 40
0
 40
0
 40
0
 40
0
 40
1
 40
1
 40
1
 40
1
 10
584.592747
 20
528.302276
 30
0.0
 10
584.205995
 20
528.525568
 30
0.0
 10
583.729496
 20
528.525568
 30
0.0
 10
583.342743
 20
528.302276
 30
0.0
  0
SPLINE
  5
222
100
AcDbEntity
  8
0
 62
7
100
AcDbSpline
 70
8
 71
3
 72
8
 73
4
 74
0
 40
0
 40
0
 40
0
 40
0
 40
1
 40
1
 40
1
 40
1
 10
583.342743
 20
528.302276
 30
0.0
 10
582.955990
 20
528.078984
 30
0.0
 10
582.717741
 20
527.666324
 30
0.0
 10
582.717741
 20
527.219740
 30
0.0
  0
SPLINE
  5
223
100
AcDbEntity
  8
0
 62
7
100
AcDbSpline
 70
8
 71
3
 72
8
 73
4
 74
0
 40
0
 40
0
 40
0
 40
0
 40
1
 40
1
 40
1
 40
1
 10
582.717741
 20
527.219740
 30
0.0
 10
582.717741
 20
526.773157
 30
0.0
 10
582.955990
 20
526.360496
 30
0.0
 10
583.342743
 20
526.137205
 30
0.0
  0
SPLINE
  5
224
100
AcDbEntity
  8
0
 62
7
100
AcDbSpline
 70
8
 71
3
 72
8
 73
4
 74
0
 40
0
 40
0
 40
0
 40
0
 40
1
 40
1
 40
1
 40
1
 10
583.342743
 20
526.137205
 30
0.0
 10
583.729496
 20
525.913913
 30
0.0
 10
584.205995
 20
525.913913
 30
0.0
 10
584.592747
 20
526.137205
 30
0.0
  0
SPLINE
  5
225
100
AcDbEntity
  8
0
 62
7
100
AcDbSpline
 70
8
 71
3
 72
8
 73
4
 74
0
 40
0
 40
0
 40
0
 40
0
 40
1
 40
1
 40
1
 40
1
 10
584.592747
 20
526.137205
 30
0.0
 10
584.979500
 20
526.360496
 30
0.0
 10
585.217750
 20
526.773157
 30
0.0
 10
585.217750
 20
527.219740
 30
0.0
  0
LWPOLYLINE
  5
226
100
AcDbEntity
  8
0
 62
7
100
AcDbPolyline
 90
2
 70
1
 10
559.107820
 20
540.564598
 30
0.0
 10
559.107820
 20
540.564598
 30
0.0
  0
SPLINE
  5
227
100
AcDbEntity
  8
0
 62
7
100
AcDbSpline
 70
8
 71
3
 72
8
 73
4
 74
0
 40
0
 40
0
 40
0
 40
0
 40
1
 40
1
 40
1
 40
1
 10
576.992242
 20
539.414179
 30
0.0
 10
576.993996
 20
539.861924
 30
0.0
 10
576.756134
 20
540.276410
 30
0.0
 10
576.368665
 20
540.500791
 30
0.0
  0
SPLINE
  5
228
100
AcDbEntity
  8
0
 62
7
100
AcDbSpline
 70
8
 71
3
 72
8
 73
4
 74
0
 40
0
 40
0
 40
0
 40
0
 40
1
 40
1
 40
1
 40
1
 10
576.368665
 20
540.500791
 30
0.0
 10
575.981196
 20
540.725172
 30
0.0
 10
575.503307
 20
540.725172
 30
0.0
 10
575.115838
 20
540.500791
 30
0.0
  0
SPLINE
  5
229
100
AcDbEntity
  8
0
 62
7
100
AcDbSpline
 70
8
 71
3
 72
8
 73
4
 74
0
 40
0
 40
0
 40
0
 40
0
 40
1
 40
1
 40
1
 40
1
 10
575.115838
 20
540.500791
 30
0.0
 10
574.728369
 20
540.276410
 30
0.0
 10
574.490507
 20
539.861924
 30
0.0
 10
574.492261
 20
539.414179
 30
0.0
  0
SPLINE
  5
22a
100
AcDbEntity
  8
0
 62
7
100
AcDbSpline
 70
8
 71
3
 72
8
 73
4
 74
0
 40
0
 40
0
 40
0
 40
0
 40
1
 40
1
 40
1
 40
1
 10
574.492261
 20
539.414179
 30
0.0
 10
574.490507
 20
538.966433
 30
0.0
 10
574.728369
 20
538.551947
 30
0.0
 10
575.115838
 20
538.327566
 30
0.0
  0
SPLINE
  5
22b
100
AcDbEntity
  8
0
 62
7
100
AcDbSpline
 70
8
 71
3
 72
8
 73
4
 74
0
 40
0
 40
0
 40
0
 40
0
 40
1
 40
1
 40
1
 40
1
 10
575.115838
 20
538.327566
 30
0.0
 10
575.503307
 20
538.103186
 30
0.0
 10
575.981196
 20
538.103186
 30
0.0
 10
576.368665
 20
538.327566
 30
0.0
  0
SPLINE
  5
22c
100
AcDbEntity
  8
0
 62
7
100
AcDbSpline
 70
8
 71
3
 72
8
 73
4
 74
0
 40
0
 40
0
 40
0
 40
0
 40
1
 40
1
 40
1
 40
1
 10
576.368665
 20
538.327566
 30
0.0
 10
576.756134
 20
538.551947
 30
0.0
 10
576.993996
 20
538.966433
 30
0.0
 10
576.992242
 20
539.414179
 30
0.0
  0
LWPOLYLINE
  5
22d
100
AcDbEntity
  8
0
 62
7
100
AcDbPolyline
 90
2
 70
1
 10
585.217750
 20
527.219740
 30
0.0
 10
585.217750
 20
527.219740
 30
0.0
  0
SPLINE
  5
22e
100
AcDbEntity
  8
0
 62
7
100
AcDbSpline
 70
8
 71
3
 72
8
 73
4
 74
0
 40
0
 40
0
 40
0
 40
0
 40
1
 40
1
 40
1
 40
1
 10
562.687216
 20
545.223794
 30
0.0
 10
562.688493
 20
545.492589
 30
0.0
 10
562.545826
 20
545.741514
 30
0.0
 10
562.313253
 20
545.876282
 30
0.0
  0
SPLINE
  5
22f
100
AcDbEntity
  8
0
 62
7
100
AcDbSpline
 70
8
 71
3
 72
8
 73
4
 74
0
 40
0
 40
0
 40
0
 40
0
 40
1
 40
1
 40
1
 40
1
 10
562.313253
 20
545.876282
 30
0.0
 10
562.080680
 20
546.011049
 30
0.0
 10
561.793769
 20
546.011049
 30
0.0
 10
561.561196
 20
545.876282
 30
0.0
  0
SPLINE
  5
230
100
AcDbEntity
  8
0
 62
7
100
AcDbSpline
 70
8
 71
3
 72
8
 73
4
 74
0
 40
0
 40
0
 40
0
 40
0
 40
1
 40
1
 40
1
 40
1
 10
561.561196
 20
545.876282
 30
0.0
 10
561.328623
 20
545.741514
 30
0.0
 10
561.185956
 20
545.492589
 30
0.0
 10
561.187233
 20
545.223794
 30
0.0
  0
SPLINE
  5
231
100
AcDbEntity
  8
0
 62
7
100
AcDbSpline
 70
8
 71
3
 72
8
 73
4
 74
0
 40
0
 40
0
 40
0
 40
0
 40
1
 40
1
 40
1
 40
1
 10
561.187233
 20
545.223794
 30
0.0
 10
561.185956
 20
544.954999
 30
0.0
 10
561.328623
 20
544.706073
 30
0.0
 10
561.561196
 20
544.571306
 30
0.0
  0
SPLINE
  5
232
100
AcDbEntity
  8
0
 62
7
100
AcDbSpline
 70
8
 71
3
 72
8
 73
4
 74
0
 40
0
 40
0
 40
0
 40
0
 40
1
 40
1
 40
1
 40
1
 10
561.561196
 20
544.571306
 30
0.0
 10
561.793769
 20
544.436538
 30
0.0
 10
562.080680
 20
544.436538
 30
0.0
 10
562.313253
 20
544.571306
 30
0.0
  0
SPLINE
  5
233
100
AcDbEntity
  8
0
 62
7
100
AcDbSpline
 70
8
 71
3
 72
8
 73
4
 74
0
 40
0
 40
0
 40
0
 40
0
 40
1
 40
1
 40
1
 40
1
 10
562.313253
 20
544.571306
 30
0.0
 10
562.545826
 20
544.706073
 30
0.0
 10
562.688493
 20
544.954999
 30
0.0
 10
562.687216
 20
545.223794
 30
0.0
  0
LWPOLYLINE
  5
234
100
AcDbEntity
  8
0
 62
7
100
AcDbPolyline
 90
2
 70
1
 10
576.992242
 20
539.414179
 30
0.0
 10
576.992242
 20
539.414179
 30
0.0
  0
SPLINE
  5
235
100
AcDbEntity
  8
0
 62
7
100
AcDbSpline
 70
8
 71
3
 72
8
 73
4
 74
0
 40
0
 40
0
 40
0
 40
0
 40
1
 40
1
 40
1
 40
1
 10
618.387412
 20
490.348821
 30
0.0
 10
618.388123
 20
490.706559
 30
0.0
 10
618.197680
 20
491.037428
 30
0.0
 10
617.887988
 20
491.216503
 30
0.0
  0
SPLINE
  5
236
100
AcDbEntity
  8
0
 62
7
100
AcDbSpline
 70
8
 71
3
 72
8
 73
4
 74
0
 40
0
 40
0
 40
0
 40
0
 40
1
 40
1
 40
1
 40
1
 10
617.887988
 20
491.216503
 30
0.0
 10
617.578295
 20
491.395577
 30
0.0
 10
617.196533
 20
491.395577
 30
0.0
 10
616.886841
 20
491.216503
 30
0.0
  0
SPLINE
  5
237
100
AcDbEntity
  8
0
 62
7
100
AcDbSpline
 70
8
 71
3
 72
8
 73
4
 74
0
 40
0
 40
0
 40
0
 40
0
 40
1
 40
1
 40
1
 40
1
 10
616.886841
 20
491.216503
 30
0.0
 10
616.577148
 20
491.037428
 30
0.0
 10
616.386705
 20
490.706559
 30
0.0
 10
616.387416
 20
490.348821
 30
0.0
  0
SPLINE
  5
238
100
AcDbEntity
  8
0
 62
7
100
AcDbSpline
 70
8
 71
3
 72
8
 73
4
 74
0
 40
0
 40
0
 40
0
 40
0
 40
1
 40
1
 40
1
 40
1
 10
616.387416
 20
490.348821
 30
0.0
 10
616.386705
 20
489.991083
 30
0.0
 10
616.577148
 20
489.660214
 30
0.0
 10
616.886841
 20
489.481139
 30
0.0
  0
SPLINE
  5
239
100
AcDbEntity
  8
0
 62
7
100
AcDbSpline
 70
8
 71
3
 72
8
 73
4
 74
0
 40
0
 40
0
 40
0
 40
0
 40
1
 40
1
 40
1
 40
1
 10
616.886841
 20
489.481139
 30
0.0
 10
617.196533
 20
489.302064
 30
0.0
 10
617.578295
 20
489.302064
 30
0.0
 10
617.887988
 20
489.481139
 30
0.0
  0
SPLINE
  5
23a
100
AcDbEntity
  8
0
 62
7
100
AcDbSpline
 70
8
 71
3
 72
8
 73
4
 74
0
 40
0
 40
0
 40
0
 40
0
 40
1
 40
1
 40
1
 40
1
 10
617.887988
 20
489.481139
 30
0.0
 10
618.197680
 20
489.660214
 30
0.0
 10
618.388123
 20
489.991083
 30
0.0
 10
618.387412
 20
490.348821
 30
0.0
  0
LWPOLYLINE
  5
23b
100
AcDbEntity
  8
0
 62
7
100
AcDbPolyline
 90
2
 70
1
 10
562.687216
 20
545.223794
 30
0.0
 10
562.687216
 20
545.223794
 30
0.0
  0
SPLINE
  5
23c
100
AcDbEntity
  8
0
 62
7
100
AcDbSpline
 70
8
 71
3
 72
8
 73
4
 74
0
 40
0
 40
0
 40
0
 40
0
 40
1
 40
1
 40
1
 40
1
 10
559.255874
 20
530.268350
 30
0.0
 10
559.256585
 20
530.626088
 30
0.0
 10
559.066142
 20
530.956957
 30
0.0
 10
558.756449
 20
531.136032
 30
0.0
  0
SPLINE
  5
23d
100
AcDbEntity
  8
0
 62
7
100
AcDbSpline
 70
8
 71
3
 72
8
 73
4
 74
0
 40
0
 40
0
 40
0
 40
0
 40
1
 40
1
 40
1
 40
1
 10
558.756449
 20
531.136032
 30
0.0
 10
558.446757
 20
531.315106
 30
0.0
 10
558.064994
 20
531.315106
 30
0.0
 10
557.755302
 20
531.136032
 30
0.0
  0
SPLINE
  5
23e
100
AcDbEntity
  8
0
 62
7
100
AcDbSpline
 70
8
 71
3
 72
8
 73
4
 74
0
 40
0
 40
0
 40
0
 40
0
 40
1
 40
1
 40
1
 40
1
 10
557.755302
 20
531.136032
 30
0.0
 10
557.445609
 20
530.956957
 30
0.0
 10
557.255166
 20
530.626088
 30
0.0
 10
557.255878
 20
530.268350
 30
0.0
  0
SPLINE
  5
23f
100
AcDbEntity
  8
0
 62
7
100
AcDbSpline
 70
8
 71
3
 72
8
 73
4
 74
0
 40
0
 40
0
 40
0
 40
0
 40
1
 40
1
 40
1
 40
1
 10
557.255878
 20
530.268350
 30
0.0
 10
557.255166
 20
529.910612
 30
0.0
 10
557.445609
 20
529.579743
 30
0.0
 10
557.755302
 20
529.400668
 30
0.0
  0
SPLINE
  5
240
100
AcDbEntity
  8
0
 62
7
100
AcDbSpline
 70
8
 71
3
 72
8
 73
4
 74
0
 40
0
 40
0
 40
0
 40
0
 40
1
 40
1
 40
1
 40
1
 10
557.755302
 20
529.400668
 30
0.0
 10
558.064994
 20
529.221593
 30
0.0
 10
558.446757
 20
529.221593
 30
0.0
 10
558.756449
 20
529.400668
 30
0.0
  0
SPLINE
  5
241
100
AcDbEntity
  8
0
 62
7
100
AcDbSpline
 70
8
 71
3
 72
8
 73
4
 74
0
 40
0
 40
0
 40
0
 40
0
 40
1
 40
1
 40
1
 40
1
 10
558.756449
 20
529.400668
 30
0.0
 10
559.066142
 20
529.579743
 30
0.0
 10
559.256585
 20
529.910612
 30
0.0
 10
559.255874
 20
530.268350
 30
0.0
  0
LWPOLYLINE
  5
242
100
AcDbEntity
  8
0
 62
7
100
AcDbPolyline
 90
2
 70
1
 10
618.387412
 20
490.348821
 30
0.0
 10
618.387412
 20
490.348821
 30
0.0
  0
SPLINE
  5
243
100
AcDbEntity
  8
0
 62
7
100
AcDbSpline
 70
8
 71
3
 72
8
 73
4
 74
0
 40
0
 40
0
 40
0
 40
0
 40
1
 40
1
 40
1
 40
1
 10
561.671780
 20
472.229725
 30
0.0
 10
561.671780
 20
472.586995
 30
0.0
 10
561.481179
 20
472.917126
 30
0.0
 10
561.171774
 20
473.095761
 30
0.0
  0
SPLINE
  5
244
100
AcDbEntity
  8
0
 62
7
100
AcDbSpline
 70
8
 71
3
 72
8
 73
4
 74
0
 40
0
 40
0
 40
0
 40
0
 40
1
 40
1
 40
1
 40
1
 10
561.171774
 20
473.095761
 30
0.0
 10
560.862370
 20
473.274396
 30
0.0
 10
560.481167
 20
473.274396
 30
0.0
 10
560.171762
 20
473.095761
 30
0.0
  0
SPLINE
  5
245
100
AcDbEntity
  8
0
 62
7
100
AcDbSpline
 70
8
 71
3
 72
8
 73
4
 74
0
 40
0
 40
0
 40
0
 40
0
 40
1
 40
1
 40
1
 40
1
 10
560.171762
 20
473.095761
 30
0.0
 10
559.862357
 20
472.917126
 30
0.0
 10
559.671756
 20
472.586995
 30
0.0
 10
559.671756
 20
472.229725
 30
0.0
  0
SPLINE
  5
246
100
AcDbEntity
  8
0
 62
7
100
AcDbSpline
 70
8
 71
3
 72
8
 73
4
 74
0
 40
0
 40
0
 40
0
 40
0
 40
1
 40
1
 40
1
 40
1
 10
559.671756
 20
472.229725
 30
0.0
 10
559.671756
 20
471.872455
 30
0.0
 10
559.862357
 20
471.542324
 30
0.0
 10
560.171762
 20
471.363689
 30
0.0
  0
SPLINE
  5
247
100
AcDbEntity
  8
0
 62
7
100
AcDbSpline
 70
8
 71
3
 72
8
 73
4
 74
0
 40
0
 40
0
 40
0
 40
0
 40
1
 40
1
 40
1
 40
1
 10
560.171762
 20
471.363689
 30
0.0
 10
560.481167
 20
471.185054
 30
0.0
 10
560.862370
 20
471.185054
 30
0.0
 10
561.171774
 20
471.363689
 30
0.0
  0
SPLINE
  5
248
100
AcDbEntity
  8
0
 62
7
100
AcDbSpline
 70
8
 71
3
 72
8
 73
4
 74
0
 40
0
 40
0
 40
0
 40
0
 40
1
 40
1
 40
1
 40
1
 10
561.171774
 20
471.363689
 30
0.0
 10
561.481179
 20
471.542324
 30
0.0
 10
561.671780
 20
471.872455
 30
0.0
 10
561.671780
 20
472.229725
 30
0.0
  0
LWPOLYLINE
  5
249
100
AcDbEntity
  8
0
 62
7
100
AcDbPolyline
 90
2
 70
1
 10
559.255874
 20
530.268350
 30
0.0
 10
559.255874
 20
530.268350
 30
0.0
  0
SPLINE
  5
24a
100
AcDbEntity
  8
0
 62
7
100
AcDbSpline
 70
8
 71
3
 72
8
 73
4
 74
0
 40
0
 40
0
 40
0
 40
0
 40
1
 40
1
 40
1
 40
1
 10
552.160892
 20
486.725003
 30
0.0
 10
552.162179
 20
486.993805
 30
0.0
 10
552.019514
 20
487.242741
 30
0.0
 10
551.786937
 20
487.377516
 30
0.0
  0
SPLINE
  5
24b
100
AcDbEntity
  8
0
 62
7
100
AcDbSpline
 70
8
 71
3
 72
8
 73
4
 74
0
 40
0
 40
0
 40
0
 40
0
 40
1
 40
1
 40
1
 40
1
 10
551.786937
 20
487.377516
 30
0.0
 10
551.554360
 20
487.512290
 30
0.0
 10
551.267440
 20
487.512290
 30
0.0
 10
551.034863
 20
487.377516
 30
0.0
  0
SPLINE
  5
24c
100
AcDbEntity
  8
0
 62
7
100
AcDbSpline
 70
8
 71
3
 72
8
 73
4
 74
0
 40
0
 40
0
 40
0
 40
0
 40
1
 40
1
 40
1
 40
1
 10
551.034863
 20
487.377516
 30
0.0
 10
550.802286
 20
487.242741
 30
0.0
 10
550.659621
 20
486.993805
 30
0.0
 10
550.660909
 20
486.725003
 30
0.0
  0
SPLINE
  5
24d
100
AcDbEntity
  8
0
 62
7
100
AcDbSpline
 70
8
 71
3
 72
8
 73
4
 74
0
 40
0
 40
0
 40
0
 40
0
 40
1
 40
1
 40
1
 40
1
 10
550.660909
 20
486.725003
 30
0.0
 10
550.659621
 20
486.456201
 30
0.0
 10
550.802286
 20
486.207264
 30
0.0
 10
551.034863
 20
486.072490
 30
0.0
  0
SPLINE
  5
24e
100
AcDbEntity
  8
0
 62
7
100
AcDbSpline
 70
8
 71
3
 72
8
 73
4
 74
0
 40
0
 40
0
 40
0
 40
0
 40
1
 40
1
 40
1
 40
1
 10
551.034863
 20
486.072490
 30
0.0
 10
551.267440
 20
485.937716
 30
0.0
 10
551.554360
 20
485.937716
 30
0.0
 10
551.786937
 20
486.072490
 30
0.0
  0
SPLINE
  5
24f
100
AcDbEntity
  8
0
 62
7
100
AcDbSpline
 70
8
 71
3
 72
8
 73
4
 74
0
 40
0
 40
0
 40
0
 40
0
 40
1
 40
1
 40
1
 40
1
 10
551.786937
 20
486.072490
 30
0.0
 10
552.019514
 20
486.207264
 30
0.0
 10
552.162179
 20
486.456201
 30
0.0
 10
552.160892
 20
486.725003
 30
0.0
  0
LWPOLYLINE
  5
250
100
AcDbEntity
  8
0
 62
7
100
AcDbPolyline
 90
2
 70
1
 10
561.671780
 20
472.229725
 30
0.0
 10
561.671780
 20
472.229725
 30
0.0
  0
SPLINE
  5
251
100
AcDbEntity
  8
0
 62
7
100
AcDbSpline
 70
8
 71
3
 72
8
 73
4
 74
0
 40
0
 40
0
 40
0
 40
0
 40
1
 40
1
 40
1
 40
1
 10
560.541255
 20
518.361516
 30
0.0
 10
560.543009
 20
518.809261
 30
0.0
 10
560.305147
 20
519.223747
 30
0.0
 10
559.917678
 20
519.448128
 30
0.0
  0
SPLINE
  5
252
100
AcDbEntity
  8
0
 62
7
100
AcDbSpline
 70
8
 71
3
 72
8
 73
4
 74
0
 40
0
 40
0
 40
0
 40
0
 40
1
 40
1
 40
1
 40
1
 10
559.917678
 20
519.448128
 30
0.0
 10
559.530209
 20
519.672509
 30
0.0
 10
559.052320
 20
519.672509
 30
0.0
 10
558.664851
 20
519.448128
 30
0.0
  0
SPLINE
  5
253
100
AcDbEntity
  8
0
 62
7
100
AcDbSpline
 70
8
 71
3
 72
8
 73
4
 74
0
 40
0
 40
0
 40
0
 40
0
 40
1
 40
1
 40
1
 40
1
 10
558.664851
 20
519.448128
 30
0.0
 10
558.277382
 20
519.223747
 30
0.0
 10
558.039519
 20
518.809261
 30
0.0
 10
558.041274
 20
518.361516
 30
0.0
  0
SPLINE
  5
254
100
AcDbEntity
  8
0
 62
7
100
AcDbSpline
 70
8
 71
3
 72
8
 73
4
 74
0
 40
0
 40
0
 40
0
 40
0
 40
1
 40
1
 40
1
 40
1
 10
558.041274
 20
518.361516
 30
0.0
 10
558.039519
 20
517.913770
 30
0.0
 10
558.277382
 20
517.499284
 30
0.0
 10
558.664851
 20
517.274903
 30
0.0
  0
SPLINE
  5
255
100
AcDbEntity
  8
0
 62
7
100
AcDbSpline
 70
8
 71
3
 72
8
 73
4
 74
0
 40
0
 40
0
 40
0
 40
0
 40
1
 40
1
 40
1
 40
1
 10
558.664851
 20
517.274903
 30
0.0
 10
559.052320
 20
517.050523
 30
0.0
 10
559.530209
 20
517.050523
 30
0.0
 10
559.917678
 20
517.274903
 30
0.0
  0
SPLINE
  5
256
100
AcDbEntity
  8
0
 62
7
100
AcDbSpline
 70
8
 71
3
 72
8
 73
4
 74
0
 40
0
 40
0
 40
0
 40
0
 40
1
 40
1
 40
1
 40
1
 10
559.917678
 20
517.274903
 30
0.0
 10
560.305147
 20
517.499284
 30
0.0
 10
560.543009
 20
517.913770
 30
0.0
 10
560.541255
 20
518.361516
 30
0.0
  0
LWPOLYLINE
  5
257
100
AcDbEntity
  8
0
 62
7
100
AcDbPolyline
 90
2
 70
1
 10
552.160892
 20
486.725003
 30
0.0
 10
552.160892
 20
486.725003
 30
0.0
  0
SPLINE
  5
258
100
AcDbEntity
  8
0
 62
7
100
AcDbSpline
 70
8
 71
3
 72
8
 73
4
 74
0
 40
0
 40
0
 40
0
 40
0
 40
1
 40
1
 40
1
 40
1
 10
599.490744
 20
537.437949
 30
0.0
 10
599.492498
 20
537.885694
 30
0.0
 10
599.254636
 20
538.300180
 30
0.0
 10
598.867166
 20
538.524561
 30
0.0
  0
SPLINE
  5
259
100
AcDbEntity
  8
0
 62
7
100
AcDbSpline
 70
8
 71
3
 72
8
 73
4
 74
0
 40
0
 40
0
 40
0
 40
0
 40
1
 40
1
 40
1
 40
1
 10
598.867166
 20
538.524561
 30
0.0
 10
598.479697
 20
538.748942
 30
0.0
 10
598.001809
 20
538.748942
 30
0.0
 10
597.614340
 20
538.524561
 30
0.0
  0
SPLINE
  5
25a
100
AcDbEntity
  8
0
 62
7
100
AcDbSpline
 70
8
 71
3
 72
8
 73
4
 74
0
 40
0
 40
0
 40
0
 40
0
 40
1
 40
1
 40
1
 40
1
 10
597.614340
 20
538.524561
 30
0.0
 10
597.226871
 20
538.300180
 30
0.0
 10
596.989008
 20
537.885694
 30
0.0
 10
596.990763
 20
537.437949
 30
0.0
  0
SPLINE
  5
25b
100
AcDbEntity
  8
0
 62
7
100
AcDbSpline
 70
8
 71
3
 72
8
 73
4
 74
0
 40
0
 40
0
 40
0
 40
0
 40
1
 40
1
 40
1
 40
1
 10
596.990763
 20
537.437949
 30
0.0
 10
596.989008
 20
536.990203
 30
0.0
 10
597.226871
 20
536.575717
 30
0.0
 10
597.614340
 20
536.351336
 30
0.0
  0
SPLINE
  5
25c
100
AcDbEntity
  8
0
 62
7
100
AcDbSpline
 70
8
 71
3
 72
8
 73
4
 74
0
 40
0
 40
0
 40
0
 40
0
 40
1
 40
1
 40
1
 40
1
 10
597.614340
 20
536.351336
 30
0.0
 10
598.001809
 20
536.126956
 30
0.0
 10
598.479697
 20
536.126956
 30
0.0
 10
598.867166
 20
536.351336
 30
0.0
  0
SPLINE
  5
25d
100
AcDbEntity
  8
0
 62
7
100
AcDbSpline
 70
8
 71
3
 72
8
 73
4
 74
0
 40
0
 40
0
 40
0
 40
0
 40
1
 40
1
 40
1
 40
1
 10
598.867166
 20
536.351336
 30
0.0
 10
599.254636
 20
536.575717
 30
0.0
 10
599.492498
 20
536.990203
 30
0.0
 10
599.490744
 20
537.437949
 30
0.0
  0
LWPOLYLINE
  5
25e
100
AcDbEntity
  8
0
 62
7
100
AcDbPolyline
 90
2
 70
1
 10
560.541255
 20
518.361516
 30
0.0
 10
560.541255
 20
518.361516
 30
0.0
  0
SPLINE
  5
25f
100
AcDbEntity
  8
0
 62
7
100
AcDbSpline
 70
8
 71
3
 72
8
 73
4
 74
0
 40
0
 40
0
 40
0
 40
0
 40
1
 40
1
 40
1
 40
1
 10
573.731249
 20
477.406609
 30
0.0
 10
573.731249
 20
477.674560
 30
0.0
 10
573.588299
 20
477.922158
 30
0.0
 10
573.356246
 20
478.056133
 30
0.0
  0
SPLINE
  5
260
100
AcDbEntity
  8
0
 62
7
100
AcDbSpline
 70
8
 71
3
 72
8
 73
4
 74
0
 40
0
 40
0
 40
0
 40
0
 40
1
 40
1
 40
1
 40
1
 10
573.356246
 20
478.056133
 30
0.0
 10
573.124194
 20
478.190109
 30
0.0
 10
572.838293
 20
478.190109
 30
0.0
 10
572.606241
 20
478.056133
 30
0.0
  0
SPLINE
  5
261
100
AcDbEntity
  8
0
 62
7
100
AcDbSpline
 70
8
 71
3
 72
8
 73
4
 74
0
 40
0
 40
0
 40
0
 40
0
 40
1
 40
1
 40
1
 40
1
 10
572.606241
 20
478.056133
 30
0.0
 10
572.374188
 20
477.922158
 30
0.0
 10
572.231238
 20
477.674560
 30
0.0
 10
572.231238
 20
477.406609
 30
0.0
  0
SPLINE
  5
262
100
AcDbEntity
  8
0
 62
7
100
AcDbSpline
 70
8
 71
3
 72
8
 73
4
 74
0
 40
0
 40
0
 40
0
 40
0
 40
1
 40
1
 40
1
 40
1
 10
572.231238
 20
477.406609
 30
0.0
 10
572.231238
 20
477.138658
 30
0.0
 10
572.374188
 20
476.891061
 30
0.0
 10
572.606241
 20
476.757085
 30
0.0
  0
SPLINE
  5
263
100
AcDbEntity
  8
0
 62
7
100
AcDbSpline
 70
8
 71
3
 72
8
 73
4
 74
0
 40
0
 40
0
 40
0
 40
0
 40
1
 40
1
 40
1
 40
1
 10
572.606241
 20
476.757085
 30
0.0
 10
572.838293
 20
476.623110
 30
0.0
 10
573.124194
 20
476.623110
 30
0.0
 10
573.356246
 20
476.757085
 30
0.0
  0
SPLINE
  5
264
100
AcDbEntity
  8
0
 62
7
100
AcDbSpline
 70
8
 71
3
 72
8
 73
4
 74
0
 40
0
 40
0
 40
0
 40
0
 40
1
 40
1
 40
1
 40
1
 10
573.356246
 20
476.757085
 30
0.0
 10
573.588299
 20
476.891061
 30
0.0
 10
573.731249
 20
477.138658
 30
0.0
 10
573.731249
 20
477.406609
 30
0.0
  0
LWPOLYLINE
  5
265
100
AcDbEntity
  8
0
 62
7
100
AcDbPolyline
 90
2
 70
1
 10
599.490744
 20
537.437949
 30
0.0
 10
599.490744
 20
537.437949
 30
0.0
  0
SPLINE
  5
266
100
AcDbEntity
  8
0
 62
7
100
AcDbSpline
 70
8
 71
3
 72
8
 73
4
 74
0
 40
0
 40
0
 40
0
 40
0
 40
1
 40
1
 40
1
 40
1
 10
589.722073
 20
482.123327
 30
0.0
 10
589.722073
 20
482.391278
 30
0.0
 10
589.579123
 20
482.638875
 30
0.0
 10
589.347070
 20
482.772851
 30
0.0
  0
SPLINE
  5
267
100
AcDbEntity
  8
0
 62
7
100
AcDbSpline
 70
8
 71
3
 72
8
 73
4
 74
0
 40
0
 40
0
 40
0
 40
0
 40
1
 40
1
 40
1
 40
1
 10
589.347070
 20
482.772851
 30
0.0
 10
589.115018
 20
482.906827
 30
0.0
 10
588.829117
 20
482.906827
 30
0.0
 10
588.597065
 20
482.772851
 30
0.0
  0
SPLINE
  5
268
100
AcDbEntity
  8
0
 62
7
100
AcDbSpline
 70
8
 71
3
 72
8
 73
4
 74
0
 40
0
 40
0
 40
0
 40
0
 40
1
 40
1
 40
1
 40
1
 10
588.597065
 20
482.772851
 30
0.0
 10
588.365012
 20
482.638875
 30
0.0
 10
588.222062
 20
482.391278
 30
0.0
 10
588.222062
 20
482.123327
 30
0.0
  0
SPLINE
  5
269
100
AcDbEntity
  8
0
 62
7
100
AcDbSpline
 70
8
 71
3
 72
8
 73
4
 74
0
 40
0
 40
0
 40
0
 40
0
 40
1
 40
1
 40
1
 40
1
 10
588.222062
 20
482.123327
 30
0.0
 10
588.222062
 20
481.855376
 30
0.0
 10
588.365012
 20
481.607779
 30
0.0
 10
588.597065
 20
481.473803
 30
0.0
  0
SPLINE
  5
26a
100
AcDbEntity
  8
0
 62
7
100
AcDbSpline
 70
8
 71
3
 72
8
 73
4
 74
0
 40
0
 40
0
 40
0
 40
0
 40
1
 40
1
 40
1
 40
1
 10
588.597065
 20
481.473803
 30
0.0
 10
588.829117
 20
481.339828
 30
0.0
 10
589.115018
 20
481.339828
 30
0.0
 10
589.347070
 20
481.473803
 30
0.0
  0
SPLINE
  5
26b
100
AcDbEntity
  8
0
 62
7
100
AcDbSpline
 70
8
 71
3
 72
8
 73
4
 74
0
 40
0
 40
0
 40
0
 40
0
 40
1
 40
1
 40
1
 40
1
 10
589.347070
 20
481.473803
 30
0.0
 10
589.579123
 20
481.607779
 30
0.0
 10
589.722073
 20
481.855376
 30
0.0
 10
589.722073
 20
482.123327
 30
0.0
  0
LWPOLYLINE
  5
26c
100
AcDbEntity
  8
0
 62
7
100
AcDbPolyline
 90
2
 70
1
 10
573.731249
 20
477.406609
 30
0.0
 10
573.731249
 20
477.406609
 30
0.0
  0
SPLINE
  5
26d
100
AcDbEntity
  8
0
 62
7
100
AcDbSpline
 70
8
 71
3
 72
8
 73
4
 74
0
 40
0
 40
0
 40
0
 40
0
 40
1
 40
1
 40
1
 40
1
 10
605.195188
 20
509.273209
 30
0.0
 10
605.196476
 20
509.542012
 30
0.0
 10
605.053811
 20
509.790948
 30
0.0
 10
604.821234
 20
509.925722
 30
0.0
  0
SPLINE
  5
26e
100
AcDbEntity
  8
0
 62
7
100
AcDbSpline
 70
8
 71
3
 72
8
 73
4
 74
0
 40
0
 40
0
 40
0
 40
0
 40
1
 40
1
 40
1
 40
1
 10
604.821234
 20
509.925722
 30
0.0
 10
604.588657
 20
510.060496
 30
0.0
 10
604.301737
 20
510.060496
 30
0.0
 10
604.069160
 20
509.925722
 30
0.0
  0
SPLINE
  5
26f
100
AcDbEntity
  8
0
 62
7
100
AcDbSpline
 70
8
 71
3
 72
8
 73
4
 74
0
 40
0
 40
0
 40
0
 40
0
 40
1
 40
1
 40
1
 40
1
 10
604.069160
 20
509.925722
 30
0.0
 10
603.836583
 20
509.790948
 30
0.0
 10
603.693918
 20
509.542012
 30
0.0
 10
603.695206
 20
509.273209
 30
0.0
  0
SPLINE
  5
270
100
AcDbEntity
  8
0
 62
7
100
AcDbSpline
 70
8
 71
3
 72
8
 73
4
 74
0
 40
0
 40
0
 40
0
 40
0
 40
1
 40
1
 40
1
 40
1
 10
603.695206
 20
509.273209
 30
0.0
 10
603.693918
 20
509.004407
 30
0.0
 10
603.836583
 20
508.755471
 30
0.0
 10
604.069160
 20
508.620697
 30
0.0
  0
SPLINE
  5
271
100
AcDbEntity
  8
0
 62
7
100
AcDbSpline
 70
8
 71
3
 72
8
 73
4
 74
0
 40
0
 40
0
 40
0
 40
0
 40
1
 40
1
 40
1
 40
1
 10
604.069160
 20
508.620697
 30
0.0
 10
604.301737
 20
508.485923
 30
0.0
 10
604.588657
 20
508.485923
 30
0.0
 10
604.821234
 20
508.620697
 30
0.0
  0
SPLINE
  5
272
100
AcDbEntity
  8
0
 62
7
100
AcDbSpline
 70
8
 71
3
 72
8
 73
4
 74
0
 40
0
 40
0
 40
0
 40
0
 40
1
 40
1
 40
1
 40
1
 10
604.821234
 20
508.620697
 30
0.0
 10
605.053811
 20
508.755471
 30
0.0
 10
605.196476
 20
509.004407
 30
0.0
 10
605.195188
 20
509.273209
 30
0.0
  0
LWPOLYLINE
  5
273
100
AcDbEntity
  8
0
 62
7
100
AcDbPolyline
 90
2
 70
1
 10
589.722073
 20
482.123327
 30
0.0
 10
589.722073
 20
482.123327
 30
0.0
  0
SPLINE
  5
274
100
AcDbEntity
  8
0
 62
7
100
AcDbSpline
 70
8
 71
3
 72
8
 73
4
 74
0
 40
0
 40
0
 40
0
 40
0
 40
1
 40
1
 40
1
 40
1
 10
606.863319
 20
530.670996
 30
0.0
 10
606.863319
 20
530.938948
 30
0.0
 10
606.720369
 20
531.186545
 30
0.0
 10
606.488317
 20
531.320520
 30
0.0
  0
SPLINE
  5
275
100
AcDbEntity
  8
0
 62
7
100
AcDbSpline
 70
8
 71
3
 72
8
 73
4
 74
0
 40
0
 40
0
 40
0
 40
0
 40
1
 40
1
 40
1
 40
1
 10
606.488317
 20
531.320520
 30
0.0
 10
606.256264
 20
531.454496
 30
0.0
 10
605.970364
 20
531.454496
 30
0.0
 10
605.738311
 20
531.320520
 30
0.0
  0
SPLINE
  5
276
100
AcDbEntity
  8
0
 62
7
100
AcDbSpline
 70
8
 71
3
 72
8
 73
4
 74
0
 40
0
 40
0
 40
0
 40
0
 40
1
 40
1
 40
1
 40
1
 10
605.738311
 20
531.320520
 30
0.0
 10
605.506258
 20
531.186545
 30
0.0
 10
605.363308
 20
530.938948
 30
0.0
 10
605.363308
 20
530.670996
 30
0.0
  0
SPLINE
  5
277
100
AcDbEntity
  8
0
 62
7
100
AcDbSpline
 70
8
 71
3
 72
8
 73
4
 74
0
 40
0
 40
0
 40
0
 40
0
 40
1
 40
1
 40
1
 40
1
 10
605.363308
 20
530.670996
 30
0.0
 10
605.363308
 20
530.403045
 30
0.0
 10
605.506258
 20
530.155448
 30
0.0
 10
605.738311
 20
530.021472
 30
0.0
  0
SPLINE
  5
278
100
AcDbEntity
  8
0
 62
7
100
AcDbSpline
 70
8
 71
3
 72
8
 73
4
 74
0
 40
0
 40
0
 40
0
 40
0
 40
1
 40
1
 40
1
 40
1
 10
605.738311
 20
530.021472
 30
0.0
 10
605.970364
 20
529.887497
 30
0.0
 10
606.256264
 20
529.887497
 30
0.0
 10
606.488317
 20
530.021472
 30
0.0
  0
SPLINE
  5
279
100
AcDbEntity
  8
0
 62
7
100
AcDbSpline
 70
8
 71
3
 72
8
 73
4
 74
0
 40
0
 40
0
 40
0
 40
0
 40
1
 40
1
 40
1
 40
1
 10
606.488317
 20
530.021472
 30
0.0
 10
606.720369
 20
530.155448
 30
0.0
 10
606.863319
 20
530.403045
 30
0.0
 10
606.863319
 20
530.670996
 30
0.0
  0
LWPOLYLINE
  5
27a
100
AcDbEntity
  8
0
 62
7
100
AcDbPolyline
 90
2
 70
1
 10
605.195188
 20
509.273209
 30
0.0
 10
605.195188
 20
509.273209
 30
0.0
  0
SPLINE
  5
27b
100
AcDbEntity
  8
0
 62
7
100
AcDbSpline
 70
8
 71
3
 72
8
 73
4
 74
0
 40
0
 40
0
 40
0
 40
0
 40
1
 40
1
 40
1
 40
1
 10
551.107836
 20
540.564598
 30
0.0
 10
551.107836
 20
541.011182
 30
0.0
 10
550.869586
 20
541.423842
 30
0.0
 10
550.482833
 20
541.647134
 30
0.0
  0
SPLINE
  5
27c
100
AcDbEntity
  8
0
 62
7
100
AcDbSpline
 70
8
 71
3
 72
8
 73
4
 74
0
 40
0
 40
0
 40
0
 40
0
 40
1
 40
1
 40
1
 40
1
 10
550.482833
 20
541.647134
 30
0.0
 10
550.096081
 20
541.870426
 30
0.0
 10
549.619582
 20
541.870426
 30
0.0
 10
549.232829
 20
541.647134
 30
0.0
  0
SPLINE
  5
27d
100
AcDbEntity
  8
0
 62
7
100
AcDbSpline
 70
8
 71
3
 72
8
 73
4
 74
0
 40
0
 40
0
 40
0
 40
0
 40
1
 40
1
 40
1
 40
1
 10
549.232829
 20
541.647134
 30
0.0
 10
548.846076
 20
541.423842
 30
0.0
 10
548.607827
 20
541.011182
 30
0.0
 10
548.607827
 20
540.564598
 30
0.0
  0
SPLINE
  5
27e
100
AcDbEntity
  8
0
 62
7
100
AcDbSpline
 70
8
 71
3
 72
8
 73
4
 74
0
 40
0
 40
0
 40
0
 40
0
 40
1
 40
1
 40
1
 40
1
 10
548.607827
 20
540.564598
 30
0.0
 10
548.607827
 20
540.118015
 30
0.0
 10
548.846076
 20
539.705354
 30
0.0
 10
549.232829
 20
539.482063
 30
0.0
  0
SPLINE
  5
27f
100
AcDbEntity
  8
0
 62
7
100
AcDbSpline
 70
8
 71
3
 72
8
 73
4
 74
0
 40
0
 40
0
 40
0
 40
0
 40
1
 40
1
 40
1
 40
1
 10
549.232829
 20
539.482063
 30
0.0
 10
549.619582
 20
539.258771
 30
0.0
 10
550.096081
 20
539.258771
 30
0.0
 10
550.482833
 20
539.482063
 30
0.0
  0
SPLINE
  5
280
100
AcDbEntity
  8
0
 62
7
100
AcDbSpline
 70
8
 71
3
 72
8
 73
4
 74
0
 40
0
 40
0
 40
0
 40
0
 40
1
 40
1
 40
1
 40
1
 10
550.482833
 20
539.482063
 30
0.0
 10
550.869586
 20
539.705354
 30
0.0
 10
551.107836
 20
540.118015
 30
0.0
 10
551.107836
 20
540.564598
 30
0.0
  0
LWPOLYLINE
  5
281
100
AcDbEntity
  8
0
 62
7
100
AcDbPolyline
 90
2
 70
1
 10
606.863319
 20
530.670996
 30
0.0
 10
606.863319
 20
530.670996
 30
0.0
  0
SPLINE
  5
282
100
AcDbEntity
  8
0
 62
7
100
AcDbSpline
 70
8
 71
3
 72
8
 73
4
 74
0
 40
0
 40
0
 40
0
 40
0
 40
1
 40
1
 40
1
 40
1
 10
598.102436
 20
503.003428
 30
0.0
 10
598.102436
 20
503.450012
 30
0.0
 10
597.864186
 20
503.862672
 30
0.0
 10
597.477434
 20
504.085964
 30
0.0
  0
SPLINE
  5
283
100
AcDbEntity
  8
0
 62
7
100
AcDbSpline
 70
8
 71
3
 72
8
 73
4
 74
0
 40
0
 40
0
 40
0
 40
0
 40
1
 40
1
 40
1
 40
1
 10
597.477434
 20
504.085964
 30
0.0
 10
597.090681
 20
504.309256
 30
0.0
 10
596.614182
 20
504.309256
 30
0.0
 10
596.227429
 20
504.085964
 30
0.0
  0
SPLINE
  5
284
100
AcDbEntity
  8
0
 62
7
100
AcDbSpline
 70
8
 71
3
 72
8
 73
4
 74
0
 40
0
 40
0
 40
0
 40
0
 40
1
 40
1
 40
1
 40
1
 10
596.227429
 20
504.085964
 30
0.0
 10
595.840676
 20
503.862672
 30
0.0
 10
595.602427
 20
503.450012
 30
0.0
 10
595.602427
 20
503.003428
 30
0.0
  0
SPLINE
  5
285
100
AcDbEntity
  8
0
 62
7
100
AcDbSpline
 70
8
 71
3
 72
8
 73
4
 74
0
 40
0
 40
0
 40
0
 40
0
 40
1
 40
1
 40
1
 40
1
 10
595.602427
 20
503.003428
 30
0.0
 10
595.602427
 20
502.556845
 30
0.0
 10
595.840676
 20
502.144184
 30
0.0
 10
596.227429
 20
501.920893
 30
0.0
  0
SPLINE
  5
286
100
AcDbEntity
  8
0
 62
7
100
AcDbSpline
 70
8
 71
3
 72
8
 73
4
 74
0
 40
0
 40
0
 40
0
 40
0
 40
1
 40
1
 40
1
 40
1
 10
596.227429
 20
501.920893
 30
0.0
 10
596.614182
 20
501.697601
 30
0.0
 10
597.090681
 20
501.697601
 30
0.0
 10
597.477434
 20
501.920893
 30
0.0
  0
SPLINE
  5
287
100
AcDbEntity
  8
0
 62
7
100
AcDbSpline
 70
8
 71
3
 72
8
 73
4
 74
0
 40
0
 40
0
 40
0
 40
0
 40
1
 40
1
 40
1
 40
1
 10
597.477434
 20
501.920893
 30
0.0
 10
597.864186
 20
502.144184
 30
0.0
 10
598.102436
 20
502.556845
 30
0.0
 10
598.102436
 20
503.003428
 30
0.0
  0
LWPOLYLINE
  5
288
100
AcDbEntity
  8
0
 62
7
100
AcDbPolyline
 90
2
 70
1
 10
551.107836
 20
540.564598
 30
0.0
 10
551.107836
 20
540.564598
 30
0.0
  0
SPLINE
  5
289
100
AcDbEntity
  8
0
 62
7
100
AcDbSpline
 70
8
 71
3
 72
8
 73
4
 74
0
 40
0
 40
0
 40
0
 40
0
 40
1
 40
1
 40
1
 40
1
 10
616.066642
 20
514.277532
 30
0.0
 10
616.067920
 20
514.546327
 30
0.0
 10
615.925252
 20
514.795252
 30
0.0
 10
615.692679
 20
514.930019
 30
0.0
  0
SPLINE
  5
28a
100
AcDbEntity
  8
0
 62
7
100
AcDbSpline
 70
8
 71
3
 72
8
 73
4
 74
0
 40
0
 40
0
 40
0
 40
0
 40
1
 40
1
 40
1
 40
1
 10
615.692679
 20
514.930019
 30
0.0
 10
615.460106
 20
515.064787
 30
0.0
 10
615.173196
 20
515.064787
 30
0.0
 10
614.940623
 20
514.930019
 30
0.0
  0
SPLINE
  5
28b
100
AcDbEntity
  8
0
 62
7
100
AcDbSpline
 70
8
 71
3
 72
8
 73
4
 74
0
 40
0
 40
0
 40
0
 40
0
 40
1
 40
1
 40
1
 40
1
 10
614.940623
 20
514.930019
 30
0.0
 10
614.708050
 20
514.795252
 30
0.0
 10
614.565382
 20
514.546327
 30
0.0
 10
614.566660
 20
514.277532
 30
0.0
  0
SPLINE
  5
28c
100
AcDbEntity
  8
0
 62
7
100
AcDbSpline
 70
8
 71
3
 72
8
 73
4
 74
0
 40
0
 40
0
 40
0
 40
0
 40
1
 40
1
 40
1
 40
1
 10
614.566660
 20
514.277532
 30
0.0
 10
614.565382
 20
514.008736
 30
0.0
 10
614.708050
 20
513.759811
 30
0.0
 10
614.940623
 20
513.625044
 30
0.0
  0
SPLINE
  5
28d
100
AcDbEntity
  8
0
 62
7
100
AcDbSpline
 70
8
 71
3
 72
8
 73
4
 74
0
 40
0
 40
0
 40
0
 40
0
 40
1
 40
1
 40
1
 40
1
 10
614.940623
 20
513.625044
 30
0.0
 10
615.173196
 20
513.490276
 30
0.0
 10
615.460106
 20
513.490276
 30
0.0
 10
615.692679
 20
513.625044
 30
0.0
  0
SPLINE
  5
28e
100
AcDbEntity
  8
0
 62
7
100
AcDbSpline
 70
8
 71
3
 72
8
 73
4
 74
0
 40
0
 40
0
 40
0
 40
0
 40
1
 40
1
 40
1
 40
1
 10
615.692679
 20
513.625044
 30
0.0
 10
615.925252
 20
513.759811
 30
0.0
 10
616.067920
 20
514.008736
 30
0.0
 10
616.066642
 20
514.277532
 30
0.0
  0
LWPOLYLINE
  5
28f
100
AcDbEntity
  8
0
 62
7
100
AcDbPolyline
 90
2
 70
1
 10
598.102436
 20
503.003428
 30
0.0
 10
598.102436
 20
503.003428
 30
0.0
  0
SPLINE
  5
290
100
AcDbEntity
  8
0
 62
7
100
AcDbSpline
 70
8
 71
3
 72
8
 73
4
 74
0
 40
0
 40
0
 40
0
 40
0
 40
1
 40
1
 40
1
 40
1
 10
601.476262
 20
488.795755
 30
0.0
 10
601.476973
 20
489.153493
 30
0.0
 10
601.286530
 20
489.484362
 30
0.0
 10
600.976837
 20
489.663436
 30
0.0
  0
SPLINE
  5
291
100
AcDbEntity
  8
0
 62
7
100
AcDbSpline
 70
8
 71
3
 72
8
 73
4
 74
0
 40
0
 40
0
 40
0
 40
0
 40
1
 40
1
 40
1
 40
1
 10
600.976837
 20
489.663436
 30
0.0
 10
600.667145
 20
489.842511
 30
0.0
 10
600.285382
 20
489.842511
 30
0.0
 10
599.975690
 20
489.663436
 30
0.0
  0
SPLINE
  5
292
100
AcDbEntity
  8
0
 62
7
100
AcDbSpline
 70
8
 71
3
 72
8
 73
4
 74
0
 40
0
 40
0
 40
0
 40
0
 40
1
 40
1
 40
1
 40
1
 10
599.975690
 20
489.663436
 30
0.0
 10
599.665997
 20
489.484362
 30
0.0
 10
599.475554
 20
489.153493
 30
0.0
 10
599.476266
 20
488.795755
 30
0.0
  0
SPLINE
  5
293
100
AcDbEntity
  8
0
 62
7
100
AcDbSpline
 70
8
 71
3
 72
8
 73
4
 74
0
 40
0
 40
0
 40
0
 40
0
 40
1
 40
1
 40
1
 40
1
 10
599.476266
 20
488.795755
 30
0.0
 10
599.475554
 20
488.438016
 30
0.0
 10
599.665997
 20
488.107148
 30
0.0
 10
599.975690
 20
487.928073
 30
0.0
  0
SPLINE
  5
294
100
AcDbEntity
  8
0
 62
7
100
AcDbSpline
 70
8
 71
3
 72
8
 73
4
 74
0
 40
0
 40
0
 40
0
 40
0
 40
1
 40
1
 40
1
 40
1
 10
599.975690
 20
487.928073
 30
0.0
 10
600.285382
 20
487.748998
 30
0.0
 10
600.667145
 20
487.748998
 30
0.0
 10
600.976837
 20
487.928073
 30
0.0
  0
SPLINE
  5
295
100
AcDbEntity
  8
0
 62
7
100
AcDbSpline
 70
8
 71
3
 72
8
 73
4
 74
0
 40
0
 40
0
 40
0
 40
0
 40
1
 40
1
 40
1
 40
1
 10
600.976837
 20
487.928073
 30
0.0
 10
601.286530
 20
488.107148
 30
0.0
 10
601.476973
 20
488.438016
 30
0.0
 10
601.476262
 20
488.795755
 30
0.0
  0
LWPOLYLINE
  5
296
100
AcDbEntity
  8
0
 62
7
100
AcDbPolyline
 90
2
 70
1
 10
616.066642
 20
514.277532
 30
0.0
 10
616.066642
 20
514.277532
 30
0.0
  0
SPLINE
  5
297
100
AcDbEntity
  8
0
 62
7
100
AcDbSpline
 70
8
 71
3
 72
8
 73
4
 74
0
 40
0
 40
0
 40
0
 40
0
 40
1
 40
1
 40
1
 40
1
 10
614.188369
 20
525.264031
 30
0.0
 10
614.189105
 20
525.621786
 30
0.0
 10
613.998668
 20
525.952680
 30
0.0
 10
613.688965
 20
526.131770
 30
0.0
  0
SPLINE
  5
298
100
AcDbEntity
  8
0
 62
7
100
AcDbSpline
 70
8
 71
3
 72
8
 73
4
 74
0
 40
0
 40
0
 40
0
 40
0
 40
1
 40
1
 40
1
 40
1
 10
613.688965
 20
526.131770
 30
0.0
 10
613.379262
 20
526.310861
 30
0.0
 10
612.997480
 20
526.310861
 30
0.0
 10
612.687777
 20
526.131770
 30
0.0
  0
SPLINE
  5
299
100
AcDbEntity
  8
0
 62
7
100
AcDbSpline
 70
8
 71
3
 72
8
 73
4
 74
0
 40
0
 40
0
 40
0
 40
0
 40
1
 40
1
 40
1
 40
1
 10
612.687777
 20
526.131770
 30
0.0
 10
612.378074
 20
525.952680
 30
0.0
 10
612.187637
 20
525.621786
 30
0.0
 10
612.188373
 20
525.264031
 30
0.0
  0
SPLINE
  5
29a
100
AcDbEntity
  8
0
 62
7
100
AcDbSpline
 70
8
 71
3
 72
8
 73
4
 74
0
 40
0
 40
0
 40
0
 40
0
 40
1
 40
1
 40
1
 40
1
 10
612.188373
 20
525.264031
 30
0.0
 10
612.187637
 20
524.906276
 30
0.0
 10
612.378074
 20
524.575381
 30
0.0
 10
612.687777
 20
524.396291
 30
0.0
  0
SPLINE
  5
29b
100
AcDbEntity
  8
0
 62
7
100
AcDbSpline
 70
8
 71
3
 72
8
 73
4
 74
0
 40
0
 40
0
 40
0
 40
0
 40
1
 40
1
 40
1
 40
1
 10
612.687777
 20
524.396291
 30
0.0
 10
612.997480
 20
524.217200
 30
0.0
 10
613.379262
 20
524.217200
 30
0.0
 10
613.688965
 20
524.396291
 30
0.0
  0
SPLINE
  5
29c
100
AcDbEntity
  8
0
 62
7
100
AcDbSpline
 70
8
 71
3
 72
8
 73
4
 74
0
 40
0
 40
0
 40
0
 40
0
 40
1
 40
1
 40
1
 40
1
 10
613.688965
 20
524.396291
 30
0.0
 10
613.998668
 20
524.575381
 30
0.0
 10
614.189105
 20
524.906276
 30
0.0
 10
614.188369
 20
525.264031
 30
0.0
  0
LWPOLYLINE
  5
29d
100
AcDbEntity
  8
0
 62
7
100
AcDbPolyline
 90
2
 70
1
 10
601.476262
 20
488.795755
 30
0.0
 10
601.476262
 20
488.795755
 30
0.0
  0
SPLINE
  5
29e
100
AcDbEntity
  8
0
 62
7
100
AcDbSpline
 70
8
 71
3
 72
8
 73
4
 74
0
 40
0
 40
0
 40
0
 40
0
 40
1
 40
1
 40
1
 40
1
 10
589.837107
 20
505.131703
 30
0.0
 10
589.837107
 20
505.399654
 30
0.0
 10
589.694156
 20
505.647251
 30
0.0
 10
589.462104
 20
505.781227
 30
0.0
  0
SPLINE
  5
29f
100
AcDbEntity
  8
0
 62
7
100
AcDbSpline
 70
8
 71
3
 72
8
 73
4
 74
0
 40
0
 40
0
 40
0
 40
0
 40
1
 40
1
 40
1
 40
1
 10
589.462104
 20
505.781227
 30
0.0
 10
589.230051
 20
505.915202
 30
0.0
 10
588.944151
 20
505.915202
 30
0.0
 10
588.712098
 20
505.781227
 30
0.0
  0
SPLINE
  5
2a0
100
AcDbEntity
  8
0
 62
7
100
AcDbSpline
 70
8
 71
3
 72
8
 73
4
 74
0
 40
0
 40
0
 40
0
 40
0
 40
1
 40
1
 40
1
 40
1
 10
588.712098
 20
505.781227
 30
0.0
 10
588.480046
 20
505.647251
 30
0.0
 10
588.337096
 20
505.399654
 30
0.0
 10
588.337096
 20
505.131703
 30
0.0
  0
SPLINE
  5
2a1
100
AcDbEntity
  8
0
 62
7
100
AcDbSpline
 70
8
 71
3
 72
8
 73
4
 74
0
 40
0
 40
0
 40
0
 40
0
 40
1
 40
1
 40
1
 40
1
 10
588.337096
 20
505.131703
 30
0.0
 10
588.337096
 20
504.863752
 30
0.0
 10
588.480046
 20
504.616154
 30
0.0
 10
588.712098
 20
504.482179
 30
0.0
  0
SPLINE
  5
2a2
100
AcDbEntity
  8
0
 62
7
100
AcDbSpline
 70
8
 71
3
 72
8
 73
4
 74
0
 40
0
 40
0
 40
0
 40
0
 40
1
 40
1
 40
1
 40
1
 10
588.712098
 20
504.482179
 30
0.0
 10
588.944151
 20
504.348203
 30
0.0
 10
589.230051
 20
504.348203
 30
0.0
 10
589.462104
 20
504.482179
 30
0.0
  0
SPLINE
  5
2a3
100
AcDbEntity
  8
0
 62
7
100
AcDbSpline
 70
8
 71
3
 72
8
 73
4
 74
0
 40
0
 40
0
 40
0
 40
0
 40
1
 40
1
 40
1
 40
1
 10
589.462104
 20
504.482179
 30
0.0
 10
589.694156
 20
504.616154
 30
0.0
 10
589.837107
 20
504.863752
 30
0.0
 10
589.837107
 20
505.131703
 30
0.0
  0
LWPOLYLINE
  5
2a4
100
AcDbEntity
  8
0
 62
7
100
AcDbPolyline
 90
2
 70
1
 10
614.188369
 20
525.264031
 30
0.0
 10
614.188369
 20
525.264031
 30
0.0
  0
SPLINE
  5
2a5
100
AcDbEntity
  8
0
 62
7
100
AcDbSpline
 70
8
 71
3
 72
8
 73
4
 74
0
 40
0
 40
0
 40
0
 40
0
 40
1
 40
1
 40
1
 40
1
 10
598.120131
 20
475.508419
 30
0.0
 10
598.120131
 20
475.776371
 30
0.0
 10
597.977181
 20
476.023968
 30
0.0
 10
597.745129
 20
476.157943
 30
0.0
  0
SPLINE
  5
2a6
100
AcDbEntity
  8
0
 62
7
100
AcDbSpline
 70
8
 71
3
 72
8
 73
4
 74
0
 40
0
 40
0
 40
0
 40
0
 40
1
 40
1
 40
1
 40
1
 10
597.745129
 20
476.157943
 30
0.0
 10
597.513076
 20
476.291919
 30
0.0
 10
597.227176
 20
476.291919
 30
0.0
 10
596.995123
 20
476.157943
 30
0.0
  0
SPLINE
  5
2a7
100
AcDbEntity
  8
0
 62
7
100
AcDbSpline
 70
8
 71
3
 72
8
 73
4
 74
0
 40
0
 40
0
 40
0
 40
0
 40
1
 40
1
 40
1
 40
1
 10
596.995123
 20
476.157943
 30
0.0
 10
596.763070
 20
476.023968
 30
0.0
 10
596.620120
 20
475.776371
 30
0.0
 10
596.620120
 20
475.508419
 30
0.0
  0
SPLINE
  5
2a8
100
AcDbEntity
  8
0
 62
7
100
AcDbSpline
 70
8
 71
3
 72
8
 73
4
 74
0
 40
0
 40
0
 40
0
 40
0
 40
1
 40
1
 40
1
 40
1
 10
596.620120
 20
475.508419
 30
0.0
 10
596.620120
 20
475.094203
 30
0.0
 10
596.955909
 20
474.758414
 30
0.0
 10
597.370126
 20
474.758414
 30
0.0
  0
SPLINE
  5
2a9
100
AcDbEntity
  8
0
 62
7
100
AcDbSpline
 70
8
 71
3
 72
8
 73
4
 74
0
 40
0
 40
0
 40
0
 40
0
 40
1
 40
1
 40
1
 40
1
 10
597.370126
 20
474.758414
 30
0.0
 10
597.784342
 20
474.758414
 30
0.0
 10
598.120131
 20
475.094203
 30
0.0
 10
598.120131
 20
475.508419
 30
0.0
  0
LWPOLYLINE
  5
2aa
100
AcDbEntity
  8
0
 62
7
100
AcDbPolyline
 90
2
 70
1
 10
589.837107
 20
505.131703
 30
0.0
 10
589.837107
 20
505.131703
 30
0.0
  0
SPLINE
  5
2ab
100
AcDbEntity
  8
0
 62
7
100
AcDbSpline
 70
8
 71
3
 72
8
 73
4
 74
0
 40
0
 40
0
 40
0
 40
0
 40
1
 40
1
 40
1
 40
1
 10
531.457069
 20
548.938273
 30
0.0
 10
531.457069
 20
548.938273
 30
0.0
 10
536.457059
 20
548.938578
 30
0.0
 10
536.457059
 20
548.938578
 30
0.0
  0
SPLINE
  5
2ac
100
AcDbEntity
  8
0
 62
7
100
AcDbSpline
 70
8
 71
3
 72
8
 73
4
 74
0
 40
0
 40
0
 40
0
 40
0
 40
1
 40
1
 40
1
 40
1
 10
536.457059
 20
548.938578
 30
0.0
 10
537.783145
 20
548.938573
 30
0.0
 10
539.054919
 20
549.465355
 30
0.0
 10
539.992604
 20
550.403037
 30
0.0
  0
SPLINE
  5
2ad
100
AcDbEntity
  8
0
 62
7
100
AcDbSpline
 70
8
 71
3
 72
8
 73
4
 74
0
 40
0
 40
0
 40
0
 40
0
 40
1
 40
1
 40
1
 40
1
 10
539.992604
 20
550.403037
 30
0.0
 10
540.930290
 20
551.340719
 30
0.0
 10
541.457077
 20
552.612491
 30
0.0
 10
541.457078
 20
553.938576
 30
0.0
  0
LWPOLYLINE
  5
2ae
100
AcDbEntity
  8
0
 62
7
100
AcDbPolyline
 90
2
 70
1
 10
598.120131
 20
475.508419
 30
0.0
 10
598.120131
 20
475.508419
 30
0.0
  0
LWPOLYLINE
  5
2af
100
AcDbEntity
  8
0
 62
7
100
AcDbPolyline
 90
7
 70
1
 10
541.457078
 20
553.938576
 30
0.0
 10
541.457078
 20
558.938574
 30
0.0
 10
631.457067
 20
558.938574
 30
0.0
 10
631.457067
 20
458.938577
 30
0.0
 10
531.457069
 20
458.938577
 30
0.0
 10
531.457069
 20
548.938273
 30
0.0
 10
531.457069
 20
548.938273
 30
0.0
  0
LWPOLYLINE
  5
2b0
100
AcDbEntity
  8
0
 62
7
100
AcDbPolyline
 90
6
 70
1
 10
531.457069
 20
453.887062
 30
0.0
 10
611.457079
 20
453.887062
 30
0.0
 10
611.457079
 20
433.887062
 30
0.0
 10
531.457069
 20
433.887062
 30
0.0
 10
531.457069
 20
453.887062
 30
0.0
 10
531.457069
 20
453.887062
 30
0.0
  0
LWPOLYLINE
  5
2b1
100
AcDbEntity
  8
0
 62
7
100
AcDbPolyline
 90
6
 70
1
 10
531.457069
 20
430.016974
 30
0.0
 10
611.457079
 20
430.016974
 30
0.0
 10
611.457079
 20
410.016972
 30
0.0
 10
531.457069
 20
410.016972
 30
0.0
 10
531.457069
 20
430.016974
 30
0.0
 10
531.457069
 20
430.016974
 30
0.0
  0
LWPOLYLINE
  5
2b2
100
AcDbEntity
  8
0
 62
7
100
AcDbPolyline
 90
6
 70
1
 10
607.457058
 20
407.473879
 30
0.0
 10
607.457058
 20
387.473879
 30
0.0
 10
531.457069
 20
387.473879
 30
0.0
 10
531.457069
 20
407.473879
 30
0.0
 10
607.457058
 20
407.473879
 30
0.0
 10
607.457058
 20
407.473879
 30
0.0
  0
LWPOLYLINE
  5
2b3
100
AcDbEntity
  8
0
 62
7
100
AcDbPolyline
 90
6
 70
1
 10
531.457069
 20
365.141748
 30
0.0
 10
531.457069
 20
385.141747
 30
0.0
 10
607.457058
 20
385.141747
 30
0.0
 10
607.457058
 20
365.141748
 30
0.0
 10
531.457069
 20
365.141748
 30
0.0
 10
531.457069
 20
365.141748
 30
0.0
  0
LWPOLYLINE
  5
2b4
100
AcDbEntity
  8
0
 62
7
100
AcDbPolyline
 90
6
 70
1
 10
531.457069
 20
324.083852
 30
0.0
 10
531.457069
 20
364.083855
 30
0.0
 10
631.457067
 20
364.083855
 30
0.0
 10
631.457067
 20
324.083852
 30
0.0
 10
531.457069
 20
324.083852
 30
0.0
 10
531.457069
 20
324.083852
 30
0.0
  0
LWPOLYLINE
  5
2b5
100
AcDbEntity
  8
0
 62
7
100
AcDbPolyline
 90
6
 70
1
 10
614.634421
 20
382.141747
 30
0.0
 10
610.634429
 20
382.141747
 30
0.0
 10
610.634429
 20
385.141747
 30
0.0
 10
614.634421
 20
385.141747
 30
0.0
 10
614.634421
 20
382.141747
 30
0.0
 10
614.634421
 20
382.141747
 30
0.0
  0
LWPOLYLINE
  5
2b6
100
AcDbEntity
  8
0
 62
7
100
AcDbPolyline
 90
6
 70
1
 10
614.634421
 20
377.228459
 30
0.0
 10
610.634429
 20
377.228459
 30
0.0
 10
610.634429
 20
380.228459
 30
0.0
 10
614.634421
 20
380.228459
 30
0.0
 10
614.634421
 20
377.228459
 30
0.0
 10
614.634421
 20
377.228459
 30
0.0
  0
LWPOLYLINE
  5
2b7
100
AcDbEntity
  8
0
 62
7
100
AcDbPolyline
 90
6
 70
1
 10
614.634421
 20
372.440074
 30
0.0
 10
610.634429
 20
372.440074
 30
0.0
 10
610.634429
 20
375.440073
 30
0.0
 10
614.634421
 20
375.440073
 30
0.0
 10
614.634421
 20
372.440074
 30
0.0
 10
614.634421
 20
372.440074
 30
0.0
  0
LWPOLYLINE
  5
2b8
100
AcDbEntity
  8
0
 62
7
100
AcDbPolyline
 90
6
 70
1
 10
614.634421
 20
370.405042
 30
0.0
 10
614.634421
 20
367.405043
 30
0.0
 10
610.634429
 20
367.405043
 30
0.0
 10
610.634429
 20
370.405042
 30
0.0
 10
614.634421
 20
370.405042
 30
0.0
 10
614.634421
 20
370.405042
 30
0.0
  0
LWPOLYLINE
  5
2b9
100
AcDbEntity
  8
0
 62
7
100
AcDbPolyline
 90
6
 70
1
 10
531.756027
 20
242.417787
 30
0.0
 10
531.756027
 20
322.417784
 30
0.0
 10
533.756023
 20
322.417784
 30
0.0
 10
533.756023
 20
242.417787
 30
0.0
 10
531.756027
 20
242.417787
 30
0.0
 10
531.756027
 20
242.417787
 30
0.0
  0
LWPOLYLINE
  5
2ba
100
AcDbEntity
  8
0
 62
7
100
AcDbPolyline
 90
6
 70
1
 10
537.714331
 20
322.417784
 30
0.0
 10
537.714331
 20
242.417787
 30
0.0
 10
535.714335
 20
242.417787
 30
0.0
 10
535.714335
 20
322.417784
 30
0.0
 10
537.714331
 20
322.417784
 30
0.0
 10
537.714331
 20
322.417784
 30
0.0
  0
LWPOLYLINE
  5
2bb
100
AcDbEntity
  8
0
 62
7
100
AcDbPolyline
 90
6
 70
1
 10
549.724721
 20
322.417784
 30
0.0
 10
549.724721
 20
222.917786
 30
0.0
 10
539.724713
 20
222.917786
 30
0.0
 10
539.724713
 20
322.417784
 30
0.0
 10
549.724721
 20
322.417784
 30
0.0
 10
549.724721
 20
322.417784
 30
0.0
  0
LWPOLYLINE
  5
2bc
100
AcDbEntity
  8
0
 62
7
100
AcDbPolyline
 90
6
 70
1
 10
551.390538
 20
322.417784
 30
0.0
 10
561.390546
 20
322.417784
 30
0.0
 10
561.390546
 20
222.917786
 30
0.0
 10
551.390538
 20
222.917786
 30
0.0
 10
551.390538
 20
322.417784
 30
0.0
 10
551.390538
 20
322.417784
 30
0.0
  0
LWPOLYLINE
  5
2bd
100
AcDbEntity
  8
0
 62
7
100
AcDbPolyline
 90
6
 70
1
 10
562.231060
 20
297.417786
 30
0.0
 10
562.231060
 20
322.417784
 30
0.0
 10
564.231056
 20
322.417784
 30
0.0
 10
564.231056
 20
297.417786
 30
0.0
 10
562.231060
 20
297.417786
 30
0.0
 10
562.231060
 20
297.417786
 30
0.0
  0
ENDSEC
  0
SECTION
  2
OBJECTS
  0
DICTIONARY
  5
C
330
0
100
AcDbDictionary
  3
ACAD_GROUP
350
D
  3
ACAD_MLINESTYLE
350
17
  0
DICTIONARY
  5
D
330
C
100
AcDbDictionary
  0
DICTIONARY
  5
1A
330
C
100
AcDbDictionary
  0
DICTIONARY
  5
17
330
C
100
AcDbDictionary
  3
STANDARD
350
18
  0
DICTIONARY
  5
19
330
C
100
AcDbDictionary
  0
ENDSEC
  0
EOF
