<?xml version="1.0" encoding="UTF-8" standalone="no"?>
<svg
   xmlns:dc="http://purl.org/dc/elements/1.1/"
   xmlns:cc="http://creativecommons.org/ns#"
   xmlns:rdf="http://www.w3.org/1999/02/22-rdf-syntax-ns#"
   xmlns:svg="http://www.w3.org/2000/svg"
   xmlns="http://www.w3.org/2000/svg"
   xmlns:sodipodi="http://sodipodi.sourceforge.net/DTD/sodipodi-0.dtd"
   xmlns:inkscape="http://www.inkscape.org/namespaces/inkscape"
   width="900mm"
   height="600mm"
   id="svg2"
   version="1.1"
   inkscape:version="0.91 r13725"
   sodipodi:docname="opentempescope_part1_550x320.svg">
  <metadata
     id="metadata52">
    <rdf:RDF>
      <cc:Work
         rdf:about="">
        <dc:format>image/svg+xml</dc:format>
        <dc:type
           rdf:resource="http://purl.org/dc/dcmitype/StillImage" />
        <dc:title></dc:title>
      </cc:Work>
    </rdf:RDF>
  </metadata>
  <sodipodi:namedview
     pagecolor="#ffffff"
     bordercolor="#666666"
     borderopacity="1"
     objecttolerance="10"
     gridtolerance="10"
     guidetolerance="10"
     inkscape:pageopacity="0"
     inkscape:pageshadow="2"
     inkscape:window-width="2294"
     inkscape:window-height="1148"
     id="namedview50"
     showgrid="false"
     inkscape:document-units="mm"
     units="mm"
     inkscape:zoom="0.74765404"
     inkscape:cx="564.06124"
     inkscape:cy="1451.7772"
     inkscape:window-x="0"
     inkscape:window-y="0"
     inkscape:window-maximized="0"
     inkscape:current-layer="g20" />
  <desc
     id="desc4">/Users/sergio/gopath/src/github.com/sergio-daniels/tempescope/hardware/OpenTempescope/opentempescope_part1_550x320.dxf - scale = 1.000000, origin = (0.000000, 0.000000), auto = False</desc>
  <defs
     id="defs6">
    <marker
       id="DistanceX"
       orient="auto"
       refX="0"
       refY="0"
       style="overflow:visible">
      <path
         d="M 3,-3 -3,3 M 0,-5 0,5"
         style="stroke:#000000;stroke-width:0.5"
         id="path9"
         inkscape:connector-curvature="0" />
    </marker>
    <pattern
       height="8"
       id="Hatch"
       patternUnits="userSpaceOnUse"
       width="8"
       x="0"
       y="0">
      <path
         d="M8 4 l-4,4"
         linecap="square"
         stroke="#000000"
         stroke-width="0.25"
         id="path12" />
      <path
         d="M6 2 l-4,4"
         linecap="square"
         stroke="#000000"
         stroke-width="0.25"
         id="path14" />
      <path
         d="M4 0 l-4,4"
         linecap="square"
         stroke="#000000"
         stroke-width="0.25"
         id="path16" />
    </pattern>
    <symbol
       id="*MODEL_SPACE" />
    <symbol
       id="*PAPER_SPACE" />
  </defs>
  <g
     inkscape:groupmode="layer"
     inkscape:label="0"
     id="g20"
     transform="translate(0,1073.622)">
    <path
       d="M 61.389622,237.07811 A 17.362205,17.362205 0 1 0 26.665212,237.07811 17.362205,17.362205 0 0 0 61.389622,237.07811 Z"
       style="fill:none;stroke:#000000;stroke-width:0.63779527;stroke-miterlimit:4;stroke-dasharray:none"
       id="path22"
       inkscape:connector-curvature="0" />
    <path
       d="M 220.83844,-5.2176979 A 5.314961,5.314961 0 1 0 210.20852,-5.2176979 5.314961,5.314961 0 1 0 220.83844,-5.2176979 Z"
       style="fill:none;stroke:#000000;stroke-width:0.63779527;stroke-miterlimit:4;stroke-dasharray:none"
       id="path24"
       inkscape:connector-curvature="0" />
    <path
       d="M 291.70458,-40.650768 A 40.748032,40.748032 0 1 0 210.20852,-40.650768 40.748032,40.748032 0 1 0 291.70458,-40.650768 Z"
       style="fill:none;stroke:#000000;stroke-width:0.63779527;stroke-miterlimit:4;stroke-dasharray:none"
       id="path26"
       inkscape:connector-curvature="0" />
    <path
       d="M 291.70458,-76.083838 A 5.314961,5.314961 0 1 0 281.07466,-76.083838 5.314961,5.314961 0 1 0 291.70458,-76.083838 Z"
       style="fill:none;stroke:#000000;stroke-width:0.63779527;stroke-miterlimit:4;stroke-dasharray:none"
       id="path28"
       inkscape:connector-curvature="0" />
    <path
       d="M 291.70458,-5.2176979 A 5.314961,5.314961 0 1 0 281.07466,-5.2176979 5.314961,5.314961 0 1 0 291.70458,-5.2176979 Z"
       style="fill:none;stroke:#000000;stroke-width:0.63779527;stroke-miterlimit:4;stroke-dasharray:none"
       id="path30"
       inkscape:connector-curvature="0" />
    <path
       d="M 220.83844,-76.083838 A 5.314961,5.314961 0 1 0 210.20852,-76.083838 5.314961,5.314961 0 1 0 220.83844,-76.083838 Z"
       style="fill:none;stroke:#000000;stroke-width:0.63779527;stroke-miterlimit:4;stroke-dasharray:none"
       id="path32"
       inkscape:connector-curvature="0" />
    <path
       d="M 17.098282,256.98702 17.098282,-1054.0366 371.42899,-1054.0366 371.42899,256.98702 17.098282,256.98702 Z"
       style="fill:none;stroke:#000000;stroke-width:0.63779527;stroke-miterlimit:4;stroke-dasharray:none"
       id="path34"
       inkscape:connector-curvature="0" />
    <path
       d="M 733.46504,-1054.0366 733.46504,256.98702 379.13433,256.98702 379.13433,-1054.0366 733.46504,-1054.0366 Z"
       style="fill:none;stroke:#000000;stroke-width:0.63779527;stroke-miterlimit:4;stroke-dasharray:none"
       id="path36"
       inkscape:connector-curvature="0" />
    <path
       d="M 794.3453,-1020.3839 A 17.716536,17.716536 0 1 0 758.91223,-1020.3839 17.716536,17.716536 0 1 0 794.3453,-1020.3839 Z"
       style="fill:none;stroke:#000000;stroke-width:0.63779527;stroke-miterlimit:4;stroke-dasharray:none"
       id="path38"
       inkscape:connector-curvature="0" />
    <path
       d="M 741.1957,-701.48622 741.1957,-1055.8169 1095.5264,-1055.8169 1095.5264,-701.48622 741.1957,-701.48622 Z"
       style="fill:none;stroke:#000000;stroke-width:0.63779527;stroke-miterlimit:4;stroke-dasharray:none"
       id="path40"
       inkscape:connector-curvature="0" />
    <path
       d="M 1096.851,-511.29045 756.69352,-511.29045 756.69352,-334.12509 1096.851,-334.12509 1096.851,-511.29045 Z"
       style="fill:none;stroke:#000000;stroke-width:0.63779527;stroke-miterlimit:4;stroke-dasharray:none"
       id="path42"
       inkscape:connector-curvature="0" />
    <path
       d="M 742.52029,-695.54242 1111.0242,-695.54242 1111.0242,-327.03848 742.52029,-327.03848 742.52029,-695.54242 Z"
       style="fill:none;stroke:#000000;stroke-width:0.63779527;stroke-miterlimit:4;stroke-dasharray:none"
       id="path44"
       inkscape:connector-curvature="0" />
    <path
       d="M 1110.914,46.370372 742.41011,46.370372 742.41011,-322.13357 1110.914,-322.13357 1110.914,46.370372 Z"
       style="fill:none;stroke:#000000;stroke-width:0.63779527;stroke-miterlimit:4;stroke-dasharray:none"
       id="path46"
       inkscape:connector-curvature="0" />
    <path
       d="M 1101.1457,256.98702 746.81495,256.98702 746.81495,72.735052 1101.1457,72.735052 1101.1457,256.98702 Z"
       style="fill:none;stroke:#000000;stroke-width:0.63779527;stroke-miterlimit:4;stroke-dasharray:none"
       id="path48"
       inkscape:connector-curvature="0" />
  </g>
</svg>
