  0
SECTION
  2
HEADER
  9
$ACADVER
  1
AC1014
  9
$HANDSEED
  5
FFFF
  9
$MEASUREMENT
 70
     1
  0
ENDSEC
  0
SECTION
  2
TABLES
  0
TABLE
  2
VPORT
  5
8
330
0
100
AcDbSymbolTable
 70
     4
  0
VPORT
  5
2E
330
8
100
AcDbSymbolTableRecord
100
AcDbViewportTableRecord
  2
*ACTIVE
 70
     0
 10
0.0
 20
0.0
 11
1.0
 21
1.0
 12
210.0
 22
148.5
 13
0.0
 23
0.0
 14
10.0
 24
10.0
 15
10.0
 25
10.0
 16
0.0
 26
0.0
 36
1.0
 17
0.0
 27
0.0
 37
0.0
 40
341.0
 41
1.24
 42
50.0
 43
0.0
 44
0.0
 50
0.0
 51
0.0
 71
     0
 72
   100
 73
     1
 74
     3
 75
     0
 76
     0
 77
     0
 78
     0
  0
ENDTAB
  0
TABLE
  2
LTYPE
  5
5
330
0
100
AcDbSymbolTable
 70
     1
  0
LTYPE
  5
14
330
5
100
AcDbSymbolTableRecord
100
AcDbLinetypeTableRecord
  2
BYBLOCK
 70
     0
  3

 72
    65
 73
     0
 40
0.0
  0
LTYPE
  5
15
330
5
100
AcDbSymbolTableRecord
100
AcDbLinetypeTableRecord
  2
BYLAYER
 70
     0
  3

 72
    65
 73
     0
 40
0.0
  0
LTYPE
  5
16
330
5
100
AcDbSymbolTableRecord
100
AcDbLinetypeTableRecord
  2
CONTINUOUS
 70
     0
  3
Solid line
 72
    65
 73
     0
 40
0.0
  0
ENDTAB
  0
TABLE
  2
LAYER
  5
2
100
AcDbSymbolTable
 70
1
  0
LAYER
  5
50
100
AcDbSymbolTableRecord
100
AcDbLayerTableRecord
  2
0
 70
0
  6
CONTINUOUS
  0
ENDTAB
  0
TABLE
  2
STYLE
  5
3
330
0
100
AcDbSymbolTable
 70
     1
  0
STYLE
  5
11
330
3
100
AcDbSymbolTableRecord
100
AcDbTextStyleTableRecord
  2
STANDARD
 70
     0
 40
0.0
 41
1.0
 50
0.0
 71
     0
 42
2.5
  3
txt
  4

  0
ENDTAB
  0
TABLE
  2
VIEW
  5
6
330
0
100
AcDbSymbolTable
 70
     0
  0
ENDTAB
  0
TABLE
  2
UCS
  5
7
330
0
100
AcDbSymbolTable
 70
     0
  0
ENDTAB
  0
TABLE
  2
APPID
  5
9
330
0
100
AcDbSymbolTable
 70
     2
  0
APPID
  5
12
330
9
100
AcDbSymbolTableRecord
100
AcDbRegAppTableRecord
  2
ACAD
 70
     0
  0
ENDTAB
  0
TABLE
  2
DIMSTYLE
  5
A
330
0
100
AcDbSymbolTable
 70
     1
  0
DIMSTYLE
105
27
330
A
100
AcDbSymbolTableRecord
100
AcDbDimStyleTableRecord
  2
ISO-25
 70
     0
  3

  4

  5

  6

  7

 40
1.0
 41
2.5
 42
0.625
 43
3.75
 44
1.25
 45
0.0
 46
0.0
 47
0.0
 48
0.0
140
2.5
141
2.5
142
0.0
143
0.03937007874016
144
1.0
145
0.0
146
1.0
147
0.625
 71
     0
 72
     0
 73
     0
 74
     0
 75
     0
 76
     0
 77
     1
 78
     8
170
     0
171
     3
172
     1
173
     0
174
     0
175
     0
176
     0
177
     0
178
     0
270
     2
271
     2
272
     2
273
     2
274
     3
340
11
275
     0
280
     0
281
     0
282
     0
283
     0
284
     8
285
     0
286
     0
287
     3
288
     0
  0
ENDTAB
  0
TABLE
  2
BLOCK_RECORD
  5
1
330
0
100
AcDbSymbolTable
 70
     1
  0
BLOCK_RECORD
  5
1F
330
1
100
AcDbSymbolTableRecord
100
AcDbBlockTableRecord
  2
*MODEL_SPACE
  0
BLOCK_RECORD
  5
1B
330
1
100
AcDbSymbolTableRecord
100
AcDbBlockTableRecord
  2
*PAPER_SPACE
  0
ENDTAB
  0
ENDSEC
  0
SECTION
  2
BLOCKS
  0
BLOCK
  5
20
330
1F
100
AcDbEntity
  8
0
100
AcDbBlockBegin
  2
*MODEL_SPACE
 70
     0
 10
0.0
 20
0.0
 30
0.0
  3
*MODEL_SPACE
  1

  0
ENDBLK
  5
21
330
1F
100
AcDbEntity
  8
0
100
AcDbBlockEnd
  0
BLOCK
  5
1C
330
1B
100
AcDbEntity
 67
     1
  8
0
100
AcDbBlockBegin
  2
*PAPER_SPACE
  1

  0
ENDBLK
  5
1D
330
1B
100
AcDbEntity
 67
     1
  8
0
100
AcDbBlockEnd
  0
ENDSEC
  0
SECTION
  2
ENTITIES
  0
SPLINE
  5
100
100
AcDbEntity
  8
0
 62
7
100
AcDbSpline
 70
8
 71
3
 72
8
 73
4
 74
0
 40
0
 40
0
 40
0
 40
0
 40
1
 40
1
 40
1
 40
1
 10
16.199049
 20
233.036542
 30
0.0
 10
16.199049
 20
234.787144
 30
0.0
 10
15.265114
 20
236.404766
 30
0.0
 10
13.749049
 20
237.280067
 30
0.0
  0
SPLINE
  5
101
100
AcDbEntity
  8
0
 62
7
100
AcDbSpline
 70
8
 71
3
 72
8
 73
4
 74
0
 40
0
 40
0
 40
0
 40
0
 40
1
 40
1
 40
1
 40
1
 10
13.749049
 20
237.280067
 30
0.0
 10
12.232983
 20
238.155368
 30
0.0
 10
10.365114
 20
238.155368
 30
0.0
 10
8.849049
 20
237.280067
 30
0.0
  0
SPLINE
  5
102
100
AcDbEntity
  8
0
 62
7
100
AcDbSpline
 70
8
 71
3
 72
8
 73
4
 74
0
 40
0
 40
0
 40
0
 40
0
 40
1
 40
1
 40
1
 40
1
 10
8.849049
 20
237.280067
 30
0.0
 10
7.332983
 20
236.404766
 30
0.0
 10
6.399049
 20
234.787144
 30
0.0
 10
6.399049
 20
233.036542
 30
0.0
  0
SPLINE
  5
103
100
AcDbEntity
  8
0
 62
7
100
AcDbSpline
 70
8
 71
3
 72
8
 73
4
 74
0
 40
0
 40
0
 40
0
 40
0
 40
1
 40
1
 40
1
 40
1
 10
6.399049
 20
233.036542
 30
0.0
 10
6.399049
 20
231.285941
 30
0.0
 10
7.332983
 20
229.668319
 30
0.0
 10
8.849049
 20
228.793018
 30
0.0
  0
SPLINE
  5
104
100
AcDbEntity
  8
0
 62
7
100
AcDbSpline
 70
8
 71
3
 72
8
 73
4
 74
0
 40
0
 40
0
 40
0
 40
0
 40
1
 40
1
 40
1
 40
1
 10
8.849049
 20
228.793018
 30
0.0
 10
10.365114
 20
227.917717
 30
0.0
 10
12.232983
 20
227.917717
 30
0.0
 10
13.749049
 20
228.793018
 30
0.0
  0
SPLINE
  5
105
100
AcDbEntity
  8
0
 62
7
100
AcDbSpline
 70
8
 71
3
 72
8
 73
4
 74
0
 40
0
 40
0
 40
0
 40
0
 40
1
 40
1
 40
1
 40
1
 10
13.749049
 20
228.793018
 30
0.0
 10
15.265114
 20
229.668319
 30
0.0
 10
16.199049
 20
231.285941
 30
0.0
 10
16.199049
 20
233.036542
 30
0.0
  0
SPLINE
  5
106
100
AcDbEntity
  8
0
 62
7
100
AcDbSpline
 70
8
 71
3
 72
8
 73
4
 74
0
 40
0
 40
0
 40
0
 40
0
 40
1
 40
1
 40
1
 40
1
 10
61.199048
 20
301.417805
 30
0.0
 10
61.199377
 20
301.953922
 30
0.0
 10
60.913550
 20
302.449456
 30
0.0
 10
60.449314
 20
302.717610
 30
0.0
  0
SPLINE
  5
107
100
AcDbEntity
  8
0
 62
7
100
AcDbSpline
 70
8
 71
3
 72
8
 73
4
 74
0
 40
0
 40
0
 40
0
 40
0
 40
1
 40
1
 40
1
 40
1
 10
60.449314
 20
302.717610
 30
0.0
 10
59.985077
 20
302.985763
 30
0.0
 10
59.413019
 20
302.985763
 30
0.0
 10
58.948782
 20
302.717610
 30
0.0
  0
SPLINE
  5
108
100
AcDbEntity
  8
0
 62
7
100
AcDbSpline
 70
8
 71
3
 72
8
 73
4
 74
0
 40
0
 40
0
 40
0
 40
0
 40
1
 40
1
 40
1
 40
1
 10
58.948782
 20
302.717610
 30
0.0
 10
58.484546
 20
302.449456
 30
0.0
 10
58.198719
 20
301.953922
 30
0.0
 10
58.199048
 20
301.417805
 30
0.0
  0
SPLINE
  5
109
100
AcDbEntity
  8
0
 62
7
100
AcDbSpline
 70
8
 71
3
 72
8
 73
4
 74
0
 40
0
 40
0
 40
0
 40
0
 40
1
 40
1
 40
1
 40
1
 10
58.199048
 20
301.417805
 30
0.0
 10
58.198719
 20
300.881687
 30
0.0
 10
58.484546
 20
300.386153
 30
0.0
 10
58.948782
 20
300.118000
 30
0.0
  0
SPLINE
  5
10a
100
AcDbEntity
  8
0
 62
7
100
AcDbSpline
 70
8
 71
3
 72
8
 73
4
 74
0
 40
0
 40
0
 40
0
 40
0
 40
1
 40
1
 40
1
 40
1
 10
58.948782
 20
300.118000
 30
0.0
 10
59.413019
 20
299.849846
 30
0.0
 10
59.985077
 20
299.849846
 30
0.0
 10
60.449314
 20
300.118000
 30
0.0
  0
SPLINE
  5
10b
100
AcDbEntity
  8
0
 62
7
100
AcDbSpline
 70
8
 71
3
 72
8
 73
4
 74
0
 40
0
 40
0
 40
0
 40
0
 40
1
 40
1
 40
1
 40
1
 10
60.449314
 20
300.118000
 30
0.0
 10
60.913550
 20
300.386153
 30
0.0
 10
61.199377
 20
300.881687
 30
0.0
 10
61.199048
 20
301.417805
 30
0.0
  0
LWPOLYLINE
  5
10c
100
AcDbEntity
  8
0
 62
7
100
AcDbPolyline
 90
2
 70
1
 10
16.199049
 20
233.036542
 30
0.0
 10
16.199049
 20
233.036542
 30
0.0
  0
SPLINE
  5
10d
100
AcDbEntity
  8
0
 62
7
100
AcDbSpline
 70
8
 71
3
 72
8
 73
4
 74
0
 40
0
 40
0
 40
0
 40
0
 40
1
 40
1
 40
1
 40
1
 10
81.199047
 20
311.417804
 30
0.0
 10
81.200335
 20
315.527217
 30
0.0
 10
79.008729
 20
319.325021
 30
0.0
 10
75.450088
 20
321.380099
 30
0.0
  0
SPLINE
  5
10e
100
AcDbEntity
  8
0
 62
7
100
AcDbSpline
 70
8
 71
3
 72
8
 73
4
 74
0
 40
0
 40
0
 40
0
 40
0
 40
1
 40
1
 40
1
 40
1
 10
75.450088
 20
321.380099
 30
0.0
 10
71.891447
 20
323.435177
 30
0.0
 10
67.506649
 20
323.435177
 30
0.0
 10
63.948008
 20
321.380099
 30
0.0
  0
SPLINE
  5
10f
100
AcDbEntity
  8
0
 62
7
100
AcDbSpline
 70
8
 71
3
 72
8
 73
4
 74
0
 40
0
 40
0
 40
0
 40
0
 40
1
 40
1
 40
1
 40
1
 10
63.948008
 20
321.380099
 30
0.0
 10
60.389367
 20
319.325021
 30
0.0
 10
58.197761
 20
315.527217
 30
0.0
 10
58.199048
 20
311.417804
 30
0.0
  0
SPLINE
  5
110
100
AcDbEntity
  8
0
 62
7
100
AcDbSpline
 70
8
 71
3
 72
8
 73
4
 74
0
 40
0
 40
0
 40
0
 40
0
 40
1
 40
1
 40
1
 40
1
 10
58.199048
 20
311.417804
 30
0.0
 10
58.197761
 20
307.308392
 30
0.0
 10
60.389367
 20
303.510587
 30
0.0
 10
63.948008
 20
301.455510
 30
0.0
  0
SPLINE
  5
111
100
AcDbEntity
  8
0
 62
7
100
AcDbSpline
 70
8
 71
3
 72
8
 73
4
 74
0
 40
0
 40
0
 40
0
 40
0
 40
1
 40
1
 40
1
 40
1
 10
63.948008
 20
301.455510
 30
0.0
 10
67.506649
 20
299.400432
 30
0.0
 10
71.891447
 20
299.400432
 30
0.0
 10
75.450088
 20
301.455510
 30
0.0
  0
SPLINE
  5
112
100
AcDbEntity
  8
0
 62
7
100
AcDbSpline
 70
8
 71
3
 72
8
 73
4
 74
0
 40
0
 40
0
 40
0
 40
0
 40
1
 40
1
 40
1
 40
1
 10
75.450088
 20
301.455510
 30
0.0
 10
79.008729
 20
303.510587
 30
0.0
 10
81.200335
 20
307.308392
 30
0.0
 10
81.199047
 20
311.417804
 30
0.0
  0
LWPOLYLINE
  5
113
100
AcDbEntity
  8
0
 62
7
100
AcDbPolyline
 90
2
 70
1
 10
61.199048
 20
301.417805
 30
0.0
 10
61.199048
 20
301.417805
 30
0.0
  0
SPLINE
  5
114
100
AcDbEntity
  8
0
 62
7
100
AcDbSpline
 70
8
 71
3
 72
8
 73
4
 74
0
 40
0
 40
0
 40
0
 40
0
 40
1
 40
1
 40
1
 40
1
 10
81.199047
 20
321.417804
 30
0.0
 10
81.199376
 20
321.953922
 30
0.0
 10
80.913550
 20
322.449455
 30
0.0
 10
80.449313
 20
322.717609
 30
0.0
  0
SPLINE
  5
115
100
AcDbEntity
  8
0
 62
7
100
AcDbSpline
 70
8
 71
3
 72
8
 73
4
 74
0
 40
0
 40
0
 40
0
 40
0
 40
1
 40
1
 40
1
 40
1
 10
80.449313
 20
322.717609
 30
0.0
 10
79.985077
 20
322.985763
 30
0.0
 10
79.413019
 20
322.985763
 30
0.0
 10
78.948782
 20
322.717609
 30
0.0
  0
SPLINE
  5
116
100
AcDbEntity
  8
0
 62
7
100
AcDbSpline
 70
8
 71
3
 72
8
 73
4
 74
0
 40
0
 40
0
 40
0
 40
0
 40
1
 40
1
 40
1
 40
1
 10
78.948782
 20
322.717609
 30
0.0
 10
78.484545
 20
322.449455
 30
0.0
 10
78.198719
 20
321.953922
 30
0.0
 10
78.199048
 20
321.417804
 30
0.0
  0
SPLINE
  5
117
100
AcDbEntity
  8
0
 62
7
100
AcDbSpline
 70
8
 71
3
 72
8
 73
4
 74
0
 40
0
 40
0
 40
0
 40
0
 40
1
 40
1
 40
1
 40
1
 10
78.199048
 20
321.417804
 30
0.0
 10
78.198719
 20
320.881687
 30
0.0
 10
78.484545
 20
320.386153
 30
0.0
 10
78.948782
 20
320.117999
 30
0.0
  0
SPLINE
  5
118
100
AcDbEntity
  8
0
 62
7
100
AcDbSpline
 70
8
 71
3
 72
8
 73
4
 74
0
 40
0
 40
0
 40
0
 40
0
 40
1
 40
1
 40
1
 40
1
 10
78.948782
 20
320.117999
 30
0.0
 10
79.413019
 20
319.849845
 30
0.0
 10
79.985077
 20
319.849845
 30
0.0
 10
80.449313
 20
320.117999
 30
0.0
  0
SPLINE
  5
119
100
AcDbEntity
  8
0
 62
7
100
AcDbSpline
 70
8
 71
3
 72
8
 73
4
 74
0
 40
0
 40
0
 40
0
 40
0
 40
1
 40
1
 40
1
 40
1
 10
80.449313
 20
320.117999
 30
0.0
 10
80.913550
 20
320.386153
 30
0.0
 10
81.199376
 20
320.881687
 30
0.0
 10
81.199047
 20
321.417804
 30
0.0
  0
LWPOLYLINE
  5
11a
100
AcDbEntity
  8
0
 62
7
100
AcDbPolyline
 90
2
 70
1
 10
81.199047
 20
311.417804
 30
0.0
 10
81.199047
 20
311.417804
 30
0.0
  0
SPLINE
  5
11b
100
AcDbEntity
  8
0
 62
7
100
AcDbSpline
 70
8
 71
3
 72
8
 73
4
 74
0
 40
0
 40
0
 40
0
 40
0
 40
1
 40
1
 40
1
 40
1
 10
81.199047
 20
301.417805
 30
0.0
 10
81.199376
 20
301.953922
 30
0.0
 10
80.913550
 20
302.449456
 30
0.0
 10
80.449313
 20
302.717610
 30
0.0
  0
SPLINE
  5
11c
100
AcDbEntity
  8
0
 62
7
100
AcDbSpline
 70
8
 71
3
 72
8
 73
4
 74
0
 40
0
 40
0
 40
0
 40
0
 40
1
 40
1
 40
1
 40
1
 10
80.449313
 20
302.717610
 30
0.0
 10
79.985077
 20
302.985763
 30
0.0
 10
79.413019
 20
302.985763
 30
0.0
 10
78.948782
 20
302.717610
 30
0.0
  0
SPLINE
  5
11d
100
AcDbEntity
  8
0
 62
7
100
AcDbSpline
 70
8
 71
3
 72
8
 73
4
 74
0
 40
0
 40
0
 40
0
 40
0
 40
1
 40
1
 40
1
 40
1
 10
78.948782
 20
302.717610
 30
0.0
 10
78.484545
 20
302.449456
 30
0.0
 10
78.198719
 20
301.953922
 30
0.0
 10
78.199048
 20
301.417805
 30
0.0
  0
SPLINE
  5
11e
100
AcDbEntity
  8
0
 62
7
100
AcDbSpline
 70
8
 71
3
 72
8
 73
4
 74
0
 40
0
 40
0
 40
0
 40
0
 40
1
 40
1
 40
1
 40
1
 10
78.199048
 20
301.417805
 30
0.0
 10
78.198719
 20
300.881687
 30
0.0
 10
78.484545
 20
300.386153
 30
0.0
 10
78.948782
 20
300.118000
 30
0.0
  0
SPLINE
  5
11f
100
AcDbEntity
  8
0
 62
7
100
AcDbSpline
 70
8
 71
3
 72
8
 73
4
 74
0
 40
0
 40
0
 40
0
 40
0
 40
1
 40
1
 40
1
 40
1
 10
78.948782
 20
300.118000
 30
0.0
 10
79.413019
 20
299.849846
 30
0.0
 10
79.985077
 20
299.849846
 30
0.0
 10
80.449313
 20
300.118000
 30
0.0
  0
SPLINE
  5
120
100
AcDbEntity
  8
0
 62
7
100
AcDbSpline
 70
8
 71
3
 72
8
 73
4
 74
0
 40
0
 40
0
 40
0
 40
0
 40
1
 40
1
 40
1
 40
1
 10
80.449313
 20
300.118000
 30
0.0
 10
80.913550
 20
300.386153
 30
0.0
 10
81.199376
 20
300.881687
 30
0.0
 10
81.199047
 20
301.417805
 30
0.0
  0
LWPOLYLINE
  5
121
100
AcDbEntity
  8
0
 62
7
100
AcDbPolyline
 90
2
 70
1
 10
81.199047
 20
321.417804
 30
0.0
 10
81.199047
 20
321.417804
 30
0.0
  0
SPLINE
  5
122
100
AcDbEntity
  8
0
 62
7
100
AcDbSpline
 70
8
 71
3
 72
8
 73
4
 74
0
 40
0
 40
0
 40
0
 40
0
 40
1
 40
1
 40
1
 40
1
 10
61.199048
 20
321.417804
 30
0.0
 10
61.199377
 20
321.953922
 30
0.0
 10
60.913550
 20
322.449455
 30
0.0
 10
60.449314
 20
322.717609
 30
0.0
  0
SPLINE
  5
123
100
AcDbEntity
  8
0
 62
7
100
AcDbSpline
 70
8
 71
3
 72
8
 73
4
 74
0
 40
0
 40
0
 40
0
 40
0
 40
1
 40
1
 40
1
 40
1
 10
60.449314
 20
322.717609
 30
0.0
 10
59.985077
 20
322.985763
 30
0.0
 10
59.413019
 20
322.985763
 30
0.0
 10
58.948782
 20
322.717609
 30
0.0
  0
SPLINE
  5
124
100
AcDbEntity
  8
0
 62
7
100
AcDbSpline
 70
8
 71
3
 72
8
 73
4
 74
0
 40
0
 40
0
 40
0
 40
0
 40
1
 40
1
 40
1
 40
1
 10
58.948782
 20
322.717609
 30
0.0
 10
58.484546
 20
322.449455
 30
0.0
 10
58.198719
 20
321.953922
 30
0.0
 10
58.199048
 20
321.417804
 30
0.0
  0
SPLINE
  5
125
100
AcDbEntity
  8
0
 62
7
100
AcDbSpline
 70
8
 71
3
 72
8
 73
4
 74
0
 40
0
 40
0
 40
0
 40
0
 40
1
 40
1
 40
1
 40
1
 10
58.199048
 20
321.417804
 30
0.0
 10
58.198719
 20
320.881687
 30
0.0
 10
58.484546
 20
320.386153
 30
0.0
 10
58.948782
 20
320.117999
 30
0.0
  0
SPLINE
  5
126
100
AcDbEntity
  8
0
 62
7
100
AcDbSpline
 70
8
 71
3
 72
8
 73
4
 74
0
 40
0
 40
0
 40
0
 40
0
 40
1
 40
1
 40
1
 40
1
 10
58.948782
 20
320.117999
 30
0.0
 10
59.413019
 20
319.849845
 30
0.0
 10
59.985077
 20
319.849845
 30
0.0
 10
60.449314
 20
320.117999
 30
0.0
  0
SPLINE
  5
127
100
AcDbEntity
  8
0
 62
7
100
AcDbSpline
 70
8
 71
3
 72
8
 73
4
 74
0
 40
0
 40
0
 40
0
 40
0
 40
1
 40
1
 40
1
 40
1
 10
60.449314
 20
320.117999
 30
0.0
 10
60.913550
 20
320.386153
 30
0.0
 10
61.199377
 20
320.881687
 30
0.0
 10
61.199048
 20
321.417804
 30
0.0
  0
LWPOLYLINE
  5
128
100
AcDbEntity
  8
0
 62
7
100
AcDbPolyline
 90
2
 70
1
 10
81.199047
 20
301.417805
 30
0.0
 10
81.199047
 20
301.417805
 30
0.0
  0
LWPOLYLINE
  5
129
100
AcDbEntity
  8
0
 62
7
100
AcDbPolyline
 90
2
 70
1
 10
61.199048
 20
321.417804
 30
0.0
 10
61.199048
 20
321.417804
 30
0.0
  0
LWPOLYLINE
  5
12a
100
AcDbEntity
  8
0
 62
7
100
AcDbPolyline
 90
6
 70
1
 10
3.699048
 20
227.417806
 30
0.0
 10
3.699048
 20
597.417808
 30
0.0
 10
103.699048
 20
597.417808
 30
0.0
 10
103.699048
 20
227.417806
 30
0.0
 10
3.699048
 20
227.417806
 30
0.0
 10
3.699048
 20
227.417806
 30
0.0
  0
SPLINE
  5
12b
100
AcDbEntity
  8
0
 62
7
100
AcDbSpline
 70
8
 71
3
 72
8
 73
4
 74
0
 40
0
 40
0
 40
0
 40
0
 40
1
 40
1
 40
1
 40
1
 10
223.055428
 20
587.920268
 30
0.0
 10
223.056029
 20
589.706996
 30
0.0
 10
222.103165
 20
591.358258
 30
0.0
 10
220.555914
 20
592.251795
 30
0.0
  0
SPLINE
  5
12c
100
AcDbEntity
  8
0
 62
7
100
AcDbSpline
 70
8
 71
3
 72
8
 73
4
 74
0
 40
0
 40
0
 40
0
 40
0
 40
1
 40
1
 40
1
 40
1
 10
220.555914
 20
592.251795
 30
0.0
 10
219.008662
 20
593.145332
 30
0.0
 10
217.102195
 20
593.145332
 30
0.0
 10
215.554943
 20
592.251795
 30
0.0
  0
SPLINE
  5
12d
100
AcDbEntity
  8
0
 62
7
100
AcDbSpline
 70
8
 71
3
 72
8
 73
4
 74
0
 40
0
 40
0
 40
0
 40
0
 40
1
 40
1
 40
1
 40
1
 10
215.554943
 20
592.251795
 30
0.0
 10
214.007692
 20
591.358258
 30
0.0
 10
213.054828
 20
589.706996
 30
0.0
 10
213.055429
 20
587.920268
 30
0.0
  0
SPLINE
  5
12e
100
AcDbEntity
  8
0
 62
7
100
AcDbSpline
 70
8
 71
3
 72
8
 73
4
 74
0
 40
0
 40
0
 40
0
 40
0
 40
1
 40
1
 40
1
 40
1
 10
213.055429
 20
587.920268
 30
0.0
 10
213.054828
 20
586.133540
 30
0.0
 10
214.007692
 20
584.482278
 30
0.0
 10
215.554943
 20
583.588741
 30
0.0
  0
SPLINE
  5
12f
100
AcDbEntity
  8
0
 62
7
100
AcDbSpline
 70
8
 71
3
 72
8
 73
4
 74
0
 40
0
 40
0
 40
0
 40
0
 40
1
 40
1
 40
1
 40
1
 10
215.554943
 20
583.588741
 30
0.0
 10
217.102195
 20
582.695204
 30
0.0
 10
219.008662
 20
582.695204
 30
0.0
 10
220.555914
 20
583.588741
 30
0.0
  0
SPLINE
  5
130
100
AcDbEntity
  8
0
 62
7
100
AcDbSpline
 70
8
 71
3
 72
8
 73
4
 74
0
 40
0
 40
0
 40
0
 40
0
 40
1
 40
1
 40
1
 40
1
 10
220.555914
 20
583.588741
 30
0.0
 10
222.103165
 20
584.482278
 30
0.0
 10
223.056029
 20
586.133540
 30
0.0
 10
223.055428
 20
587.920268
 30
0.0
  0
LWPOLYLINE
  5
131
100
AcDbEntity
  8
0
 62
7
100
AcDbPolyline
 90
6
 70
1
 10
205.873666
 20
597.417808
 30
0.0
 10
205.873666
 20
227.417806
 30
0.0
 10
105.873666
 20
227.417806
 30
0.0
 10
105.873666
 20
597.417808
 30
0.0
 10
205.873666
 20
597.417808
 30
0.0
 10
205.873666
 20
597.417808
 30
0.0
  0
LWPOLYLINE
  5
132
100
AcDbEntity
  8
0
 62
7
100
AcDbPolyline
 90
2
 70
1
 10
223.055428
 20
587.920268
 30
0.0
 10
223.055428
 20
587.920268
 30
0.0
  0
LWPOLYLINE
  5
133
100
AcDbEntity
  8
0
 62
7
100
AcDbPolyline
 90
6
 70
1
 10
208.055430
 20
497.920253
 30
0.0
 10
208.055430
 20
597.920248
 30
0.0
 10
308.055433
 20
597.920248
 30
0.0
 10
308.055433
 20
497.920253
 30
0.0
 10
208.055430
 20
497.920253
 30
0.0
 10
208.055430
 20
497.920253
 30
0.0
  0
LWPOLYLINE
  5
134
100
AcDbEntity
  8
0
 62
7
100
AcDbPolyline
 90
6
 70
1
 10
308.429265
 20
444.242780
 30
0.0
 10
212.429259
 20
444.242780
 30
0.0
 10
212.429259
 20
394.242782
 30
0.0
 10
308.429265
 20
394.242782
 30
0.0
 10
308.429265
 20
444.242780
 30
0.0
 10
308.429265
 20
444.242780
 30
0.0
  0
LWPOLYLINE
  5
135
100
AcDbEntity
  8
0
 62
7
100
AcDbPolyline
 90
6
 70
1
 10
208.429262
 20
496.242781
 30
0.0
 10
312.429257
 20
496.242781
 30
0.0
 10
312.429257
 20
392.242780
 30
0.0
 10
208.429262
 20
392.242780
 30
0.0
 10
208.429262
 20
496.242781
 30
0.0
 10
208.429262
 20
496.242781
 30
0.0
  0
LWPOLYLINE
  5
136
100
AcDbEntity
  8
0
 62
7
100
AcDbPolyline
 90
6
 70
1
 10
312.398156
 20
286.858505
 30
0.0
 10
208.398164
 20
286.858505
 30
0.0
 10
208.398164
 20
390.858505
 30
0.0
 10
312.398156
 20
390.858505
 30
0.0
 10
312.398156
 20
286.858505
 30
0.0
 10
312.398156
 20
286.858505
 30
0.0
  0
LWPOLYLINE
  5
137
100
AcDbEntity
  8
0
 62
7
100
AcDbPolyline
 90
6
 70
1
 10
309.641296
 20
227.417806
 30
0.0
 10
209.641310
 20
227.417806
 30
0.0
 10
209.641310
 20
279.417806
 30
0.0
 10
309.641296
 20
279.417806
 30
0.0
 10
309.641296
 20
227.417806
 30
0.0
 10
309.641296
 20
227.417806
 30
0.0
  0
ENDSEC
  0
SECTION
  2
OBJECTS
  0
DICTIONARY
  5
C
330
0
100
AcDbDictionary
  3
ACAD_GROUP
350
D
  3
ACAD_MLINESTYLE
350
17
  0
DICTIONARY
  5
D
330
C
100
AcDbDictionary
  0
DICTIONARY
  5
1A
330
C
100
AcDbDictionary
  0
DICTIONARY
  5
17
330
C
100
AcDbDictionary
  3
STANDARD
350
18
  0
DICTIONARY
  5
19
330
C
100
AcDbDictionary
  0
ENDSEC
  0
EOF
