  0
SECTION
  2
HEADER
  9
$ACADVER
  1
AC1014
  9
$HANDSEED
  5
FFFF
  9
$MEASUREMENT
 70
     1
  0
ENDSEC
  0
SECTION
  2
TABLES
  0
TABLE
  2
VPORT
  5
8
330
0
100
AcDbSymbolTable
 70
     4
  0
VPORT
  5
2E
330
8
100
AcDbSymbolTableRecord
100
AcDbViewportTableRecord
  2
*ACTIVE
 70
     0
 10
0.0
 20
0.0
 11
1.0
 21
1.0
 12
210.0
 22
148.5
 13
0.0
 23
0.0
 14
10.0
 24
10.0
 15
10.0
 25
10.0
 16
0.0
 26
0.0
 36
1.0
 17
0.0
 27
0.0
 37
0.0
 40
341.0
 41
1.24
 42
50.0
 43
0.0
 44
0.0
 50
0.0
 51
0.0
 71
     0
 72
   100
 73
     1
 74
     3
 75
     0
 76
     0
 77
     0
 78
     0
  0
ENDTAB
  0
TABLE
  2
LTYPE
  5
5
330
0
100
AcDbSymbolTable
 70
     1
  0
LTYPE
  5
14
330
5
100
AcDbSymbolTableRecord
100
AcDbLinetypeTableRecord
  2
BYBLOCK
 70
     0
  3

 72
    65
 73
     0
 40
0.0
  0
LTYPE
  5
15
330
5
100
AcDbSymbolTableRecord
100
AcDbLinetypeTableRecord
  2
BYLAYER
 70
     0
  3

 72
    65
 73
     0
 40
0.0
  0
LTYPE
  5
16
330
5
100
AcDbSymbolTableRecord
100
AcDbLinetypeTableRecord
  2
CONTINUOUS
 70
     0
  3
Solid line
 72
    65
 73
     0
 40
0.0
  0
ENDTAB
  0
TABLE
  2
LAYER
  5
2
100
AcDbSymbolTable
 70
1
  0
LAYER
  5
50
100
AcDbSymbolTableRecord
100
AcDbLayerTableRecord
  2
0
 70
0
  6
CONTINUOUS
  0
ENDTAB
  0
TABLE
  2
STYLE
  5
3
330
0
100
AcDbSymbolTable
 70
     1
  0
STYLE
  5
11
330
3
100
AcDbSymbolTableRecord
100
AcDbTextStyleTableRecord
  2
STANDARD
 70
     0
 40
0.0
 41
1.0
 50
0.0
 71
     0
 42
2.5
  3
txt
  4

  0
ENDTAB
  0
TABLE
  2
VIEW
  5
6
330
0
100
AcDbSymbolTable
 70
     0
  0
ENDTAB
  0
TABLE
  2
UCS
  5
7
330
0
100
AcDbSymbolTable
 70
     0
  0
ENDTAB
  0
TABLE
  2
APPID
  5
9
330
0
100
AcDbSymbolTable
 70
     2
  0
APPID
  5
12
330
9
100
AcDbSymbolTableRecord
100
AcDbRegAppTableRecord
  2
ACAD
 70
     0
  0
ENDTAB
  0
TABLE
  2
DIMSTYLE
  5
A
330
0
100
AcDbSymbolTable
 70
     1
  0
DIMSTYLE
105
27
330
A
100
AcDbSymbolTableRecord
100
AcDbDimStyleTableRecord
  2
ISO-25
 70
     0
  3

  4

  5

  6

  7

 40
1.0
 41
2.5
 42
0.625
 43
3.75
 44
1.25
 45
0.0
 46
0.0
 47
0.0
 48
0.0
140
2.5
141
2.5
142
0.0
143
0.03937007874016
144
1.0
145
0.0
146
1.0
147
0.625
 71
     0
 72
     0
 73
     0
 74
     0
 75
     0
 76
     0
 77
     1
 78
     8
170
     0
171
     3
172
     1
173
     0
174
     0
175
     0
176
     0
177
     0
178
     0
270
     2
271
     2
272
     2
273
     2
274
     3
340
11
275
     0
280
     0
281
     0
282
     0
283
     0
284
     8
285
     0
286
     0
287
     3
288
     0
  0
ENDTAB
  0
TABLE
  2
BLOCK_RECORD
  5
1
330
0
100
AcDbSymbolTable
 70
     1
  0
BLOCK_RECORD
  5
1F
330
1
100
AcDbSymbolTableRecord
100
AcDbBlockTableRecord
  2
*MODEL_SPACE
  0
BLOCK_RECORD
  5
1B
330
1
100
AcDbSymbolTableRecord
100
AcDbBlockTableRecord
  2
*PAPER_SPACE
  0
ENDTAB
  0
ENDSEC
  0
SECTION
  2
BLOCKS
  0
BLOCK
  5
20
330
1F
100
AcDbEntity
  8
0
100
AcDbBlockBegin
  2
*MODEL_SPACE
 70
     0
 10
0.0
 20
0.0
 30
0.0
  3
*MODEL_SPACE
  1

  0
ENDBLK
  5
21
330
1F
100
AcDbEntity
  8
0
100
AcDbBlockEnd
  0
BLOCK
  5
1C
330
1B
100
AcDbEntity
 67
     1
  8
0
100
AcDbBlockBegin
  2
*PAPER_SPACE
  1

  0
ENDBLK
  5
1D
330
1B
100
AcDbEntity
 67
     1
  8
0
100
AcDbBlockEnd
  0
ENDSEC
  0
SECTION
  2
ENTITIES
  0
LWPOLYLINE
  5
100
100
AcDbEntity
  8
0
 62
7
100
AcDbPolyline
 90
8
 70
1
 10
109.559101
 20
594.472565
 30
0.0
 10
109.559101
 20
224.472580
 30
0.0
 10
5.559101
 20
224.472580
 30
0.0
 10
5.559101
 20
594.472565
 30
0.0
 10
109.559101
 20
594.472565
 30
0.0
 10
109.559101
 20
594.472565
 30
0.0
 10
109.559101
 20
594.472565
 30
0.0
 10
109.559101
 20
594.472565
 30
0.0
  0
LWPOLYLINE
  5
101
100
AcDbEntity
  8
0
 62
7
100
AcDbPolyline
 90
8
 70
1
 10
112.995366
 20
224.472580
 30
0.0
 10
112.995366
 20
594.472565
 30
0.0
 10
216.995367
 20
594.472565
 30
0.0
 10
216.995367
 20
224.472580
 30
0.0
 10
112.995366
 20
224.472580
 30
0.0
 10
112.995366
 20
224.472580
 30
0.0
 10
112.995366
 20
224.472580
 30
0.0
 10
112.995366
 20
224.472580
 30
0.0
  0
LWPOLYLINE
  5
102
100
AcDbEntity
  8
0
 62
7
100
AcDbPolyline
 90
8
 70
1
 10
219.305384
 20
244.403550
 30
0.0
 10
219.305384
 20
324.403547
 30
0.0
 10
221.305380
 20
324.403547
 30
0.0
 10
221.305380
 20
244.403550
 30
0.0
 10
219.305384
 20
244.403550
 30
0.0
 10
219.305384
 20
244.403550
 30
0.0
 10
219.305384
 20
244.403550
 30
0.0
 10
219.305384
 20
244.403550
 30
0.0
  0
LWPOLYLINE
  5
103
100
AcDbEntity
  8
0
 62
7
100
AcDbPolyline
 90
8
 70
1
 10
225.263687
 20
324.403547
 30
0.0
 10
225.263687
 20
244.403550
 30
0.0
 10
223.263691
 20
244.403550
 30
0.0
 10
223.263691
 20
324.403547
 30
0.0
 10
225.263687
 20
324.403547
 30
0.0
 10
225.263687
 20
324.403547
 30
0.0
 10
225.263687
 20
324.403547
 30
0.0
 10
225.263687
 20
324.403547
 30
0.0
  0
LWPOLYLINE
  5
104
100
AcDbEntity
  8
0
 62
7
100
AcDbPolyline
 90
8
 70
1
 10
237.274077
 20
324.403547
 30
0.0
 10
237.274077
 20
224.903550
 30
0.0
 10
227.274069
 20
224.903550
 30
0.0
 10
227.274069
 20
324.403547
 30
0.0
 10
237.274077
 20
324.403547
 30
0.0
 10
237.274077
 20
324.403547
 30
0.0
 10
237.274077
 20
324.403547
 30
0.0
 10
237.274077
 20
324.403547
 30
0.0
  0
LWPOLYLINE
  5
105
100
AcDbEntity
  8
0
 62
7
100
AcDbPolyline
 90
8
 70
1
 10
238.939894
 20
324.403547
 30
0.0
 10
248.939902
 20
324.403547
 30
0.0
 10
248.939902
 20
224.903550
 30
0.0
 10
238.939894
 20
224.903550
 30
0.0
 10
238.939894
 20
324.403547
 30
0.0
 10
238.939894
 20
324.403547
 30
0.0
 10
238.939894
 20
324.403547
 30
0.0
 10
238.939894
 20
324.403547
 30
0.0
  0
LWPOLYLINE
  5
106
100
AcDbEntity
  8
0
 62
7
100
AcDbPolyline
 90
8
 70
1
 10
219.006426
 20
326.069616
 30
0.0
 10
219.006426
 20
366.069618
 30
0.0
 10
319.006418
 20
366.069618
 30
0.0
 10
319.006418
 20
326.069616
 30
0.0
 10
219.006426
 20
326.069616
 30
0.0
 10
219.006426
 20
326.069616
 30
0.0
 10
219.006426
 20
326.069616
 30
0.0
 10
219.006426
 20
326.069616
 30
0.0
  0
LWPOLYLINE
  5
107
100
AcDbEntity
  8
0
 62
7
100
AcDbPolyline
 90
8
 70
1
 10
219.006426
 20
367.127511
 30
0.0
 10
219.006426
 20
387.127511
 30
0.0
 10
295.006409
 20
387.127511
 30
0.0
 10
295.006409
 20
367.127511
 30
0.0
 10
219.006426
 20
367.127511
 30
0.0
 10
219.006426
 20
367.127511
 30
0.0
 10
219.006426
 20
367.127511
 30
0.0
 10
219.006426
 20
367.127511
 30
0.0
  0
LWPOLYLINE
  5
108
100
AcDbEntity
  8
0
 62
7
100
AcDbPolyline
 90
8
 70
1
 10
302.183772
 20
372.390806
 30
0.0
 10
302.183772
 20
369.390806
 30
0.0
 10
298.183780
 20
369.390806
 30
0.0
 10
298.183780
 20
372.390806
 30
0.0
 10
302.183772
 20
372.390806
 30
0.0
 10
302.183772
 20
372.390806
 30
0.0
 10
302.183772
 20
372.390806
 30
0.0
 10
302.183772
 20
372.390806
 30
0.0
  0
LWPOLYLINE
  5
109
100
AcDbEntity
  8
0
 62
7
100
AcDbPolyline
 90
8
 70
1
 10
302.183772
 20
374.425837
 30
0.0
 10
298.183780
 20
374.425837
 30
0.0
 10
298.183780
 20
377.425837
 30
0.0
 10
302.183772
 20
377.425837
 30
0.0
 10
302.183772
 20
374.425837
 30
0.0
 10
302.183772
 20
374.425837
 30
0.0
 10
302.183772
 20
374.425837
 30
0.0
 10
302.183772
 20
374.425837
 30
0.0
  0
LWPOLYLINE
  5
10a
100
AcDbEntity
  8
0
 62
7
100
AcDbPolyline
 90
8
 70
1
 10
302.183772
 20
379.214223
 30
0.0
 10
298.183780
 20
379.214223
 30
0.0
 10
298.183780
 20
382.214222
 30
0.0
 10
302.183772
 20
382.214222
 30
0.0
 10
302.183772
 20
379.214223
 30
0.0
 10
302.183772
 20
379.214223
 30
0.0
 10
302.183772
 20
379.214223
 30
0.0
 10
302.183772
 20
379.214223
 30
0.0
  0
LWPOLYLINE
  5
10b
100
AcDbEntity
  8
0
 62
7
100
AcDbPolyline
 90
8
 70
1
 10
302.183772
 20
384.127511
 30
0.0
 10
298.183780
 20
384.127511
 30
0.0
 10
298.183780
 20
387.127511
 30
0.0
 10
302.183772
 20
387.127511
 30
0.0
 10
302.183772
 20
384.127511
 30
0.0
 10
302.183772
 20
384.127511
 30
0.0
 10
302.183772
 20
384.127511
 30
0.0
 10
302.183772
 20
384.127511
 30
0.0
  0
LWPOLYLINE
  5
10c
100
AcDbEntity
  8
0
 62
7
100
AcDbPolyline
 90
8
 70
1
 10
295.006409
 20
409.459642
 30
0.0
 10
295.006409
 20
389.459643
 30
0.0
 10
219.006426
 20
389.459643
 30
0.0
 10
219.006426
 20
409.459642
 30
0.0
 10
295.006409
 20
409.459642
 30
0.0
 10
295.006409
 20
409.459642
 30
0.0
 10
295.006409
 20
409.459642
 30
0.0
 10
295.006409
 20
409.459642
 30
0.0
  0
SPLINE
  5
10d
100
AcDbEntity
  8
0
 62
7
100
AcDbSpline
 70
8
 71
3
 72
8
 73
4
 74
0
 40
0
 40
0
 40
0
 40
0
 40
1
 40
1
 40
1
 40
1
 10
274.817930
 20
546.346745
 30
0.0
 10
274.818777
 20
546.704484
 30
0.0
 10
274.628198
 20
547.035350
 30
0.0
 10
274.318507
 20
547.214426
 30
0.0
  0
SPLINE
  5
10e
100
AcDbEntity
  8
0
 62
7
100
AcDbSpline
 70
8
 71
3
 72
8
 73
4
 74
0
 40
0
 40
0
 40
0
 40
0
 40
1
 40
1
 40
1
 40
1
 10
274.318507
 20
547.214426
 30
0.0
 10
274.008813
 20
547.393501
 30
0.0
 10
273.627051
 20
547.393501
 30
0.0
 10
273.317358
 20
547.214426
 30
0.0
  0
SPLINE
  5
10f
100
AcDbEntity
  8
0
 62
7
100
AcDbSpline
 70
8
 71
3
 72
8
 73
4
 74
0
 40
0
 40
0
 40
0
 40
0
 40
1
 40
1
 40
1
 40
1
 10
273.317358
 20
547.214426
 30
0.0
 10
273.007667
 20
547.035350
 30
0.0
 10
272.817223
 20
546.704484
 30
0.0
 10
272.817934
 20
546.346745
 30
0.0
  0
SPLINE
  5
110
100
AcDbEntity
  8
0
 62
7
100
AcDbSpline
 70
8
 71
3
 72
8
 73
4
 74
0
 40
0
 40
0
 40
0
 40
0
 40
1
 40
1
 40
1
 40
1
 10
272.817934
 20
546.346745
 30
0.0
 10
272.817088
 20
545.989005
 30
0.0
 10
273.007667
 20
545.658137
 30
0.0
 10
273.317358
 20
545.479064
 30
0.0
  0
SPLINE
  5
111
100
AcDbEntity
  8
0
 62
7
100
AcDbSpline
 70
8
 71
3
 72
8
 73
4
 74
0
 40
0
 40
0
 40
0
 40
0
 40
1
 40
1
 40
1
 40
1
 10
273.317358
 20
545.479064
 30
0.0
 10
273.627051
 20
545.299988
 30
0.0
 10
274.008813
 20
545.299988
 30
0.0
 10
274.318507
 20
545.479064
 30
0.0
  0
SPLINE
  5
112
100
AcDbEntity
  8
0
 62
7
100
AcDbSpline
 70
8
 71
3
 72
8
 73
4
 74
0
 40
0
 40
0
 40
0
 40
0
 40
1
 40
1
 40
1
 40
1
 10
274.318507
 20
545.479064
 30
0.0
 10
274.628198
 20
545.658137
 30
0.0
 10
274.818642
 20
545.989005
 30
0.0
 10
274.817930
 20
546.346745
 30
0.0
  0
LWPOLYLINE
  5
113
100
AcDbEntity
  8
0
 62
7
100
AcDbPolyline
 90
8
 70
1
 10
219.006426
 20
432.002738
 30
0.0
 10
299.006429
 20
432.002738
 30
0.0
 10
299.006429
 20
412.002735
 30
0.0
 10
219.006426
 20
412.002735
 30
0.0
 10
219.006426
 20
432.002738
 30
0.0
 10
219.006426
 20
432.002738
 30
0.0
 10
219.006426
 20
432.002738
 30
0.0
 10
219.006426
 20
432.002738
 30
0.0
  0
SPLINE
  5
114
100
AcDbEntity
  8
0
 62
7
100
AcDbSpline
 70
8
 71
3
 72
8
 73
4
 74
0
 40
0
 40
0
 40
0
 40
0
 40
1
 40
1
 40
1
 40
1
 10
285.919474
 20
532.139074
 30
0.0
 10
285.919474
 20
532.496810
 30
0.0
 10
285.729736
 20
532.827679
 30
0.0
 10
285.420054
 20
533.006755
 30
0.0
  0
SPLINE
  5
115
100
AcDbEntity
  8
0
 62
7
100
AcDbSpline
 70
8
 71
3
 72
8
 73
4
 74
0
 40
0
 40
0
 40
0
 40
0
 40
1
 40
1
 40
1
 40
1
 10
285.420054
 20
533.006755
 30
0.0
 10
285.110372
 20
533.185831
 30
0.0
 10
284.728581
 20
533.185831
 30
0.0
 10
284.418899
 20
533.006755
 30
0.0
  0
SPLINE
  5
116
100
AcDbEntity
  8
0
 62
7
100
AcDbSpline
 70
8
 71
3
 72
8
 73
4
 74
0
 40
0
 40
0
 40
0
 40
0
 40
1
 40
1
 40
1
 40
1
 10
284.418899
 20
533.006755
 30
0.0
 10
284.109216
 20
532.827679
 30
0.0
 10
283.918773
 20
532.496810
 30
0.0
 10
283.919478
 20
532.139074
 30
0.0
  0
SPLINE
  5
117
100
AcDbEntity
  8
0
 62
7
100
AcDbSpline
 70
8
 71
3
 72
8
 73
4
 74
0
 40
0
 40
0
 40
0
 40
0
 40
1
 40
1
 40
1
 40
1
 10
283.919478
 20
532.139074
 30
0.0
 10
283.919478
 20
531.781335
 30
0.0
 10
284.109216
 20
531.450466
 30
0.0
 10
284.418899
 20
531.271390
 30
0.0
  0
SPLINE
  5
118
100
AcDbEntity
  8
0
 62
7
100
AcDbSpline
 70
8
 71
3
 72
8
 73
4
 74
0
 40
0
 40
0
 40
0
 40
0
 40
1
 40
1
 40
1
 40
1
 10
284.418899
 20
531.271390
 30
0.0
 10
284.728581
 20
531.092317
 30
0.0
 10
285.110372
 20
531.092317
 30
0.0
 10
285.420054
 20
531.271390
 30
0.0
  0
SPLINE
  5
119
100
AcDbEntity
  8
0
 62
7
100
AcDbSpline
 70
8
 71
3
 72
8
 73
4
 74
0
 40
0
 40
0
 40
0
 40
0
 40
1
 40
1
 40
1
 40
1
 10
285.420054
 20
531.271390
 30
0.0
 10
285.729736
 20
531.450466
 30
0.0
 10
285.920180
 20
531.781335
 30
0.0
 10
285.919474
 20
532.139074
 30
0.0
  0
LWPOLYLINE
  5
11a
100
AcDbEntity
  8
0
 62
7
100
AcDbPolyline
 90
8
 70
1
 10
219.006426
 20
455.872825
 30
0.0
 10
299.006429
 20
455.872825
 30
0.0
 10
299.006429
 20
435.872826
 30
0.0
 10
219.006426
 20
435.872826
 30
0.0
 10
219.006426
 20
455.872825
 30
0.0
 10
219.006426
 20
455.872825
 30
0.0
 10
219.006426
 20
455.872825
 30
0.0
 10
219.006426
 20
455.872825
 30
0.0
  0
SPLINE
  5
11b
100
AcDbEntity
  8
0
 62
7
100
AcDbSpline
 70
8
 71
3
 72
8
 73
4
 74
0
 40
0
 40
0
 40
0
 40
0
 40
1
 40
1
 40
1
 40
1
 10
296.598453
 20
487.732909
 30
0.0
 10
296.598453
 20
488.000859
 30
0.0
 10
296.455507
 20
488.248455
 30
0.0
 10
296.223464
 20
488.382432
 30
0.0
  0
SPLINE
  5
11c
100
AcDbEntity
  8
0
 62
7
100
AcDbSpline
 70
8
 71
3
 72
8
 73
4
 74
0
 40
0
 40
0
 40
0
 40
0
 40
1
 40
1
 40
1
 40
1
 10
296.223464
 20
488.382432
 30
0.0
 10
295.991393
 20
488.516408
 30
0.0
 10
295.705502
 20
488.516408
 30
0.0
 10
295.473459
 20
488.382432
 30
0.0
  0
SPLINE
  5
11d
100
AcDbEntity
  8
0
 62
7
100
AcDbSpline
 70
8
 71
3
 72
8
 73
4
 74
0
 40
0
 40
0
 40
0
 40
0
 40
1
 40
1
 40
1
 40
1
 10
295.473459
 20
488.382432
 30
0.0
 10
295.241387
 20
488.248455
 30
0.0
 10
295.098442
 20
488.000859
 30
0.0
 10
295.098442
 20
487.732909
 30
0.0
  0
SPLINE
  5
11e
100
AcDbEntity
  8
0
 62
7
100
AcDbSpline
 70
8
 71
3
 72
8
 73
4
 74
0
 40
0
 40
0
 40
0
 40
0
 40
1
 40
1
 40
1
 40
1
 10
295.098442
 20
487.732909
 30
0.0
 10
295.098442
 20
487.464956
 30
0.0
 10
295.241387
 20
487.217359
 30
0.0
 10
295.473459
 20
487.083386
 30
0.0
  0
SPLINE
  5
11f
100
AcDbEntity
  8
0
 62
7
100
AcDbSpline
 70
8
 71
3
 72
8
 73
4
 74
0
 40
0
 40
0
 40
0
 40
0
 40
1
 40
1
 40
1
 40
1
 10
295.473459
 20
487.083386
 30
0.0
 10
295.705502
 20
486.949409
 30
0.0
 10
295.991393
 20
486.949409
 30
0.0
 10
296.223464
 20
487.083386
 30
0.0
  0
SPLINE
  5
120
100
AcDbEntity
  8
0
 62
7
100
AcDbSpline
 70
8
 71
3
 72
8
 73
4
 74
0
 40
0
 40
0
 40
0
 40
0
 40
1
 40
1
 40
1
 40
1
 10
296.223464
 20
487.083386
 30
0.0
 10
296.455507
 20
487.217359
 30
0.0
 10
296.598453
 20
487.464956
 30
0.0
 10
296.598453
 20
487.732909
 30
0.0
  0
LWPOLYLINE
  5
121
100
AcDbEntity
  8
0
 62
7
100
AcDbPolyline
 90
4
 70
1
 10
274.817930
 20
546.346745
 30
0.0
 10
274.817930
 20
546.346745
 30
0.0
 10
274.817930
 20
546.346745
 30
0.0
 10
274.817930
 20
546.346745
 30
0.0
  0
SPLINE
  5
122
100
AcDbEntity
  8
0
 62
7
100
AcDbSpline
 70
8
 71
3
 72
8
 73
4
 74
0
 40
0
 40
0
 40
0
 40
0
 40
1
 40
1
 40
1
 40
1
 10
291.479083
 20
546.404264
 30
0.0
 10
291.479083
 20
546.673058
 30
0.0
 10
291.337690
 20
546.921984
 30
0.0
 10
291.105110
 20
547.056751
 30
0.0
  0
SPLINE
  5
123
100
AcDbEntity
  8
0
 62
7
100
AcDbSpline
 70
8
 71
3
 72
8
 73
4
 74
0
 40
0
 40
0
 40
0
 40
0
 40
1
 40
1
 40
1
 40
1
 10
291.105110
 20
547.056751
 30
0.0
 10
290.872559
 20
547.191520
 30
0.0
 10
290.585624
 20
547.191520
 30
0.0
 10
290.353073
 20
547.056751
 30
0.0
  0
SPLINE
  5
124
100
AcDbEntity
  8
0
 62
7
100
AcDbSpline
 70
8
 71
3
 72
8
 73
4
 74
0
 40
0
 40
0
 40
0
 40
0
 40
1
 40
1
 40
1
 40
1
 10
290.353073
 20
547.056751
 30
0.0
 10
290.120493
 20
546.921984
 30
0.0
 10
289.977830
 20
546.673058
 30
0.0
 10
289.979100
 20
546.404264
 30
0.0
  0
SPLINE
  5
125
100
AcDbEntity
  8
0
 62
7
100
AcDbSpline
 70
8
 71
3
 72
8
 73
4
 74
0
 40
0
 40
0
 40
0
 40
0
 40
1
 40
1
 40
1
 40
1
 10
289.979100
 20
546.404264
 30
0.0
 10
289.979100
 20
546.135467
 30
0.0
 10
290.120493
 20
545.886545
 30
0.0
 10
290.353073
 20
545.751775
 30
0.0
  0
SPLINE
  5
126
100
AcDbEntity
  8
0
 62
7
100
AcDbSpline
 70
8
 71
3
 72
8
 73
4
 74
0
 40
0
 40
0
 40
0
 40
0
 40
1
 40
1
 40
1
 40
1
 10
290.353073
 20
545.751775
 30
0.0
 10
290.585624
 20
545.617008
 30
0.0
 10
290.872559
 20
545.617008
 30
0.0
 10
291.105110
 20
545.751775
 30
0.0
  0
SPLINE
  5
127
100
AcDbEntity
  8
0
 62
7
100
AcDbSpline
 70
8
 71
3
 72
8
 73
4
 74
0
 40
0
 40
0
 40
0
 40
0
 40
1
 40
1
 40
1
 40
1
 10
291.105110
 20
545.751775
 30
0.0
 10
291.337690
 20
545.886545
 30
0.0
 10
291.480353
 20
546.135467
 30
0.0
 10
291.479083
 20
546.404264
 30
0.0
  0
LWPOLYLINE
  5
128
100
AcDbEntity
  8
0
 62
7
100
AcDbPolyline
 90
4
 70
1
 10
285.919474
 20
532.139074
 30
0.0
 10
285.919474
 20
532.139074
 30
0.0
 10
285.919474
 20
532.139074
 30
0.0
 10
285.919474
 20
532.139074
 30
0.0
  0
SPLINE
  5
129
100
AcDbEntity
  8
0
 62
7
100
AcDbSpline
 70
8
 71
3
 72
8
 73
4
 74
0
 40
0
 40
0
 40
0
 40
0
 40
1
 40
1
 40
1
 40
1
 10
276.581170
 20
522.763161
 30
0.0
 10
276.581170
 20
523.031111
 30
0.0
 10
276.438219
 20
523.278707
 30
0.0
 10
276.206167
 20
523.412684
 30
0.0
  0
SPLINE
  5
12a
100
AcDbEntity
  8
0
 62
7
100
AcDbSpline
 70
8
 71
3
 72
8
 73
4
 74
0
 40
0
 40
0
 40
0
 40
0
 40
1
 40
1
 40
1
 40
1
 10
276.206167
 20
523.412684
 30
0.0
 10
275.974116
 20
523.546660
 30
0.0
 10
275.688213
 20
523.546660
 30
0.0
 10
275.456162
 20
523.412684
 30
0.0
  0
SPLINE
  5
12b
100
AcDbEntity
  8
0
 62
7
100
AcDbSpline
 70
8
 71
3
 72
8
 73
4
 74
0
 40
0
 40
0
 40
0
 40
0
 40
1
 40
1
 40
1
 40
1
 10
275.456162
 20
523.412684
 30
0.0
 10
275.224110
 20
523.278707
 30
0.0
 10
275.081159
 20
523.031111
 30
0.0
 10
275.081159
 20
522.763161
 30
0.0
  0
SPLINE
  5
12c
100
AcDbEntity
  8
0
 62
7
100
AcDbSpline
 70
8
 71
3
 72
8
 73
4
 74
0
 40
0
 40
0
 40
0
 40
0
 40
1
 40
1
 40
1
 40
1
 10
275.081159
 20
522.763161
 30
0.0
 10
275.081159
 20
522.348943
 30
0.0
 10
275.416947
 20
522.013155
 30
0.0
 10
275.831165
 20
522.013155
 30
0.0
  0
SPLINE
  5
12d
100
AcDbEntity
  8
0
 62
7
100
AcDbSpline
 70
8
 71
3
 72
8
 73
4
 74
0
 40
0
 40
0
 40
0
 40
0
 40
1
 40
1
 40
1
 40
1
 10
275.831165
 20
522.013155
 30
0.0
 10
276.245382
 20
522.013155
 30
0.0
 10
276.581170
 20
522.348943
 30
0.0
 10
276.581170
 20
522.763161
 30
0.0
  0
LWPOLYLINE
  5
12e
100
AcDbEntity
  8
0
 62
7
100
AcDbPolyline
 90
4
 70
1
 10
296.598453
 20
487.732909
 30
0.0
 10
296.598453
 20
487.732909
 30
0.0
 10
296.598453
 20
487.732909
 30
0.0
 10
296.598453
 20
487.732909
 30
0.0
  0
SPLINE
  5
12f
100
AcDbEntity
  8
0
 62
7
100
AcDbSpline
 70
8
 71
3
 72
8
 73
4
 74
0
 40
0
 40
0
 40
0
 40
0
 40
1
 40
1
 40
1
 40
1
 10
269.736181
 20
510.856327
 30
0.0
 10
269.736181
 20
511.124277
 30
0.0
 10
269.593229
 20
511.371873
 30
0.0
 10
269.361178
 20
511.505850
 30
0.0
  0
SPLINE
  5
130
100
AcDbEntity
  8
0
 62
7
100
AcDbSpline
 70
8
 71
3
 72
8
 73
4
 74
0
 40
0
 40
0
 40
0
 40
0
 40
1
 40
1
 40
1
 40
1
 10
269.361178
 20
511.505850
 30
0.0
 10
269.129126
 20
511.639826
 30
0.0
 10
268.843224
 20
511.639826
 30
0.0
 10
268.611172
 20
511.505850
 30
0.0
  0
SPLINE
  5
131
100
AcDbEntity
  8
0
 62
7
100
AcDbSpline
 70
8
 71
3
 72
8
 73
4
 74
0
 40
0
 40
0
 40
0
 40
0
 40
1
 40
1
 40
1
 40
1
 10
268.611172
 20
511.505850
 30
0.0
 10
268.379121
 20
511.371873
 30
0.0
 10
268.236169
 20
511.124277
 30
0.0
 10
268.236169
 20
510.856327
 30
0.0
  0
SPLINE
  5
132
100
AcDbEntity
  8
0
 62
7
100
AcDbSpline
 70
8
 71
3
 72
8
 73
4
 74
0
 40
0
 40
0
 40
0
 40
0
 40
1
 40
1
 40
1
 40
1
 10
268.236169
 20
510.856327
 30
0.0
 10
268.236169
 20
510.588373
 30
0.0
 10
268.379121
 20
510.340777
 30
0.0
 10
268.611172
 20
510.206803
 30
0.0
  0
SPLINE
  5
133
100
AcDbEntity
  8
0
 62
7
100
AcDbSpline
 70
8
 71
3
 72
8
 73
4
 74
0
 40
0
 40
0
 40
0
 40
0
 40
1
 40
1
 40
1
 40
1
 10
268.611172
 20
510.206803
 30
0.0
 10
268.843224
 20
510.072827
 30
0.0
 10
269.129126
 20
510.072827
 30
0.0
 10
269.361178
 20
510.206803
 30
0.0
  0
SPLINE
  5
134
100
AcDbEntity
  8
0
 62
7
100
AcDbSpline
 70
8
 71
3
 72
8
 73
4
 74
0
 40
0
 40
0
 40
0
 40
0
 40
1
 40
1
 40
1
 40
1
 10
269.361178
 20
510.206803
 30
0.0
 10
269.593229
 20
510.340777
 30
0.0
 10
269.736181
 20
510.588373
 30
0.0
 10
269.736181
 20
510.856327
 30
0.0
  0
LWPOLYLINE
  5
135
100
AcDbEntity
  8
0
 62
7
100
AcDbPolyline
 90
4
 70
1
 10
291.479083
 20
546.404264
 30
0.0
 10
291.479083
 20
546.404264
 30
0.0
 10
291.479083
 20
546.404264
 30
0.0
 10
291.479083
 20
546.404264
 30
0.0
  0
SPLINE
  5
136
100
AcDbEntity
  8
0
 62
7
100
AcDbSpline
 70
8
 71
3
 72
8
 73
4
 74
0
 40
0
 40
0
 40
0
 40
0
 40
1
 40
1
 40
1
 40
1
 10
278.479369
 20
492.622189
 30
0.0
 10
278.479369
 20
492.890139
 30
0.0
 10
278.336417
 20
493.137735
 30
0.0
 10
278.104366
 20
493.271712
 30
0.0
  0
SPLINE
  5
137
100
AcDbEntity
  8
0
 62
7
100
AcDbSpline
 70
8
 71
3
 72
8
 73
4
 74
0
 40
0
 40
0
 40
0
 40
0
 40
1
 40
1
 40
1
 40
1
 10
278.104366
 20
493.271712
 30
0.0
 10
277.872314
 20
493.405688
 30
0.0
 10
277.586412
 20
493.405688
 30
0.0
 10
277.354360
 20
493.271712
 30
0.0
  0
SPLINE
  5
138
100
AcDbEntity
  8
0
 62
7
100
AcDbSpline
 70
8
 71
3
 72
8
 73
4
 74
0
 40
0
 40
0
 40
0
 40
0
 40
1
 40
1
 40
1
 40
1
 10
277.354360
 20
493.271712
 30
0.0
 10
277.122309
 20
493.137735
 30
0.0
 10
276.979357
 20
492.890139
 30
0.0
 10
276.979357
 20
492.622189
 30
0.0
  0
SPLINE
  5
139
100
AcDbEntity
  8
0
 62
7
100
AcDbSpline
 70
8
 71
3
 72
8
 73
4
 74
0
 40
0
 40
0
 40
0
 40
0
 40
1
 40
1
 40
1
 40
1
 10
276.979357
 20
492.622189
 30
0.0
 10
276.979357
 20
492.354236
 30
0.0
 10
277.122309
 20
492.106639
 30
0.0
 10
277.354360
 20
491.972665
 30
0.0
  0
SPLINE
  5
13a
100
AcDbEntity
  8
0
 62
7
100
AcDbSpline
 70
8
 71
3
 72
8
 73
4
 74
0
 40
0
 40
0
 40
0
 40
0
 40
1
 40
1
 40
1
 40
1
 10
277.354360
 20
491.972665
 30
0.0
 10
277.586412
 20
491.838689
 30
0.0
 10
277.872314
 20
491.838689
 30
0.0
 10
278.104366
 20
491.972665
 30
0.0
  0
SPLINE
  5
13b
100
AcDbEntity
  8
0
 62
7
100
AcDbSpline
 70
8
 71
3
 72
8
 73
4
 74
0
 40
0
 40
0
 40
0
 40
0
 40
1
 40
1
 40
1
 40
1
 10
278.104366
 20
491.972665
 30
0.0
 10
278.336417
 20
492.106639
 30
0.0
 10
278.479369
 20
492.354236
 30
0.0
 10
278.479369
 20
492.622189
 30
0.0
  0
LWPOLYLINE
  5
13c
100
AcDbEntity
  8
0
 62
7
100
AcDbPolyline
 90
4
 70
1
 10
276.581170
 20
522.763161
 30
0.0
 10
276.581170
 20
522.763161
 30
0.0
 10
276.581170
 20
522.763161
 30
0.0
 10
276.581170
 20
522.763161
 30
0.0
  0
SPLINE
  5
13d
100
AcDbEntity
  8
0
 62
7
100
AcDbSpline
 70
8
 71
3
 72
8
 73
4
 74
0
 40
0
 40
0
 40
0
 40
0
 40
1
 40
1
 40
1
 40
1
 10
272.382155
 20
498.316761
 30
0.0
 10
272.382155
 20
498.584712
 30
0.0
 10
272.239204
 20
498.832311
 30
0.0
 10
272.007152
 20
498.966285
 30
0.0
  0
SPLINE
  5
13e
100
AcDbEntity
  8
0
 62
7
100
AcDbSpline
 70
8
 71
3
 72
8
 73
4
 74
0
 40
0
 40
0
 40
0
 40
0
 40
1
 40
1
 40
1
 40
1
 10
272.007152
 20
498.966285
 30
0.0
 10
271.775101
 20
499.100261
 30
0.0
 10
271.489198
 20
499.100261
 30
0.0
 10
271.257147
 20
498.966285
 30
0.0
  0
SPLINE
  5
13f
100
AcDbEntity
  8
0
 62
7
100
AcDbSpline
 70
8
 71
3
 72
8
 73
4
 74
0
 40
0
 40
0
 40
0
 40
0
 40
1
 40
1
 40
1
 40
1
 10
271.257147
 20
498.966285
 30
0.0
 10
271.025095
 20
498.832311
 30
0.0
 10
270.882144
 20
498.584712
 30
0.0
 10
270.882144
 20
498.316761
 30
0.0
  0
SPLINE
  5
140
100
AcDbEntity
  8
0
 62
7
100
AcDbSpline
 70
8
 71
3
 72
8
 73
4
 74
0
 40
0
 40
0
 40
0
 40
0
 40
1
 40
1
 40
1
 40
1
 10
270.882144
 20
498.316761
 30
0.0
 10
270.882144
 20
498.048808
 30
0.0
 10
271.025095
 20
497.801212
 30
0.0
 10
271.257147
 20
497.667235
 30
0.0
  0
SPLINE
  5
141
100
AcDbEntity
  8
0
 62
7
100
AcDbSpline
 70
8
 71
3
 72
8
 73
4
 74
0
 40
0
 40
0
 40
0
 40
0
 40
1
 40
1
 40
1
 40
1
 10
271.257147
 20
497.667235
 30
0.0
 10
271.489198
 20
497.533262
 30
0.0
 10
271.775101
 20
497.533262
 30
0.0
 10
272.007152
 20
497.667235
 30
0.0
  0
SPLINE
  5
142
100
AcDbEntity
  8
0
 62
7
100
AcDbSpline
 70
8
 71
3
 72
8
 73
4
 74
0
 40
0
 40
0
 40
0
 40
0
 40
1
 40
1
 40
1
 40
1
 10
272.007152
 20
497.667235
 30
0.0
 10
272.239204
 20
497.801212
 30
0.0
 10
272.382155
 20
498.048808
 30
0.0
 10
272.382155
 20
498.316761
 30
0.0
  0
LWPOLYLINE
  5
143
100
AcDbEntity
  8
0
 62
7
100
AcDbPolyline
 90
4
 70
1
 10
269.736181
 20
510.856327
 30
0.0
 10
269.736181
 20
510.856327
 30
0.0
 10
269.736181
 20
510.856327
 30
0.0
 10
269.736181
 20
510.856327
 30
0.0
  0
SPLINE
  5
144
100
AcDbEntity
  8
0
 62
7
100
AcDbSpline
 70
8
 71
3
 72
8
 73
4
 74
0
 40
0
 40
0
 40
0
 40
0
 40
1
 40
1
 40
1
 40
1
 10
252.749818
 20
485.144468
 30
0.0
 10
252.749818
 20
485.591051
 30
0.0
 10
252.511568
 20
486.003711
 30
0.0
 10
252.124814
 20
486.227002
 30
0.0
  0
SPLINE
  5
145
100
AcDbEntity
  8
0
 62
7
100
AcDbSpline
 70
8
 71
3
 72
8
 73
4
 74
0
 40
0
 40
0
 40
0
 40
0
 40
1
 40
1
 40
1
 40
1
 10
252.124814
 20
486.227002
 30
0.0
 10
251.738062
 20
486.450296
 30
0.0
 10
251.261564
 20
486.450296
 30
0.0
 10
250.874812
 20
486.227002
 30
0.0
  0
SPLINE
  5
146
100
AcDbEntity
  8
0
 62
7
100
AcDbSpline
 70
8
 71
3
 72
8
 73
4
 74
0
 40
0
 40
0
 40
0
 40
0
 40
1
 40
1
 40
1
 40
1
 10
250.874812
 20
486.227002
 30
0.0
 10
250.488058
 20
486.003711
 30
0.0
 10
250.249809
 20
485.591051
 30
0.0
 10
250.249809
 20
485.144468
 30
0.0
  0
SPLINE
  5
147
100
AcDbEntity
  8
0
 62
7
100
AcDbSpline
 70
8
 71
3
 72
8
 73
4
 74
0
 40
0
 40
0
 40
0
 40
0
 40
1
 40
1
 40
1
 40
1
 10
250.249809
 20
485.144468
 30
0.0
 10
250.249809
 20
484.697883
 30
0.0
 10
250.488058
 20
484.285223
 30
0.0
 10
250.874812
 20
484.061931
 30
0.0
  0
SPLINE
  5
148
100
AcDbEntity
  8
0
 62
7
100
AcDbSpline
 70
8
 71
3
 72
8
 73
4
 74
0
 40
0
 40
0
 40
0
 40
0
 40
1
 40
1
 40
1
 40
1
 10
250.874812
 20
484.061931
 30
0.0
 10
251.261564
 20
483.838640
 30
0.0
 10
251.738062
 20
483.838640
 30
0.0
 10
252.124814
 20
484.061931
 30
0.0
  0
SPLINE
  5
149
100
AcDbEntity
  8
0
 62
7
100
AcDbSpline
 70
8
 71
3
 72
8
 73
4
 74
0
 40
0
 40
0
 40
0
 40
0
 40
1
 40
1
 40
1
 40
1
 10
252.124814
 20
484.061931
 30
0.0
 10
252.511568
 20
484.285223
 30
0.0
 10
252.749818
 20
484.697883
 30
0.0
 10
252.749818
 20
485.144468
 30
0.0
  0
LWPOLYLINE
  5
14a
100
AcDbEntity
  8
0
 62
7
100
AcDbPolyline
 90
4
 70
1
 10
278.479369
 20
492.622189
 30
0.0
 10
278.479369
 20
492.622189
 30
0.0
 10
278.479369
 20
492.622189
 30
0.0
 10
278.479369
 20
492.622189
 30
0.0
  0
SPLINE
  5
14b
100
AcDbEntity
  8
0
 62
7
100
AcDbSpline
 70
8
 71
3
 72
8
 73
4
 74
0
 40
0
 40
0
 40
0
 40
0
 40
1
 40
1
 40
1
 40
1
 10
240.210261
 20
503.263564
 30
0.0
 10
240.210261
 20
503.710147
 30
0.0
 10
239.972012
 20
504.122806
 30
0.0
 10
239.585260
 20
504.346098
 30
0.0
  0
SPLINE
  5
14c
100
AcDbEntity
  8
0
 62
7
100
AcDbSpline
 70
8
 71
3
 72
8
 73
4
 74
0
 40
0
 40
0
 40
0
 40
0
 40
1
 40
1
 40
1
 40
1
 10
239.585260
 20
504.346098
 30
0.0
 10
239.198506
 20
504.569389
 30
0.0
 10
238.722007
 20
504.569389
 30
0.0
 10
238.335253
 20
504.346098
 30
0.0
  0
SPLINE
  5
14d
100
AcDbEntity
  8
0
 62
7
100
AcDbSpline
 70
8
 71
3
 72
8
 73
4
 74
0
 40
0
 40
0
 40
0
 40
0
 40
1
 40
1
 40
1
 40
1
 10
238.335253
 20
504.346098
 30
0.0
 10
237.948501
 20
504.122806
 30
0.0
 10
237.710252
 20
503.710147
 30
0.0
 10
237.710252
 20
503.263564
 30
0.0
  0
SPLINE
  5
14e
100
AcDbEntity
  8
0
 62
7
100
AcDbSpline
 70
8
 71
3
 72
8
 73
4
 74
0
 40
0
 40
0
 40
0
 40
0
 40
1
 40
1
 40
1
 40
1
 10
237.710252
 20
503.263564
 30
0.0
 10
237.710252
 20
502.816978
 30
0.0
 10
237.948501
 20
502.404318
 30
0.0
 10
238.335253
 20
502.181027
 30
0.0
  0
SPLINE
  5
14f
100
AcDbEntity
  8
0
 62
7
100
AcDbSpline
 70
8
 71
3
 72
8
 73
4
 74
0
 40
0
 40
0
 40
0
 40
0
 40
1
 40
1
 40
1
 40
1
 10
238.335253
 20
502.181027
 30
0.0
 10
238.722007
 20
501.957736
 30
0.0
 10
239.198506
 20
501.957736
 30
0.0
 10
239.585260
 20
502.181027
 30
0.0
  0
SPLINE
  5
150
100
AcDbEntity
  8
0
 62
7
100
AcDbSpline
 70
8
 71
3
 72
8
 73
4
 74
0
 40
0
 40
0
 40
0
 40
0
 40
1
 40
1
 40
1
 40
1
 10
239.585260
 20
502.181027
 30
0.0
 10
239.972012
 20
502.404318
 30
0.0
 10
240.210261
 20
502.816978
 30
0.0
 10
240.210261
 20
503.263564
 30
0.0
  0
LWPOLYLINE
  5
151
100
AcDbEntity
  8
0
 62
7
100
AcDbPolyline
 90
4
 70
1
 10
272.382155
 20
498.316761
 30
0.0
 10
272.382155
 20
498.316761
 30
0.0
 10
272.382155
 20
498.316761
 30
0.0
 10
272.382155
 20
498.316761
 30
0.0
  0
SPLINE
  5
152
100
AcDbEntity
  8
0
 62
7
100
AcDbSpline
 70
8
 71
3
 72
8
 73
4
 74
0
 40
0
 40
0
 40
0
 40
0
 40
1
 40
1
 40
1
 40
1
 10
291.518933
 20
520.059675
 30
0.0
 10
291.518933
 20
520.506258
 30
0.0
 10
291.280681
 20
520.918918
 30
0.0
 10
290.893923
 20
521.142212
 30
0.0
  0
SPLINE
  5
153
100
AcDbEntity
  8
0
 62
7
100
AcDbSpline
 70
8
 71
3
 72
8
 73
4
 74
0
 40
0
 40
0
 40
0
 40
0
 40
1
 40
1
 40
1
 40
1
 10
290.893923
 20
521.142212
 30
0.0
 10
290.507166
 20
521.365500
 30
0.0
 10
290.030690
 20
521.365500
 30
0.0
 10
289.643933
 20
521.142212
 30
0.0
  0
SPLINE
  5
154
100
AcDbEntity
  8
0
 62
7
100
AcDbSpline
 70
8
 71
3
 72
8
 73
4
 74
0
 40
0
 40
0
 40
0
 40
0
 40
1
 40
1
 40
1
 40
1
 10
289.643933
 20
521.142212
 30
0.0
 10
289.257176
 20
520.918918
 30
0.0
 10
289.018924
 20
520.506258
 30
0.0
 10
289.018924
 20
520.059675
 30
0.0
  0
SPLINE
  5
155
100
AcDbEntity
  8
0
 62
7
100
AcDbSpline
 70
8
 71
3
 72
8
 73
4
 74
0
 40
0
 40
0
 40
0
 40
0
 40
1
 40
1
 40
1
 40
1
 10
289.018924
 20
520.059675
 30
0.0
 10
289.018924
 20
519.613089
 30
0.0
 10
289.257176
 20
519.200430
 30
0.0
 10
289.643933
 20
518.977138
 30
0.0
  0
SPLINE
  5
156
100
AcDbEntity
  8
0
 62
7
100
AcDbSpline
 70
8
 71
3
 72
8
 73
4
 74
0
 40
0
 40
0
 40
0
 40
0
 40
1
 40
1
 40
1
 40
1
 10
289.643933
 20
518.977138
 30
0.0
 10
290.030690
 20
518.753847
 30
0.0
 10
290.507166
 20
518.753847
 30
0.0
 10
290.893923
 20
518.977138
 30
0.0
  0
SPLINE
  5
157
100
AcDbEntity
  8
0
 62
7
100
AcDbSpline
 70
8
 71
3
 72
8
 73
4
 74
0
 40
0
 40
0
 40
0
 40
0
 40
1
 40
1
 40
1
 40
1
 10
290.893923
 20
518.977138
 30
0.0
 10
291.280681
 20
519.200430
 30
0.0
 10
291.518933
 20
519.613089
 30
0.0
 10
291.518933
 20
520.059675
 30
0.0
  0
LWPOLYLINE
  5
158
100
AcDbEntity
  8
0
 62
7
100
AcDbPolyline
 90
4
 70
1
 10
252.749818
 20
485.144468
 30
0.0
 10
252.749818
 20
485.144468
 30
0.0
 10
252.749818
 20
485.144468
 30
0.0
 10
252.749818
 20
485.144468
 30
0.0
  0
SPLINE
  5
159
100
AcDbEntity
  8
0
 62
7
100
AcDbSpline
 70
8
 71
3
 72
8
 73
4
 74
0
 40
0
 40
0
 40
0
 40
0
 40
1
 40
1
 40
1
 40
1
 10
250.314014
 20
501.883060
 30
0.0
 10
250.314861
 20
502.240796
 30
0.0
 10
250.124282
 20
502.571665
 30
0.0
 10
249.814591
 20
502.750741
 30
0.0
  0
SPLINE
  5
15a
100
AcDbEntity
  8
0
 62
7
100
AcDbSpline
 70
8
 71
3
 72
8
 73
4
 74
0
 40
0
 40
0
 40
0
 40
0
 40
1
 40
1
 40
1
 40
1
 10
249.814591
 20
502.750741
 30
0.0
 10
249.504897
 20
502.929816
 30
0.0
 10
249.123135
 20
502.929816
 30
0.0
 10
248.813441
 20
502.750741
 30
0.0
  0
SPLINE
  5
15b
100
AcDbEntity
  8
0
 62
7
100
AcDbSpline
 70
8
 71
3
 72
8
 73
4
 74
0
 40
0
 40
0
 40
0
 40
0
 40
1
 40
1
 40
1
 40
1
 10
248.813441
 20
502.750741
 30
0.0
 10
248.503750
 20
502.571665
 30
0.0
 10
248.313307
 20
502.240796
 30
0.0
 10
248.314018
 20
501.883060
 30
0.0
  0
SPLINE
  5
15c
100
AcDbEntity
  8
0
 62
7
100
AcDbSpline
 70
8
 71
3
 72
8
 73
4
 74
0
 40
0
 40
0
 40
0
 40
0
 40
1
 40
1
 40
1
 40
1
 10
248.314018
 20
501.883060
 30
0.0
 10
248.313171
 20
501.525320
 30
0.0
 10
248.503750
 20
501.194452
 30
0.0
 10
248.813441
 20
501.015379
 30
0.0
  0
SPLINE
  5
15d
100
AcDbEntity
  8
0
 62
7
100
AcDbSpline
 70
8
 71
3
 72
8
 73
4
 74
0
 40
0
 40
0
 40
0
 40
0
 40
1
 40
1
 40
1
 40
1
 10
248.813441
 20
501.015379
 30
0.0
 10
249.123135
 20
500.836303
 30
0.0
 10
249.504897
 20
500.836303
 30
0.0
 10
249.814591
 20
501.015379
 30
0.0
  0
SPLINE
  5
15e
100
AcDbEntity
  8
0
 62
7
100
AcDbSpline
 70
8
 71
3
 72
8
 73
4
 74
0
 40
0
 40
0
 40
0
 40
0
 40
1
 40
1
 40
1
 40
1
 10
249.814591
 20
501.015379
 30
0.0
 10
250.124282
 20
501.194452
 30
0.0
 10
250.314725
 20
501.525320
 30
0.0
 10
250.314014
 20
501.883060
 30
0.0
  0
LWPOLYLINE
  5
15f
100
AcDbEntity
  8
0
 62
7
100
AcDbPolyline
 90
4
 70
1
 10
240.210261
 20
503.263564
 30
0.0
 10
240.210261
 20
503.263564
 30
0.0
 10
240.210261
 20
503.263564
 30
0.0
 10
240.210261
 20
503.263564
 30
0.0
  0
SPLINE
  5
160
100
AcDbEntity
  8
0
 62
7
100
AcDbSpline
 70
8
 71
3
 72
8
 73
4
 74
0
 40
0
 40
0
 40
0
 40
0
 40
1
 40
1
 40
1
 40
1
 10
262.010686
 20
501.077767
 30
0.0
 10
262.010686
 20
501.524350
 30
0.0
 10
261.772437
 20
501.937009
 30
0.0
 10
261.385685
 20
502.160301
 30
0.0
  0
SPLINE
  5
161
100
AcDbEntity
  8
0
 62
7
100
AcDbSpline
 70
8
 71
3
 72
8
 73
4
 74
0
 40
0
 40
0
 40
0
 40
0
 40
1
 40
1
 40
1
 40
1
 10
261.385685
 20
502.160301
 30
0.0
 10
260.998930
 20
502.383592
 30
0.0
 10
260.522432
 20
502.383592
 30
0.0
 10
260.135678
 20
502.160301
 30
0.0
  0
SPLINE
  5
162
100
AcDbEntity
  8
0
 62
7
100
AcDbSpline
 70
8
 71
3
 72
8
 73
4
 74
0
 40
0
 40
0
 40
0
 40
0
 40
1
 40
1
 40
1
 40
1
 10
260.135678
 20
502.160301
 30
0.0
 10
259.748926
 20
501.937009
 30
0.0
 10
259.510677
 20
501.524350
 30
0.0
 10
259.510677
 20
501.077767
 30
0.0
  0
SPLINE
  5
163
100
AcDbEntity
  8
0
 62
7
100
AcDbSpline
 70
8
 71
3
 72
8
 73
4
 74
0
 40
0
 40
0
 40
0
 40
0
 40
1
 40
1
 40
1
 40
1
 10
259.510677
 20
501.077767
 30
0.0
 10
259.510677
 20
500.631181
 30
0.0
 10
259.748926
 20
500.218521
 30
0.0
 10
260.135678
 20
499.995230
 30
0.0
  0
SPLINE
  5
164
100
AcDbEntity
  8
0
 62
7
100
AcDbSpline
 70
8
 71
3
 72
8
 73
4
 74
0
 40
0
 40
0
 40
0
 40
0
 40
1
 40
1
 40
1
 40
1
 10
260.135678
 20
499.995230
 30
0.0
 10
260.522432
 20
499.771939
 30
0.0
 10
260.998930
 20
499.771939
 30
0.0
 10
261.385685
 20
499.995230
 30
0.0
  0
SPLINE
  5
165
100
AcDbEntity
  8
0
 62
7
100
AcDbSpline
 70
8
 71
3
 72
8
 73
4
 74
0
 40
0
 40
0
 40
0
 40
0
 40
1
 40
1
 40
1
 40
1
 10
261.385685
 20
499.995230
 30
0.0
 10
261.772437
 20
500.218521
 30
0.0
 10
262.010686
 20
500.631181
 30
0.0
 10
262.010686
 20
501.077767
 30
0.0
  0
LWPOLYLINE
  5
166
100
AcDbEntity
  8
0
 62
7
100
AcDbPolyline
 90
4
 70
1
 10
291.518933
 20
520.059675
 30
0.0
 10
291.518933
 20
520.059675
 30
0.0
 10
291.518933
 20
520.059675
 30
0.0
 10
291.518933
 20
520.059675
 30
0.0
  0
SPLINE
  5
167
100
AcDbEntity
  8
0
 62
7
100
AcDbSpline
 70
8
 71
3
 72
8
 73
4
 74
0
 40
0
 40
0
 40
0
 40
0
 40
1
 40
1
 40
1
 40
1
 10
300.434671
 20
503.090999
 30
0.0
 10
300.434671
 20
503.537582
 30
0.0
 10
300.196419
 20
503.950241
 30
0.0
 10
299.809662
 20
504.173533
 30
0.0
  0
SPLINE
  5
168
100
AcDbEntity
  8
0
 62
7
100
AcDbSpline
 70
8
 71
3
 72
8
 73
4
 74
0
 40
0
 40
0
 40
0
 40
0
 40
1
 40
1
 40
1
 40
1
 10
299.809662
 20
504.173533
 30
0.0
 10
299.422905
 20
504.396824
 30
0.0
 10
298.946429
 20
504.396824
 30
0.0
 10
298.559672
 20
504.173533
 30
0.0
  0
SPLINE
  5
169
100
AcDbEntity
  8
0
 62
7
100
AcDbSpline
 70
8
 71
3
 72
8
 73
4
 74
0
 40
0
 40
0
 40
0
 40
0
 40
1
 40
1
 40
1
 40
1
 10
298.559672
 20
504.173533
 30
0.0
 10
298.172914
 20
503.950241
 30
0.0
 10
297.934662
 20
503.537582
 30
0.0
 10
297.934662
 20
503.090999
 30
0.0
  0
SPLINE
  5
16a
100
AcDbEntity
  8
0
 62
7
100
AcDbSpline
 70
8
 71
3
 72
8
 73
4
 74
0
 40
0
 40
0
 40
0
 40
0
 40
1
 40
1
 40
1
 40
1
 10
297.934662
 20
503.090999
 30
0.0
 10
297.934662
 20
502.644413
 30
0.0
 10
298.172914
 20
502.231754
 30
0.0
 10
298.559672
 20
502.008462
 30
0.0
  0
SPLINE
  5
16b
100
AcDbEntity
  8
0
 62
7
100
AcDbSpline
 70
8
 71
3
 72
8
 73
4
 74
0
 40
0
 40
0
 40
0
 40
0
 40
1
 40
1
 40
1
 40
1
 10
298.559672
 20
502.008462
 30
0.0
 10
298.946429
 20
501.785171
 30
0.0
 10
299.422905
 20
501.785171
 30
0.0
 10
299.809662
 20
502.008462
 30
0.0
  0
SPLINE
  5
16c
100
AcDbEntity
  8
0
 62
7
100
AcDbSpline
 70
8
 71
3
 72
8
 73
4
 74
0
 40
0
 40
0
 40
0
 40
0
 40
1
 40
1
 40
1
 40
1
 10
299.809662
 20
502.008462
 30
0.0
 10
300.196419
 20
502.231754
 30
0.0
 10
300.434671
 20
502.644413
 30
0.0
 10
300.434671
 20
503.090999
 30
0.0
  0
LWPOLYLINE
  5
16d
100
AcDbEntity
  8
0
 62
7
100
AcDbPolyline
 90
4
 70
1
 10
250.314014
 20
501.883060
 30
0.0
 10
250.314014
 20
501.883060
 30
0.0
 10
250.314014
 20
501.883060
 30
0.0
 10
250.314014
 20
501.883060
 30
0.0
  0
SPLINE
  5
16e
100
AcDbEntity
  8
0
 62
7
100
AcDbSpline
 70
8
 71
3
 72
8
 73
4
 74
0
 40
0
 40
0
 40
0
 40
0
 40
1
 40
1
 40
1
 40
1
 10
265.313899
 20
519.741842
 30
0.0
 10
265.313899
 20
520.188425
 30
0.0
 10
265.075650
 20
520.601084
 30
0.0
 10
264.688896
 20
520.824376
 30
0.0
  0
SPLINE
  5
16f
100
AcDbEntity
  8
0
 62
7
100
AcDbSpline
 70
8
 71
3
 72
8
 73
4
 74
0
 40
0
 40
0
 40
0
 40
0
 40
1
 40
1
 40
1
 40
1
 10
264.688896
 20
520.824376
 30
0.0
 10
264.302144
 20
521.047667
 30
0.0
 10
263.825646
 20
521.047667
 30
0.0
 10
263.438894
 20
520.824376
 30
0.0
  0
SPLINE
  5
170
100
AcDbEntity
  8
0
 62
7
100
AcDbSpline
 70
8
 71
3
 72
8
 73
4
 74
0
 40
0
 40
0
 40
0
 40
0
 40
1
 40
1
 40
1
 40
1
 10
263.438894
 20
520.824376
 30
0.0
 10
263.052139
 20
520.601084
 30
0.0
 10
262.813890
 20
520.188425
 30
0.0
 10
262.813890
 20
519.741842
 30
0.0
  0
SPLINE
  5
171
100
AcDbEntity
  8
0
 62
7
100
AcDbSpline
 70
8
 71
3
 72
8
 73
4
 74
0
 40
0
 40
0
 40
0
 40
0
 40
1
 40
1
 40
1
 40
1
 10
262.813890
 20
519.741842
 30
0.0
 10
262.813890
 20
519.295256
 30
0.0
 10
263.052139
 20
518.882597
 30
0.0
 10
263.438894
 20
518.659305
 30
0.0
  0
SPLINE
  5
172
100
AcDbEntity
  8
0
 62
7
100
AcDbSpline
 70
8
 71
3
 72
8
 73
4
 74
0
 40
0
 40
0
 40
0
 40
0
 40
1
 40
1
 40
1
 40
1
 10
263.438894
 20
518.659305
 30
0.0
 10
263.825646
 20
518.436014
 30
0.0
 10
264.302144
 20
518.436014
 30
0.0
 10
264.688896
 20
518.659305
 30
0.0
  0
SPLINE
  5
173
100
AcDbEntity
  8
0
 62
7
100
AcDbSpline
 70
8
 71
3
 72
8
 73
4
 74
0
 40
0
 40
0
 40
0
 40
0
 40
1
 40
1
 40
1
 40
1
 10
264.688896
 20
518.659305
 30
0.0
 10
265.075650
 20
518.882597
 30
0.0
 10
265.313899
 20
519.295256
 30
0.0
 10
265.313899
 20
519.741842
 30
0.0
  0
LWPOLYLINE
  5
174
100
AcDbEntity
  8
0
 62
7
100
AcDbPolyline
 90
4
 70
1
 10
262.010686
 20
501.077767
 30
0.0
 10
262.010686
 20
501.077767
 30
0.0
 10
262.010686
 20
501.077767
 30
0.0
 10
262.010686
 20
501.077767
 30
0.0
  0
SPLINE
  5
175
100
AcDbEntity
  8
0
 62
7
100
AcDbSpline
 70
8
 71
3
 72
8
 73
4
 74
0
 40
0
 40
0
 40
0
 40
0
 40
1
 40
1
 40
1
 40
1
 10
271.616684
 20
489.285975
 30
0.0
 10
271.616684
 20
489.732558
 30
0.0
 10
271.378434
 20
490.145217
 30
0.0
 10
270.991680
 20
490.368509
 30
0.0
  0
SPLINE
  5
176
100
AcDbEntity
  8
0
 62
7
100
AcDbSpline
 70
8
 71
3
 72
8
 73
4
 74
0
 40
0
 40
0
 40
0
 40
0
 40
1
 40
1
 40
1
 40
1
 10
270.991680
 20
490.368509
 30
0.0
 10
270.604928
 20
490.591800
 30
0.0
 10
270.128430
 20
490.591800
 30
0.0
 10
269.741678
 20
490.368509
 30
0.0
  0
SPLINE
  5
177
100
AcDbEntity
  8
0
 62
7
100
AcDbSpline
 70
8
 71
3
 72
8
 73
4
 74
0
 40
0
 40
0
 40
0
 40
0
 40
1
 40
1
 40
1
 40
1
 10
269.741678
 20
490.368509
 30
0.0
 10
269.354924
 20
490.145217
 30
0.0
 10
269.116675
 20
489.732558
 30
0.0
 10
269.116675
 20
489.285975
 30
0.0
  0
SPLINE
  5
178
100
AcDbEntity
  8
0
 62
7
100
AcDbSpline
 70
8
 71
3
 72
8
 73
4
 74
0
 40
0
 40
0
 40
0
 40
0
 40
1
 40
1
 40
1
 40
1
 10
269.116675
 20
489.285975
 30
0.0
 10
269.116675
 20
488.839389
 30
0.0
 10
269.354924
 20
488.426730
 30
0.0
 10
269.741678
 20
488.203438
 30
0.0
  0
SPLINE
  5
179
100
AcDbEntity
  8
0
 62
7
100
AcDbSpline
 70
8
 71
3
 72
8
 73
4
 74
0
 40
0
 40
0
 40
0
 40
0
 40
1
 40
1
 40
1
 40
1
 10
269.741678
 20
488.203438
 30
0.0
 10
270.128430
 20
487.980147
 30
0.0
 10
270.604928
 20
487.980147
 30
0.0
 10
270.991680
 20
488.203438
 30
0.0
  0
SPLINE
  5
17a
100
AcDbEntity
  8
0
 62
7
100
AcDbSpline
 70
8
 71
3
 72
8
 73
4
 74
0
 40
0
 40
0
 40
0
 40
0
 40
1
 40
1
 40
1
 40
1
 10
270.991680
 20
488.203438
 30
0.0
 10
271.378434
 20
488.426730
 30
0.0
 10
271.616684
 20
488.839389
 30
0.0
 10
271.616684
 20
489.285975
 30
0.0
  0
LWPOLYLINE
  5
17b
100
AcDbEntity
  8
0
 62
7
100
AcDbPolyline
 90
4
 70
1
 10
300.434671
 20
503.090999
 30
0.0
 10
300.434671
 20
503.090999
 30
0.0
 10
300.434671
 20
503.090999
 30
0.0
 10
300.434671
 20
503.090999
 30
0.0
  0
SPLINE
  5
17c
100
AcDbEntity
  8
0
 62
7
100
AcDbSpline
 70
8
 71
3
 72
8
 73
4
 74
0
 40
0
 40
0
 40
0
 40
0
 40
1
 40
1
 40
1
 40
1
 10
245.864978
 20
506.829859
 30
0.0
 10
245.866389
 20
507.098653
 30
0.0
 10
245.723588
 20
507.347579
 30
0.0
 10
245.491014
 20
507.482346
 30
0.0
  0
SPLINE
  5
17d
100
AcDbEntity
  8
0
 62
7
100
AcDbSpline
 70
8
 71
3
 72
8
 73
4
 74
0
 40
0
 40
0
 40
0
 40
0
 40
1
 40
1
 40
1
 40
1
 10
245.491014
 20
507.482346
 30
0.0
 10
245.258443
 20
507.617115
 30
0.0
 10
244.971530
 20
507.617115
 30
0.0
 10
244.738960
 20
507.482346
 30
0.0
  0
SPLINE
  5
17e
100
AcDbEntity
  8
0
 62
7
100
AcDbSpline
 70
8
 71
3
 72
8
 73
4
 74
0
 40
0
 40
0
 40
0
 40
0
 40
1
 40
1
 40
1
 40
1
 10
244.738960
 20
507.482346
 30
0.0
 10
244.506386
 20
507.347579
 30
0.0
 10
244.363717
 20
507.098653
 30
0.0
 10
244.364995
 20
506.829859
 30
0.0
  0
SPLINE
  5
17f
100
AcDbEntity
  8
0
 62
7
100
AcDbSpline
 70
8
 71
3
 72
8
 73
4
 74
0
 40
0
 40
0
 40
0
 40
0
 40
1
 40
1
 40
1
 40
1
 10
244.364995
 20
506.829859
 30
0.0
 10
244.363584
 20
506.561062
 30
0.0
 10
244.506386
 20
506.312140
 30
0.0
 10
244.738960
 20
506.177370
 30
0.0
  0
SPLINE
  5
180
100
AcDbEntity
  8
0
 62
7
100
AcDbSpline
 70
8
 71
3
 72
8
 73
4
 74
0
 40
0
 40
0
 40
0
 40
0
 40
1
 40
1
 40
1
 40
1
 10
244.738960
 20
506.177370
 30
0.0
 10
244.971530
 20
506.042603
 30
0.0
 10
245.258443
 20
506.042603
 30
0.0
 10
245.491014
 20
506.177370
 30
0.0
  0
SPLINE
  5
181
100
AcDbEntity
  8
0
 62
7
100
AcDbSpline
 70
8
 71
3
 72
8
 73
4
 74
0
 40
0
 40
0
 40
0
 40
0
 40
1
 40
1
 40
1
 40
1
 10
245.491014
 20
506.177370
 30
0.0
 10
245.723588
 20
506.312140
 30
0.0
 10
245.866257
 20
506.561062
 30
0.0
 10
245.864978
 20
506.829859
 30
0.0
  0
LWPOLYLINE
  5
182
100
AcDbEntity
  8
0
 62
7
100
AcDbPolyline
 90
4
 70
1
 10
265.313899
 20
519.741842
 30
0.0
 10
265.313899
 20
519.741842
 30
0.0
 10
265.313899
 20
519.741842
 30
0.0
 10
265.313899
 20
519.741842
 30
0.0
  0
SPLINE
  5
183
100
AcDbEntity
  8
0
 62
7
100
AcDbSpline
 70
8
 71
3
 72
8
 73
4
 74
0
 40
0
 40
0
 40
0
 40
0
 40
1
 40
1
 40
1
 40
1
 10
254.608166
 20
515.342960
 30
0.0
 10
254.609577
 20
515.611762
 30
0.0
 10
254.466790
 20
515.860697
 30
0.0
 10
254.234211
 20
515.995472
 30
0.0
  0
SPLINE
  5
184
100
AcDbEntity
  8
0
 62
7
100
AcDbSpline
 70
8
 71
3
 72
8
 73
4
 74
0
 40
0
 40
0
 40
0
 40
0
 40
1
 40
1
 40
1
 40
1
 10
254.234211
 20
515.995472
 30
0.0
 10
254.001634
 20
516.130247
 30
0.0
 10
253.714716
 20
516.130247
 30
0.0
 10
253.482139
 20
515.995472
 30
0.0
  0
SPLINE
  5
185
100
AcDbEntity
  8
0
 62
7
100
AcDbSpline
 70
8
 71
3
 72
8
 73
4
 74
0
 40
0
 40
0
 40
0
 40
0
 40
1
 40
1
 40
1
 40
1
 10
253.482139
 20
515.995472
 30
0.0
 10
253.249560
 20
515.860697
 30
0.0
 10
253.106896
 20
515.611762
 30
0.0
 10
253.108183
 20
515.342960
 30
0.0
  0
SPLINE
  5
186
100
AcDbEntity
  8
0
 62
7
100
AcDbSpline
 70
8
 71
3
 72
8
 73
4
 74
0
 40
0
 40
0
 40
0
 40
0
 40
1
 40
1
 40
1
 40
1
 10
253.108183
 20
515.342960
 30
0.0
 10
253.106772
 20
515.074157
 30
0.0
 10
253.249560
 20
514.825220
 30
0.0
 10
253.482139
 20
514.690445
 30
0.0
  0
SPLINE
  5
187
100
AcDbEntity
  8
0
 62
7
100
AcDbSpline
 70
8
 71
3
 72
8
 73
4
 74
0
 40
0
 40
0
 40
0
 40
0
 40
1
 40
1
 40
1
 40
1
 10
253.482139
 20
514.690445
 30
0.0
 10
253.714716
 20
514.555673
 30
0.0
 10
254.001634
 20
514.555673
 30
0.0
 10
254.234211
 20
514.690445
 30
0.0
  0
SPLINE
  5
188
100
AcDbEntity
  8
0
 62
7
100
AcDbSpline
 70
8
 71
3
 72
8
 73
4
 74
0
 40
0
 40
0
 40
0
 40
0
 40
1
 40
1
 40
1
 40
1
 10
254.234211
 20
514.690445
 30
0.0
 10
254.466790
 20
514.825220
 30
0.0
 10
254.609453
 20
515.074157
 30
0.0
 10
254.608166
 20
515.342960
 30
0.0
  0
LWPOLYLINE
  5
189
100
AcDbEntity
  8
0
 62
7
100
AcDbPolyline
 90
4
 70
1
 10
271.616684
 20
489.285975
 30
0.0
 10
271.616684
 20
489.285975
 30
0.0
 10
271.616684
 20
489.285975
 30
0.0
 10
271.616684
 20
489.285975
 30
0.0
  0
SPLINE
  5
18a
100
AcDbEntity
  8
0
 62
7
100
AcDbSpline
 70
8
 71
3
 72
8
 73
4
 74
0
 40
0
 40
0
 40
0
 40
0
 40
1
 40
1
 40
1
 40
1
 10
261.280605
 20
509.705907
 30
0.0
 10
261.280605
 20
509.973857
 30
0.0
 10
261.137654
 20
510.221454
 30
0.0
 10
260.905602
 20
510.355430
 30
0.0
  0
SPLINE
  5
18b
100
AcDbEntity
  8
0
 62
7
100
AcDbSpline
 70
8
 71
3
 72
8
 73
4
 74
0
 40
0
 40
0
 40
0
 40
0
 40
1
 40
1
 40
1
 40
1
 10
260.905602
 20
510.355430
 30
0.0
 10
260.673551
 20
510.489407
 30
0.0
 10
260.387648
 20
510.489407
 30
0.0
 10
260.155597
 20
510.355430
 30
0.0
  0
SPLINE
  5
18c
100
AcDbEntity
  8
0
 62
7
100
AcDbSpline
 70
8
 71
3
 72
8
 73
4
 74
0
 40
0
 40
0
 40
0
 40
0
 40
1
 40
1
 40
1
 40
1
 10
260.155597
 20
510.355430
 30
0.0
 10
259.923542
 20
510.221454
 30
0.0
 10
259.780594
 20
509.973857
 30
0.0
 10
259.780594
 20
509.705907
 30
0.0
  0
SPLINE
  5
18d
100
AcDbEntity
  8
0
 62
7
100
AcDbSpline
 70
8
 71
3
 72
8
 73
4
 74
0
 40
0
 40
0
 40
0
 40
0
 40
1
 40
1
 40
1
 40
1
 10
259.780594
 20
509.705907
 30
0.0
 10
259.780594
 20
509.291689
 30
0.0
 10
260.116382
 20
508.955901
 30
0.0
 10
260.530600
 20
508.955901
 30
0.0
  0
SPLINE
  5
18e
100
AcDbEntity
  8
0
 62
7
100
AcDbSpline
 70
8
 71
3
 72
8
 73
4
 74
0
 40
0
 40
0
 40
0
 40
0
 40
1
 40
1
 40
1
 40
1
 10
260.530600
 20
508.955901
 30
0.0
 10
260.944817
 20
508.955901
 30
0.0
 10
261.280605
 20
509.291689
 30
0.0
 10
261.280605
 20
509.705907
 30
0.0
  0
LWPOLYLINE
  5
18f
100
AcDbEntity
  8
0
 62
7
100
AcDbPolyline
 90
4
 70
1
 10
245.864978
 20
506.829859
 30
0.0
 10
245.864978
 20
506.829859
 30
0.0
 10
245.864978
 20
506.829859
 30
0.0
 10
245.864978
 20
506.829859
 30
0.0
  0
SPLINE
  5
190
100
AcDbEntity
  8
0
 62
7
100
AcDbSpline
 70
8
 71
3
 72
8
 73
4
 74
0
 40
0
 40
0
 40
0
 40
0
 40
1
 40
1
 40
1
 40
1
 10
255.778514
 20
530.931132
 30
0.0
 10
255.779360
 20
531.288868
 30
0.0
 10
255.588781
 20
531.619737
 30
0.0
 10
255.279088
 20
531.798813
 30
0.0
  0
SPLINE
  5
191
100
AcDbEntity
  8
0
 62
7
100
AcDbSpline
 70
8
 71
3
 72
8
 73
4
 74
0
 40
0
 40
0
 40
0
 40
0
 40
1
 40
1
 40
1
 40
1
 10
255.279088
 20
531.798813
 30
0.0
 10
254.969397
 20
531.977888
 30
0.0
 10
254.587635
 20
531.977888
 30
0.0
 10
254.277941
 20
531.798813
 30
0.0
  0
SPLINE
  5
192
100
AcDbEntity
  8
0
 62
7
100
AcDbSpline
 70
8
 71
3
 72
8
 73
4
 74
0
 40
0
 40
0
 40
0
 40
0
 40
1
 40
1
 40
1
 40
1
 10
254.277941
 20
531.798813
 30
0.0
 10
253.968250
 20
531.619737
 30
0.0
 10
253.777806
 20
531.288868
 30
0.0
 10
253.778518
 20
530.931132
 30
0.0
  0
SPLINE
  5
193
100
AcDbEntity
  8
0
 62
7
100
AcDbSpline
 70
8
 71
3
 72
8
 73
4
 74
0
 40
0
 40
0
 40
0
 40
0
 40
1
 40
1
 40
1
 40
1
 10
253.778518
 20
530.931132
 30
0.0
 10
253.777671
 20
530.573393
 30
0.0
 10
253.968250
 20
530.242524
 30
0.0
 10
254.277941
 20
530.063448
 30
0.0
  0
SPLINE
  5
194
100
AcDbEntity
  8
0
 62
7
100
AcDbSpline
 70
8
 71
3
 72
8
 73
4
 74
0
 40
0
 40
0
 40
0
 40
0
 40
1
 40
1
 40
1
 40
1
 10
254.277941
 20
530.063448
 30
0.0
 10
254.587635
 20
529.884375
 30
0.0
 10
254.969397
 20
529.884375
 30
0.0
 10
255.279088
 20
530.063448
 30
0.0
  0
SPLINE
  5
195
100
AcDbEntity
  8
0
 62
7
100
AcDbSpline
 70
8
 71
3
 72
8
 73
4
 74
0
 40
0
 40
0
 40
0
 40
0
 40
1
 40
1
 40
1
 40
1
 10
255.279088
 20
530.063448
 30
0.0
 10
255.588781
 20
530.242524
 30
0.0
 10
255.779225
 20
530.573393
 30
0.0
 10
255.778514
 20
530.931132
 30
0.0
  0
LWPOLYLINE
  5
196
100
AcDbEntity
  8
0
 62
7
100
AcDbPolyline
 90
4
 70
1
 10
254.608166
 20
515.342960
 30
0.0
 10
254.608166
 20
515.342960
 30
0.0
 10
254.608166
 20
515.342960
 30
0.0
 10
254.608166
 20
515.342960
 30
0.0
  0
SPLINE
  5
197
100
AcDbEntity
  8
0
 62
7
100
AcDbSpline
 70
8
 71
3
 72
8
 73
4
 74
0
 40
0
 40
0
 40
0
 40
0
 40
1
 40
1
 40
1
 40
1
 10
238.004553
 20
516.205773
 30
0.0
 10
238.004553
 20
516.563040
 30
0.0
 10
237.813952
 20
516.893173
 30
0.0
 10
237.504546
 20
517.071808
 30
0.0
  0
SPLINE
  5
198
100
AcDbEntity
  8
0
 62
7
100
AcDbSpline
 70
8
 71
3
 72
8
 73
4
 74
0
 40
0
 40
0
 40
0
 40
0
 40
1
 40
1
 40
1
 40
1
 10
237.504546
 20
517.071808
 30
0.0
 10
237.195143
 20
517.250443
 30
0.0
 10
236.813939
 20
517.250443
 30
0.0
 10
236.504534
 20
517.071808
 30
0.0
  0
SPLINE
  5
199
100
AcDbEntity
  8
0
 62
7
100
AcDbSpline
 70
8
 71
3
 72
8
 73
4
 74
0
 40
0
 40
0
 40
0
 40
0
 40
1
 40
1
 40
1
 40
1
 10
236.504534
 20
517.071808
 30
0.0
 10
236.195131
 20
516.893173
 30
0.0
 10
236.004529
 20
516.563040
 30
0.0
 10
236.004529
 20
516.205773
 30
0.0
  0
SPLINE
  5
19a
100
AcDbEntity
  8
0
 62
7
100
AcDbSpline
 70
8
 71
3
 72
8
 73
4
 74
0
 40
0
 40
0
 40
0
 40
0
 40
1
 40
1
 40
1
 40
1
 10
236.004529
 20
516.205773
 30
0.0
 10
236.004529
 20
515.848502
 30
0.0
 10
236.195131
 20
515.518370
 30
0.0
 10
236.504534
 20
515.339737
 30
0.0
  0
SPLINE
  5
19b
100
AcDbEntity
  8
0
 62
7
100
AcDbSpline
 70
8
 71
3
 72
8
 73
4
 74
0
 40
0
 40
0
 40
0
 40
0
 40
1
 40
1
 40
1
 40
1
 10
236.504534
 20
515.339737
 30
0.0
 10
236.813939
 20
515.161102
 30
0.0
 10
237.195143
 20
515.161102
 30
0.0
 10
237.504546
 20
515.339737
 30
0.0
  0
SPLINE
  5
19c
100
AcDbEntity
  8
0
 62
7
100
AcDbSpline
 70
8
 71
3
 72
8
 73
4
 74
0
 40
0
 40
0
 40
0
 40
0
 40
1
 40
1
 40
1
 40
1
 10
237.504546
 20
515.339737
 30
0.0
 10
237.813952
 20
515.518370
 30
0.0
 10
238.004553
 20
515.848502
 30
0.0
 10
238.004553
 20
516.205773
 30
0.0
  0
LWPOLYLINE
  5
19d
100
AcDbEntity
  8
0
 62
7
100
AcDbPolyline
 90
4
 70
1
 10
261.280605
 20
509.705907
 30
0.0
 10
261.280605
 20
509.705907
 30
0.0
 10
261.280605
 20
509.705907
 30
0.0
 10
261.280605
 20
509.705907
 30
0.0
  0
SPLINE
  5
19e
100
AcDbEntity
  8
0
 62
7
100
AcDbSpline
 70
8
 71
3
 72
8
 73
4
 74
0
 40
0
 40
0
 40
0
 40
0
 40
1
 40
1
 40
1
 40
1
 10
277.041333
 20
516.665942
 30
0.0
 10
277.042745
 20
516.934744
 30
0.0
 10
276.899957
 20
517.183678
 30
0.0
 10
276.667381
 20
517.318453
 30
0.0
  0
SPLINE
  5
19f
100
AcDbEntity
  8
0
 62
7
100
AcDbSpline
 70
8
 71
3
 72
8
 73
4
 74
0
 40
0
 40
0
 40
0
 40
0
 40
1
 40
1
 40
1
 40
1
 10
276.667381
 20
517.318453
 30
0.0
 10
276.434801
 20
517.453226
 30
0.0
 10
276.147883
 20
517.453226
 30
0.0
 10
275.915306
 20
517.318453
 30
0.0
  0
SPLINE
  5
1a0
100
AcDbEntity
  8
0
 62
7
100
AcDbSpline
 70
8
 71
3
 72
8
 73
4
 74
0
 40
0
 40
0
 40
0
 40
0
 40
1
 40
1
 40
1
 40
1
 10
275.915306
 20
517.318453
 30
0.0
 10
275.682727
 20
517.183678
 30
0.0
 10
275.540064
 20
516.934744
 30
0.0
 10
275.541351
 20
516.665942
 30
0.0
  0
SPLINE
  5
1a1
100
AcDbEntity
  8
0
 62
7
100
AcDbSpline
 70
8
 71
3
 72
8
 73
4
 74
0
 40
0
 40
0
 40
0
 40
0
 40
1
 40
1
 40
1
 40
1
 10
275.541351
 20
516.665942
 30
0.0
 10
275.539939
 20
516.397139
 30
0.0
 10
275.682727
 20
516.148202
 30
0.0
 10
275.915306
 20
516.013430
 30
0.0
  0
SPLINE
  5
1a2
100
AcDbEntity
  8
0
 62
7
100
AcDbSpline
 70
8
 71
3
 72
8
 73
4
 74
0
 40
0
 40
0
 40
0
 40
0
 40
1
 40
1
 40
1
 40
1
 10
275.915306
 20
516.013430
 30
0.0
 10
276.147883
 20
515.878654
 30
0.0
 10
276.434801
 20
515.878654
 30
0.0
 10
276.667381
 20
516.013430
 30
0.0
  0
SPLINE
  5
1a3
100
AcDbEntity
  8
0
 62
7
100
AcDbSpline
 70
8
 71
3
 72
8
 73
4
 74
0
 40
0
 40
0
 40
0
 40
0
 40
1
 40
1
 40
1
 40
1
 10
276.667381
 20
516.013430
 30
0.0
 10
276.899957
 20
516.148202
 30
0.0
 10
277.042620
 20
516.397139
 30
0.0
 10
277.041333
 20
516.665942
 30
0.0
  0
LWPOLYLINE
  5
1a4
100
AcDbEntity
  8
0
 62
7
100
AcDbPolyline
 90
4
 70
1
 10
255.778514
 20
530.931132
 30
0.0
 10
255.778514
 20
530.931132
 30
0.0
 10
255.778514
 20
530.931132
 30
0.0
 10
255.778514
 20
530.931132
 30
0.0
  0
SPLINE
  5
1a5
100
AcDbEntity
  8
0
 62
7
100
AcDbSpline
 70
8
 71
3
 72
8
 73
4
 74
0
 40
0
 40
0
 40
0
 40
0
 40
1
 40
1
 40
1
 40
1
 10
264.271681
 20
526.732105
 30
0.0
 10
264.273092
 20
527.000900
 30
0.0
 10
264.130290
 20
527.249825
 30
0.0
 10
263.897717
 20
527.384592
 30
0.0
  0
SPLINE
  5
1a6
100
AcDbEntity
  8
0
 62
7
100
AcDbSpline
 70
8
 71
3
 72
8
 73
4
 74
0
 40
0
 40
0
 40
0
 40
0
 40
1
 40
1
 40
1
 40
1
 10
263.897717
 20
527.384592
 30
0.0
 10
263.665146
 20
527.519362
 30
0.0
 10
263.378233
 20
527.519362
 30
0.0
 10
263.145659
 20
527.384592
 30
0.0
  0
SPLINE
  5
1a7
100
AcDbEntity
  8
0
 62
7
100
AcDbSpline
 70
8
 71
3
 72
8
 73
4
 74
0
 40
0
 40
0
 40
0
 40
0
 40
1
 40
1
 40
1
 40
1
 10
263.145659
 20
527.384592
 30
0.0
 10
262.913089
 20
527.249825
 30
0.0
 10
262.770420
 20
527.000900
 30
0.0
 10
262.771698
 20
526.732105
 30
0.0
  0
SPLINE
  5
1a8
100
AcDbEntity
  8
0
 62
7
100
AcDbSpline
 70
8
 71
3
 72
8
 73
4
 74
0
 40
0
 40
0
 40
0
 40
0
 40
1
 40
1
 40
1
 40
1
 10
262.771698
 20
526.732105
 30
0.0
 10
262.770287
 20
526.463309
 30
0.0
 10
262.913089
 20
526.214386
 30
0.0
 10
263.145659
 20
526.079616
 30
0.0
  0
SPLINE
  5
1a9
100
AcDbEntity
  8
0
 62
7
100
AcDbSpline
 70
8
 71
3
 72
8
 73
4
 74
0
 40
0
 40
0
 40
0
 40
0
 40
1
 40
1
 40
1
 40
1
 10
263.145659
 20
526.079616
 30
0.0
 10
263.378233
 20
525.944849
 30
0.0
 10
263.665146
 20
525.944849
 30
0.0
 10
263.897717
 20
526.079616
 30
0.0
  0
SPLINE
  5
1aa
100
AcDbEntity
  8
0
 62
7
100
AcDbSpline
 70
8
 71
3
 72
8
 73
4
 74
0
 40
0
 40
0
 40
0
 40
0
 40
1
 40
1
 40
1
 40
1
 10
263.897717
 20
526.079616
 30
0.0
 10
264.130290
 20
526.214386
 30
0.0
 10
264.272959
 20
526.463309
 30
0.0
 10
264.271681
 20
526.732105
 30
0.0
  0
LWPOLYLINE
  5
1ab
100
AcDbEntity
  8
0
 62
7
100
AcDbPolyline
 90
4
 70
1
 10
238.004553
 20
516.205773
 30
0.0
 10
238.004553
 20
516.205773
 30
0.0
 10
238.004553
 20
516.205773
 30
0.0
 10
238.004553
 20
516.205773
 30
0.0
  0
SPLINE
  5
1ac
100
AcDbEntity
  8
0
 62
7
100
AcDbSpline
 70
8
 71
3
 72
8
 73
4
 74
0
 40
0
 40
0
 40
0
 40
0
 40
1
 40
1
 40
1
 40
1
 10
289.178238
 20
496.246009
 30
0.0
 10
289.178238
 20
496.514809
 30
0.0
 10
289.036873
 20
496.763746
 30
0.0
 10
288.804294
 20
496.898521
 30
0.0
  0
SPLINE
  5
1ad
100
AcDbEntity
  8
0
 62
7
100
AcDbSpline
 70
8
 71
3
 72
8
 73
4
 74
0
 40
0
 40
0
 40
0
 40
0
 40
1
 40
1
 40
1
 40
1
 10
288.804294
 20
496.898521
 30
0.0
 10
288.571714
 20
497.033297
 30
0.0
 10
288.284779
 20
497.033297
 30
0.0
 10
288.052200
 20
496.898521
 30
0.0
  0
SPLINE
  5
1ae
100
AcDbEntity
  8
0
 62
7
100
AcDbSpline
 70
8
 71
3
 72
8
 73
4
 74
0
 40
0
 40
0
 40
0
 40
0
 40
1
 40
1
 40
1
 40
1
 10
288.052200
 20
496.898521
 30
0.0
 10
287.819620
 20
496.763746
 30
0.0
 10
287.676957
 20
496.514809
 30
0.0
 10
287.678255
 20
496.246009
 30
0.0
  0
SPLINE
  5
1af
100
AcDbEntity
  8
0
 62
7
100
AcDbSpline
 70
8
 71
3
 72
8
 73
4
 74
0
 40
0
 40
0
 40
0
 40
0
 40
1
 40
1
 40
1
 40
1
 10
287.678255
 20
496.246009
 30
0.0
 10
287.678255
 20
495.977207
 30
0.0
 10
287.819620
 20
495.728270
 30
0.0
 10
288.052200
 20
495.593498
 30
0.0
  0
SPLINE
  5
1b0
100
AcDbEntity
  8
0
 62
7
100
AcDbSpline
 70
8
 71
3
 72
8
 73
4
 74
0
 40
0
 40
0
 40
0
 40
0
 40
1
 40
1
 40
1
 40
1
 10
288.052200
 20
495.593498
 30
0.0
 10
288.284779
 20
495.458722
 30
0.0
 10
288.571714
 20
495.458722
 30
0.0
 10
288.804294
 20
495.593498
 30
0.0
  0
SPLINE
  5
1b1
100
AcDbEntity
  8
0
 62
7
100
AcDbSpline
 70
8
 71
3
 72
8
 73
4
 74
0
 40
0
 40
0
 40
0
 40
0
 40
1
 40
1
 40
1
 40
1
 10
288.804294
 20
495.593498
 30
0.0
 10
289.036873
 20
495.728270
 30
0.0
 10
289.179536
 20
495.977207
 30
0.0
 10
289.178238
 20
496.246009
 30
0.0
  0
LWPOLYLINE
  5
1b2
100
AcDbEntity
  8
0
 62
7
100
AcDbPolyline
 90
4
 70
1
 10
277.041333
 20
516.665942
 30
0.0
 10
277.041333
 20
516.665942
 30
0.0
 10
277.041333
 20
516.665942
 30
0.0
 10
277.041333
 20
516.665942
 30
0.0
  0
SPLINE
  5
1b3
100
AcDbEntity
  8
0
 62
7
100
AcDbSpline
 70
8
 71
3
 72
8
 73
4
 74
0
 40
0
 40
0
 40
0
 40
0
 40
1
 40
1
 40
1
 40
1
 10
274.357767
 20
473.985407
 30
0.0
 10
274.358614
 20
474.343144
 30
0.0
 10
274.168035
 20
474.674012
 30
0.0
 10
273.858344
 20
474.853088
 30
0.0
  0
SPLINE
  5
1b4
100
AcDbEntity
  8
0
 62
7
100
AcDbSpline
 70
8
 71
3
 72
8
 73
4
 74
0
 40
0
 40
0
 40
0
 40
0
 40
1
 40
1
 40
1
 40
1
 10
273.858344
 20
474.853088
 30
0.0
 10
273.548650
 20
475.032164
 30
0.0
 10
273.166888
 20
475.032164
 30
0.0
 10
272.857194
 20
474.853088
 30
0.0
  0
SPLINE
  5
1b5
100
AcDbEntity
  8
0
 62
7
100
AcDbSpline
 70
8
 71
3
 72
8
 73
4
 74
0
 40
0
 40
0
 40
0
 40
0
 40
1
 40
1
 40
1
 40
1
 10
272.857194
 20
474.853088
 30
0.0
 10
272.547503
 20
474.674012
 30
0.0
 10
272.357060
 20
474.343144
 30
0.0
 10
272.357771
 20
473.985407
 30
0.0
  0
SPLINE
  5
1b6
100
AcDbEntity
  8
0
 62
7
100
AcDbSpline
 70
8
 71
3
 72
8
 73
4
 74
0
 40
0
 40
0
 40
0
 40
0
 40
1
 40
1
 40
1
 40
1
 10
272.357771
 20
473.985407
 30
0.0
 10
272.356924
 20
473.627668
 30
0.0
 10
272.547503
 20
473.296799
 30
0.0
 10
272.857194
 20
473.117723
 30
0.0
  0
SPLINE
  5
1b7
100
AcDbEntity
  8
0
 62
7
100
AcDbSpline
 70
8
 71
3
 72
8
 73
4
 74
0
 40
0
 40
0
 40
0
 40
0
 40
1
 40
1
 40
1
 40
1
 10
272.857194
 20
473.117723
 30
0.0
 10
273.166888
 20
472.938651
 30
0.0
 10
273.548650
 20
472.938651
 30
0.0
 10
273.858344
 20
473.117723
 30
0.0
  0
SPLINE
  5
1b8
100
AcDbEntity
  8
0
 62
7
100
AcDbSpline
 70
8
 71
3
 72
8
 73
4
 74
0
 40
0
 40
0
 40
0
 40
0
 40
1
 40
1
 40
1
 40
1
 10
273.858344
 20
473.117723
 30
0.0
 10
274.168035
 20
473.296799
 30
0.0
 10
274.358478
 20
473.627668
 30
0.0
 10
274.357767
 20
473.985407
 30
0.0
  0
LWPOLYLINE
  5
1b9
100
AcDbEntity
  8
0
 62
7
100
AcDbPolyline
 90
4
 70
1
 10
264.271681
 20
526.732105
 30
0.0
 10
264.271681
 20
526.732105
 30
0.0
 10
264.271681
 20
526.732105
 30
0.0
 10
264.271681
 20
526.732105
 30
0.0
  0
SPLINE
  5
1ba
100
AcDbEntity
  8
0
 62
7
100
AcDbSpline
 70
8
 71
3
 72
8
 73
4
 74
0
 40
0
 40
0
 40
0
 40
0
 40
1
 40
1
 40
1
 40
1
 10
301.067385
 20
479.104769
 30
0.0
 10
301.070208
 20
479.552514
 30
0.0
 10
300.831278
 20
479.967000
 30
0.0
 10
300.443815
 20
480.191381
 30
0.0
  0
SPLINE
  5
1bb
100
AcDbEntity
  8
0
 62
7
100
AcDbSpline
 70
8
 71
3
 72
8
 73
4
 74
0
 40
0
 40
0
 40
0
 40
0
 40
1
 40
1
 40
1
 40
1
 10
300.443815
 20
480.191381
 30
0.0
 10
300.056352
 20
480.415761
 30
0.0
 10
299.578437
 20
480.415761
 30
0.0
 10
299.190974
 20
480.191381
 30
0.0
  0
SPLINE
  5
1bc
100
AcDbEntity
  8
0
 62
7
100
AcDbSpline
 70
8
 71
3
 72
8
 73
4
 74
0
 40
0
 40
0
 40
0
 40
0
 40
1
 40
1
 40
1
 40
1
 10
299.190974
 20
480.191381
 30
0.0
 10
298.803512
 20
479.967000
 30
0.0
 10
298.565655
 20
479.552514
 30
0.0
 10
298.567404
 20
479.104769
 30
0.0
  0
SPLINE
  5
1bd
100
AcDbEntity
  8
0
 62
7
100
AcDbSpline
 70
8
 71
3
 72
8
 73
4
 74
0
 40
0
 40
0
 40
0
 40
0
 40
1
 40
1
 40
1
 40
1
 10
298.567404
 20
479.104769
 30
0.0
 10
298.564582
 20
478.657023
 30
0.0
 10
298.803512
 20
478.242537
 30
0.0
 10
299.190974
 20
478.018157
 30
0.0
  0
SPLINE
  5
1be
100
AcDbEntity
  8
0
 62
7
100
AcDbSpline
 70
8
 71
3
 72
8
 73
4
 74
0
 40
0
 40
0
 40
0
 40
0
 40
1
 40
1
 40
1
 40
1
 10
299.190974
 20
478.018157
 30
0.0
 10
299.578437
 20
477.793773
 30
0.0
 10
300.056352
 20
477.793773
 30
0.0
 10
300.443815
 20
478.018157
 30
0.0
  0
SPLINE
  5
1bf
100
AcDbEntity
  8
0
 62
7
100
AcDbSpline
 70
8
 71
3
 72
8
 73
4
 74
0
 40
0
 40
0
 40
0
 40
0
 40
1
 40
1
 40
1
 40
1
 10
300.443815
 20
478.018157
 30
0.0
 10
300.831278
 20
478.242537
 30
0.0
 10
301.069135
 20
478.657023
 30
0.0
 10
301.067385
 20
479.104769
 30
0.0
  0
LWPOLYLINE
  5
1c0
100
AcDbEntity
  8
0
 62
7
100
AcDbPolyline
 90
4
 70
1
 10
289.178238
 20
496.246009
 30
0.0
 10
289.178238
 20
496.246009
 30
0.0
 10
289.178238
 20
496.246009
 30
0.0
 10
289.178238
 20
496.246009
 30
0.0
  0
SPLINE
  5
1c1
100
AcDbEntity
  8
0
 62
7
100
AcDbSpline
 70
8
 71
3
 72
8
 73
4
 74
0
 40
0
 40
0
 40
0
 40
0
 40
1
 40
1
 40
1
 40
1
 10
235.493537
 20
478.299476
 30
0.0
 10
235.493537
 20
478.746059
 30
0.0
 10
235.255288
 20
479.158718
 30
0.0
 10
234.868534
 20
479.382010
 30
0.0
  0
SPLINE
  5
1c2
100
AcDbEntity
  8
0
 62
7
100
AcDbSpline
 70
8
 71
3
 72
8
 73
4
 74
0
 40
0
 40
0
 40
0
 40
0
 40
1
 40
1
 40
1
 40
1
 10
234.868534
 20
479.382010
 30
0.0
 10
234.481782
 20
479.605301
 30
0.0
 10
234.005284
 20
479.605301
 30
0.0
 10
233.618532
 20
479.382010
 30
0.0
  0
SPLINE
  5
1c3
100
AcDbEntity
  8
0
 62
7
100
AcDbSpline
 70
8
 71
3
 72
8
 73
4
 74
0
 40
0
 40
0
 40
0
 40
0
 40
1
 40
1
 40
1
 40
1
 10
233.618532
 20
479.382010
 30
0.0
 10
233.231777
 20
479.158718
 30
0.0
 10
232.993528
 20
478.746059
 30
0.0
 10
232.993528
 20
478.299476
 30
0.0
  0
SPLINE
  5
1c4
100
AcDbEntity
  8
0
 62
7
100
AcDbSpline
 70
8
 71
3
 72
8
 73
4
 74
0
 40
0
 40
0
 40
0
 40
0
 40
1
 40
1
 40
1
 40
1
 10
232.993528
 20
478.299476
 30
0.0
 10
232.993528
 20
477.852890
 30
0.0
 10
233.231777
 20
477.440230
 30
0.0
 10
233.618532
 20
477.216939
 30
0.0
  0
SPLINE
  5
1c5
100
AcDbEntity
  8
0
 62
7
100
AcDbSpline
 70
8
 71
3
 72
8
 73
4
 74
0
 40
0
 40
0
 40
0
 40
0
 40
1
 40
1
 40
1
 40
1
 10
233.618532
 20
477.216939
 30
0.0
 10
234.005284
 20
476.993648
 30
0.0
 10
234.481782
 20
476.993648
 30
0.0
 10
234.868534
 20
477.216939
 30
0.0
  0
SPLINE
  5
1c6
100
AcDbEntity
  8
0
 62
7
100
AcDbSpline
 70
8
 71
3
 72
8
 73
4
 74
0
 40
0
 40
0
 40
0
 40
0
 40
1
 40
1
 40
1
 40
1
 10
234.868534
 20
477.216939
 30
0.0
 10
235.255288
 20
477.440230
 30
0.0
 10
235.493537
 20
477.852890
 30
0.0
 10
235.493537
 20
478.299476
 30
0.0
  0
LWPOLYLINE
  5
1c7
100
AcDbEntity
  8
0
 62
7
100
AcDbPolyline
 90
4
 70
1
 10
274.357767
 20
473.985407
 30
0.0
 10
274.357767
 20
473.985407
 30
0.0
 10
274.357767
 20
473.985407
 30
0.0
 10
274.357767
 20
473.985407
 30
0.0
  0
SPLINE
  5
1c8
100
AcDbEntity
  8
0
 62
7
100
AcDbSpline
 70
8
 71
3
 72
8
 73
4
 74
0
 40
0
 40
0
 40
0
 40
0
 40
1
 40
1
 40
1
 40
1
 10
250.121539
 20
493.830128
 30
0.0
 10
250.122950
 20
494.098931
 30
0.0
 10
249.980162
 20
494.347865
 30
0.0
 10
249.747583
 20
494.482640
 30
0.0
  0
SPLINE
  5
1c9
100
AcDbEntity
  8
0
 62
7
100
AcDbSpline
 70
8
 71
3
 72
8
 73
4
 74
0
 40
0
 40
0
 40
0
 40
0
 40
1
 40
1
 40
1
 40
1
 10
249.747583
 20
494.482640
 30
0.0
 10
249.515006
 20
494.617415
 30
0.0
 10
249.228088
 20
494.617415
 30
0.0
 10
248.995511
 20
494.482640
 30
0.0
  0
SPLINE
  5
1ca
100
AcDbEntity
  8
0
 62
7
100
AcDbSpline
 70
8
 71
3
 72
8
 73
4
 74
0
 40
0
 40
0
 40
0
 40
0
 40
1
 40
1
 40
1
 40
1
 10
248.995511
 20
494.482640
 30
0.0
 10
248.762932
 20
494.347865
 30
0.0
 10
248.620269
 20
494.098931
 30
0.0
 10
248.621556
 20
493.830128
 30
0.0
  0
SPLINE
  5
1cb
100
AcDbEntity
  8
0
 62
7
100
AcDbSpline
 70
8
 71
3
 72
8
 73
4
 74
0
 40
0
 40
0
 40
0
 40
0
 40
1
 40
1
 40
1
 40
1
 10
248.621556
 20
493.830128
 30
0.0
 10
248.620145
 20
493.561325
 30
0.0
 10
248.762932
 20
493.312388
 30
0.0
 10
248.995511
 20
493.177613
 30
0.0
  0
SPLINE
  5
1cc
100
AcDbEntity
  8
0
 62
7
100
AcDbSpline
 70
8
 71
3
 72
8
 73
4
 74
0
 40
0
 40
0
 40
0
 40
0
 40
1
 40
1
 40
1
 40
1
 10
248.995511
 20
493.177613
 30
0.0
 10
249.228088
 20
493.042841
 30
0.0
 10
249.515006
 20
493.042841
 30
0.0
 10
249.747583
 20
493.177613
 30
0.0
  0
SPLINE
  5
1cd
100
AcDbEntity
  8
0
 62
7
100
AcDbSpline
 70
8
 71
3
 72
8
 73
4
 74
0
 40
0
 40
0
 40
0
 40
0
 40
1
 40
1
 40
1
 40
1
 10
249.747583
 20
493.177613
 30
0.0
 10
249.980162
 20
493.312388
 30
0.0
 10
250.122825
 20
493.561325
 30
0.0
 10
250.121539
 20
493.830128
 30
0.0
  0
LWPOLYLINE
  5
1ce
100
AcDbEntity
  8
0
 62
7
100
AcDbPolyline
 90
4
 70
1
 10
301.067385
 20
479.104769
 30
0.0
 10
301.067385
 20
479.104769
 30
0.0
 10
301.067385
 20
479.104769
 30
0.0
 10
301.067385
 20
479.104769
 30
0.0
  0
SPLINE
  5
1cf
100
AcDbEntity
  8
0
 62
7
100
AcDbSpline
 70
8
 71
3
 72
8
 73
4
 74
0
 40
0
 40
0
 40
0
 40
0
 40
1
 40
1
 40
1
 40
1
 10
304.231040
 20
541.112338
 30
0.0
 10
304.233862
 20
541.560084
 30
0.0
 10
303.994933
 20
541.974569
 30
0.0
 10
303.607470
 20
542.198950
 30
0.0
  0
SPLINE
  5
1d0
100
AcDbEntity
  8
0
 62
7
100
AcDbSpline
 70
8
 71
3
 72
8
 73
4
 74
0
 40
0
 40
0
 40
0
 40
0
 40
1
 40
1
 40
1
 40
1
 10
303.607470
 20
542.198950
 30
0.0
 10
303.220007
 20
542.423331
 30
0.0
 10
302.742092
 20
542.423331
 30
0.0
 10
302.354629
 20
542.198950
 30
0.0
  0
SPLINE
  5
1d1
100
AcDbEntity
  8
0
 62
7
100
AcDbSpline
 70
8
 71
3
 72
8
 73
4
 74
0
 40
0
 40
0
 40
0
 40
0
 40
1
 40
1
 40
1
 40
1
 10
302.354629
 20
542.198950
 30
0.0
 10
301.967166
 20
541.974569
 30
0.0
 10
301.729309
 20
541.560084
 30
0.0
 10
301.731059
 20
541.112338
 30
0.0
  0
SPLINE
  5
1d2
100
AcDbEntity
  8
0
 62
7
100
AcDbSpline
 70
8
 71
3
 72
8
 73
4
 74
0
 40
0
 40
0
 40
0
 40
0
 40
1
 40
1
 40
1
 40
1
 10
301.731059
 20
541.112338
 30
0.0
 10
301.728237
 20
540.664592
 30
0.0
 10
301.967166
 20
540.250104
 30
0.0
 10
302.354629
 20
540.025726
 30
0.0
  0
SPLINE
  5
1d3
100
AcDbEntity
  8
0
 62
7
100
AcDbSpline
 70
8
 71
3
 72
8
 73
4
 74
0
 40
0
 40
0
 40
0
 40
0
 40
1
 40
1
 40
1
 40
1
 10
302.354629
 20
540.025726
 30
0.0
 10
302.742092
 20
539.801345
 30
0.0
 10
303.220007
 20
539.801345
 30
0.0
 10
303.607470
 20
540.025726
 30
0.0
  0
SPLINE
  5
1d4
100
AcDbEntity
  8
0
 62
7
100
AcDbSpline
 70
8
 71
3
 72
8
 73
4
 74
0
 40
0
 40
0
 40
0
 40
0
 40
1
 40
1
 40
1
 40
1
 10
303.607470
 20
540.025726
 30
0.0
 10
303.994933
 20
540.250104
 30
0.0
 10
304.232790
 20
540.664592
 30
0.0
 10
304.231040
 20
541.112338
 30
0.0
  0
LWPOLYLINE
  5
1d5
100
AcDbEntity
  8
0
 62
7
100
AcDbPolyline
 90
4
 70
1
 10
235.493537
 20
478.299476
 30
0.0
 10
235.493537
 20
478.299476
 30
0.0
 10
235.493537
 20
478.299476
 30
0.0
 10
235.493537
 20
478.299476
 30
0.0
  0
SPLINE
  5
1d6
100
AcDbEntity
  8
0
 62
7
100
AcDbSpline
 70
8
 71
3
 72
8
 73
4
 74
0
 40
0
 40
0
 40
0
 40
0
 40
1
 40
1
 40
1
 40
1
 10
238.657192
 20
527.550361
 30
0.0
 10
238.657192
 20
527.996944
 30
0.0
 10
238.418943
 20
528.409603
 30
0.0
 10
238.032191
 20
528.632895
 30
0.0
  0
SPLINE
  5
1d7
100
AcDbEntity
  8
0
 62
7
100
AcDbSpline
 70
8
 71
3
 72
8
 73
4
 74
0
 40
0
 40
0
 40
0
 40
0
 40
1
 40
1
 40
1
 40
1
 10
238.032191
 20
528.632895
 30
0.0
 10
237.645437
 20
528.856186
 30
0.0
 10
237.168938
 20
528.856186
 30
0.0
 10
236.782184
 20
528.632895
 30
0.0
  0
SPLINE
  5
1d8
100
AcDbEntity
  8
0
 62
7
100
AcDbSpline
 70
8
 71
3
 72
8
 73
4
 74
0
 40
0
 40
0
 40
0
 40
0
 40
1
 40
1
 40
1
 40
1
 10
236.782184
 20
528.632895
 30
0.0
 10
236.395432
 20
528.409603
 30
0.0
 10
236.157183
 20
527.996944
 30
0.0
 10
236.157183
 20
527.550361
 30
0.0
  0
SPLINE
  5
1d9
100
AcDbEntity
  8
0
 62
7
100
AcDbSpline
 70
8
 71
3
 72
8
 73
4
 74
0
 40
0
 40
0
 40
0
 40
0
 40
1
 40
1
 40
1
 40
1
 10
236.157183
 20
527.550361
 30
0.0
 10
236.157183
 20
527.103775
 30
0.0
 10
236.395432
 20
526.691115
 30
0.0
 10
236.782184
 20
526.467824
 30
0.0
  0
SPLINE
  5
1da
100
AcDbEntity
  8
0
 62
7
100
AcDbSpline
 70
8
 71
3
 72
8
 73
4
 74
0
 40
0
 40
0
 40
0
 40
0
 40
1
 40
1
 40
1
 40
1
 10
236.782184
 20
526.467824
 30
0.0
 10
237.168938
 20
526.244533
 30
0.0
 10
237.645437
 20
526.244533
 30
0.0
 10
238.032191
 20
526.467824
 30
0.0
  0
SPLINE
  5
1db
100
AcDbEntity
  8
0
 62
7
100
AcDbSpline
 70
8
 71
3
 72
8
 73
4
 74
0
 40
0
 40
0
 40
0
 40
0
 40
1
 40
1
 40
1
 40
1
 10
238.032191
 20
526.467824
 30
0.0
 10
238.418943
 20
526.691115
 30
0.0
 10
238.657192
 20
527.103775
 30
0.0
 10
238.657192
 20
527.550361
 30
0.0
  0
LWPOLYLINE
  5
1dc
100
AcDbEntity
  8
0
 62
7
100
AcDbPolyline
 90
4
 70
1
 10
250.121539
 20
493.830128
 30
0.0
 10
250.121539
 20
493.830128
 30
0.0
 10
250.121539
 20
493.830128
 30
0.0
 10
250.121539
 20
493.830128
 30
0.0
  0
SPLINE
  5
1dd
100
AcDbEntity
  8
0
 62
7
100
AcDbSpline
 70
8
 71
3
 72
8
 73
4
 74
0
 40
0
 40
0
 40
0
 40
0
 40
1
 40
1
 40
1
 40
1
 10
261.223088
 20
488.365640
 30
0.0
 10
261.223088
 20
488.633590
 30
0.0
 10
261.080137
 20
488.881186
 30
0.0
 10
260.848086
 20
489.015163
 30
0.0
  0
SPLINE
  5
1de
100
AcDbEntity
  8
0
 62
7
100
AcDbSpline
 70
8
 71
3
 72
8
 73
4
 74
0
 40
0
 40
0
 40
0
 40
0
 40
1
 40
1
 40
1
 40
1
 10
260.848086
 20
489.015163
 30
0.0
 10
260.616034
 20
489.149139
 30
0.0
 10
260.330134
 20
489.149139
 30
0.0
 10
260.098080
 20
489.015163
 30
0.0
  0
SPLINE
  5
1df
100
AcDbEntity
  8
0
 62
7
100
AcDbSpline
 70
8
 71
3
 72
8
 73
4
 74
0
 40
0
 40
0
 40
0
 40
0
 40
1
 40
1
 40
1
 40
1
 10
260.098080
 20
489.015163
 30
0.0
 10
259.866026
 20
488.881186
 30
0.0
 10
259.723077
 20
488.633590
 30
0.0
 10
259.723077
 20
488.365640
 30
0.0
  0
SPLINE
  5
1e0
100
AcDbEntity
  8
0
 62
7
100
AcDbSpline
 70
8
 71
3
 72
8
 73
4
 74
0
 40
0
 40
0
 40
0
 40
0
 40
1
 40
1
 40
1
 40
1
 10
259.723077
 20
488.365640
 30
0.0
 10
259.723077
 20
488.097687
 30
0.0
 10
259.866026
 20
487.850090
 30
0.0
 10
260.098080
 20
487.716117
 30
0.0
  0
SPLINE
  5
1e1
100
AcDbEntity
  8
0
 62
7
100
AcDbSpline
 70
8
 71
3
 72
8
 73
4
 74
0
 40
0
 40
0
 40
0
 40
0
 40
1
 40
1
 40
1
 40
1
 10
260.098080
 20
487.716117
 30
0.0
 10
260.330134
 20
487.582140
 30
0.0
 10
260.616034
 20
487.582140
 30
0.0
 10
260.848086
 20
487.716117
 30
0.0
  0
SPLINE
  5
1e2
100
AcDbEntity
  8
0
 62
7
100
AcDbSpline
 70
8
 71
3
 72
8
 73
4
 74
0
 40
0
 40
0
 40
0
 40
0
 40
1
 40
1
 40
1
 40
1
 10
260.848086
 20
487.716117
 30
0.0
 10
261.080137
 20
487.850090
 30
0.0
 10
261.223088
 20
488.097687
 30
0.0
 10
261.223088
 20
488.365640
 30
0.0
  0
LWPOLYLINE
  5
1e3
100
AcDbEntity
  8
0
 62
7
100
AcDbPolyline
 90
4
 70
1
 10
304.231040
 20
541.112338
 30
0.0
 10
304.231040
 20
541.112338
 30
0.0
 10
304.231040
 20
541.112338
 30
0.0
 10
304.231040
 20
541.112338
 30
0.0
  0
SPLINE
  5
1e4
100
AcDbEntity
  8
0
 62
7
100
AcDbSpline
 70
8
 71
3
 72
8
 73
4
 74
0
 40
0
 40
0
 40
0
 40
0
 40
1
 40
1
 40
1
 40
1
 10
246.657176
 20
542.550362
 30
0.0
 10
246.658869
 20
542.998107
 30
0.0
 10
246.421069
 20
543.412593
 30
0.0
 10
246.033600
 20
543.636974
 30
0.0
  0
SPLINE
  5
1e5
100
AcDbEntity
  8
0
 62
7
100
AcDbSpline
 70
8
 71
3
 72
8
 73
4
 74
0
 40
0
 40
0
 40
0
 40
0
 40
1
 40
1
 40
1
 40
1
 10
246.033600
 20
543.636974
 30
0.0
 10
245.646129
 20
543.861355
 30
0.0
 10
245.168242
 20
543.861355
 30
0.0
 10
244.780771
 20
543.636974
 30
0.0
  0
SPLINE
  5
1e6
100
AcDbEntity
  8
0
 62
7
100
AcDbSpline
 70
8
 71
3
 72
8
 73
4
 74
0
 40
0
 40
0
 40
0
 40
0
 40
1
 40
1
 40
1
 40
1
 10
244.780771
 20
543.636974
 30
0.0
 10
244.393302
 20
543.412593
 30
0.0
 10
244.155440
 20
542.998107
 30
0.0
 10
244.157195
 20
542.550362
 30
0.0
  0
SPLINE
  5
1e7
100
AcDbEntity
  8
0
 62
7
100
AcDbSpline
 70
8
 71
3
 72
8
 73
4
 74
0
 40
0
 40
0
 40
0
 40
0
 40
1
 40
1
 40
1
 40
1
 10
244.157195
 20
542.550362
 30
0.0
 10
244.155502
 20
542.102616
 30
0.0
 10
244.393302
 20
541.688128
 30
0.0
 10
244.780771
 20
541.463750
 30
0.0
  0
SPLINE
  5
1e8
100
AcDbEntity
  8
0
 62
7
100
AcDbSpline
 70
8
 71
3
 72
8
 73
4
 74
0
 40
0
 40
0
 40
0
 40
0
 40
1
 40
1
 40
1
 40
1
 10
244.780771
 20
541.463750
 30
0.0
 10
245.168242
 20
541.239369
 30
0.0
 10
245.646129
 20
541.239369
 30
0.0
 10
246.033600
 20
541.463750
 30
0.0
  0
SPLINE
  5
1e9
100
AcDbEntity
  8
0
 62
7
100
AcDbSpline
 70
8
 71
3
 72
8
 73
4
 74
0
 40
0
 40
0
 40
0
 40
0
 40
1
 40
1
 40
1
 40
1
 10
246.033600
 20
541.463750
 30
0.0
 10
246.421069
 20
541.688128
 30
0.0
 10
246.658929
 20
542.102616
 30
0.0
 10
246.657176
 20
542.550362
 30
0.0
  0
LWPOLYLINE
  5
1ea
100
AcDbEntity
  8
0
 62
7
100
AcDbPolyline
 90
4
 70
1
 10
238.657192
 20
527.550361
 30
0.0
 10
238.657192
 20
527.550361
 30
0.0
 10
238.657192
 20
527.550361
 30
0.0
 10
238.657192
 20
527.550361
 30
0.0
  0
SPLINE
  5
1eb
100
AcDbEntity
  8
0
 62
7
100
AcDbSpline
 70
8
 71
3
 72
8
 73
4
 74
0
 40
0
 40
0
 40
0
 40
0
 40
1
 40
1
 40
1
 40
1
 10
272.767106
 20
529.205504
 30
0.0
 10
272.767106
 20
529.652087
 30
0.0
 10
272.528857
 20
530.064746
 30
0.0
 10
272.142105
 20
530.288041
 30
0.0
  0
SPLINE
  5
1ec
100
AcDbEntity
  8
0
 62
7
100
AcDbSpline
 70
8
 71
3
 72
8
 73
4
 74
0
 40
0
 40
0
 40
0
 40
0
 40
1
 40
1
 40
1
 40
1
 10
272.142105
 20
530.288041
 30
0.0
 10
271.755351
 20
530.511329
 30
0.0
 10
271.278852
 20
530.511329
 30
0.0
 10
270.892098
 20
530.288041
 30
0.0
  0
SPLINE
  5
1ed
100
AcDbEntity
  8
0
 62
7
100
AcDbSpline
 70
8
 71
3
 72
8
 73
4
 74
0
 40
0
 40
0
 40
0
 40
0
 40
1
 40
1
 40
1
 40
1
 10
270.892098
 20
530.288041
 30
0.0
 10
270.505346
 20
530.064746
 30
0.0
 10
270.267097
 20
529.652087
 30
0.0
 10
270.267097
 20
529.205504
 30
0.0
  0
SPLINE
  5
1ee
100
AcDbEntity
  8
0
 62
7
100
AcDbSpline
 70
8
 71
3
 72
8
 73
4
 74
0
 40
0
 40
0
 40
0
 40
0
 40
1
 40
1
 40
1
 40
1
 10
270.267097
 20
529.205504
 30
0.0
 10
270.267097
 20
528.758918
 30
0.0
 10
270.505346
 20
528.346259
 30
0.0
 10
270.892098
 20
528.122967
 30
0.0
  0
SPLINE
  5
1ef
100
AcDbEntity
  8
0
 62
7
100
AcDbSpline
 70
8
 71
3
 72
8
 73
4
 74
0
 40
0
 40
0
 40
0
 40
0
 40
1
 40
1
 40
1
 40
1
 10
270.892098
 20
528.122967
 30
0.0
 10
271.278852
 20
527.899676
 30
0.0
 10
271.755351
 20
527.899676
 30
0.0
 10
272.142105
 20
528.122967
 30
0.0
  0
SPLINE
  5
1f0
100
AcDbEntity
  8
0
 62
7
100
AcDbSpline
 70
8
 71
3
 72
8
 73
4
 74
0
 40
0
 40
0
 40
0
 40
0
 40
1
 40
1
 40
1
 40
1
 10
272.142105
 20
528.122967
 30
0.0
 10
272.528857
 20
528.346259
 30
0.0
 10
272.767106
 20
528.758918
 30
0.0
 10
272.767106
 20
529.205504
 30
0.0
  0
LWPOLYLINE
  5
1f1
100
AcDbEntity
  8
0
 62
7
100
AcDbPolyline
 90
4
 70
1
 10
261.223088
 20
488.365640
 30
0.0
 10
261.223088
 20
488.365640
 30
0.0
 10
261.223088
 20
488.365640
 30
0.0
 10
261.223088
 20
488.365640
 30
0.0
  0
SPLINE
  5
1f2
100
AcDbEntity
  8
0
 62
7
100
AcDbSpline
 70
8
 71
3
 72
8
 73
4
 74
0
 40
0
 40
0
 40
0
 40
0
 40
1
 40
1
 40
1
 40
1
 10
264.541598
 20
541.399942
 30
0.0
 10
264.543292
 20
541.847688
 30
0.0
 10
264.305491
 20
542.262173
 30
0.0
 10
263.918020
 20
542.486554
 30
0.0
  0
SPLINE
  5
1f3
100
AcDbEntity
  8
0
 62
7
100
AcDbSpline
 70
8
 71
3
 72
8
 73
4
 74
0
 40
0
 40
0
 40
0
 40
0
 40
1
 40
1
 40
1
 40
1
 10
263.918020
 20
542.486554
 30
0.0
 10
263.530551
 20
542.710935
 30
0.0
 10
263.052664
 20
542.710935
 30
0.0
 10
262.665193
 20
542.486554
 30
0.0
  0
SPLINE
  5
1f4
100
AcDbEntity
  8
0
 62
7
100
AcDbSpline
 70
8
 71
3
 72
8
 73
4
 74
0
 40
0
 40
0
 40
0
 40
0
 40
1
 40
1
 40
1
 40
1
 10
262.665193
 20
542.486554
 30
0.0
 10
262.277725
 20
542.262173
 30
0.0
 10
262.039862
 20
541.847688
 30
0.0
 10
262.041617
 20
541.399942
 30
0.0
  0
SPLINE
  5
1f5
100
AcDbEntity
  8
0
 62
7
100
AcDbSpline
 70
8
 71
3
 72
8
 73
4
 74
0
 40
0
 40
0
 40
0
 40
0
 40
1
 40
1
 40
1
 40
1
 10
262.041617
 20
541.399942
 30
0.0
 10
262.039924
 20
540.952197
 30
0.0
 10
262.277725
 20
540.537708
 30
0.0
 10
262.665193
 20
540.313330
 30
0.0
  0
SPLINE
  5
1f6
100
AcDbEntity
  8
0
 62
7
100
AcDbSpline
 70
8
 71
3
 72
8
 73
4
 74
0
 40
0
 40
0
 40
0
 40
0
 40
1
 40
1
 40
1
 40
1
 10
262.665193
 20
540.313330
 30
0.0
 10
263.052664
 20
540.088949
 30
0.0
 10
263.530551
 20
540.088949
 30
0.0
 10
263.918020
 20
540.313330
 30
0.0
  0
SPLINE
  5
1f7
100
AcDbEntity
  8
0
 62
7
100
AcDbSpline
 70
8
 71
3
 72
8
 73
4
 74
0
 40
0
 40
0
 40
0
 40
0
 40
1
 40
1
 40
1
 40
1
 10
263.918020
 20
540.313330
 30
0.0
 10
264.305491
 20
540.537708
 30
0.0
 10
264.543354
 20
540.952197
 30
0.0
 10
264.541598
 20
541.399942
 30
0.0
  0
LWPOLYLINE
  5
1f8
100
AcDbEntity
  8
0
 62
7
100
AcDbPolyline
 90
4
 70
1
 10
246.657176
 20
542.550362
 30
0.0
 10
246.657176
 20
542.550362
 30
0.0
 10
246.657176
 20
542.550362
 30
0.0
 10
246.657176
 20
542.550362
 30
0.0
  0
SPLINE
  5
1f9
100
AcDbEntity
  8
0
 62
7
100
AcDbSpline
 70
8
 71
3
 72
8
 73
4
 74
0
 40
0
 40
0
 40
0
 40
0
 40
1
 40
1
 40
1
 40
1
 10
250.236572
 20
547.209557
 30
0.0
 10
250.237983
 20
547.478351
 30
0.0
 10
250.095182
 20
547.727277
 30
0.0
 10
249.862608
 20
547.862044
 30
0.0
  0
SPLINE
  5
1fa
100
AcDbEntity
  8
0
 62
7
100
AcDbSpline
 70
8
 71
3
 72
8
 73
4
 74
0
 40
0
 40
0
 40
0
 40
0
 40
1
 40
1
 40
1
 40
1
 10
249.862608
 20
547.862044
 30
0.0
 10
249.630037
 20
547.996813
 30
0.0
 10
249.343124
 20
547.996813
 30
0.0
 10
249.110554
 20
547.862044
 30
0.0
  0
SPLINE
  5
1fb
100
AcDbEntity
  8
0
 62
7
100
AcDbSpline
 70
8
 71
3
 72
8
 73
4
 74
0
 40
0
 40
0
 40
0
 40
0
 40
1
 40
1
 40
1
 40
1
 10
249.110554
 20
547.862044
 30
0.0
 10
248.877980
 20
547.727277
 30
0.0
 10
248.735311
 20
547.478351
 30
0.0
 10
248.736589
 20
547.209557
 30
0.0
  0
SPLINE
  5
1fc
100
AcDbEntity
  8
0
 62
7
100
AcDbSpline
 70
8
 71
3
 72
8
 73
4
 74
0
 40
0
 40
0
 40
0
 40
0
 40
1
 40
1
 40
1
 40
1
 10
248.736589
 20
547.209557
 30
0.0
 10
248.735178
 20
546.940760
 30
0.0
 10
248.877980
 20
546.691837
 30
0.0
 10
249.110554
 20
546.557068
 30
0.0
  0
SPLINE
  5
1fd
100
AcDbEntity
  8
0
 62
7
100
AcDbSpline
 70
8
 71
3
 72
8
 73
4
 74
0
 40
0
 40
0
 40
0
 40
0
 40
1
 40
1
 40
1
 40
1
 10
249.110554
 20
546.557068
 30
0.0
 10
249.343124
 20
546.422301
 30
0.0
 10
249.630037
 20
546.422301
 30
0.0
 10
249.862608
 20
546.557068
 30
0.0
  0
SPLINE
  5
1fe
100
AcDbEntity
  8
0
 62
7
100
AcDbSpline
 70
8
 71
3
 72
8
 73
4
 74
0
 40
0
 40
0
 40
0
 40
0
 40
1
 40
1
 40
1
 40
1
 10
249.862608
 20
546.557068
 30
0.0
 10
250.095182
 20
546.691837
 30
0.0
 10
250.237851
 20
546.940760
 30
0.0
 10
250.236572
 20
547.209557
 30
0.0
  0
LWPOLYLINE
  5
1ff
100
AcDbEntity
  8
0
 62
7
100
AcDbPolyline
 90
4
 70
1
 10
272.767106
 20
529.205504
 30
0.0
 10
272.767106
 20
529.205504
 30
0.0
 10
272.767106
 20
529.205504
 30
0.0
 10
272.767106
 20
529.205504
 30
0.0
  0
SPLINE
  5
200
100
AcDbEntity
  8
0
 62
7
100
AcDbSpline
 70
8
 71
3
 72
8
 73
4
 74
0
 40
0
 40
0
 40
0
 40
0
 40
1
 40
1
 40
1
 40
1
 10
305.936763
 20
492.334584
 30
0.0
 10
305.936763
 20
492.692324
 30
0.0
 10
305.747025
 20
493.023190
 30
0.0
 10
305.437342
 20
493.202265
 30
0.0
  0
SPLINE
  5
201
100
AcDbEntity
  8
0
 62
7
100
AcDbSpline
 70
8
 71
3
 72
8
 73
4
 74
0
 40
0
 40
0
 40
0
 40
0
 40
1
 40
1
 40
1
 40
1
 10
305.437342
 20
493.202265
 30
0.0
 10
305.127660
 20
493.381341
 30
0.0
 10
304.745898
 20
493.381341
 30
0.0
 10
304.436187
 20
493.202265
 30
0.0
  0
SPLINE
  5
202
100
AcDbEntity
  8
0
 62
7
100
AcDbSpline
 70
8
 71
3
 72
8
 73
4
 74
0
 40
0
 40
0
 40
0
 40
0
 40
1
 40
1
 40
1
 40
1
 10
304.436187
 20
493.202265
 30
0.0
 10
304.126505
 20
493.023190
 30
0.0
 10
303.936061
 20
492.692324
 30
0.0
 10
303.936767
 20
492.334584
 30
0.0
  0
SPLINE
  5
203
100
AcDbEntity
  8
0
 62
7
100
AcDbSpline
 70
8
 71
3
 72
8
 73
4
 74
0
 40
0
 40
0
 40
0
 40
0
 40
1
 40
1
 40
1
 40
1
 10
303.936767
 20
492.334584
 30
0.0
 10
303.936767
 20
491.976845
 30
0.0
 10
304.126505
 20
491.645976
 30
0.0
 10
304.436187
 20
491.466903
 30
0.0
  0
SPLINE
  5
204
100
AcDbEntity
  8
0
 62
7
100
AcDbSpline
 70
8
 71
3
 72
8
 73
4
 74
0
 40
0
 40
0
 40
0
 40
0
 40
1
 40
1
 40
1
 40
1
 10
304.436187
 20
491.466903
 30
0.0
 10
304.745898
 20
491.287828
 30
0.0
 10
305.127660
 20
491.287828
 30
0.0
 10
305.437342
 20
491.466903
 30
0.0
  0
SPLINE
  5
205
100
AcDbEntity
  8
0
 62
7
100
AcDbSpline
 70
8
 71
3
 72
8
 73
4
 74
0
 40
0
 40
0
 40
0
 40
0
 40
1
 40
1
 40
1
 40
1
 10
305.437342
 20
491.466903
 30
0.0
 10
305.747025
 20
491.645976
 30
0.0
 10
305.937468
 20
491.976845
 30
0.0
 10
305.936763
 20
492.334584
 30
0.0
  0
LWPOLYLINE
  5
206
100
AcDbEntity
  8
0
 62
7
100
AcDbPolyline
 90
4
 70
1
 10
264.541598
 20
541.399942
 30
0.0
 10
264.541598
 20
541.399942
 30
0.0
 10
264.541598
 20
541.399942
 30
0.0
 10
264.541598
 20
541.399942
 30
0.0
  0
SPLINE
  5
207
100
AcDbEntity
  8
0
 62
7
100
AcDbSpline
 70
8
 71
3
 72
8
 73
4
 74
0
 40
0
 40
0
 40
0
 40
0
 40
1
 40
1
 40
1
 40
1
 10
246.805230
 20
532.254113
 30
0.0
 10
246.806077
 20
532.611853
 30
0.0
 10
246.615498
 20
532.942719
 30
0.0
 10
246.305807
 20
533.121794
 30
0.0
  0
SPLINE
  5
208
100
AcDbEntity
  8
0
 62
7
100
AcDbSpline
 70
8
 71
3
 72
8
 73
4
 74
0
 40
0
 40
0
 40
0
 40
0
 40
1
 40
1
 40
1
 40
1
 10
246.305807
 20
533.121794
 30
0.0
 10
245.996113
 20
533.300870
 30
0.0
 10
245.614351
 20
533.300870
 30
0.0
 10
245.304657
 20
533.121794
 30
0.0
  0
SPLINE
  5
209
100
AcDbEntity
  8
0
 62
7
100
AcDbSpline
 70
8
 71
3
 72
8
 73
4
 74
0
 40
0
 40
0
 40
0
 40
0
 40
1
 40
1
 40
1
 40
1
 10
245.304657
 20
533.121794
 30
0.0
 10
244.994966
 20
532.942719
 30
0.0
 10
244.804523
 20
532.611853
 30
0.0
 10
244.805234
 20
532.254113
 30
0.0
  0
SPLINE
  5
20a
100
AcDbEntity
  8
0
 62
7
100
AcDbSpline
 70
8
 71
3
 72
8
 73
4
 74
0
 40
0
 40
0
 40
0
 40
0
 40
1
 40
1
 40
1
 40
1
 10
244.805234
 20
532.254113
 30
0.0
 10
244.804387
 20
531.896374
 30
0.0
 10
244.994966
 20
531.565505
 30
0.0
 10
245.304657
 20
531.386432
 30
0.0
  0
SPLINE
  5
20b
100
AcDbEntity
  8
0
 62
7
100
AcDbSpline
 70
8
 71
3
 72
8
 73
4
 74
0
 40
0
 40
0
 40
0
 40
0
 40
1
 40
1
 40
1
 40
1
 10
245.304657
 20
531.386432
 30
0.0
 10
245.614351
 20
531.207357
 30
0.0
 10
245.996113
 20
531.207357
 30
0.0
 10
246.305807
 20
531.386432
 30
0.0
  0
SPLINE
  5
20c
100
AcDbEntity
  8
0
 62
7
100
AcDbSpline
 70
8
 71
3
 72
8
 73
4
 74
0
 40
0
 40
0
 40
0
 40
0
 40
1
 40
1
 40
1
 40
1
 10
246.305807
 20
531.386432
 30
0.0
 10
246.615498
 20
531.565505
 30
0.0
 10
246.805941
 20
531.896374
 30
0.0
 10
246.805230
 20
532.254113
 30
0.0
  0
LWPOLYLINE
  5
20d
100
AcDbEntity
  8
0
 62
7
100
AcDbPolyline
 90
4
 70
1
 10
250.236572
 20
547.209557
 30
0.0
 10
250.236572
 20
547.209557
 30
0.0
 10
250.236572
 20
547.209557
 30
0.0
 10
250.236572
 20
547.209557
 30
0.0
  0
SPLINE
  5
20e
100
AcDbEntity
  8
0
 62
7
100
AcDbSpline
 70
8
 71
3
 72
8
 73
4
 74
0
 40
0
 40
0
 40
0
 40
0
 40
1
 40
1
 40
1
 40
1
 10
249.221137
 20
474.215489
 30
0.0
 10
249.221137
 20
474.572760
 30
0.0
 10
249.030535
 20
474.902889
 30
0.0
 10
248.721132
 20
475.081524
 30
0.0
  0
SPLINE
  5
20f
100
AcDbEntity
  8
0
 62
7
100
AcDbSpline
 70
8
 71
3
 72
8
 73
4
 74
0
 40
0
 40
0
 40
0
 40
0
 40
1
 40
1
 40
1
 40
1
 10
248.721132
 20
475.081524
 30
0.0
 10
248.411726
 20
475.260160
 30
0.0
 10
248.030523
 20
475.260160
 30
0.0
 10
247.721120
 20
475.081524
 30
0.0
  0
SPLINE
  5
210
100
AcDbEntity
  8
0
 62
7
100
AcDbSpline
 70
8
 71
3
 72
8
 73
4
 74
0
 40
0
 40
0
 40
0
 40
0
 40
1
 40
1
 40
1
 40
1
 10
247.721120
 20
475.081524
 30
0.0
 10
247.411714
 20
474.902889
 30
0.0
 10
247.221113
 20
474.572760
 30
0.0
 10
247.221113
 20
474.215489
 30
0.0
  0
SPLINE
  5
211
100
AcDbEntity
  8
0
 62
7
100
AcDbSpline
 70
8
 71
3
 72
8
 73
4
 74
0
 40
0
 40
0
 40
0
 40
0
 40
1
 40
1
 40
1
 40
1
 10
247.221113
 20
474.215489
 30
0.0
 10
247.221113
 20
473.858218
 30
0.0
 10
247.411714
 20
473.528089
 30
0.0
 10
247.721120
 20
473.349453
 30
0.0
  0
SPLINE
  5
212
100
AcDbEntity
  8
0
 62
7
100
AcDbSpline
 70
8
 71
3
 72
8
 73
4
 74
0
 40
0
 40
0
 40
0
 40
0
 40
1
 40
1
 40
1
 40
1
 10
247.721120
 20
473.349453
 30
0.0
 10
248.030523
 20
473.170818
 30
0.0
 10
248.411726
 20
473.170818
 30
0.0
 10
248.721132
 20
473.349453
 30
0.0
  0
SPLINE
  5
213
100
AcDbEntity
  8
0
 62
7
100
AcDbSpline
 70
8
 71
3
 72
8
 73
4
 74
0
 40
0
 40
0
 40
0
 40
0
 40
1
 40
1
 40
1
 40
1
 10
248.721132
 20
473.349453
 30
0.0
 10
249.030535
 20
473.528089
 30
0.0
 10
249.221137
 20
473.858218
 30
0.0
 10
249.221137
 20
474.215489
 30
0.0
  0
LWPOLYLINE
  5
214
100
AcDbEntity
  8
0
 62
7
100
AcDbPolyline
 90
4
 70
1
 10
305.936763
 20
492.334584
 30
0.0
 10
305.936763
 20
492.334584
 30
0.0
 10
305.936763
 20
492.334584
 30
0.0
 10
305.936763
 20
492.334584
 30
0.0
  0
SPLINE
  5
215
100
AcDbEntity
  8
0
 62
7
100
AcDbSpline
 70
8
 71
3
 72
8
 73
4
 74
0
 40
0
 40
0
 40
0
 40
0
 40
1
 40
1
 40
1
 40
1
 10
239.710248
 20
488.710766
 30
0.0
 10
239.711659
 20
488.979566
 30
0.0
 10
239.568871
 20
489.228503
 30
0.0
 10
239.336292
 20
489.363278
 30
0.0
  0
SPLINE
  5
216
100
AcDbEntity
  8
0
 62
7
100
AcDbSpline
 70
8
 71
3
 72
8
 73
4
 74
0
 40
0
 40
0
 40
0
 40
0
 40
1
 40
1
 40
1
 40
1
 10
239.336292
 20
489.363278
 30
0.0
 10
239.103716
 20
489.498054
 30
0.0
 10
238.816797
 20
489.498054
 30
0.0
 10
238.584221
 20
489.363278
 30
0.0
  0
SPLINE
  5
217
100
AcDbEntity
  8
0
 62
7
100
AcDbSpline
 70
8
 71
3
 72
8
 73
4
 74
0
 40
0
 40
0
 40
0
 40
0
 40
1
 40
1
 40
1
 40
1
 10
238.584221
 20
489.363278
 30
0.0
 10
238.351641
 20
489.228503
 30
0.0
 10
238.208978
 20
488.979566
 30
0.0
 10
238.210265
 20
488.710766
 30
0.0
  0
SPLINE
  5
218
100
AcDbEntity
  8
0
 62
7
100
AcDbSpline
 70
8
 71
3
 72
8
 73
4
 74
0
 40
0
 40
0
 40
0
 40
0
 40
1
 40
1
 40
1
 40
1
 10
238.210265
 20
488.710766
 30
0.0
 10
238.208854
 20
488.441964
 30
0.0
 10
238.351641
 20
488.193027
 30
0.0
 10
238.584221
 20
488.058255
 30
0.0
  0
SPLINE
  5
219
100
AcDbEntity
  8
0
 62
7
100
AcDbSpline
 70
8
 71
3
 72
8
 73
4
 74
0
 40
0
 40
0
 40
0
 40
0
 40
1
 40
1
 40
1
 40
1
 10
238.584221
 20
488.058255
 30
0.0
 10
238.816797
 20
487.923479
 30
0.0
 10
239.103716
 20
487.923479
 30
0.0
 10
239.336292
 20
488.058255
 30
0.0
  0
SPLINE
  5
21a
100
AcDbEntity
  8
0
 62
7
100
AcDbSpline
 70
8
 71
3
 72
8
 73
4
 74
0
 40
0
 40
0
 40
0
 40
0
 40
1
 40
1
 40
1
 40
1
 10
239.336292
 20
488.058255
 30
0.0
 10
239.568871
 20
488.193027
 30
0.0
 10
239.711535
 20
488.441964
 30
0.0
 10
239.710248
 20
488.710766
 30
0.0
  0
LWPOLYLINE
  5
21b
100
AcDbEntity
  8
0
 62
7
100
AcDbPolyline
 90
4
 70
1
 10
246.805230
 20
532.254113
 30
0.0
 10
246.805230
 20
532.254113
 30
0.0
 10
246.805230
 20
532.254113
 30
0.0
 10
246.805230
 20
532.254113
 30
0.0
  0
SPLINE
  5
21c
100
AcDbEntity
  8
0
 62
7
100
AcDbSpline
 70
8
 71
3
 72
8
 73
4
 74
0
 40
0
 40
0
 40
0
 40
0
 40
1
 40
1
 40
1
 40
1
 10
248.090611
 20
520.347279
 30
0.0
 10
248.092304
 20
520.795022
 30
0.0
 10
247.854504
 20
521.209510
 30
0.0
 10
247.467033
 20
521.433891
 30
0.0
  0
SPLINE
  5
21d
100
AcDbEntity
  8
0
 62
7
100
AcDbSpline
 70
8
 71
3
 72
8
 73
4
 74
0
 40
0
 40
0
 40
0
 40
0
 40
1
 40
1
 40
1
 40
1
 10
247.467033
 20
521.433891
 30
0.0
 10
247.079564
 20
521.658272
 30
0.0
 10
246.601677
 20
521.658272
 30
0.0
 10
246.214206
 20
521.433891
 30
0.0
  0
SPLINE
  5
21e
100
AcDbEntity
  8
0
 62
7
100
AcDbSpline
 70
8
 71
3
 72
8
 73
4
 74
0
 40
0
 40
0
 40
0
 40
0
 40
1
 40
1
 40
1
 40
1
 10
246.214206
 20
521.433891
 30
0.0
 10
245.826737
 20
521.209510
 30
0.0
 10
245.588877
 20
520.795022
 30
0.0
 10
245.590630
 20
520.347279
 30
0.0
  0
SPLINE
  5
21f
100
AcDbEntity
  8
0
 62
7
100
AcDbSpline
 70
8
 71
3
 72
8
 73
4
 74
0
 40
0
 40
0
 40
0
 40
0
 40
1
 40
1
 40
1
 40
1
 10
245.590630
 20
520.347279
 30
0.0
 10
245.588937
 20
519.899534
 30
0.0
 10
245.826737
 20
519.485045
 30
0.0
 10
246.214206
 20
519.260667
 30
0.0
  0
SPLINE
  5
220
100
AcDbEntity
  8
0
 62
7
100
AcDbSpline
 70
8
 71
3
 72
8
 73
4
 74
0
 40
0
 40
0
 40
0
 40
0
 40
1
 40
1
 40
1
 40
1
 10
246.214206
 20
519.260667
 30
0.0
 10
246.601677
 20
519.036286
 30
0.0
 10
247.079564
 20
519.036286
 30
0.0
 10
247.467033
 20
519.260667
 30
0.0
  0
SPLINE
  5
221
100
AcDbEntity
  8
0
 62
7
100
AcDbSpline
 70
8
 71
3
 72
8
 73
4
 74
0
 40
0
 40
0
 40
0
 40
0
 40
1
 40
1
 40
1
 40
1
 10
247.467033
 20
519.260667
 30
0.0
 10
247.854504
 20
519.485045
 30
0.0
 10
248.092366
 20
519.899534
 30
0.0
 10
248.090611
 20
520.347279
 30
0.0
  0
LWPOLYLINE
  5
222
100
AcDbEntity
  8
0
 62
7
100
AcDbPolyline
 90
4
 70
1
 10
249.221137
 20
474.215489
 30
0.0
 10
249.221137
 20
474.215489
 30
0.0
 10
249.221137
 20
474.215489
 30
0.0
 10
249.221137
 20
474.215489
 30
0.0
  0
SPLINE
  5
223
100
AcDbEntity
  8
0
 62
7
100
AcDbSpline
 70
8
 71
3
 72
8
 73
4
 74
0
 40
0
 40
0
 40
0
 40
0
 40
1
 40
1
 40
1
 40
1
 10
287.040094
 20
539.423712
 30
0.0
 10
287.042916
 20
539.871455
 30
0.0
 10
286.803987
 20
540.285943
 30
0.0
 10
286.416524
 20
540.510324
 30
0.0
  0
SPLINE
  5
224
100
AcDbEntity
  8
0
 62
7
100
AcDbSpline
 70
8
 71
3
 72
8
 73
4
 74
0
 40
0
 40
0
 40
0
 40
0
 40
1
 40
1
 40
1
 40
1
 10
286.416524
 20
540.510324
 30
0.0
 10
286.029061
 20
540.734705
 30
0.0
 10
285.551146
 20
540.734705
 30
0.0
 10
285.163683
 20
540.510324
 30
0.0
  0
SPLINE
  5
225
100
AcDbEntity
  8
0
 62
7
100
AcDbSpline
 70
8
 71
3
 72
8
 73
4
 74
0
 40
0
 40
0
 40
0
 40
0
 40
1
 40
1
 40
1
 40
1
 10
285.163683
 20
540.510324
 30
0.0
 10
284.776220
 20
540.285943
 30
0.0
 10
284.538364
 20
539.871455
 30
0.0
 10
284.540113
 20
539.423712
 30
0.0
  0
SPLINE
  5
226
100
AcDbEntity
  8
0
 62
7
100
AcDbSpline
 70
8
 71
3
 72
8
 73
4
 74
0
 40
0
 40
0
 40
0
 40
0
 40
1
 40
1
 40
1
 40
1
 10
284.540113
 20
539.423712
 30
0.0
 10
284.537291
 20
538.975967
 30
0.0
 10
284.776220
 20
538.561478
 30
0.0
 10
285.163683
 20
538.337100
 30
0.0
  0
SPLINE
  5
227
100
AcDbEntity
  8
0
 62
7
100
AcDbSpline
 70
8
 71
3
 72
8
 73
4
 74
0
 40
0
 40
0
 40
0
 40
0
 40
1
 40
1
 40
1
 40
1
 10
285.163683
 20
538.337100
 30
0.0
 10
285.551146
 20
538.112719
 30
0.0
 10
286.029061
 20
538.112719
 30
0.0
 10
286.416524
 20
538.337100
 30
0.0
  0
SPLINE
  5
228
100
AcDbEntity
  8
0
 62
7
100
AcDbSpline
 70
8
 71
3
 72
8
 73
4
 74
0
 40
0
 40
0
 40
0
 40
0
 40
1
 40
1
 40
1
 40
1
 10
286.416524
 20
538.337100
 30
0.0
 10
286.803987
 20
538.561478
 30
0.0
 10
287.041844
 20
538.975967
 30
0.0
 10
287.040094
 20
539.423712
 30
0.0
  0
LWPOLYLINE
  5
229
100
AcDbEntity
  8
0
 62
7
100
AcDbPolyline
 90
4
 70
1
 10
239.710248
 20
488.710766
 30
0.0
 10
239.710248
 20
488.710766
 30
0.0
 10
239.710248
 20
488.710766
 30
0.0
 10
239.710248
 20
488.710766
 30
0.0
  0
SPLINE
  5
22a
100
AcDbEntity
  8
0
 62
7
100
AcDbSpline
 70
8
 71
3
 72
8
 73
4
 74
0
 40
0
 40
0
 40
0
 40
0
 40
1
 40
1
 40
1
 40
1
 10
261.280605
 20
479.392373
 30
0.0
 10
261.280605
 20
479.660323
 30
0.0
 10
261.137654
 20
479.907919
 30
0.0
 10
260.905602
 20
480.041896
 30
0.0
  0
SPLINE
  5
22b
100
AcDbEntity
  8
0
 62
7
100
AcDbSpline
 70
8
 71
3
 72
8
 73
4
 74
0
 40
0
 40
0
 40
0
 40
0
 40
1
 40
1
 40
1
 40
1
 10
260.905602
 20
480.041896
 30
0.0
 10
260.673551
 20
480.175873
 30
0.0
 10
260.387648
 20
480.175873
 30
0.0
 10
260.155597
 20
480.041896
 30
0.0
  0
SPLINE
  5
22c
100
AcDbEntity
  8
0
 62
7
100
AcDbSpline
 70
8
 71
3
 72
8
 73
4
 74
0
 40
0
 40
0
 40
0
 40
0
 40
1
 40
1
 40
1
 40
1
 10
260.155597
 20
480.041896
 30
0.0
 10
259.923542
 20
479.907919
 30
0.0
 10
259.780594
 20
479.660323
 30
0.0
 10
259.780594
 20
479.392373
 30
0.0
  0
SPLINE
  5
22d
100
AcDbEntity
  8
0
 62
7
100
AcDbSpline
 70
8
 71
3
 72
8
 73
4
 74
0
 40
0
 40
0
 40
0
 40
0
 40
1
 40
1
 40
1
 40
1
 10
259.780594
 20
479.392373
 30
0.0
 10
259.780594
 20
478.978155
 30
0.0
 10
260.116382
 20
478.642367
 30
0.0
 10
260.530600
 20
478.642367
 30
0.0
  0
SPLINE
  5
22e
100
AcDbEntity
  8
0
 62
7
100
AcDbSpline
 70
8
 71
3
 72
8
 73
4
 74
0
 40
0
 40
0
 40
0
 40
0
 40
1
 40
1
 40
1
 40
1
 10
260.530600
 20
478.642367
 30
0.0
 10
260.944817
 20
478.642367
 30
0.0
 10
261.280605
 20
478.978155
 30
0.0
 10
261.280605
 20
479.392373
 30
0.0
  0
LWPOLYLINE
  5
22f
100
AcDbEntity
  8
0
 62
7
100
AcDbPolyline
 90
4
 70
1
 10
248.090611
 20
520.347279
 30
0.0
 10
248.090611
 20
520.347279
 30
0.0
 10
248.090611
 20
520.347279
 30
0.0
 10
248.090611
 20
520.347279
 30
0.0
  0
SPLINE
  5
230
100
AcDbEntity
  8
0
 62
7
100
AcDbSpline
 70
8
 71
3
 72
8
 73
4
 74
0
 40
0
 40
0
 40
0
 40
0
 40
1
 40
1
 40
1
 40
1
 10
277.271429
 20
484.109091
 30
0.0
 10
277.271429
 20
484.377041
 30
0.0
 10
277.128478
 20
484.624637
 30
0.0
 10
276.896426
 20
484.758614
 30
0.0
  0
SPLINE
  5
231
100
AcDbEntity
  8
0
 62
7
100
AcDbSpline
 70
8
 71
3
 72
8
 73
4
 74
0
 40
0
 40
0
 40
0
 40
0
 40
1
 40
1
 40
1
 40
1
 10
276.896426
 20
484.758614
 30
0.0
 10
276.664375
 20
484.892590
 30
0.0
 10
276.378472
 20
484.892590
 30
0.0
 10
276.146421
 20
484.758614
 30
0.0
  0
SPLINE
  5
232
100
AcDbEntity
  8
0
 62
7
100
AcDbSpline
 70
8
 71
3
 72
8
 73
4
 74
0
 40
0
 40
0
 40
0
 40
0
 40
1
 40
1
 40
1
 40
1
 10
276.146421
 20
484.758614
 30
0.0
 10
275.914366
 20
484.624637
 30
0.0
 10
275.771418
 20
484.377041
 30
0.0
 10
275.771418
 20
484.109091
 30
0.0
  0
SPLINE
  5
233
100
AcDbEntity
  8
0
 62
7
100
AcDbSpline
 70
8
 71
3
 72
8
 73
4
 74
0
 40
0
 40
0
 40
0
 40
0
 40
1
 40
1
 40
1
 40
1
 10
275.771418
 20
484.109091
 30
0.0
 10
275.771418
 20
483.694873
 30
0.0
 10
276.107206
 20
483.359085
 30
0.0
 10
276.521424
 20
483.359085
 30
0.0
  0
SPLINE
  5
234
100
AcDbEntity
  8
0
 62
7
100
AcDbSpline
 70
8
 71
3
 72
8
 73
4
 74
0
 40
0
 40
0
 40
0
 40
0
 40
1
 40
1
 40
1
 40
1
 10
276.521424
 20
483.359085
 30
0.0
 10
276.935641
 20
483.359085
 30
0.0
 10
277.271429
 20
483.694873
 30
0.0
 10
277.271429
 20
484.109091
 30
0.0
  0
LWPOLYLINE
  5
235
100
AcDbEntity
  8
0
 62
7
100
AcDbPolyline
 90
4
 70
1
 10
287.040094
 20
539.423712
 30
0.0
 10
287.040094
 20
539.423712
 30
0.0
 10
287.040094
 20
539.423712
 30
0.0
 10
287.040094
 20
539.423712
 30
0.0
  0
SPLINE
  5
236
100
AcDbEntity
  8
0
 62
7
100
AcDbSpline
 70
8
 71
3
 72
8
 73
4
 74
0
 40
0
 40
0
 40
0
 40
0
 40
1
 40
1
 40
1
 40
1
 10
292.744539
 20
511.258973
 30
0.0
 10
292.744539
 20
511.527776
 30
0.0
 10
292.603174
 20
511.776710
 30
0.0
 10
292.370595
 20
511.911485
 30
0.0
  0
SPLINE
  5
237
100
AcDbEntity
  8
0
 62
7
100
AcDbSpline
 70
8
 71
3
 72
8
 73
4
 74
0
 40
0
 40
0
 40
0
 40
0
 40
1
 40
1
 40
1
 40
1
 10
292.370595
 20
511.911485
 30
0.0
 10
292.138015
 20
512.046260
 30
0.0
 10
291.851080
 20
512.046260
 30
0.0
 10
291.618501
 20
511.911485
 30
0.0
  0
SPLINE
  5
238
100
AcDbEntity
  8
0
 62
7
100
AcDbSpline
 70
8
 71
3
 72
8
 73
4
 74
0
 40
0
 40
0
 40
0
 40
0
 40
1
 40
1
 40
1
 40
1
 10
291.618501
 20
511.911485
 30
0.0
 10
291.385921
 20
511.776710
 30
0.0
 10
291.243258
 20
511.527776
 30
0.0
 10
291.244556
 20
511.258973
 30
0.0
  0
SPLINE
  5
239
100
AcDbEntity
  8
0
 62
7
100
AcDbSpline
 70
8
 71
3
 72
8
 73
4
 74
0
 40
0
 40
0
 40
0
 40
0
 40
1
 40
1
 40
1
 40
1
 10
291.244556
 20
511.258973
 30
0.0
 10
291.244556
 20
510.990170
 30
0.0
 10
291.385921
 20
510.741233
 30
0.0
 10
291.618501
 20
510.606458
 30
0.0
  0
SPLINE
  5
23a
100
AcDbEntity
  8
0
 62
7
100
AcDbSpline
 70
8
 71
3
 72
8
 73
4
 74
0
 40
0
 40
0
 40
0
 40
0
 40
1
 40
1
 40
1
 40
1
 10
291.618501
 20
510.606458
 30
0.0
 10
291.851080
 20
510.471686
 30
0.0
 10
292.138015
 20
510.471686
 30
0.0
 10
292.370595
 20
510.606458
 30
0.0
  0
SPLINE
  5
23b
100
AcDbEntity
  8
0
 62
7
100
AcDbSpline
 70
8
 71
3
 72
8
 73
4
 74
0
 40
0
 40
0
 40
0
 40
0
 40
1
 40
1
 40
1
 40
1
 10
292.370595
 20
510.606458
 30
0.0
 10
292.603174
 20
510.741233
 30
0.0
 10
292.745837
 20
510.990170
 30
0.0
 10
292.744539
 20
511.258973
 30
0.0
  0
LWPOLYLINE
  5
23c
100
AcDbEntity
  8
0
 62
7
100
AcDbPolyline
 90
4
 70
1
 10
261.280605
 20
479.392373
 30
0.0
 10
261.280605
 20
479.392373
 30
0.0
 10
261.280605
 20
479.392373
 30
0.0
 10
261.280605
 20
479.392373
 30
0.0
  0
SPLINE
  5
23d
100
AcDbEntity
  8
0
 62
7
100
AcDbSpline
 70
8
 71
3
 72
8
 73
4
 74
0
 40
0
 40
0
 40
0
 40
0
 40
1
 40
1
 40
1
 40
1
 10
294.412670
 20
532.656760
 30
0.0
 10
294.412670
 20
532.924710
 30
0.0
 10
294.269724
 20
533.172306
 30
0.0
 10
294.037653
 20
533.306283
 30
0.0
  0
SPLINE
  5
23e
100
AcDbEntity
  8
0
 62
7
100
AcDbSpline
 70
8
 71
3
 72
8
 73
4
 74
0
 40
0
 40
0
 40
0
 40
0
 40
1
 40
1
 40
1
 40
1
 10
294.037653
 20
533.306283
 30
0.0
 10
293.805610
 20
533.440260
 30
0.0
 10
293.519719
 20
533.440260
 30
0.0
 10
293.287676
 20
533.306283
 30
0.0
  0
SPLINE
  5
23f
100
AcDbEntity
  8
0
 62
7
100
AcDbSpline
 70
8
 71
3
 72
8
 73
4
 74
0
 40
0
 40
0
 40
0
 40
0
 40
1
 40
1
 40
1
 40
1
 10
293.287676
 20
533.306283
 30
0.0
 10
293.055604
 20
533.172306
 30
0.0
 10
292.912659
 20
532.924710
 30
0.0
 10
292.912659
 20
532.656760
 30
0.0
  0
SPLINE
  5
240
100
AcDbEntity
  8
0
 62
7
100
AcDbSpline
 70
8
 71
3
 72
8
 73
4
 74
0
 40
0
 40
0
 40
0
 40
0
 40
1
 40
1
 40
1
 40
1
 10
292.912659
 20
532.656760
 30
0.0
 10
292.912659
 20
532.388810
 30
0.0
 10
293.055604
 20
532.141210
 30
0.0
 10
293.287676
 20
532.007237
 30
0.0
  0
SPLINE
  5
241
100
AcDbEntity
  8
0
 62
7
100
AcDbSpline
 70
8
 71
3
 72
8
 73
4
 74
0
 40
0
 40
0
 40
0
 40
0
 40
1
 40
1
 40
1
 40
1
 10
293.287676
 20
532.007237
 30
0.0
 10
293.519719
 20
531.873260
 30
0.0
 10
293.805610
 20
531.873260
 30
0.0
 10
294.037653
 20
532.007237
 30
0.0
  0
SPLINE
  5
242
100
AcDbEntity
  8
0
 62
7
100
AcDbSpline
 70
8
 71
3
 72
8
 73
4
 74
0
 40
0
 40
0
 40
0
 40
0
 40
1
 40
1
 40
1
 40
1
 10
294.037653
 20
532.007237
 30
0.0
 10
294.269724
 20
532.141210
 30
0.0
 10
294.412670
 20
532.388810
 30
0.0
 10
294.412670
 20
532.656760
 30
0.0
  0
LWPOLYLINE
  5
243
100
AcDbEntity
  8
0
 62
7
100
AcDbPolyline
 90
4
 70
1
 10
277.271429
 20
484.109091
 30
0.0
 10
277.271429
 20
484.109091
 30
0.0
 10
277.271429
 20
484.109091
 30
0.0
 10
277.271429
 20
484.109091
 30
0.0
  0
SPLINE
  5
244
100
AcDbEntity
  8
0
 62
7
100
AcDbSpline
 70
8
 71
3
 72
8
 73
4
 74
0
 40
0
 40
0
 40
0
 40
0
 40
1
 40
1
 40
1
 40
1
 10
238.657192
 20
542.550362
 30
0.0
 10
238.657192
 20
542.996945
 30
0.0
 10
238.418943
 20
543.409604
 30
0.0
 10
238.032191
 20
543.632896
 30
0.0
  0
SPLINE
  5
245
100
AcDbEntity
  8
0
 62
7
100
AcDbSpline
 70
8
 71
3
 72
8
 73
4
 74
0
 40
0
 40
0
 40
0
 40
0
 40
1
 40
1
 40
1
 40
1
 10
238.032191
 20
543.632896
 30
0.0
 10
237.645437
 20
543.856187
 30
0.0
 10
237.168938
 20
543.856187
 30
0.0
 10
236.782184
 20
543.632896
 30
0.0
  0
SPLINE
  5
246
100
AcDbEntity
  8
0
 62
7
100
AcDbSpline
 70
8
 71
3
 72
8
 73
4
 74
0
 40
0
 40
0
 40
0
 40
0
 40
1
 40
1
 40
1
 40
1
 10
236.782184
 20
543.632896
 30
0.0
 10
236.395432
 20
543.409604
 30
0.0
 10
236.157183
 20
542.996945
 30
0.0
 10
236.157183
 20
542.550362
 30
0.0
  0
SPLINE
  5
247
100
AcDbEntity
  8
0
 62
7
100
AcDbSpline
 70
8
 71
3
 72
8
 73
4
 74
0
 40
0
 40
0
 40
0
 40
0
 40
1
 40
1
 40
1
 40
1
 10
236.157183
 20
542.550362
 30
0.0
 10
236.157183
 20
542.103776
 30
0.0
 10
236.395432
 20
541.691117
 30
0.0
 10
236.782184
 20
541.467825
 30
0.0
  0
SPLINE
  5
248
100
AcDbEntity
  8
0
 62
7
100
AcDbSpline
 70
8
 71
3
 72
8
 73
4
 74
0
 40
0
 40
0
 40
0
 40
0
 40
1
 40
1
 40
1
 40
1
 10
236.782184
 20
541.467825
 30
0.0
 10
237.168938
 20
541.244534
 30
0.0
 10
237.645437
 20
541.244534
 30
0.0
 10
238.032191
 20
541.467825
 30
0.0
  0
SPLINE
  5
249
100
AcDbEntity
  8
0
 62
7
100
AcDbSpline
 70
8
 71
3
 72
8
 73
4
 74
0
 40
0
 40
0
 40
0
 40
0
 40
1
 40
1
 40
1
 40
1
 10
238.032191
 20
541.467825
 30
0.0
 10
238.418943
 20
541.691117
 30
0.0
 10
238.657192
 20
542.103776
 30
0.0
 10
238.657192
 20
542.550362
 30
0.0
  0
LWPOLYLINE
  5
24a
100
AcDbEntity
  8
0
 62
7
100
AcDbPolyline
 90
4
 70
1
 10
292.744539
 20
511.258973
 30
0.0
 10
292.744539
 20
511.258973
 30
0.0
 10
292.744539
 20
511.258973
 30
0.0
 10
292.744539
 20
511.258973
 30
0.0
  0
SPLINE
  5
24b
100
AcDbEntity
  8
0
 62
7
100
AcDbSpline
 70
8
 71
3
 72
8
 73
4
 74
0
 40
0
 40
0
 40
0
 40
0
 40
1
 40
1
 40
1
 40
1
 10
285.651787
 20
504.989192
 30
0.0
 10
285.651787
 20
505.435775
 30
0.0
 10
285.413535
 20
505.848434
 30
0.0
 10
285.026777
 20
506.071729
 30
0.0
  0
SPLINE
  5
24c
100
AcDbEntity
  8
0
 62
7
100
AcDbSpline
 70
8
 71
3
 72
8
 73
4
 74
0
 40
0
 40
0
 40
0
 40
0
 40
1
 40
1
 40
1
 40
1
 10
285.026777
 20
506.071729
 30
0.0
 10
284.640020
 20
506.295017
 30
0.0
 10
284.163544
 20
506.295017
 30
0.0
 10
283.776787
 20
506.071729
 30
0.0
  0
SPLINE
  5
24d
100
AcDbEntity
  8
0
 62
7
100
AcDbSpline
 70
8
 71
3
 72
8
 73
4
 74
0
 40
0
 40
0
 40
0
 40
0
 40
1
 40
1
 40
1
 40
1
 10
283.776787
 20
506.071729
 30
0.0
 10
283.390030
 20
505.848434
 30
0.0
 10
283.151778
 20
505.435775
 30
0.0
 10
283.151778
 20
504.989192
 30
0.0
  0
SPLINE
  5
24e
100
AcDbEntity
  8
0
 62
7
100
AcDbSpline
 70
8
 71
3
 72
8
 73
4
 74
0
 40
0
 40
0
 40
0
 40
0
 40
1
 40
1
 40
1
 40
1
 10
283.151778
 20
504.989192
 30
0.0
 10
283.151778
 20
504.542606
 30
0.0
 10
283.390030
 20
504.129946
 30
0.0
 10
283.776787
 20
503.906655
 30
0.0
  0
SPLINE
  5
24f
100
AcDbEntity
  8
0
 62
7
100
AcDbSpline
 70
8
 71
3
 72
8
 73
4
 74
0
 40
0
 40
0
 40
0
 40
0
 40
1
 40
1
 40
1
 40
1
 10
283.776787
 20
503.906655
 30
0.0
 10
284.163544
 20
503.683364
 30
0.0
 10
284.640020
 20
503.683364
 30
0.0
 10
285.026777
 20
503.906655
 30
0.0
  0
SPLINE
  5
250
100
AcDbEntity
  8
0
 62
7
100
AcDbSpline
 70
8
 71
3
 72
8
 73
4
 74
0
 40
0
 40
0
 40
0
 40
0
 40
1
 40
1
 40
1
 40
1
 10
285.026777
 20
503.906655
 30
0.0
 10
285.413535
 20
504.129946
 30
0.0
 10
285.651787
 20
504.542606
 30
0.0
 10
285.651787
 20
504.989192
 30
0.0
  0
LWPOLYLINE
  5
251
100
AcDbEntity
  8
0
 62
7
100
AcDbPolyline
 90
4
 70
1
 10
294.412670
 20
532.656760
 30
0.0
 10
294.412670
 20
532.656760
 30
0.0
 10
294.412670
 20
532.656760
 30
0.0
 10
294.412670
 20
532.656760
 30
0.0
  0
SPLINE
  5
252
100
AcDbEntity
  8
0
 62
7
100
AcDbSpline
 70
8
 71
3
 72
8
 73
4
 74
0
 40
0
 40
0
 40
0
 40
0
 40
1
 40
1
 40
1
 40
1
 10
303.615993
 20
516.263295
 30
0.0
 10
303.615993
 20
516.532089
 30
0.0
 10
303.474600
 20
516.781015
 30
0.0
 10
303.242020
 20
516.915782
 30
0.0
  0
SPLINE
  5
253
100
AcDbEntity
  8
0
 62
7
100
AcDbSpline
 70
8
 71
3
 72
8
 73
4
 74
0
 40
0
 40
0
 40
0
 40
0
 40
1
 40
1
 40
1
 40
1
 10
303.242020
 20
516.915782
 30
0.0
 10
303.009469
 20
517.050548
 30
0.0
 10
302.722534
 20
517.050548
 30
0.0
 10
302.489983
 20
516.915782
 30
0.0
  0
SPLINE
  5
254
100
AcDbEntity
  8
0
 62
7
100
AcDbSpline
 70
8
 71
3
 72
8
 73
4
 74
0
 40
0
 40
0
 40
0
 40
0
 40
1
 40
1
 40
1
 40
1
 10
302.489983
 20
516.915782
 30
0.0
 10
302.257404
 20
516.781015
 30
0.0
 10
302.114740
 20
516.532089
 30
0.0
 10
302.116010
 20
516.263295
 30
0.0
  0
SPLINE
  5
255
100
AcDbEntity
  8
0
 62
7
100
AcDbSpline
 70
8
 71
3
 72
8
 73
4
 74
0
 40
0
 40
0
 40
0
 40
0
 40
1
 40
1
 40
1
 40
1
 10
302.116010
 20
516.263295
 30
0.0
 10
302.116010
 20
515.994498
 30
0.0
 10
302.257404
 20
515.745575
 30
0.0
 10
302.489983
 20
515.610806
 30
0.0
  0
SPLINE
  5
256
100
AcDbEntity
  8
0
 62
7
100
AcDbSpline
 70
8
 71
3
 72
8
 73
4
 74
0
 40
0
 40
0
 40
0
 40
0
 40
1
 40
1
 40
1
 40
1
 10
302.489983
 20
515.610806
 30
0.0
 10
302.722534
 20
515.476039
 30
0.0
 10
303.009469
 20
515.476039
 30
0.0
 10
303.242020
 20
515.610806
 30
0.0
  0
SPLINE
  5
257
100
AcDbEntity
  8
0
 62
7
100
AcDbSpline
 70
8
 71
3
 72
8
 73
4
 74
0
 40
0
 40
0
 40
0
 40
0
 40
1
 40
1
 40
1
 40
1
 10
303.242020
 20
515.610806
 30
0.0
 10
303.474600
 20
515.745575
 30
0.0
 10
303.617263
 20
515.994498
 30
0.0
 10
303.615993
 20
516.263295
 30
0.0
  0
LWPOLYLINE
  5
258
100
AcDbEntity
  8
0
 62
7
100
AcDbPolyline
 90
4
 70
1
 10
238.657192
 20
542.550362
 30
0.0
 10
238.657192
 20
542.550362
 30
0.0
 10
238.657192
 20
542.550362
 30
0.0
 10
238.657192
 20
542.550362
 30
0.0
  0
SPLINE
  5
259
100
AcDbEntity
  8
0
 62
7
100
AcDbSpline
 70
8
 71
3
 72
8
 73
4
 74
0
 40
0
 40
0
 40
0
 40
0
 40
1
 40
1
 40
1
 40
1
 10
289.025612
 20
490.781518
 30
0.0
 10
289.025612
 20
491.139258
 30
0.0
 10
288.835874
 20
491.470124
 30
0.0
 10
288.526192
 20
491.649199
 30
0.0
  0
SPLINE
  5
25a
100
AcDbEntity
  8
0
 62
7
100
AcDbSpline
 70
8
 71
3
 72
8
 73
4
 74
0
 40
0
 40
0
 40
0
 40
0
 40
1
 40
1
 40
1
 40
1
 10
288.526192
 20
491.649199
 30
0.0
 10
288.216481
 20
491.828275
 30
0.0
 10
287.834719
 20
491.828275
 30
0.0
 10
287.525037
 20
491.649199
 30
0.0
  0
SPLINE
  5
25b
100
AcDbEntity
  8
0
 62
7
100
AcDbSpline
 70
8
 71
3
 72
8
 73
4
 74
0
 40
0
 40
0
 40
0
 40
0
 40
1
 40
1
 40
1
 40
1
 10
287.525037
 20
491.649199
 30
0.0
 10
287.215354
 20
491.470124
 30
0.0
 10
287.024911
 20
491.139258
 30
0.0
 10
287.025616
 20
490.781518
 30
0.0
  0
SPLINE
  5
25c
100
AcDbEntity
  8
0
 62
7
100
AcDbSpline
 70
8
 71
3
 72
8
 73
4
 74
0
 40
0
 40
0
 40
0
 40
0
 40
1
 40
1
 40
1
 40
1
 10
287.025616
 20
490.781518
 30
0.0
 10
287.025616
 20
490.423779
 30
0.0
 10
287.215354
 20
490.092910
 30
0.0
 10
287.525037
 20
489.913837
 30
0.0
  0
SPLINE
  5
25d
100
AcDbEntity
  8
0
 62
7
100
AcDbSpline
 70
8
 71
3
 72
8
 73
4
 74
0
 40
0
 40
0
 40
0
 40
0
 40
1
 40
1
 40
1
 40
1
 10
287.525037
 20
489.913837
 30
0.0
 10
287.834719
 20
489.734762
 30
0.0
 10
288.216481
 20
489.734762
 30
0.0
 10
288.526192
 20
489.913837
 30
0.0
  0
SPLINE
  5
25e
100
AcDbEntity
  8
0
 62
7
100
AcDbSpline
 70
8
 71
3
 72
8
 73
4
 74
0
 40
0
 40
0
 40
0
 40
0
 40
1
 40
1
 40
1
 40
1
 10
288.526192
 20
489.913837
 30
0.0
 10
288.835874
 20
490.092910
 30
0.0
 10
289.026318
 20
490.423779
 30
0.0
 10
289.025612
 20
490.781518
 30
0.0
  0
LWPOLYLINE
  5
25f
100
AcDbEntity
  8
0
 62
7
100
AcDbPolyline
 90
4
 70
1
 10
285.651787
 20
504.989192
 30
0.0
 10
285.651787
 20
504.989192
 30
0.0
 10
285.651787
 20
504.989192
 30
0.0
 10
285.651787
 20
504.989192
 30
0.0
  0
SPLINE
  5
260
100
AcDbEntity
  8
0
 62
7
100
AcDbSpline
 70
8
 71
3
 72
8
 73
4
 74
0
 40
0
 40
0
 40
0
 40
0
 40
1
 40
1
 40
1
 40
1
 10
301.737720
 20
527.249794
 30
0.0
 10
301.737720
 20
527.607547
 30
0.0
 10
301.548010
 20
527.938445
 30
0.0
 10
301.238327
 20
528.117534
 30
0.0
  0
SPLINE
  5
261
100
AcDbEntity
  8
0
 62
7
100
AcDbSpline
 70
8
 71
3
 72
8
 73
4
 74
0
 40
0
 40
0
 40
0
 40
0
 40
1
 40
1
 40
1
 40
1
 10
301.238327
 20
528.117534
 30
0.0
 10
300.928617
 20
528.296624
 30
0.0
 10
300.546826
 20
528.296624
 30
0.0
 10
300.237116
 20
528.117534
 30
0.0
  0
SPLINE
  5
262
100
AcDbEntity
  8
0
 62
7
100
AcDbSpline
 70
8
 71
3
 72
8
 73
4
 74
0
 40
0
 40
0
 40
0
 40
0
 40
1
 40
1
 40
1
 40
1
 10
300.237116
 20
528.117534
 30
0.0
 10
299.927433
 20
527.938445
 30
0.0
 10
299.736990
 20
527.607547
 30
0.0
 10
299.737724
 20
527.249794
 30
0.0
  0
SPLINE
  5
263
100
AcDbEntity
  8
0
 62
7
100
AcDbSpline
 70
8
 71
3
 72
8
 73
4
 74
0
 40
0
 40
0
 40
0
 40
0
 40
1
 40
1
 40
1
 40
1
 10
299.737724
 20
527.249794
 30
0.0
 10
299.737724
 20
526.892038
 30
0.0
 10
299.927433
 20
526.561144
 30
0.0
 10
300.237116
 20
526.382054
 30
0.0
  0
SPLINE
  5
264
100
AcDbEntity
  8
0
 62
7
100
AcDbSpline
 70
8
 71
3
 72
8
 73
4
 74
0
 40
0
 40
0
 40
0
 40
0
 40
1
 40
1
 40
1
 40
1
 10
300.237116
 20
526.382054
 30
0.0
 10
300.546826
 20
526.202964
 30
0.0
 10
300.928617
 20
526.202964
 30
0.0
 10
301.238327
 20
526.382054
 30
0.0
  0
SPLINE
  5
265
100
AcDbEntity
  8
0
 62
7
100
AcDbSpline
 70
8
 71
3
 72
8
 73
4
 74
0
 40
0
 40
0
 40
0
 40
0
 40
1
 40
1
 40
1
 40
1
 10
301.238327
 20
526.382054
 30
0.0
 10
301.548010
 20
526.561144
 30
0.0
 10
301.738453
 20
526.892038
 30
0.0
 10
301.737720
 20
527.249794
 30
0.0
  0
LWPOLYLINE
  5
266
100
AcDbEntity
  8
0
 62
7
100
AcDbPolyline
 90
4
 70
1
 10
303.615993
 20
516.263295
 30
0.0
 10
303.615993
 20
516.263295
 30
0.0
 10
303.615993
 20
516.263295
 30
0.0
 10
303.615993
 20
516.263295
 30
0.0
  0
SPLINE
  5
267
100
AcDbEntity
  8
0
 62
7
100
AcDbSpline
 70
8
 71
3
 72
8
 73
4
 74
0
 40
0
 40
0
 40
0
 40
0
 40
1
 40
1
 40
1
 40
1
 10
277.386463
 20
507.117466
 30
0.0
 10
277.386463
 20
507.385417
 30
0.0
 10
277.243512
 20
507.633013
 30
0.0
 10
277.011460
 20
507.766989
 30
0.0
  0
SPLINE
  5
268
100
AcDbEntity
  8
0
 62
7
100
AcDbSpline
 70
8
 71
3
 72
8
 73
4
 74
0
 40
0
 40
0
 40
0
 40
0
 40
1
 40
1
 40
1
 40
1
 10
277.011460
 20
507.766989
 30
0.0
 10
276.779409
 20
507.900966
 30
0.0
 10
276.493506
 20
507.900966
 30
0.0
 10
276.261455
 20
507.766989
 30
0.0
  0
SPLINE
  5
269
100
AcDbEntity
  8
0
 62
7
100
AcDbSpline
 70
8
 71
3
 72
8
 73
4
 74
0
 40
0
 40
0
 40
0
 40
0
 40
1
 40
1
 40
1
 40
1
 10
276.261455
 20
507.766989
 30
0.0
 10
276.029403
 20
507.633013
 30
0.0
 10
275.886452
 20
507.385417
 30
0.0
 10
275.886452
 20
507.117466
 30
0.0
  0
SPLINE
  5
26a
100
AcDbEntity
  8
0
 62
7
100
AcDbSpline
 70
8
 71
3
 72
8
 73
4
 74
0
 40
0
 40
0
 40
0
 40
0
 40
1
 40
1
 40
1
 40
1
 10
275.886452
 20
507.117466
 30
0.0
 10
275.886452
 20
506.703249
 30
0.0
 10
276.222240
 20
506.367461
 30
0.0
 10
276.636457
 20
506.367461
 30
0.0
  0
SPLINE
  5
26b
100
AcDbEntity
  8
0
 62
7
100
AcDbSpline
 70
8
 71
3
 72
8
 73
4
 74
0
 40
0
 40
0
 40
0
 40
0
 40
1
 40
1
 40
1
 40
1
 10
276.636457
 20
506.367461
 30
0.0
 10
277.050675
 20
506.367461
 30
0.0
 10
277.386463
 20
506.703249
 30
0.0
 10
277.386463
 20
507.117466
 30
0.0
  0
LWPOLYLINE
  5
26c
100
AcDbEntity
  8
0
 62
7
100
AcDbPolyline
 90
4
 70
1
 10
289.025612
 20
490.781518
 30
0.0
 10
289.025612
 20
490.781518
 30
0.0
 10
289.025612
 20
490.781518
 30
0.0
 10
289.025612
 20
490.781518
 30
0.0
  0
SPLINE
  5
26d
100
AcDbEntity
  8
0
 62
7
100
AcDbSpline
 70
8
 71
3
 72
8
 73
4
 74
0
 40
0
 40
0
 40
0
 40
0
 40
1
 40
1
 40
1
 40
1
 10
285.669482
 20
477.494183
 30
0.0
 10
285.669482
 20
477.762133
 30
0.0
 10
285.526536
 20
478.009729
 30
0.0
 10
285.294465
 20
478.143706
 30
0.0
  0
SPLINE
  5
26e
100
AcDbEntity
  8
0
 62
7
100
AcDbSpline
 70
8
 71
3
 72
8
 73
4
 74
0
 40
0
 40
0
 40
0
 40
0
 40
1
 40
1
 40
1
 40
1
 10
285.294465
 20
478.143706
 30
0.0
 10
285.062422
 20
478.277683
 30
0.0
 10
284.776531
 20
478.277683
 30
0.0
 10
284.544488
 20
478.143706
 30
0.0
  0
SPLINE
  5
26f
100
AcDbEntity
  8
0
 62
7
100
AcDbSpline
 70
8
 71
3
 72
8
 73
4
 74
0
 40
0
 40
0
 40
0
 40
0
 40
1
 40
1
 40
1
 40
1
 10
284.544488
 20
478.143706
 30
0.0
 10
284.312416
 20
478.009729
 30
0.0
 10
284.169471
 20
477.762133
 30
0.0
 10
284.169471
 20
477.494183
 30
0.0
  0
SPLINE
  5
270
100
AcDbEntity
  8
0
 62
7
100
AcDbSpline
 70
8
 71
3
 72
8
 73
4
 74
0
 40
0
 40
0
 40
0
 40
0
 40
1
 40
1
 40
1
 40
1
 10
284.169471
 20
477.494183
 30
0.0
 10
284.169471
 20
477.079965
 30
0.0
 10
284.505259
 20
476.744177
 30
0.0
 10
284.919476
 20
476.744177
 30
0.0
  0
SPLINE
  5
271
100
AcDbEntity
  8
0
 62
7
100
AcDbSpline
 70
8
 71
3
 72
8
 73
4
 74
0
 40
0
 40
0
 40
0
 40
0
 40
1
 40
1
 40
1
 40
1
 10
284.919476
 20
476.744177
 30
0.0
 10
285.333694
 20
476.744177
 30
0.0
 10
285.669482
 20
477.079965
 30
0.0
 10
285.669482
 20
477.494183
 30
0.0
  0
LWPOLYLINE
  5
272
100
AcDbEntity
  8
0
 62
7
100
AcDbPolyline
 90
4
 70
1
 10
301.737720
 20
527.249794
 30
0.0
 10
301.737720
 20
527.249794
 30
0.0
 10
301.737720
 20
527.249794
 30
0.0
 10
301.737720
 20
527.249794
 30
0.0
  0
LWPOLYLINE
  5
273
100
AcDbEntity
  8
0
 62
7
100
AcDbPolyline
 90
4
 70
1
 10
277.386463
 20
507.117466
 30
0.0
 10
277.386463
 20
507.117466
 30
0.0
 10
277.386463
 20
507.117466
 30
0.0
 10
277.386463
 20
507.117466
 30
0.0
  0
SPLINE
  5
274
100
AcDbEntity
  8
0
 62
7
100
AcDbSpline
 70
8
 71
3
 72
8
 73
4
 74
0
 40
0
 40
0
 40
0
 40
0
 40
1
 40
1
 40
1
 40
1
 10
224.006416
 20
550.924319
 30
0.0
 10
225.332502
 20
550.924313
 30
0.0
 10
226.604274
 20
551.451095
 30
0.0
 10
227.541960
 20
552.388778
 30
0.0
  0
SPLINE
  5
275
100
AcDbEntity
  8
0
 62
7
100
AcDbSpline
 70
8
 71
3
 72
8
 73
4
 74
0
 40
0
 40
0
 40
0
 40
0
 40
1
 40
1
 40
1
 40
1
 10
227.541960
 20
552.388778
 30
0.0
 10
228.479646
 20
553.326459
 30
0.0
 10
229.006434
 20
554.598231
 30
0.0
 10
229.006434
 20
555.924317
 30
0.0
  0
LWPOLYLINE
  5
276
100
AcDbEntity
  8
0
 62
7
100
AcDbPolyline
 90
4
 70
1
 10
285.669482
 20
477.494183
 30
0.0
 10
285.669482
 20
477.494183
 30
0.0
 10
285.669482
 20
477.494183
 30
0.0
 10
285.669482
 20
477.494183
 30
0.0
  0
SPLINE
  5
277
100
AcDbEntity
  8
0
 62
7
100
AcDbSpline
 70
8
 71
3
 72
8
 73
4
 74
0
 40
0
 40
0
 40
0
 40
0
 40
1
 40
1
 40
1
 40
1
 10
246.506413
 20
578.472580
 30
0.0
 10
246.511578
 20
582.584575
 30
0.0
 10
244.320808
 20
586.386390
 30
0.0
 10
240.760583
 20
588.443875
 30
0.0
  0
SPLINE
  5
278
100
AcDbEntity
  8
0
 62
7
100
AcDbSpline
 70
8
 71
3
 72
8
 73
4
 74
0
 40
0
 40
0
 40
0
 40
0
 40
1
 40
1
 40
1
 40
1
 10
240.760583
 20
588.443875
 30
0.0
 10
237.200355
 20
590.501360
 30
0.0
 10
232.812488
 20
590.501360
 30
0.0
 10
229.252261
 20
588.443875
 30
0.0
  0
SPLINE
  5
279
100
AcDbEntity
  8
0
 62
7
100
AcDbSpline
 70
8
 71
3
 72
8
 73
4
 74
0
 40
0
 40
0
 40
0
 40
0
 40
1
 40
1
 40
1
 40
1
 10
229.252261
 20
588.443875
 30
0.0
 10
225.692036
 20
586.386390
 30
0.0
 10
223.501277
 20
582.584575
 30
0.0
 10
223.506431
 20
578.472580
 30
0.0
  0
SPLINE
  5
27a
100
AcDbEntity
  8
0
 62
7
100
AcDbSpline
 70
8
 71
3
 72
8
 73
4
 74
0
 40
0
 40
0
 40
0
 40
0
 40
1
 40
1
 40
1
 40
1
 10
223.506431
 20
578.472580
 30
0.0
 10
223.501266
 20
574.360597
 30
0.0
 10
225.692036
 20
570.558758
 30
0.0
 10
229.252261
 20
568.501277
 30
0.0
  0
SPLINE
  5
27b
100
AcDbEntity
  8
0
 62
7
100
AcDbSpline
 70
8
 71
3
 72
8
 73
4
 74
0
 40
0
 40
0
 40
0
 40
0
 40
1
 40
1
 40
1
 40
1
 10
229.252261
 20
568.501277
 30
0.0
 10
232.812488
 20
566.443798
 30
0.0
 10
237.200355
 20
566.443798
 30
0.0
 10
240.760583
 20
568.501277
 30
0.0
  0
SPLINE
  5
27c
100
AcDbEntity
  8
0
 62
7
100
AcDbSpline
 70
8
 71
3
 72
8
 73
4
 74
0
 40
0
 40
0
 40
0
 40
0
 40
1
 40
1
 40
1
 40
1
 10
240.760583
 20
568.501277
 30
0.0
 10
244.320808
 20
570.558758
 30
0.0
 10
246.511566
 20
574.360597
 30
0.0
 10
246.506413
 20
578.472580
 30
0.0
  0
LWPOLYLINE
  5
27d
100
AcDbEntity
  8
0
 62
7
100
AcDbPolyline
 90
4
 70
1
 10
219.006426
 20
550.924036
 30
0.0
 10
224.006416
 20
550.924319
 30
0.0
 10
219.006426
 20
550.924036
 30
0.0
 10
219.006426
 20
550.924036
 30
0.0
  0
LWPOLYLINE
  5
27e
100
AcDbEntity
  8
0
 62
7
100
AcDbPolyline
 90
9
 70
1
 10
229.006434
 20
555.924317
 30
0.0
 10
229.006434
 20
560.924315
 30
0.0
 10
319.006418
 20
560.924315
 30
0.0
 10
319.006418
 20
460.924318
 30
0.0
 10
219.006426
 20
460.924318
 30
0.0
 10
219.006426
 20
550.924014
 30
0.0
 10
219.006426
 20
550.924036
 30
0.0
 10
229.006434
 20
555.924317
 30
0.0
 10
229.006434
 20
555.924317
 30
0.0
  0
LWPOLYLINE
  5
27f
100
AcDbEntity
  8
0
 62
7
100
AcDbPolyline
 90
4
 70
1
 10
246.506413
 20
578.472580
 30
0.0
 10
246.506413
 20
578.472580
 30
0.0
 10
246.506413
 20
578.472580
 30
0.0
 10
246.506413
 20
578.472580
 30
0.0
  0
LWPOLYLINE
  5
280
100
AcDbEntity
  8
0
 62
7
100
AcDbPolyline
 90
8
 70
1
 10
219.006426
 20
564.472580
 30
0.0
 10
219.006426
 20
594.472565
 30
0.0
 10
251.006418
 20
594.472565
 30
0.0
 10
251.006418
 20
564.472580
 30
0.0
 10
219.006426
 20
564.472580
 30
0.0
 10
219.006426
 20
564.472580
 30
0.0
 10
219.006426
 20
564.472580
 30
0.0
 10
219.006426
 20
564.472580
 30
0.0
  0
LWPOLYLINE
  5
281
100
AcDbEntity
  8
0
 62
7
100
AcDbPolyline
 90
8
 70
1
 10
254.163271
 20
594.472565
 30
0.0
 10
265.163277
 20
594.472565
 30
0.0
 10
265.163277
 20
566.472579
 30
0.0
 10
254.163271
 20
566.472579
 30
0.0
 10
254.163271
 20
594.472565
 30
0.0
 10
254.163271
 20
594.472565
 30
0.0
 10
254.163271
 20
594.472565
 30
0.0
 10
254.163271
 20
594.472565
 30
0.0
  0
LWPOLYLINE
  5
282
100
AcDbEntity
  8
0
 62
7
100
AcDbPolyline
 90
8
 70
1
 10
278.440563
 20
594.472565
 30
0.0
 10
278.440563
 20
564.472580
 30
0.0
 10
267.440557
 20
564.472580
 30
0.0
 10
267.440557
 20
594.472565
 30
0.0
 10
278.440563
 20
594.472565
 30
0.0
 10
278.440563
 20
594.472565
 30
0.0
 10
278.440563
 20
594.472565
 30
0.0
 10
278.440563
 20
594.472565
 30
0.0
  0
LWPOLYLINE
  5
283
100
AcDbEntity
  8
0
 62
7
100
AcDbPolyline
 90
8
 70
1
 10
291.351039
 20
564.472580
 30
0.0
 10
280.351038
 20
564.472580
 30
0.0
 10
280.351038
 20
594.472565
 30
0.0
 10
291.351039
 20
594.472565
 30
0.0
 10
291.351039
 20
564.472580
 30
0.0
 10
291.351039
 20
564.472580
 30
0.0
 10
291.351039
 20
564.472580
 30
0.0
 10
291.351039
 20
564.472580
 30
0.0
  0
ENDSEC
  0
SECTION
  2
OBJECTS
  0
DICTIONARY
  5
C
330
0
100
AcDbDictionary
  3
ACAD_GROUP
350
D
  3
ACAD_MLINESTYLE
350
17
  0
DICTIONARY
  5
D
330
C
100
AcDbDictionary
  0
DICTIONARY
  5
1A
330
C
100
AcDbDictionary
  0
DICTIONARY
  5
17
330
C
100
AcDbDictionary
  3
STANDARD
350
18
  0
DICTIONARY
  5
19
330
C
100
AcDbDictionary
  0
ENDSEC
  0
EOF
