  0
SECTION
  2
HEADER
  9
$ACADVER
  1
AC1014
  9
$HANDSEED
  5
FFFF
  9
$MEASUREMENT
 70
     1
  0
ENDSEC
  0
SECTION
  2
TABLES
  0
TABLE
  2
VPORT
  5
8
330
0
100
AcDbSymbolTable
 70
     4
  0
VPORT
  5
2E
330
8
100
AcDbSymbolTableRecord
100
AcDbViewportTableRecord
  2
*ACTIVE
 70
     0
 10
0.0
 20
0.0
 11
1.0
 21
1.0
 12
210.0
 22
148.5
 13
0.0
 23
0.0
 14
10.0
 24
10.0
 15
10.0
 25
10.0
 16
0.0
 26
0.0
 36
1.0
 17
0.0
 27
0.0
 37
0.0
 40
341.0
 41
1.24
 42
50.0
 43
0.0
 44
0.0
 50
0.0
 51
0.0
 71
     0
 72
   100
 73
     1
 74
     3
 75
     0
 76
     0
 77
     0
 78
     0
  0
ENDTAB
  0
TABLE
  2
LTYPE
  5
5
330
0
100
AcDbSymbolTable
 70
     1
  0
LTYPE
  5
14
330
5
100
AcDbSymbolTableRecord
100
AcDbLinetypeTableRecord
  2
BYBLOCK
 70
     0
  3

 72
    65
 73
     0
 40
0.0
  0
LTYPE
  5
15
330
5
100
AcDbSymbolTableRecord
100
AcDbLinetypeTableRecord
  2
BYLAYER
 70
     0
  3

 72
    65
 73
     0
 40
0.0
  0
LTYPE
  5
16
330
5
100
AcDbSymbolTableRecord
100
AcDbLinetypeTableRecord
  2
CONTINUOUS
 70
     0
  3
Solid line
 72
    65
 73
     0
 40
0.0
  0
ENDTAB
  0
TABLE
  2
LAYER
  5
2
100
AcDbSymbolTable
 70
1
  0
LAYER
  5
50
100
AcDbSymbolTableRecord
100
AcDbLayerTableRecord
  2
0
 70
0
  6
CONTINUOUS
  0
ENDTAB
  0
TABLE
  2
STYLE
  5
3
330
0
100
AcDbSymbolTable
 70
     1
  0
STYLE
  5
11
330
3
100
AcDbSymbolTableRecord
100
AcDbTextStyleTableRecord
  2
STANDARD
 70
     0
 40
0.0
 41
1.0
 50
0.0
 71
     0
 42
2.5
  3
txt
  4

  0
ENDTAB
  0
TABLE
  2
VIEW
  5
6
330
0
100
AcDbSymbolTable
 70
     0
  0
ENDTAB
  0
TABLE
  2
UCS
  5
7
330
0
100
AcDbSymbolTable
 70
     0
  0
ENDTAB
  0
TABLE
  2
APPID
  5
9
330
0
100
AcDbSymbolTable
 70
     2
  0
APPID
  5
12
330
9
100
AcDbSymbolTableRecord
100
AcDbRegAppTableRecord
  2
ACAD
 70
     0
  0
ENDTAB
  0
TABLE
  2
DIMSTYLE
  5
A
330
0
100
AcDbSymbolTable
 70
     1
  0
DIMSTYLE
105
27
330
A
100
AcDbSymbolTableRecord
100
AcDbDimStyleTableRecord
  2
ISO-25
 70
     0
  3

  4

  5

  6

  7

 40
1.0
 41
2.5
 42
0.625
 43
3.75
 44
1.25
 45
0.0
 46
0.0
 47
0.0
 48
0.0
140
2.5
141
2.5
142
0.0
143
0.03937007874016
144
1.0
145
0.0
146
1.0
147
0.625
 71
     0
 72
     0
 73
     0
 74
     0
 75
     0
 76
     0
 77
     1
 78
     8
170
     0
171
     3
172
     1
173
     0
174
     0
175
     0
176
     0
177
     0
178
     0
270
     2
271
     2
272
     2
273
     2
274
     3
340
11
275
     0
280
     0
281
     0
282
     0
283
     0
284
     8
285
     0
286
     0
287
     3
288
     0
  0
ENDTAB
  0
TABLE
  2
BLOCK_RECORD
  5
1
330
0
100
AcDbSymbolTable
 70
     1
  0
BLOCK_RECORD
  5
1F
330
1
100
AcDbSymbolTableRecord
100
AcDbBlockTableRecord
  2
*MODEL_SPACE
  0
BLOCK_RECORD
  5
1B
330
1
100
AcDbSymbolTableRecord
100
AcDbBlockTableRecord
  2
*PAPER_SPACE
  0
ENDTAB
  0
ENDSEC
  0
SECTION
  2
BLOCKS
  0
BLOCK
  5
20
330
1F
100
AcDbEntity
  8
0
100
AcDbBlockBegin
  2
*MODEL_SPACE
 70
     0
 10
0.0
 20
0.0
 30
0.0
  3
*MODEL_SPACE
  1

  0
ENDBLK
  5
21
330
1F
100
AcDbEntity
  8
0
100
AcDbBlockEnd
  0
BLOCK
  5
1C
330
1B
100
AcDbEntity
 67
     1
  8
0
100
AcDbBlockBegin
  2
*PAPER_SPACE
  1

  0
ENDBLK
  5
1D
330
1B
100
AcDbEntity
 67
     1
  8
0
100
AcDbBlockEnd
  0
ENDSEC
  0
SECTION
  2
ENTITIES
  0
SPLINE
  5
100
100
AcDbEntity
  8
0
 62
7
100
AcDbSpline
 70
8
 71
3
 72
8
 73
4
 74
0
 40
0
 40
0
 40
0
 40
0
 40
1
 40
1
 40
1
 40
1
 10
14.638247
 20
233.813105
 30
0.0
 10
14.638247
 20
235.563707
 30
0.0
 10
13.704312
 20
237.181329
 30
0.0
 10
12.188247
 20
238.056630
 30
0.0
  0
SPLINE
  5
101
100
AcDbEntity
  8
0
 62
7
100
AcDbSpline
 70
8
 71
3
 72
8
 73
4
 74
0
 40
0
 40
0
 40
0
 40
0
 40
1
 40
1
 40
1
 40
1
 10
12.188247
 20
238.056630
 30
0.0
 10
10.672181
 20
238.931930
 30
0.0
 10
8.804312
 20
238.931930
 30
0.0
 10
7.288246
 20
238.056630
 30
0.0
  0
SPLINE
  5
102
100
AcDbEntity
  8
0
 62
7
100
AcDbSpline
 70
8
 71
3
 72
8
 73
4
 74
0
 40
0
 40
0
 40
0
 40
0
 40
1
 40
1
 40
1
 40
1
 10
7.288246
 20
238.056630
 30
0.0
 10
5.772181
 20
237.181329
 30
0.0
 10
4.838246
 20
235.563706
 30
0.0
 10
4.838246
 20
233.813105
 30
0.0
  0
SPLINE
  5
103
100
AcDbEntity
  8
0
 62
7
100
AcDbSpline
 70
8
 71
3
 72
8
 73
4
 74
0
 40
0
 40
0
 40
0
 40
0
 40
1
 40
1
 40
1
 40
1
 10
4.838246
 20
233.813105
 30
0.0
 10
4.838246
 20
232.062504
 30
0.0
 10
5.772181
 20
230.444881
 30
0.0
 10
7.288247
 20
229.569580
 30
0.0
  0
SPLINE
  5
104
100
AcDbEntity
  8
0
 62
7
100
AcDbSpline
 70
8
 71
3
 72
8
 73
4
 74
0
 40
0
 40
0
 40
0
 40
0
 40
1
 40
1
 40
1
 40
1
 10
7.288247
 20
229.569580
 30
0.0
 10
8.804312
 20
228.694280
 30
0.0
 10
10.672181
 20
228.694280
 30
0.0
 10
12.188247
 20
229.569580
 30
0.0
  0
SPLINE
  5
105
100
AcDbEntity
  8
0
 62
7
100
AcDbSpline
 70
8
 71
3
 72
8
 73
4
 74
0
 40
0
 40
0
 40
0
 40
0
 40
1
 40
1
 40
1
 40
1
 10
12.188247
 20
229.569580
 30
0.0
 10
13.704312
 20
230.444881
 30
0.0
 10
14.638247
 20
232.062504
 30
0.0
 10
14.638247
 20
233.813105
 30
0.0
  0
SPLINE
  5
106
100
AcDbEntity
  8
0
 62
7
100
AcDbSpline
 70
8
 71
3
 72
8
 73
4
 74
0
 40
0
 40
0
 40
0
 40
0
 40
1
 40
1
 40
1
 40
1
 10
59.638246
 20
302.194368
 30
0.0
 10
59.638575
 20
302.730486
 30
0.0
 10
59.352749
 20
303.226019
 30
0.0
 10
58.888512
 20
303.494173
 30
0.0
  0
SPLINE
  5
107
100
AcDbEntity
  8
0
 62
7
100
AcDbSpline
 70
8
 71
3
 72
8
 73
4
 74
0
 40
0
 40
0
 40
0
 40
0
 40
1
 40
1
 40
1
 40
1
 10
58.888512
 20
303.494173
 30
0.0
 10
58.424275
 20
303.762327
 30
0.0
 10
57.852217
 20
303.762327
 30
0.0
 10
57.387981
 20
303.494173
 30
0.0
  0
SPLINE
  5
108
100
AcDbEntity
  8
0
 62
7
100
AcDbSpline
 70
8
 71
3
 72
8
 73
4
 74
0
 40
0
 40
0
 40
0
 40
0
 40
1
 40
1
 40
1
 40
1
 10
57.387981
 20
303.494173
 30
0.0
 10
56.923744
 20
303.226019
 30
0.0
 10
56.637918
 20
302.730486
 30
0.0
 10
56.638246
 20
302.194368
 30
0.0
  0
SPLINE
  5
109
100
AcDbEntity
  8
0
 62
7
100
AcDbSpline
 70
8
 71
3
 72
8
 73
4
 74
0
 40
0
 40
0
 40
0
 40
0
 40
1
 40
1
 40
1
 40
1
 10
56.638246
 20
302.194368
 30
0.0
 10
56.637918
 20
301.658251
 30
0.0
 10
56.923744
 20
301.162717
 30
0.0
 10
57.387981
 20
300.894563
 30
0.0
  0
SPLINE
  5
10a
100
AcDbEntity
  8
0
 62
7
100
AcDbSpline
 70
8
 71
3
 72
8
 73
4
 74
0
 40
0
 40
0
 40
0
 40
0
 40
1
 40
1
 40
1
 40
1
 10
57.387981
 20
300.894563
 30
0.0
 10
57.852217
 20
300.626409
 30
0.0
 10
58.424275
 20
300.626409
 30
0.0
 10
58.888512
 20
300.894563
 30
0.0
  0
SPLINE
  5
10b
100
AcDbEntity
  8
0
 62
7
100
AcDbSpline
 70
8
 71
3
 72
8
 73
4
 74
0
 40
0
 40
0
 40
0
 40
0
 40
1
 40
1
 40
1
 40
1
 10
58.888512
 20
300.894563
 30
0.0
 10
59.352749
 20
301.162717
 30
0.0
 10
59.638575
 20
301.658251
 30
0.0
 10
59.638246
 20
302.194368
 30
0.0
  0
LWPOLYLINE
  5
10c
100
AcDbEntity
  8
0
 62
7
100
AcDbPolyline
 90
2
 70
1
 10
14.638247
 20
233.813105
 30
0.0
 10
14.638247
 20
233.813105
 30
0.0
  0
SPLINE
  5
10d
100
AcDbEntity
  8
0
 62
7
100
AcDbSpline
 70
8
 71
3
 72
8
 73
4
 74
0
 40
0
 40
0
 40
0
 40
0
 40
1
 40
1
 40
1
 40
1
 10
79.638246
 20
312.194368
 30
0.0
 10
79.639533
 20
316.303780
 30
0.0
 10
77.447927
 20
320.101585
 30
0.0
 10
73.889286
 20
322.156663
 30
0.0
  0
SPLINE
  5
10e
100
AcDbEntity
  8
0
 62
7
100
AcDbSpline
 70
8
 71
3
 72
8
 73
4
 74
0
 40
0
 40
0
 40
0
 40
0
 40
1
 40
1
 40
1
 40
1
 10
73.889286
 20
322.156663
 30
0.0
 10
70.330645
 20
324.211741
 30
0.0
 10
65.945847
 20
324.211741
 30
0.0
 10
62.387206
 20
322.156663
 30
0.0
  0
SPLINE
  5
10f
100
AcDbEntity
  8
0
 62
7
100
AcDbSpline
 70
8
 71
3
 72
8
 73
4
 74
0
 40
0
 40
0
 40
0
 40
0
 40
1
 40
1
 40
1
 40
1
 10
62.387206
 20
322.156663
 30
0.0
 10
58.828565
 20
320.101585
 30
0.0
 10
56.636959
 20
316.303780
 30
0.0
 10
56.638246
 20
312.194368
 30
0.0
  0
SPLINE
  5
110
100
AcDbEntity
  8
0
 62
7
100
AcDbSpline
 70
8
 71
3
 72
8
 73
4
 74
0
 40
0
 40
0
 40
0
 40
0
 40
1
 40
1
 40
1
 40
1
 10
56.638246
 20
312.194368
 30
0.0
 10
56.636959
 20
308.084956
 30
0.0
 10
58.828565
 20
304.287151
 30
0.0
 10
62.387206
 20
302.232073
 30
0.0
  0
SPLINE
  5
111
100
AcDbEntity
  8
0
 62
7
100
AcDbSpline
 70
8
 71
3
 72
8
 73
4
 74
0
 40
0
 40
0
 40
0
 40
0
 40
1
 40
1
 40
1
 40
1
 10
62.387206
 20
302.232073
 30
0.0
 10
65.945847
 20
300.176995
 30
0.0
 10
70.330645
 20
300.176995
 30
0.0
 10
73.889286
 20
302.232073
 30
0.0
  0
SPLINE
  5
112
100
AcDbEntity
  8
0
 62
7
100
AcDbSpline
 70
8
 71
3
 72
8
 73
4
 74
0
 40
0
 40
0
 40
0
 40
0
 40
1
 40
1
 40
1
 40
1
 10
73.889286
 20
302.232073
 30
0.0
 10
77.447927
 20
304.287151
 30
0.0
 10
79.639533
 20
308.084956
 30
0.0
 10
79.638246
 20
312.194368
 30
0.0
  0
LWPOLYLINE
  5
113
100
AcDbEntity
  8
0
 62
7
100
AcDbPolyline
 90
2
 70
1
 10
59.638246
 20
302.194368
 30
0.0
 10
59.638246
 20
302.194368
 30
0.0
  0
SPLINE
  5
114
100
AcDbEntity
  8
0
 62
7
100
AcDbSpline
 70
8
 71
3
 72
8
 73
4
 74
0
 40
0
 40
0
 40
0
 40
0
 40
1
 40
1
 40
1
 40
1
 10
79.638246
 20
322.194368
 30
0.0
 10
79.638574
 20
322.730485
 30
0.0
 10
79.352748
 20
323.226019
 30
0.0
 10
78.888511
 20
323.494173
 30
0.0
  0
SPLINE
  5
115
100
AcDbEntity
  8
0
 62
7
100
AcDbSpline
 70
8
 71
3
 72
8
 73
4
 74
0
 40
0
 40
0
 40
0
 40
0
 40
1
 40
1
 40
1
 40
1
 10
78.888511
 20
323.494173
 30
0.0
 10
78.424275
 20
323.762326
 30
0.0
 10
77.852217
 20
323.762326
 30
0.0
 10
77.387980
 20
323.494173
 30
0.0
  0
SPLINE
  5
116
100
AcDbEntity
  8
0
 62
7
100
AcDbSpline
 70
8
 71
3
 72
8
 73
4
 74
0
 40
0
 40
0
 40
0
 40
0
 40
1
 40
1
 40
1
 40
1
 10
77.387980
 20
323.494173
 30
0.0
 10
76.923743
 20
323.226019
 30
0.0
 10
76.637917
 20
322.730485
 30
0.0
 10
76.638246
 20
322.194368
 30
0.0
  0
SPLINE
  5
117
100
AcDbEntity
  8
0
 62
7
100
AcDbSpline
 70
8
 71
3
 72
8
 73
4
 74
0
 40
0
 40
0
 40
0
 40
0
 40
1
 40
1
 40
1
 40
1
 10
76.638246
 20
322.194368
 30
0.0
 10
76.637917
 20
321.658250
 30
0.0
 10
76.923743
 20
321.162716
 30
0.0
 10
77.387980
 20
320.894563
 30
0.0
  0
SPLINE
  5
118
100
AcDbEntity
  8
0
 62
7
100
AcDbSpline
 70
8
 71
3
 72
8
 73
4
 74
0
 40
0
 40
0
 40
0
 40
0
 40
1
 40
1
 40
1
 40
1
 10
77.387980
 20
320.894563
 30
0.0
 10
77.852217
 20
320.626409
 30
0.0
 10
78.424275
 20
320.626409
 30
0.0
 10
78.888511
 20
320.894563
 30
0.0
  0
SPLINE
  5
119
100
AcDbEntity
  8
0
 62
7
100
AcDbSpline
 70
8
 71
3
 72
8
 73
4
 74
0
 40
0
 40
0
 40
0
 40
0
 40
1
 40
1
 40
1
 40
1
 10
78.888511
 20
320.894563
 30
0.0
 10
79.352748
 20
321.162716
 30
0.0
 10
79.638574
 20
321.658250
 30
0.0
 10
79.638246
 20
322.194368
 30
0.0
  0
LWPOLYLINE
  5
11a
100
AcDbEntity
  8
0
 62
7
100
AcDbPolyline
 90
2
 70
1
 10
79.638246
 20
312.194368
 30
0.0
 10
79.638246
 20
312.194368
 30
0.0
  0
SPLINE
  5
11b
100
AcDbEntity
  8
0
 62
7
100
AcDbSpline
 70
8
 71
3
 72
8
 73
4
 74
0
 40
0
 40
0
 40
0
 40
0
 40
1
 40
1
 40
1
 40
1
 10
79.638246
 20
302.194368
 30
0.0
 10
79.638574
 20
302.730486
 30
0.0
 10
79.352748
 20
303.226019
 30
0.0
 10
78.888511
 20
303.494173
 30
0.0
  0
SPLINE
  5
11c
100
AcDbEntity
  8
0
 62
7
100
AcDbSpline
 70
8
 71
3
 72
8
 73
4
 74
0
 40
0
 40
0
 40
0
 40
0
 40
1
 40
1
 40
1
 40
1
 10
78.888511
 20
303.494173
 30
0.0
 10
78.424275
 20
303.762327
 30
0.0
 10
77.852217
 20
303.762327
 30
0.0
 10
77.387980
 20
303.494173
 30
0.0
  0
SPLINE
  5
11d
100
AcDbEntity
  8
0
 62
7
100
AcDbSpline
 70
8
 71
3
 72
8
 73
4
 74
0
 40
0
 40
0
 40
0
 40
0
 40
1
 40
1
 40
1
 40
1
 10
77.387980
 20
303.494173
 30
0.0
 10
76.923743
 20
303.226019
 30
0.0
 10
76.637917
 20
302.730486
 30
0.0
 10
76.638246
 20
302.194368
 30
0.0
  0
SPLINE
  5
11e
100
AcDbEntity
  8
0
 62
7
100
AcDbSpline
 70
8
 71
3
 72
8
 73
4
 74
0
 40
0
 40
0
 40
0
 40
0
 40
1
 40
1
 40
1
 40
1
 10
76.638246
 20
302.194368
 30
0.0
 10
76.637917
 20
301.658251
 30
0.0
 10
76.923743
 20
301.162717
 30
0.0
 10
77.387980
 20
300.894563
 30
0.0
  0
SPLINE
  5
11f
100
AcDbEntity
  8
0
 62
7
100
AcDbSpline
 70
8
 71
3
 72
8
 73
4
 74
0
 40
0
 40
0
 40
0
 40
0
 40
1
 40
1
 40
1
 40
1
 10
77.387980
 20
300.894563
 30
0.0
 10
77.852217
 20
300.626409
 30
0.0
 10
78.424275
 20
300.626409
 30
0.0
 10
78.888511
 20
300.894563
 30
0.0
  0
SPLINE
  5
120
100
AcDbEntity
  8
0
 62
7
100
AcDbSpline
 70
8
 71
3
 72
8
 73
4
 74
0
 40
0
 40
0
 40
0
 40
0
 40
1
 40
1
 40
1
 40
1
 10
78.888511
 20
300.894563
 30
0.0
 10
79.352748
 20
301.162717
 30
0.0
 10
79.638574
 20
301.658251
 30
0.0
 10
79.638246
 20
302.194368
 30
0.0
  0
LWPOLYLINE
  5
121
100
AcDbEntity
  8
0
 62
7
100
AcDbPolyline
 90
2
 70
1
 10
79.638246
 20
322.194368
 30
0.0
 10
79.638246
 20
322.194368
 30
0.0
  0
SPLINE
  5
122
100
AcDbEntity
  8
0
 62
7
100
AcDbSpline
 70
8
 71
3
 72
8
 73
4
 74
0
 40
0
 40
0
 40
0
 40
0
 40
1
 40
1
 40
1
 40
1
 10
59.638246
 20
322.194368
 30
0.0
 10
59.638575
 20
322.730485
 30
0.0
 10
59.352749
 20
323.226019
 30
0.0
 10
58.888512
 20
323.494173
 30
0.0
  0
SPLINE
  5
123
100
AcDbEntity
  8
0
 62
7
100
AcDbSpline
 70
8
 71
3
 72
8
 73
4
 74
0
 40
0
 40
0
 40
0
 40
0
 40
1
 40
1
 40
1
 40
1
 10
58.888512
 20
323.494173
 30
0.0
 10
58.424275
 20
323.762326
 30
0.0
 10
57.852217
 20
323.762326
 30
0.0
 10
57.387981
 20
323.494173
 30
0.0
  0
SPLINE
  5
124
100
AcDbEntity
  8
0
 62
7
100
AcDbSpline
 70
8
 71
3
 72
8
 73
4
 74
0
 40
0
 40
0
 40
0
 40
0
 40
1
 40
1
 40
1
 40
1
 10
57.387981
 20
323.494173
 30
0.0
 10
56.923744
 20
323.226019
 30
0.0
 10
56.637918
 20
322.730485
 30
0.0
 10
56.638246
 20
322.194368
 30
0.0
  0
SPLINE
  5
125
100
AcDbEntity
  8
0
 62
7
100
AcDbSpline
 70
8
 71
3
 72
8
 73
4
 74
0
 40
0
 40
0
 40
0
 40
0
 40
1
 40
1
 40
1
 40
1
 10
56.638246
 20
322.194368
 30
0.0
 10
56.637918
 20
321.658250
 30
0.0
 10
56.923744
 20
321.162716
 30
0.0
 10
57.387981
 20
320.894563
 30
0.0
  0
SPLINE
  5
126
100
AcDbEntity
  8
0
 62
7
100
AcDbSpline
 70
8
 71
3
 72
8
 73
4
 74
0
 40
0
 40
0
 40
0
 40
0
 40
1
 40
1
 40
1
 40
1
 10
57.387981
 20
320.894563
 30
0.0
 10
57.852217
 20
320.626409
 30
0.0
 10
58.424275
 20
320.626409
 30
0.0
 10
58.888512
 20
320.894563
 30
0.0
  0
SPLINE
  5
127
100
AcDbEntity
  8
0
 62
7
100
AcDbSpline
 70
8
 71
3
 72
8
 73
4
 74
0
 40
0
 40
0
 40
0
 40
0
 40
1
 40
1
 40
1
 40
1
 10
58.888512
 20
320.894563
 30
0.0
 10
59.352749
 20
321.162716
 30
0.0
 10
59.638575
 20
321.658250
 30
0.0
 10
59.638246
 20
322.194368
 30
0.0
  0
LWPOLYLINE
  5
128
100
AcDbEntity
  8
0
 62
7
100
AcDbPolyline
 90
2
 70
1
 10
79.638246
 20
302.194368
 30
0.0
 10
79.638246
 20
302.194368
 30
0.0
  0
LWPOLYLINE
  5
129
100
AcDbEntity
  8
0
 62
7
100
AcDbPolyline
 90
2
 70
1
 10
59.638246
 20
322.194368
 30
0.0
 10
59.638246
 20
322.194368
 30
0.0
  0
LWPOLYLINE
  5
12a
100
AcDbEntity
  8
0
 62
7
100
AcDbPolyline
 90
6
 70
1
 10
2.138246
 20
228.194368
 30
0.0
 10
2.138246
 20
598.194370
 30
0.0
 10
102.138246
 20
598.194370
 30
0.0
 10
102.138246
 20
228.194368
 30
0.0
 10
2.138246
 20
228.194368
 30
0.0
 10
2.138246
 20
228.194368
 30
0.0
  0
SPLINE
  5
12b
100
AcDbEntity
  8
0
 62
7
100
AcDbSpline
 70
8
 71
3
 72
8
 73
4
 74
0
 40
0
 40
0
 40
0
 40
0
 40
1
 40
1
 40
1
 40
1
 10
221.494627
 20
588.696802
 30
0.0
 10
221.495227
 20
590.483530
 30
0.0
 10
220.542364
 20
592.134792
 30
0.0
 10
218.995112
 20
593.028330
 30
0.0
  0
SPLINE
  5
12c
100
AcDbEntity
  8
0
 62
7
100
AcDbSpline
 70
8
 71
3
 72
8
 73
4
 74
0
 40
0
 40
0
 40
0
 40
0
 40
1
 40
1
 40
1
 40
1
 10
218.995112
 20
593.028330
 30
0.0
 10
217.447860
 20
593.921867
 30
0.0
 10
215.541394
 20
593.921867
 30
0.0
 10
213.994142
 20
593.028330
 30
0.0
  0
SPLINE
  5
12d
100
AcDbEntity
  8
0
 62
7
100
AcDbSpline
 70
8
 71
3
 72
8
 73
4
 74
0
 40
0
 40
0
 40
0
 40
0
 40
1
 40
1
 40
1
 40
1
 10
213.994142
 20
593.028330
 30
0.0
 10
212.446890
 20
592.134792
 30
0.0
 10
211.494027
 20
590.483530
 30
0.0
 10
211.494627
 20
588.696802
 30
0.0
  0
SPLINE
  5
12e
100
AcDbEntity
  8
0
 62
7
100
AcDbSpline
 70
8
 71
3
 72
8
 73
4
 74
0
 40
0
 40
0
 40
0
 40
0
 40
1
 40
1
 40
1
 40
1
 10
211.494627
 20
588.696802
 30
0.0
 10
211.494027
 20
586.910074
 30
0.0
 10
212.446890
 20
585.258813
 30
0.0
 10
213.994142
 20
584.365275
 30
0.0
  0
SPLINE
  5
12f
100
AcDbEntity
  8
0
 62
7
100
AcDbSpline
 70
8
 71
3
 72
8
 73
4
 74
0
 40
0
 40
0
 40
0
 40
0
 40
1
 40
1
 40
1
 40
1
 10
213.994142
 20
584.365275
 30
0.0
 10
215.541394
 20
583.471738
 30
0.0
 10
217.447860
 20
583.471738
 30
0.0
 10
218.995112
 20
584.365275
 30
0.0
  0
SPLINE
  5
130
100
AcDbEntity
  8
0
 62
7
100
AcDbSpline
 70
8
 71
3
 72
8
 73
4
 74
0
 40
0
 40
0
 40
0
 40
0
 40
1
 40
1
 40
1
 40
1
 10
218.995112
 20
584.365275
 30
0.0
 10
220.542364
 20
585.258813
 30
0.0
 10
221.495227
 20
586.910074
 30
0.0
 10
221.494627
 20
588.696802
 30
0.0
  0
LWPOLYLINE
  5
131
100
AcDbEntity
  8
0
 62
7
100
AcDbPolyline
 90
6
 70
1
 10
204.312864
 20
598.194370
 30
0.0
 10
204.312864
 20
228.194368
 30
0.0
 10
104.312864
 20
228.194368
 30
0.0
 10
104.312864
 20
598.194370
 30
0.0
 10
204.312864
 20
598.194370
 30
0.0
 10
204.312864
 20
598.194370
 30
0.0
  0
LWPOLYLINE
  5
132
100
AcDbEntity
  8
0
 62
7
100
AcDbPolyline
 90
2
 70
1
 10
221.494627
 20
588.696802
 30
0.0
 10
221.494627
 20
588.696802
 30
0.0
  0
LWPOLYLINE
  5
133
100
AcDbEntity
  8
0
 62
7
100
AcDbPolyline
 90
6
 70
1
 10
206.494628
 20
498.696816
 30
0.0
 10
206.494628
 20
598.696811
 30
0.0
 10
306.494632
 20
598.696811
 30
0.0
 10
306.494632
 20
498.696816
 30
0.0
 10
206.494628
 20
498.696816
 30
0.0
 10
206.494628
 20
498.696816
 30
0.0
  0
LWPOLYLINE
  5
134
100
AcDbEntity
  8
0
 62
7
100
AcDbPolyline
 90
6
 70
1
 10
306.868463
 20
445.019343
 30
0.0
 10
210.868458
 20
445.019343
 30
0.0
 10
210.868458
 20
395.019341
 30
0.0
 10
306.868463
 20
395.019341
 30
0.0
 10
306.868463
 20
445.019343
 30
0.0
 10
306.868463
 20
445.019343
 30
0.0
  0
LWPOLYLINE
  5
135
100
AcDbEntity
  8
0
 62
7
100
AcDbPolyline
 90
6
 70
1
 10
206.868457
 20
497.019343
 30
0.0
 10
310.868455
 20
497.019343
 30
0.0
 10
310.868455
 20
393.019343
 30
0.0
 10
206.868457
 20
393.019343
 30
0.0
 10
206.868457
 20
497.019343
 30
0.0
 10
206.868457
 20
497.019343
 30
0.0
  0
LWPOLYLINE
  5
136
100
AcDbEntity
  8
0
 62
7
100
AcDbPolyline
 90
6
 70
1
 10
310.837354
 20
287.635068
 30
0.0
 10
206.837362
 20
287.635068
 30
0.0
 10
206.837362
 20
391.635068
 30
0.0
 10
310.837354
 20
391.635068
 30
0.0
 10
310.837354
 20
287.635068
 30
0.0
 10
310.837354
 20
287.635068
 30
0.0
  0
LWPOLYLINE
  5
137
100
AcDbEntity
  8
0
 62
7
100
AcDbPolyline
 90
6
 70
1
 10
308.080523
 20
228.194368
 30
0.0
 10
208.080506
 20
228.194368
 30
0.0
 10
208.080506
 20
280.194370
 30
0.0
 10
308.080523
 20
280.194370
 30
0.0
 10
308.080523
 20
228.194368
 30
0.0
 10
308.080523
 20
228.194368
 30
0.0
  0
LWPOLYLINE
  5
138
100
AcDbEntity
  8
0
 62
7
100
AcDbPolyline
 90
6
 70
1
 10
416.456566
 20
598.194370
 30
0.0
 10
416.456566
 20
228.194368
 30
0.0
 10
312.456576
 20
228.194368
 30
0.0
 10
312.456576
 20
598.194370
 30
0.0
 10
416.456566
 20
598.194370
 30
0.0
 10
416.456566
 20
598.194370
 30
0.0
  0
LWPOLYLINE
  5
139
100
AcDbEntity
  8
0
 62
7
100
AcDbPolyline
 90
6
 70
1
 10
419.892847
 20
228.194368
 30
0.0
 10
419.892847
 20
598.194370
 30
0.0
 10
523.892836
 20
598.194370
 30
0.0
 10
523.892836
 20
228.194368
 30
0.0
 10
419.892847
 20
228.194368
 30
0.0
 10
419.892847
 20
228.194368
 30
0.0
  0
LWPOLYLINE
  5
13a
100
AcDbEntity
  8
0
 62
7
100
AcDbPolyline
 90
6
 70
1
 10
526.202854
 20
248.125339
 30
0.0
 10
526.202854
 20
328.125337
 30
0.0
 10
528.202850
 20
328.125337
 30
0.0
 10
528.202850
 20
248.125339
 30
0.0
 10
526.202854
 20
248.125339
 30
0.0
 10
526.202854
 20
248.125339
 30
0.0
  0
LWPOLYLINE
  5
13b
100
AcDbEntity
  8
0
 62
7
100
AcDbPolyline
 90
6
 70
1
 10
532.161157
 20
328.125337
 30
0.0
 10
532.161157
 20
248.125339
 30
0.0
 10
530.161161
 20
248.125339
 30
0.0
 10
530.161161
 20
328.125337
 30
0.0
 10
532.161157
 20
328.125337
 30
0.0
 10
532.161157
 20
328.125337
 30
0.0
  0
LWPOLYLINE
  5
13c
100
AcDbEntity
  8
0
 62
7
100
AcDbPolyline
 90
6
 70
1
 10
544.171547
 20
328.125337
 30
0.0
 10
544.171547
 20
228.625338
 30
0.0
 10
534.171539
 20
228.625338
 30
0.0
 10
534.171539
 20
328.125337
 30
0.0
 10
544.171547
 20
328.125337
 30
0.0
 10
544.171547
 20
328.125337
 30
0.0
  0
LWPOLYLINE
  5
13d
100
AcDbEntity
  8
0
 62
7
100
AcDbPolyline
 90
6
 70
1
 10
545.837364
 20
328.125337
 30
0.0
 10
555.837372
 20
328.125337
 30
0.0
 10
555.837372
 20
228.625338
 30
0.0
 10
545.837364
 20
228.625338
 30
0.0
 10
545.837364
 20
328.125337
 30
0.0
 10
545.837364
 20
328.125337
 30
0.0
  0
LWPOLYLINE
  5
13e
100
AcDbEntity
  8
0
 62
7
100
AcDbPolyline
 90
6
 70
1
 10
525.903896
 20
329.791405
 30
0.0
 10
525.903896
 20
369.791407
 30
0.0
 10
625.903893
 20
369.791407
 30
0.0
 10
625.903893
 20
329.791405
 30
0.0
 10
525.903896
 20
329.791405
 30
0.0
 10
525.903896
 20
329.791405
 30
0.0
  0
LWPOLYLINE
  5
13f
100
AcDbEntity
  8
0
 62
7
100
AcDbPolyline
 90
6
 70
1
 10
525.903896
 20
370.849303
 30
0.0
 10
525.903896
 20
390.849302
 30
0.0
 10
601.903885
 20
390.849302
 30
0.0
 10
601.903885
 20
370.849303
 30
0.0
 10
525.903896
 20
370.849303
 30
0.0
 10
525.903896
 20
370.849303
 30
0.0
  0
LWPOLYLINE
  5
140
100
AcDbEntity
  8
0
 62
7
100
AcDbPolyline
 90
6
 70
1
 10
601.903885
 20
413.181431
 30
0.0
 10
601.903885
 20
393.181431
 30
0.0
 10
525.903896
 20
393.181431
 30
0.0
 10
525.903896
 20
413.181431
 30
0.0
 10
601.903885
 20
413.181431
 30
0.0
 10
601.903885
 20
413.181431
 30
0.0
  0
LWPOLYLINE
  5
141
100
AcDbEntity
  8
0
 62
7
100
AcDbPolyline
 90
6
 70
1
 10
525.903896
 20
435.724526
 30
0.0
 10
605.903905
 20
435.724526
 30
0.0
 10
605.903905
 20
415.724527
 30
0.0
 10
525.903896
 20
415.724527
 30
0.0
 10
525.903896
 20
435.724526
 30
0.0
 10
525.903896
 20
435.724526
 30
0.0
  0
SPLINE
  5
142
100
AcDbEntity
  8
0
 62
7
100
AcDbSpline
 70
8
 71
3
 72
8
 73
4
 74
0
 40
0
 40
0
 40
0
 40
0
 40
1
 40
1
 40
1
 40
1
 10
581.715400
 20
550.068533
 30
0.0
 10
581.716111
 20
550.426272
 30
0.0
 10
581.525668
 20
550.757140
 30
0.0
 10
581.215976
 20
550.936215
 30
0.0
  0
SPLINE
  5
143
100
AcDbEntity
  8
0
 62
7
100
AcDbSpline
 70
8
 71
3
 72
8
 73
4
 74
0
 40
0
 40
0
 40
0
 40
0
 40
1
 40
1
 40
1
 40
1
 10
581.215976
 20
550.936215
 30
0.0
 10
580.906283
 20
551.115290
 30
0.0
 10
580.524521
 20
551.115290
 30
0.0
 10
580.214829
 20
550.936215
 30
0.0
  0
SPLINE
  5
144
100
AcDbEntity
  8
0
 62
7
100
AcDbSpline
 70
8
 71
3
 72
8
 73
4
 74
0
 40
0
 40
0
 40
0
 40
0
 40
1
 40
1
 40
1
 40
1
 10
580.214829
 20
550.936215
 30
0.0
 10
579.905136
 20
550.757140
 30
0.0
 10
579.714693
 20
550.426272
 30
0.0
 10
579.715404
 20
550.068533
 30
0.0
  0
SPLINE
  5
145
100
AcDbEntity
  8
0
 62
7
100
AcDbSpline
 70
8
 71
3
 72
8
 73
4
 74
0
 40
0
 40
0
 40
0
 40
0
 40
1
 40
1
 40
1
 40
1
 10
579.715404
 20
550.068533
 30
0.0
 10
579.714693
 20
549.710795
 30
0.0
 10
579.905136
 20
549.379926
 30
0.0
 10
580.214829
 20
549.200852
 30
0.0
  0
SPLINE
  5
146
100
AcDbEntity
  8
0
 62
7
100
AcDbSpline
 70
8
 71
3
 72
8
 73
4
 74
0
 40
0
 40
0
 40
0
 40
0
 40
1
 40
1
 40
1
 40
1
 10
580.214829
 20
549.200852
 30
0.0
 10
580.524521
 20
549.021777
 30
0.0
 10
580.906283
 20
549.021777
 30
0.0
 10
581.215976
 20
549.200852
 30
0.0
  0
SPLINE
  5
147
100
AcDbEntity
  8
0
 62
7
100
AcDbSpline
 70
8
 71
3
 72
8
 73
4
 74
0
 40
0
 40
0
 40
0
 40
0
 40
1
 40
1
 40
1
 40
1
 10
581.215976
 20
549.200852
 30
0.0
 10
581.525668
 20
549.379926
 30
0.0
 10
581.716111
 20
549.710795
 30
0.0
 10
581.715400
 20
550.068533
 30
0.0
  0
LWPOLYLINE
  5
148
100
AcDbEntity
  8
0
 62
7
100
AcDbPolyline
 90
6
 70
1
 10
525.903896
 20
459.594614
 30
0.0
 10
605.903905
 20
459.594614
 30
0.0
 10
605.903905
 20
439.594614
 30
0.0
 10
525.903896
 20
439.594614
 30
0.0
 10
525.903896
 20
459.594614
 30
0.0
 10
525.903896
 20
459.594614
 30
0.0
  0
SPLINE
  5
149
100
AcDbEntity
  8
0
 62
7
100
AcDbSpline
 70
8
 71
3
 72
8
 73
4
 74
0
 40
0
 40
0
 40
0
 40
0
 40
1
 40
1
 40
1
 40
1
 10
592.816950
 20
535.860863
 30
0.0
 10
592.817661
 20
536.218601
 30
0.0
 10
592.627218
 20
536.549469
 30
0.0
 10
592.317526
 20
536.728544
 30
0.0
  0
SPLINE
  5
14a
100
AcDbEntity
  8
0
 62
7
100
AcDbSpline
 70
8
 71
3
 72
8
 73
4
 74
0
 40
0
 40
0
 40
0
 40
0
 40
1
 40
1
 40
1
 40
1
 10
592.317526
 20
536.728544
 30
0.0
 10
592.007833
 20
536.907619
 30
0.0
 10
591.626071
 20
536.907619
 30
0.0
 10
591.316378
 20
536.728544
 30
0.0
  0
SPLINE
  5
14b
100
AcDbEntity
  8
0
 62
7
100
AcDbSpline
 70
8
 71
3
 72
8
 73
4
 74
0
 40
0
 40
0
 40
0
 40
0
 40
1
 40
1
 40
1
 40
1
 10
591.316378
 20
536.728544
 30
0.0
 10
591.006686
 20
536.549469
 30
0.0
 10
590.816243
 20
536.218601
 30
0.0
 10
590.816954
 20
535.860863
 30
0.0
  0
SPLINE
  5
14c
100
AcDbEntity
  8
0
 62
7
100
AcDbSpline
 70
8
 71
3
 72
8
 73
4
 74
0
 40
0
 40
0
 40
0
 40
0
 40
1
 40
1
 40
1
 40
1
 10
590.816954
 20
535.860863
 30
0.0
 10
590.816243
 20
535.503124
 30
0.0
 10
591.006686
 20
535.172256
 30
0.0
 10
591.316378
 20
534.993181
 30
0.0
  0
SPLINE
  5
14d
100
AcDbEntity
  8
0
 62
7
100
AcDbSpline
 70
8
 71
3
 72
8
 73
4
 74
0
 40
0
 40
0
 40
0
 40
0
 40
1
 40
1
 40
1
 40
1
 10
591.316378
 20
534.993181
 30
0.0
 10
591.626071
 20
534.814106
 30
0.0
 10
592.007833
 20
534.814106
 30
0.0
 10
592.317526
 20
534.993181
 30
0.0
  0
SPLINE
  5
14e
100
AcDbEntity
  8
0
 62
7
100
AcDbSpline
 70
8
 71
3
 72
8
 73
4
 74
0
 40
0
 40
0
 40
0
 40
0
 40
1
 40
1
 40
1
 40
1
 10
592.317526
 20
534.993181
 30
0.0
 10
592.627218
 20
535.172256
 30
0.0
 10
592.817661
 20
535.503124
 30
0.0
 10
592.816950
 20
535.860863
 30
0.0
  0
LWPOLYLINE
  5
14f
100
AcDbEntity
  8
0
 62
7
100
AcDbPolyline
 90
2
 70
1
 10
581.715400
 20
550.068533
 30
0.0
 10
581.715400
 20
550.068533
 30
0.0
  0
SPLINE
  5
150
100
AcDbEntity
  8
0
 62
7
100
AcDbSpline
 70
8
 71
3
 72
8
 73
4
 74
0
 40
0
 40
0
 40
0
 40
0
 40
1
 40
1
 40
1
 40
1
 10
603.495928
 20
491.454697
 30
0.0
 10
603.495928
 20
491.722649
 30
0.0
 10
603.352978
 20
491.970246
 30
0.0
 10
603.120926
 20
492.104221
 30
0.0
  0
SPLINE
  5
151
100
AcDbEntity
  8
0
 62
7
100
AcDbSpline
 70
8
 71
3
 72
8
 73
4
 74
0
 40
0
 40
0
 40
0
 40
0
 40
1
 40
1
 40
1
 40
1
 10
603.120926
 20
492.104221
 30
0.0
 10
602.888873
 20
492.238197
 30
0.0
 10
602.602973
 20
492.238197
 30
0.0
 10
602.370920
 20
492.104221
 30
0.0
  0
SPLINE
  5
152
100
AcDbEntity
  8
0
 62
7
100
AcDbSpline
 70
8
 71
3
 72
8
 73
4
 74
0
 40
0
 40
0
 40
0
 40
0
 40
1
 40
1
 40
1
 40
1
 10
602.370920
 20
492.104221
 30
0.0
 10
602.138868
 20
491.970246
 30
0.0
 10
601.995917
 20
491.722649
 30
0.0
 10
601.995917
 20
491.454697
 30
0.0
  0
SPLINE
  5
153
100
AcDbEntity
  8
0
 62
7
100
AcDbSpline
 70
8
 71
3
 72
8
 73
4
 74
0
 40
0
 40
0
 40
0
 40
0
 40
1
 40
1
 40
1
 40
1
 10
601.995917
 20
491.454697
 30
0.0
 10
601.995917
 20
491.186746
 30
0.0
 10
602.138868
 20
490.939149
 30
0.0
 10
602.370920
 20
490.805174
 30
0.0
  0
SPLINE
  5
154
100
AcDbEntity
  8
0
 62
7
100
AcDbSpline
 70
8
 71
3
 72
8
 73
4
 74
0
 40
0
 40
0
 40
0
 40
0
 40
1
 40
1
 40
1
 40
1
 10
602.370920
 20
490.805174
 30
0.0
 10
602.602973
 20
490.671198
 30
0.0
 10
602.888873
 20
490.671198
 30
0.0
 10
603.120926
 20
490.805174
 30
0.0
  0
SPLINE
  5
155
100
AcDbEntity
  8
0
 62
7
100
AcDbSpline
 70
8
 71
3
 72
8
 73
4
 74
0
 40
0
 40
0
 40
0
 40
0
 40
1
 40
1
 40
1
 40
1
 10
603.120926
 20
490.805174
 30
0.0
 10
603.352978
 20
490.939149
 30
0.0
 10
603.495928
 20
491.186746
 30
0.0
 10
603.495928
 20
491.454697
 30
0.0
  0
LWPOLYLINE
  5
156
100
AcDbEntity
  8
0
 62
7
100
AcDbPolyline
 90
2
 70
1
 10
592.816950
 20
535.860863
 30
0.0
 10
592.816950
 20
535.860863
 30
0.0
  0
SPLINE
  5
157
100
AcDbEntity
  8
0
 62
7
100
AcDbSpline
 70
8
 71
3
 72
8
 73
4
 74
0
 40
0
 40
0
 40
0
 40
0
 40
1
 40
1
 40
1
 40
1
 10
598.376558
 20
550.126053
 30
0.0
 10
598.377836
 20
550.394848
 30
0.0
 10
598.235168
 20
550.643773
 30
0.0
 10
598.002595
 20
550.778541
 30
0.0
  0
SPLINE
  5
158
100
AcDbEntity
  8
0
 62
7
100
AcDbSpline
 70
8
 71
3
 72
8
 73
4
 74
0
 40
0
 40
0
 40
0
 40
0
 40
1
 40
1
 40
1
 40
1
 10
598.002595
 20
550.778541
 30
0.0
 10
597.770022
 20
550.913308
 30
0.0
 10
597.483112
 20
550.913308
 30
0.0
 10
597.250539
 20
550.778541
 30
0.0
  0
SPLINE
  5
159
100
AcDbEntity
  8
0
 62
7
100
AcDbSpline
 70
8
 71
3
 72
8
 73
4
 74
0
 40
0
 40
0
 40
0
 40
0
 40
1
 40
1
 40
1
 40
1
 10
597.250539
 20
550.778541
 30
0.0
 10
597.017966
 20
550.643773
 30
0.0
 10
596.875298
 20
550.394848
 30
0.0
 10
596.876576
 20
550.126053
 30
0.0
  0
SPLINE
  5
15a
100
AcDbEntity
  8
0
 62
7
100
AcDbSpline
 70
8
 71
3
 72
8
 73
4
 74
0
 40
0
 40
0
 40
0
 40
0
 40
1
 40
1
 40
1
 40
1
 10
596.876576
 20
550.126053
 30
0.0
 10
596.875298
 20
549.857258
 30
0.0
 10
597.017966
 20
549.608333
 30
0.0
 10
597.250539
 20
549.473565
 30
0.0
  0
SPLINE
  5
15b
100
AcDbEntity
  8
0
 62
7
100
AcDbSpline
 70
8
 71
3
 72
8
 73
4
 74
0
 40
0
 40
0
 40
0
 40
0
 40
1
 40
1
 40
1
 40
1
 10
597.250539
 20
549.473565
 30
0.0
 10
597.483112
 20
549.338797
 30
0.0
 10
597.770022
 20
549.338797
 30
0.0
 10
598.002595
 20
549.473565
 30
0.0
  0
SPLINE
  5
15c
100
AcDbEntity
  8
0
 62
7
100
AcDbSpline
 70
8
 71
3
 72
8
 73
4
 74
0
 40
0
 40
0
 40
0
 40
0
 40
1
 40
1
 40
1
 40
1
 10
598.002595
 20
549.473565
 30
0.0
 10
598.235168
 20
549.608333
 30
0.0
 10
598.377836
 20
549.857258
 30
0.0
 10
598.376558
 20
550.126053
 30
0.0
  0
LWPOLYLINE
  5
15d
100
AcDbEntity
  8
0
 62
7
100
AcDbPolyline
 90
2
 70
1
 10
603.495928
 20
491.454697
 30
0.0
 10
603.495928
 20
491.454697
 30
0.0
  0
SPLINE
  5
15e
100
AcDbEntity
  8
0
 62
7
100
AcDbSpline
 70
8
 71
3
 72
8
 73
4
 74
0
 40
0
 40
0
 40
0
 40
0
 40
1
 40
1
 40
1
 40
1
 10
583.478640
 20
526.484949
 30
0.0
 10
583.478640
 20
526.752901
 30
0.0
 10
583.335690
 20
527.000498
 30
0.0
 10
583.103637
 20
527.134473
 30
0.0
  0
SPLINE
  5
15f
100
AcDbEntity
  8
0
 62
7
100
AcDbSpline
 70
8
 71
3
 72
8
 73
4
 74
0
 40
0
 40
0
 40
0
 40
0
 40
1
 40
1
 40
1
 40
1
 10
583.103637
 20
527.134473
 30
0.0
 10
582.871585
 20
527.268449
 30
0.0
 10
582.585684
 20
527.268449
 30
0.0
 10
582.353632
 20
527.134473
 30
0.0
  0
SPLINE
  5
160
100
AcDbEntity
  8
0
 62
7
100
AcDbSpline
 70
8
 71
3
 72
8
 73
4
 74
0
 40
0
 40
0
 40
0
 40
0
 40
1
 40
1
 40
1
 40
1
 10
582.353632
 20
527.134473
 30
0.0
 10
582.121579
 20
527.000498
 30
0.0
 10
581.978629
 20
526.752901
 30
0.0
 10
581.978629
 20
526.484949
 30
0.0
  0
SPLINE
  5
161
100
AcDbEntity
  8
0
 62
7
100
AcDbSpline
 70
8
 71
3
 72
8
 73
4
 74
0
 40
0
 40
0
 40
0
 40
0
 40
1
 40
1
 40
1
 40
1
 10
581.978629
 20
526.484949
 30
0.0
 10
581.978629
 20
526.216998
 30
0.0
 10
582.121579
 20
525.969401
 30
0.0
 10
582.353632
 20
525.835425
 30
0.0
  0
SPLINE
  5
162
100
AcDbEntity
  8
0
 62
7
100
AcDbSpline
 70
8
 71
3
 72
8
 73
4
 74
0
 40
0
 40
0
 40
0
 40
0
 40
1
 40
1
 40
1
 40
1
 10
582.353632
 20
525.835425
 30
0.0
 10
582.585684
 20
525.701450
 30
0.0
 10
582.871585
 20
525.701450
 30
0.0
 10
583.103637
 20
525.835425
 30
0.0
  0
SPLINE
  5
163
100
AcDbEntity
  8
0
 62
7
100
AcDbSpline
 70
8
 71
3
 72
8
 73
4
 74
0
 40
0
 40
0
 40
0
 40
0
 40
1
 40
1
 40
1
 40
1
 10
583.103637
 20
525.835425
 30
0.0
 10
583.335690
 20
525.969401
 30
0.0
 10
583.478640
 20
526.216998
 30
0.0
 10
583.478640
 20
526.484949
 30
0.0
  0
LWPOLYLINE
  5
164
100
AcDbEntity
  8
0
 62
7
100
AcDbPolyline
 90
2
 70
1
 10
598.376558
 20
550.126053
 30
0.0
 10
598.376558
 20
550.126053
 30
0.0
  0
SPLINE
  5
165
100
AcDbEntity
  8
0
 62
7
100
AcDbSpline
 70
8
 71
3
 72
8
 73
4
 74
0
 40
0
 40
0
 40
0
 40
0
 40
1
 40
1
 40
1
 40
1
 10
576.633650
 20
514.578115
 30
0.0
 10
576.633650
 20
514.846066
 30
0.0
 10
576.490700
 20
515.093663
 30
0.0
 10
576.258648
 20
515.227639
 30
0.0
  0
SPLINE
  5
166
100
AcDbEntity
  8
0
 62
7
100
AcDbSpline
 70
8
 71
3
 72
8
 73
4
 74
0
 40
0
 40
0
 40
0
 40
0
 40
1
 40
1
 40
1
 40
1
 10
576.258648
 20
515.227639
 30
0.0
 10
576.026595
 20
515.361615
 30
0.0
 10
575.740695
 20
515.361615
 30
0.0
 10
575.508642
 20
515.227639
 30
0.0
  0
SPLINE
  5
167
100
AcDbEntity
  8
0
 62
7
100
AcDbSpline
 70
8
 71
3
 72
8
 73
4
 74
0
 40
0
 40
0
 40
0
 40
0
 40
1
 40
1
 40
1
 40
1
 10
575.508642
 20
515.227639
 30
0.0
 10
575.276590
 20
515.093663
 30
0.0
 10
575.133639
 20
514.846066
 30
0.0
 10
575.133639
 20
514.578115
 30
0.0
  0
SPLINE
  5
168
100
AcDbEntity
  8
0
 62
7
100
AcDbSpline
 70
8
 71
3
 72
8
 73
4
 74
0
 40
0
 40
0
 40
0
 40
0
 40
1
 40
1
 40
1
 40
1
 10
575.133639
 20
514.578115
 30
0.0
 10
575.133639
 20
514.310164
 30
0.0
 10
575.276590
 20
514.062567
 30
0.0
 10
575.508642
 20
513.928591
 30
0.0
  0
SPLINE
  5
169
100
AcDbEntity
  8
0
 62
7
100
AcDbSpline
 70
8
 71
3
 72
8
 73
4
 74
0
 40
0
 40
0
 40
0
 40
0
 40
1
 40
1
 40
1
 40
1
 10
575.508642
 20
513.928591
 30
0.0
 10
575.740695
 20
513.794616
 30
0.0
 10
576.026595
 20
513.794616
 30
0.0
 10
576.258648
 20
513.928591
 30
0.0
  0
SPLINE
  5
16a
100
AcDbEntity
  8
0
 62
7
100
AcDbSpline
 70
8
 71
3
 72
8
 73
4
 74
0
 40
0
 40
0
 40
0
 40
0
 40
1
 40
1
 40
1
 40
1
 10
576.258648
 20
513.928591
 30
0.0
 10
576.490700
 20
514.062567
 30
0.0
 10
576.633650
 20
514.310164
 30
0.0
 10
576.633650
 20
514.578115
 30
0.0
  0
LWPOLYLINE
  5
16b
100
AcDbEntity
  8
0
 62
7
100
AcDbPolyline
 90
2
 70
1
 10
583.478640
 20
526.484949
 30
0.0
 10
583.478640
 20
526.484949
 30
0.0
  0
SPLINE
  5
16c
100
AcDbEntity
  8
0
 62
7
100
AcDbSpline
 70
8
 71
3
 72
8
 73
4
 74
0
 40
0
 40
0
 40
0
 40
0
 40
1
 40
1
 40
1
 40
1
 10
585.376838
 20
496.343977
 30
0.0
 10
585.376838
 20
496.611928
 30
0.0
 10
585.233888
 20
496.859526
 30
0.0
 10
585.001836
 20
496.993501
 30
0.0
  0
SPLINE
  5
16d
100
AcDbEntity
  8
0
 62
7
100
AcDbSpline
 70
8
 71
3
 72
8
 73
4
 74
0
 40
0
 40
0
 40
0
 40
0
 40
1
 40
1
 40
1
 40
1
 10
585.001836
 20
496.993501
 30
0.0
 10
584.769783
 20
497.127477
 30
0.0
 10
584.483883
 20
497.127477
 30
0.0
 10
584.251830
 20
496.993501
 30
0.0
  0
SPLINE
  5
16e
100
AcDbEntity
  8
0
 62
7
100
AcDbSpline
 70
8
 71
3
 72
8
 73
4
 74
0
 40
0
 40
0
 40
0
 40
0
 40
1
 40
1
 40
1
 40
1
 10
584.251830
 20
496.993501
 30
0.0
 10
584.019778
 20
496.859526
 30
0.0
 10
583.876827
 20
496.611928
 30
0.0
 10
583.876827
 20
496.343977
 30
0.0
  0
SPLINE
  5
16f
100
AcDbEntity
  8
0
 62
7
100
AcDbSpline
 70
8
 71
3
 72
8
 73
4
 74
0
 40
0
 40
0
 40
0
 40
0
 40
1
 40
1
 40
1
 40
1
 10
583.876827
 20
496.343977
 30
0.0
 10
583.876827
 20
496.076026
 30
0.0
 10
584.019778
 20
495.828429
 30
0.0
 10
584.251830
 20
495.694453
 30
0.0
  0
SPLINE
  5
170
100
AcDbEntity
  8
0
 62
7
100
AcDbSpline
 70
8
 71
3
 72
8
 73
4
 74
0
 40
0
 40
0
 40
0
 40
0
 40
1
 40
1
 40
1
 40
1
 10
584.251830
 20
495.694453
 30
0.0
 10
584.483883
 20
495.560478
 30
0.0
 10
584.769783
 20
495.560478
 30
0.0
 10
585.001836
 20
495.694453
 30
0.0
  0
SPLINE
  5
171
100
AcDbEntity
  8
0
 62
7
100
AcDbSpline
 70
8
 71
3
 72
8
 73
4
 74
0
 40
0
 40
0
 40
0
 40
0
 40
1
 40
1
 40
1
 40
1
 10
585.001836
 20
495.694453
 30
0.0
 10
585.233888
 20
495.828429
 30
0.0
 10
585.376838
 20
496.076026
 30
0.0
 10
585.376838
 20
496.343977
 30
0.0
  0
LWPOLYLINE
  5
172
100
AcDbEntity
  8
0
 62
7
100
AcDbPolyline
 90
2
 70
1
 10
576.633650
 20
514.578115
 30
0.0
 10
576.633650
 20
514.578115
 30
0.0
  0
SPLINE
  5
173
100
AcDbEntity
  8
0
 62
7
100
AcDbSpline
 70
8
 71
3
 72
8
 73
4
 74
0
 40
0
 40
0
 40
0
 40
0
 40
1
 40
1
 40
1
 40
1
 10
579.279625
 20
502.038550
 30
0.0
 10
579.279625
 20
502.306501
 30
0.0
 10
579.136675
 20
502.554098
 30
0.0
 10
578.904622
 20
502.688074
 30
0.0
  0
SPLINE
  5
174
100
AcDbEntity
  8
0
 62
7
100
AcDbSpline
 70
8
 71
3
 72
8
 73
4
 74
0
 40
0
 40
0
 40
0
 40
0
 40
1
 40
1
 40
1
 40
1
 10
578.904622
 20
502.688074
 30
0.0
 10
578.672570
 20
502.822049
 30
0.0
 10
578.386669
 20
502.822049
 30
0.0
 10
578.154617
 20
502.688074
 30
0.0
  0
SPLINE
  5
175
100
AcDbEntity
  8
0
 62
7
100
AcDbSpline
 70
8
 71
3
 72
8
 73
4
 74
0
 40
0
 40
0
 40
0
 40
0
 40
1
 40
1
 40
1
 40
1
 10
578.154617
 20
502.688074
 30
0.0
 10
577.922564
 20
502.554098
 30
0.0
 10
577.779614
 20
502.306501
 30
0.0
 10
577.779614
 20
502.038550
 30
0.0
  0
SPLINE
  5
176
100
AcDbEntity
  8
0
 62
7
100
AcDbSpline
 70
8
 71
3
 72
8
 73
4
 74
0
 40
0
 40
0
 40
0
 40
0
 40
1
 40
1
 40
1
 40
1
 10
577.779614
 20
502.038550
 30
0.0
 10
577.779614
 20
501.770599
 30
0.0
 10
577.922564
 20
501.523002
 30
0.0
 10
578.154617
 20
501.389026
 30
0.0
  0
SPLINE
  5
177
100
AcDbEntity
  8
0
 62
7
100
AcDbSpline
 70
8
 71
3
 72
8
 73
4
 74
0
 40
0
 40
0
 40
0
 40
0
 40
1
 40
1
 40
1
 40
1
 10
578.154617
 20
501.389026
 30
0.0
 10
578.386669
 20
501.255051
 30
0.0
 10
578.672570
 20
501.255051
 30
0.0
 10
578.904622
 20
501.389026
 30
0.0
  0
SPLINE
  5
178
100
AcDbEntity
  8
0
 62
7
100
AcDbSpline
 70
8
 71
3
 72
8
 73
4
 74
0
 40
0
 40
0
 40
0
 40
0
 40
1
 40
1
 40
1
 40
1
 10
578.904622
 20
501.389026
 30
0.0
 10
579.136675
 20
501.523002
 30
0.0
 10
579.279625
 20
501.770599
 30
0.0
 10
579.279625
 20
502.038550
 30
0.0
  0
LWPOLYLINE
  5
179
100
AcDbEntity
  8
0
 62
7
100
AcDbPolyline
 90
2
 70
1
 10
585.376838
 20
496.343977
 30
0.0
 10
585.376838
 20
496.343977
 30
0.0
  0
SPLINE
  5
17a
100
AcDbEntity
  8
0
 62
7
100
AcDbSpline
 70
8
 71
3
 72
8
 73
4
 74
0
 40
0
 40
0
 40
0
 40
0
 40
1
 40
1
 40
1
 40
1
 10
559.647288
 20
488.866257
 30
0.0
 10
559.647288
 20
489.312840
 30
0.0
 10
559.409038
 20
489.725501
 30
0.0
 10
559.022285
 20
489.948792
 30
0.0
  0
SPLINE
  5
17b
100
AcDbEntity
  8
0
 62
7
100
AcDbSpline
 70
8
 71
3
 72
8
 73
4
 74
0
 40
0
 40
0
 40
0
 40
0
 40
1
 40
1
 40
1
 40
1
 10
559.022285
 20
489.948792
 30
0.0
 10
558.635533
 20
490.172084
 30
0.0
 10
558.159033
 20
490.172084
 30
0.0
 10
557.772281
 20
489.948792
 30
0.0
  0
SPLINE
  5
17c
100
AcDbEntity
  8
0
 62
7
100
AcDbSpline
 70
8
 71
3
 72
8
 73
4
 74
0
 40
0
 40
0
 40
0
 40
0
 40
1
 40
1
 40
1
 40
1
 10
557.772281
 20
489.948792
 30
0.0
 10
557.385528
 20
489.725501
 30
0.0
 10
557.147278
 20
489.312840
 30
0.0
 10
557.147278
 20
488.866257
 30
0.0
  0
SPLINE
  5
17d
100
AcDbEntity
  8
0
 62
7
100
AcDbSpline
 70
8
 71
3
 72
8
 73
4
 74
0
 40
0
 40
0
 40
0
 40
0
 40
1
 40
1
 40
1
 40
1
 10
557.147278
 20
488.866257
 30
0.0
 10
557.147278
 20
488.419673
 30
0.0
 10
557.385528
 20
488.007013
 30
0.0
 10
557.772281
 20
487.783721
 30
0.0
  0
SPLINE
  5
17e
100
AcDbEntity
  8
0
 62
7
100
AcDbSpline
 70
8
 71
3
 72
8
 73
4
 74
0
 40
0
 40
0
 40
0
 40
0
 40
1
 40
1
 40
1
 40
1
 10
557.772281
 20
487.783721
 30
0.0
 10
558.159033
 20
487.560429
 30
0.0
 10
558.635533
 20
487.560429
 30
0.0
 10
559.022285
 20
487.783721
 30
0.0
  0
SPLINE
  5
17f
100
AcDbEntity
  8
0
 62
7
100
AcDbSpline
 70
8
 71
3
 72
8
 73
4
 74
0
 40
0
 40
0
 40
0
 40
0
 40
1
 40
1
 40
1
 40
1
 10
559.022285
 20
487.783721
 30
0.0
 10
559.409038
 20
488.007013
 30
0.0
 10
559.647288
 20
488.419673
 30
0.0
 10
559.647288
 20
488.866257
 30
0.0
  0
LWPOLYLINE
  5
180
100
AcDbEntity
  8
0
 62
7
100
AcDbPolyline
 90
2
 70
1
 10
579.279625
 20
502.038550
 30
0.0
 10
579.279625
 20
502.038550
 30
0.0
  0
SPLINE
  5
181
100
AcDbEntity
  8
0
 62
7
100
AcDbSpline
 70
8
 71
3
 72
8
 73
4
 74
0
 40
0
 40
0
 40
0
 40
0
 40
1
 40
1
 40
1
 40
1
 10
547.107731
 20
506.985352
 30
0.0
 10
547.107731
 20
507.431936
 30
0.0
 10
546.869481
 20
507.844596
 30
0.0
 10
546.482729
 20
508.067888
 30
0.0
  0
SPLINE
  5
182
100
AcDbEntity
  8
0
 62
7
100
AcDbSpline
 70
8
 71
3
 72
8
 73
4
 74
0
 40
0
 40
0
 40
0
 40
0
 40
1
 40
1
 40
1
 40
1
 10
546.482729
 20
508.067888
 30
0.0
 10
546.095976
 20
508.291180
 30
0.0
 10
545.619477
 20
508.291180
 30
0.0
 10
545.232724
 20
508.067888
 30
0.0
  0
SPLINE
  5
183
100
AcDbEntity
  8
0
 62
7
100
AcDbSpline
 70
8
 71
3
 72
8
 73
4
 74
0
 40
0
 40
0
 40
0
 40
0
 40
1
 40
1
 40
1
 40
1
 10
545.232724
 20
508.067888
 30
0.0
 10
544.845971
 20
507.844596
 30
0.0
 10
544.607722
 20
507.431936
 30
0.0
 10
544.607722
 20
506.985352
 30
0.0
  0
SPLINE
  5
184
100
AcDbEntity
  8
0
 62
7
100
AcDbSpline
 70
8
 71
3
 72
8
 73
4
 74
0
 40
0
 40
0
 40
0
 40
0
 40
1
 40
1
 40
1
 40
1
 10
544.607722
 20
506.985352
 30
0.0
 10
544.607722
 20
506.538769
 30
0.0
 10
544.845971
 20
506.126109
 30
0.0
 10
545.232724
 20
505.902817
 30
0.0
  0
SPLINE
  5
185
100
AcDbEntity
  8
0
 62
7
100
AcDbSpline
 70
8
 71
3
 72
8
 73
4
 74
0
 40
0
 40
0
 40
0
 40
0
 40
1
 40
1
 40
1
 40
1
 10
545.232724
 20
505.902817
 30
0.0
 10
545.619477
 20
505.679525
 30
0.0
 10
546.095976
 20
505.679525
 30
0.0
 10
546.482729
 20
505.902817
 30
0.0
  0
SPLINE
  5
186
100
AcDbEntity
  8
0
 62
7
100
AcDbSpline
 70
8
 71
3
 72
8
 73
4
 74
0
 40
0
 40
0
 40
0
 40
0
 40
1
 40
1
 40
1
 40
1
 10
546.482729
 20
505.902817
 30
0.0
 10
546.869481
 20
506.126109
 30
0.0
 10
547.107731
 20
506.538769
 30
0.0
 10
547.107731
 20
506.985352
 30
0.0
  0
LWPOLYLINE
  5
187
100
AcDbEntity
  8
0
 62
7
100
AcDbPolyline
 90
2
 70
1
 10
559.647288
 20
488.866257
 30
0.0
 10
559.647288
 20
488.866257
 30
0.0
  0
SPLINE
  5
188
100
AcDbEntity
  8
0
 62
7
100
AcDbSpline
 70
8
 71
3
 72
8
 73
4
 74
0
 40
0
 40
0
 40
0
 40
0
 40
1
 40
1
 40
1
 40
1
 10
598.416408
 20
523.781464
 30
0.0
 10
598.416408
 20
524.228047
 30
0.0
 10
598.178159
 20
524.640708
 30
0.0
 10
597.791406
 20
524.864000
 30
0.0
  0
SPLINE
  5
189
100
AcDbEntity
  8
0
 62
7
100
AcDbSpline
 70
8
 71
3
 72
8
 73
4
 74
0
 40
0
 40
0
 40
0
 40
0
 40
1
 40
1
 40
1
 40
1
 10
597.791406
 20
524.864000
 30
0.0
 10
597.404653
 20
525.087291
 30
0.0
 10
596.928154
 20
525.087291
 30
0.0
 10
596.541401
 20
524.864000
 30
0.0
  0
SPLINE
  5
18a
100
AcDbEntity
  8
0
 62
7
100
AcDbSpline
 70
8
 71
3
 72
8
 73
4
 74
0
 40
0
 40
0
 40
0
 40
0
 40
1
 40
1
 40
1
 40
1
 10
596.541401
 20
524.864000
 30
0.0
 10
596.154649
 20
524.640708
 30
0.0
 10
595.916399
 20
524.228047
 30
0.0
 10
595.916399
 20
523.781464
 30
0.0
  0
SPLINE
  5
18b
100
AcDbEntity
  8
0
 62
7
100
AcDbSpline
 70
8
 71
3
 72
8
 73
4
 74
0
 40
0
 40
0
 40
0
 40
0
 40
1
 40
1
 40
1
 40
1
 10
595.916399
 20
523.781464
 30
0.0
 10
595.916399
 20
523.091105
 30
0.0
 10
596.476045
 20
522.531459
 30
0.0
 10
597.166404
 20
522.531459
 30
0.0
  0
SPLINE
  5
18c
100
AcDbEntity
  8
0
 62
7
100
AcDbSpline
 70
8
 71
3
 72
8
 73
4
 74
0
 40
0
 40
0
 40
0
 40
0
 40
1
 40
1
 40
1
 40
1
 10
597.166404
 20
522.531459
 30
0.0
 10
597.856762
 20
522.531459
 30
0.0
 10
598.416408
 20
523.091105
 30
0.0
 10
598.416408
 20
523.781464
 30
0.0
  0
LWPOLYLINE
  5
18d
100
AcDbEntity
  8
0
 62
7
100
AcDbPolyline
 90
2
 70
1
 10
547.107731
 20
506.985352
 30
0.0
 10
547.107731
 20
506.985352
 30
0.0
  0
SPLINE
  5
18e
100
AcDbEntity
  8
0
 62
7
100
AcDbSpline
 70
8
 71
3
 72
8
 73
4
 74
0
 40
0
 40
0
 40
0
 40
0
 40
1
 40
1
 40
1
 40
1
 10
557.211484
 20
505.604848
 30
0.0
 10
557.212195
 20
505.962587
 30
0.0
 10
557.021752
 20
506.293455
 30
0.0
 10
556.712060
 20
506.472530
 30
0.0
  0
SPLINE
  5
18f
100
AcDbEntity
  8
0
 62
7
100
AcDbSpline
 70
8
 71
3
 72
8
 73
4
 74
0
 40
0
 40
0
 40
0
 40
0
 40
1
 40
1
 40
1
 40
1
 10
556.712060
 20
506.472530
 30
0.0
 10
556.402367
 20
506.651605
 30
0.0
 10
556.020605
 20
506.651605
 30
0.0
 10
555.710912
 20
506.472530
 30
0.0
  0
SPLINE
  5
190
100
AcDbEntity
  8
0
 62
7
100
AcDbSpline
 70
8
 71
3
 72
8
 73
4
 74
0
 40
0
 40
0
 40
0
 40
0
 40
1
 40
1
 40
1
 40
1
 10
555.710912
 20
506.472530
 30
0.0
 10
555.401220
 20
506.293455
 30
0.0
 10
555.210777
 20
505.962587
 30
0.0
 10
555.211488
 20
505.604848
 30
0.0
  0
SPLINE
  5
191
100
AcDbEntity
  8
0
 62
7
100
AcDbSpline
 70
8
 71
3
 72
8
 73
4
 74
0
 40
0
 40
0
 40
0
 40
0
 40
1
 40
1
 40
1
 40
1
 10
555.211488
 20
505.604848
 30
0.0
 10
555.210777
 20
505.247110
 30
0.0
 10
555.401220
 20
504.916241
 30
0.0
 10
555.710912
 20
504.737167
 30
0.0
  0
SPLINE
  5
192
100
AcDbEntity
  8
0
 62
7
100
AcDbSpline
 70
8
 71
3
 72
8
 73
4
 74
0
 40
0
 40
0
 40
0
 40
0
 40
1
 40
1
 40
1
 40
1
 10
555.710912
 20
504.737167
 30
0.0
 10
556.020605
 20
504.558092
 30
0.0
 10
556.402367
 20
504.558092
 30
0.0
 10
556.712060
 20
504.737167
 30
0.0
  0
SPLINE
  5
193
100
AcDbEntity
  8
0
 62
7
100
AcDbSpline
 70
8
 71
3
 72
8
 73
4
 74
0
 40
0
 40
0
 40
0
 40
0
 40
1
 40
1
 40
1
 40
1
 10
556.712060
 20
504.737167
 30
0.0
 10
557.021752
 20
504.916241
 30
0.0
 10
557.212195
 20
505.247110
 30
0.0
 10
557.211484
 20
505.604848
 30
0.0
  0
LWPOLYLINE
  5
194
100
AcDbEntity
  8
0
 62
7
100
AcDbPolyline
 90
2
 70
1
 10
598.416408
 20
523.781464
 30
0.0
 10
598.416408
 20
523.781464
 30
0.0
  0
SPLINE
  5
195
100
AcDbEntity
  8
0
 62
7
100
AcDbSpline
 70
8
 71
3
 72
8
 73
4
 74
0
 40
0
 40
0
 40
0
 40
0
 40
1
 40
1
 40
1
 40
1
 10
568.908156
 20
504.799555
 30
0.0
 10
568.908156
 20
505.246139
 30
0.0
 10
568.669906
 20
505.658799
 30
0.0
 10
568.283153
 20
505.882091
 30
0.0
  0
SPLINE
  5
196
100
AcDbEntity
  8
0
 62
7
100
AcDbSpline
 70
8
 71
3
 72
8
 73
4
 74
0
 40
0
 40
0
 40
0
 40
0
 40
1
 40
1
 40
1
 40
1
 10
568.283153
 20
505.882091
 30
0.0
 10
567.896401
 20
506.105383
 30
0.0
 10
567.419902
 20
506.105383
 30
0.0
 10
567.033149
 20
505.882091
 30
0.0
  0
SPLINE
  5
197
100
AcDbEntity
  8
0
 62
7
100
AcDbSpline
 70
8
 71
3
 72
8
 73
4
 74
0
 40
0
 40
0
 40
0
 40
0
 40
1
 40
1
 40
1
 40
1
 10
567.033149
 20
505.882091
 30
0.0
 10
566.646396
 20
505.658799
 30
0.0
 10
566.408147
 20
505.246139
 30
0.0
 10
566.408147
 20
504.799555
 30
0.0
  0
SPLINE
  5
198
100
AcDbEntity
  8
0
 62
7
100
AcDbSpline
 70
8
 71
3
 72
8
 73
4
 74
0
 40
0
 40
0
 40
0
 40
0
 40
1
 40
1
 40
1
 40
1
 10
566.408147
 20
504.799555
 30
0.0
 10
566.408147
 20
504.352972
 30
0.0
 10
566.646396
 20
503.940312
 30
0.0
 10
567.033149
 20
503.717020
 30
0.0
  0
SPLINE
  5
199
100
AcDbEntity
  8
0
 62
7
100
AcDbSpline
 70
8
 71
3
 72
8
 73
4
 74
0
 40
0
 40
0
 40
0
 40
0
 40
1
 40
1
 40
1
 40
1
 10
567.033149
 20
503.717020
 30
0.0
 10
567.419902
 20
503.493728
 30
0.0
 10
567.896401
 20
503.493728
 30
0.0
 10
568.283153
 20
503.717020
 30
0.0
  0
SPLINE
  5
19a
100
AcDbEntity
  8
0
 62
7
100
AcDbSpline
 70
8
 71
3
 72
8
 73
4
 74
0
 40
0
 40
0
 40
0
 40
0
 40
1
 40
1
 40
1
 40
1
 10
568.283153
 20
503.717020
 30
0.0
 10
568.669906
 20
503.940312
 30
0.0
 10
568.908156
 20
504.352972
 30
0.0
 10
568.908156
 20
504.799555
 30
0.0
  0
LWPOLYLINE
  5
19b
100
AcDbEntity
  8
0
 62
7
100
AcDbPolyline
 90
2
 70
1
 10
557.211484
 20
505.604848
 30
0.0
 10
557.211484
 20
505.604848
 30
0.0
  0
SPLINE
  5
19c
100
AcDbEntity
  8
0
 62
7
100
AcDbSpline
 70
8
 71
3
 72
8
 73
4
 74
0
 40
0
 40
0
 40
0
 40
0
 40
1
 40
1
 40
1
 40
1
 10
607.332147
 20
506.812788
 30
0.0
 10
607.332147
 20
507.259371
 30
0.0
 10
607.093897
 20
507.672032
 30
0.0
 10
606.707145
 20
507.895323
 30
0.0
  0
SPLINE
  5
19d
100
AcDbEntity
  8
0
 62
7
100
AcDbSpline
 70
8
 71
3
 72
8
 73
4
 74
0
 40
0
 40
0
 40
0
 40
0
 40
1
 40
1
 40
1
 40
1
 10
606.707145
 20
507.895323
 30
0.0
 10
606.320392
 20
508.118615
 30
0.0
 10
605.843893
 20
508.118615
 30
0.0
 10
605.457140
 20
507.895323
 30
0.0
  0
SPLINE
  5
19e
100
AcDbEntity
  8
0
 62
7
100
AcDbSpline
 70
8
 71
3
 72
8
 73
4
 74
0
 40
0
 40
0
 40
0
 40
0
 40
1
 40
1
 40
1
 40
1
 10
605.457140
 20
507.895323
 30
0.0
 10
605.070387
 20
507.672032
 30
0.0
 10
604.832138
 20
507.259371
 30
0.0
 10
604.832138
 20
506.812788
 30
0.0
  0
SPLINE
  5
19f
100
AcDbEntity
  8
0
 62
7
100
AcDbSpline
 70
8
 71
3
 72
8
 73
4
 74
0
 40
0
 40
0
 40
0
 40
0
 40
1
 40
1
 40
1
 40
1
 10
604.832138
 20
506.812788
 30
0.0
 10
604.832138
 20
506.366204
 30
0.0
 10
605.070387
 20
505.953544
 30
0.0
 10
605.457140
 20
505.730252
 30
0.0
  0
SPLINE
  5
1a0
100
AcDbEntity
  8
0
 62
7
100
AcDbSpline
 70
8
 71
3
 72
8
 73
4
 74
0
 40
0
 40
0
 40
0
 40
0
 40
1
 40
1
 40
1
 40
1
 10
605.457140
 20
505.730252
 30
0.0
 10
605.843893
 20
505.506960
 30
0.0
 10
606.320392
 20
505.506960
 30
0.0
 10
606.707145
 20
505.730252
 30
0.0
  0
SPLINE
  5
1a1
100
AcDbEntity
  8
0
 62
7
100
AcDbSpline
 70
8
 71
3
 72
8
 73
4
 74
0
 40
0
 40
0
 40
0
 40
0
 40
1
 40
1
 40
1
 40
1
 10
606.707145
 20
505.730252
 30
0.0
 10
607.093897
 20
505.953544
 30
0.0
 10
607.332147
 20
506.366204
 30
0.0
 10
607.332147
 20
506.812788
 30
0.0
  0
LWPOLYLINE
  5
1a2
100
AcDbEntity
  8
0
 62
7
100
AcDbPolyline
 90
2
 70
1
 10
568.908156
 20
504.799555
 30
0.0
 10
568.908156
 20
504.799555
 30
0.0
  0
SPLINE
  5
1a3
100
AcDbEntity
  8
0
 62
7
100
AcDbSpline
 70
8
 71
3
 72
8
 73
4
 74
0
 40
0
 40
0
 40
0
 40
0
 40
1
 40
1
 40
1
 40
1
 10
572.211369
 20
523.463631
 30
0.0
 10
572.211369
 20
523.910214
 30
0.0
 10
571.973120
 20
524.322875
 30
0.0
 10
571.586367
 20
524.546166
 30
0.0
  0
SPLINE
  5
1a4
100
AcDbEntity
  8
0
 62
7
100
AcDbSpline
 70
8
 71
3
 72
8
 73
4
 74
0
 40
0
 40
0
 40
0
 40
0
 40
1
 40
1
 40
1
 40
1
 10
571.586367
 20
524.546166
 30
0.0
 10
571.199614
 20
524.769458
 30
0.0
 10
570.723115
 20
524.769458
 30
0.0
 10
570.336362
 20
524.546166
 30
0.0
  0
SPLINE
  5
1a5
100
AcDbEntity
  8
0
 62
7
100
AcDbSpline
 70
8
 71
3
 72
8
 73
4
 74
0
 40
0
 40
0
 40
0
 40
0
 40
1
 40
1
 40
1
 40
1
 10
570.336362
 20
524.546166
 30
0.0
 10
569.949610
 20
524.322875
 30
0.0
 10
569.711360
 20
523.910214
 30
0.0
 10
569.711360
 20
523.463631
 30
0.0
  0
SPLINE
  5
1a6
100
AcDbEntity
  8
0
 62
7
100
AcDbSpline
 70
8
 71
3
 72
8
 73
4
 74
0
 40
0
 40
0
 40
0
 40
0
 40
1
 40
1
 40
1
 40
1
 10
569.711360
 20
523.463631
 30
0.0
 10
569.711360
 20
523.017047
 30
0.0
 10
569.949610
 20
522.604387
 30
0.0
 10
570.336362
 20
522.381095
 30
0.0
  0
SPLINE
  5
1a7
100
AcDbEntity
  8
0
 62
7
100
AcDbSpline
 70
8
 71
3
 72
8
 73
4
 74
0
 40
0
 40
0
 40
0
 40
0
 40
1
 40
1
 40
1
 40
1
 10
570.336362
 20
522.381095
 30
0.0
 10
570.723115
 20
522.157803
 30
0.0
 10
571.199614
 20
522.157803
 30
0.0
 10
571.586367
 20
522.381095
 30
0.0
  0
SPLINE
  5
1a8
100
AcDbEntity
  8
0
 62
7
100
AcDbSpline
 70
8
 71
3
 72
8
 73
4
 74
0
 40
0
 40
0
 40
0
 40
0
 40
1
 40
1
 40
1
 40
1
 10
571.586367
 20
522.381095
 30
0.0
 10
571.973120
 20
522.604387
 30
0.0
 10
572.211369
 20
523.017047
 30
0.0
 10
572.211369
 20
523.463631
 30
0.0
  0
LWPOLYLINE
  5
1a9
100
AcDbEntity
  8
0
 62
7
100
AcDbPolyline
 90
2
 70
1
 10
607.332147
 20
506.812788
 30
0.0
 10
607.332147
 20
506.812788
 30
0.0
  0
SPLINE
  5
1aa
100
AcDbEntity
  8
0
 62
7
100
AcDbSpline
 70
8
 71
3
 72
8
 73
4
 74
0
 40
0
 40
0
 40
0
 40
0
 40
1
 40
1
 40
1
 40
1
 10
578.514154
 20
493.007763
 30
0.0
 10
578.514154
 20
493.454347
 30
0.0
 10
578.275904
 20
493.867007
 30
0.0
 10
577.889151
 20
494.090299
 30
0.0
  0
SPLINE
  5
1ab
100
AcDbEntity
  8
0
 62
7
100
AcDbSpline
 70
8
 71
3
 72
8
 73
4
 74
0
 40
0
 40
0
 40
0
 40
0
 40
1
 40
1
 40
1
 40
1
 10
577.889151
 20
494.090299
 30
0.0
 10
577.502399
 20
494.313591
 30
0.0
 10
577.025899
 20
494.313591
 30
0.0
 10
576.639147
 20
494.090299
 30
0.0
  0
SPLINE
  5
1ac
100
AcDbEntity
  8
0
 62
7
100
AcDbSpline
 70
8
 71
3
 72
8
 73
4
 74
0
 40
0
 40
0
 40
0
 40
0
 40
1
 40
1
 40
1
 40
1
 10
576.639147
 20
494.090299
 30
0.0
 10
576.252394
 20
493.867007
 30
0.0
 10
576.014144
 20
493.454347
 30
0.0
 10
576.014144
 20
493.007763
 30
0.0
  0
SPLINE
  5
1ad
100
AcDbEntity
  8
0
 62
7
100
AcDbSpline
 70
8
 71
3
 72
8
 73
4
 74
0
 40
0
 40
0
 40
0
 40
0
 40
1
 40
1
 40
1
 40
1
 10
576.014144
 20
493.007763
 30
0.0
 10
576.014144
 20
492.561180
 30
0.0
 10
576.252394
 20
492.148520
 30
0.0
 10
576.639147
 20
491.925228
 30
0.0
  0
SPLINE
  5
1ae
100
AcDbEntity
  8
0
 62
7
100
AcDbSpline
 70
8
 71
3
 72
8
 73
4
 74
0
 40
0
 40
0
 40
0
 40
0
 40
1
 40
1
 40
1
 40
1
 10
576.639147
 20
491.925228
 30
0.0
 10
577.025899
 20
491.701936
 30
0.0
 10
577.502399
 20
491.701936
 30
0.0
 10
577.889151
 20
491.925228
 30
0.0
  0
SPLINE
  5
1af
100
AcDbEntity
  8
0
 62
7
100
AcDbSpline
 70
8
 71
3
 72
8
 73
4
 74
0
 40
0
 40
0
 40
0
 40
0
 40
1
 40
1
 40
1
 40
1
 10
577.889151
 20
491.925228
 30
0.0
 10
578.275904
 20
492.148520
 30
0.0
 10
578.514154
 20
492.561180
 30
0.0
 10
578.514154
 20
493.007763
 30
0.0
  0
LWPOLYLINE
  5
1b0
100
AcDbEntity
  8
0
 62
7
100
AcDbPolyline
 90
2
 70
1
 10
572.211369
 20
523.463631
 30
0.0
 10
572.211369
 20
523.463631
 30
0.0
  0
SPLINE
  5
1b1
100
AcDbEntity
  8
0
 62
7
100
AcDbSpline
 70
8
 71
3
 72
8
 73
4
 74
0
 40
0
 40
0
 40
0
 40
0
 40
1
 40
1
 40
1
 40
1
 10
552.762448
 20
510.551648
 30
0.0
 10
552.763725
 20
510.820443
 30
0.0
 10
552.621058
 20
511.069368
 30
0.0
 10
552.388485
 20
511.204136
 30
0.0
  0
SPLINE
  5
1b2
100
AcDbEntity
  8
0
 62
7
100
AcDbSpline
 70
8
 71
3
 72
8
 73
4
 74
0
 40
0
 40
0
 40
0
 40
0
 40
1
 40
1
 40
1
 40
1
 10
552.388485
 20
511.204136
 30
0.0
 10
552.155912
 20
511.338903
 30
0.0
 10
551.869001
 20
511.338903
 30
0.0
 10
551.636429
 20
511.204136
 30
0.0
  0
SPLINE
  5
1b3
100
AcDbEntity
  8
0
 62
7
100
AcDbSpline
 70
8
 71
3
 72
8
 73
4
 74
0
 40
0
 40
0
 40
0
 40
0
 40
1
 40
1
 40
1
 40
1
 10
551.636429
 20
511.204136
 30
0.0
 10
551.403856
 20
511.069368
 30
0.0
 10
551.261188
 20
510.820443
 30
0.0
 10
551.262465
 20
510.551648
 30
0.0
  0
SPLINE
  5
1b4
100
AcDbEntity
  8
0
 62
7
100
AcDbSpline
 70
8
 71
3
 72
8
 73
4
 74
0
 40
0
 40
0
 40
0
 40
0
 40
1
 40
1
 40
1
 40
1
 10
551.262465
 20
510.551648
 30
0.0
 10
551.261188
 20
510.282853
 30
0.0
 10
551.403856
 20
510.033928
 30
0.0
 10
551.636429
 20
509.899160
 30
0.0
  0
SPLINE
  5
1b5
100
AcDbEntity
  8
0
 62
7
100
AcDbSpline
 70
8
 71
3
 72
8
 73
4
 74
0
 40
0
 40
0
 40
0
 40
0
 40
1
 40
1
 40
1
 40
1
 10
551.636429
 20
509.899160
 30
0.0
 10
551.869001
 20
509.764392
 30
0.0
 10
552.155912
 20
509.764392
 30
0.0
 10
552.388485
 20
509.899160
 30
0.0
  0
SPLINE
  5
1b6
100
AcDbEntity
  8
0
 62
7
100
AcDbSpline
 70
8
 71
3
 72
8
 73
4
 74
0
 40
0
 40
0
 40
0
 40
0
 40
1
 40
1
 40
1
 40
1
 10
552.388485
 20
509.899160
 30
0.0
 10
552.621058
 20
510.033928
 30
0.0
 10
552.763725
 20
510.282853
 30
0.0
 10
552.762448
 20
510.551648
 30
0.0
  0
LWPOLYLINE
  5
1b7
100
AcDbEntity
  8
0
 62
7
100
AcDbPolyline
 90
2
 70
1
 10
578.514154
 20
493.007763
 30
0.0
 10
578.514154
 20
493.007763
 30
0.0
  0
SPLINE
  5
1b8
100
AcDbEntity
  8
0
 62
7
100
AcDbSpline
 70
8
 71
3
 72
8
 73
4
 74
0
 40
0
 40
0
 40
0
 40
0
 40
1
 40
1
 40
1
 40
1
 10
561.505636
 20
519.064749
 30
0.0
 10
561.506924
 20
519.333551
 30
0.0
 10
561.364259
 20
519.582487
 30
0.0
 10
561.131682
 20
519.717261
 30
0.0
  0
SPLINE
  5
1b9
100
AcDbEntity
  8
0
 62
7
100
AcDbSpline
 70
8
 71
3
 72
8
 73
4
 74
0
 40
0
 40
0
 40
0
 40
0
 40
1
 40
1
 40
1
 40
1
 10
561.131682
 20
519.717261
 30
0.0
 10
560.899104
 20
519.852035
 30
0.0
 10
560.612185
 20
519.852035
 30
0.0
 10
560.379608
 20
519.717261
 30
0.0
  0
SPLINE
  5
1ba
100
AcDbEntity
  8
0
 62
7
100
AcDbSpline
 70
8
 71
3
 72
8
 73
4
 74
0
 40
0
 40
0
 40
0
 40
0
 40
1
 40
1
 40
1
 40
1
 10
560.379608
 20
519.717261
 30
0.0
 10
560.147031
 20
519.582487
 30
0.0
 10
560.004365
 20
519.333551
 30
0.0
 10
560.005653
 20
519.064749
 30
0.0
  0
SPLINE
  5
1bb
100
AcDbEntity
  8
0
 62
7
100
AcDbSpline
 70
8
 71
3
 72
8
 73
4
 74
0
 40
0
 40
0
 40
0
 40
0
 40
1
 40
1
 40
1
 40
1
 10
560.005653
 20
519.064749
 30
0.0
 10
560.004365
 20
518.795946
 30
0.0
 10
560.147031
 20
518.547010
 30
0.0
 10
560.379608
 20
518.412236
 30
0.0
  0
SPLINE
  5
1bc
100
AcDbEntity
  8
0
 62
7
100
AcDbSpline
 70
8
 71
3
 72
8
 73
4
 74
0
 40
0
 40
0
 40
0
 40
0
 40
1
 40
1
 40
1
 40
1
 10
560.379608
 20
518.412236
 30
0.0
 10
560.612185
 20
518.277462
 30
0.0
 10
560.899104
 20
518.277462
 30
0.0
 10
561.131682
 20
518.412236
 30
0.0
  0
SPLINE
  5
1bd
100
AcDbEntity
  8
0
 62
7
100
AcDbSpline
 70
8
 71
3
 72
8
 73
4
 74
0
 40
0
 40
0
 40
0
 40
0
 40
1
 40
1
 40
1
 40
1
 10
561.131682
 20
518.412236
 30
0.0
 10
561.364259
 20
518.547010
 30
0.0
 10
561.506924
 20
518.795946
 30
0.0
 10
561.505636
 20
519.064749
 30
0.0
  0
LWPOLYLINE
  5
1be
100
AcDbEntity
  8
0
 62
7
100
AcDbPolyline
 90
2
 70
1
 10
552.762448
 20
510.551648
 30
0.0
 10
552.762448
 20
510.551648
 30
0.0
  0
SPLINE
  5
1bf
100
AcDbEntity
  8
0
 62
7
100
AcDbSpline
 70
8
 71
3
 72
8
 73
4
 74
0
 40
0
 40
0
 40
0
 40
0
 40
1
 40
1
 40
1
 40
1
 10
568.178075
 20
513.427696
 30
0.0
 10
568.178075
 20
513.695647
 30
0.0
 10
568.035125
 20
513.943244
 30
0.0
 10
567.803072
 20
514.077219
 30
0.0
  0
SPLINE
  5
1c0
100
AcDbEntity
  8
0
 62
7
100
AcDbSpline
 70
8
 71
3
 72
8
 73
4
 74
0
 40
0
 40
0
 40
0
 40
0
 40
1
 40
1
 40
1
 40
1
 10
567.803072
 20
514.077219
 30
0.0
 10
567.571020
 20
514.211195
 30
0.0
 10
567.285119
 20
514.211195
 30
0.0
 10
567.053067
 20
514.077219
 30
0.0
  0
SPLINE
  5
1c1
100
AcDbEntity
  8
0
 62
7
100
AcDbSpline
 70
8
 71
3
 72
8
 73
4
 74
0
 40
0
 40
0
 40
0
 40
0
 40
1
 40
1
 40
1
 40
1
 10
567.053067
 20
514.077219
 30
0.0
 10
566.821014
 20
513.943244
 30
0.0
 10
566.678064
 20
513.695647
 30
0.0
 10
566.678064
 20
513.427696
 30
0.0
  0
SPLINE
  5
1c2
100
AcDbEntity
  8
0
 62
7
100
AcDbSpline
 70
8
 71
3
 72
8
 73
4
 74
0
 40
0
 40
0
 40
0
 40
0
 40
1
 40
1
 40
1
 40
1
 10
566.678064
 20
513.427696
 30
0.0
 10
566.678064
 20
513.159744
 30
0.0
 10
566.821014
 20
512.912147
 30
0.0
 10
567.053067
 20
512.778172
 30
0.0
  0
SPLINE
  5
1c3
100
AcDbEntity
  8
0
 62
7
100
AcDbSpline
 70
8
 71
3
 72
8
 73
4
 74
0
 40
0
 40
0
 40
0
 40
0
 40
1
 40
1
 40
1
 40
1
 10
567.053067
 20
512.778172
 30
0.0
 10
567.285119
 20
512.644196
 30
0.0
 10
567.571020
 20
512.644196
 30
0.0
 10
567.803072
 20
512.778172
 30
0.0
  0
SPLINE
  5
1c4
100
AcDbEntity
  8
0
 62
7
100
AcDbSpline
 70
8
 71
3
 72
8
 73
4
 74
0
 40
0
 40
0
 40
0
 40
0
 40
1
 40
1
 40
1
 40
1
 10
567.803072
 20
512.778172
 30
0.0
 10
568.035125
 20
512.912147
 30
0.0
 10
568.178075
 20
513.159744
 30
0.0
 10
568.178075
 20
513.427696
 30
0.0
  0
LWPOLYLINE
  5
1c5
100
AcDbEntity
  8
0
 62
7
100
AcDbPolyline
 90
2
 70
1
 10
561.505636
 20
519.064749
 30
0.0
 10
561.505636
 20
519.064749
 30
0.0
  0
SPLINE
  5
1c6
100
AcDbEntity
  8
0
 62
7
100
AcDbSpline
 70
8
 71
3
 72
8
 73
4
 74
0
 40
0
 40
0
 40
0
 40
0
 40
1
 40
1
 40
1
 40
1
 10
562.675984
 20
534.652920
 30
0.0
 10
562.676695
 20
535.010659
 30
0.0
 10
562.486252
 20
535.341527
 30
0.0
 10
562.176559
 20
535.520602
 30
0.0
  0
SPLINE
  5
1c7
100
AcDbEntity
  8
0
 62
7
100
AcDbSpline
 70
8
 71
3
 72
8
 73
4
 74
0
 40
0
 40
0
 40
0
 40
0
 40
1
 40
1
 40
1
 40
1
 10
562.176559
 20
535.520602
 30
0.0
 10
561.866867
 20
535.699677
 30
0.0
 10
561.485104
 20
535.699677
 30
0.0
 10
561.175412
 20
535.520602
 30
0.0
  0
SPLINE
  5
1c8
100
AcDbEntity
  8
0
 62
7
100
AcDbSpline
 70
8
 71
3
 72
8
 73
4
 74
0
 40
0
 40
0
 40
0
 40
0
 40
1
 40
1
 40
1
 40
1
 10
561.175412
 20
535.520602
 30
0.0
 10
560.865719
 20
535.341527
 30
0.0
 10
560.675276
 20
535.010659
 30
0.0
 10
560.675988
 20
534.652920
 30
0.0
  0
SPLINE
  5
1c9
100
AcDbEntity
  8
0
 62
7
100
AcDbSpline
 70
8
 71
3
 72
8
 73
4
 74
0
 40
0
 40
0
 40
0
 40
0
 40
1
 40
1
 40
1
 40
1
 10
560.675988
 20
534.652920
 30
0.0
 10
560.675276
 20
534.295182
 30
0.0
 10
560.865719
 20
533.964314
 30
0.0
 10
561.175412
 20
533.785239
 30
0.0
  0
SPLINE
  5
1ca
100
AcDbEntity
  8
0
 62
7
100
AcDbSpline
 70
8
 71
3
 72
8
 73
4
 74
0
 40
0
 40
0
 40
0
 40
0
 40
1
 40
1
 40
1
 40
1
 10
561.175412
 20
533.785239
 30
0.0
 10
561.485104
 20
533.606164
 30
0.0
 10
561.866867
 20
533.606164
 30
0.0
 10
562.176559
 20
533.785239
 30
0.0
  0
SPLINE
  5
1cb
100
AcDbEntity
  8
0
 62
7
100
AcDbSpline
 70
8
 71
3
 72
8
 73
4
 74
0
 40
0
 40
0
 40
0
 40
0
 40
1
 40
1
 40
1
 40
1
 10
562.176559
 20
533.785239
 30
0.0
 10
562.486252
 20
533.964314
 30
0.0
 10
562.676695
 20
534.295182
 30
0.0
 10
562.675984
 20
534.652920
 30
0.0
  0
LWPOLYLINE
  5
1cc
100
AcDbEntity
  8
0
 62
7
100
AcDbPolyline
 90
2
 70
1
 10
568.178075
 20
513.427696
 30
0.0
 10
568.178075
 20
513.427696
 30
0.0
  0
SPLINE
  5
1cd
100
AcDbEntity
  8
0
 62
7
100
AcDbSpline
 70
8
 71
3
 72
8
 73
4
 74
0
 40
0
 40
0
 40
0
 40
0
 40
1
 40
1
 40
1
 40
1
 10
544.902023
 20
519.927561
 30
0.0
 10
544.902023
 20
520.284831
 30
0.0
 10
544.711422
 20
520.614962
 30
0.0
 10
544.402017
 20
520.793597
 30
0.0
  0
SPLINE
  5
1ce
100
AcDbEntity
  8
0
 62
7
100
AcDbSpline
 70
8
 71
3
 72
8
 73
4
 74
0
 40
0
 40
0
 40
0
 40
0
 40
1
 40
1
 40
1
 40
1
 10
544.402017
 20
520.793597
 30
0.0
 10
544.092612
 20
520.972232
 30
0.0
 10
543.711410
 20
520.972232
 30
0.0
 10
543.402005
 20
520.793597
 30
0.0
  0
SPLINE
  5
1cf
100
AcDbEntity
  8
0
 62
7
100
AcDbSpline
 70
8
 71
3
 72
8
 73
4
 74
0
 40
0
 40
0
 40
0
 40
0
 40
1
 40
1
 40
1
 40
1
 10
543.402005
 20
520.793597
 30
0.0
 10
543.092600
 20
520.614962
 30
0.0
 10
542.901999
 20
520.284831
 30
0.0
 10
542.901999
 20
519.927561
 30
0.0
  0
SPLINE
  5
1d0
100
AcDbEntity
  8
0
 62
7
100
AcDbSpline
 70
8
 71
3
 72
8
 73
4
 74
0
 40
0
 40
0
 40
0
 40
0
 40
1
 40
1
 40
1
 40
1
 10
542.901999
 20
519.927561
 30
0.0
 10
542.901999
 20
519.570291
 30
0.0
 10
543.092600
 20
519.240160
 30
0.0
 10
543.402005
 20
519.061525
 30
0.0
  0
SPLINE
  5
1d1
100
AcDbEntity
  8
0
 62
7
100
AcDbSpline
 70
8
 71
3
 72
8
 73
4
 74
0
 40
0
 40
0
 40
0
 40
0
 40
1
 40
1
 40
1
 40
1
 10
543.402005
 20
519.061525
 30
0.0
 10
543.711410
 20
518.882890
 30
0.0
 10
544.092612
 20
518.882890
 30
0.0
 10
544.402017
 20
519.061525
 30
0.0
  0
SPLINE
  5
1d2
100
AcDbEntity
  8
0
 62
7
100
AcDbSpline
 70
8
 71
3
 72
8
 73
4
 74
0
 40
0
 40
0
 40
0
 40
0
 40
1
 40
1
 40
1
 40
1
 10
544.402017
 20
519.061525
 30
0.0
 10
544.711422
 20
519.240160
 30
0.0
 10
544.902023
 20
519.570291
 30
0.0
 10
544.902023
 20
519.927561
 30
0.0
  0
LWPOLYLINE
  5
1d3
100
AcDbEntity
  8
0
 62
7
100
AcDbPolyline
 90
2
 70
1
 10
562.675984
 20
534.652920
 30
0.0
 10
562.675984
 20
534.652920
 30
0.0
  0
SPLINE
  5
1d4
100
AcDbEntity
  8
0
 62
7
100
AcDbSpline
 70
8
 71
3
 72
8
 73
4
 74
0
 40
0
 40
0
 40
0
 40
0
 40
1
 40
1
 40
1
 40
1
 10
583.938803
 20
520.387730
 30
0.0
 10
583.940091
 20
520.656532
 30
0.0
 10
583.797426
 20
520.905469
 30
0.0
 10
583.564849
 20
521.040243
 30
0.0
  0
SPLINE
  5
1d5
100
AcDbEntity
  8
0
 62
7
100
AcDbSpline
 70
8
 71
3
 72
8
 73
4
 74
0
 40
0
 40
0
 40
0
 40
0
 40
1
 40
1
 40
1
 40
1
 10
583.564849
 20
521.040243
 30
0.0
 10
583.332272
 20
521.175017
 30
0.0
 10
583.045352
 20
521.175017
 30
0.0
 10
582.812775
 20
521.040243
 30
0.0
  0
SPLINE
  5
1d6
100
AcDbEntity
  8
0
 62
7
100
AcDbSpline
 70
8
 71
3
 72
8
 73
4
 74
0
 40
0
 40
0
 40
0
 40
0
 40
1
 40
1
 40
1
 40
1
 10
582.812775
 20
521.040243
 30
0.0
 10
582.580198
 20
520.905469
 30
0.0
 10
582.437533
 20
520.656532
 30
0.0
 10
582.438820
 20
520.387730
 30
0.0
  0
SPLINE
  5
1d7
100
AcDbEntity
  8
0
 62
7
100
AcDbSpline
 70
8
 71
3
 72
8
 73
4
 74
0
 40
0
 40
0
 40
0
 40
0
 40
1
 40
1
 40
1
 40
1
 10
582.438820
 20
520.387730
 30
0.0
 10
582.437533
 20
520.118928
 30
0.0
 10
582.580198
 20
519.869992
 30
0.0
 10
582.812775
 20
519.735217
 30
0.0
  0
SPLINE
  5
1d8
100
AcDbEntity
  8
0
 62
7
100
AcDbSpline
 70
8
 71
3
 72
8
 73
4
 74
0
 40
0
 40
0
 40
0
 40
0
 40
1
 40
1
 40
1
 40
1
 10
582.812775
 20
519.735217
 30
0.0
 10
583.045352
 20
519.600443
 30
0.0
 10
583.332272
 20
519.600443
 30
0.0
 10
583.564849
 20
519.735217
 30
0.0
  0
SPLINE
  5
1d9
100
AcDbEntity
  8
0
 62
7
100
AcDbSpline
 70
8
 71
3
 72
8
 73
4
 74
0
 40
0
 40
0
 40
0
 40
0
 40
1
 40
1
 40
1
 40
1
 10
583.564849
 20
519.735217
 30
0.0
 10
583.797426
 20
519.869992
 30
0.0
 10
583.940091
 20
520.118928
 30
0.0
 10
583.938803
 20
520.387730
 30
0.0
  0
LWPOLYLINE
  5
1da
100
AcDbEntity
  8
0
 62
7
100
AcDbPolyline
 90
2
 70
1
 10
544.902023
 20
519.927561
 30
0.0
 10
544.902023
 20
519.927561
 30
0.0
  0
SPLINE
  5
1db
100
AcDbEntity
  8
0
 62
7
100
AcDbSpline
 70
8
 71
3
 72
8
 73
4
 74
0
 40
0
 40
0
 40
0
 40
0
 40
1
 40
1
 40
1
 40
1
 10
571.169151
 20
530.453894
 30
0.0
 10
571.170428
 20
530.722689
 30
0.0
 10
571.027761
 20
530.971614
 30
0.0
 10
570.795188
 20
531.106382
 30
0.0
  0
SPLINE
  5
1dc
100
AcDbEntity
  8
0
 62
7
100
AcDbSpline
 70
8
 71
3
 72
8
 73
4
 74
0
 40
0
 40
0
 40
0
 40
0
 40
1
 40
1
 40
1
 40
1
 10
570.795188
 20
531.106382
 30
0.0
 10
570.562615
 20
531.241150
 30
0.0
 10
570.275704
 20
531.241150
 30
0.0
 10
570.043131
 20
531.106382
 30
0.0
  0
SPLINE
  5
1dd
100
AcDbEntity
  8
0
 62
7
100
AcDbSpline
 70
8
 71
3
 72
8
 73
4
 74
0
 40
0
 40
0
 40
0
 40
0
 40
1
 40
1
 40
1
 40
1
 10
570.043131
 20
531.106382
 30
0.0
 10
569.810558
 20
530.971614
 30
0.0
 10
569.667891
 20
530.722689
 30
0.0
 10
569.669168
 20
530.453894
 30
0.0
  0
SPLINE
  5
1de
100
AcDbEntity
  8
0
 62
7
100
AcDbSpline
 70
8
 71
3
 72
8
 73
4
 74
0
 40
0
 40
0
 40
0
 40
0
 40
1
 40
1
 40
1
 40
1
 10
569.669168
 20
530.453894
 30
0.0
 10
569.667891
 20
530.185099
 30
0.0
 10
569.810558
 20
529.936174
 30
0.0
 10
570.043131
 20
529.801406
 30
0.0
  0
SPLINE
  5
1df
100
AcDbEntity
  8
0
 62
7
100
AcDbSpline
 70
8
 71
3
 72
8
 73
4
 74
0
 40
0
 40
0
 40
0
 40
0
 40
1
 40
1
 40
1
 40
1
 10
570.043131
 20
529.801406
 30
0.0
 10
570.275704
 20
529.666639
 30
0.0
 10
570.562615
 20
529.666639
 30
0.0
 10
570.795188
 20
529.801406
 30
0.0
  0
SPLINE
  5
1e0
100
AcDbEntity
  8
0
 62
7
100
AcDbSpline
 70
8
 71
3
 72
8
 73
4
 74
0
 40
0
 40
0
 40
0
 40
0
 40
1
 40
1
 40
1
 40
1
 10
570.795188
 20
529.801406
 30
0.0
 10
571.027761
 20
529.936174
 30
0.0
 10
571.170428
 20
530.185099
 30
0.0
 10
571.169151
 20
530.453894
 30
0.0
  0
LWPOLYLINE
  5
1e1
100
AcDbEntity
  8
0
 62
7
100
AcDbPolyline
 90
2
 70
1
 10
583.938803
 20
520.387730
 30
0.0
 10
583.938803
 20
520.387730
 30
0.0
  0
SPLINE
  5
1e2
100
AcDbEntity
  8
0
 62
7
100
AcDbSpline
 70
8
 71
3
 72
8
 73
4
 74
0
 40
0
 40
0
 40
0
 40
0
 40
1
 40
1
 40
1
 40
1
 10
596.075714
 20
499.967798
 30
0.0
 10
596.077001
 20
500.236600
 30
0.0
 10
595.934336
 20
500.485537
 30
0.0
 10
595.701759
 20
500.620311
 30
0.0
  0
SPLINE
  5
1e3
100
AcDbEntity
  8
0
 62
7
100
AcDbSpline
 70
8
 71
3
 72
8
 73
4
 74
0
 40
0
 40
0
 40
0
 40
0
 40
1
 40
1
 40
1
 40
1
 10
595.701759
 20
500.620311
 30
0.0
 10
595.469182
 20
500.755085
 30
0.0
 10
595.182262
 20
500.755085
 30
0.0
 10
594.949685
 20
500.620311
 30
0.0
  0
SPLINE
  5
1e4
100
AcDbEntity
  8
0
 62
7
100
AcDbSpline
 70
8
 71
3
 72
8
 73
4
 74
0
 40
0
 40
0
 40
0
 40
0
 40
1
 40
1
 40
1
 40
1
 10
594.949685
 20
500.620311
 30
0.0
 10
594.717108
 20
500.485537
 30
0.0
 10
594.574443
 20
500.236600
 30
0.0
 10
594.575731
 20
499.967798
 30
0.0
  0
SPLINE
  5
1e5
100
AcDbEntity
  8
0
 62
7
100
AcDbSpline
 70
8
 71
3
 72
8
 73
4
 74
0
 40
0
 40
0
 40
0
 40
0
 40
1
 40
1
 40
1
 40
1
 10
594.575731
 20
499.967798
 30
0.0
 10
594.574443
 20
499.698996
 30
0.0
 10
594.717108
 20
499.450060
 30
0.0
 10
594.949685
 20
499.315285
 30
0.0
  0
SPLINE
  5
1e6
100
AcDbEntity
  8
0
 62
7
100
AcDbSpline
 70
8
 71
3
 72
8
 73
4
 74
0
 40
0
 40
0
 40
0
 40
0
 40
1
 40
1
 40
1
 40
1
 10
594.949685
 20
499.315285
 30
0.0
 10
595.182262
 20
499.180511
 30
0.0
 10
595.469182
 20
499.180511
 30
0.0
 10
595.701759
 20
499.315285
 30
0.0
  0
SPLINE
  5
1e7
100
AcDbEntity
  8
0
 62
7
100
AcDbSpline
 70
8
 71
3
 72
8
 73
4
 74
0
 40
0
 40
0
 40
0
 40
0
 40
1
 40
1
 40
1
 40
1
 10
595.701759
 20
499.315285
 30
0.0
 10
595.934336
 20
499.450060
 30
0.0
 10
596.077001
 20
499.698996
 30
0.0
 10
596.075714
 20
499.967798
 30
0.0
  0
LWPOLYLINE
  5
1e8
100
AcDbEntity
  8
0
 62
7
100
AcDbPolyline
 90
2
 70
1
 10
571.169151
 20
530.453894
 30
0.0
 10
571.169151
 20
530.453894
 30
0.0
  0
SPLINE
  5
1e9
100
AcDbEntity
  8
0
 62
7
100
AcDbSpline
 70
8
 71
3
 72
8
 73
4
 74
0
 40
0
 40
0
 40
0
 40
0
 40
1
 40
1
 40
1
 40
1
 10
581.255237
 20
477.707196
 30
0.0
 10
581.255948
 20
478.064934
 30
0.0
 10
581.065505
 20
478.395803
 30
0.0
 10
580.755813
 20
478.574877
 30
0.0
  0
SPLINE
  5
1ea
100
AcDbEntity
  8
0
 62
7
100
AcDbSpline
 70
8
 71
3
 72
8
 73
4
 74
0
 40
0
 40
0
 40
0
 40
0
 40
1
 40
1
 40
1
 40
1
 10
580.755813
 20
478.574877
 30
0.0
 10
580.446120
 20
478.753952
 30
0.0
 10
580.064358
 20
478.753952
 30
0.0
 10
579.754665
 20
478.574877
 30
0.0
  0
SPLINE
  5
1eb
100
AcDbEntity
  8
0
 62
7
100
AcDbSpline
 70
8
 71
3
 72
8
 73
4
 74
0
 40
0
 40
0
 40
0
 40
0
 40
1
 40
1
 40
1
 40
1
 10
579.754665
 20
478.574877
 30
0.0
 10
579.444973
 20
478.395803
 30
0.0
 10
579.254530
 20
478.064934
 30
0.0
 10
579.255241
 20
477.707196
 30
0.0
  0
SPLINE
  5
1ec
100
AcDbEntity
  8
0
 62
7
100
AcDbSpline
 70
8
 71
3
 72
8
 73
4
 74
0
 40
0
 40
0
 40
0
 40
0
 40
1
 40
1
 40
1
 40
1
 10
579.255241
 20
477.707196
 30
0.0
 10
579.254530
 20
477.349457
 30
0.0
 10
579.444973
 20
477.018589
 30
0.0
 10
579.754665
 20
476.839514
 30
0.0
  0
SPLINE
  5
1ed
100
AcDbEntity
  8
0
 62
7
100
AcDbSpline
 70
8
 71
3
 72
8
 73
4
 74
0
 40
0
 40
0
 40
0
 40
0
 40
1
 40
1
 40
1
 40
1
 10
579.754665
 20
476.839514
 30
0.0
 10
580.064358
 20
476.660439
 30
0.0
 10
580.446120
 20
476.660439
 30
0.0
 10
580.755813
 20
476.839514
 30
0.0
  0
SPLINE
  5
1ee
100
AcDbEntity
  8
0
 62
7
100
AcDbSpline
 70
8
 71
3
 72
8
 73
4
 74
0
 40
0
 40
0
 40
0
 40
0
 40
1
 40
1
 40
1
 40
1
 10
580.755813
 20
476.839514
 30
0.0
 10
581.065505
 20
477.018589
 30
0.0
 10
581.255948
 20
477.349457
 30
0.0
 10
581.255237
 20
477.707196
 30
0.0
  0
LWPOLYLINE
  5
1ef
100
AcDbEntity
  8
0
 62
7
100
AcDbPolyline
 90
2
 70
1
 10
596.075714
 20
499.967798
 30
0.0
 10
596.075714
 20
499.967798
 30
0.0
  0
SPLINE
  5
1f0
100
AcDbEntity
  8
0
 62
7
100
AcDbSpline
 70
8
 71
3
 72
8
 73
4
 74
0
 40
0
 40
0
 40
0
 40
0
 40
1
 40
1
 40
1
 40
1
 10
607.964861
 20
482.826557
 30
0.0
 10
607.966615
 20
483.274303
 30
0.0
 10
607.728753
 20
483.688789
 30
0.0
 10
607.341284
 20
483.913170
 30
0.0
  0
SPLINE
  5
1f1
100
AcDbEntity
  8
0
 62
7
100
AcDbSpline
 70
8
 71
3
 72
8
 73
4
 74
0
 40
0
 40
0
 40
0
 40
0
 40
1
 40
1
 40
1
 40
1
 10
607.341284
 20
483.913170
 30
0.0
 10
606.953815
 20
484.137550
 30
0.0
 10
606.475926
 20
484.137550
 30
0.0
 10
606.088457
 20
483.913170
 30
0.0
  0
SPLINE
  5
1f2
100
AcDbEntity
  8
0
 62
7
100
AcDbSpline
 70
8
 71
3
 72
8
 73
4
 74
0
 40
0
 40
0
 40
0
 40
0
 40
1
 40
1
 40
1
 40
1
 10
606.088457
 20
483.913170
 30
0.0
 10
605.700988
 20
483.688789
 30
0.0
 10
605.463126
 20
483.274303
 30
0.0
 10
605.464880
 20
482.826557
 30
0.0
  0
SPLINE
  5
1f3
100
AcDbEntity
  8
0
 62
7
100
AcDbSpline
 70
8
 71
3
 72
8
 73
4
 74
0
 40
0
 40
0
 40
0
 40
0
 40
1
 40
1
 40
1
 40
1
 10
605.464880
 20
482.826557
 30
0.0
 10
605.463126
 20
482.378812
 30
0.0
 10
605.700988
 20
481.964326
 30
0.0
 10
606.088457
 20
481.739945
 30
0.0
  0
SPLINE
  5
1f4
100
AcDbEntity
  8
0
 62
7
100
AcDbSpline
 70
8
 71
3
 72
8
 73
4
 74
0
 40
0
 40
0
 40
0
 40
0
 40
1
 40
1
 40
1
 40
1
 10
606.088457
 20
481.739945
 30
0.0
 10
606.475926
 20
481.515564
 30
0.0
 10
606.953815
 20
481.515564
 30
0.0
 10
607.341284
 20
481.739945
 30
0.0
  0
SPLINE
  5
1f5
100
AcDbEntity
  8
0
 62
7
100
AcDbSpline
 70
8
 71
3
 72
8
 73
4
 74
0
 40
0
 40
0
 40
0
 40
0
 40
1
 40
1
 40
1
 40
1
 10
607.341284
 20
481.739945
 30
0.0
 10
607.728753
 20
481.964326
 30
0.0
 10
607.966615
 20
482.378812
 30
0.0
 10
607.964861
 20
482.826557
 30
0.0
  0
LWPOLYLINE
  5
1f6
100
AcDbEntity
  8
0
 62
7
100
AcDbPolyline
 90
2
 70
1
 10
581.255237
 20
477.707196
 30
0.0
 10
581.255237
 20
477.707196
 30
0.0
  0
SPLINE
  5
1f7
100
AcDbEntity
  8
0
 62
7
100
AcDbSpline
 70
8
 71
3
 72
8
 73
4
 74
0
 40
0
 40
0
 40
0
 40
0
 40
1
 40
1
 40
1
 40
1
 10
542.391007
 20
482.021264
 30
0.0
 10
542.391007
 20
482.467848
 30
0.0
 10
542.152758
 20
482.880508
 30
0.0
 10
541.766005
 20
483.103800
 30
0.0
  0
SPLINE
  5
1f8
100
AcDbEntity
  8
0
 62
7
100
AcDbSpline
 70
8
 71
3
 72
8
 73
4
 74
0
 40
0
 40
0
 40
0
 40
0
 40
1
 40
1
 40
1
 40
1
 10
541.766005
 20
483.103800
 30
0.0
 10
541.379252
 20
483.327092
 30
0.0
 10
540.902753
 20
483.327092
 30
0.0
 10
540.516000
 20
483.103800
 30
0.0
  0
SPLINE
  5
1f9
100
AcDbEntity
  8
0
 62
7
100
AcDbSpline
 70
8
 71
3
 72
8
 73
4
 74
0
 40
0
 40
0
 40
0
 40
0
 40
1
 40
1
 40
1
 40
1
 10
540.516000
 20
483.103800
 30
0.0
 10
540.129248
 20
482.880508
 30
0.0
 10
539.890998
 20
482.467848
 30
0.0
 10
539.890998
 20
482.021264
 30
0.0
  0
SPLINE
  5
1fa
100
AcDbEntity
  8
0
 62
7
100
AcDbSpline
 70
8
 71
3
 72
8
 73
4
 74
0
 40
0
 40
0
 40
0
 40
0
 40
1
 40
1
 40
1
 40
1
 10
539.890998
 20
482.021264
 30
0.0
 10
539.890998
 20
481.574681
 30
0.0
 10
540.129248
 20
481.162020
 30
0.0
 10
540.516000
 20
480.938729
 30
0.0
  0
SPLINE
  5
1fb
100
AcDbEntity
  8
0
 62
7
100
AcDbSpline
 70
8
 71
3
 72
8
 73
4
 74
0
 40
0
 40
0
 40
0
 40
0
 40
1
 40
1
 40
1
 40
1
 10
540.516000
 20
480.938729
 30
0.0
 10
540.902753
 20
480.715437
 30
0.0
 10
541.379252
 20
480.715437
 30
0.0
 10
541.766005
 20
480.938729
 30
0.0
  0
SPLINE
  5
1fc
100
AcDbEntity
  8
0
 62
7
100
AcDbSpline
 70
8
 71
3
 72
8
 73
4
 74
0
 40
0
 40
0
 40
0
 40
0
 40
1
 40
1
 40
1
 40
1
 10
541.766005
 20
480.938729
 30
0.0
 10
542.152758
 20
481.162020
 30
0.0
 10
542.391007
 20
481.574681
 30
0.0
 10
542.391007
 20
482.021264
 30
0.0
  0
LWPOLYLINE
  5
1fd
100
AcDbEntity
  8
0
 62
7
100
AcDbPolyline
 90
2
 70
1
 10
607.964861
 20
482.826557
 30
0.0
 10
607.964861
 20
482.826557
 30
0.0
  0
SPLINE
  5
1fe
100
AcDbEntity
  8
0
 62
7
100
AcDbSpline
 70
8
 71
3
 72
8
 73
4
 74
0
 40
0
 40
0
 40
0
 40
0
 40
1
 40
1
 40
1
 40
1
 10
557.019008
 20
497.551917
 30
0.0
 10
557.020296
 20
497.820719
 30
0.0
 10
556.877631
 20
498.069655
 30
0.0
 10
556.645054
 20
498.204429
 30
0.0
  0
SPLINE
  5
1ff
100
AcDbEntity
  8
0
 62
7
100
AcDbSpline
 70
8
 71
3
 72
8
 73
4
 74
0
 40
0
 40
0
 40
0
 40
0
 40
1
 40
1
 40
1
 40
1
 10
556.645054
 20
498.204429
 30
0.0
 10
556.412477
 20
498.339203
 30
0.0
 10
556.125557
 20
498.339203
 30
0.0
 10
555.892980
 20
498.204429
 30
0.0
  0
SPLINE
  5
200
100
AcDbEntity
  8
0
 62
7
100
AcDbSpline
 70
8
 71
3
 72
8
 73
4
 74
0
 40
0
 40
0
 40
0
 40
0
 40
1
 40
1
 40
1
 40
1
 10
555.892980
 20
498.204429
 30
0.0
 10
555.660403
 20
498.069655
 30
0.0
 10
555.517738
 20
497.820719
 30
0.0
 10
555.519026
 20
497.551917
 30
0.0
  0
SPLINE
  5
201
100
AcDbEntity
  8
0
 62
7
100
AcDbSpline
 70
8
 71
3
 72
8
 73
4
 74
0
 40
0
 40
0
 40
0
 40
0
 40
1
 40
1
 40
1
 40
1
 10
555.519026
 20
497.551917
 30
0.0
 10
555.517738
 20
497.283114
 30
0.0
 10
555.660403
 20
497.034178
 30
0.0
 10
555.892980
 20
496.899404
 30
0.0
  0
SPLINE
  5
202
100
AcDbEntity
  8
0
 62
7
100
AcDbSpline
 70
8
 71
3
 72
8
 73
4
 74
0
 40
0
 40
0
 40
0
 40
0
 40
1
 40
1
 40
1
 40
1
 10
555.892980
 20
496.899404
 30
0.0
 10
556.125557
 20
496.764630
 30
0.0
 10
556.412477
 20
496.764630
 30
0.0
 10
556.645054
 20
496.899404
 30
0.0
  0
SPLINE
  5
203
100
AcDbEntity
  8
0
 62
7
100
AcDbSpline
 70
8
 71
3
 72
8
 73
4
 74
0
 40
0
 40
0
 40
0
 40
0
 40
1
 40
1
 40
1
 40
1
 10
556.645054
 20
496.899404
 30
0.0
 10
556.877631
 20
497.034178
 30
0.0
 10
557.020296
 20
497.283114
 30
0.0
 10
557.019008
 20
497.551917
 30
0.0
  0
LWPOLYLINE
  5
204
100
AcDbEntity
  8
0
 62
7
100
AcDbPolyline
 90
2
 70
1
 10
542.391007
 20
482.021264
 30
0.0
 10
542.391007
 20
482.021264
 30
0.0
  0
SPLINE
  5
205
100
AcDbEntity
  8
0
 62
7
100
AcDbSpline
 70
8
 71
3
 72
8
 73
4
 74
0
 40
0
 40
0
 40
0
 40
0
 40
1
 40
1
 40
1
 40
1
 10
611.128516
 20
544.834127
 30
0.0
 10
611.130270
 20
545.281872
 30
0.0
 10
610.892408
 20
545.696358
 30
0.0
 10
610.504938
 20
545.920739
 30
0.0
  0
SPLINE
  5
206
100
AcDbEntity
  8
0
 62
7
100
AcDbSpline
 70
8
 71
3
 72
8
 73
4
 74
0
 40
0
 40
0
 40
0
 40
0
 40
1
 40
1
 40
1
 40
1
 10
610.504938
 20
545.920739
 30
0.0
 10
610.117469
 20
546.145120
 30
0.0
 10
609.639581
 20
546.145120
 30
0.0
 10
609.252112
 20
545.920739
 30
0.0
  0
SPLINE
  5
207
100
AcDbEntity
  8
0
 62
7
100
AcDbSpline
 70
8
 71
3
 72
8
 73
4
 74
0
 40
0
 40
0
 40
0
 40
0
 40
1
 40
1
 40
1
 40
1
 10
609.252112
 20
545.920739
 30
0.0
 10
608.864643
 20
545.696358
 30
0.0
 10
608.626780
 20
545.281872
 30
0.0
 10
608.628535
 20
544.834127
 30
0.0
  0
SPLINE
  5
208
100
AcDbEntity
  8
0
 62
7
100
AcDbSpline
 70
8
 71
3
 72
8
 73
4
 74
0
 40
0
 40
0
 40
0
 40
0
 40
1
 40
1
 40
1
 40
1
 10
608.628535
 20
544.834127
 30
0.0
 10
608.626780
 20
544.386381
 30
0.0
 10
608.864643
 20
543.971895
 30
0.0
 10
609.252112
 20
543.747514
 30
0.0
  0
SPLINE
  5
209
100
AcDbEntity
  8
0
 62
7
100
AcDbSpline
 70
8
 71
3
 72
8
 73
4
 74
0
 40
0
 40
0
 40
0
 40
0
 40
1
 40
1
 40
1
 40
1
 10
609.252112
 20
543.747514
 30
0.0
 10
609.639581
 20
543.523134
 30
0.0
 10
610.117469
 20
543.523134
 30
0.0
 10
610.504938
 20
543.747514
 30
0.0
  0
SPLINE
  5
20a
100
AcDbEntity
  8
0
 62
7
100
AcDbSpline
 70
8
 71
3
 72
8
 73
4
 74
0
 40
0
 40
0
 40
0
 40
0
 40
1
 40
1
 40
1
 40
1
 10
610.504938
 20
543.747514
 30
0.0
 10
610.892408
 20
543.971895
 30
0.0
 10
611.130270
 20
544.386381
 30
0.0
 10
611.128516
 20
544.834127
 30
0.0
  0
LWPOLYLINE
  5
20b
100
AcDbEntity
  8
0
 62
7
100
AcDbPolyline
 90
2
 70
1
 10
557.019008
 20
497.551917
 30
0.0
 10
557.019008
 20
497.551917
 30
0.0
  0
SPLINE
  5
20c
100
AcDbEntity
  8
0
 62
7
100
AcDbSpline
 70
8
 71
3
 72
8
 73
4
 74
0
 40
0
 40
0
 40
0
 40
0
 40
1
 40
1
 40
1
 40
1
 10
545.554662
 20
531.272149
 30
0.0
 10
545.554662
 20
531.718733
 30
0.0
 10
545.316412
 20
532.131393
 30
0.0
 10
544.929660
 20
532.354685
 30
0.0
  0
SPLINE
  5
20d
100
AcDbEntity
  8
0
 62
7
100
AcDbSpline
 70
8
 71
3
 72
8
 73
4
 74
0
 40
0
 40
0
 40
0
 40
0
 40
1
 40
1
 40
1
 40
1
 10
544.929660
 20
532.354685
 30
0.0
 10
544.542907
 20
532.577977
 30
0.0
 10
544.066408
 20
532.577977
 30
0.0
 10
543.679655
 20
532.354685
 30
0.0
  0
SPLINE
  5
20e
100
AcDbEntity
  8
0
 62
7
100
AcDbSpline
 70
8
 71
3
 72
8
 73
4
 74
0
 40
0
 40
0
 40
0
 40
0
 40
1
 40
1
 40
1
 40
1
 10
543.679655
 20
532.354685
 30
0.0
 10
543.292902
 20
532.131393
 30
0.0
 10
543.054653
 20
531.718733
 30
0.0
 10
543.054653
 20
531.272149
 30
0.0
  0
SPLINE
  5
20f
100
AcDbEntity
  8
0
 62
7
100
AcDbSpline
 70
8
 71
3
 72
8
 73
4
 74
0
 40
0
 40
0
 40
0
 40
0
 40
1
 40
1
 40
1
 40
1
 10
543.054653
 20
531.272149
 30
0.0
 10
543.054653
 20
530.825566
 30
0.0
 10
543.292902
 20
530.412906
 30
0.0
 10
543.679655
 20
530.189614
 30
0.0
  0
SPLINE
  5
210
100
AcDbEntity
  8
0
 62
7
100
AcDbSpline
 70
8
 71
3
 72
8
 73
4
 74
0
 40
0
 40
0
 40
0
 40
0
 40
1
 40
1
 40
1
 40
1
 10
543.679655
 20
530.189614
 30
0.0
 10
544.066408
 20
529.966322
 30
0.0
 10
544.542907
 20
529.966322
 30
0.0
 10
544.929660
 20
530.189614
 30
0.0
  0
SPLINE
  5
211
100
AcDbEntity
  8
0
 62
7
100
AcDbSpline
 70
8
 71
3
 72
8
 73
4
 74
0
 40
0
 40
0
 40
0
 40
0
 40
1
 40
1
 40
1
 40
1
 10
544.929660
 20
530.189614
 30
0.0
 10
545.316412
 20
530.412906
 30
0.0
 10
545.554662
 20
530.825566
 30
0.0
 10
545.554662
 20
531.272149
 30
0.0
  0
LWPOLYLINE
  5
212
100
AcDbEntity
  8
0
 62
7
100
AcDbPolyline
 90
2
 70
1
 10
611.128516
 20
544.834127
 30
0.0
 10
611.128516
 20
544.834127
 30
0.0
  0
SPLINE
  5
213
100
AcDbEntity
  8
0
 62
7
100
AcDbSpline
 70
8
 71
3
 72
8
 73
4
 74
0
 40
0
 40
0
 40
0
 40
0
 40
1
 40
1
 40
1
 40
1
 10
568.120558
 20
492.087428
 30
0.0
 10
568.120558
 20
492.355379
 30
0.0
 10
567.977608
 20
492.602977
 30
0.0
 10
567.745555
 20
492.736952
 30
0.0
  0
SPLINE
  5
214
100
AcDbEntity
  8
0
 62
7
100
AcDbSpline
 70
8
 71
3
 72
8
 73
4
 74
0
 40
0
 40
0
 40
0
 40
0
 40
1
 40
1
 40
1
 40
1
 10
567.745555
 20
492.736952
 30
0.0
 10
567.513503
 20
492.870928
 30
0.0
 10
567.227602
 20
492.870928
 30
0.0
 10
566.995550
 20
492.736952
 30
0.0
  0
SPLINE
  5
215
100
AcDbEntity
  8
0
 62
7
100
AcDbSpline
 70
8
 71
3
 72
8
 73
4
 74
0
 40
0
 40
0
 40
0
 40
0
 40
1
 40
1
 40
1
 40
1
 10
566.995550
 20
492.736952
 30
0.0
 10
566.763497
 20
492.602977
 30
0.0
 10
566.620547
 20
492.355379
 30
0.0
 10
566.620547
 20
492.087428
 30
0.0
  0
SPLINE
  5
216
100
AcDbEntity
  8
0
 62
7
100
AcDbSpline
 70
8
 71
3
 72
8
 73
4
 74
0
 40
0
 40
0
 40
0
 40
0
 40
1
 40
1
 40
1
 40
1
 10
566.620547
 20
492.087428
 30
0.0
 10
566.620547
 20
491.819477
 30
0.0
 10
566.763497
 20
491.571880
 30
0.0
 10
566.995550
 20
491.437904
 30
0.0
  0
SPLINE
  5
217
100
AcDbEntity
  8
0
 62
7
100
AcDbSpline
 70
8
 71
3
 72
8
 73
4
 74
0
 40
0
 40
0
 40
0
 40
0
 40
1
 40
1
 40
1
 40
1
 10
566.995550
 20
491.437904
 30
0.0
 10
567.227602
 20
491.303929
 30
0.0
 10
567.513503
 20
491.303929
 30
0.0
 10
567.745555
 20
491.437904
 30
0.0
  0
SPLINE
  5
218
100
AcDbEntity
  8
0
 62
7
100
AcDbSpline
 70
8
 71
3
 72
8
 73
4
 74
0
 40
0
 40
0
 40
0
 40
0
 40
1
 40
1
 40
1
 40
1
 10
567.745555
 20
491.437904
 30
0.0
 10
567.977608
 20
491.571880
 30
0.0
 10
568.120558
 20
491.819477
 30
0.0
 10
568.120558
 20
492.087428
 30
0.0
  0
LWPOLYLINE
  5
219
100
AcDbEntity
  8
0
 62
7
100
AcDbPolyline
 90
2
 70
1
 10
545.554662
 20
531.272149
 30
0.0
 10
545.554662
 20
531.272149
 30
0.0
  0
SPLINE
  5
21a
100
AcDbEntity
  8
0
 62
7
100
AcDbSpline
 70
8
 71
3
 72
8
 73
4
 74
0
 40
0
 40
0
 40
0
 40
0
 40
1
 40
1
 40
1
 40
1
 10
553.554646
 20
546.272150
 30
0.0
 10
553.556400
 20
546.719896
 30
0.0
 10
553.318538
 20
547.134382
 30
0.0
 10
552.931069
 20
547.358763
 30
0.0
  0
SPLINE
  5
21b
100
AcDbEntity
  8
0
 62
7
100
AcDbSpline
 70
8
 71
3
 72
8
 73
4
 74
0
 40
0
 40
0
 40
0
 40
0
 40
1
 40
1
 40
1
 40
1
 10
552.931069
 20
547.358763
 30
0.0
 10
552.543600
 20
547.583144
 30
0.0
 10
552.065711
 20
547.583144
 30
0.0
 10
551.678242
 20
547.358763
 30
0.0
  0
SPLINE
  5
21c
100
AcDbEntity
  8
0
 62
7
100
AcDbSpline
 70
8
 71
3
 72
8
 73
4
 74
0
 40
0
 40
0
 40
0
 40
0
 40
1
 40
1
 40
1
 40
1
 10
551.678242
 20
547.358763
 30
0.0
 10
551.290773
 20
547.134382
 30
0.0
 10
551.052911
 20
546.719896
 30
0.0
 10
551.054665
 20
546.272150
 30
0.0
  0
SPLINE
  5
21d
100
AcDbEntity
  8
0
 62
7
100
AcDbSpline
 70
8
 71
3
 72
8
 73
4
 74
0
 40
0
 40
0
 40
0
 40
0
 40
1
 40
1
 40
1
 40
1
 10
551.054665
 20
546.272150
 30
0.0
 10
551.052911
 20
545.824405
 30
0.0
 10
551.290773
 20
545.409919
 30
0.0
 10
551.678242
 20
545.185538
 30
0.0
  0
SPLINE
  5
21e
100
AcDbEntity
  8
0
 62
7
100
AcDbSpline
 70
8
 71
3
 72
8
 73
4
 74
0
 40
0
 40
0
 40
0
 40
0
 40
1
 40
1
 40
1
 40
1
 10
551.678242
 20
545.185538
 30
0.0
 10
552.065711
 20
544.961157
 30
0.0
 10
552.543600
 20
544.961157
 30
0.0
 10
552.931069
 20
545.185538
 30
0.0
  0
SPLINE
  5
21f
100
AcDbEntity
  8
0
 62
7
100
AcDbSpline
 70
8
 71
3
 72
8
 73
4
 74
0
 40
0
 40
0
 40
0
 40
0
 40
1
 40
1
 40
1
 40
1
 10
552.931069
 20
545.185538
 30
0.0
 10
553.318538
 20
545.409919
 30
0.0
 10
553.556400
 20
545.824405
 30
0.0
 10
553.554646
 20
546.272150
 30
0.0
  0
LWPOLYLINE
  5
220
100
AcDbEntity
  8
0
 62
7
100
AcDbPolyline
 90
2
 70
1
 10
568.120558
 20
492.087428
 30
0.0
 10
568.120558
 20
492.087428
 30
0.0
  0
SPLINE
  5
221
100
AcDbEntity
  8
0
 62
7
100
AcDbSpline
 70
8
 71
3
 72
8
 73
4
 74
0
 40
0
 40
0
 40
0
 40
0
 40
1
 40
1
 40
1
 40
1
 10
579.664576
 20
532.927292
 30
0.0
 10
579.664576
 20
533.373876
 30
0.0
 10
579.426326
 20
533.786536
 30
0.0
 10
579.039574
 20
534.009828
 30
0.0
  0
SPLINE
  5
222
100
AcDbEntity
  8
0
 62
7
100
AcDbSpline
 70
8
 71
3
 72
8
 73
4
 74
0
 40
0
 40
0
 40
0
 40
0
 40
1
 40
1
 40
1
 40
1
 10
579.039574
 20
534.009828
 30
0.0
 10
578.652821
 20
534.233120
 30
0.0
 10
578.176322
 20
534.233120
 30
0.0
 10
577.789569
 20
534.009828
 30
0.0
  0
SPLINE
  5
223
100
AcDbEntity
  8
0
 62
7
100
AcDbSpline
 70
8
 71
3
 72
8
 73
4
 74
0
 40
0
 40
0
 40
0
 40
0
 40
1
 40
1
 40
1
 40
1
 10
577.789569
 20
534.009828
 30
0.0
 10
577.402816
 20
533.786536
 30
0.0
 10
577.164567
 20
533.373876
 30
0.0
 10
577.164567
 20
532.927292
 30
0.0
  0
SPLINE
  5
224
100
AcDbEntity
  8
0
 62
7
100
AcDbSpline
 70
8
 71
3
 72
8
 73
4
 74
0
 40
0
 40
0
 40
0
 40
0
 40
1
 40
1
 40
1
 40
1
 10
577.164567
 20
532.927292
 30
0.0
 10
577.164567
 20
532.480709
 30
0.0
 10
577.402816
 20
532.068049
 30
0.0
 10
577.789569
 20
531.844757
 30
0.0
  0
SPLINE
  5
225
100
AcDbEntity
  8
0
 62
7
100
AcDbSpline
 70
8
 71
3
 72
8
 73
4
 74
0
 40
0
 40
0
 40
0
 40
0
 40
1
 40
1
 40
1
 40
1
 10
577.789569
 20
531.844757
 30
0.0
 10
578.176322
 20
531.621465
 30
0.0
 10
578.652821
 20
531.621465
 30
0.0
 10
579.039574
 20
531.844757
 30
0.0
  0
SPLINE
  5
226
100
AcDbEntity
  8
0
 62
7
100
AcDbSpline
 70
8
 71
3
 72
8
 73
4
 74
0
 40
0
 40
0
 40
0
 40
0
 40
1
 40
1
 40
1
 40
1
 10
579.039574
 20
531.844757
 30
0.0
 10
579.426326
 20
532.068049
 30
0.0
 10
579.664576
 20
532.480709
 30
0.0
 10
579.664576
 20
532.927292
 30
0.0
  0
LWPOLYLINE
  5
227
100
AcDbEntity
  8
0
 62
7
100
AcDbPolyline
 90
2
 70
1
 10
553.554646
 20
546.272150
 30
0.0
 10
553.554646
 20
546.272150
 30
0.0
  0
SPLINE
  5
228
100
AcDbEntity
  8
0
 62
7
100
AcDbSpline
 70
8
 71
3
 72
8
 73
4
 74
0
 40
0
 40
0
 40
0
 40
0
 40
1
 40
1
 40
1
 40
1
 10
571.439068
 20
545.121731
 30
0.0
 10
571.440823
 20
545.569476
 30
0.0
 10
571.202960
 20
545.983963
 30
0.0
 10
570.815491
 20
546.208343
 30
0.0
  0
SPLINE
  5
229
100
AcDbEntity
  8
0
 62
7
100
AcDbSpline
 70
8
 71
3
 72
8
 73
4
 74
0
 40
0
 40
0
 40
0
 40
0
 40
1
 40
1
 40
1
 40
1
 10
570.815491
 20
546.208343
 30
0.0
 10
570.428022
 20
546.432724
 30
0.0
 10
569.950133
 20
546.432724
 30
0.0
 10
569.562664
 20
546.208343
 30
0.0
  0
SPLINE
  5
22a
100
AcDbEntity
  8
0
 62
7
100
AcDbSpline
 70
8
 71
3
 72
8
 73
4
 74
0
 40
0
 40
0
 40
0
 40
0
 40
1
 40
1
 40
1
 40
1
 10
569.562664
 20
546.208343
 30
0.0
 10
569.175195
 20
545.983963
 30
0.0
 10
568.937333
 20
545.569476
 30
0.0
 10
568.939087
 20
545.121731
 30
0.0
  0
SPLINE
  5
22b
100
AcDbEntity
  8
0
 62
7
100
AcDbSpline
 70
8
 71
3
 72
8
 73
4
 74
0
 40
0
 40
0
 40
0
 40
0
 40
1
 40
1
 40
1
 40
1
 10
568.939087
 20
545.121731
 30
0.0
 10
568.937333
 20
544.673986
 30
0.0
 10
569.175195
 20
544.259499
 30
0.0
 10
569.562664
 20
544.035118
 30
0.0
  0
SPLINE
  5
22c
100
AcDbEntity
  8
0
 62
7
100
AcDbSpline
 70
8
 71
3
 72
8
 73
4
 74
0
 40
0
 40
0
 40
0
 40
0
 40
1
 40
1
 40
1
 40
1
 10
569.562664
 20
544.035118
 30
0.0
 10
569.950133
 20
543.810738
 30
0.0
 10
570.428022
 20
543.810738
 30
0.0
 10
570.815491
 20
544.035118
 30
0.0
  0
SPLINE
  5
22d
100
AcDbEntity
  8
0
 62
7
100
AcDbSpline
 70
8
 71
3
 72
8
 73
4
 74
0
 40
0
 40
0
 40
0
 40
0
 40
1
 40
1
 40
1
 40
1
 10
570.815491
 20
544.035118
 30
0.0
 10
571.202960
 20
544.259499
 30
0.0
 10
571.440823
 20
544.673986
 30
0.0
 10
571.439068
 20
545.121731
 30
0.0
  0
LWPOLYLINE
  5
22e
100
AcDbEntity
  8
0
 62
7
100
AcDbPolyline
 90
2
 70
1
 10
579.664576
 20
532.927292
 30
0.0
 10
579.664576
 20
532.927292
 30
0.0
  0
SPLINE
  5
22f
100
AcDbEntity
  8
0
 62
7
100
AcDbSpline
 70
8
 71
3
 72
8
 73
4
 74
0
 40
0
 40
0
 40
0
 40
0
 40
1
 40
1
 40
1
 40
1
 10
557.134042
 20
550.931346
 30
0.0
 10
557.135319
 20
551.200141
 30
0.0
 10
556.992652
 20
551.449066
 30
0.0
 10
556.760079
 20
551.583834
 30
0.0
  0
SPLINE
  5
230
100
AcDbEntity
  8
0
 62
7
100
AcDbSpline
 70
8
 71
3
 72
8
 73
4
 74
0
 40
0
 40
0
 40
0
 40
0
 40
1
 40
1
 40
1
 40
1
 10
556.760079
 20
551.583834
 30
0.0
 10
556.527506
 20
551.718601
 30
0.0
 10
556.240595
 20
551.718601
 30
0.0
 10
556.008023
 20
551.583834
 30
0.0
  0
SPLINE
  5
231
100
AcDbEntity
  8
0
 62
7
100
AcDbSpline
 70
8
 71
3
 72
8
 73
4
 74
0
 40
0
 40
0
 40
0
 40
0
 40
1
 40
1
 40
1
 40
1
 10
556.008023
 20
551.583834
 30
0.0
 10
555.775450
 20
551.449066
 30
0.0
 10
555.632782
 20
551.200141
 30
0.0
 10
555.634059
 20
550.931346
 30
0.0
  0
SPLINE
  5
232
100
AcDbEntity
  8
0
 62
7
100
AcDbSpline
 70
8
 71
3
 72
8
 73
4
 74
0
 40
0
 40
0
 40
0
 40
0
 40
1
 40
1
 40
1
 40
1
 10
555.634059
 20
550.931346
 30
0.0
 10
555.632782
 20
550.662551
 30
0.0
 10
555.775450
 20
550.413626
 30
0.0
 10
556.008023
 20
550.278858
 30
0.0
  0
SPLINE
  5
233
100
AcDbEntity
  8
0
 62
7
100
AcDbSpline
 70
8
 71
3
 72
8
 73
4
 74
0
 40
0
 40
0
 40
0
 40
0
 40
1
 40
1
 40
1
 40
1
 10
556.008023
 20
550.278858
 30
0.0
 10
556.240595
 20
550.144090
 30
0.0
 10
556.527506
 20
550.144090
 30
0.0
 10
556.760079
 20
550.278858
 30
0.0
  0
SPLINE
  5
234
100
AcDbEntity
  8
0
 62
7
100
AcDbSpline
 70
8
 71
3
 72
8
 73
4
 74
0
 40
0
 40
0
 40
0
 40
0
 40
1
 40
1
 40
1
 40
1
 10
556.760079
 20
550.278858
 30
0.0
 10
556.992652
 20
550.413626
 30
0.0
 10
557.135319
 20
550.662551
 30
0.0
 10
557.134042
 20
550.931346
 30
0.0
  0
LWPOLYLINE
  5
235
100
AcDbEntity
  8
0
 62
7
100
AcDbPolyline
 90
2
 70
1
 10
571.439068
 20
545.121731
 30
0.0
 10
571.439068
 20
545.121731
 30
0.0
  0
SPLINE
  5
236
100
AcDbEntity
  8
0
 62
7
100
AcDbSpline
 70
8
 71
3
 72
8
 73
4
 74
0
 40
0
 40
0
 40
0
 40
0
 40
1
 40
1
 40
1
 40
1
 10
612.834238
 20
496.056373
 30
0.0
 10
612.834950
 20
496.414111
 30
0.0
 10
612.644507
 20
496.744980
 30
0.0
 10
612.334814
 20
496.924055
 30
0.0
  0
SPLINE
  5
237
100
AcDbEntity
  8
0
 62
7
100
AcDbSpline
 70
8
 71
3
 72
8
 73
4
 74
0
 40
0
 40
0
 40
0
 40
0
 40
1
 40
1
 40
1
 40
1
 10
612.334814
 20
496.924055
 30
0.0
 10
612.025122
 20
497.103129
 30
0.0
 10
611.643359
 20
497.103129
 30
0.0
 10
611.333667
 20
496.924055
 30
0.0
  0
SPLINE
  5
238
100
AcDbEntity
  8
0
 62
7
100
AcDbSpline
 70
8
 71
3
 72
8
 73
4
 74
0
 40
0
 40
0
 40
0
 40
0
 40
1
 40
1
 40
1
 40
1
 10
611.333667
 20
496.924055
 30
0.0
 10
611.023974
 20
496.744980
 30
0.0
 10
610.833531
 20
496.414111
 30
0.0
 10
610.834242
 20
496.056373
 30
0.0
  0
SPLINE
  5
239
100
AcDbEntity
  8
0
 62
7
100
AcDbSpline
 70
8
 71
3
 72
8
 73
4
 74
0
 40
0
 40
0
 40
0
 40
0
 40
1
 40
1
 40
1
 40
1
 10
610.834242
 20
496.056373
 30
0.0
 10
610.833531
 20
495.698635
 30
0.0
 10
611.023974
 20
495.367766
 30
0.0
 10
611.333667
 20
495.188691
 30
0.0
  0
SPLINE
  5
23a
100
AcDbEntity
  8
0
 62
7
100
AcDbSpline
 70
8
 71
3
 72
8
 73
4
 74
0
 40
0
 40
0
 40
0
 40
0
 40
1
 40
1
 40
1
 40
1
 10
611.333667
 20
495.188691
 30
0.0
 10
611.643359
 20
495.009617
 30
0.0
 10
612.025122
 20
495.009617
 30
0.0
 10
612.334814
 20
495.188691
 30
0.0
  0
SPLINE
  5
23b
100
AcDbEntity
  8
0
 62
7
100
AcDbSpline
 70
8
 71
3
 72
8
 73
4
 74
0
 40
0
 40
0
 40
0
 40
0
 40
1
 40
1
 40
1
 40
1
 10
612.334814
 20
495.188691
 30
0.0
 10
612.644507
 20
495.367766
 30
0.0
 10
612.834950
 20
495.698635
 30
0.0
 10
612.834238
 20
496.056373
 30
0.0
  0
LWPOLYLINE
  5
23c
100
AcDbEntity
  8
0
 62
7
100
AcDbPolyline
 90
2
 70
1
 10
557.134042
 20
550.931346
 30
0.0
 10
557.134042
 20
550.931346
 30
0.0
  0
SPLINE
  5
23d
100
AcDbEntity
  8
0
 62
7
100
AcDbSpline
 70
8
 71
3
 72
8
 73
4
 74
0
 40
0
 40
0
 40
0
 40
0
 40
1
 40
1
 40
1
 40
1
 10
553.702700
 20
535.975902
 30
0.0
 10
553.703411
 20
536.333640
 30
0.0
 10
553.512968
 20
536.664509
 30
0.0
 10
553.203275
 20
536.843584
 30
0.0
  0
SPLINE
  5
23e
100
AcDbEntity
  8
0
 62
7
100
AcDbSpline
 70
8
 71
3
 72
8
 73
4
 74
0
 40
0
 40
0
 40
0
 40
0
 40
1
 40
1
 40
1
 40
1
 10
553.203275
 20
536.843584
 30
0.0
 10
552.893583
 20
537.022658
 30
0.0
 10
552.511821
 20
537.022658
 30
0.0
 10
552.202128
 20
536.843584
 30
0.0
  0
SPLINE
  5
23f
100
AcDbEntity
  8
0
 62
7
100
AcDbSpline
 70
8
 71
3
 72
8
 73
4
 74
0
 40
0
 40
0
 40
0
 40
0
 40
1
 40
1
 40
1
 40
1
 10
552.202128
 20
536.843584
 30
0.0
 10
551.892436
 20
536.664509
 30
0.0
 10
551.701993
 20
536.333640
 30
0.0
 10
551.702704
 20
535.975902
 30
0.0
  0
SPLINE
  5
240
100
AcDbEntity
  8
0
 62
7
100
AcDbSpline
 70
8
 71
3
 72
8
 73
4
 74
0
 40
0
 40
0
 40
0
 40
0
 40
1
 40
1
 40
1
 40
1
 10
551.702704
 20
535.975902
 30
0.0
 10
551.701993
 20
535.618164
 30
0.0
 10
551.892436
 20
535.287295
 30
0.0
 10
552.202128
 20
535.108220
 30
0.0
  0
SPLINE
  5
241
100
AcDbEntity
  8
0
 62
7
100
AcDbSpline
 70
8
 71
3
 72
8
 73
4
 74
0
 40
0
 40
0
 40
0
 40
0
 40
1
 40
1
 40
1
 40
1
 10
552.202128
 20
535.108220
 30
0.0
 10
552.511821
 20
534.929146
 30
0.0
 10
552.893583
 20
534.929146
 30
0.0
 10
553.203275
 20
535.108220
 30
0.0
  0
SPLINE
  5
242
100
AcDbEntity
  8
0
 62
7
100
AcDbSpline
 70
8
 71
3
 72
8
 73
4
 74
0
 40
0
 40
0
 40
0
 40
0
 40
1
 40
1
 40
1
 40
1
 10
553.203275
 20
535.108220
 30
0.0
 10
553.512968
 20
535.287295
 30
0.0
 10
553.703411
 20
535.618164
 30
0.0
 10
553.702700
 20
535.975902
 30
0.0
  0
LWPOLYLINE
  5
243
100
AcDbEntity
  8
0
 62
7
100
AcDbPolyline
 90
2
 70
1
 10
612.834238
 20
496.056373
 30
0.0
 10
612.834238
 20
496.056373
 30
0.0
  0
SPLINE
  5
244
100
AcDbEntity
  8
0
 62
7
100
AcDbSpline
 70
8
 71
3
 72
8
 73
4
 74
0
 40
0
 40
0
 40
0
 40
0
 40
1
 40
1
 40
1
 40
1
 10
556.118607
 20
477.937277
 30
0.0
 10
556.118607
 20
478.294547
 30
0.0
 10
555.928005
 20
478.624678
 30
0.0
 10
555.618601
 20
478.803313
 30
0.0
  0
SPLINE
  5
245
100
AcDbEntity
  8
0
 62
7
100
AcDbSpline
 70
8
 71
3
 72
8
 73
4
 74
0
 40
0
 40
0
 40
0
 40
0
 40
1
 40
1
 40
1
 40
1
 10
555.618601
 20
478.803313
 30
0.0
 10
555.309196
 20
478.981948
 30
0.0
 10
554.927993
 20
478.981948
 30
0.0
 10
554.618588
 20
478.803313
 30
0.0
  0
SPLINE
  5
246
100
AcDbEntity
  8
0
 62
7
100
AcDbSpline
 70
8
 71
3
 72
8
 73
4
 74
0
 40
0
 40
0
 40
0
 40
0
 40
1
 40
1
 40
1
 40
1
 10
554.618588
 20
478.803313
 30
0.0
 10
554.309184
 20
478.624678
 30
0.0
 10
554.118582
 20
478.294547
 30
0.0
 10
554.118582
 20
477.937277
 30
0.0
  0
SPLINE
  5
247
100
AcDbEntity
  8
0
 62
7
100
AcDbSpline
 70
8
 71
3
 72
8
 73
4
 74
0
 40
0
 40
0
 40
0
 40
0
 40
1
 40
1
 40
1
 40
1
 10
554.118582
 20
477.937277
 30
0.0
 10
554.118582
 20
477.580007
 30
0.0
 10
554.309184
 20
477.249876
 30
0.0
 10
554.618588
 20
477.071242
 30
0.0
  0
SPLINE
  5
248
100
AcDbEntity
  8
0
 62
7
100
AcDbSpline
 70
8
 71
3
 72
8
 73
4
 74
0
 40
0
 40
0
 40
0
 40
0
 40
1
 40
1
 40
1
 40
1
 10
554.618588
 20
477.071242
 30
0.0
 10
554.927993
 20
476.892607
 30
0.0
 10
555.309196
 20
476.892607
 30
0.0
 10
555.618601
 20
477.071242
 30
0.0
  0
SPLINE
  5
249
100
AcDbEntity
  8
0
 62
7
100
AcDbSpline
 70
8
 71
3
 72
8
 73
4
 74
0
 40
0
 40
0
 40
0
 40
0
 40
1
 40
1
 40
1
 40
1
 10
555.618601
 20
477.071242
 30
0.0
 10
555.928005
 20
477.249876
 30
0.0
 10
556.118607
 20
477.580007
 30
0.0
 10
556.118607
 20
477.937277
 30
0.0
  0
LWPOLYLINE
  5
24a
100
AcDbEntity
  8
0
 62
7
100
AcDbPolyline
 90
2
 70
1
 10
553.702700
 20
535.975902
 30
0.0
 10
553.702700
 20
535.975902
 30
0.0
  0
SPLINE
  5
24b
100
AcDbEntity
  8
0
 62
7
100
AcDbSpline
 70
8
 71
3
 72
8
 73
4
 74
0
 40
0
 40
0
 40
0
 40
0
 40
1
 40
1
 40
1
 40
1
 10
546.607718
 20
492.432555
 30
0.0
 10
546.609006
 20
492.701357
 30
0.0
 10
546.466340
 20
492.950293
 30
0.0
 10
546.233763
 20
493.085068
 30
0.0
  0
SPLINE
  5
24c
100
AcDbEntity
  8
0
 62
7
100
AcDbSpline
 70
8
 71
3
 72
8
 73
4
 74
0
 40
0
 40
0
 40
0
 40
0
 40
1
 40
1
 40
1
 40
1
 10
546.233763
 20
493.085068
 30
0.0
 10
546.001186
 20
493.219842
 30
0.0
 10
545.714267
 20
493.219842
 30
0.0
 10
545.481689
 20
493.085068
 30
0.0
  0
SPLINE
  5
24d
100
AcDbEntity
  8
0
 62
7
100
AcDbSpline
 70
8
 71
3
 72
8
 73
4
 74
0
 40
0
 40
0
 40
0
 40
0
 40
1
 40
1
 40
1
 40
1
 10
545.481689
 20
493.085068
 30
0.0
 10
545.249112
 20
492.950293
 30
0.0
 10
545.106447
 20
492.701357
 30
0.0
 10
545.107735
 20
492.432555
 30
0.0
  0
SPLINE
  5
24e
100
AcDbEntity
  8
0
 62
7
100
AcDbSpline
 70
8
 71
3
 72
8
 73
4
 74
0
 40
0
 40
0
 40
0
 40
0
 40
1
 40
1
 40
1
 40
1
 10
545.107735
 20
492.432555
 30
0.0
 10
545.106447
 20
492.163753
 30
0.0
 10
545.249112
 20
491.914817
 30
0.0
 10
545.481689
 20
491.780042
 30
0.0
  0
SPLINE
  5
24f
100
AcDbEntity
  8
0
 62
7
100
AcDbSpline
 70
8
 71
3
 72
8
 73
4
 74
0
 40
0
 40
0
 40
0
 40
0
 40
1
 40
1
 40
1
 40
1
 10
545.481689
 20
491.780042
 30
0.0
 10
545.714267
 20
491.645268
 30
0.0
 10
546.001186
 20
491.645268
 30
0.0
 10
546.233763
 20
491.780042
 30
0.0
  0
SPLINE
  5
250
100
AcDbEntity
  8
0
 62
7
100
AcDbSpline
 70
8
 71
3
 72
8
 73
4
 74
0
 40
0
 40
0
 40
0
 40
0
 40
1
 40
1
 40
1
 40
1
 10
546.233763
 20
491.780042
 30
0.0
 10
546.466340
 20
491.914817
 30
0.0
 10
546.609006
 20
492.163753
 30
0.0
 10
546.607718
 20
492.432555
 30
0.0
  0
LWPOLYLINE
  5
251
100
AcDbEntity
  8
0
 62
7
100
AcDbPolyline
 90
2
 70
1
 10
556.118607
 20
477.937277
 30
0.0
 10
556.118607
 20
477.937277
 30
0.0
  0
SPLINE
  5
252
100
AcDbEntity
  8
0
 62
7
100
AcDbSpline
 70
8
 71
3
 72
8
 73
4
 74
0
 40
0
 40
0
 40
0
 40
0
 40
1
 40
1
 40
1
 40
1
 10
554.988081
 20
524.069068
 30
0.0
 10
554.989835
 20
524.516813
 30
0.0
 10
554.751973
 20
524.931300
 30
0.0
 10
554.364504
 20
525.155680
 30
0.0
  0
SPLINE
  5
253
100
AcDbEntity
  8
0
 62
7
100
AcDbSpline
 70
8
 71
3
 72
8
 73
4
 74
0
 40
0
 40
0
 40
0
 40
0
 40
1
 40
1
 40
1
 40
1
 10
554.364504
 20
525.155680
 30
0.0
 10
553.977035
 20
525.380061
 30
0.0
 10
553.499146
 20
525.380061
 30
0.0
 10
553.111677
 20
525.155680
 30
0.0
  0
SPLINE
  5
254
100
AcDbEntity
  8
0
 62
7
100
AcDbSpline
 70
8
 71
3
 72
8
 73
4
 74
0
 40
0
 40
0
 40
0
 40
0
 40
1
 40
1
 40
1
 40
1
 10
553.111677
 20
525.155680
 30
0.0
 10
552.724208
 20
524.931300
 30
0.0
 10
552.486346
 20
524.516813
 30
0.0
 10
552.488100
 20
524.069068
 30
0.0
  0
SPLINE
  5
255
100
AcDbEntity
  8
0
 62
7
100
AcDbSpline
 70
8
 71
3
 72
8
 73
4
 74
0
 40
0
 40
0
 40
0
 40
0
 40
1
 40
1
 40
1
 40
1
 10
552.488100
 20
524.069068
 30
0.0
 10
552.486346
 20
523.621323
 30
0.0
 10
552.724208
 20
523.206836
 30
0.0
 10
553.111677
 20
522.982455
 30
0.0
  0
SPLINE
  5
256
100
AcDbEntity
  8
0
 62
7
100
AcDbSpline
 70
8
 71
3
 72
8
 73
4
 74
0
 40
0
 40
0
 40
0
 40
0
 40
1
 40
1
 40
1
 40
1
 10
553.111677
 20
522.982455
 30
0.0
 10
553.499146
 20
522.758075
 30
0.0
 10
553.977035
 20
522.758075
 30
0.0
 10
554.364504
 20
522.982455
 30
0.0
  0
SPLINE
  5
257
100
AcDbEntity
  8
0
 62
7
100
AcDbSpline
 70
8
 71
3
 72
8
 73
4
 74
0
 40
0
 40
0
 40
0
 40
0
 40
1
 40
1
 40
1
 40
1
 10
554.364504
 20
522.982455
 30
0.0
 10
554.751973
 20
523.206836
 30
0.0
 10
554.989835
 20
523.621323
 30
0.0
 10
554.988081
 20
524.069068
 30
0.0
  0
LWPOLYLINE
  5
258
100
AcDbEntity
  8
0
 62
7
100
AcDbPolyline
 90
2
 70
1
 10
546.607718
 20
492.432555
 30
0.0
 10
546.607718
 20
492.432555
 30
0.0
  0
SPLINE
  5
259
100
AcDbEntity
  8
0
 62
7
100
AcDbSpline
 70
8
 71
3
 72
8
 73
4
 74
0
 40
0
 40
0
 40
0
 40
0
 40
1
 40
1
 40
1
 40
1
 10
593.937570
 20
543.145501
 30
0.0
 10
593.939324
 20
543.593246
 30
0.0
 10
593.701462
 20
544.007733
 30
0.0
 10
593.313993
 20
544.232113
 30
0.0
  0
SPLINE
  5
25a
100
AcDbEntity
  8
0
 62
7
100
AcDbSpline
 70
8
 71
3
 72
8
 73
4
 74
0
 40
0
 40
0
 40
0
 40
0
 40
1
 40
1
 40
1
 40
1
 10
593.313993
 20
544.232113
 30
0.0
 10
592.926524
 20
544.456494
 30
0.0
 10
592.448635
 20
544.456494
 30
0.0
 10
592.061166
 20
544.232113
 30
0.0
  0
SPLINE
  5
25b
100
AcDbEntity
  8
0
 62
7
100
AcDbSpline
 70
8
 71
3
 72
8
 73
4
 74
0
 40
0
 40
0
 40
0
 40
0
 40
1
 40
1
 40
1
 40
1
 10
592.061166
 20
544.232113
 30
0.0
 10
591.673697
 20
544.007733
 30
0.0
 10
591.435834
 20
543.593246
 30
0.0
 10
591.437589
 20
543.145501
 30
0.0
  0
SPLINE
  5
25c
100
AcDbEntity
  8
0
 62
7
100
AcDbSpline
 70
8
 71
3
 72
8
 73
4
 74
0
 40
0
 40
0
 40
0
 40
0
 40
1
 40
1
 40
1
 40
1
 10
591.437589
 20
543.145501
 30
0.0
 10
591.435834
 20
542.697755
 30
0.0
 10
591.673697
 20
542.283269
 30
0.0
 10
592.061166
 20
542.058888
 30
0.0
  0
SPLINE
  5
25d
100
AcDbEntity
  8
0
 62
7
100
AcDbSpline
 70
8
 71
3
 72
8
 73
4
 74
0
 40
0
 40
0
 40
0
 40
0
 40
1
 40
1
 40
1
 40
1
 10
592.061166
 20
542.058888
 30
0.0
 10
592.448635
 20
541.834508
 30
0.0
 10
592.926524
 20
541.834508
 30
0.0
 10
593.313993
 20
542.058888
 30
0.0
  0
SPLINE
  5
25e
100
AcDbEntity
  8
0
 62
7
100
AcDbSpline
 70
8
 71
3
 72
8
 73
4
 74
0
 40
0
 40
0
 40
0
 40
0
 40
1
 40
1
 40
1
 40
1
 10
593.313993
 20
542.058888
 30
0.0
 10
593.701462
 20
542.283269
 30
0.0
 10
593.939324
 20
542.697755
 30
0.0
 10
593.937570
 20
543.145501
 30
0.0
  0
LWPOLYLINE
  5
25f
100
AcDbEntity
  8
0
 62
7
100
AcDbPolyline
 90
2
 70
1
 10
554.988081
 20
524.069068
 30
0.0
 10
554.988081
 20
524.069068
 30
0.0
  0
SPLINE
  5
260
100
AcDbEntity
  8
0
 62
7
100
AcDbSpline
 70
8
 71
3
 72
8
 73
4
 74
0
 40
0
 40
0
 40
0
 40
0
 40
1
 40
1
 40
1
 40
1
 10
568.178075
 20
483.114161
 30
0.0
 10
568.178075
 20
483.382113
 30
0.0
 10
568.035125
 20
483.629710
 30
0.0
 10
567.803072
 20
483.763685
 30
0.0
  0
SPLINE
  5
261
100
AcDbEntity
  8
0
 62
7
100
AcDbSpline
 70
8
 71
3
 72
8
 73
4
 74
0
 40
0
 40
0
 40
0
 40
0
 40
1
 40
1
 40
1
 40
1
 10
567.803072
 20
483.763685
 30
0.0
 10
567.571020
 20
483.897661
 30
0.0
 10
567.285119
 20
483.897661
 30
0.0
 10
567.053067
 20
483.763685
 30
0.0
  0
SPLINE
  5
262
100
AcDbEntity
  8
0
 62
7
100
AcDbSpline
 70
8
 71
3
 72
8
 73
4
 74
0
 40
0
 40
0
 40
0
 40
0
 40
1
 40
1
 40
1
 40
1
 10
567.053067
 20
483.763685
 30
0.0
 10
566.821014
 20
483.629710
 30
0.0
 10
566.678064
 20
483.382113
 30
0.0
 10
566.678064
 20
483.114161
 30
0.0
  0
SPLINE
  5
263
100
AcDbEntity
  8
0
 62
7
100
AcDbSpline
 70
8
 71
3
 72
8
 73
4
 74
0
 40
0
 40
0
 40
0
 40
0
 40
1
 40
1
 40
1
 40
1
 10
566.678064
 20
483.114161
 30
0.0
 10
566.678064
 20
482.846210
 30
0.0
 10
566.821014
 20
482.598613
 30
0.0
 10
567.053067
 20
482.464638
 30
0.0
  0
SPLINE
  5
264
100
AcDbEntity
  8
0
 62
7
100
AcDbSpline
 70
8
 71
3
 72
8
 73
4
 74
0
 40
0
 40
0
 40
0
 40
0
 40
1
 40
1
 40
1
 40
1
 10
567.053067
 20
482.464638
 30
0.0
 10
567.285119
 20
482.330662
 30
0.0
 10
567.571020
 20
482.330662
 30
0.0
 10
567.803072
 20
482.464638
 30
0.0
  0
SPLINE
  5
265
100
AcDbEntity
  8
0
 62
7
100
AcDbSpline
 70
8
 71
3
 72
8
 73
4
 74
0
 40
0
 40
0
 40
0
 40
0
 40
1
 40
1
 40
1
 40
1
 10
567.803072
 20
482.464638
 30
0.0
 10
568.035125
 20
482.598613
 30
0.0
 10
568.178075
 20
482.846210
 30
0.0
 10
568.178075
 20
483.114161
 30
0.0
  0
LWPOLYLINE
  5
266
100
AcDbEntity
  8
0
 62
7
100
AcDbPolyline
 90
2
 70
1
 10
593.937570
 20
543.145501
 30
0.0
 10
593.937570
 20
543.145501
 30
0.0
  0
SPLINE
  5
267
100
AcDbEntity
  8
0
 62
7
100
AcDbSpline
 70
8
 71
3
 72
8
 73
4
 74
0
 40
0
 40
0
 40
0
 40
0
 40
1
 40
1
 40
1
 40
1
 10
584.168899
 20
487.830879
 30
0.0
 10
584.168899
 20
488.098831
 30
0.0
 10
584.025949
 20
488.346428
 30
0.0
 10
583.793896
 20
488.480403
 30
0.0
  0
SPLINE
  5
268
100
AcDbEntity
  8
0
 62
7
100
AcDbSpline
 70
8
 71
3
 72
8
 73
4
 74
0
 40
0
 40
0
 40
0
 40
0
 40
1
 40
1
 40
1
 40
1
 10
583.793896
 20
488.480403
 30
0.0
 10
583.561844
 20
488.614379
 30
0.0
 10
583.275943
 20
488.614379
 30
0.0
 10
583.043891
 20
488.480403
 30
0.0
  0
SPLINE
  5
269
100
AcDbEntity
  8
0
 62
7
100
AcDbSpline
 70
8
 71
3
 72
8
 73
4
 74
0
 40
0
 40
0
 40
0
 40
0
 40
1
 40
1
 40
1
 40
1
 10
583.043891
 20
488.480403
 30
0.0
 10
582.811838
 20
488.346428
 30
0.0
 10
582.668888
 20
488.098831
 30
0.0
 10
582.668888
 20
487.830879
 30
0.0
  0
SPLINE
  5
26a
100
AcDbEntity
  8
0
 62
7
100
AcDbSpline
 70
8
 71
3
 72
8
 73
4
 74
0
 40
0
 40
0
 40
0
 40
0
 40
1
 40
1
 40
1
 40
1
 10
582.668888
 20
487.830879
 30
0.0
 10
582.668888
 20
487.562928
 30
0.0
 10
582.811838
 20
487.315331
 30
0.0
 10
583.043891
 20
487.181356
 30
0.0
  0
SPLINE
  5
26b
100
AcDbEntity
  8
0
 62
7
100
AcDbSpline
 70
8
 71
3
 72
8
 73
4
 74
0
 40
0
 40
0
 40
0
 40
0
 40
1
 40
1
 40
1
 40
1
 10
583.043891
 20
487.181356
 30
0.0
 10
583.275943
 20
487.047380
 30
0.0
 10
583.561844
 20
487.047380
 30
0.0
 10
583.793896
 20
487.181356
 30
0.0
  0
SPLINE
  5
26c
100
AcDbEntity
  8
0
 62
7
100
AcDbSpline
 70
8
 71
3
 72
8
 73
4
 74
0
 40
0
 40
0
 40
0
 40
0
 40
1
 40
1
 40
1
 40
1
 10
583.793896
 20
487.181356
 30
0.0
 10
584.025949
 20
487.315331
 30
0.0
 10
584.168899
 20
487.562928
 30
0.0
 10
584.168899
 20
487.830879
 30
0.0
  0
LWPOLYLINE
  5
26d
100
AcDbEntity
  8
0
 62
7
100
AcDbPolyline
 90
2
 70
1
 10
568.178075
 20
483.114161
 30
0.0
 10
568.178075
 20
483.114161
 30
0.0
  0
SPLINE
  5
26e
100
AcDbEntity
  8
0
 62
7
100
AcDbSpline
 70
8
 71
3
 72
8
 73
4
 74
0
 40
0
 40
0
 40
0
 40
0
 40
1
 40
1
 40
1
 40
1
 10
599.642015
 20
514.980762
 30
0.0
 10
599.643303
 20
515.249564
 30
0.0
 10
599.500637
 20
515.498500
 30
0.0
 10
599.268060
 20
515.633274
 30
0.0
  0
SPLINE
  5
26f
100
AcDbEntity
  8
0
 62
7
100
AcDbSpline
 70
8
 71
3
 72
8
 73
4
 74
0
 40
0
 40
0
 40
0
 40
0
 40
1
 40
1
 40
1
 40
1
 10
599.268060
 20
515.633274
 30
0.0
 10
599.035483
 20
515.768048
 30
0.0
 10
598.748564
 20
515.768048
 30
0.0
 10
598.515986
 20
515.633274
 30
0.0
  0
SPLINE
  5
270
100
AcDbEntity
  8
0
 62
7
100
AcDbSpline
 70
8
 71
3
 72
8
 73
4
 74
0
 40
0
 40
0
 40
0
 40
0
 40
1
 40
1
 40
1
 40
1
 10
598.515986
 20
515.633274
 30
0.0
 10
598.283409
 20
515.498500
 30
0.0
 10
598.140744
 20
515.249564
 30
0.0
 10
598.142032
 20
514.980762
 30
0.0
  0
SPLINE
  5
271
100
AcDbEntity
  8
0
 62
7
100
AcDbSpline
 70
8
 71
3
 72
8
 73
4
 74
0
 40
0
 40
0
 40
0
 40
0
 40
1
 40
1
 40
1
 40
1
 10
598.142032
 20
514.980762
 30
0.0
 10
598.140744
 20
514.711959
 30
0.0
 10
598.283409
 20
514.463023
 30
0.0
 10
598.515986
 20
514.328249
 30
0.0
  0
SPLINE
  5
272
100
AcDbEntity
  8
0
 62
7
100
AcDbSpline
 70
8
 71
3
 72
8
 73
4
 74
0
 40
0
 40
0
 40
0
 40
0
 40
1
 40
1
 40
1
 40
1
 10
598.515986
 20
514.328249
 30
0.0
 10
598.748564
 20
514.193475
 30
0.0
 10
599.035483
 20
514.193475
 30
0.0
 10
599.268060
 20
514.328249
 30
0.0
  0
SPLINE
  5
273
100
AcDbEntity
  8
0
 62
7
100
AcDbSpline
 70
8
 71
3
 72
8
 73
4
 74
0
 40
0
 40
0
 40
0
 40
0
 40
1
 40
1
 40
1
 40
1
 10
599.268060
 20
514.328249
 30
0.0
 10
599.500637
 20
514.463023
 30
0.0
 10
599.643303
 20
514.711959
 30
0.0
 10
599.642015
 20
514.980762
 30
0.0
  0
LWPOLYLINE
  5
274
100
AcDbEntity
  8
0
 62
7
100
AcDbPolyline
 90
2
 70
1
 10
584.168899
 20
487.830879
 30
0.0
 10
584.168899
 20
487.830879
 30
0.0
  0
SPLINE
  5
275
100
AcDbEntity
  8
0
 62
7
100
AcDbSpline
 70
8
 71
3
 72
8
 73
4
 74
0
 40
0
 40
0
 40
0
 40
0
 40
1
 40
1
 40
1
 40
1
 10
601.310146
 20
536.378548
 30
0.0
 10
601.310146
 20
536.646500
 30
0.0
 10
601.167195
 20
536.894097
 30
0.0
 10
600.935143
 20
537.028072
 30
0.0
  0
SPLINE
  5
276
100
AcDbEntity
  8
0
 62
7
100
AcDbSpline
 70
8
 71
3
 72
8
 73
4
 74
0
 40
0
 40
0
 40
0
 40
0
 40
1
 40
1
 40
1
 40
1
 10
600.935143
 20
537.028072
 30
0.0
 10
600.703090
 20
537.162048
 30
0.0
 10
600.417190
 20
537.162048
 30
0.0
 10
600.185137
 20
537.028072
 30
0.0
  0
SPLINE
  5
277
100
AcDbEntity
  8
0
 62
7
100
AcDbSpline
 70
8
 71
3
 72
8
 73
4
 74
0
 40
0
 40
0
 40
0
 40
0
 40
1
 40
1
 40
1
 40
1
 10
600.185137
 20
537.028072
 30
0.0
 10
599.953085
 20
536.894097
 30
0.0
 10
599.810134
 20
536.646500
 30
0.0
 10
599.810134
 20
536.378548
 30
0.0
  0
SPLINE
  5
278
100
AcDbEntity
  8
0
 62
7
100
AcDbSpline
 70
8
 71
3
 72
8
 73
4
 74
0
 40
0
 40
0
 40
0
 40
0
 40
1
 40
1
 40
1
 40
1
 10
599.810134
 20
536.378548
 30
0.0
 10
599.810134
 20
536.110597
 30
0.0
 10
599.953085
 20
535.863000
 30
0.0
 10
600.185137
 20
535.729025
 30
0.0
  0
SPLINE
  5
279
100
AcDbEntity
  8
0
 62
7
100
AcDbSpline
 70
8
 71
3
 72
8
 73
4
 74
0
 40
0
 40
0
 40
0
 40
0
 40
1
 40
1
 40
1
 40
1
 10
600.185137
 20
535.729025
 30
0.0
 10
600.417190
 20
535.595049
 30
0.0
 10
600.703090
 20
535.595049
 30
0.0
 10
600.935143
 20
535.729025
 30
0.0
  0
SPLINE
  5
27a
100
AcDbEntity
  8
0
 62
7
100
AcDbSpline
 70
8
 71
3
 72
8
 73
4
 74
0
 40
0
 40
0
 40
0
 40
0
 40
1
 40
1
 40
1
 40
1
 10
600.935143
 20
535.729025
 30
0.0
 10
601.167195
 20
535.863000
 30
0.0
 10
601.310146
 20
536.110597
 30
0.0
 10
601.310146
 20
536.378548
 30
0.0
  0
LWPOLYLINE
  5
27b
100
AcDbEntity
  8
0
 62
7
100
AcDbPolyline
 90
2
 70
1
 10
599.642015
 20
514.980762
 30
0.0
 10
599.642015
 20
514.980762
 30
0.0
  0
SPLINE
  5
27c
100
AcDbEntity
  8
0
 62
7
100
AcDbSpline
 70
8
 71
3
 72
8
 73
4
 74
0
 40
0
 40
0
 40
0
 40
0
 40
1
 40
1
 40
1
 40
1
 10
545.554662
 20
546.272150
 30
0.0
 10
545.554662
 20
546.718734
 30
0.0
 10
545.316412
 20
547.131394
 30
0.0
 10
544.929660
 20
547.354686
 30
0.0
  0
SPLINE
  5
27d
100
AcDbEntity
  8
0
 62
7
100
AcDbSpline
 70
8
 71
3
 72
8
 73
4
 74
0
 40
0
 40
0
 40
0
 40
0
 40
1
 40
1
 40
1
 40
1
 10
544.929660
 20
547.354686
 30
0.0
 10
544.542907
 20
547.577978
 30
0.0
 10
544.066408
 20
547.577978
 30
0.0
 10
543.679655
 20
547.354686
 30
0.0
  0
SPLINE
  5
27e
100
AcDbEntity
  8
0
 62
7
100
AcDbSpline
 70
8
 71
3
 72
8
 73
4
 74
0
 40
0
 40
0
 40
0
 40
0
 40
1
 40
1
 40
1
 40
1
 10
543.679655
 20
547.354686
 30
0.0
 10
543.292902
 20
547.131394
 30
0.0
 10
543.054653
 20
546.718734
 30
0.0
 10
543.054653
 20
546.272150
 30
0.0
  0
SPLINE
  5
27f
100
AcDbEntity
  8
0
 62
7
100
AcDbSpline
 70
8
 71
3
 72
8
 73
4
 74
0
 40
0
 40
0
 40
0
 40
0
 40
1
 40
1
 40
1
 40
1
 10
543.054653
 20
546.272150
 30
0.0
 10
543.054653
 20
545.825567
 30
0.0
 10
543.292902
 20
545.412907
 30
0.0
 10
543.679655
 20
545.189615
 30
0.0
  0
SPLINE
  5
280
100
AcDbEntity
  8
0
 62
7
100
AcDbSpline
 70
8
 71
3
 72
8
 73
4
 74
0
 40
0
 40
0
 40
0
 40
0
 40
1
 40
1
 40
1
 40
1
 10
543.679655
 20
545.189615
 30
0.0
 10
544.066408
 20
544.966323
 30
0.0
 10
544.542907
 20
544.966323
 30
0.0
 10
544.929660
 20
545.189615
 30
0.0
  0
SPLINE
  5
281
100
AcDbEntity
  8
0
 62
7
100
AcDbSpline
 70
8
 71
3
 72
8
 73
4
 74
0
 40
0
 40
0
 40
0
 40
0
 40
1
 40
1
 40
1
 40
1
 10
544.929660
 20
545.189615
 30
0.0
 10
545.316412
 20
545.412907
 30
0.0
 10
545.554662
 20
545.825567
 30
0.0
 10
545.554662
 20
546.272150
 30
0.0
  0
LWPOLYLINE
  5
282
100
AcDbEntity
  8
0
 62
7
100
AcDbPolyline
 90
2
 70
1
 10
601.310146
 20
536.378548
 30
0.0
 10
601.310146
 20
536.378548
 30
0.0
  0
SPLINE
  5
283
100
AcDbEntity
  8
0
 62
7
100
AcDbSpline
 70
8
 71
3
 72
8
 73
4
 74
0
 40
0
 40
0
 40
0
 40
0
 40
1
 40
1
 40
1
 40
1
 10
592.549262
 20
508.710980
 30
0.0
 10
592.549262
 20
509.157564
 30
0.0
 10
592.311013
 20
509.570224
 30
0.0
 10
591.924260
 20
509.793516
 30
0.0
  0
SPLINE
  5
284
100
AcDbEntity
  8
0
 62
7
100
AcDbSpline
 70
8
 71
3
 72
8
 73
4
 74
0
 40
0
 40
0
 40
0
 40
0
 40
1
 40
1
 40
1
 40
1
 10
591.924260
 20
509.793516
 30
0.0
 10
591.537507
 20
510.016808
 30
0.0
 10
591.061008
 20
510.016808
 30
0.0
 10
590.674255
 20
509.793516
 30
0.0
  0
SPLINE
  5
285
100
AcDbEntity
  8
0
 62
7
100
AcDbSpline
 70
8
 71
3
 72
8
 73
4
 74
0
 40
0
 40
0
 40
0
 40
0
 40
1
 40
1
 40
1
 40
1
 10
590.674255
 20
509.793516
 30
0.0
 10
590.287503
 20
509.570224
 30
0.0
 10
590.049253
 20
509.157564
 30
0.0
 10
590.049253
 20
508.710980
 30
0.0
  0
SPLINE
  5
286
100
AcDbEntity
  8
0
 62
7
100
AcDbSpline
 70
8
 71
3
 72
8
 73
4
 74
0
 40
0
 40
0
 40
0
 40
0
 40
1
 40
1
 40
1
 40
1
 10
590.049253
 20
508.710980
 30
0.0
 10
590.049253
 20
508.264397
 30
0.0
 10
590.287503
 20
507.851737
 30
0.0
 10
590.674255
 20
507.628445
 30
0.0
  0
SPLINE
  5
287
100
AcDbEntity
  8
0
 62
7
100
AcDbSpline
 70
8
 71
3
 72
8
 73
4
 74
0
 40
0
 40
0
 40
0
 40
0
 40
1
 40
1
 40
1
 40
1
 10
590.674255
 20
507.628445
 30
0.0
 10
591.061008
 20
507.405153
 30
0.0
 10
591.537507
 20
507.405153
 30
0.0
 10
591.924260
 20
507.628445
 30
0.0
  0
SPLINE
  5
288
100
AcDbEntity
  8
0
 62
7
100
AcDbSpline
 70
8
 71
3
 72
8
 73
4
 74
0
 40
0
 40
0
 40
0
 40
0
 40
1
 40
1
 40
1
 40
1
 10
591.924260
 20
507.628445
 30
0.0
 10
592.311013
 20
507.851737
 30
0.0
 10
592.549262
 20
508.264397
 30
0.0
 10
592.549262
 20
508.710980
 30
0.0
  0
LWPOLYLINE
  5
289
100
AcDbEntity
  8
0
 62
7
100
AcDbPolyline
 90
2
 70
1
 10
545.554662
 20
546.272150
 30
0.0
 10
545.554662
 20
546.272150
 30
0.0
  0
SPLINE
  5
28a
100
AcDbEntity
  8
0
 62
7
100
AcDbSpline
 70
8
 71
3
 72
8
 73
4
 74
0
 40
0
 40
0
 40
0
 40
0
 40
1
 40
1
 40
1
 40
1
 10
610.513469
 20
519.985084
 30
0.0
 10
610.514746
 20
520.253879
 30
0.0
 10
610.372078
 20
520.502804
 30
0.0
 10
610.139505
 20
520.637572
 30
0.0
  0
SPLINE
  5
28b
100
AcDbEntity
  8
0
 62
7
100
AcDbSpline
 70
8
 71
3
 72
8
 73
4
 74
0
 40
0
 40
0
 40
0
 40
0
 40
1
 40
1
 40
1
 40
1
 10
610.139505
 20
520.637572
 30
0.0
 10
609.906933
 20
520.772339
 30
0.0
 10
609.620022
 20
520.772339
 30
0.0
 10
609.387449
 20
520.637572
 30
0.0
  0
SPLINE
  5
28c
100
AcDbEntity
  8
0
 62
7
100
AcDbSpline
 70
8
 71
3
 72
8
 73
4
 74
0
 40
0
 40
0
 40
0
 40
0
 40
1
 40
1
 40
1
 40
1
 10
609.387449
 20
520.637572
 30
0.0
 10
609.154876
 20
520.502804
 30
0.0
 10
609.012209
 20
520.253879
 30
0.0
 10
609.013486
 20
519.985084
 30
0.0
  0
SPLINE
  5
28d
100
AcDbEntity
  8
0
 62
7
100
AcDbSpline
 70
8
 71
3
 72
8
 73
4
 74
0
 40
0
 40
0
 40
0
 40
0
 40
1
 40
1
 40
1
 40
1
 10
609.013486
 20
519.985084
 30
0.0
 10
609.012209
 20
519.716289
 30
0.0
 10
609.154876
 20
519.467363
 30
0.0
 10
609.387449
 20
519.332596
 30
0.0
  0
SPLINE
  5
28e
100
AcDbEntity
  8
0
 62
7
100
AcDbSpline
 70
8
 71
3
 72
8
 73
4
 74
0
 40
0
 40
0
 40
0
 40
0
 40
1
 40
1
 40
1
 40
1
 10
609.387449
 20
519.332596
 30
0.0
 10
609.620022
 20
519.197828
 30
0.0
 10
609.906933
 20
519.197828
 30
0.0
 10
610.139505
 20
519.332596
 30
0.0
  0
SPLINE
  5
28f
100
AcDbEntity
  8
0
 62
7
100
AcDbSpline
 70
8
 71
3
 72
8
 73
4
 74
0
 40
0
 40
0
 40
0
 40
0
 40
1
 40
1
 40
1
 40
1
 10
610.139505
 20
519.332596
 30
0.0
 10
610.372078
 20
519.467363
 30
0.0
 10
610.514746
 20
519.716289
 30
0.0
 10
610.513469
 20
519.985084
 30
0.0
  0
LWPOLYLINE
  5
290
100
AcDbEntity
  8
0
 62
7
100
AcDbPolyline
 90
2
 70
1
 10
592.549262
 20
508.710980
 30
0.0
 10
592.549262
 20
508.710980
 30
0.0
  0
SPLINE
  5
291
100
AcDbEntity
  8
0
 62
7
100
AcDbSpline
 70
8
 71
3
 72
8
 73
4
 74
0
 40
0
 40
0
 40
0
 40
0
 40
1
 40
1
 40
1
 40
1
 10
595.923088
 20
494.503307
 30
0.0
 10
595.923799
 20
494.861045
 30
0.0
 10
595.733356
 20
495.191914
 30
0.0
 10
595.423663
 20
495.370989
 30
0.0
  0
SPLINE
  5
292
100
AcDbEntity
  8
0
 62
7
100
AcDbSpline
 70
8
 71
3
 72
8
 73
4
 74
0
 40
0
 40
0
 40
0
 40
0
 40
1
 40
1
 40
1
 40
1
 10
595.423663
 20
495.370989
 30
0.0
 10
595.113971
 20
495.550063
 30
0.0
 10
594.732209
 20
495.550063
 30
0.0
 10
594.422516
 20
495.370989
 30
0.0
  0
SPLINE
  5
293
100
AcDbEntity
  8
0
 62
7
100
AcDbSpline
 70
8
 71
3
 72
8
 73
4
 74
0
 40
0
 40
0
 40
0
 40
0
 40
1
 40
1
 40
1
 40
1
 10
594.422516
 20
495.370989
 30
0.0
 10
594.112824
 20
495.191914
 30
0.0
 10
593.922381
 20
494.861045
 30
0.0
 10
593.923092
 20
494.503307
 30
0.0
  0
SPLINE
  5
294
100
AcDbEntity
  8
0
 62
7
100
AcDbSpline
 70
8
 71
3
 72
8
 73
4
 74
0
 40
0
 40
0
 40
0
 40
0
 40
1
 40
1
 40
1
 40
1
 10
593.923092
 20
494.503307
 30
0.0
 10
593.922381
 20
494.145569
 30
0.0
 10
594.112824
 20
493.814700
 30
0.0
 10
594.422516
 20
493.635625
 30
0.0
  0
SPLINE
  5
295
100
AcDbEntity
  8
0
 62
7
100
AcDbSpline
 70
8
 71
3
 72
8
 73
4
 74
0
 40
0
 40
0
 40
0
 40
0
 40
1
 40
1
 40
1
 40
1
 10
594.422516
 20
493.635625
 30
0.0
 10
594.732209
 20
493.456551
 30
0.0
 10
595.113971
 20
493.456551
 30
0.0
 10
595.423663
 20
493.635625
 30
0.0
  0
SPLINE
  5
296
100
AcDbEntity
  8
0
 62
7
100
AcDbSpline
 70
8
 71
3
 72
8
 73
4
 74
0
 40
0
 40
0
 40
0
 40
0
 40
1
 40
1
 40
1
 40
1
 10
595.423663
 20
493.635625
 30
0.0
 10
595.733356
 20
493.814700
 30
0.0
 10
595.923799
 20
494.145569
 30
0.0
 10
595.923088
 20
494.503307
 30
0.0
  0
LWPOLYLINE
  5
297
100
AcDbEntity
  8
0
 62
7
100
AcDbPolyline
 90
2
 70
1
 10
610.513469
 20
519.985084
 30
0.0
 10
610.513469
 20
519.985084
 30
0.0
  0
SPLINE
  5
298
100
AcDbEntity
  8
0
 62
7
100
AcDbSpline
 70
8
 71
3
 72
8
 73
4
 74
0
 40
0
 40
0
 40
0
 40
0
 40
1
 40
1
 40
1
 40
1
 10
608.635195
 20
530.971583
 30
0.0
 10
608.635931
 20
531.329338
 30
0.0
 10
608.445494
 20
531.660232
 30
0.0
 10
608.135791
 20
531.839323
 30
0.0
  0
SPLINE
  5
299
100
AcDbEntity
  8
0
 62
7
100
AcDbSpline
 70
8
 71
3
 72
8
 73
4
 74
0
 40
0
 40
0
 40
0
 40
0
 40
1
 40
1
 40
1
 40
1
 10
608.135791
 20
531.839323
 30
0.0
 10
607.826088
 20
532.018413
 30
0.0
 10
607.444306
 20
532.018413
 30
0.0
 10
607.134603
 20
531.839323
 30
0.0
  0
SPLINE
  5
29a
100
AcDbEntity
  8
0
 62
7
100
AcDbSpline
 70
8
 71
3
 72
8
 73
4
 74
0
 40
0
 40
0
 40
0
 40
0
 40
1
 40
1
 40
1
 40
1
 10
607.134603
 20
531.839323
 30
0.0
 10
606.824900
 20
531.660232
 30
0.0
 10
606.634463
 20
531.329338
 30
0.0
 10
606.635199
 20
530.971583
 30
0.0
  0
SPLINE
  5
29b
100
AcDbEntity
  8
0
 62
7
100
AcDbSpline
 70
8
 71
3
 72
8
 73
4
 74
0
 40
0
 40
0
 40
0
 40
0
 40
1
 40
1
 40
1
 40
1
 10
606.635199
 20
530.971583
 30
0.0
 10
606.634463
 20
530.613828
 30
0.0
 10
606.824900
 20
530.282933
 30
0.0
 10
607.134603
 20
530.103843
 30
0.0
  0
SPLINE
  5
29c
100
AcDbEntity
  8
0
 62
7
100
AcDbSpline
 70
8
 71
3
 72
8
 73
4
 74
0
 40
0
 40
0
 40
0
 40
0
 40
1
 40
1
 40
1
 40
1
 10
607.134603
 20
530.103843
 30
0.0
 10
607.444306
 20
529.924753
 30
0.0
 10
607.826088
 20
529.924753
 30
0.0
 10
608.135791
 20
530.103843
 30
0.0
  0
SPLINE
  5
29d
100
AcDbEntity
  8
0
 62
7
100
AcDbSpline
 70
8
 71
3
 72
8
 73
4
 74
0
 40
0
 40
0
 40
0
 40
0
 40
1
 40
1
 40
1
 40
1
 10
608.135791
 20
530.103843
 30
0.0
 10
608.445494
 20
530.282933
 30
0.0
 10
608.635931
 20
530.613828
 30
0.0
 10
608.635195
 20
530.971583
 30
0.0
  0
LWPOLYLINE
  5
29e
100
AcDbEntity
  8
0
 62
7
100
AcDbPolyline
 90
2
 70
1
 10
595.923088
 20
494.503307
 30
0.0
 10
595.923088
 20
494.503307
 30
0.0
  0
SPLINE
  5
29f
100
AcDbEntity
  8
0
 62
7
100
AcDbSpline
 70
8
 71
3
 72
8
 73
4
 74
0
 40
0
 40
0
 40
0
 40
0
 40
1
 40
1
 40
1
 40
1
 10
584.283933
 20
510.839255
 30
0.0
 10
584.283933
 20
511.107206
 30
0.0
 10
584.140983
 20
511.354803
 30
0.0
 10
583.908930
 20
511.488779
 30
0.0
  0
SPLINE
  5
2a0
100
AcDbEntity
  8
0
 62
7
100
AcDbSpline
 70
8
 71
3
 72
8
 73
4
 74
0
 40
0
 40
0
 40
0
 40
0
 40
1
 40
1
 40
1
 40
1
 10
583.908930
 20
511.488779
 30
0.0
 10
583.676878
 20
511.622754
 30
0.0
 10
583.390977
 20
511.622754
 30
0.0
 10
583.158925
 20
511.488779
 30
0.0
  0
SPLINE
  5
2a1
100
AcDbEntity
  8
0
 62
7
100
AcDbSpline
 70
8
 71
3
 72
8
 73
4
 74
0
 40
0
 40
0
 40
0
 40
0
 40
1
 40
1
 40
1
 40
1
 10
583.158925
 20
511.488779
 30
0.0
 10
582.926872
 20
511.354803
 30
0.0
 10
582.783922
 20
511.107206
 30
0.0
 10
582.783922
 20
510.839255
 30
0.0
  0
SPLINE
  5
2a2
100
AcDbEntity
  8
0
 62
7
100
AcDbSpline
 70
8
 71
3
 72
8
 73
4
 74
0
 40
0
 40
0
 40
0
 40
0
 40
1
 40
1
 40
1
 40
1
 10
582.783922
 20
510.839255
 30
0.0
 10
582.783922
 20
510.571304
 30
0.0
 10
582.926872
 20
510.323707
 30
0.0
 10
583.158925
 20
510.189731
 30
0.0
  0
SPLINE
  5
2a3
100
AcDbEntity
  8
0
 62
7
100
AcDbSpline
 70
8
 71
3
 72
8
 73
4
 74
0
 40
0
 40
0
 40
0
 40
0
 40
1
 40
1
 40
1
 40
1
 10
583.158925
 20
510.189731
 30
0.0
 10
583.390977
 20
510.055755
 30
0.0
 10
583.676878
 20
510.055755
 30
0.0
 10
583.908930
 20
510.189731
 30
0.0
  0
SPLINE
  5
2a4
100
AcDbEntity
  8
0
 62
7
100
AcDbSpline
 70
8
 71
3
 72
8
 73
4
 74
0
 40
0
 40
0
 40
0
 40
0
 40
1
 40
1
 40
1
 40
1
 10
583.908930
 20
510.189731
 30
0.0
 10
584.140983
 20
510.323707
 30
0.0
 10
584.283933
 20
510.571304
 30
0.0
 10
584.283933
 20
510.839255
 30
0.0
  0
LWPOLYLINE
  5
2a5
100
AcDbEntity
  8
0
 62
7
100
AcDbPolyline
 90
2
 70
1
 10
608.635195
 20
530.971583
 30
0.0
 10
608.635195
 20
530.971583
 30
0.0
  0
SPLINE
  5
2a6
100
AcDbEntity
  8
0
 62
7
100
AcDbSpline
 70
8
 71
3
 72
8
 73
4
 74
0
 40
0
 40
0
 40
0
 40
0
 40
1
 40
1
 40
1
 40
1
 10
592.566958
 20
481.215971
 30
0.0
 10
592.566958
 20
481.483923
 30
0.0
 10
592.424007
 20
481.731520
 30
0.0
 10
592.191955
 20
481.865495
 30
0.0
  0
SPLINE
  5
2a7
100
AcDbEntity
  8
0
 62
7
100
AcDbSpline
 70
8
 71
3
 72
8
 73
4
 74
0
 40
0
 40
0
 40
0
 40
0
 40
1
 40
1
 40
1
 40
1
 10
592.191955
 20
481.865495
 30
0.0
 10
591.959902
 20
481.999471
 30
0.0
 10
591.674002
 20
481.999471
 30
0.0
 10
591.441949
 20
481.865495
 30
0.0
  0
SPLINE
  5
2a8
100
AcDbEntity
  8
0
 62
7
100
AcDbSpline
 70
8
 71
3
 72
8
 73
4
 74
0
 40
0
 40
0
 40
0
 40
0
 40
1
 40
1
 40
1
 40
1
 10
591.441949
 20
481.865495
 30
0.0
 10
591.209897
 20
481.731520
 30
0.0
 10
591.066946
 20
481.483923
 30
0.0
 10
591.066946
 20
481.215971
 30
0.0
  0
SPLINE
  5
2a9
100
AcDbEntity
  8
0
 62
7
100
AcDbSpline
 70
8
 71
3
 72
8
 73
4
 74
0
 40
0
 40
0
 40
0
 40
0
 40
1
 40
1
 40
1
 40
1
 10
591.066946
 20
481.215971
 30
0.0
 10
591.066946
 20
480.948020
 30
0.0
 10
591.209897
 20
480.700423
 30
0.0
 10
591.441949
 20
480.566448
 30
0.0
  0
SPLINE
  5
2aa
100
AcDbEntity
  8
0
 62
7
100
AcDbSpline
 70
8
 71
3
 72
8
 73
4
 74
0
 40
0
 40
0
 40
0
 40
0
 40
1
 40
1
 40
1
 40
1
 10
591.441949
 20
480.566448
 30
0.0
 10
591.674002
 20
480.432472
 30
0.0
 10
591.959902
 20
480.432472
 30
0.0
 10
592.191955
 20
480.566448
 30
0.0
  0
SPLINE
  5
2ab
100
AcDbEntity
  8
0
 62
7
100
AcDbSpline
 70
8
 71
3
 72
8
 73
4
 74
0
 40
0
 40
0
 40
0
 40
0
 40
1
 40
1
 40
1
 40
1
 10
592.191955
 20
480.566448
 30
0.0
 10
592.424007
 20
480.700423
 30
0.0
 10
592.566958
 20
480.948020
 30
0.0
 10
592.566958
 20
481.215971
 30
0.0
  0
LWPOLYLINE
  5
2ac
100
AcDbEntity
  8
0
 62
7
100
AcDbPolyline
 90
2
 70
1
 10
584.283933
 20
510.839255
 30
0.0
 10
584.283933
 20
510.839255
 30
0.0
  0
LWPOLYLINE
  5
2ad
100
AcDbEntity
  8
0
 62
7
100
AcDbPolyline
 90
2
 70
1
 10
592.566958
 20
481.215971
 30
0.0
 10
592.566958
 20
481.215971
 30
0.0
  0
SPLINE
  5
2ae
100
AcDbEntity
  8
0
 62
7
100
AcDbSpline
 70
8
 71
3
 72
8
 73
4
 74
0
 40
0
 40
0
 40
0
 40
0
 40
1
 40
1
 40
1
 40
1
 10
530.903886
 20
554.646107
 30
0.0
 10
532.229971
 20
554.646102
 30
0.0
 10
533.501745
 20
555.172884
 30
0.0
 10
534.439431
 20
556.110566
 30
0.0
  0
SPLINE
  5
2af
100
AcDbEntity
  8
0
 62
7
100
AcDbSpline
 70
8
 71
3
 72
8
 73
4
 74
0
 40
0
 40
0
 40
0
 40
0
 40
1
 40
1
 40
1
 40
1
 10
534.439431
 20
556.110566
 30
0.0
 10
535.377116
 20
557.048248
 30
0.0
 10
535.903903
 20
558.320020
 30
0.0
 10
535.903904
 20
559.646106
 30
0.0
  0
LWPOLYLINE
  5
2b0
100
AcDbEntity
  8
0
 62
7
100
AcDbPolyline
 90
2
 70
1
 10
525.903896
 20
554.645825
 30
0.0
 10
530.903886
 20
554.646107
 30
0.0
  0
LWPOLYLINE
  5
2b1
100
AcDbEntity
  8
0
 62
7
100
AcDbPolyline
 90
7
 70
1
 10
535.903904
 20
559.646106
 30
0.0
 10
535.903904
 20
564.646104
 30
0.0
 10
625.903893
 20
564.646104
 30
0.0
 10
625.903893
 20
464.646107
 30
0.0
 10
525.903896
 20
464.646107
 30
0.0
 10
525.903896
 20
554.645802
 30
0.0
 10
525.903896
 20
554.645825
 30
0.0
  0
LWPOLYLINE
  5
2b2
100
AcDbEntity
  8
0
 62
7
100
AcDbPolyline
 90
6
 70
1
 10
609.081247
 20
376.112595
 30
0.0
 10
609.081247
 20
373.112595
 30
0.0
 10
605.081255
 20
373.112595
 30
0.0
 10
605.081255
 20
376.112595
 30
0.0
 10
609.081247
 20
376.112595
 30
0.0
 10
609.081247
 20
376.112595
 30
0.0
  0
LWPOLYLINE
  5
2b3
100
AcDbEntity
  8
0
 62
7
100
AcDbPolyline
 90
6
 70
1
 10
609.081247
 20
378.147626
 30
0.0
 10
605.081255
 20
378.147626
 30
0.0
 10
605.081255
 20
381.147625
 30
0.0
 10
609.081247
 20
381.147625
 30
0.0
 10
609.081247
 20
378.147626
 30
0.0
 10
609.081247
 20
378.147626
 30
0.0
  0
LWPOLYLINE
  5
2b4
100
AcDbEntity
  8
0
 62
7
100
AcDbPolyline
 90
6
 70
1
 10
609.081247
 20
382.936011
 30
0.0
 10
605.081255
 20
382.936011
 30
0.0
 10
605.081255
 20
385.936011
 30
0.0
 10
609.081247
 20
385.936011
 30
0.0
 10
609.081247
 20
382.936011
 30
0.0
 10
609.081247
 20
382.936011
 30
0.0
  0
SPLINE
  5
2b5
100
AcDbEntity
  8
0
 62
7
100
AcDbSpline
 70
8
 71
3
 72
8
 73
4
 74
0
 40
0
 40
0
 40
0
 40
0
 40
1
 40
1
 40
1
 40
1
 10
553.403883
 20
582.194346
 30
0.0
 10
553.409036
 20
586.306330
 30
0.0
 10
551.218278
 20
590.108167
 30
0.0
 10
547.658052
 20
592.165648
 30
0.0
  0
SPLINE
  5
2b6
100
AcDbEntity
  8
0
 62
7
100
AcDbSpline
 70
8
 71
3
 72
8
 73
4
 74
0
 40
0
 40
0
 40
0
 40
0
 40
1
 40
1
 40
1
 40
1
 10
547.658052
 20
592.165648
 30
0.0
 10
544.097826
 20
594.223129
 30
0.0
 10
539.709958
 20
594.223129
 30
0.0
 10
536.149732
 20
592.165648
 30
0.0
  0
SPLINE
  5
2b7
100
AcDbEntity
  8
0
 62
7
100
AcDbSpline
 70
8
 71
3
 72
8
 73
4
 74
0
 40
0
 40
0
 40
0
 40
0
 40
1
 40
1
 40
1
 40
1
 10
536.149732
 20
592.165648
 30
0.0
 10
532.589506
 20
590.108167
 30
0.0
 10
530.398747
 20
586.306330
 30
0.0
 10
530.403901
 20
582.194346
 30
0.0
  0
SPLINE
  5
2b8
100
AcDbEntity
  8
0
 62
7
100
AcDbSpline
 70
8
 71
3
 72
8
 73
4
 74
0
 40
0
 40
0
 40
0
 40
0
 40
1
 40
1
 40
1
 40
1
 10
530.403901
 20
582.194346
 30
0.0
 10
530.398747
 20
578.082362
 30
0.0
 10
532.589506
 20
574.280525
 30
0.0
 10
536.149732
 20
572.223044
 30
0.0
  0
SPLINE
  5
2b9
100
AcDbEntity
  8
0
 62
7
100
AcDbSpline
 70
8
 71
3
 72
8
 73
4
 74
0
 40
0
 40
0
 40
0
 40
0
 40
1
 40
1
 40
1
 40
1
 10
536.149732
 20
572.223044
 30
0.0
 10
539.709958
 20
570.165563
 30
0.0
 10
544.097826
 20
570.165563
 30
0.0
 10
547.658052
 20
572.223044
 30
0.0
  0
SPLINE
  5
2ba
100
AcDbEntity
  8
0
 62
7
100
AcDbSpline
 70
8
 71
3
 72
8
 73
4
 74
0
 40
0
 40
0
 40
0
 40
0
 40
1
 40
1
 40
1
 40
1
 10
547.658052
 20
572.223044
 30
0.0
 10
551.218278
 20
574.280525
 30
0.0
 10
553.409036
 20
578.082362
 30
0.0
 10
553.403883
 20
582.194346
 30
0.0
  0
LWPOLYLINE
  5
2bb
100
AcDbEntity
  8
0
 62
7
100
AcDbPolyline
 90
6
 70
1
 10
609.081247
 20
387.849302
 30
0.0
 10
605.081255
 20
387.849302
 30
0.0
 10
605.081255
 20
390.849302
 30
0.0
 10
609.081247
 20
390.849302
 30
0.0
 10
609.081247
 20
387.849302
 30
0.0
 10
609.081247
 20
387.849302
 30
0.0
  0
LWPOLYLINE
  5
2bc
100
AcDbEntity
  8
0
 62
7
100
AcDbPolyline
 90
2
 70
1
 10
553.403883
 20
582.194346
 30
0.0
 10
553.403883
 20
582.194346
 30
0.0
  0
LWPOLYLINE
  5
2bd
100
AcDbEntity
  8
0
 62
7
100
AcDbPolyline
 90
6
 70
1
 10
525.903896
 20
568.194368
 30
0.0
 10
525.903896
 20
598.194370
 30
0.0
 10
557.903888
 20
598.194370
 30
0.0
 10
557.903888
 20
568.194368
 30
0.0
 10
525.903896
 20
568.194368
 30
0.0
 10
525.903896
 20
568.194368
 30
0.0
  0
LWPOLYLINE
  5
2be
100
AcDbEntity
  8
0
 62
7
100
AcDbPolyline
 90
6
 70
1
 10
561.060741
 20
598.194370
 30
0.0
 10
572.060747
 20
598.194370
 30
0.0
 10
572.060747
 20
570.194367
 30
0.0
 10
561.060741
 20
570.194367
 30
0.0
 10
561.060741
 20
598.194370
 30
0.0
 10
561.060741
 20
598.194370
 30
0.0
  0
LWPOLYLINE
  5
2bf
100
AcDbEntity
  8
0
 62
7
100
AcDbPolyline
 90
6
 70
1
 10
585.338033
 20
598.194370
 30
0.0
 10
585.338033
 20
568.194368
 30
0.0
 10
574.338027
 20
568.194368
 30
0.0
 10
574.338027
 20
598.194370
 30
0.0
 10
585.338033
 20
598.194370
 30
0.0
 10
585.338033
 20
598.194370
 30
0.0
  0
LWPOLYLINE
  5
2c0
100
AcDbEntity
  8
0
 62
7
100
AcDbPolyline
 90
6
 70
1
 10
598.248514
 20
568.194368
 30
0.0
 10
587.248508
 20
568.194368
 30
0.0
 10
587.248508
 20
598.194370
 30
0.0
 10
598.248514
 20
598.194370
 30
0.0
 10
598.248514
 20
568.194368
 30
0.0
 10
598.248514
 20
568.194368
 30
0.0
  0
ENDSEC
  0
SECTION
  2
OBJECTS
  0
DICTIONARY
  5
C
330
0
100
AcDbDictionary
  3
ACAD_GROUP
350
D
  3
ACAD_MLINESTYLE
350
17
  0
DICTIONARY
  5
D
330
C
100
AcDbDictionary
  0
DICTIONARY
  5
1A
330
C
100
AcDbDictionary
  0
DICTIONARY
  5
17
330
C
100
AcDbDictionary
  3
STANDARD
350
18
  0
DICTIONARY
  5
19
330
C
100
AcDbDictionary
  0
ENDSEC
  0
EOF
