  0
SECTION
  2
HEADER
  9
$ACADVER
  1
AC1014
  9
$HANDSEED
  5
FFFF
  9
$MEASUREMENT
 70
     1
  0
ENDSEC
  0
SECTION
  2
TABLES
  0
TABLE
  2
VPORT
  5
8
330
0
100
AcDbSymbolTable
 70
     4
  0
VPORT
  5
2E
330
8
100
AcDbSymbolTableRecord
100
AcDbViewportTableRecord
  2
*ACTIVE
 70
     0
 10
0.0
 20
0.0
 11
1.0
 21
1.0
 12
210.0
 22
148.5
 13
0.0
 23
0.0
 14
10.0
 24
10.0
 15
10.0
 25
10.0
 16
0.0
 26
0.0
 36
1.0
 17
0.0
 27
0.0
 37
0.0
 40
341.0
 41
1.24
 42
50.0
 43
0.0
 44
0.0
 50
0.0
 51
0.0
 71
     0
 72
   100
 73
     1
 74
     3
 75
     0
 76
     0
 77
     0
 78
     0
  0
ENDTAB
  0
TABLE
  2
LTYPE
  5
5
330
0
100
AcDbSymbolTable
 70
     1
  0
LTYPE
  5
14
330
5
100
AcDbSymbolTableRecord
100
AcDbLinetypeTableRecord
  2
BYBLOCK
 70
     0
  3

 72
    65
 73
     0
 40
0.0
  0
LTYPE
  5
15
330
5
100
AcDbSymbolTableRecord
100
AcDbLinetypeTableRecord
  2
BYLAYER
 70
     0
  3

 72
    65
 73
     0
 40
0.0
  0
LTYPE
  5
16
330
5
100
AcDbSymbolTableRecord
100
AcDbLinetypeTableRecord
  2
CONTINUOUS
 70
     0
  3
Solid line
 72
    65
 73
     0
 40
0.0
  0
ENDTAB
  0
TABLE
  2
LAYER
  5
2
100
AcDbSymbolTable
 70
1
  0
LAYER
  5
50
100
AcDbSymbolTableRecord
100
AcDbLayerTableRecord
  2
0
 70
0
  6
CONTINUOUS
  0
ENDTAB
  0
TABLE
  2
STYLE
  5
3
330
0
100
AcDbSymbolTable
 70
     1
  0
STYLE
  5
11
330
3
100
AcDbSymbolTableRecord
100
AcDbTextStyleTableRecord
  2
STANDARD
 70
     0
 40
0.0
 41
1.0
 50
0.0
 71
     0
 42
2.5
  3
txt
  4

  0
ENDTAB
  0
TABLE
  2
VIEW
  5
6
330
0
100
AcDbSymbolTable
 70
     0
  0
ENDTAB
  0
TABLE
  2
UCS
  5
7
330
0
100
AcDbSymbolTable
 70
     0
  0
ENDTAB
  0
TABLE
  2
APPID
  5
9
330
0
100
AcDbSymbolTable
 70
     2
  0
APPID
  5
12
330
9
100
AcDbSymbolTableRecord
100
AcDbRegAppTableRecord
  2
ACAD
 70
     0
  0
ENDTAB
  0
TABLE
  2
DIMSTYLE
  5
A
330
0
100
AcDbSymbolTable
 70
     1
  0
DIMSTYLE
105
27
330
A
100
AcDbSymbolTableRecord
100
AcDbDimStyleTableRecord
  2
ISO-25
 70
     0
  3

  4

  5

  6

  7

 40
1.0
 41
2.5
 42
0.625
 43
3.75
 44
1.25
 45
0.0
 46
0.0
 47
0.0
 48
0.0
140
2.5
141
2.5
142
0.0
143
0.03937007874016
144
1.0
145
0.0
146
1.0
147
0.625
 71
     0
 72
     0
 73
     0
 74
     0
 75
     0
 76
     0
 77
     1
 78
     8
170
     0
171
     3
172
     1
173
     0
174
     0
175
     0
176
     0
177
     0
178
     0
270
     2
271
     2
272
     2
273
     2
274
     3
340
11
275
     0
280
     0
281
     0
282
     0
283
     0
284
     8
285
     0
286
     0
287
     3
288
     0
  0
ENDTAB
  0
TABLE
  2
BLOCK_RECORD
  5
1
330
0
100
AcDbSymbolTable
 70
     1
  0
BLOCK_RECORD
  5
1F
330
1
100
AcDbSymbolTableRecord
100
AcDbBlockTableRecord
  2
*MODEL_SPACE
  0
BLOCK_RECORD
  5
1B
330
1
100
AcDbSymbolTableRecord
100
AcDbBlockTableRecord
  2
*PAPER_SPACE
  0
ENDTAB
  0
ENDSEC
  0
SECTION
  2
BLOCKS
  0
BLOCK
  5
20
330
1F
100
AcDbEntity
  8
0
100
AcDbBlockBegin
  2
*MODEL_SPACE
 70
     0
 10
0.0
 20
0.0
 30
0.0
  3
*MODEL_SPACE
  1

  0
ENDBLK
  5
21
330
1F
100
AcDbEntity
  8
0
100
AcDbBlockEnd
  0
BLOCK
  5
1C
330
1B
100
AcDbEntity
 67
     1
  8
0
100
AcDbBlockBegin
  2
*PAPER_SPACE
  1

  0
ENDBLK
  5
1D
330
1B
100
AcDbEntity
 67
     1
  8
0
100
AcDbBlockEnd
  0
ENDSEC
  0
SECTION
  2
ENTITIES
  0
SPLINE
  5
100
100
AcDbEntity
  8
0
 62
7
100
AcDbSpline
 70
8
 71
3
 72
8
 73
4
 74
0
 40
0
 40
0
 40
0
 40
0
 40
1
 40
1
 40
1
 40
1
 10
16.199049
 20
233.036556
 30
0.0
 10
16.199049
 20
234.787158
 30
0.0
 10
15.265114
 20
236.404780
 30
0.0
 10
13.749049
 20
237.280081
 30
0.0
  0
SPLINE
  5
101
100
AcDbEntity
  8
0
 62
7
100
AcDbSpline
 70
8
 71
3
 72
8
 73
4
 74
0
 40
0
 40
0
 40
0
 40
0
 40
1
 40
1
 40
1
 40
1
 10
13.749049
 20
237.280081
 30
0.0
 10
12.232983
 20
238.155382
 30
0.0
 10
10.365114
 20
238.155382
 30
0.0
 10
8.849049
 20
237.280081
 30
0.0
  0
SPLINE
  5
102
100
AcDbEntity
  8
0
 62
7
100
AcDbSpline
 70
8
 71
3
 72
8
 73
4
 74
0
 40
0
 40
0
 40
0
 40
0
 40
1
 40
1
 40
1
 40
1
 10
8.849049
 20
237.280081
 30
0.0
 10
7.332983
 20
236.404780
 30
0.0
 10
6.399049
 20
234.787158
 30
0.0
 10
6.399049
 20
233.036556
 30
0.0
  0
SPLINE
  5
103
100
AcDbEntity
  8
0
 62
7
100
AcDbSpline
 70
8
 71
3
 72
8
 73
4
 74
0
 40
0
 40
0
 40
0
 40
0
 40
1
 40
1
 40
1
 40
1
 10
6.399049
 20
233.036556
 30
0.0
 10
6.399049
 20
231.285955
 30
0.0
 10
7.332983
 20
229.668333
 30
0.0
 10
8.849049
 20
228.793032
 30
0.0
  0
SPLINE
  5
104
100
AcDbEntity
  8
0
 62
7
100
AcDbSpline
 70
8
 71
3
 72
8
 73
4
 74
0
 40
0
 40
0
 40
0
 40
0
 40
1
 40
1
 40
1
 40
1
 10
8.849049
 20
228.793032
 30
0.0
 10
10.365114
 20
227.917731
 30
0.0
 10
12.232983
 20
227.917731
 30
0.0
 10
13.749049
 20
228.793032
 30
0.0
  0
SPLINE
  5
105
100
AcDbEntity
  8
0
 62
7
100
AcDbSpline
 70
8
 71
3
 72
8
 73
4
 74
0
 40
0
 40
0
 40
0
 40
0
 40
1
 40
1
 40
1
 40
1
 10
13.749049
 20
228.793032
 30
0.0
 10
15.265114
 20
229.668333
 30
0.0
 10
16.199049
 20
231.285955
 30
0.0
 10
16.199049
 20
233.036556
 30
0.0
  0
SPLINE
  5
106
100
AcDbEntity
  8
0
 62
7
100
AcDbSpline
 70
8
 71
3
 72
8
 73
4
 74
0
 40
0
 40
0
 40
0
 40
0
 40
1
 40
1
 40
1
 40
1
 10
61.199048
 20
301.417818
 30
0.0
 10
61.199330
 20
301.953935
 30
0.0
 10
60.913549
 20
302.449469
 30
0.0
 10
60.449313
 20
302.717623
 30
0.0
  0
SPLINE
  5
107
100
AcDbEntity
  8
0
 62
7
100
AcDbSpline
 70
8
 71
3
 72
8
 73
4
 74
0
 40
0
 40
0
 40
0
 40
0
 40
1
 40
1
 40
1
 40
1
 10
60.449313
 20
302.717623
 30
0.0
 10
59.985077
 20
302.985776
 30
0.0
 10
59.413019
 20
302.985776
 30
0.0
 10
58.948783
 20
302.717623
 30
0.0
  0
SPLINE
  5
108
100
AcDbEntity
  8
0
 62
7
100
AcDbSpline
 70
8
 71
3
 72
8
 73
4
 74
0
 40
0
 40
0
 40
0
 40
0
 40
1
 40
1
 40
1
 40
1
 10
58.948783
 20
302.717623
 30
0.0
 10
58.484547
 20
302.449469
 30
0.0
 10
58.198718
 20
301.953935
 30
0.0
 10
58.199048
 20
301.417818
 30
0.0
  0
SPLINE
  5
109
100
AcDbEntity
  8
0
 62
7
100
AcDbSpline
 70
8
 71
3
 72
8
 73
4
 74
0
 40
0
 40
0
 40
0
 40
0
 40
1
 40
1
 40
1
 40
1
 10
58.199048
 20
301.417818
 30
0.0
 10
58.198766
 20
300.881700
 30
0.0
 10
58.484547
 20
300.386166
 30
0.0
 10
58.948783
 20
300.118013
 30
0.0
  0
SPLINE
  5
10a
100
AcDbEntity
  8
0
 62
7
100
AcDbSpline
 70
8
 71
3
 72
8
 73
4
 74
0
 40
0
 40
0
 40
0
 40
0
 40
1
 40
1
 40
1
 40
1
 10
58.948783
 20
300.118013
 30
0.0
 10
59.413019
 20
299.849859
 30
0.0
 10
59.985077
 20
299.849859
 30
0.0
 10
60.449313
 20
300.118013
 30
0.0
  0
SPLINE
  5
10b
100
AcDbEntity
  8
0
 62
7
100
AcDbSpline
 70
8
 71
3
 72
8
 73
4
 74
0
 40
0
 40
0
 40
0
 40
0
 40
1
 40
1
 40
1
 40
1
 10
60.449313
 20
300.118013
 30
0.0
 10
60.913549
 20
300.386166
 30
0.0
 10
61.199378
 20
300.881700
 30
0.0
 10
61.199048
 20
301.417818
 30
0.0
  0
SPLINE
  5
10c
100
AcDbEntity
  8
0
 62
7
100
AcDbSpline
 70
8
 71
3
 72
8
 73
4
 74
0
 40
0
 40
0
 40
0
 40
0
 40
1
 40
1
 40
1
 40
1
 10
81.199047
 20
311.417817
 30
0.0
 10
81.200458
 20
315.527230
 30
0.0
 10
79.008729
 20
319.325034
 30
0.0
 10
75.450088
 20
321.380112
 30
0.0
  0
SPLINE
  5
10d
100
AcDbEntity
  8
0
 62
7
100
AcDbSpline
 70
8
 71
3
 72
8
 73
4
 74
0
 40
0
 40
0
 40
0
 40
0
 40
1
 40
1
 40
1
 40
1
 10
75.450088
 20
321.380112
 30
0.0
 10
71.891446
 20
323.435190
 30
0.0
 10
67.506650
 20
323.435190
 30
0.0
 10
63.948008
 20
321.380112
 30
0.0
  0
SPLINE
  5
10e
100
AcDbEntity
  8
0
 62
7
100
AcDbSpline
 70
8
 71
3
 72
8
 73
4
 74
0
 40
0
 40
0
 40
0
 40
0
 40
1
 40
1
 40
1
 40
1
 10
63.948008
 20
321.380112
 30
0.0
 10
60.389366
 20
319.325034
 30
0.0
 10
58.197761
 20
315.527230
 30
0.0
 10
58.199048
 20
311.417817
 30
0.0
  0
SPLINE
  5
10f
100
AcDbEntity
  8
0
 62
7
100
AcDbSpline
 70
8
 71
3
 72
8
 73
4
 74
0
 40
0
 40
0
 40
0
 40
0
 40
1
 40
1
 40
1
 40
1
 10
58.199048
 20
311.417817
 30
0.0
 10
58.197637
 20
307.308405
 30
0.0
 10
60.389366
 20
303.510600
 30
0.0
 10
63.948008
 20
301.455523
 30
0.0
  0
SPLINE
  5
110
100
AcDbEntity
  8
0
 62
7
100
AcDbSpline
 70
8
 71
3
 72
8
 73
4
 74
0
 40
0
 40
0
 40
0
 40
0
 40
1
 40
1
 40
1
 40
1
 10
63.948008
 20
301.455523
 30
0.0
 10
67.506650
 20
299.400445
 30
0.0
 10
71.891446
 20
299.400445
 30
0.0
 10
75.450088
 20
301.455523
 30
0.0
  0
SPLINE
  5
111
100
AcDbEntity
  8
0
 62
7
100
AcDbSpline
 70
8
 71
3
 72
8
 73
4
 74
0
 40
0
 40
0
 40
0
 40
0
 40
1
 40
1
 40
1
 40
1
 10
75.450088
 20
301.455523
 30
0.0
 10
79.008729
 20
303.510600
 30
0.0
 10
81.200334
 20
307.308405
 30
0.0
 10
81.199047
 20
311.417817
 30
0.0
  0
LWPOLYLINE
  5
112
100
AcDbEntity
  8
0
 62
7
100
AcDbPolyline
 90
4
 70
1
 10
16.199049
 20
233.036556
 30
0.0
 10
16.199049
 20
233.036556
 30
0.0
 10
16.199049
 20
233.036556
 30
0.0
 10
16.199049
 20
233.036556
 30
0.0
  0
SPLINE
  5
113
100
AcDbEntity
  8
0
 62
7
100
AcDbSpline
 70
8
 71
3
 72
8
 73
4
 74
0
 40
0
 40
0
 40
0
 40
0
 40
1
 40
1
 40
1
 40
1
 10
81.199047
 20
321.417817
 30
0.0
 10
81.199330
 20
321.953935
 30
0.0
 10
80.913549
 20
322.449468
 30
0.0
 10
80.449313
 20
322.717622
 30
0.0
  0
SPLINE
  5
114
100
AcDbEntity
  8
0
 62
7
100
AcDbSpline
 70
8
 71
3
 72
8
 73
4
 74
0
 40
0
 40
0
 40
0
 40
0
 40
1
 40
1
 40
1
 40
1
 10
80.449313
 20
322.717622
 30
0.0
 10
79.985077
 20
322.985776
 30
0.0
 10
79.413018
 20
322.985776
 30
0.0
 10
78.948782
 20
322.717622
 30
0.0
  0
SPLINE
  5
115
100
AcDbEntity
  8
0
 62
7
100
AcDbSpline
 70
8
 71
3
 72
8
 73
4
 74
0
 40
0
 40
0
 40
0
 40
0
 40
1
 40
1
 40
1
 40
1
 10
78.948782
 20
322.717622
 30
0.0
 10
78.484544
 20
322.449468
 30
0.0
 10
78.198718
 20
321.953935
 30
0.0
 10
78.199048
 20
321.417817
 30
0.0
  0
SPLINE
  5
116
100
AcDbEntity
  8
0
 62
7
100
AcDbSpline
 70
8
 71
3
 72
8
 73
4
 74
0
 40
0
 40
0
 40
0
 40
0
 40
1
 40
1
 40
1
 40
1
 10
78.199048
 20
321.417817
 30
0.0
 10
78.198766
 20
320.881700
 30
0.0
 10
78.484544
 20
320.386166
 30
0.0
 10
78.948782
 20
320.118012
 30
0.0
  0
SPLINE
  5
117
100
AcDbEntity
  8
0
 62
7
100
AcDbSpline
 70
8
 71
3
 72
8
 73
4
 74
0
 40
0
 40
0
 40
0
 40
0
 40
1
 40
1
 40
1
 40
1
 10
78.948782
 20
320.118012
 30
0.0
 10
79.413018
 20
319.849858
 30
0.0
 10
79.985077
 20
319.849858
 30
0.0
 10
80.449313
 20
320.118012
 30
0.0
  0
SPLINE
  5
118
100
AcDbEntity
  8
0
 62
7
100
AcDbSpline
 70
8
 71
3
 72
8
 73
4
 74
0
 40
0
 40
0
 40
0
 40
0
 40
1
 40
1
 40
1
 40
1
 10
80.449313
 20
320.118012
 30
0.0
 10
80.913549
 20
320.386166
 30
0.0
 10
81.199375
 20
320.881700
 30
0.0
 10
81.199047
 20
321.417817
 30
0.0
  0
LWPOLYLINE
  5
119
100
AcDbEntity
  8
0
 62
7
100
AcDbPolyline
 90
4
 70
1
 10
61.199048
 20
301.417818
 30
0.0
 10
61.199048
 20
301.417818
 30
0.0
 10
61.199048
 20
301.417818
 30
0.0
 10
61.199048
 20
301.417818
 30
0.0
  0
SPLINE
  5
11a
100
AcDbEntity
  8
0
 62
7
100
AcDbSpline
 70
8
 71
3
 72
8
 73
4
 74
0
 40
0
 40
0
 40
0
 40
0
 40
1
 40
1
 40
1
 40
1
 10
81.199047
 20
301.417818
 30
0.0
 10
81.199330
 20
301.953935
 30
0.0
 10
80.913549
 20
302.449469
 30
0.0
 10
80.449313
 20
302.717623
 30
0.0
  0
SPLINE
  5
11b
100
AcDbEntity
  8
0
 62
7
100
AcDbSpline
 70
8
 71
3
 72
8
 73
4
 74
0
 40
0
 40
0
 40
0
 40
0
 40
1
 40
1
 40
1
 40
1
 10
80.449313
 20
302.717623
 30
0.0
 10
79.985077
 20
302.985776
 30
0.0
 10
79.413018
 20
302.985776
 30
0.0
 10
78.948782
 20
302.717623
 30
0.0
  0
SPLINE
  5
11c
100
AcDbEntity
  8
0
 62
7
100
AcDbSpline
 70
8
 71
3
 72
8
 73
4
 74
0
 40
0
 40
0
 40
0
 40
0
 40
1
 40
1
 40
1
 40
1
 10
78.948782
 20
302.717623
 30
0.0
 10
78.484544
 20
302.449469
 30
0.0
 10
78.198718
 20
301.953935
 30
0.0
 10
78.199048
 20
301.417818
 30
0.0
  0
SPLINE
  5
11d
100
AcDbEntity
  8
0
 62
7
100
AcDbSpline
 70
8
 71
3
 72
8
 73
4
 74
0
 40
0
 40
0
 40
0
 40
0
 40
1
 40
1
 40
1
 40
1
 10
78.199048
 20
301.417818
 30
0.0
 10
78.198766
 20
300.881700
 30
0.0
 10
78.484544
 20
300.386166
 30
0.0
 10
78.948782
 20
300.118013
 30
0.0
  0
SPLINE
  5
11e
100
AcDbEntity
  8
0
 62
7
100
AcDbSpline
 70
8
 71
3
 72
8
 73
4
 74
0
 40
0
 40
0
 40
0
 40
0
 40
1
 40
1
 40
1
 40
1
 10
78.948782
 20
300.118013
 30
0.0
 10
79.413018
 20
299.849859
 30
0.0
 10
79.985077
 20
299.849859
 30
0.0
 10
80.449313
 20
300.118013
 30
0.0
  0
SPLINE
  5
11f
100
AcDbEntity
  8
0
 62
7
100
AcDbSpline
 70
8
 71
3
 72
8
 73
4
 74
0
 40
0
 40
0
 40
0
 40
0
 40
1
 40
1
 40
1
 40
1
 10
80.449313
 20
300.118013
 30
0.0
 10
80.913549
 20
300.386166
 30
0.0
 10
81.199375
 20
300.881700
 30
0.0
 10
81.199047
 20
301.417818
 30
0.0
  0
LWPOLYLINE
  5
120
100
AcDbEntity
  8
0
 62
7
100
AcDbPolyline
 90
4
 70
1
 10
81.199047
 20
311.417817
 30
0.0
 10
81.199047
 20
311.417817
 30
0.0
 10
81.199047
 20
311.417817
 30
0.0
 10
81.199047
 20
311.417817
 30
0.0
  0
SPLINE
  5
121
100
AcDbEntity
  8
0
 62
7
100
AcDbSpline
 70
8
 71
3
 72
8
 73
4
 74
0
 40
0
 40
0
 40
0
 40
0
 40
1
 40
1
 40
1
 40
1
 10
61.199048
 20
321.417817
 30
0.0
 10
61.199330
 20
321.953935
 30
0.0
 10
60.913549
 20
322.449468
 30
0.0
 10
60.449313
 20
322.717622
 30
0.0
  0
SPLINE
  5
122
100
AcDbEntity
  8
0
 62
7
100
AcDbSpline
 70
8
 71
3
 72
8
 73
4
 74
0
 40
0
 40
0
 40
0
 40
0
 40
1
 40
1
 40
1
 40
1
 10
60.449313
 20
322.717622
 30
0.0
 10
59.985077
 20
322.985776
 30
0.0
 10
59.413019
 20
322.985776
 30
0.0
 10
58.948783
 20
322.717622
 30
0.0
  0
SPLINE
  5
123
100
AcDbEntity
  8
0
 62
7
100
AcDbSpline
 70
8
 71
3
 72
8
 73
4
 74
0
 40
0
 40
0
 40
0
 40
0
 40
1
 40
1
 40
1
 40
1
 10
58.948783
 20
322.717622
 30
0.0
 10
58.484547
 20
322.449468
 30
0.0
 10
58.198718
 20
321.953935
 30
0.0
 10
58.199048
 20
321.417817
 30
0.0
  0
SPLINE
  5
124
100
AcDbEntity
  8
0
 62
7
100
AcDbSpline
 70
8
 71
3
 72
8
 73
4
 74
0
 40
0
 40
0
 40
0
 40
0
 40
1
 40
1
 40
1
 40
1
 10
58.199048
 20
321.417817
 30
0.0
 10
58.198766
 20
320.881700
 30
0.0
 10
58.484547
 20
320.386166
 30
0.0
 10
58.948783
 20
320.118012
 30
0.0
  0
SPLINE
  5
125
100
AcDbEntity
  8
0
 62
7
100
AcDbSpline
 70
8
 71
3
 72
8
 73
4
 74
0
 40
0
 40
0
 40
0
 40
0
 40
1
 40
1
 40
1
 40
1
 10
58.948783
 20
320.118012
 30
0.0
 10
59.413019
 20
319.849858
 30
0.0
 10
59.985077
 20
319.849858
 30
0.0
 10
60.449313
 20
320.118012
 30
0.0
  0
SPLINE
  5
126
100
AcDbEntity
  8
0
 62
7
100
AcDbSpline
 70
8
 71
3
 72
8
 73
4
 74
0
 40
0
 40
0
 40
0
 40
0
 40
1
 40
1
 40
1
 40
1
 10
60.449313
 20
320.118012
 30
0.0
 10
60.913549
 20
320.386166
 30
0.0
 10
61.199378
 20
320.881700
 30
0.0
 10
61.199048
 20
321.417817
 30
0.0
  0
LWPOLYLINE
  5
127
100
AcDbEntity
  8
0
 62
7
100
AcDbPolyline
 90
4
 70
1
 10
81.199047
 20
321.417817
 30
0.0
 10
81.199047
 20
321.417817
 30
0.0
 10
81.199047
 20
321.417817
 30
0.0
 10
81.199047
 20
321.417817
 30
0.0
  0
LWPOLYLINE
  5
128
100
AcDbEntity
  8
0
 62
7
100
AcDbPolyline
 90
4
 70
1
 10
81.199047
 20
301.417818
 30
0.0
 10
81.199047
 20
301.417818
 30
0.0
 10
81.199047
 20
301.417818
 30
0.0
 10
81.199047
 20
301.417818
 30
0.0
  0
LWPOLYLINE
  5
129
100
AcDbEntity
  8
0
 62
7
100
AcDbPolyline
 90
4
 70
1
 10
61.199048
 20
321.417817
 30
0.0
 10
61.199048
 20
321.417817
 30
0.0
 10
61.199048
 20
321.417817
 30
0.0
 10
61.199048
 20
321.417817
 30
0.0
  0
SPLINE
  5
12a
100
AcDbEntity
  8
0
 62
7
100
AcDbSpline
 70
8
 71
3
 72
8
 73
4
 74
0
 40
0
 40
0
 40
0
 40
0
 40
1
 40
1
 40
1
 40
1
 10
223.055428
 20
587.920268
 30
0.0
 10
223.055993
 20
589.707017
 30
0.0
 10
222.103165
 20
591.358271
 30
0.0
 10
220.555913
 20
592.251815
 30
0.0
  0
SPLINE
  5
12b
100
AcDbEntity
  8
0
 62
7
100
AcDbSpline
 70
8
 71
3
 72
8
 73
4
 74
0
 40
0
 40
0
 40
0
 40
0
 40
1
 40
1
 40
1
 40
1
 10
220.555913
 20
592.251815
 30
0.0
 10
219.008661
 20
593.145358
 30
0.0
 10
217.102196
 20
593.145358
 30
0.0
 10
215.554944
 20
592.251815
 30
0.0
  0
SPLINE
  5
12c
100
AcDbEntity
  8
0
 62
7
100
AcDbSpline
 70
8
 71
3
 72
8
 73
4
 74
0
 40
0
 40
0
 40
0
 40
0
 40
1
 40
1
 40
1
 40
1
 10
215.554944
 20
592.251815
 30
0.0
 10
214.007692
 20
591.358271
 30
0.0
 10
213.054827
 20
589.707017
 30
0.0
 10
213.055429
 20
587.920268
 30
0.0
  0
SPLINE
  5
12d
100
AcDbEntity
  8
0
 62
7
100
AcDbSpline
 70
8
 71
3
 72
8
 73
4
 74
0
 40
0
 40
0
 40
0
 40
0
 40
1
 40
1
 40
1
 40
1
 10
213.055429
 20
587.920268
 30
0.0
 10
213.054864
 20
586.133547
 30
0.0
 10
214.007692
 20
584.482293
 30
0.0
 10
215.554944
 20
583.588750
 30
0.0
  0
SPLINE
  5
12e
100
AcDbEntity
  8
0
 62
7
100
AcDbSpline
 70
8
 71
3
 72
8
 73
4
 74
0
 40
0
 40
0
 40
0
 40
0
 40
1
 40
1
 40
1
 40
1
 10
215.554944
 20
583.588750
 30
0.0
 10
217.102196
 20
582.695206
 30
0.0
 10
219.008661
 20
582.695206
 30
0.0
 10
220.555913
 20
583.588750
 30
0.0
  0
SPLINE
  5
12f
100
AcDbEntity
  8
0
 62
7
100
AcDbSpline
 70
8
 71
3
 72
8
 73
4
 74
0
 40
0
 40
0
 40
0
 40
0
 40
1
 40
1
 40
1
 40
1
 10
220.555913
 20
583.588750
 30
0.0
 10
222.103165
 20
584.482293
 30
0.0
 10
223.056029
 20
586.133547
 30
0.0
 10
223.055428
 20
587.920268
 30
0.0
  0
LWPOLYLINE
  5
130
100
AcDbEntity
  8
0
 62
7
100
AcDbPolyline
 90
8
 70
1
 10
3.699048
 20
227.417820
 30
0.0
 10
3.699048
 20
597.417808
 30
0.0
 10
103.699048
 20
597.417808
 30
0.0
 10
103.699048
 20
227.417820
 30
0.0
 10
3.699048
 20
227.417820
 30
0.0
 10
3.699048
 20
227.417820
 30
0.0
 10
3.699048
 20
227.417820
 30
0.0
 10
3.699048
 20
227.417820
 30
0.0
  0
LWPOLYLINE
  5
131
100
AcDbEntity
  8
0
 62
7
100
AcDbPolyline
 90
8
 70
1
 10
205.873666
 20
597.417808
 30
0.0
 10
205.873666
 20
227.417820
 30
0.0
 10
105.873666
 20
227.417820
 30
0.0
 10
105.873666
 20
597.417808
 30
0.0
 10
205.873666
 20
597.417808
 30
0.0
 10
205.873666
 20
597.417808
 30
0.0
 10
205.873666
 20
597.417808
 30
0.0
 10
205.873666
 20
597.417808
 30
0.0
  0
LWPOLYLINE
  5
132
100
AcDbEntity
  8
0
 62
7
100
AcDbPolyline
 90
4
 70
1
 10
223.055428
 20
587.920268
 30
0.0
 10
223.055428
 20
587.920268
 30
0.0
 10
223.055428
 20
587.920268
 30
0.0
 10
223.055428
 20
587.920268
 30
0.0
  0
LWPOLYLINE
  5
133
100
AcDbEntity
  8
0
 62
7
100
AcDbPolyline
 90
8
 70
1
 10
208.055430
 20
497.920267
 30
0.0
 10
208.055430
 20
597.920248
 30
0.0
 10
308.055433
 20
597.920248
 30
0.0
 10
308.055433
 20
497.920267
 30
0.0
 10
208.055430
 20
497.920267
 30
0.0
 10
208.055430
 20
497.920267
 30
0.0
 10
208.055430
 20
497.920267
 30
0.0
 10
208.055430
 20
497.920267
 30
0.0
  0
LWPOLYLINE
  5
134
100
AcDbEntity
  8
0
 62
7
100
AcDbPolyline
 90
8
 70
1
 10
308.429265
 20
444.242795
 30
0.0
 10
212.429259
 20
444.242795
 30
0.0
 10
212.429259
 20
394.242796
 30
0.0
 10
308.429265
 20
394.242796
 30
0.0
 10
308.429265
 20
444.242795
 30
0.0
 10
308.429265
 20
444.242795
 30
0.0
 10
308.429265
 20
444.242795
 30
0.0
 10
308.429265
 20
444.242795
 30
0.0
  0
LWPOLYLINE
  5
135
100
AcDbEntity
  8
0
 62
7
100
AcDbPolyline
 90
8
 70
1
 10
208.429262
 20
496.242795
 30
0.0
 10
312.429257
 20
496.242795
 30
0.0
 10
312.429257
 20
392.242794
 30
0.0
 10
208.429262
 20
392.242794
 30
0.0
 10
208.429262
 20
496.242795
 30
0.0
 10
208.429262
 20
496.242795
 30
0.0
 10
208.429262
 20
496.242795
 30
0.0
 10
208.429262
 20
496.242795
 30
0.0
  0
LWPOLYLINE
  5
136
100
AcDbEntity
  8
0
 62
7
100
AcDbPolyline
 90
8
 70
1
 10
312.398156
 20
286.858518
 30
0.0
 10
208.398164
 20
286.858518
 30
0.0
 10
208.398164
 20
390.858519
 30
0.0
 10
312.398156
 20
390.858519
 30
0.0
 10
312.398156
 20
286.858518
 30
0.0
 10
312.398156
 20
286.858518
 30
0.0
 10
312.398156
 20
286.858518
 30
0.0
 10
312.398156
 20
286.858518
 30
0.0
  0
LWPOLYLINE
  5
137
100
AcDbEntity
  8
0
 62
7
100
AcDbPolyline
 90
8
 70
1
 10
309.641296
 20
227.417820
 30
0.0
 10
209.641310
 20
227.417820
 30
0.0
 10
209.641310
 20
279.417819
 30
0.0
 10
309.641296
 20
279.417819
 30
0.0
 10
309.641296
 20
227.417820
 30
0.0
 10
309.641296
 20
227.417820
 30
0.0
 10
309.641296
 20
227.417820
 30
0.0
 10
309.641296
 20
227.417820
 30
0.0
  0
ENDSEC
  0
SECTION
  2
OBJECTS
  0
DICTIONARY
  5
C
330
0
100
AcDbDictionary
  3
ACAD_GROUP
350
D
  3
ACAD_MLINESTYLE
350
17
  0
DICTIONARY
  5
D
330
C
100
AcDbDictionary
  0
DICTIONARY
  5
1A
330
C
100
AcDbDictionary
  0
DICTIONARY
  5
17
330
C
100
AcDbDictionary
  3
STANDARD
350
18
  0
DICTIONARY
  5
19
330
C
100
AcDbDictionary
  0
ENDSEC
  0
EOF
