  0
SECTION
  2
HEADER
  9
$ACADVER
  1
AC1014
  9
$HANDSEED
  5
FFFF
  9
$MEASUREMENT
 70
     1
  0
ENDSEC
  0
SECTION
  2
TABLES
  0
TABLE
  2
VPORT
  5
8
330
0
100
AcDbSymbolTable
 70
     4
  0
VPORT
  5
2E
330
8
100
AcDbSymbolTableRecord
100
AcDbViewportTableRecord
  2
*ACTIVE
 70
     0
 10
0.0
 20
0.0
 11
1.0
 21
1.0
 12
210.0
 22
148.5
 13
0.0
 23
0.0
 14
10.0
 24
10.0
 15
10.0
 25
10.0
 16
0.0
 26
0.0
 36
1.0
 17
0.0
 27
0.0
 37
0.0
 40
341.0
 41
1.24
 42
50.0
 43
0.0
 44
0.0
 50
0.0
 51
0.0
 71
     0
 72
   100
 73
     1
 74
     3
 75
     0
 76
     0
 77
     0
 78
     0
  0
ENDTAB
  0
TABLE
  2
LTYPE
  5
5
330
0
100
AcDbSymbolTable
 70
     1
  0
LTYPE
  5
14
330
5
100
AcDbSymbolTableRecord
100
AcDbLinetypeTableRecord
  2
BYBLOCK
 70
     0
  3

 72
    65
 73
     0
 40
0.0
  0
LTYPE
  5
15
330
5
100
AcDbSymbolTableRecord
100
AcDbLinetypeTableRecord
  2
BYLAYER
 70
     0
  3

 72
    65
 73
     0
 40
0.0
  0
LTYPE
  5
16
330
5
100
AcDbSymbolTableRecord
100
AcDbLinetypeTableRecord
  2
CONTINUOUS
 70
     0
  3
Solid line
 72
    65
 73
     0
 40
0.0
  0
ENDTAB
  0
TABLE
  2
LAYER
  5
2
100
AcDbSymbolTable
 70
1
  0
LAYER
  5
50
100
AcDbSymbolTableRecord
100
AcDbLayerTableRecord
  2
0
 70
0
  6
CONTINUOUS
  0
ENDTAB
  0
TABLE
  2
STYLE
  5
3
330
0
100
AcDbSymbolTable
 70
     1
  0
STYLE
  5
11
330
3
100
AcDbSymbolTableRecord
100
AcDbTextStyleTableRecord
  2
STANDARD
 70
     0
 40
0.0
 41
1.0
 50
0.0
 71
     0
 42
2.5
  3
txt
  4

  0
ENDTAB
  0
TABLE
  2
VIEW
  5
6
330
0
100
AcDbSymbolTable
 70
     0
  0
ENDTAB
  0
TABLE
  2
UCS
  5
7
330
0
100
AcDbSymbolTable
 70
     0
  0
ENDTAB
  0
TABLE
  2
APPID
  5
9
330
0
100
AcDbSymbolTable
 70
     2
  0
APPID
  5
12
330
9
100
AcDbSymbolTableRecord
100
AcDbRegAppTableRecord
  2
ACAD
 70
     0
  0
ENDTAB
  0
TABLE
  2
DIMSTYLE
  5
A
330
0
100
AcDbSymbolTable
 70
     1
  0
DIMSTYLE
105
27
330
A
100
AcDbSymbolTableRecord
100
AcDbDimStyleTableRecord
  2
ISO-25
 70
     0
  3

  4

  5

  6

  7

 40
1.0
 41
2.5
 42
0.625
 43
3.75
 44
1.25
 45
0.0
 46
0.0
 47
0.0
 48
0.0
140
2.5
141
2.5
142
0.0
143
0.03937007874016
144
1.0
145
0.0
146
1.0
147
0.625
 71
     0
 72
     0
 73
     0
 74
     0
 75
     0
 76
     0
 77
     1
 78
     8
170
     0
171
     3
172
     1
173
     0
174
     0
175
     0
176
     0
177
     0
178
     0
270
     2
271
     2
272
     2
273
     2
274
     3
340
11
275
     0
280
     0
281
     0
282
     0
283
     0
284
     8
285
     0
286
     0
287
     3
288
     0
  0
ENDTAB
  0
TABLE
  2
BLOCK_RECORD
  5
1
330
0
100
AcDbSymbolTable
 70
     1
  0
BLOCK_RECORD
  5
1F
330
1
100
AcDbSymbolTableRecord
100
AcDbBlockTableRecord
  2
*MODEL_SPACE
  0
BLOCK_RECORD
  5
1B
330
1
100
AcDbSymbolTableRecord
100
AcDbBlockTableRecord
  2
*PAPER_SPACE
  0
ENDTAB
  0
ENDSEC
  0
SECTION
  2
BLOCKS
  0
BLOCK
  5
20
330
1F
100
AcDbEntity
  8
0
100
AcDbBlockBegin
  2
*MODEL_SPACE
 70
     0
 10
0.0
 20
0.0
 30
0.0
  3
*MODEL_SPACE
  1

  0
ENDBLK
  5
21
330
1F
100
AcDbEntity
  8
0
100
AcDbBlockEnd
  0
BLOCK
  5
1C
330
1B
100
AcDbEntity
 67
     1
  8
0
100
AcDbBlockBegin
  2
*PAPER_SPACE
  1

  0
ENDBLK
  5
1D
330
1B
100
AcDbEntity
 67
     1
  8
0
100
AcDbBlockEnd
  0
ENDSEC
  0
SECTION
  2
ENTITIES
  0
LWPOLYLINE
  5
100
100
AcDbEntity
  8
0
 62
7
100
AcDbPolyline
 90
6
 70
1
 10
108.300627
 20
595.731050
 30
0.0
 10
108.300627
 20
225.731040
 30
0.0
 10
4.300626
 20
225.731040
 30
0.0
 10
4.300626
 20
595.731050
 30
0.0
 10
108.300627
 20
595.731050
 30
0.0
 10
108.300627
 20
595.731050
 30
0.0
  0
SPLINE
  5
101
100
AcDbEntity
  8
0
 62
7
100
AcDbSpline
 70
8
 71
3
 72
8
 73
4
 74
0
 40
0
 40
0
 40
0
 40
0
 40
1
 40
1
 40
1
 40
1
 10
245.247939
 20
579.731026
 30
0.0
 10
245.253092
 20
583.843010
 30
0.0
 10
243.062334
 20
587.644846
 30
0.0
 10
239.502108
 20
589.702327
 30
0.0
  0
SPLINE
  5
102
100
AcDbEntity
  8
0
 62
7
100
AcDbSpline
 70
8
 71
3
 72
8
 73
4
 74
0
 40
0
 40
0
 40
0
 40
0
 40
1
 40
1
 40
1
 40
1
 10
239.502108
 20
589.702327
 30
0.0
 10
235.941882
 20
591.759809
 30
0.0
 10
231.554014
 20
591.759809
 30
0.0
 10
227.993788
 20
589.702327
 30
0.0
  0
SPLINE
  5
103
100
AcDbEntity
  8
0
 62
7
100
AcDbSpline
 70
8
 71
3
 72
8
 73
4
 74
0
 40
0
 40
0
 40
0
 40
0
 40
1
 40
1
 40
1
 40
1
 10
227.993788
 20
589.702327
 30
0.0
 10
224.433562
 20
587.644846
 30
0.0
 10
222.242803
 20
583.843010
 30
0.0
 10
222.247957
 20
579.731026
 30
0.0
  0
SPLINE
  5
104
100
AcDbEntity
  8
0
 62
7
100
AcDbSpline
 70
8
 71
3
 72
8
 73
4
 74
0
 40
0
 40
0
 40
0
 40
0
 40
1
 40
1
 40
1
 40
1
 10
222.247957
 20
579.731026
 30
0.0
 10
222.242803
 20
575.619042
 30
0.0
 10
224.433562
 20
571.817205
 30
0.0
 10
227.993788
 20
569.759724
 30
0.0
  0
SPLINE
  5
105
100
AcDbEntity
  8
0
 62
7
100
AcDbSpline
 70
8
 71
3
 72
8
 73
4
 74
0
 40
0
 40
0
 40
0
 40
0
 40
1
 40
1
 40
1
 40
1
 10
227.993788
 20
569.759724
 30
0.0
 10
231.554014
 20
567.702243
 30
0.0
 10
235.941882
 20
567.702243
 30
0.0
 10
239.502108
 20
569.759724
 30
0.0
  0
SPLINE
  5
106
100
AcDbEntity
  8
0
 62
7
100
AcDbSpline
 70
8
 71
3
 72
8
 73
4
 74
0
 40
0
 40
0
 40
0
 40
0
 40
1
 40
1
 40
1
 40
1
 10
239.502108
 20
569.759724
 30
0.0
 10
243.062334
 20
571.817205
 30
0.0
 10
245.253092
 20
575.619042
 30
0.0
 10
245.247939
 20
579.731026
 30
0.0
  0
LWPOLYLINE
  5
107
100
AcDbEntity
  8
0
 62
7
100
AcDbPolyline
 90
6
 70
1
 10
111.736892
 20
225.731040
 30
0.0
 10
111.736892
 20
595.731050
 30
0.0
 10
215.736892
 20
595.731050
 30
0.0
 10
215.736892
 20
225.731040
 30
0.0
 10
111.736892
 20
225.731040
 30
0.0
 10
111.736892
 20
225.731040
 30
0.0
  0
LWPOLYLINE
  5
108
100
AcDbEntity
  8
0
 62
7
100
AcDbPolyline
 90
2
 70
1
 10
245.247939
 20
579.731026
 30
0.0
 10
245.247939
 20
579.731026
 30
0.0
  0
LWPOLYLINE
  5
109
100
AcDbEntity
  8
0
 62
7
100
AcDbPolyline
 90
6
 70
1
 10
217.747952
 20
565.731040
 30
0.0
 10
217.747952
 20
595.731050
 30
0.0
 10
249.747944
 20
595.731050
 30
0.0
 10
249.747944
 20
565.731040
 30
0.0
 10
217.747952
 20
565.731040
 30
0.0
 10
217.747952
 20
565.731040
 30
0.0
  0
LWPOLYLINE
  5
10a
100
AcDbEntity
  8
0
 62
7
100
AcDbPolyline
 90
6
 70
1
 10
252.904797
 20
595.731050
 30
0.0
 10
263.904803
 20
595.731050
 30
0.0
 10
263.904803
 20
567.731038
 30
0.0
 10
252.904797
 20
567.731038
 30
0.0
 10
252.904797
 20
595.731050
 30
0.0
 10
252.904797
 20
595.731050
 30
0.0
  0
LWPOLYLINE
  5
10b
100
AcDbEntity
  8
0
 62
7
100
AcDbPolyline
 90
6
 70
1
 10
277.182089
 20
595.731050
 30
0.0
 10
277.182089
 20
565.731040
 30
0.0
 10
266.182083
 20
565.731040
 30
0.0
 10
266.182083
 20
595.731050
 30
0.0
 10
277.182089
 20
595.731050
 30
0.0
 10
277.182089
 20
595.731050
 30
0.0
  0
SPLINE
  5
10c
100
AcDbEntity
  8
0
 62
7
100
AcDbSpline
 70
8
 71
3
 72
8
 73
4
 74
0
 40
0
 40
0
 40
0
 40
0
 40
1
 40
1
 40
1
 40
1
 10
273.559456
 20
547.605205
 30
0.0
 10
273.560167
 20
547.962943
 30
0.0
 10
273.369724
 20
548.293811
 30
0.0
 10
273.060032
 20
548.472886
 30
0.0
  0
SPLINE
  5
10d
100
AcDbEntity
  8
0
 62
7
100
AcDbSpline
 70
8
 71
3
 72
8
 73
4
 74
0
 40
0
 40
0
 40
0
 40
0
 40
1
 40
1
 40
1
 40
1
 10
273.060032
 20
548.472886
 30
0.0
 10
272.750339
 20
548.651961
 30
0.0
 10
272.368577
 20
548.651961
 30
0.0
 10
272.058885
 20
548.472886
 30
0.0
  0
SPLINE
  5
10e
100
AcDbEntity
  8
0
 62
7
100
AcDbSpline
 70
8
 71
3
 72
8
 73
4
 74
0
 40
0
 40
0
 40
0
 40
0
 40
1
 40
1
 40
1
 40
1
 10
272.058885
 20
548.472886
 30
0.0
 10
271.749192
 20
548.293811
 30
0.0
 10
271.558749
 20
547.962943
 30
0.0
 10
271.559460
 20
547.605205
 30
0.0
  0
SPLINE
  5
10f
100
AcDbEntity
  8
0
 62
7
100
AcDbSpline
 70
8
 71
3
 72
8
 73
4
 74
0
 40
0
 40
0
 40
0
 40
0
 40
1
 40
1
 40
1
 40
1
 10
271.559460
 20
547.605205
 30
0.0
 10
271.558749
 20
547.247466
 30
0.0
 10
271.749192
 20
546.916598
 30
0.0
 10
272.058885
 20
546.737523
 30
0.0
  0
SPLINE
  5
110
100
AcDbEntity
  8
0
 62
7
100
AcDbSpline
 70
8
 71
3
 72
8
 73
4
 74
0
 40
0
 40
0
 40
0
 40
0
 40
1
 40
1
 40
1
 40
1
 10
272.058885
 20
546.737523
 30
0.0
 10
272.368577
 20
546.558448
 30
0.0
 10
272.750339
 20
546.558448
 30
0.0
 10
273.060032
 20
546.737523
 30
0.0
  0
SPLINE
  5
111
100
AcDbEntity
  8
0
 62
7
100
AcDbSpline
 70
8
 71
3
 72
8
 73
4
 74
0
 40
0
 40
0
 40
0
 40
0
 40
1
 40
1
 40
1
 40
1
 10
273.060032
 20
546.737523
 30
0.0
 10
273.369724
 20
546.916598
 30
0.0
 10
273.560167
 20
547.247466
 30
0.0
 10
273.559456
 20
547.605205
 30
0.0
  0
LWPOLYLINE
  5
112
100
AcDbEntity
  8
0
 62
7
100
AcDbPolyline
 90
6
 70
1
 10
290.092582
 20
565.731040
 30
0.0
 10
279.092564
 20
565.731040
 30
0.0
 10
279.092564
 20
595.731050
 30
0.0
 10
290.092582
 20
595.731050
 30
0.0
 10
290.092582
 20
565.731040
 30
0.0
 10
290.092582
 20
565.731040
 30
0.0
  0
SPLINE
  5
113
100
AcDbEntity
  8
0
 62
7
100
AcDbSpline
 70
8
 71
3
 72
8
 73
4
 74
0
 40
0
 40
0
 40
0
 40
0
 40
1
 40
1
 40
1
 40
1
 10
284.661017
 20
533.397534
 30
0.0
 10
284.661728
 20
533.755272
 30
0.0
 10
284.471286
 20
534.086141
 30
0.0
 10
284.161593
 20
534.265216
 30
0.0
  0
SPLINE
  5
114
100
AcDbEntity
  8
0
 62
7
100
AcDbSpline
 70
8
 71
3
 72
8
 73
4
 74
0
 40
0
 40
0
 40
0
 40
0
 40
1
 40
1
 40
1
 40
1
 10
284.161593
 20
534.265216
 30
0.0
 10
283.851900
 20
534.444290
 30
0.0
 10
283.470138
 20
534.444290
 30
0.0
 10
283.160446
 20
534.265216
 30
0.0
  0
SPLINE
  5
115
100
AcDbEntity
  8
0
 62
7
100
AcDbSpline
 70
8
 71
3
 72
8
 73
4
 74
0
 40
0
 40
0
 40
0
 40
0
 40
1
 40
1
 40
1
 40
1
 10
283.160446
 20
534.265216
 30
0.0
 10
282.850753
 20
534.086141
 30
0.0
 10
282.660310
 20
533.755272
 30
0.0
 10
282.661021
 20
533.397534
 30
0.0
  0
SPLINE
  5
116
100
AcDbEntity
  8
0
 62
7
100
AcDbSpline
 70
8
 71
3
 72
8
 73
4
 74
0
 40
0
 40
0
 40
0
 40
0
 40
1
 40
1
 40
1
 40
1
 10
282.661021
 20
533.397534
 30
0.0
 10
282.660310
 20
533.039796
 30
0.0
 10
282.850753
 20
532.708927
 30
0.0
 10
283.160446
 20
532.529852
 30
0.0
  0
SPLINE
  5
117
100
AcDbEntity
  8
0
 62
7
100
AcDbSpline
 70
8
 71
3
 72
8
 73
4
 74
0
 40
0
 40
0
 40
0
 40
0
 40
1
 40
1
 40
1
 40
1
 10
283.160446
 20
532.529852
 30
0.0
 10
283.470138
 20
532.350778
 30
0.0
 10
283.851900
 20
532.350778
 30
0.0
 10
284.161593
 20
532.529852
 30
0.0
  0
SPLINE
  5
118
100
AcDbEntity
  8
0
 62
7
100
AcDbSpline
 70
8
 71
3
 72
8
 73
4
 74
0
 40
0
 40
0
 40
0
 40
0
 40
1
 40
1
 40
1
 40
1
 10
284.161593
 20
532.529852
 30
0.0
 10
284.471286
 20
532.708927
 30
0.0
 10
284.661728
 20
533.039796
 30
0.0
 10
284.661017
 20
533.397534
 30
0.0
  0
LWPOLYLINE
  5
119
100
AcDbEntity
  8
0
 62
7
100
AcDbPolyline
 90
2
 70
1
 10
273.559456
 20
547.605205
 30
0.0
 10
273.559456
 20
547.605205
 30
0.0
  0
SPLINE
  5
11a
100
AcDbEntity
  8
0
 62
7
100
AcDbSpline
 70
8
 71
3
 72
8
 73
4
 74
0
 40
0
 40
0
 40
0
 40
0
 40
1
 40
1
 40
1
 40
1
 10
295.339996
 20
488.991369
 30
0.0
 10
295.339996
 20
489.259320
 30
0.0
 10
295.197046
 20
489.506917
 30
0.0
 10
294.964993
 20
489.640893
 30
0.0
  0
SPLINE
  5
11b
100
AcDbEntity
  8
0
 62
7
100
AcDbSpline
 70
8
 71
3
 72
8
 73
4
 74
0
 40
0
 40
0
 40
0
 40
0
 40
1
 40
1
 40
1
 40
1
 10
294.964993
 20
489.640893
 30
0.0
 10
294.732940
 20
489.774868
 30
0.0
 10
294.447040
 20
489.774868
 30
0.0
 10
294.214987
 20
489.640893
 30
0.0
  0
SPLINE
  5
11c
100
AcDbEntity
  8
0
 62
7
100
AcDbSpline
 70
8
 71
3
 72
8
 73
4
 74
0
 40
0
 40
0
 40
0
 40
0
 40
1
 40
1
 40
1
 40
1
 10
294.214987
 20
489.640893
 30
0.0
 10
293.982935
 20
489.506917
 30
0.0
 10
293.839985
 20
489.259320
 30
0.0
 10
293.839985
 20
488.991369
 30
0.0
  0
SPLINE
  5
11d
100
AcDbEntity
  8
0
 62
7
100
AcDbSpline
 70
8
 71
3
 72
8
 73
4
 74
0
 40
0
 40
0
 40
0
 40
0
 40
1
 40
1
 40
1
 40
1
 10
293.839985
 20
488.991369
 30
0.0
 10
293.839985
 20
488.723418
 30
0.0
 10
293.982935
 20
488.475820
 30
0.0
 10
294.214987
 20
488.341845
 30
0.0
  0
SPLINE
  5
11e
100
AcDbEntity
  8
0
 62
7
100
AcDbSpline
 70
8
 71
3
 72
8
 73
4
 74
0
 40
0
 40
0
 40
0
 40
0
 40
1
 40
1
 40
1
 40
1
 10
294.214987
 20
488.341845
 30
0.0
 10
294.447040
 20
488.207869
 30
0.0
 10
294.732940
 20
488.207869
 30
0.0
 10
294.964993
 20
488.341845
 30
0.0
  0
SPLINE
  5
11f
100
AcDbEntity
  8
0
 62
7
100
AcDbSpline
 70
8
 71
3
 72
8
 73
4
 74
0
 40
0
 40
0
 40
0
 40
0
 40
1
 40
1
 40
1
 40
1
 10
294.964993
 20
488.341845
 30
0.0
 10
295.197046
 20
488.475820
 30
0.0
 10
295.339996
 20
488.723418
 30
0.0
 10
295.339996
 20
488.991369
 30
0.0
  0
LWPOLYLINE
  5
120
100
AcDbEntity
  8
0
 62
7
100
AcDbPolyline
 90
2
 70
1
 10
284.661017
 20
533.397534
 30
0.0
 10
284.661017
 20
533.397534
 30
0.0
  0
SPLINE
  5
121
100
AcDbEntity
  8
0
 62
7
100
AcDbSpline
 70
8
 71
3
 72
8
 73
4
 74
0
 40
0
 40
0
 40
0
 40
0
 40
1
 40
1
 40
1
 40
1
 10
290.220626
 20
547.662724
 30
0.0
 10
290.221903
 20
547.931519
 30
0.0
 10
290.079235
 20
548.180445
 30
0.0
 10
289.846663
 20
548.315212
 30
0.0
  0
SPLINE
  5
122
100
AcDbEntity
  8
0
 62
7
100
AcDbSpline
 70
8
 71
3
 72
8
 73
4
 74
0
 40
0
 40
0
 40
0
 40
0
 40
1
 40
1
 40
1
 40
1
 10
289.846663
 20
548.315212
 30
0.0
 10
289.614090
 20
548.449980
 30
0.0
 10
289.327179
 20
548.449980
 30
0.0
 10
289.094606
 20
548.315212
 30
0.0
  0
SPLINE
  5
123
100
AcDbEntity
  8
0
 62
7
100
AcDbSpline
 70
8
 71
3
 72
8
 73
4
 74
0
 40
0
 40
0
 40
0
 40
0
 40
1
 40
1
 40
1
 40
1
 10
289.094606
 20
548.315212
 30
0.0
 10
288.862033
 20
548.180445
 30
0.0
 10
288.719366
 20
547.931519
 30
0.0
 10
288.720643
 20
547.662724
 30
0.0
  0
SPLINE
  5
124
100
AcDbEntity
  8
0
 62
7
100
AcDbSpline
 70
8
 71
3
 72
8
 73
4
 74
0
 40
0
 40
0
 40
0
 40
0
 40
1
 40
1
 40
1
 40
1
 10
288.720643
 20
547.662724
 30
0.0
 10
288.719366
 20
547.393929
 30
0.0
 10
288.862033
 20
547.145004
 30
0.0
 10
289.094606
 20
547.010236
 30
0.0
  0
SPLINE
  5
125
100
AcDbEntity
  8
0
 62
7
100
AcDbSpline
 70
8
 71
3
 72
8
 73
4
 74
0
 40
0
 40
0
 40
0
 40
0
 40
1
 40
1
 40
1
 40
1
 10
289.094606
 20
547.010236
 30
0.0
 10
289.327179
 20
546.875469
 30
0.0
 10
289.614090
 20
546.875469
 30
0.0
 10
289.846663
 20
547.010236
 30
0.0
  0
SPLINE
  5
126
100
AcDbEntity
  8
0
 62
7
100
AcDbSpline
 70
8
 71
3
 72
8
 73
4
 74
0
 40
0
 40
0
 40
0
 40
0
 40
1
 40
1
 40
1
 40
1
 10
289.846663
 20
547.010236
 30
0.0
 10
290.079235
 20
547.145004
 30
0.0
 10
290.221903
 20
547.393929
 30
0.0
 10
290.220626
 20
547.662724
 30
0.0
  0
LWPOLYLINE
  5
127
100
AcDbEntity
  8
0
 62
7
100
AcDbPolyline
 90
2
 70
1
 10
295.339996
 20
488.991369
 30
0.0
 10
295.339996
 20
488.991369
 30
0.0
  0
SPLINE
  5
128
100
AcDbEntity
  8
0
 62
7
100
AcDbSpline
 70
8
 71
3
 72
8
 73
4
 74
0
 40
0
 40
0
 40
0
 40
0
 40
1
 40
1
 40
1
 40
1
 10
275.322696
 20
524.021621
 30
0.0
 10
275.322696
 20
524.289572
 30
0.0
 10
275.179746
 20
524.537169
 30
0.0
 10
274.947693
 20
524.671145
 30
0.0
  0
SPLINE
  5
129
100
AcDbEntity
  8
0
 62
7
100
AcDbSpline
 70
8
 71
3
 72
8
 73
4
 74
0
 40
0
 40
0
 40
0
 40
0
 40
1
 40
1
 40
1
 40
1
 10
274.947693
 20
524.671145
 30
0.0
 10
274.715641
 20
524.805120
 30
0.0
 10
274.429740
 20
524.805120
 30
0.0
 10
274.197688
 20
524.671145
 30
0.0
  0
SPLINE
  5
12a
100
AcDbEntity
  8
0
 62
7
100
AcDbSpline
 70
8
 71
3
 72
8
 73
4
 74
0
 40
0
 40
0
 40
0
 40
0
 40
1
 40
1
 40
1
 40
1
 10
274.197688
 20
524.671145
 30
0.0
 10
273.965635
 20
524.537169
 30
0.0
 10
273.822685
 20
524.289572
 30
0.0
 10
273.822685
 20
524.021621
 30
0.0
  0
SPLINE
  5
12b
100
AcDbEntity
  8
0
 62
7
100
AcDbSpline
 70
8
 71
3
 72
8
 73
4
 74
0
 40
0
 40
0
 40
0
 40
0
 40
1
 40
1
 40
1
 40
1
 10
273.822685
 20
524.021621
 30
0.0
 10
273.822685
 20
523.607404
 30
0.0
 10
274.158474
 20
523.271615
 30
0.0
 10
274.572690
 20
523.271615
 30
0.0
  0
SPLINE
  5
12c
100
AcDbEntity
  8
0
 62
7
100
AcDbSpline
 70
8
 71
3
 72
8
 73
4
 74
0
 40
0
 40
0
 40
0
 40
0
 40
1
 40
1
 40
1
 40
1
 10
274.572690
 20
523.271615
 30
0.0
 10
274.986907
 20
523.271615
 30
0.0
 10
275.322696
 20
523.607404
 30
0.0
 10
275.322696
 20
524.021621
 30
0.0
  0
LWPOLYLINE
  5
12d
100
AcDbEntity
  8
0
 62
7
100
AcDbPolyline
 90
2
 70
1
 10
290.220626
 20
547.662724
 30
0.0
 10
290.220626
 20
547.662724
 30
0.0
  0
SPLINE
  5
12e
100
AcDbEntity
  8
0
 62
7
100
AcDbSpline
 70
8
 71
3
 72
8
 73
4
 74
0
 40
0
 40
0
 40
0
 40
0
 40
1
 40
1
 40
1
 40
1
 10
268.477706
 20
512.114786
 30
0.0
 10
268.477706
 20
512.382738
 30
0.0
 10
268.334756
 20
512.630335
 30
0.0
 10
268.102704
 20
512.764310
 30
0.0
  0
SPLINE
  5
12f
100
AcDbEntity
  8
0
 62
7
100
AcDbSpline
 70
8
 71
3
 72
8
 73
4
 74
0
 40
0
 40
0
 40
0
 40
0
 40
1
 40
1
 40
1
 40
1
 10
268.102704
 20
512.764310
 30
0.0
 10
267.870651
 20
512.898286
 30
0.0
 10
267.584751
 20
512.898286
 30
0.0
 10
267.352698
 20
512.764310
 30
0.0
  0
SPLINE
  5
130
100
AcDbEntity
  8
0
 62
7
100
AcDbSpline
 70
8
 71
3
 72
8
 73
4
 74
0
 40
0
 40
0
 40
0
 40
0
 40
1
 40
1
 40
1
 40
1
 10
267.352698
 20
512.764310
 30
0.0
 10
267.120646
 20
512.630335
 30
0.0
 10
266.977695
 20
512.382738
 30
0.0
 10
266.977695
 20
512.114786
 30
0.0
  0
SPLINE
  5
131
100
AcDbEntity
  8
0
 62
7
100
AcDbSpline
 70
8
 71
3
 72
8
 73
4
 74
0
 40
0
 40
0
 40
0
 40
0
 40
1
 40
1
 40
1
 40
1
 10
266.977695
 20
512.114786
 30
0.0
 10
266.977695
 20
511.846835
 30
0.0
 10
267.120646
 20
511.599238
 30
0.0
 10
267.352698
 20
511.465263
 30
0.0
  0
SPLINE
  5
132
100
AcDbEntity
  8
0
 62
7
100
AcDbSpline
 70
8
 71
3
 72
8
 73
4
 74
0
 40
0
 40
0
 40
0
 40
0
 40
1
 40
1
 40
1
 40
1
 10
267.352698
 20
511.465263
 30
0.0
 10
267.584751
 20
511.331287
 30
0.0
 10
267.870651
 20
511.331287
 30
0.0
 10
268.102704
 20
511.465263
 30
0.0
  0
SPLINE
  5
133
100
AcDbEntity
  8
0
 62
7
100
AcDbSpline
 70
8
 71
3
 72
8
 73
4
 74
0
 40
0
 40
0
 40
0
 40
0
 40
1
 40
1
 40
1
 40
1
 10
268.102704
 20
511.465263
 30
0.0
 10
268.334756
 20
511.599238
 30
0.0
 10
268.477706
 20
511.846835
 30
0.0
 10
268.477706
 20
512.114786
 30
0.0
  0
LWPOLYLINE
  5
134
100
AcDbEntity
  8
0
 62
7
100
AcDbPolyline
 90
2
 70
1
 10
275.322696
 20
524.021621
 30
0.0
 10
275.322696
 20
524.021621
 30
0.0
  0
SPLINE
  5
135
100
AcDbEntity
  8
0
 62
7
100
AcDbSpline
 70
8
 71
3
 72
8
 73
4
 74
0
 40
0
 40
0
 40
0
 40
0
 40
1
 40
1
 40
1
 40
1
 10
277.220894
 20
493.880649
 30
0.0
 10
277.220894
 20
494.148600
 30
0.0
 10
277.077944
 20
494.396197
 30
0.0
 10
276.845892
 20
494.530172
 30
0.0
  0
SPLINE
  5
136
100
AcDbEntity
  8
0
 62
7
100
AcDbSpline
 70
8
 71
3
 72
8
 73
4
 74
0
 40
0
 40
0
 40
0
 40
0
 40
1
 40
1
 40
1
 40
1
 10
276.845892
 20
494.530172
 30
0.0
 10
276.613839
 20
494.664148
 30
0.0
 10
276.327939
 20
494.664148
 30
0.0
 10
276.095886
 20
494.530172
 30
0.0
  0
SPLINE
  5
137
100
AcDbEntity
  8
0
 62
7
100
AcDbSpline
 70
8
 71
3
 72
8
 73
4
 74
0
 40
0
 40
0
 40
0
 40
0
 40
1
 40
1
 40
1
 40
1
 10
276.095886
 20
494.530172
 30
0.0
 10
275.863834
 20
494.396197
 30
0.0
 10
275.720883
 20
494.148600
 30
0.0
 10
275.720883
 20
493.880649
 30
0.0
  0
SPLINE
  5
138
100
AcDbEntity
  8
0
 62
7
100
AcDbSpline
 70
8
 71
3
 72
8
 73
4
 74
0
 40
0
 40
0
 40
0
 40
0
 40
1
 40
1
 40
1
 40
1
 10
275.720883
 20
493.880649
 30
0.0
 10
275.720883
 20
493.612697
 30
0.0
 10
275.863834
 20
493.365100
 30
0.0
 10
276.095886
 20
493.231125
 30
0.0
  0
SPLINE
  5
139
100
AcDbEntity
  8
0
 62
7
100
AcDbSpline
 70
8
 71
3
 72
8
 73
4
 74
0
 40
0
 40
0
 40
0
 40
0
 40
1
 40
1
 40
1
 40
1
 10
276.095886
 20
493.231125
 30
0.0
 10
276.327939
 20
493.097149
 30
0.0
 10
276.613839
 20
493.097149
 30
0.0
 10
276.845892
 20
493.231125
 30
0.0
  0
SPLINE
  5
13a
100
AcDbEntity
  8
0
 62
7
100
AcDbSpline
 70
8
 71
3
 72
8
 73
4
 74
0
 40
0
 40
0
 40
0
 40
0
 40
1
 40
1
 40
1
 40
1
 10
276.845892
 20
493.231125
 30
0.0
 10
277.077944
 20
493.365100
 30
0.0
 10
277.220894
 20
493.612697
 30
0.0
 10
277.220894
 20
493.880649
 30
0.0
  0
LWPOLYLINE
  5
13b
100
AcDbEntity
  8
0
 62
7
100
AcDbPolyline
 90
2
 70
1
 10
268.477706
 20
512.114786
 30
0.0
 10
268.477706
 20
512.114786
 30
0.0
  0
SPLINE
  5
13c
100
AcDbEntity
  8
0
 62
7
100
AcDbSpline
 70
8
 71
3
 72
8
 73
4
 74
0
 40
0
 40
0
 40
0
 40
0
 40
1
 40
1
 40
1
 40
1
 10
271.123681
 20
499.575221
 30
0.0
 10
271.123681
 20
499.843172
 30
0.0
 10
270.980731
 20
500.090770
 30
0.0
 10
270.748678
 20
500.224745
 30
0.0
  0
SPLINE
  5
13d
100
AcDbEntity
  8
0
 62
7
100
AcDbSpline
 70
8
 71
3
 72
8
 73
4
 74
0
 40
0
 40
0
 40
0
 40
0
 40
1
 40
1
 40
1
 40
1
 10
270.748678
 20
500.224745
 30
0.0
 10
270.516626
 20
500.358721
 30
0.0
 10
270.230725
 20
500.358721
 30
0.0
 10
269.998673
 20
500.224745
 30
0.0
  0
SPLINE
  5
13e
100
AcDbEntity
  8
0
 62
7
100
AcDbSpline
 70
8
 71
3
 72
8
 73
4
 74
0
 40
0
 40
0
 40
0
 40
0
 40
1
 40
1
 40
1
 40
1
 10
269.998673
 20
500.224745
 30
0.0
 10
269.766620
 20
500.090770
 30
0.0
 10
269.623670
 20
499.843172
 30
0.0
 10
269.623670
 20
499.575221
 30
0.0
  0
SPLINE
  5
13f
100
AcDbEntity
  8
0
 62
7
100
AcDbSpline
 70
8
 71
3
 72
8
 73
4
 74
0
 40
0
 40
0
 40
0
 40
0
 40
1
 40
1
 40
1
 40
1
 10
269.623670
 20
499.575221
 30
0.0
 10
269.623670
 20
499.307270
 30
0.0
 10
269.766620
 20
499.059673
 30
0.0
 10
269.998673
 20
498.925697
 30
0.0
  0
SPLINE
  5
140
100
AcDbEntity
  8
0
 62
7
100
AcDbSpline
 70
8
 71
3
 72
8
 73
4
 74
0
 40
0
 40
0
 40
0
 40
0
 40
1
 40
1
 40
1
 40
1
 10
269.998673
 20
498.925697
 30
0.0
 10
270.230725
 20
498.791722
 30
0.0
 10
270.516626
 20
498.791722
 30
0.0
 10
270.748678
 20
498.925697
 30
0.0
  0
SPLINE
  5
141
100
AcDbEntity
  8
0
 62
7
100
AcDbSpline
 70
8
 71
3
 72
8
 73
4
 74
0
 40
0
 40
0
 40
0
 40
0
 40
1
 40
1
 40
1
 40
1
 10
270.748678
 20
498.925697
 30
0.0
 10
270.980731
 20
499.059673
 30
0.0
 10
271.123681
 20
499.307270
 30
0.0
 10
271.123681
 20
499.575221
 30
0.0
  0
LWPOLYLINE
  5
142
100
AcDbEntity
  8
0
 62
7
100
AcDbPolyline
 90
2
 70
1
 10
277.220894
 20
493.880649
 30
0.0
 10
277.220894
 20
493.880649
 30
0.0
  0
SPLINE
  5
143
100
AcDbEntity
  8
0
 62
7
100
AcDbSpline
 70
8
 71
3
 72
8
 73
4
 74
0
 40
0
 40
0
 40
0
 40
0
 40
1
 40
1
 40
1
 40
1
 10
251.491344
 20
486.402928
 30
0.0
 10
251.491344
 20
486.849512
 30
0.0
 10
251.253094
 20
487.262172
 30
0.0
 10
250.866341
 20
487.485464
 30
0.0
  0
SPLINE
  5
144
100
AcDbEntity
  8
0
 62
7
100
AcDbSpline
 70
8
 71
3
 72
8
 73
4
 74
0
 40
0
 40
0
 40
0
 40
0
 40
1
 40
1
 40
1
 40
1
 10
250.866341
 20
487.485464
 30
0.0
 10
250.479589
 20
487.708756
 30
0.0
 10
250.003089
 20
487.708756
 30
0.0
 10
249.616337
 20
487.485464
 30
0.0
  0
SPLINE
  5
145
100
AcDbEntity
  8
0
 62
7
100
AcDbSpline
 70
8
 71
3
 72
8
 73
4
 74
0
 40
0
 40
0
 40
0
 40
0
 40
1
 40
1
 40
1
 40
1
 10
249.616337
 20
487.485464
 30
0.0
 10
249.229584
 20
487.262172
 30
0.0
 10
248.991334
 20
486.849512
 30
0.0
 10
248.991334
 20
486.402928
 30
0.0
  0
SPLINE
  5
146
100
AcDbEntity
  8
0
 62
7
100
AcDbSpline
 70
8
 71
3
 72
8
 73
4
 74
0
 40
0
 40
0
 40
0
 40
0
 40
1
 40
1
 40
1
 40
1
 10
248.991334
 20
486.402928
 30
0.0
 10
248.991334
 20
485.956344
 30
0.0
 10
249.229584
 20
485.543684
 30
0.0
 10
249.616337
 20
485.320392
 30
0.0
  0
SPLINE
  5
147
100
AcDbEntity
  8
0
 62
7
100
AcDbSpline
 70
8
 71
3
 72
8
 73
4
 74
0
 40
0
 40
0
 40
0
 40
0
 40
1
 40
1
 40
1
 40
1
 10
249.616337
 20
485.320392
 30
0.0
 10
250.003090
 20
485.097101
 30
0.0
 10
250.479589
 20
485.097101
 30
0.0
 10
250.866341
 20
485.320392
 30
0.0
  0
SPLINE
  5
148
100
AcDbEntity
  8
0
 62
7
100
AcDbSpline
 70
8
 71
3
 72
8
 73
4
 74
0
 40
0
 40
0
 40
0
 40
0
 40
1
 40
1
 40
1
 40
1
 10
250.866341
 20
485.320392
 30
0.0
 10
251.253094
 20
485.543684
 30
0.0
 10
251.491344
 20
485.956344
 30
0.0
 10
251.491344
 20
486.402928
 30
0.0
  0
LWPOLYLINE
  5
149
100
AcDbEntity
  8
0
 62
7
100
AcDbPolyline
 90
2
 70
1
 10
271.123681
 20
499.575221
 30
0.0
 10
271.123681
 20
499.575221
 30
0.0
  0
SPLINE
  5
14a
100
AcDbEntity
  8
0
 62
7
100
AcDbSpline
 70
8
 71
3
 72
8
 73
4
 74
0
 40
0
 40
0
 40
0
 40
0
 40
1
 40
1
 40
1
 40
1
 10
238.951787
 20
504.522024
 30
0.0
 10
238.951787
 20
504.968607
 30
0.0
 10
238.713537
 20
505.381268
 30
0.0
 10
238.326785
 20
505.604559
 30
0.0
  0
SPLINE
  5
14b
100
AcDbEntity
  8
0
 62
7
100
AcDbSpline
 70
8
 71
3
 72
8
 73
4
 74
0
 40
0
 40
0
 40
0
 40
0
 40
1
 40
1
 40
1
 40
1
 10
238.326785
 20
505.604559
 30
0.0
 10
237.940032
 20
505.827851
 30
0.0
 10
237.463533
 20
505.827851
 30
0.0
 10
237.076780
 20
505.604559
 30
0.0
  0
SPLINE
  5
14c
100
AcDbEntity
  8
0
 62
7
100
AcDbSpline
 70
8
 71
3
 72
8
 73
4
 74
0
 40
0
 40
0
 40
0
 40
0
 40
1
 40
1
 40
1
 40
1
 10
237.076780
 20
505.604559
 30
0.0
 10
236.690027
 20
505.381268
 30
0.0
 10
236.451778
 20
504.968607
 30
0.0
 10
236.451778
 20
504.522024
 30
0.0
  0
SPLINE
  5
14d
100
AcDbEntity
  8
0
 62
7
100
AcDbSpline
 70
8
 71
3
 72
8
 73
4
 74
0
 40
0
 40
0
 40
0
 40
0
 40
1
 40
1
 40
1
 40
1
 10
236.451778
 20
504.522024
 30
0.0
 10
236.451778
 20
504.075440
 30
0.0
 10
236.690027
 20
503.662780
 30
0.0
 10
237.076780
 20
503.439488
 30
0.0
  0
SPLINE
  5
14e
100
AcDbEntity
  8
0
 62
7
100
AcDbSpline
 70
8
 71
3
 72
8
 73
4
 74
0
 40
0
 40
0
 40
0
 40
0
 40
1
 40
1
 40
1
 40
1
 10
237.076780
 20
503.439488
 30
0.0
 10
237.463533
 20
503.216196
 30
0.0
 10
237.940032
 20
503.216196
 30
0.0
 10
238.326785
 20
503.439488
 30
0.0
  0
SPLINE
  5
14f
100
AcDbEntity
  8
0
 62
7
100
AcDbSpline
 70
8
 71
3
 72
8
 73
4
 74
0
 40
0
 40
0
 40
0
 40
0
 40
1
 40
1
 40
1
 40
1
 10
238.326785
 20
503.439488
 30
0.0
 10
238.713537
 20
503.662780
 30
0.0
 10
238.951787
 20
504.075440
 30
0.0
 10
238.951787
 20
504.522024
 30
0.0
  0
LWPOLYLINE
  5
150
100
AcDbEntity
  8
0
 62
7
100
AcDbPolyline
 90
2
 70
1
 10
251.491344
 20
486.402928
 30
0.0
 10
251.491344
 20
486.402928
 30
0.0
  0
SPLINE
  5
151
100
AcDbEntity
  8
0
 62
7
100
AcDbSpline
 70
8
 71
3
 72
8
 73
4
 74
0
 40
0
 40
0
 40
0
 40
0
 40
1
 40
1
 40
1
 40
1
 10
290.260476
 20
521.318135
 30
0.0
 10
290.260476
 20
521.764719
 30
0.0
 10
290.022226
 20
522.177379
 30
0.0
 10
289.635473
 20
522.400671
 30
0.0
  0
SPLINE
  5
152
100
AcDbEntity
  8
0
 62
7
100
AcDbSpline
 70
8
 71
3
 72
8
 73
4
 74
0
 40
0
 40
0
 40
0
 40
0
 40
1
 40
1
 40
1
 40
1
 10
289.635473
 20
522.400671
 30
0.0
 10
289.248721
 20
522.623962
 30
0.0
 10
288.772221
 20
522.623962
 30
0.0
 10
288.385469
 20
522.400671
 30
0.0
  0
SPLINE
  5
153
100
AcDbEntity
  8
0
 62
7
100
AcDbSpline
 70
8
 71
3
 72
8
 73
4
 74
0
 40
0
 40
0
 40
0
 40
0
 40
1
 40
1
 40
1
 40
1
 10
288.385469
 20
522.400671
 30
0.0
 10
287.998716
 20
522.177379
 30
0.0
 10
287.760466
 20
521.764719
 30
0.0
 10
287.760466
 20
521.318135
 30
0.0
  0
SPLINE
  5
154
100
AcDbEntity
  8
0
 62
7
100
AcDbSpline
 70
8
 71
3
 72
8
 73
4
 74
0
 40
0
 40
0
 40
0
 40
0
 40
1
 40
1
 40
1
 40
1
 10
287.760466
 20
521.318135
 30
0.0
 10
287.760466
 20
520.871551
 30
0.0
 10
287.998716
 20
520.458891
 30
0.0
 10
288.385469
 20
520.235599
 30
0.0
  0
SPLINE
  5
155
100
AcDbEntity
  8
0
 62
7
100
AcDbSpline
 70
8
 71
3
 72
8
 73
4
 74
0
 40
0
 40
0
 40
0
 40
0
 40
1
 40
1
 40
1
 40
1
 10
288.385469
 20
520.235599
 30
0.0
 10
288.772221
 20
520.012307
 30
0.0
 10
289.248721
 20
520.012307
 30
0.0
 10
289.635473
 20
520.235599
 30
0.0
  0
SPLINE
  5
156
100
AcDbEntity
  8
0
 62
7
100
AcDbSpline
 70
8
 71
3
 72
8
 73
4
 74
0
 40
0
 40
0
 40
0
 40
0
 40
1
 40
1
 40
1
 40
1
 10
289.635473
 20
520.235599
 30
0.0
 10
290.022226
 20
520.458891
 30
0.0
 10
290.260476
 20
520.871551
 30
0.0
 10
290.260476
 20
521.318135
 30
0.0
  0
LWPOLYLINE
  5
157
100
AcDbEntity
  8
0
 62
7
100
AcDbPolyline
 90
2
 70
1
 10
238.951787
 20
504.522024
 30
0.0
 10
238.951787
 20
504.522024
 30
0.0
  0
SPLINE
  5
158
100
AcDbEntity
  8
0
 62
7
100
AcDbSpline
 70
8
 71
3
 72
8
 73
4
 74
0
 40
0
 40
0
 40
0
 40
0
 40
1
 40
1
 40
1
 40
1
 10
249.055540
 20
503.141520
 30
0.0
 10
249.056251
 20
503.499258
 30
0.0
 10
248.865808
 20
503.830126
 30
0.0
 10
248.556116
 20
504.009201
 30
0.0
  0
SPLINE
  5
159
100
AcDbEntity
  8
0
 62
7
100
AcDbSpline
 70
8
 71
3
 72
8
 73
4
 74
0
 40
0
 40
0
 40
0
 40
0
 40
1
 40
1
 40
1
 40
1
 10
248.556116
 20
504.009201
 30
0.0
 10
248.246423
 20
504.188276
 30
0.0
 10
247.864661
 20
504.188276
 30
0.0
 10
247.554968
 20
504.009201
 30
0.0
  0
SPLINE
  5
15a
100
AcDbEntity
  8
0
 62
7
100
AcDbSpline
 70
8
 71
3
 72
8
 73
4
 74
0
 40
0
 40
0
 40
0
 40
0
 40
1
 40
1
 40
1
 40
1
 10
247.554968
 20
504.009201
 30
0.0
 10
247.245276
 20
503.830126
 30
0.0
 10
247.054833
 20
503.499258
 30
0.0
 10
247.055544
 20
503.141520
 30
0.0
  0
SPLINE
  5
15b
100
AcDbEntity
  8
0
 62
7
100
AcDbSpline
 70
8
 71
3
 72
8
 73
4
 74
0
 40
0
 40
0
 40
0
 40
0
 40
1
 40
1
 40
1
 40
1
 10
247.055544
 20
503.141520
 30
0.0
 10
247.054833
 20
502.783781
 30
0.0
 10
247.245276
 20
502.452913
 30
0.0
 10
247.554968
 20
502.273838
 30
0.0
  0
SPLINE
  5
15c
100
AcDbEntity
  8
0
 62
7
100
AcDbSpline
 70
8
 71
3
 72
8
 73
4
 74
0
 40
0
 40
0
 40
0
 40
0
 40
1
 40
1
 40
1
 40
1
 10
247.554968
 20
502.273838
 30
0.0
 10
247.864661
 20
502.094763
 30
0.0
 10
248.246423
 20
502.094763
 30
0.0
 10
248.556116
 20
502.273838
 30
0.0
  0
SPLINE
  5
15d
100
AcDbEntity
  8
0
 62
7
100
AcDbSpline
 70
8
 71
3
 72
8
 73
4
 74
0
 40
0
 40
0
 40
0
 40
0
 40
1
 40
1
 40
1
 40
1
 10
248.556116
 20
502.273838
 30
0.0
 10
248.865808
 20
502.452913
 30
0.0
 10
249.056251
 20
502.783781
 30
0.0
 10
249.055540
 20
503.141520
 30
0.0
  0
LWPOLYLINE
  5
15e
100
AcDbEntity
  8
0
 62
7
100
AcDbPolyline
 90
2
 70
1
 10
290.260476
 20
521.318135
 30
0.0
 10
290.260476
 20
521.318135
 30
0.0
  0
SPLINE
  5
15f
100
AcDbEntity
  8
0
 62
7
100
AcDbSpline
 70
8
 71
3
 72
8
 73
4
 74
0
 40
0
 40
0
 40
0
 40
0
 40
1
 40
1
 40
1
 40
1
 10
260.752212
 20
502.336227
 30
0.0
 10
260.752212
 20
502.782810
 30
0.0
 10
260.513962
 20
503.195471
 30
0.0
 10
260.127210
 20
503.418762
 30
0.0
  0
SPLINE
  5
160
100
AcDbEntity
  8
0
 62
7
100
AcDbSpline
 70
8
 71
3
 72
8
 73
4
 74
0
 40
0
 40
0
 40
0
 40
0
 40
1
 40
1
 40
1
 40
1
 10
260.127210
 20
503.418762
 30
0.0
 10
259.740457
 20
503.642054
 30
0.0
 10
259.263958
 20
503.642054
 30
0.0
 10
258.877205
 20
503.418762
 30
0.0
  0
SPLINE
  5
161
100
AcDbEntity
  8
0
 62
7
100
AcDbSpline
 70
8
 71
3
 72
8
 73
4
 74
0
 40
0
 40
0
 40
0
 40
0
 40
1
 40
1
 40
1
 40
1
 10
258.877205
 20
503.418762
 30
0.0
 10
258.490452
 20
503.195471
 30
0.0
 10
258.252203
 20
502.782810
 30
0.0
 10
258.252203
 20
502.336227
 30
0.0
  0
SPLINE
  5
162
100
AcDbEntity
  8
0
 62
7
100
AcDbSpline
 70
8
 71
3
 72
8
 73
4
 74
0
 40
0
 40
0
 40
0
 40
0
 40
1
 40
1
 40
1
 40
1
 10
258.252203
 20
502.336227
 30
0.0
 10
258.252203
 20
501.889643
 30
0.0
 10
258.490452
 20
501.476983
 30
0.0
 10
258.877205
 20
501.253691
 30
0.0
  0
SPLINE
  5
163
100
AcDbEntity
  8
0
 62
7
100
AcDbSpline
 70
8
 71
3
 72
8
 73
4
 74
0
 40
0
 40
0
 40
0
 40
0
 40
1
 40
1
 40
1
 40
1
 10
258.877205
 20
501.253691
 30
0.0
 10
259.263958
 20
501.030399
 30
0.0
 10
259.740457
 20
501.030399
 30
0.0
 10
260.127210
 20
501.253691
 30
0.0
  0
SPLINE
  5
164
100
AcDbEntity
  8
0
 62
7
100
AcDbSpline
 70
8
 71
3
 72
8
 73
4
 74
0
 40
0
 40
0
 40
0
 40
0
 40
1
 40
1
 40
1
 40
1
 10
260.127210
 20
501.253691
 30
0.0
 10
260.513962
 20
501.476983
 30
0.0
 10
260.752212
 20
501.889643
 30
0.0
 10
260.752212
 20
502.336227
 30
0.0
  0
LWPOLYLINE
  5
165
100
AcDbEntity
  8
0
 62
7
100
AcDbPolyline
 90
2
 70
1
 10
249.055540
 20
503.141520
 30
0.0
 10
249.055540
 20
503.141520
 30
0.0
  0
SPLINE
  5
166
100
AcDbEntity
  8
0
 62
7
100
AcDbSpline
 70
8
 71
3
 72
8
 73
4
 74
0
 40
0
 40
0
 40
0
 40
0
 40
1
 40
1
 40
1
 40
1
 10
299.176214
 20
504.349459
 30
0.0
 10
299.176214
 20
504.796043
 30
0.0
 10
298.937965
 20
505.208703
 30
0.0
 10
298.551212
 20
505.431995
 30
0.0
  0
SPLINE
  5
167
100
AcDbEntity
  8
0
 62
7
100
AcDbSpline
 70
8
 71
3
 72
8
 73
4
 74
0
 40
0
 40
0
 40
0
 40
0
 40
1
 40
1
 40
1
 40
1
 10
298.551212
 20
505.431995
 30
0.0
 10
298.164459
 20
505.655286
 30
0.0
 10
297.687960
 20
505.655286
 30
0.0
 10
297.301207
 20
505.431995
 30
0.0
  0
SPLINE
  5
168
100
AcDbEntity
  8
0
 62
7
100
AcDbSpline
 70
8
 71
3
 72
8
 73
4
 74
0
 40
0
 40
0
 40
0
 40
0
 40
1
 40
1
 40
1
 40
1
 10
297.301207
 20
505.431995
 30
0.0
 10
296.914455
 20
505.208703
 30
0.0
 10
296.676205
 20
504.796043
 30
0.0
 10
296.676205
 20
504.349459
 30
0.0
  0
SPLINE
  5
169
100
AcDbEntity
  8
0
 62
7
100
AcDbSpline
 70
8
 71
3
 72
8
 73
4
 74
0
 40
0
 40
0
 40
0
 40
0
 40
1
 40
1
 40
1
 40
1
 10
296.676205
 20
504.349459
 30
0.0
 10
296.676205
 20
503.902875
 30
0.0
 10
296.914455
 20
503.490215
 30
0.0
 10
297.301207
 20
503.266923
 30
0.0
  0
SPLINE
  5
16a
100
AcDbEntity
  8
0
 62
7
100
AcDbSpline
 70
8
 71
3
 72
8
 73
4
 74
0
 40
0
 40
0
 40
0
 40
0
 40
1
 40
1
 40
1
 40
1
 10
297.301207
 20
503.266923
 30
0.0
 10
297.687960
 20
503.043631
 30
0.0
 10
298.164459
 20
503.043631
 30
0.0
 10
298.551212
 20
503.266923
 30
0.0
  0
SPLINE
  5
16b
100
AcDbEntity
  8
0
 62
7
100
AcDbSpline
 70
8
 71
3
 72
8
 73
4
 74
0
 40
0
 40
0
 40
0
 40
0
 40
1
 40
1
 40
1
 40
1
 10
298.551212
 20
503.266923
 30
0.0
 10
298.937965
 20
503.490215
 30
0.0
 10
299.176214
 20
503.902875
 30
0.0
 10
299.176214
 20
504.349459
 30
0.0
  0
LWPOLYLINE
  5
16c
100
AcDbEntity
  8
0
 62
7
100
AcDbPolyline
 90
2
 70
1
 10
260.752212
 20
502.336227
 30
0.0
 10
260.752212
 20
502.336227
 30
0.0
  0
SPLINE
  5
16d
100
AcDbEntity
  8
0
 62
7
100
AcDbSpline
 70
8
 71
3
 72
8
 73
4
 74
0
 40
0
 40
0
 40
0
 40
0
 40
1
 40
1
 40
1
 40
1
 10
264.055425
 20
521.000302
 30
0.0
 10
264.055425
 20
521.446886
 30
0.0
 10
263.817176
 20
521.859546
 30
0.0
 10
263.430423
 20
522.082838
 30
0.0
  0
SPLINE
  5
16e
100
AcDbEntity
  8
0
 62
7
100
AcDbSpline
 70
8
 71
3
 72
8
 73
4
 74
0
 40
0
 40
0
 40
0
 40
0
 40
1
 40
1
 40
1
 40
1
 10
263.430423
 20
522.082838
 30
0.0
 10
263.043670
 20
522.306129
 30
0.0
 10
262.567171
 20
522.306129
 30
0.0
 10
262.180419
 20
522.082838
 30
0.0
  0
SPLINE
  5
16f
100
AcDbEntity
  8
0
 62
7
100
AcDbSpline
 70
8
 71
3
 72
8
 73
4
 74
0
 40
0
 40
0
 40
0
 40
0
 40
1
 40
1
 40
1
 40
1
 10
262.180419
 20
522.082838
 30
0.0
 10
261.793666
 20
521.859546
 30
0.0
 10
261.555416
 20
521.446886
 30
0.0
 10
261.555416
 20
521.000302
 30
0.0
  0
SPLINE
  5
170
100
AcDbEntity
  8
0
 62
7
100
AcDbSpline
 70
8
 71
3
 72
8
 73
4
 74
0
 40
0
 40
0
 40
0
 40
0
 40
1
 40
1
 40
1
 40
1
 10
261.555416
 20
521.000302
 30
0.0
 10
261.555416
 20
520.553718
 30
0.0
 10
261.793666
 20
520.141058
 30
0.0
 10
262.180419
 20
519.917766
 30
0.0
  0
SPLINE
  5
171
100
AcDbEntity
  8
0
 62
7
100
AcDbSpline
 70
8
 71
3
 72
8
 73
4
 74
0
 40
0
 40
0
 40
0
 40
0
 40
1
 40
1
 40
1
 40
1
 10
262.180419
 20
519.917766
 30
0.0
 10
262.567171
 20
519.694474
 30
0.0
 10
263.043670
 20
519.694474
 30
0.0
 10
263.430423
 20
519.917766
 30
0.0
  0
SPLINE
  5
172
100
AcDbEntity
  8
0
 62
7
100
AcDbSpline
 70
8
 71
3
 72
8
 73
4
 74
0
 40
0
 40
0
 40
0
 40
0
 40
1
 40
1
 40
1
 40
1
 10
263.430423
 20
519.917766
 30
0.0
 10
263.817176
 20
520.141058
 30
0.0
 10
264.055425
 20
520.553718
 30
0.0
 10
264.055425
 20
521.000302
 30
0.0
  0
LWPOLYLINE
  5
173
100
AcDbEntity
  8
0
 62
7
100
AcDbPolyline
 90
2
 70
1
 10
299.176214
 20
504.349459
 30
0.0
 10
299.176214
 20
504.349459
 30
0.0
  0
SPLINE
  5
174
100
AcDbEntity
  8
0
 62
7
100
AcDbSpline
 70
8
 71
3
 72
8
 73
4
 74
0
 40
0
 40
0
 40
0
 40
0
 40
1
 40
1
 40
1
 40
1
 10
270.358210
 20
490.544435
 30
0.0
 10
270.358210
 20
490.991018
 30
0.0
 10
270.119960
 20
491.403679
 30
0.0
 10
269.733207
 20
491.626971
 30
0.0
  0
SPLINE
  5
175
100
AcDbEntity
  8
0
 62
7
100
AcDbSpline
 70
8
 71
3
 72
8
 73
4
 74
0
 40
0
 40
0
 40
0
 40
0
 40
1
 40
1
 40
1
 40
1
 10
269.733207
 20
491.626971
 30
0.0
 10
269.346455
 20
491.850262
 30
0.0
 10
268.869955
 20
491.850262
 30
0.0
 10
268.483203
 20
491.626971
 30
0.0
  0
SPLINE
  5
176
100
AcDbEntity
  8
0
 62
7
100
AcDbSpline
 70
8
 71
3
 72
8
 73
4
 74
0
 40
0
 40
0
 40
0
 40
0
 40
1
 40
1
 40
1
 40
1
 10
268.483203
 20
491.626971
 30
0.0
 10
268.096450
 20
491.403679
 30
0.0
 10
267.858200
 20
490.991018
 30
0.0
 10
267.858200
 20
490.544435
 30
0.0
  0
SPLINE
  5
177
100
AcDbEntity
  8
0
 62
7
100
AcDbSpline
 70
8
 71
3
 72
8
 73
4
 74
0
 40
0
 40
0
 40
0
 40
0
 40
1
 40
1
 40
1
 40
1
 10
267.858200
 20
490.544435
 30
0.0
 10
267.858201
 20
489.854076
 30
0.0
 10
268.417847
 20
489.294430
 30
0.0
 10
269.108205
 20
489.294430
 30
0.0
  0
SPLINE
  5
178
100
AcDbEntity
  8
0
 62
7
100
AcDbSpline
 70
8
 71
3
 72
8
 73
4
 74
0
 40
0
 40
0
 40
0
 40
0
 40
1
 40
1
 40
1
 40
1
 10
269.108205
 20
489.294430
 30
0.0
 10
269.798563
 20
489.294430
 30
0.0
 10
270.358209
 20
489.854076
 30
0.0
 10
270.358210
 20
490.544435
 30
0.0
  0
LWPOLYLINE
  5
179
100
AcDbEntity
  8
0
 62
7
100
AcDbPolyline
 90
2
 70
1
 10
264.055425
 20
521.000302
 30
0.0
 10
264.055425
 20
521.000302
 30
0.0
  0
SPLINE
  5
17a
100
AcDbEntity
  8
0
 62
7
100
AcDbSpline
 70
8
 71
3
 72
8
 73
4
 74
0
 40
0
 40
0
 40
0
 40
0
 40
1
 40
1
 40
1
 40
1
 10
244.606504
 20
508.088319
 30
0.0
 10
244.607781
 20
508.357114
 30
0.0
 10
244.465114
 20
508.606039
 30
0.0
 10
244.232541
 20
508.740807
 30
0.0
  0
SPLINE
  5
17b
100
AcDbEntity
  8
0
 62
7
100
AcDbSpline
 70
8
 71
3
 72
8
 73
4
 74
0
 40
0
 40
0
 40
0
 40
0
 40
1
 40
1
 40
1
 40
1
 10
244.232541
 20
508.740807
 30
0.0
 10
243.999968
 20
508.875575
 30
0.0
 10
243.713057
 20
508.875575
 30
0.0
 10
243.480485
 20
508.740807
 30
0.0
  0
SPLINE
  5
17c
100
AcDbEntity
  8
0
 62
7
100
AcDbSpline
 70
8
 71
3
 72
8
 73
4
 74
0
 40
0
 40
0
 40
0
 40
0
 40
1
 40
1
 40
1
 40
1
 10
243.480485
 20
508.740807
 30
0.0
 10
243.247912
 20
508.606039
 30
0.0
 10
243.105244
 20
508.357114
 30
0.0
 10
243.106521
 20
508.088319
 30
0.0
  0
SPLINE
  5
17d
100
AcDbEntity
  8
0
 62
7
100
AcDbSpline
 70
8
 71
3
 72
8
 73
4
 74
0
 40
0
 40
0
 40
0
 40
0
 40
1
 40
1
 40
1
 40
1
 10
243.106521
 20
508.088319
 30
0.0
 10
243.105244
 20
507.819524
 30
0.0
 10
243.247912
 20
507.570599
 30
0.0
 10
243.480485
 20
507.435831
 30
0.0
  0
SPLINE
  5
17e
100
AcDbEntity
  8
0
 62
7
100
AcDbSpline
 70
8
 71
3
 72
8
 73
4
 74
0
 40
0
 40
0
 40
0
 40
0
 40
1
 40
1
 40
1
 40
1
 10
243.480485
 20
507.435831
 30
0.0
 10
243.713057
 20
507.301064
 30
0.0
 10
243.999968
 20
507.301064
 30
0.0
 10
244.232541
 20
507.435831
 30
0.0
  0
SPLINE
  5
17f
100
AcDbEntity
  8
0
 62
7
100
AcDbSpline
 70
8
 71
3
 72
8
 73
4
 74
0
 40
0
 40
0
 40
0
 40
0
 40
1
 40
1
 40
1
 40
1
 10
244.232541
 20
507.435831
 30
0.0
 10
244.465114
 20
507.570599
 30
0.0
 10
244.607781
 20
507.819524
 30
0.0
 10
244.606504
 20
508.088319
 30
0.0
  0
LWPOLYLINE
  5
180
100
AcDbEntity
  8
0
 62
7
100
AcDbPolyline
 90
2
 70
1
 10
270.358210
 20
490.544435
 30
0.0
 10
270.358210
 20
490.544435
 30
0.0
  0
SPLINE
  5
181
100
AcDbEntity
  8
0
 62
7
100
AcDbSpline
 70
8
 71
3
 72
8
 73
4
 74
0
 40
0
 40
0
 40
0
 40
0
 40
1
 40
1
 40
1
 40
1
 10
253.349692
 20
516.601420
 30
0.0
 10
253.350980
 20
516.870222
 30
0.0
 10
253.208315
 20
517.119158
 30
0.0
 10
252.975738
 20
517.253933
 30
0.0
  0
SPLINE
  5
182
100
AcDbEntity
  8
0
 62
7
100
AcDbSpline
 70
8
 71
3
 72
8
 73
4
 74
0
 40
0
 40
0
 40
0
 40
0
 40
1
 40
1
 40
1
 40
1
 10
252.975738
 20
517.253933
 30
0.0
 10
252.743160
 20
517.388707
 30
0.0
 10
252.456241
 20
517.388707
 30
0.0
 10
252.223664
 20
517.253933
 30
0.0
  0
SPLINE
  5
183
100
AcDbEntity
  8
0
 62
7
100
AcDbSpline
 70
8
 71
3
 72
8
 73
4
 74
0
 40
0
 40
0
 40
0
 40
0
 40
1
 40
1
 40
1
 40
1
 10
252.223664
 20
517.253933
 30
0.0
 10
251.991087
 20
517.119158
 30
0.0
 10
251.848422
 20
516.870222
 30
0.0
 10
251.849709
 20
516.601420
 30
0.0
  0
SPLINE
  5
184
100
AcDbEntity
  8
0
 62
7
100
AcDbSpline
 70
8
 71
3
 72
8
 73
4
 74
0
 40
0
 40
0
 40
0
 40
0
 40
1
 40
1
 40
1
 40
1
 10
251.849709
 20
516.601420
 30
0.0
 10
251.848422
 20
516.332618
 30
0.0
 10
251.991087
 20
516.083681
 30
0.0
 10
252.223664
 20
515.948907
 30
0.0
  0
SPLINE
  5
185
100
AcDbEntity
  8
0
 62
7
100
AcDbSpline
 70
8
 71
3
 72
8
 73
4
 74
0
 40
0
 40
0
 40
0
 40
0
 40
1
 40
1
 40
1
 40
1
 10
252.223664
 20
515.948907
 30
0.0
 10
252.456241
 20
515.814133
 30
0.0
 10
252.743160
 20
515.814133
 30
0.0
 10
252.975738
 20
515.948907
 30
0.0
  0
SPLINE
  5
186
100
AcDbEntity
  8
0
 62
7
100
AcDbSpline
 70
8
 71
3
 72
8
 73
4
 74
0
 40
0
 40
0
 40
0
 40
0
 40
1
 40
1
 40
1
 40
1
 10
252.975738
 20
515.948907
 30
0.0
 10
253.208315
 20
516.083681
 30
0.0
 10
253.350980
 20
516.332618
 30
0.0
 10
253.349692
 20
516.601420
 30
0.0
  0
LWPOLYLINE
  5
187
100
AcDbEntity
  8
0
 62
7
100
AcDbPolyline
 90
2
 70
1
 10
244.606504
 20
508.088319
 30
0.0
 10
244.606504
 20
508.088319
 30
0.0
  0
SPLINE
  5
188
100
AcDbEntity
  8
0
 62
7
100
AcDbSpline
 70
8
 71
3
 72
8
 73
4
 74
0
 40
0
 40
0
 40
0
 40
0
 40
1
 40
1
 40
1
 40
1
 10
260.022131
 20
510.964367
 30
0.0
 10
260.022131
 20
511.232318
 30
0.0
 10
259.879181
 20
511.479915
 30
0.0
 10
259.647128
 20
511.613891
 30
0.0
  0
SPLINE
  5
189
100
AcDbEntity
  8
0
 62
7
100
AcDbSpline
 70
8
 71
3
 72
8
 73
4
 74
0
 40
0
 40
0
 40
0
 40
0
 40
1
 40
1
 40
1
 40
1
 10
259.647128
 20
511.613891
 30
0.0
 10
259.415076
 20
511.747866
 30
0.0
 10
259.129175
 20
511.747866
 30
0.0
 10
258.897123
 20
511.613891
 30
0.0
  0
SPLINE
  5
18a
100
AcDbEntity
  8
0
 62
7
100
AcDbSpline
 70
8
 71
3
 72
8
 73
4
 74
0
 40
0
 40
0
 40
0
 40
0
 40
1
 40
1
 40
1
 40
1
 10
258.897123
 20
511.613891
 30
0.0
 10
258.665070
 20
511.479915
 30
0.0
 10
258.522120
 20
511.232318
 30
0.0
 10
258.522120
 20
510.964367
 30
0.0
  0
SPLINE
  5
18b
100
AcDbEntity
  8
0
 62
7
100
AcDbSpline
 70
8
 71
3
 72
8
 73
4
 74
0
 40
0
 40
0
 40
0
 40
0
 40
1
 40
1
 40
1
 40
1
 10
258.522120
 20
510.964367
 30
0.0
 10
258.522120
 20
510.550150
 30
0.0
 10
258.857909
 20
510.214361
 30
0.0
 10
259.272126
 20
510.214361
 30
0.0
  0
SPLINE
  5
18c
100
AcDbEntity
  8
0
 62
7
100
AcDbSpline
 70
8
 71
3
 72
8
 73
4
 74
0
 40
0
 40
0
 40
0
 40
0
 40
1
 40
1
 40
1
 40
1
 10
259.272126
 20
510.214361
 30
0.0
 10
259.686342
 20
510.214361
 30
0.0
 10
260.022131
 20
510.550150
 30
0.0
 10
260.022131
 20
510.964367
 30
0.0
  0
LWPOLYLINE
  5
18d
100
AcDbEntity
  8
0
 62
7
100
AcDbPolyline
 90
2
 70
1
 10
253.349692
 20
516.601420
 30
0.0
 10
253.349692
 20
516.601420
 30
0.0
  0
SPLINE
  5
18e
100
AcDbEntity
  8
0
 62
7
100
AcDbSpline
 70
8
 71
3
 72
8
 73
4
 74
0
 40
0
 40
0
 40
0
 40
0
 40
1
 40
1
 40
1
 40
1
 10
254.520040
 20
532.189592
 30
0.0
 10
254.520751
 20
532.547330
 30
0.0
 10
254.330308
 20
532.878199
 30
0.0
 10
254.020615
 20
533.057273
 30
0.0
  0
SPLINE
  5
18f
100
AcDbEntity
  8
0
 62
7
100
AcDbSpline
 70
8
 71
3
 72
8
 73
4
 74
0
 40
0
 40
0
 40
0
 40
0
 40
1
 40
1
 40
1
 40
1
 10
254.020615
 20
533.057273
 30
0.0
 10
253.710923
 20
533.236348
 30
0.0
 10
253.329160
 20
533.236348
 30
0.0
 10
253.019468
 20
533.057273
 30
0.0
  0
SPLINE
  5
190
100
AcDbEntity
  8
0
 62
7
100
AcDbSpline
 70
8
 71
3
 72
8
 73
4
 74
0
 40
0
 40
0
 40
0
 40
0
 40
1
 40
1
 40
1
 40
1
 10
253.019468
 20
533.057273
 30
0.0
 10
252.709775
 20
532.878199
 30
0.0
 10
252.519333
 20
532.547330
 30
0.0
 10
252.520044
 20
532.189592
 30
0.0
  0
SPLINE
  5
191
100
AcDbEntity
  8
0
 62
7
100
AcDbSpline
 70
8
 71
3
 72
8
 73
4
 74
0
 40
0
 40
0
 40
0
 40
0
 40
1
 40
1
 40
1
 40
1
 10
252.520044
 20
532.189592
 30
0.0
 10
252.519333
 20
531.831853
 30
0.0
 10
252.709775
 20
531.500985
 30
0.0
 10
253.019468
 20
531.321910
 30
0.0
  0
SPLINE
  5
192
100
AcDbEntity
  8
0
 62
7
100
AcDbSpline
 70
8
 71
3
 72
8
 73
4
 74
0
 40
0
 40
0
 40
0
 40
0
 40
1
 40
1
 40
1
 40
1
 10
253.019468
 20
531.321910
 30
0.0
 10
253.329160
 20
531.142835
 30
0.0
 10
253.710923
 20
531.142835
 30
0.0
 10
254.020615
 20
531.321910
 30
0.0
  0
SPLINE
  5
193
100
AcDbEntity
  8
0
 62
7
100
AcDbSpline
 70
8
 71
3
 72
8
 73
4
 74
0
 40
0
 40
0
 40
0
 40
0
 40
1
 40
1
 40
1
 40
1
 10
254.020615
 20
531.321910
 30
0.0
 10
254.330308
 20
531.500985
 30
0.0
 10
254.520751
 20
531.831853
 30
0.0
 10
254.520040
 20
532.189592
 30
0.0
  0
LWPOLYLINE
  5
194
100
AcDbEntity
  8
0
 62
7
100
AcDbPolyline
 90
2
 70
1
 10
260.022131
 20
510.964367
 30
0.0
 10
260.022131
 20
510.964367
 30
0.0
  0
SPLINE
  5
195
100
AcDbEntity
  8
0
 62
7
100
AcDbSpline
 70
8
 71
3
 72
8
 73
4
 74
0
 40
0
 40
0
 40
0
 40
0
 40
1
 40
1
 40
1
 40
1
 10
236.746079
 20
517.464232
 30
0.0
 10
236.746079
 20
517.821502
 30
0.0
 10
236.555478
 20
518.151633
 30
0.0
 10
236.246073
 20
518.330268
 30
0.0
  0
SPLINE
  5
196
100
AcDbEntity
  8
0
 62
7
100
AcDbSpline
 70
8
 71
3
 72
8
 73
4
 74
0
 40
0
 40
0
 40
0
 40
0
 40
1
 40
1
 40
1
 40
1
 10
236.246073
 20
518.330268
 30
0.0
 10
235.936668
 20
518.508903
 30
0.0
 10
235.555466
 20
518.508903
 30
0.0
 10
235.246061
 20
518.330268
 30
0.0
  0
SPLINE
  5
197
100
AcDbEntity
  8
0
 62
7
100
AcDbSpline
 70
8
 71
3
 72
8
 73
4
 74
0
 40
0
 40
0
 40
0
 40
0
 40
1
 40
1
 40
1
 40
1
 10
235.246061
 20
518.330268
 30
0.0
 10
234.936656
 20
518.151633
 30
0.0
 10
234.746055
 20
517.821502
 30
0.0
 10
234.746055
 20
517.464232
 30
0.0
  0
SPLINE
  5
198
100
AcDbEntity
  8
0
 62
7
100
AcDbSpline
 70
8
 71
3
 72
8
 73
4
 74
0
 40
0
 40
0
 40
0
 40
0
 40
1
 40
1
 40
1
 40
1
 10
234.746055
 20
517.464232
 30
0.0
 10
234.746055
 20
517.106963
 30
0.0
 10
234.936656
 20
516.776832
 30
0.0
 10
235.246061
 20
516.598197
 30
0.0
  0
SPLINE
  5
199
100
AcDbEntity
  8
0
 62
7
100
AcDbSpline
 70
8
 71
3
 72
8
 73
4
 74
0
 40
0
 40
0
 40
0
 40
0
 40
1
 40
1
 40
1
 40
1
 10
235.246061
 20
516.598197
 30
0.0
 10
235.555466
 20
516.419562
 30
0.0
 10
235.936668
 20
516.419562
 30
0.0
 10
236.246073
 20
516.598197
 30
0.0
  0
SPLINE
  5
19a
100
AcDbEntity
  8
0
 62
7
100
AcDbSpline
 70
8
 71
3
 72
8
 73
4
 74
0
 40
0
 40
0
 40
0
 40
0
 40
1
 40
1
 40
1
 40
1
 10
236.246073
 20
516.598197
 30
0.0
 10
236.555478
 20
516.776832
 30
0.0
 10
236.746079
 20
517.106963
 30
0.0
 10
236.746079
 20
517.464232
 30
0.0
  0
LWPOLYLINE
  5
19b
100
AcDbEntity
  8
0
 62
7
100
AcDbPolyline
 90
2
 70
1
 10
254.520040
 20
532.189592
 30
0.0
 10
254.520040
 20
532.189592
 30
0.0
  0
SPLINE
  5
19c
100
AcDbEntity
  8
0
 62
7
100
AcDbSpline
 70
8
 71
3
 72
8
 73
4
 74
0
 40
0
 40
0
 40
0
 40
0
 40
1
 40
1
 40
1
 40
1
 10
275.782859
 20
517.924401
 30
0.0
 10
275.784147
 20
518.193204
 30
0.0
 10
275.641482
 20
518.442140
 30
0.0
 10
275.408905
 20
518.576914
 30
0.0
  0
SPLINE
  5
19d
100
AcDbEntity
  8
0
 62
7
100
AcDbSpline
 70
8
 71
3
 72
8
 73
4
 74
0
 40
0
 40
0
 40
0
 40
0
 40
1
 40
1
 40
1
 40
1
 10
275.408905
 20
518.576914
 30
0.0
 10
275.176328
 20
518.711688
 30
0.0
 10
274.889408
 20
518.711688
 30
0.0
 10
274.656831
 20
518.576914
 30
0.0
  0
SPLINE
  5
19e
100
AcDbEntity
  8
0
 62
7
100
AcDbSpline
 70
8
 71
3
 72
8
 73
4
 74
0
 40
0
 40
0
 40
0
 40
0
 40
1
 40
1
 40
1
 40
1
 10
274.656831
 20
518.576914
 30
0.0
 10
274.424254
 20
518.442140
 30
0.0
 10
274.281589
 20
518.193204
 30
0.0
 10
274.282876
 20
517.924401
 30
0.0
  0
SPLINE
  5
19f
100
AcDbEntity
  8
0
 62
7
100
AcDbSpline
 70
8
 71
3
 72
8
 73
4
 74
0
 40
0
 40
0
 40
0
 40
0
 40
1
 40
1
 40
1
 40
1
 10
274.282876
 20
517.924401
 30
0.0
 10
274.281589
 20
517.655599
 30
0.0
 10
274.424254
 20
517.406663
 30
0.0
 10
274.656831
 20
517.271889
 30
0.0
  0
SPLINE
  5
1a0
100
AcDbEntity
  8
0
 62
7
100
AcDbSpline
 70
8
 71
3
 72
8
 73
4
 74
0
 40
0
 40
0
 40
0
 40
0
 40
1
 40
1
 40
1
 40
1
 10
274.656831
 20
517.271889
 30
0.0
 10
274.889408
 20
517.137115
 30
0.0
 10
275.176328
 20
517.137115
 30
0.0
 10
275.408905
 20
517.271889
 30
0.0
  0
SPLINE
  5
1a1
100
AcDbEntity
  8
0
 62
7
100
AcDbSpline
 70
8
 71
3
 72
8
 73
4
 74
0
 40
0
 40
0
 40
0
 40
0
 40
1
 40
1
 40
1
 40
1
 10
275.408905
 20
517.271889
 30
0.0
 10
275.641482
 20
517.406663
 30
0.0
 10
275.784147
 20
517.655599
 30
0.0
 10
275.782859
 20
517.924401
 30
0.0
  0
LWPOLYLINE
  5
1a2
100
AcDbEntity
  8
0
 62
7
100
AcDbPolyline
 90
2
 70
1
 10
236.746079
 20
517.464232
 30
0.0
 10
236.746079
 20
517.464232
 30
0.0
  0
SPLINE
  5
1a3
100
AcDbEntity
  8
0
 62
7
100
AcDbSpline
 70
8
 71
3
 72
8
 73
4
 74
0
 40
0
 40
0
 40
0
 40
0
 40
1
 40
1
 40
1
 40
1
 10
263.013207
 20
527.990565
 30
0.0
 10
263.014484
 20
528.259360
 30
0.0
 10
262.871817
 20
528.508286
 30
0.0
 10
262.639244
 20
528.643053
 30
0.0
  0
SPLINE
  5
1a4
100
AcDbEntity
  8
0
 62
7
100
AcDbSpline
 70
8
 71
3
 72
8
 73
4
 74
0
 40
0
 40
0
 40
0
 40
0
 40
1
 40
1
 40
1
 40
1
 10
262.639244
 20
528.643053
 30
0.0
 10
262.406671
 20
528.777821
 30
0.0
 10
262.119760
 20
528.777821
 30
0.0
 10
261.887187
 20
528.643053
 30
0.0
  0
SPLINE
  5
1a5
100
AcDbEntity
  8
0
 62
7
100
AcDbSpline
 70
8
 71
3
 72
8
 73
4
 74
0
 40
0
 40
0
 40
0
 40
0
 40
1
 40
1
 40
1
 40
1
 10
261.887187
 20
528.643053
 30
0.0
 10
261.654614
 20
528.508286
 30
0.0
 10
261.511947
 20
528.259360
 30
0.0
 10
261.513224
 20
527.990565
 30
0.0
  0
SPLINE
  5
1a6
100
AcDbEntity
  8
0
 62
7
100
AcDbSpline
 70
8
 71
3
 72
8
 73
4
 74
0
 40
0
 40
0
 40
0
 40
0
 40
1
 40
1
 40
1
 40
1
 10
261.513224
 20
527.990565
 30
0.0
 10
261.511947
 20
527.721770
 30
0.0
 10
261.654614
 20
527.472845
 30
0.0
 10
261.887187
 20
527.338077
 30
0.0
  0
SPLINE
  5
1a7
100
AcDbEntity
  8
0
 62
7
100
AcDbSpline
 70
8
 71
3
 72
8
 73
4
 74
0
 40
0
 40
0
 40
0
 40
0
 40
1
 40
1
 40
1
 40
1
 10
261.887187
 20
527.338077
 30
0.0
 10
262.119760
 20
527.203310
 30
0.0
 10
262.406671
 20
527.203310
 30
0.0
 10
262.639244
 20
527.338077
 30
0.0
  0
SPLINE
  5
1a8
100
AcDbEntity
  8
0
 62
7
100
AcDbSpline
 70
8
 71
3
 72
8
 73
4
 74
0
 40
0
 40
0
 40
0
 40
0
 40
1
 40
1
 40
1
 40
1
 10
262.639244
 20
527.338077
 30
0.0
 10
262.871817
 20
527.472845
 30
0.0
 10
263.014484
 20
527.721770
 30
0.0
 10
263.013207
 20
527.990565
 30
0.0
  0
LWPOLYLINE
  5
1a9
100
AcDbEntity
  8
0
 62
7
100
AcDbPolyline
 90
2
 70
1
 10
275.782859
 20
517.924401
 30
0.0
 10
275.782859
 20
517.924401
 30
0.0
  0
SPLINE
  5
1aa
100
AcDbEntity
  8
0
 62
7
100
AcDbSpline
 70
8
 71
3
 72
8
 73
4
 74
0
 40
0
 40
0
 40
0
 40
0
 40
1
 40
1
 40
1
 40
1
 10
287.919781
 20
497.504469
 30
0.0
 10
287.921069
 20
497.773272
 30
0.0
 10
287.778404
 20
498.022208
 30
0.0
 10
287.545826
 20
498.156982
 30
0.0
  0
SPLINE
  5
1ab
100
AcDbEntity
  8
0
 62
7
100
AcDbSpline
 70
8
 71
3
 72
8
 73
4
 74
0
 40
0
 40
0
 40
0
 40
0
 40
1
 40
1
 40
1
 40
1
 10
287.545826
 20
498.156982
 30
0.0
 10
287.313249
 20
498.291756
 30
0.0
 10
287.026330
 20
498.291756
 30
0.0
 10
286.793753
 20
498.156982
 30
0.0
  0
SPLINE
  5
1ac
100
AcDbEntity
  8
0
 62
7
100
AcDbSpline
 70
8
 71
3
 72
8
 73
4
 74
0
 40
0
 40
0
 40
0
 40
0
 40
1
 40
1
 40
1
 40
1
 10
286.793753
 20
498.156982
 30
0.0
 10
286.561175
 20
498.022208
 30
0.0
 10
286.418510
 20
497.773272
 30
0.0
 10
286.419798
 20
497.504469
 30
0.0
  0
SPLINE
  5
1ad
100
AcDbEntity
  8
0
 62
7
100
AcDbSpline
 70
8
 71
3
 72
8
 73
4
 74
0
 40
0
 40
0
 40
0
 40
0
 40
1
 40
1
 40
1
 40
1
 10
286.419798
 20
497.504469
 30
0.0
 10
286.418510
 20
497.235667
 30
0.0
 10
286.561175
 20
496.986731
 30
0.0
 10
286.793753
 20
496.851957
 30
0.0
  0
SPLINE
  5
1ae
100
AcDbEntity
  8
0
 62
7
100
AcDbSpline
 70
8
 71
3
 72
8
 73
4
 74
0
 40
0
 40
0
 40
0
 40
0
 40
1
 40
1
 40
1
 40
1
 10
286.793753
 20
496.851957
 30
0.0
 10
287.026330
 20
496.717182
 30
0.0
 10
287.313249
 20
496.717182
 30
0.0
 10
287.545826
 20
496.851957
 30
0.0
  0
SPLINE
  5
1af
100
AcDbEntity
  8
0
 62
7
100
AcDbSpline
 70
8
 71
3
 72
8
 73
4
 74
0
 40
0
 40
0
 40
0
 40
0
 40
1
 40
1
 40
1
 40
1
 10
287.545826
 20
496.851957
 30
0.0
 10
287.778404
 20
496.986731
 30
0.0
 10
287.921069
 20
497.235667
 30
0.0
 10
287.919781
 20
497.504469
 30
0.0
  0
LWPOLYLINE
  5
1b0
100
AcDbEntity
  8
0
 62
7
100
AcDbPolyline
 90
2
 70
1
 10
263.013207
 20
527.990565
 30
0.0
 10
263.013207
 20
527.990565
 30
0.0
  0
SPLINE
  5
1b1
100
AcDbEntity
  8
0
 62
7
100
AcDbSpline
 70
8
 71
3
 72
8
 73
4
 74
0
 40
0
 40
0
 40
0
 40
0
 40
1
 40
1
 40
1
 40
1
 10
273.099293
 20
475.243867
 30
0.0
 10
273.100004
 20
475.601605
 30
0.0
 10
272.909561
 20
475.932474
 30
0.0
 10
272.599869
 20
476.111549
 30
0.0
  0
SPLINE
  5
1b2
100
AcDbEntity
  8
0
 62
7
100
AcDbSpline
 70
8
 71
3
 72
8
 73
4
 74
0
 40
0
 40
0
 40
0
 40
0
 40
1
 40
1
 40
1
 40
1
 10
272.599869
 20
476.111549
 30
0.0
 10
272.290176
 20
476.290623
 30
0.0
 10
271.908414
 20
476.290623
 30
0.0
 10
271.598721
 20
476.111549
 30
0.0
  0
SPLINE
  5
1b3
100
AcDbEntity
  8
0
 62
7
100
AcDbSpline
 70
8
 71
3
 72
8
 73
4
 74
0
 40
0
 40
0
 40
0
 40
0
 40
1
 40
1
 40
1
 40
1
 10
271.598721
 20
476.111549
 30
0.0
 10
271.289029
 20
475.932474
 30
0.0
 10
271.098586
 20
475.601605
 30
0.0
 10
271.099297
 20
475.243867
 30
0.0
  0
SPLINE
  5
1b4
100
AcDbEntity
  8
0
 62
7
100
AcDbSpline
 70
8
 71
3
 72
8
 73
4
 74
0
 40
0
 40
0
 40
0
 40
0
 40
1
 40
1
 40
1
 40
1
 10
271.099297
 20
475.243867
 30
0.0
 10
271.098586
 20
474.886129
 30
0.0
 10
271.289029
 20
474.555260
 30
0.0
 10
271.598721
 20
474.376185
 30
0.0
  0
SPLINE
  5
1b5
100
AcDbEntity
  8
0
 62
7
100
AcDbSpline
 70
8
 71
3
 72
8
 73
4
 74
0
 40
0
 40
0
 40
0
 40
0
 40
1
 40
1
 40
1
 40
1
 10
271.598721
 20
474.376185
 30
0.0
 10
271.908414
 20
474.197111
 30
0.0
 10
272.290176
 20
474.197111
 30
0.0
 10
272.599869
 20
474.376185
 30
0.0
  0
SPLINE
  5
1b6
100
AcDbEntity
  8
0
 62
7
100
AcDbSpline
 70
8
 71
3
 72
8
 73
4
 74
0
 40
0
 40
0
 40
0
 40
0
 40
1
 40
1
 40
1
 40
1
 10
272.599869
 20
474.376185
 30
0.0
 10
272.909561
 20
474.555260
 30
0.0
 10
273.100004
 20
474.886129
 30
0.0
 10
273.099293
 20
475.243867
 30
0.0
  0
LWPOLYLINE
  5
1b7
100
AcDbEntity
  8
0
 62
7
100
AcDbPolyline
 90
2
 70
1
 10
287.919781
 20
497.504469
 30
0.0
 10
287.919781
 20
497.504469
 30
0.0
  0
SPLINE
  5
1b8
100
AcDbEntity
  8
0
 62
7
100
AcDbSpline
 70
8
 71
3
 72
8
 73
4
 74
0
 40
0
 40
0
 40
0
 40
0
 40
1
 40
1
 40
1
 40
1
 10
299.808928
 20
480.363229
 30
0.0
 10
299.810683
 20
480.810974
 30
0.0
 10
299.572820
 20
481.225460
 30
0.0
 10
299.185351
 20
481.449841
 30
0.0
  0
SPLINE
  5
1b9
100
AcDbEntity
  8
0
 62
7
100
AcDbSpline
 70
8
 71
3
 72
8
 73
4
 74
0
 40
0
 40
0
 40
0
 40
0
 40
1
 40
1
 40
1
 40
1
 10
299.185351
 20
481.449841
 30
0.0
 10
298.797882
 20
481.674222
 30
0.0
 10
298.319993
 20
481.674222
 30
0.0
 10
297.932524
 20
481.449841
 30
0.0
  0
SPLINE
  5
1ba
100
AcDbEntity
  8
0
 62
7
100
AcDbSpline
 70
8
 71
3
 72
8
 73
4
 74
0
 40
0
 40
0
 40
0
 40
0
 40
1
 40
1
 40
1
 40
1
 10
297.932524
 20
481.449841
 30
0.0
 10
297.545055
 20
481.225460
 30
0.0
 10
297.307193
 20
480.810974
 30
0.0
 10
297.308947
 20
480.363229
 30
0.0
  0
SPLINE
  5
1bb
100
AcDbEntity
  8
0
 62
7
100
AcDbSpline
 70
8
 71
3
 72
8
 73
4
 74
0
 40
0
 40
0
 40
0
 40
0
 40
1
 40
1
 40
1
 40
1
 10
297.308947
 20
480.363229
 30
0.0
 10
297.307193
 20
479.915483
 30
0.0
 10
297.545055
 20
479.500997
 30
0.0
 10
297.932524
 20
479.276616
 30
0.0
  0
SPLINE
  5
1bc
100
AcDbEntity
  8
0
 62
7
100
AcDbSpline
 70
8
 71
3
 72
8
 73
4
 74
0
 40
0
 40
0
 40
0
 40
0
 40
1
 40
1
 40
1
 40
1
 10
297.932524
 20
479.276616
 30
0.0
 10
298.319993
 20
479.052236
 30
0.0
 10
298.797882
 20
479.052236
 30
0.0
 10
299.185351
 20
479.276616
 30
0.0
  0
SPLINE
  5
1bd
100
AcDbEntity
  8
0
 62
7
100
AcDbSpline
 70
8
 71
3
 72
8
 73
4
 74
0
 40
0
 40
0
 40
0
 40
0
 40
1
 40
1
 40
1
 40
1
 10
299.185351
 20
479.276616
 30
0.0
 10
299.572820
 20
479.500997
 30
0.0
 10
299.810683
 20
479.915483
 30
0.0
 10
299.808928
 20
480.363229
 30
0.0
  0
LWPOLYLINE
  5
1be
100
AcDbEntity
  8
0
 62
7
100
AcDbPolyline
 90
2
 70
1
 10
273.099293
 20
475.243867
 30
0.0
 10
273.099293
 20
475.243867
 30
0.0
  0
SPLINE
  5
1bf
100
AcDbEntity
  8
0
 62
7
100
AcDbSpline
 70
8
 71
3
 72
8
 73
4
 74
0
 40
0
 40
0
 40
0
 40
0
 40
1
 40
1
 40
1
 40
1
 10
234.235063
 20
479.557936
 30
0.0
 10
234.235063
 20
480.004519
 30
0.0
 10
233.996814
 20
480.417180
 30
0.0
 10
233.610061
 20
480.640471
 30
0.0
  0
SPLINE
  5
1c0
100
AcDbEntity
  8
0
 62
7
100
AcDbSpline
 70
8
 71
3
 72
8
 73
4
 74
0
 40
0
 40
0
 40
0
 40
0
 40
1
 40
1
 40
1
 40
1
 10
233.610061
 20
480.640471
 30
0.0
 10
233.223308
 20
480.863763
 30
0.0
 10
232.746809
 20
480.863763
 30
0.0
 10
232.360057
 20
480.640471
 30
0.0
  0
SPLINE
  5
1c1
100
AcDbEntity
  8
0
 62
7
100
AcDbSpline
 70
8
 71
3
 72
8
 73
4
 74
0
 40
0
 40
0
 40
0
 40
0
 40
1
 40
1
 40
1
 40
1
 10
232.360057
 20
480.640471
 30
0.0
 10
231.973304
 20
480.417180
 30
0.0
 10
231.735054
 20
480.004519
 30
0.0
 10
231.735054
 20
479.557936
 30
0.0
  0
SPLINE
  5
1c2
100
AcDbEntity
  8
0
 62
7
100
AcDbSpline
 70
8
 71
3
 72
8
 73
4
 74
0
 40
0
 40
0
 40
0
 40
0
 40
1
 40
1
 40
1
 40
1
 10
231.735054
 20
479.557936
 30
0.0
 10
231.735054
 20
479.111352
 30
0.0
 10
231.973304
 20
478.698692
 30
0.0
 10
232.360057
 20
478.475400
 30
0.0
  0
SPLINE
  5
1c3
100
AcDbEntity
  8
0
 62
7
100
AcDbSpline
 70
8
 71
3
 72
8
 73
4
 74
0
 40
0
 40
0
 40
0
 40
0
 40
1
 40
1
 40
1
 40
1
 10
232.360057
 20
478.475400
 30
0.0
 10
232.746809
 20
478.252108
 30
0.0
 10
233.223308
 20
478.252108
 30
0.0
 10
233.610061
 20
478.475400
 30
0.0
  0
SPLINE
  5
1c4
100
AcDbEntity
  8
0
 62
7
100
AcDbSpline
 70
8
 71
3
 72
8
 73
4
 74
0
 40
0
 40
0
 40
0
 40
0
 40
1
 40
1
 40
1
 40
1
 10
233.610061
 20
478.475400
 30
0.0
 10
233.996814
 20
478.698692
 30
0.0
 10
234.235063
 20
479.111352
 30
0.0
 10
234.235063
 20
479.557936
 30
0.0
  0
LWPOLYLINE
  5
1c5
100
AcDbEntity
  8
0
 62
7
100
AcDbPolyline
 90
2
 70
1
 10
299.808928
 20
480.363229
 30
0.0
 10
299.808928
 20
480.363229
 30
0.0
  0
SPLINE
  5
1c6
100
AcDbEntity
  8
0
 62
7
100
AcDbSpline
 70
8
 71
3
 72
8
 73
4
 74
0
 40
0
 40
0
 40
0
 40
0
 40
1
 40
1
 40
1
 40
1
 10
248.863064
 20
495.088588
 30
0.0
 10
248.864352
 20
495.357390
 30
0.0
 10
248.721687
 20
495.606326
 30
0.0
 10
248.489110
 20
495.741101
 30
0.0
  0
SPLINE
  5
1c7
100
AcDbEntity
  8
0
 62
7
100
AcDbSpline
 70
8
 71
3
 72
8
 73
4
 74
0
 40
0
 40
0
 40
0
 40
0
 40
1
 40
1
 40
1
 40
1
 10
248.489110
 20
495.741101
 30
0.0
 10
248.256533
 20
495.875875
 30
0.0
 10
247.969613
 20
495.875875
 30
0.0
 10
247.737036
 20
495.741101
 30
0.0
  0
SPLINE
  5
1c8
100
AcDbEntity
  8
0
 62
7
100
AcDbSpline
 70
8
 71
3
 72
8
 73
4
 74
0
 40
0
 40
0
 40
0
 40
0
 40
1
 40
1
 40
1
 40
1
 10
247.737036
 20
495.741101
 30
0.0
 10
247.504459
 20
495.606326
 30
0.0
 10
247.361794
 20
495.357390
 30
0.0
 10
247.363082
 20
495.088588
 30
0.0
  0
SPLINE
  5
1c9
100
AcDbEntity
  8
0
 62
7
100
AcDbSpline
 70
8
 71
3
 72
8
 73
4
 74
0
 40
0
 40
0
 40
0
 40
0
 40
1
 40
1
 40
1
 40
1
 10
247.363082
 20
495.088588
 30
0.0
 10
247.361794
 20
494.819786
 30
0.0
 10
247.504459
 20
494.570849
 30
0.0
 10
247.737036
 20
494.436075
 30
0.0
  0
SPLINE
  5
1ca
100
AcDbEntity
  8
0
 62
7
100
AcDbSpline
 70
8
 71
3
 72
8
 73
4
 74
0
 40
0
 40
0
 40
0
 40
0
 40
1
 40
1
 40
1
 40
1
 10
247.737036
 20
494.436075
 30
0.0
 10
247.969613
 20
494.301301
 30
0.0
 10
248.256533
 20
494.301301
 30
0.0
 10
248.489110
 20
494.436075
 30
0.0
  0
SPLINE
  5
1cb
100
AcDbEntity
  8
0
 62
7
100
AcDbSpline
 70
8
 71
3
 72
8
 73
4
 74
0
 40
0
 40
0
 40
0
 40
0
 40
1
 40
1
 40
1
 40
1
 10
248.489110
 20
494.436075
 30
0.0
 10
248.721687
 20
494.570849
 30
0.0
 10
248.864352
 20
494.819786
 30
0.0
 10
248.863064
 20
495.088588
 30
0.0
  0
LWPOLYLINE
  5
1cc
100
AcDbEntity
  8
0
 62
7
100
AcDbPolyline
 90
2
 70
1
 10
234.235063
 20
479.557936
 30
0.0
 10
234.235063
 20
479.557936
 30
0.0
  0
SPLINE
  5
1cd
100
AcDbEntity
  8
0
 62
7
100
AcDbSpline
 70
8
 71
3
 72
8
 73
4
 74
0
 40
0
 40
0
 40
0
 40
0
 40
1
 40
1
 40
1
 40
1
 10
302.972583
 20
542.370798
 30
0.0
 10
302.974337
 20
542.818543
 30
0.0
 10
302.736475
 20
543.233030
 30
0.0
 10
302.349006
 20
543.457410
 30
0.0
  0
SPLINE
  5
1ce
100
AcDbEntity
  8
0
 62
7
100
AcDbSpline
 70
8
 71
3
 72
8
 73
4
 74
0
 40
0
 40
0
 40
0
 40
0
 40
1
 40
1
 40
1
 40
1
 10
302.349006
 20
543.457410
 30
0.0
 10
301.961537
 20
543.681791
 30
0.0
 10
301.483648
 20
543.681791
 30
0.0
 10
301.096179
 20
543.457410
 30
0.0
  0
SPLINE
  5
1cf
100
AcDbEntity
  8
0
 62
7
100
AcDbSpline
 70
8
 71
3
 72
8
 73
4
 74
0
 40
0
 40
0
 40
0
 40
0
 40
1
 40
1
 40
1
 40
1
 10
301.096179
 20
543.457410
 30
0.0
 10
300.708710
 20
543.233030
 30
0.0
 10
300.470848
 20
542.818543
 30
0.0
 10
300.472602
 20
542.370798
 30
0.0
  0
SPLINE
  5
1d0
100
AcDbEntity
  8
0
 62
7
100
AcDbSpline
 70
8
 71
3
 72
8
 73
4
 74
0
 40
0
 40
0
 40
0
 40
0
 40
1
 40
1
 40
1
 40
1
 10
300.472602
 20
542.370798
 30
0.0
 10
300.470848
 20
541.923053
 30
0.0
 10
300.708710
 20
541.508566
 30
0.0
 10
301.096179
 20
541.284186
 30
0.0
  0
SPLINE
  5
1d1
100
AcDbEntity
  8
0
 62
7
100
AcDbSpline
 70
8
 71
3
 72
8
 73
4
 74
0
 40
0
 40
0
 40
0
 40
0
 40
1
 40
1
 40
1
 40
1
 10
301.096179
 20
541.284186
 30
0.0
 10
301.483648
 20
541.059805
 30
0.0
 10
301.961537
 20
541.059805
 30
0.0
 10
302.349006
 20
541.284186
 30
0.0
  0
SPLINE
  5
1d2
100
AcDbEntity
  8
0
 62
7
100
AcDbSpline
 70
8
 71
3
 72
8
 73
4
 74
0
 40
0
 40
0
 40
0
 40
0
 40
1
 40
1
 40
1
 40
1
 10
302.349006
 20
541.284186
 30
0.0
 10
302.736475
 20
541.508566
 30
0.0
 10
302.974337
 20
541.923053
 30
0.0
 10
302.972583
 20
542.370798
 30
0.0
  0
LWPOLYLINE
  5
1d3
100
AcDbEntity
  8
0
 62
7
100
AcDbPolyline
 90
2
 70
1
 10
248.863064
 20
495.088588
 30
0.0
 10
248.863064
 20
495.088588
 30
0.0
  0
SPLINE
  5
1d4
100
AcDbEntity
  8
0
 62
7
100
AcDbSpline
 70
8
 71
3
 72
8
 73
4
 74
0
 40
0
 40
0
 40
0
 40
0
 40
1
 40
1
 40
1
 40
1
 10
237.398718
 20
528.808821
 30
0.0
 10
237.398718
 20
529.255404
 30
0.0
 10
237.160469
 20
529.668065
 30
0.0
 10
236.773716
 20
529.891356
 30
0.0
  0
SPLINE
  5
1d5
100
AcDbEntity
  8
0
 62
7
100
AcDbSpline
 70
8
 71
3
 72
8
 73
4
 74
0
 40
0
 40
0
 40
0
 40
0
 40
1
 40
1
 40
1
 40
1
 10
236.773716
 20
529.891356
 30
0.0
 10
236.386963
 20
530.114648
 30
0.0
 10
235.910464
 20
530.114648
 30
0.0
 10
235.523711
 20
529.891356
 30
0.0
  0
SPLINE
  5
1d6
100
AcDbEntity
  8
0
 62
7
100
AcDbSpline
 70
8
 71
3
 72
8
 73
4
 74
0
 40
0
 40
0
 40
0
 40
0
 40
1
 40
1
 40
1
 40
1
 10
235.523711
 20
529.891356
 30
0.0
 10
235.136958
 20
529.668065
 30
0.0
 10
234.898709
 20
529.255404
 30
0.0
 10
234.898709
 20
528.808821
 30
0.0
  0
SPLINE
  5
1d7
100
AcDbEntity
  8
0
 62
7
100
AcDbSpline
 70
8
 71
3
 72
8
 73
4
 74
0
 40
0
 40
0
 40
0
 40
0
 40
1
 40
1
 40
1
 40
1
 10
234.898709
 20
528.808821
 30
0.0
 10
234.898709
 20
528.362237
 30
0.0
 10
235.136958
 20
527.949577
 30
0.0
 10
235.523711
 20
527.726285
 30
0.0
  0
SPLINE
  5
1d8
100
AcDbEntity
  8
0
 62
7
100
AcDbSpline
 70
8
 71
3
 72
8
 73
4
 74
0
 40
0
 40
0
 40
0
 40
0
 40
1
 40
1
 40
1
 40
1
 10
235.523711
 20
527.726285
 30
0.0
 10
235.910464
 20
527.502993
 30
0.0
 10
236.386963
 20
527.502993
 30
0.0
 10
236.773716
 20
527.726285
 30
0.0
  0
SPLINE
  5
1d9
100
AcDbEntity
  8
0
 62
7
100
AcDbSpline
 70
8
 71
3
 72
8
 73
4
 74
0
 40
0
 40
0
 40
0
 40
0
 40
1
 40
1
 40
1
 40
1
 10
236.773716
 20
527.726285
 30
0.0
 10
237.160469
 20
527.949577
 30
0.0
 10
237.398718
 20
528.362237
 30
0.0
 10
237.398718
 20
528.808821
 30
0.0
  0
LWPOLYLINE
  5
1da
100
AcDbEntity
  8
0
 62
7
100
AcDbPolyline
 90
2
 70
1
 10
302.972583
 20
542.370798
 30
0.0
 10
302.972583
 20
542.370798
 30
0.0
  0
SPLINE
  5
1db
100
AcDbEntity
  8
0
 62
7
100
AcDbSpline
 70
8
 71
3
 72
8
 73
4
 74
0
 40
0
 40
0
 40
0
 40
0
 40
1
 40
1
 40
1
 40
1
 10
259.964614
 20
489.624100
 30
0.0
 10
259.964614
 20
489.892051
 30
0.0
 10
259.821664
 20
490.139648
 30
0.0
 10
259.589612
 20
490.273624
 30
0.0
  0
SPLINE
  5
1dc
100
AcDbEntity
  8
0
 62
7
100
AcDbSpline
 70
8
 71
3
 72
8
 73
4
 74
0
 40
0
 40
0
 40
0
 40
0
 40
1
 40
1
 40
1
 40
1
 10
259.589612
 20
490.273624
 30
0.0
 10
259.357559
 20
490.407599
 30
0.0
 10
259.071658
 20
490.407599
 30
0.0
 10
258.839606
 20
490.273624
 30
0.0
  0
SPLINE
  5
1dd
100
AcDbEntity
  8
0
 62
7
100
AcDbSpline
 70
8
 71
3
 72
8
 73
4
 74
0
 40
0
 40
0
 40
0
 40
0
 40
1
 40
1
 40
1
 40
1
 10
258.839606
 20
490.273624
 30
0.0
 10
258.607553
 20
490.139648
 30
0.0
 10
258.464603
 20
489.892051
 30
0.0
 10
258.464603
 20
489.624100
 30
0.0
  0
SPLINE
  5
1de
100
AcDbEntity
  8
0
 62
7
100
AcDbSpline
 70
8
 71
3
 72
8
 73
4
 74
0
 40
0
 40
0
 40
0
 40
0
 40
1
 40
1
 40
1
 40
1
 10
258.464603
 20
489.624100
 30
0.0
 10
258.464603
 20
489.356148
 30
0.0
 10
258.607553
 20
489.108551
 30
0.0
 10
258.839606
 20
488.974576
 30
0.0
  0
SPLINE
  5
1df
100
AcDbEntity
  8
0
 62
7
100
AcDbSpline
 70
8
 71
3
 72
8
 73
4
 74
0
 40
0
 40
0
 40
0
 40
0
 40
1
 40
1
 40
1
 40
1
 10
258.839606
 20
488.974576
 30
0.0
 10
259.071658
 20
488.840600
 30
0.0
 10
259.357559
 20
488.840600
 30
0.0
 10
259.589611
 20
488.974576
 30
0.0
  0
SPLINE
  5
1e0
100
AcDbEntity
  8
0
 62
7
100
AcDbSpline
 70
8
 71
3
 72
8
 73
4
 74
0
 40
0
 40
0
 40
0
 40
0
 40
1
 40
1
 40
1
 40
1
 10
259.589611
 20
488.974576
 30
0.0
 10
259.821664
 20
489.108551
 30
0.0
 10
259.964614
 20
489.356148
 30
0.0
 10
259.964614
 20
489.624100
 30
0.0
  0
LWPOLYLINE
  5
1e1
100
AcDbEntity
  8
0
 62
7
100
AcDbPolyline
 90
2
 70
1
 10
237.398718
 20
528.808821
 30
0.0
 10
237.398718
 20
528.808821
 30
0.0
  0
SPLINE
  5
1e2
100
AcDbEntity
  8
0
 62
7
100
AcDbSpline
 70
8
 71
3
 72
8
 73
4
 74
0
 40
0
 40
0
 40
0
 40
0
 40
1
 40
1
 40
1
 40
1
 10
245.398702
 20
543.808822
 30
0.0
 10
245.400456
 20
544.256567
 30
0.0
 10
245.162594
 20
544.671054
 30
0.0
 10
244.775125
 20
544.895434
 30
0.0
  0
SPLINE
  5
1e3
100
AcDbEntity
  8
0
 62
7
100
AcDbSpline
 70
8
 71
3
 72
8
 73
4
 74
0
 40
0
 40
0
 40
0
 40
0
 40
1
 40
1
 40
1
 40
1
 10
244.775125
 20
544.895434
 30
0.0
 10
244.387656
 20
545.119815
 30
0.0
 10
243.909767
 20
545.119815
 30
0.0
 10
243.522298
 20
544.895434
 30
0.0
  0
SPLINE
  5
1e4
100
AcDbEntity
  8
0
 62
7
100
AcDbSpline
 70
8
 71
3
 72
8
 73
4
 74
0
 40
0
 40
0
 40
0
 40
0
 40
1
 40
1
 40
1
 40
1
 10
243.522298
 20
544.895434
 30
0.0
 10
243.134829
 20
544.671054
 30
0.0
 10
242.896967
 20
544.256567
 30
0.0
 10
242.898721
 20
543.808822
 30
0.0
  0
SPLINE
  5
1e5
100
AcDbEntity
  8
0
 62
7
100
AcDbSpline
 70
8
 71
3
 72
8
 73
4
 74
0
 40
0
 40
0
 40
0
 40
0
 40
1
 40
1
 40
1
 40
1
 10
242.898721
 20
543.808822
 30
0.0
 10
242.896967
 20
543.361076
 30
0.0
 10
243.134829
 20
542.946590
 30
0.0
 10
243.522298
 20
542.722209
 30
0.0
  0
SPLINE
  5
1e6
100
AcDbEntity
  8
0
 62
7
100
AcDbSpline
 70
8
 71
3
 72
8
 73
4
 74
0
 40
0
 40
0
 40
0
 40
0
 40
1
 40
1
 40
1
 40
1
 10
243.522298
 20
542.722209
 30
0.0
 10
243.909767
 20
542.497829
 30
0.0
 10
244.387656
 20
542.497829
 30
0.0
 10
244.775125
 20
542.722209
 30
0.0
  0
SPLINE
  5
1e7
100
AcDbEntity
  8
0
 62
7
100
AcDbSpline
 70
8
 71
3
 72
8
 73
4
 74
0
 40
0
 40
0
 40
0
 40
0
 40
1
 40
1
 40
1
 40
1
 10
244.775125
 20
542.722209
 30
0.0
 10
245.162594
 20
542.946590
 30
0.0
 10
245.400456
 20
543.361076
 30
0.0
 10
245.398702
 20
543.808822
 30
0.0
  0
LWPOLYLINE
  5
1e8
100
AcDbEntity
  8
0
 62
7
100
AcDbPolyline
 90
2
 70
1
 10
259.964614
 20
489.624100
 30
0.0
 10
259.964614
 20
489.624100
 30
0.0
  0
SPLINE
  5
1e9
100
AcDbEntity
  8
0
 62
7
100
AcDbSpline
 70
8
 71
3
 72
8
 73
4
 74
0
 40
0
 40
0
 40
0
 40
0
 40
1
 40
1
 40
1
 40
1
 10
271.508632
 20
530.463964
 30
0.0
 10
271.508632
 20
530.910547
 30
0.0
 10
271.270383
 20
531.323208
 30
0.0
 10
270.883630
 20
531.546499
 30
0.0
  0
SPLINE
  5
1ea
100
AcDbEntity
  8
0
 62
7
100
AcDbSpline
 70
8
 71
3
 72
8
 73
4
 74
0
 40
0
 40
0
 40
0
 40
0
 40
1
 40
1
 40
1
 40
1
 10
270.883630
 20
531.546499
 30
0.0
 10
270.496877
 20
531.769791
 30
0.0
 10
270.020378
 20
531.769791
 30
0.0
 10
269.633625
 20
531.546499
 30
0.0
  0
SPLINE
  5
1eb
100
AcDbEntity
  8
0
 62
7
100
AcDbSpline
 70
8
 71
3
 72
8
 73
4
 74
0
 40
0
 40
0
 40
0
 40
0
 40
1
 40
1
 40
1
 40
1
 10
269.633625
 20
531.546499
 30
0.0
 10
269.246872
 20
531.323208
 30
0.0
 10
269.008623
 20
530.910547
 30
0.0
 10
269.008623
 20
530.463964
 30
0.0
  0
SPLINE
  5
1ec
100
AcDbEntity
  8
0
 62
7
100
AcDbSpline
 70
8
 71
3
 72
8
 73
4
 74
0
 40
0
 40
0
 40
0
 40
0
 40
1
 40
1
 40
1
 40
1
 10
269.008623
 20
530.463964
 30
0.0
 10
269.008623
 20
530.017380
 30
0.0
 10
269.246872
 20
529.604720
 30
0.0
 10
269.633625
 20
529.381428
 30
0.0
  0
SPLINE
  5
1ed
100
AcDbEntity
  8
0
 62
7
100
AcDbSpline
 70
8
 71
3
 72
8
 73
4
 74
0
 40
0
 40
0
 40
0
 40
0
 40
1
 40
1
 40
1
 40
1
 10
269.633625
 20
529.381428
 30
0.0
 10
270.020378
 20
529.158136
 30
0.0
 10
270.496877
 20
529.158136
 30
0.0
 10
270.883630
 20
529.381428
 30
0.0
  0
SPLINE
  5
1ee
100
AcDbEntity
  8
0
 62
7
100
AcDbSpline
 70
8
 71
3
 72
8
 73
4
 74
0
 40
0
 40
0
 40
0
 40
0
 40
1
 40
1
 40
1
 40
1
 10
270.883630
 20
529.381428
 30
0.0
 10
271.270383
 20
529.604720
 30
0.0
 10
271.508632
 20
530.017380
 30
0.0
 10
271.508632
 20
530.463964
 30
0.0
  0
LWPOLYLINE
  5
1ef
100
AcDbEntity
  8
0
 62
7
100
AcDbPolyline
 90
2
 70
1
 10
245.398702
 20
543.808822
 30
0.0
 10
245.398702
 20
543.808822
 30
0.0
  0
SPLINE
  5
1f0
100
AcDbEntity
  8
0
 62
7
100
AcDbSpline
 70
8
 71
3
 72
8
 73
4
 74
0
 40
0
 40
0
 40
0
 40
0
 40
1
 40
1
 40
1
 40
1
 10
263.283124
 20
542.658402
 30
0.0
 10
263.284879
 20
543.106147
 30
0.0
 10
263.047016
 20
543.520634
 30
0.0
 10
262.659547
 20
543.745015
 30
0.0
  0
SPLINE
  5
1f1
100
AcDbEntity
  8
0
 62
7
100
AcDbSpline
 70
8
 71
3
 72
8
 73
4
 74
0
 40
0
 40
0
 40
0
 40
0
 40
1
 40
1
 40
1
 40
1
 10
262.659547
 20
543.745015
 30
0.0
 10
262.272078
 20
543.969395
 30
0.0
 10
261.794190
 20
543.969395
 30
0.0
 10
261.406720
 20
543.745015
 30
0.0
  0
SPLINE
  5
1f2
100
AcDbEntity
  8
0
 62
7
100
AcDbSpline
 70
8
 71
3
 72
8
 73
4
 74
0
 40
0
 40
0
 40
0
 40
0
 40
1
 40
1
 40
1
 40
1
 10
261.406720
 20
543.745015
 30
0.0
 10
261.019251
 20
543.520634
 30
0.0
 10
260.781389
 20
543.106147
 30
0.0
 10
260.783143
 20
542.658402
 30
0.0
  0
SPLINE
  5
1f3
100
AcDbEntity
  8
0
 62
7
100
AcDbSpline
 70
8
 71
3
 72
8
 73
4
 74
0
 40
0
 40
0
 40
0
 40
0
 40
1
 40
1
 40
1
 40
1
 10
260.783143
 20
542.658402
 30
0.0
 10
260.781389
 20
542.210657
 30
0.0
 10
261.019251
 20
541.796170
 30
0.0
 10
261.406720
 20
541.571790
 30
0.0
  0
SPLINE
  5
1f4
100
AcDbEntity
  8
0
 62
7
100
AcDbSpline
 70
8
 71
3
 72
8
 73
4
 74
0
 40
0
 40
0
 40
0
 40
0
 40
1
 40
1
 40
1
 40
1
 10
261.406720
 20
541.571790
 30
0.0
 10
261.794190
 20
541.347409
 30
0.0
 10
262.272078
 20
541.347409
 30
0.0
 10
262.659547
 20
541.571790
 30
0.0
  0
SPLINE
  5
1f5
100
AcDbEntity
  8
0
 62
7
100
AcDbSpline
 70
8
 71
3
 72
8
 73
4
 74
0
 40
0
 40
0
 40
0
 40
0
 40
1
 40
1
 40
1
 40
1
 10
262.659547
 20
541.571790
 30
0.0
 10
263.047016
 20
541.796170
 30
0.0
 10
263.284879
 20
542.210657
 30
0.0
 10
263.283124
 20
542.658402
 30
0.0
  0
LWPOLYLINE
  5
1f6
100
AcDbEntity
  8
0
 62
7
100
AcDbPolyline
 90
2
 70
1
 10
271.508632
 20
530.463964
 30
0.0
 10
271.508632
 20
530.463964
 30
0.0
  0
SPLINE
  5
1f7
100
AcDbEntity
  8
0
 62
7
100
AcDbSpline
 70
8
 71
3
 72
8
 73
4
 74
0
 40
0
 40
0
 40
0
 40
0
 40
1
 40
1
 40
1
 40
1
 10
248.978098
 20
548.468017
 30
0.0
 10
248.979375
 20
548.736812
 30
0.0
 10
248.836708
 20
548.985737
 30
0.0
 10
248.604135
 20
549.120505
 30
0.0
  0
SPLINE
  5
1f8
100
AcDbEntity
  8
0
 62
7
100
AcDbSpline
 70
8
 71
3
 72
8
 73
4
 74
0
 40
0
 40
0
 40
0
 40
0
 40
1
 40
1
 40
1
 40
1
 10
248.604135
 20
549.120505
 30
0.0
 10
248.371562
 20
549.255273
 30
0.0
 10
248.084651
 20
549.255273
 30
0.0
 10
247.852079
 20
549.120505
 30
0.0
  0
SPLINE
  5
1f9
100
AcDbEntity
  8
0
 62
7
100
AcDbSpline
 70
8
 71
3
 72
8
 73
4
 74
0
 40
0
 40
0
 40
0
 40
0
 40
1
 40
1
 40
1
 40
1
 10
247.852079
 20
549.120505
 30
0.0
 10
247.619506
 20
548.985737
 30
0.0
 10
247.476838
 20
548.736812
 30
0.0
 10
247.478115
 20
548.468017
 30
0.0
  0
SPLINE
  5
1fa
100
AcDbEntity
  8
0
 62
7
100
AcDbSpline
 70
8
 71
3
 72
8
 73
4
 74
0
 40
0
 40
0
 40
0
 40
0
 40
1
 40
1
 40
1
 40
1
 10
247.478115
 20
548.468017
 30
0.0
 10
247.476838
 20
548.199222
 30
0.0
 10
247.619506
 20
547.950297
 30
0.0
 10
247.852079
 20
547.815529
 30
0.0
  0
SPLINE
  5
1fb
100
AcDbEntity
  8
0
 62
7
100
AcDbSpline
 70
8
 71
3
 72
8
 73
4
 74
0
 40
0
 40
0
 40
0
 40
0
 40
1
 40
1
 40
1
 40
1
 10
247.852079
 20
547.815529
 30
0.0
 10
248.084651
 20
547.680762
 30
0.0
 10
248.371562
 20
547.680762
 30
0.0
 10
248.604135
 20
547.815529
 30
0.0
  0
SPLINE
  5
1fc
100
AcDbEntity
  8
0
 62
7
100
AcDbSpline
 70
8
 71
3
 72
8
 73
4
 74
0
 40
0
 40
0
 40
0
 40
0
 40
1
 40
1
 40
1
 40
1
 10
248.604135
 20
547.815529
 30
0.0
 10
248.836708
 20
547.950297
 30
0.0
 10
248.979375
 20
548.199222
 30
0.0
 10
248.978098
 20
548.468017
 30
0.0
  0
LWPOLYLINE
  5
1fd
100
AcDbEntity
  8
0
 62
7
100
AcDbPolyline
 90
2
 70
1
 10
263.283124
 20
542.658402
 30
0.0
 10
263.283124
 20
542.658402
 30
0.0
  0
SPLINE
  5
1fe
100
AcDbEntity
  8
0
 62
7
100
AcDbSpline
 70
8
 71
3
 72
8
 73
4
 74
0
 40
0
 40
0
 40
0
 40
0
 40
1
 40
1
 40
1
 40
1
 10
304.678306
 20
493.593044
 30
0.0
 10
304.679017
 20
493.950783
 30
0.0
 10
304.488574
 20
494.281651
 30
0.0
 10
304.178881
 20
494.460726
 30
0.0
  0
SPLINE
  5
1ff
100
AcDbEntity
  8
0
 62
7
100
AcDbSpline
 70
8
 71
3
 72
8
 73
4
 74
0
 40
0
 40
0
 40
0
 40
0
 40
1
 40
1
 40
1
 40
1
 10
304.178881
 20
494.460726
 30
0.0
 10
303.869189
 20
494.639801
 30
0.0
 10
303.487427
 20
494.639801
 30
0.0
 10
303.177734
 20
494.460726
 30
0.0
  0
SPLINE
  5
200
100
AcDbEntity
  8
0
 62
7
100
AcDbSpline
 70
8
 71
3
 72
8
 73
4
 74
0
 40
0
 40
0
 40
0
 40
0
 40
1
 40
1
 40
1
 40
1
 10
303.177734
 20
494.460726
 30
0.0
 10
302.868042
 20
494.281651
 30
0.0
 10
302.677599
 20
493.950783
 30
0.0
 10
302.678310
 20
493.593044
 30
0.0
  0
SPLINE
  5
201
100
AcDbEntity
  8
0
 62
7
100
AcDbSpline
 70
8
 71
3
 72
8
 73
4
 74
0
 40
0
 40
0
 40
0
 40
0
 40
1
 40
1
 40
1
 40
1
 10
302.678310
 20
493.593044
 30
0.0
 10
302.677599
 20
493.235306
 30
0.0
 10
302.868042
 20
492.904437
 30
0.0
 10
303.177734
 20
492.725363
 30
0.0
  0
SPLINE
  5
202
100
AcDbEntity
  8
0
 62
7
100
AcDbSpline
 70
8
 71
3
 72
8
 73
4
 74
0
 40
0
 40
0
 40
0
 40
0
 40
1
 40
1
 40
1
 40
1
 10
303.177734
 20
492.725363
 30
0.0
 10
303.487427
 20
492.546288
 30
0.0
 10
303.869189
 20
492.546288
 30
0.0
 10
304.178881
 20
492.725363
 30
0.0
  0
SPLINE
  5
203
100
AcDbEntity
  8
0
 62
7
100
AcDbSpline
 70
8
 71
3
 72
8
 73
4
 74
0
 40
0
 40
0
 40
0
 40
0
 40
1
 40
1
 40
1
 40
1
 10
304.178881
 20
492.725363
 30
0.0
 10
304.488574
 20
492.904437
 30
0.0
 10
304.679017
 20
493.235306
 30
0.0
 10
304.678306
 20
493.593044
 30
0.0
  0
LWPOLYLINE
  5
204
100
AcDbEntity
  8
0
 62
7
100
AcDbPolyline
 90
2
 70
1
 10
248.978098
 20
548.468017
 30
0.0
 10
248.978098
 20
548.468017
 30
0.0
  0
SPLINE
  5
205
100
AcDbEntity
  8
0
 62
7
100
AcDbSpline
 70
8
 71
3
 72
8
 73
4
 74
0
 40
0
 40
0
 40
0
 40
0
 40
1
 40
1
 40
1
 40
1
 10
245.546756
 20
533.512573
 30
0.0
 10
245.547467
 20
533.870312
 30
0.0
 10
245.357024
 20
534.201180
 30
0.0
 10
245.047332
 20
534.380255
 30
0.0
  0
SPLINE
  5
206
100
AcDbEntity
  8
0
 62
7
100
AcDbSpline
 70
8
 71
3
 72
8
 73
4
 74
0
 40
0
 40
0
 40
0
 40
0
 40
1
 40
1
 40
1
 40
1
 10
245.047332
 20
534.380255
 30
0.0
 10
244.737639
 20
534.559330
 30
0.0
 10
244.355877
 20
534.559330
 30
0.0
 10
244.046184
 20
534.380255
 30
0.0
  0
SPLINE
  5
207
100
AcDbEntity
  8
0
 62
7
100
AcDbSpline
 70
8
 71
3
 72
8
 73
4
 74
0
 40
0
 40
0
 40
0
 40
0
 40
1
 40
1
 40
1
 40
1
 10
244.046184
 20
534.380255
 30
0.0
 10
243.736492
 20
534.201180
 30
0.0
 10
243.546049
 20
533.870312
 30
0.0
 10
243.546760
 20
533.512573
 30
0.0
  0
SPLINE
  5
208
100
AcDbEntity
  8
0
 62
7
100
AcDbSpline
 70
8
 71
3
 72
8
 73
4
 74
0
 40
0
 40
0
 40
0
 40
0
 40
1
 40
1
 40
1
 40
1
 10
243.546760
 20
533.512573
 30
0.0
 10
243.546049
 20
533.154835
 30
0.0
 10
243.736492
 20
532.823966
 30
0.0
 10
244.046184
 20
532.644892
 30
0.0
  0
SPLINE
  5
209
100
AcDbEntity
  8
0
 62
7
100
AcDbSpline
 70
8
 71
3
 72
8
 73
4
 74
0
 40
0
 40
0
 40
0
 40
0
 40
1
 40
1
 40
1
 40
1
 10
244.046184
 20
532.644892
 30
0.0
 10
244.355877
 20
532.465817
 30
0.0
 10
244.737639
 20
532.465817
 30
0.0
 10
245.047332
 20
532.644892
 30
0.0
  0
SPLINE
  5
20a
100
AcDbEntity
  8
0
 62
7
100
AcDbSpline
 70
8
 71
3
 72
8
 73
4
 74
0
 40
0
 40
0
 40
0
 40
0
 40
1
 40
1
 40
1
 40
1
 10
245.047332
 20
532.644892
 30
0.0
 10
245.357024
 20
532.823966
 30
0.0
 10
245.547467
 20
533.154835
 30
0.0
 10
245.546756
 20
533.512573
 30
0.0
  0
LWPOLYLINE
  5
20b
100
AcDbEntity
  8
0
 62
7
100
AcDbPolyline
 90
2
 70
1
 10
304.678306
 20
493.593044
 30
0.0
 10
304.678306
 20
493.593044
 30
0.0
  0
SPLINE
  5
20c
100
AcDbEntity
  8
0
 62
7
100
AcDbSpline
 70
8
 71
3
 72
8
 73
4
 74
0
 40
0
 40
0
 40
0
 40
0
 40
1
 40
1
 40
1
 40
1
 10
247.962663
 20
475.473949
 30
0.0
 10
247.962663
 20
475.831219
 30
0.0
 10
247.772061
 20
476.161350
 30
0.0
 10
247.462657
 20
476.339985
 30
0.0
  0
SPLINE
  5
20d
100
AcDbEntity
  8
0
 62
7
100
AcDbSpline
 70
8
 71
3
 72
8
 73
4
 74
0
 40
0
 40
0
 40
0
 40
0
 40
1
 40
1
 40
1
 40
1
 10
247.462657
 20
476.339985
 30
0.0
 10
247.153252
 20
476.518620
 30
0.0
 10
246.772049
 20
476.518620
 30
0.0
 10
246.462645
 20
476.339985
 30
0.0
  0
SPLINE
  5
20e
100
AcDbEntity
  8
0
 62
7
100
AcDbSpline
 70
8
 71
3
 72
8
 73
4
 74
0
 40
0
 40
0
 40
0
 40
0
 40
1
 40
1
 40
1
 40
1
 10
246.462645
 20
476.339985
 30
0.0
 10
246.153240
 20
476.161350
 30
0.0
 10
245.962638
 20
475.831219
 30
0.0
 10
245.962638
 20
475.473949
 30
0.0
  0
SPLINE
  5
20f
100
AcDbEntity
  8
0
 62
7
100
AcDbSpline
 70
8
 71
3
 72
8
 73
4
 74
0
 40
0
 40
0
 40
0
 40
0
 40
1
 40
1
 40
1
 40
1
 10
245.962638
 20
475.473949
 30
0.0
 10
245.962638
 20
475.116679
 30
0.0
 10
246.153240
 20
474.786548
 30
0.0
 10
246.462645
 20
474.607913
 30
0.0
  0
SPLINE
  5
210
100
AcDbEntity
  8
0
 62
7
100
AcDbSpline
 70
8
 71
3
 72
8
 73
4
 74
0
 40
0
 40
0
 40
0
 40
0
 40
1
 40
1
 40
1
 40
1
 10
246.462645
 20
474.607913
 30
0.0
 10
246.772049
 20
474.429278
 30
0.0
 10
247.153252
 20
474.429278
 30
0.0
 10
247.462657
 20
474.607913
 30
0.0
  0
SPLINE
  5
211
100
AcDbEntity
  8
0
 62
7
100
AcDbSpline
 70
8
 71
3
 72
8
 73
4
 74
0
 40
0
 40
0
 40
0
 40
0
 40
1
 40
1
 40
1
 40
1
 10
247.462657
 20
474.607913
 30
0.0
 10
247.772061
 20
474.786548
 30
0.0
 10
247.962663
 20
475.116679
 30
0.0
 10
247.962663
 20
475.473949
 30
0.0
  0
LWPOLYLINE
  5
212
100
AcDbEntity
  8
0
 62
7
100
AcDbPolyline
 90
2
 70
1
 10
245.546756
 20
533.512573
 30
0.0
 10
245.546756
 20
533.512573
 30
0.0
  0
SPLINE
  5
213
100
AcDbEntity
  8
0
 62
7
100
AcDbSpline
 70
8
 71
3
 72
8
 73
4
 74
0
 40
0
 40
0
 40
0
 40
0
 40
1
 40
1
 40
1
 40
1
 10
238.451774
 20
489.969226
 30
0.0
 10
238.453062
 20
490.238029
 30
0.0
 10
238.310396
 20
490.486965
 30
0.0
 10
238.077819
 20
490.621739
 30
0.0
  0
SPLINE
  5
214
100
AcDbEntity
  8
0
 62
7
100
AcDbSpline
 70
8
 71
3
 72
8
 73
4
 74
0
 40
0
 40
0
 40
0
 40
0
 40
1
 40
1
 40
1
 40
1
 10
238.077819
 20
490.621739
 30
0.0
 10
237.845242
 20
490.756513
 30
0.0
 10
237.558323
 20
490.756513
 30
0.0
 10
237.325746
 20
490.621739
 30
0.0
  0
SPLINE
  5
215
100
AcDbEntity
  8
0
 62
7
100
AcDbSpline
 70
8
 71
3
 72
8
 73
4
 74
0
 40
0
 40
0
 40
0
 40
0
 40
1
 40
1
 40
1
 40
1
 10
237.325746
 20
490.621739
 30
0.0
 10
237.093168
 20
490.486965
 30
0.0
 10
236.950503
 20
490.238029
 30
0.0
 10
236.951791
 20
489.969226
 30
0.0
  0
SPLINE
  5
216
100
AcDbEntity
  8
0
 62
7
100
AcDbSpline
 70
8
 71
3
 72
8
 73
4
 74
0
 40
0
 40
0
 40
0
 40
0
 40
1
 40
1
 40
1
 40
1
 10
236.951791
 20
489.969226
 30
0.0
 10
236.950503
 20
489.700424
 30
0.0
 10
237.093168
 20
489.451488
 30
0.0
 10
237.325746
 20
489.316714
 30
0.0
  0
SPLINE
  5
217
100
AcDbEntity
  8
0
 62
7
100
AcDbSpline
 70
8
 71
3
 72
8
 73
4
 74
0
 40
0
 40
0
 40
0
 40
0
 40
1
 40
1
 40
1
 40
1
 10
237.325746
 20
489.316714
 30
0.0
 10
237.558323
 20
489.181939
 30
0.0
 10
237.845242
 20
489.181939
 30
0.0
 10
238.077819
 20
489.316714
 30
0.0
  0
SPLINE
  5
218
100
AcDbEntity
  8
0
 62
7
100
AcDbSpline
 70
8
 71
3
 72
8
 73
4
 74
0
 40
0
 40
0
 40
0
 40
0
 40
1
 40
1
 40
1
 40
1
 10
238.077819
 20
489.316714
 30
0.0
 10
238.310396
 20
489.451488
 30
0.0
 10
238.453062
 20
489.700424
 30
0.0
 10
238.451774
 20
489.969226
 30
0.0
  0
LWPOLYLINE
  5
219
100
AcDbEntity
  8
0
 62
7
100
AcDbPolyline
 90
2
 70
1
 10
247.962663
 20
475.473949
 30
0.0
 10
247.962663
 20
475.473949
 30
0.0
  0
SPLINE
  5
21a
100
AcDbEntity
  8
0
 62
7
100
AcDbSpline
 70
8
 71
3
 72
8
 73
4
 74
0
 40
0
 40
0
 40
0
 40
0
 40
1
 40
1
 40
1
 40
1
 10
246.832137
 20
521.605739
 30
0.0
 10
246.833891
 20
522.053484
 30
0.0
 10
246.596029
 20
522.467971
 30
0.0
 10
246.208560
 20
522.692352
 30
0.0
  0
SPLINE
  5
21b
100
AcDbEntity
  8
0
 62
7
100
AcDbSpline
 70
8
 71
3
 72
8
 73
4
 74
0
 40
0
 40
0
 40
0
 40
0
 40
1
 40
1
 40
1
 40
1
 10
246.208560
 20
522.692352
 30
0.0
 10
245.821091
 20
522.916732
 30
0.0
 10
245.343202
 20
522.916732
 30
0.0
 10
244.955733
 20
522.692352
 30
0.0
  0
SPLINE
  5
21c
100
AcDbEntity
  8
0
 62
7
100
AcDbSpline
 70
8
 71
3
 72
8
 73
4
 74
0
 40
0
 40
0
 40
0
 40
0
 40
1
 40
1
 40
1
 40
1
 10
244.955733
 20
522.692352
 30
0.0
 10
244.568264
 20
522.467971
 30
0.0
 10
244.330402
 20
522.053484
 30
0.0
 10
244.332156
 20
521.605739
 30
0.0
  0
SPLINE
  5
21d
100
AcDbEntity
  8
0
 62
7
100
AcDbSpline
 70
8
 71
3
 72
8
 73
4
 74
0
 40
0
 40
0
 40
0
 40
0
 40
1
 40
1
 40
1
 40
1
 10
244.332156
 20
521.605739
 30
0.0
 10
244.330402
 20
521.157994
 30
0.0
 10
244.568264
 20
520.743507
 30
0.0
 10
244.955733
 20
520.519127
 30
0.0
  0
SPLINE
  5
21e
100
AcDbEntity
  8
0
 62
7
100
AcDbSpline
 70
8
 71
3
 72
8
 73
4
 74
0
 40
0
 40
0
 40
0
 40
0
 40
1
 40
1
 40
1
 40
1
 10
244.955733
 20
520.519127
 30
0.0
 10
245.343202
 20
520.294746
 30
0.0
 10
245.821091
 20
520.294746
 30
0.0
 10
246.208560
 20
520.519127
 30
0.0
  0
SPLINE
  5
21f
100
AcDbEntity
  8
0
 62
7
100
AcDbSpline
 70
8
 71
3
 72
8
 73
4
 74
0
 40
0
 40
0
 40
0
 40
0
 40
1
 40
1
 40
1
 40
1
 10
246.208560
 20
520.519127
 30
0.0
 10
246.596029
 20
520.743507
 30
0.0
 10
246.833891
 20
521.157994
 30
0.0
 10
246.832137
 20
521.605739
 30
0.0
  0
LWPOLYLINE
  5
220
100
AcDbEntity
  8
0
 62
7
100
AcDbPolyline
 90
2
 70
1
 10
238.451774
 20
489.969226
 30
0.0
 10
238.451774
 20
489.969226
 30
0.0
  0
SPLINE
  5
221
100
AcDbEntity
  8
0
 62
7
100
AcDbSpline
 70
8
 71
3
 72
8
 73
4
 74
0
 40
0
 40
0
 40
0
 40
0
 40
1
 40
1
 40
1
 40
1
 10
285.781637
 20
540.682172
 30
0.0
 10
285.783392
 20
541.129917
 30
0.0
 10
285.545529
 20
541.544404
 30
0.0
 10
285.158060
 20
541.768784
 30
0.0
  0
SPLINE
  5
222
100
AcDbEntity
  8
0
 62
7
100
AcDbSpline
 70
8
 71
3
 72
8
 73
4
 74
0
 40
0
 40
0
 40
0
 40
0
 40
1
 40
1
 40
1
 40
1
 10
285.158060
 20
541.768784
 30
0.0
 10
284.770591
 20
541.993165
 30
0.0
 10
284.292702
 20
541.993165
 30
0.0
 10
283.905233
 20
541.768784
 30
0.0
  0
SPLINE
  5
223
100
AcDbEntity
  8
0
 62
7
100
AcDbSpline
 70
8
 71
3
 72
8
 73
4
 74
0
 40
0
 40
0
 40
0
 40
0
 40
1
 40
1
 40
1
 40
1
 10
283.905233
 20
541.768784
 30
0.0
 10
283.517764
 20
541.544404
 30
0.0
 10
283.279902
 20
541.129917
 30
0.0
 10
283.281656
 20
540.682172
 30
0.0
  0
SPLINE
  5
224
100
AcDbEntity
  8
0
 62
7
100
AcDbSpline
 70
8
 71
3
 72
8
 73
4
 74
0
 40
0
 40
0
 40
0
 40
0
 40
1
 40
1
 40
1
 40
1
 10
283.281656
 20
540.682172
 30
0.0
 10
283.279902
 20
540.234427
 30
0.0
 10
283.517764
 20
539.819940
 30
0.0
 10
283.905233
 20
539.595560
 30
0.0
  0
SPLINE
  5
225
100
AcDbEntity
  8
0
 62
7
100
AcDbSpline
 70
8
 71
3
 72
8
 73
4
 74
0
 40
0
 40
0
 40
0
 40
0
 40
1
 40
1
 40
1
 40
1
 10
283.905233
 20
539.595560
 30
0.0
 10
284.292702
 20
539.371179
 30
0.0
 10
284.770591
 20
539.371179
 30
0.0
 10
285.158060
 20
539.595560
 30
0.0
  0
SPLINE
  5
226
100
AcDbEntity
  8
0
 62
7
100
AcDbSpline
 70
8
 71
3
 72
8
 73
4
 74
0
 40
0
 40
0
 40
0
 40
0
 40
1
 40
1
 40
1
 40
1
 10
285.158060
 20
539.595560
 30
0.0
 10
285.545529
 20
539.819940
 30
0.0
 10
285.783392
 20
540.234427
 30
0.0
 10
285.781637
 20
540.682172
 30
0.0
  0
LWPOLYLINE
  5
227
100
AcDbEntity
  8
0
 62
7
100
AcDbPolyline
 90
2
 70
1
 10
246.832137
 20
521.605739
 30
0.0
 10
246.832137
 20
521.605739
 30
0.0
  0
SPLINE
  5
228
100
AcDbEntity
  8
0
 62
7
100
AcDbSpline
 70
8
 71
3
 72
8
 73
4
 74
0
 40
0
 40
0
 40
0
 40
0
 40
1
 40
1
 40
1
 40
1
 10
260.022131
 20
480.650833
 30
0.0
 10
260.022131
 20
480.918784
 30
0.0
 10
259.879181
 20
481.166381
 30
0.0
 10
259.647128
 20
481.300357
 30
0.0
  0
SPLINE
  5
229
100
AcDbEntity
  8
0
 62
7
100
AcDbSpline
 70
8
 71
3
 72
8
 73
4
 74
0
 40
0
 40
0
 40
0
 40
0
 40
1
 40
1
 40
1
 40
1
 10
259.647128
 20
481.300357
 30
0.0
 10
259.415076
 20
481.434332
 30
0.0
 10
259.129175
 20
481.434332
 30
0.0
 10
258.897123
 20
481.300357
 30
0.0
  0
SPLINE
  5
22a
100
AcDbEntity
  8
0
 62
7
100
AcDbSpline
 70
8
 71
3
 72
8
 73
4
 74
0
 40
0
 40
0
 40
0
 40
0
 40
1
 40
1
 40
1
 40
1
 10
258.897123
 20
481.300357
 30
0.0
 10
258.665070
 20
481.166381
 30
0.0
 10
258.522120
 20
480.918784
 30
0.0
 10
258.522120
 20
480.650833
 30
0.0
  0
SPLINE
  5
22b
100
AcDbEntity
  8
0
 62
7
100
AcDbSpline
 70
8
 71
3
 72
8
 73
4
 74
0
 40
0
 40
0
 40
0
 40
0
 40
1
 40
1
 40
1
 40
1
 10
258.522120
 20
480.650833
 30
0.0
 10
258.522120
 20
480.236616
 30
0.0
 10
258.857909
 20
479.900827
 30
0.0
 10
259.272126
 20
479.900827
 30
0.0
  0
SPLINE
  5
22c
100
AcDbEntity
  8
0
 62
7
100
AcDbSpline
 70
8
 71
3
 72
8
 73
4
 74
0
 40
0
 40
0
 40
0
 40
0
 40
1
 40
1
 40
1
 40
1
 10
259.272126
 20
479.900827
 30
0.0
 10
259.686342
 20
479.900827
 30
0.0
 10
260.022131
 20
480.236616
 30
0.0
 10
260.022131
 20
480.650833
 30
0.0
  0
LWPOLYLINE
  5
22d
100
AcDbEntity
  8
0
 62
7
100
AcDbPolyline
 90
2
 70
1
 10
285.781637
 20
540.682172
 30
0.0
 10
285.781637
 20
540.682172
 30
0.0
  0
SPLINE
  5
22e
100
AcDbEntity
  8
0
 62
7
100
AcDbSpline
 70
8
 71
3
 72
8
 73
4
 74
0
 40
0
 40
0
 40
0
 40
0
 40
1
 40
1
 40
1
 40
1
 10
276.012955
 20
485.367551
 30
0.0
 10
276.012955
 20
485.635502
 30
0.0
 10
275.870005
 20
485.883099
 30
0.0
 10
275.637952
 20
486.017075
 30
0.0
  0
SPLINE
  5
22f
100
AcDbEntity
  8
0
 62
7
100
AcDbSpline
 70
8
 71
3
 72
8
 73
4
 74
0
 40
0
 40
0
 40
0
 40
0
 40
1
 40
1
 40
1
 40
1
 10
275.637952
 20
486.017075
 30
0.0
 10
275.405900
 20
486.151050
 30
0.0
 10
275.119999
 20
486.151050
 30
0.0
 10
274.887947
 20
486.017075
 30
0.0
  0
SPLINE
  5
230
100
AcDbEntity
  8
0
 62
7
100
AcDbSpline
 70
8
 71
3
 72
8
 73
4
 74
0
 40
0
 40
0
 40
0
 40
0
 40
1
 40
1
 40
1
 40
1
 10
274.887947
 20
486.017075
 30
0.0
 10
274.655894
 20
485.883099
 30
0.0
 10
274.512944
 20
485.635502
 30
0.0
 10
274.512944
 20
485.367551
 30
0.0
  0
SPLINE
  5
231
100
AcDbEntity
  8
0
 62
7
100
AcDbSpline
 70
8
 71
3
 72
8
 73
4
 74
0
 40
0
 40
0
 40
0
 40
0
 40
1
 40
1
 40
1
 40
1
 10
274.512944
 20
485.367551
 30
0.0
 10
274.512944
 20
484.953334
 30
0.0
 10
274.848733
 20
484.617545
 30
0.0
 10
275.262950
 20
484.617545
 30
0.0
  0
SPLINE
  5
232
100
AcDbEntity
  8
0
 62
7
100
AcDbSpline
 70
8
 71
3
 72
8
 73
4
 74
0
 40
0
 40
0
 40
0
 40
0
 40
1
 40
1
 40
1
 40
1
 10
275.262950
 20
484.617545
 30
0.0
 10
275.677166
 20
484.617545
 30
0.0
 10
276.012955
 20
484.953334
 30
0.0
 10
276.012955
 20
485.367551
 30
0.0
  0
LWPOLYLINE
  5
233
100
AcDbEntity
  8
0
 62
7
100
AcDbPolyline
 90
2
 70
1
 10
260.022131
 20
480.650833
 30
0.0
 10
260.022131
 20
480.650833
 30
0.0
  0
SPLINE
  5
234
100
AcDbEntity
  8
0
 62
7
100
AcDbSpline
 70
8
 71
3
 72
8
 73
4
 74
0
 40
0
 40
0
 40
0
 40
0
 40
1
 40
1
 40
1
 40
1
 10
291.486082
 20
512.517433
 30
0.0
 10
291.487370
 20
512.786235
 30
0.0
 10
291.344705
 20
513.035171
 30
0.0
 10
291.112127
 20
513.169946
 30
0.0
  0
SPLINE
  5
235
100
AcDbEntity
  8
0
 62
7
100
AcDbSpline
 70
8
 71
3
 72
8
 73
4
 74
0
 40
0
 40
0
 40
0
 40
0
 40
1
 40
1
 40
1
 40
1
 10
291.112127
 20
513.169946
 30
0.0
 10
290.879550
 20
513.304720
 30
0.0
 10
290.592631
 20
513.304720
 30
0.0
 10
290.360054
 20
513.169946
 30
0.0
  0
SPLINE
  5
236
100
AcDbEntity
  8
0
 62
7
100
AcDbSpline
 70
8
 71
3
 72
8
 73
4
 74
0
 40
0
 40
0
 40
0
 40
0
 40
1
 40
1
 40
1
 40
1
 10
290.360054
 20
513.169946
 30
0.0
 10
290.127476
 20
513.035171
 30
0.0
 10
289.984811
 20
512.786235
 30
0.0
 10
289.986099
 20
512.517433
 30
0.0
  0
SPLINE
  5
237
100
AcDbEntity
  8
0
 62
7
100
AcDbSpline
 70
8
 71
3
 72
8
 73
4
 74
0
 40
0
 40
0
 40
0
 40
0
 40
1
 40
1
 40
1
 40
1
 10
289.986099
 20
512.517433
 30
0.0
 10
289.984811
 20
512.248631
 30
0.0
 10
290.127476
 20
511.999694
 30
0.0
 10
290.360054
 20
511.864920
 30
0.0
  0
SPLINE
  5
238
100
AcDbEntity
  8
0
 62
7
100
AcDbSpline
 70
8
 71
3
 72
8
 73
4
 74
0
 40
0
 40
0
 40
0
 40
0
 40
1
 40
1
 40
1
 40
1
 10
290.360054
 20
511.864920
 30
0.0
 10
290.592631
 20
511.730146
 30
0.0
 10
290.879550
 20
511.730146
 30
0.0
 10
291.112127
 20
511.864920
 30
0.0
  0
SPLINE
  5
239
100
AcDbEntity
  8
0
 62
7
100
AcDbSpline
 70
8
 71
3
 72
8
 73
4
 74
0
 40
0
 40
0
 40
0
 40
0
 40
1
 40
1
 40
1
 40
1
 10
291.112127
 20
511.864920
 30
0.0
 10
291.344705
 20
511.999694
 30
0.0
 10
291.487370
 20
512.248631
 30
0.0
 10
291.486082
 20
512.517433
 30
0.0
  0
LWPOLYLINE
  5
23a
100
AcDbEntity
  8
0
 62
7
100
AcDbPolyline
 90
2
 70
1
 10
276.012955
 20
485.367551
 30
0.0
 10
276.012955
 20
485.367551
 30
0.0
  0
SPLINE
  5
23b
100
AcDbEntity
  8
0
 62
7
100
AcDbSpline
 70
8
 71
3
 72
8
 73
4
 74
0
 40
0
 40
0
 40
0
 40
0
 40
1
 40
1
 40
1
 40
1
 10
293.154213
 20
533.915220
 30
0.0
 10
293.154213
 20
534.183171
 30
0.0
 10
293.011263
 20
534.430768
 30
0.0
 10
292.779210
 20
534.564744
 30
0.0
  0
SPLINE
  5
23c
100
AcDbEntity
  8
0
 62
7
100
AcDbSpline
 70
8
 71
3
 72
8
 73
4
 74
0
 40
0
 40
0
 40
0
 40
0
 40
1
 40
1
 40
1
 40
1
 10
292.779210
 20
534.564744
 30
0.0
 10
292.547158
 20
534.698719
 30
0.0
 10
292.261257
 20
534.698719
 30
0.0
 10
292.029205
 20
534.564744
 30
0.0
  0
SPLINE
  5
23d
100
AcDbEntity
  8
0
 62
7
100
AcDbSpline
 70
8
 71
3
 72
8
 73
4
 74
0
 40
0
 40
0
 40
0
 40
0
 40
1
 40
1
 40
1
 40
1
 10
292.029205
 20
534.564744
 30
0.0
 10
291.797152
 20
534.430768
 30
0.0
 10
291.654202
 20
534.183171
 30
0.0
 10
291.654202
 20
533.915220
 30
0.0
  0
SPLINE
  5
23e
100
AcDbEntity
  8
0
 62
7
100
AcDbSpline
 70
8
 71
3
 72
8
 73
4
 74
0
 40
0
 40
0
 40
0
 40
0
 40
1
 40
1
 40
1
 40
1
 10
291.654202
 20
533.915220
 30
0.0
 10
291.654202
 20
533.647269
 30
0.0
 10
291.797152
 20
533.399672
 30
0.0
 10
292.029205
 20
533.265696
 30
0.0
  0
SPLINE
  5
23f
100
AcDbEntity
  8
0
 62
7
100
AcDbSpline
 70
8
 71
3
 72
8
 73
4
 74
0
 40
0
 40
0
 40
0
 40
0
 40
1
 40
1
 40
1
 40
1
 10
292.029205
 20
533.265696
 30
0.0
 10
292.261257
 20
533.131720
 30
0.0
 10
292.547158
 20
533.131720
 30
0.0
 10
292.779210
 20
533.265696
 30
0.0
  0
SPLINE
  5
240
100
AcDbEntity
  8
0
 62
7
100
AcDbSpline
 70
8
 71
3
 72
8
 73
4
 74
0
 40
0
 40
0
 40
0
 40
0
 40
1
 40
1
 40
1
 40
1
 10
292.779210
 20
533.265696
 30
0.0
 10
293.011263
 20
533.399672
 30
0.0
 10
293.154213
 20
533.647269
 30
0.0
 10
293.154213
 20
533.915220
 30
0.0
  0
LWPOLYLINE
  5
241
100
AcDbEntity
  8
0
 62
7
100
AcDbPolyline
 90
2
 70
1
 10
291.486082
 20
512.517433
 30
0.0
 10
291.486082
 20
512.517433
 30
0.0
  0
SPLINE
  5
242
100
AcDbEntity
  8
0
 62
7
100
AcDbSpline
 70
8
 71
3
 72
8
 73
4
 74
0
 40
0
 40
0
 40
0
 40
0
 40
1
 40
1
 40
1
 40
1
 10
237.398718
 20
543.808822
 30
0.0
 10
237.398718
 20
544.255405
 30
0.0
 10
237.160469
 20
544.668066
 30
0.0
 10
236.773716
 20
544.891357
 30
0.0
  0
SPLINE
  5
243
100
AcDbEntity
  8
0
 62
7
100
AcDbSpline
 70
8
 71
3
 72
8
 73
4
 74
0
 40
0
 40
0
 40
0
 40
0
 40
1
 40
1
 40
1
 40
1
 10
236.773716
 20
544.891357
 30
0.0
 10
236.386963
 20
545.114649
 30
0.0
 10
235.910464
 20
545.114649
 30
0.0
 10
235.523711
 20
544.891357
 30
0.0
  0
SPLINE
  5
244
100
AcDbEntity
  8
0
 62
7
100
AcDbSpline
 70
8
 71
3
 72
8
 73
4
 74
0
 40
0
 40
0
 40
0
 40
0
 40
1
 40
1
 40
1
 40
1
 10
235.523711
 20
544.891357
 30
0.0
 10
235.136958
 20
544.668066
 30
0.0
 10
234.898709
 20
544.255405
 30
0.0
 10
234.898709
 20
543.808822
 30
0.0
  0
SPLINE
  5
245
100
AcDbEntity
  8
0
 62
7
100
AcDbSpline
 70
8
 71
3
 72
8
 73
4
 74
0
 40
0
 40
0
 40
0
 40
0
 40
1
 40
1
 40
1
 40
1
 10
234.898709
 20
543.808822
 30
0.0
 10
234.898709
 20
543.362238
 30
0.0
 10
235.136958
 20
542.949578
 30
0.0
 10
235.523711
 20
542.726286
 30
0.0
  0
SPLINE
  5
246
100
AcDbEntity
  8
0
 62
7
100
AcDbSpline
 70
8
 71
3
 72
8
 73
4
 74
0
 40
0
 40
0
 40
0
 40
0
 40
1
 40
1
 40
1
 40
1
 10
235.523711
 20
542.726286
 30
0.0
 10
235.910464
 20
542.502994
 30
0.0
 10
236.386963
 20
542.502994
 30
0.0
 10
236.773716
 20
542.726286
 30
0.0
  0
SPLINE
  5
247
100
AcDbEntity
  8
0
 62
7
100
AcDbSpline
 70
8
 71
3
 72
8
 73
4
 74
0
 40
0
 40
0
 40
0
 40
0
 40
1
 40
1
 40
1
 40
1
 10
236.773716
 20
542.726286
 30
0.0
 10
237.160469
 20
542.949578
 30
0.0
 10
237.398718
 20
543.362238
 30
0.0
 10
237.398718
 20
543.808822
 30
0.0
  0
LWPOLYLINE
  5
248
100
AcDbEntity
  8
0
 62
7
100
AcDbPolyline
 90
2
 70
1
 10
293.154213
 20
533.915220
 30
0.0
 10
293.154213
 20
533.915220
 30
0.0
  0
SPLINE
  5
249
100
AcDbEntity
  8
0
 62
7
100
AcDbSpline
 70
8
 71
3
 72
8
 73
4
 74
0
 40
0
 40
0
 40
0
 40
0
 40
1
 40
1
 40
1
 40
1
 10
284.393324
 20
506.247652
 30
0.0
 10
284.393324
 20
506.694235
 30
0.0
 10
284.155074
 20
507.106896
 30
0.0
 10
283.768322
 20
507.330187
 30
0.0
  0
SPLINE
  5
24a
100
AcDbEntity
  8
0
 62
7
100
AcDbSpline
 70
8
 71
3
 72
8
 73
4
 74
0
 40
0
 40
0
 40
0
 40
0
 40
1
 40
1
 40
1
 40
1
 10
283.768322
 20
507.330187
 30
0.0
 10
283.381569
 20
507.553479
 30
0.0
 10
282.905070
 20
507.553479
 30
0.0
 10
282.518317
 20
507.330187
 30
0.0
  0
SPLINE
  5
24b
100
AcDbEntity
  8
0
 62
7
100
AcDbSpline
 70
8
 71
3
 72
8
 73
4
 74
0
 40
0
 40
0
 40
0
 40
0
 40
1
 40
1
 40
1
 40
1
 10
282.518317
 20
507.330187
 30
0.0
 10
282.131564
 20
507.106896
 30
0.0
 10
281.893315
 20
506.694235
 30
0.0
 10
281.893318
 20
506.247652
 30
0.0
  0
SPLINE
  5
24c
100
AcDbEntity
  8
0
 62
7
100
AcDbSpline
 70
8
 71
3
 72
8
 73
4
 74
0
 40
0
 40
0
 40
0
 40
0
 40
1
 40
1
 40
1
 40
1
 10
281.893318
 20
506.247652
 30
0.0
 10
281.893318
 20
505.801068
 30
0.0
 10
282.131567
 20
505.388408
 30
0.0
 10
282.518320
 20
505.165116
 30
0.0
  0
SPLINE
  5
24d
100
AcDbEntity
  8
0
 62
7
100
AcDbSpline
 70
8
 71
3
 72
8
 73
4
 74
0
 40
0
 40
0
 40
0
 40
0
 40
1
 40
1
 40
1
 40
1
 10
282.518320
 20
505.165116
 30
0.0
 10
282.905073
 20
504.941824
 30
0.0
 10
283.381572
 20
504.941824
 30
0.0
 10
283.768324
 20
505.165116
 30
0.0
  0
SPLINE
  5
24e
100
AcDbEntity
  8
0
 62
7
100
AcDbSpline
 70
8
 71
3
 72
8
 73
4
 74
0
 40
0
 40
0
 40
0
 40
0
 40
1
 40
1
 40
1
 40
1
 10
283.768324
 20
505.165116
 30
0.0
 10
284.155077
 20
505.388408
 30
0.0
 10
284.393327
 20
505.801068
 30
0.0
 10
284.393327
 20
506.247652
 30
0.0
  0
LWPOLYLINE
  5
24f
100
AcDbEntity
  8
0
 62
7
100
AcDbPolyline
 90
2
 70
1
 10
237.398718
 20
543.808822
 30
0.0
 10
237.398718
 20
543.808822
 30
0.0
  0
SPLINE
  5
250
100
AcDbEntity
  8
0
 62
7
100
AcDbSpline
 70
8
 71
3
 72
8
 73
4
 74
0
 40
0
 40
0
 40
0
 40
0
 40
1
 40
1
 40
1
 40
1
 10
302.357536
 20
517.521755
 30
0.0
 10
302.358813
 20
517.790550
 30
0.0
 10
302.216146
 20
518.039475
 30
0.0
 10
301.983573
 20
518.174243
 30
0.0
  0
SPLINE
  5
251
100
AcDbEntity
  8
0
 62
7
100
AcDbSpline
 70
8
 71
3
 72
8
 73
4
 74
0
 40
0
 40
0
 40
0
 40
0
 40
1
 40
1
 40
1
 40
1
 10
301.983573
 20
518.174243
 30
0.0
 10
301.751000
 20
518.309011
 30
0.0
 10
301.464089
 20
518.309011
 30
0.0
 10
301.231516
 20
518.174243
 30
0.0
  0
SPLINE
  5
252
100
AcDbEntity
  8
0
 62
7
100
AcDbSpline
 70
8
 71
3
 72
8
 73
4
 74
0
 40
0
 40
0
 40
0
 40
0
 40
1
 40
1
 40
1
 40
1
 10
301.231516
 20
518.174243
 30
0.0
 10
300.998943
 20
518.039475
 30
0.0
 10
300.856276
 20
517.790550
 30
0.0
 10
300.857553
 20
517.521755
 30
0.0
  0
SPLINE
  5
253
100
AcDbEntity
  8
0
 62
7
100
AcDbSpline
 70
8
 71
3
 72
8
 73
4
 74
0
 40
0
 40
0
 40
0
 40
0
 40
1
 40
1
 40
1
 40
1
 10
300.857553
 20
517.521755
 30
0.0
 10
300.856276
 20
517.252960
 30
0.0
 10
300.998943
 20
517.004035
 30
0.0
 10
301.231516
 20
516.869267
 30
0.0
  0
SPLINE
  5
254
100
AcDbEntity
  8
0
 62
7
100
AcDbSpline
 70
8
 71
3
 72
8
 73
4
 74
0
 40
0
 40
0
 40
0
 40
0
 40
1
 40
1
 40
1
 40
1
 10
301.231516
 20
516.869267
 30
0.0
 10
301.464089
 20
516.734499
 30
0.0
 10
301.751000
 20
516.734499
 30
0.0
 10
301.983573
 20
516.869267
 30
0.0
  0
SPLINE
  5
255
100
AcDbEntity
  8
0
 62
7
100
AcDbSpline
 70
8
 71
3
 72
8
 73
4
 74
0
 40
0
 40
0
 40
0
 40
0
 40
1
 40
1
 40
1
 40
1
 10
301.983573
 20
516.869267
 30
0.0
 10
302.216146
 20
517.004035
 30
0.0
 10
302.358813
 20
517.252960
 30
0.0
 10
302.357536
 20
517.521755
 30
0.0
  0
LWPOLYLINE
  5
256
100
AcDbEntity
  8
0
 62
7
100
AcDbPolyline
 90
2
 70
1
 10
284.393327
 20
506.247652
 30
0.0
 10
284.393330
 20
506.247652
 30
0.0
  0
SPLINE
  5
257
100
AcDbEntity
  8
0
 62
7
100
AcDbSpline
 70
8
 71
3
 72
8
 73
4
 74
0
 40
0
 40
0
 40
0
 40
0
 40
1
 40
1
 40
1
 40
1
 10
287.767155
 20
492.039978
 30
0.0
 10
287.767866
 20
492.397717
 30
0.0
 10
287.577423
 20
492.728585
 30
0.0
 10
287.267731
 20
492.907660
 30
0.0
  0
SPLINE
  5
258
100
AcDbEntity
  8
0
 62
7
100
AcDbSpline
 70
8
 71
3
 72
8
 73
4
 74
0
 40
0
 40
0
 40
0
 40
0
 40
1
 40
1
 40
1
 40
1
 10
287.267731
 20
492.907660
 30
0.0
 10
286.958038
 20
493.086735
 30
0.0
 10
286.576276
 20
493.086735
 30
0.0
 10
286.266583
 20
492.907660
 30
0.0
  0
SPLINE
  5
259
100
AcDbEntity
  8
0
 62
7
100
AcDbSpline
 70
8
 71
3
 72
8
 73
4
 74
0
 40
0
 40
0
 40
0
 40
0
 40
1
 40
1
 40
1
 40
1
 10
286.266583
 20
492.907660
 30
0.0
 10
285.956891
 20
492.728585
 30
0.0
 10
285.766448
 20
492.397717
 30
0.0
 10
285.767159
 20
492.039978
 30
0.0
  0
SPLINE
  5
25a
100
AcDbEntity
  8
0
 62
7
100
AcDbSpline
 70
8
 71
3
 72
8
 73
4
 74
0
 40
0
 40
0
 40
0
 40
0
 40
1
 40
1
 40
1
 40
1
 10
285.767159
 20
492.039978
 30
0.0
 10
285.766448
 20
491.682240
 30
0.0
 10
285.956891
 20
491.351371
 30
0.0
 10
286.266583
 20
491.172297
 30
0.0
  0
SPLINE
  5
25b
100
AcDbEntity
  8
0
 62
7
100
AcDbSpline
 70
8
 71
3
 72
8
 73
4
 74
0
 40
0
 40
0
 40
0
 40
0
 40
1
 40
1
 40
1
 40
1
 10
286.266583
 20
491.172297
 30
0.0
 10
286.576276
 20
490.993222
 30
0.0
 10
286.958038
 20
490.993222
 30
0.0
 10
287.267731
 20
491.172297
 30
0.0
  0
SPLINE
  5
25c
100
AcDbEntity
  8
0
 62
7
100
AcDbSpline
 70
8
 71
3
 72
8
 73
4
 74
0
 40
0
 40
0
 40
0
 40
0
 40
1
 40
1
 40
1
 40
1
 10
287.267731
 20
491.172297
 30
0.0
 10
287.577423
 20
491.351371
 30
0.0
 10
287.767866
 20
491.682240
 30
0.0
 10
287.767155
 20
492.039978
 30
0.0
  0
LWPOLYLINE
  5
25d
100
AcDbEntity
  8
0
 62
7
100
AcDbPolyline
 90
2
 70
1
 10
302.357536
 20
517.521755
 30
0.0
 10
302.357536
 20
517.521755
 30
0.0
  0
SPLINE
  5
25e
100
AcDbEntity
  8
0
 62
7
100
AcDbSpline
 70
8
 71
3
 72
8
 73
4
 74
0
 40
0
 40
0
 40
0
 40
0
 40
1
 40
1
 40
1
 40
1
 10
300.479262
 20
528.508254
 30
0.0
 10
300.479999
 20
528.866009
 30
0.0
 10
300.289561
 20
529.196904
 30
0.0
 10
299.979858
 20
529.375994
 30
0.0
  0
SPLINE
  5
25f
100
AcDbEntity
  8
0
 62
7
100
AcDbSpline
 70
8
 71
3
 72
8
 73
4
 74
0
 40
0
 40
0
 40
0
 40
0
 40
1
 40
1
 40
1
 40
1
 10
299.979858
 20
529.375994
 30
0.0
 10
299.670156
 20
529.555084
 30
0.0
 10
299.288373
 20
529.555084
 30
0.0
 10
298.978671
 20
529.375994
 30
0.0
  0
SPLINE
  5
260
100
AcDbEntity
  8
0
 62
7
100
AcDbSpline
 70
8
 71
3
 72
8
 73
4
 74
0
 40
0
 40
0
 40
0
 40
0
 40
1
 40
1
 40
1
 40
1
 10
298.978671
 20
529.375994
 30
0.0
 10
298.668968
 20
529.196904
 30
0.0
 10
298.478530
 20
528.866009
 30
0.0
 10
298.479266
 20
528.508254
 30
0.0
  0
SPLINE
  5
261
100
AcDbEntity
  8
0
 62
7
100
AcDbSpline
 70
8
 71
3
 72
8
 73
4
 74
0
 40
0
 40
0
 40
0
 40
0
 40
1
 40
1
 40
1
 40
1
 10
298.479266
 20
528.508254
 30
0.0
 10
298.478530
 20
528.150499
 30
0.0
 10
298.668968
 20
527.819604
 30
0.0
 10
298.978671
 20
527.640514
 30
0.0
  0
SPLINE
  5
262
100
AcDbEntity
  8
0
 62
7
100
AcDbSpline
 70
8
 71
3
 72
8
 73
4
 74
0
 40
0
 40
0
 40
0
 40
0
 40
1
 40
1
 40
1
 40
1
 10
298.978671
 20
527.640514
 30
0.0
 10
299.288373
 20
527.461424
 30
0.0
 10
299.670156
 20
527.461424
 30
0.0
 10
299.979858
 20
527.640514
 30
0.0
  0
SPLINE
  5
263
100
AcDbEntity
  8
0
 62
7
100
AcDbSpline
 70
8
 71
3
 72
8
 73
4
 74
0
 40
0
 40
0
 40
0
 40
0
 40
1
 40
1
 40
1
 40
1
 10
299.979858
 20
527.640514
 30
0.0
 10
300.289561
 20
527.819604
 30
0.0
 10
300.479999
 20
528.150499
 30
0.0
 10
300.479262
 20
528.508254
 30
0.0
  0
LWPOLYLINE
  5
264
100
AcDbEntity
  8
0
 62
7
100
AcDbPolyline
 90
2
 70
1
 10
287.767155
 20
492.039978
 30
0.0
 10
287.767155
 20
492.039978
 30
0.0
  0
SPLINE
  5
265
100
AcDbEntity
  8
0
 62
7
100
AcDbSpline
 70
8
 71
3
 72
8
 73
4
 74
0
 40
0
 40
0
 40
0
 40
0
 40
1
 40
1
 40
1
 40
1
 10
276.127989
 20
508.375926
 30
0.0
 10
276.127989
 20
508.643877
 30
0.0
 10
275.985039
 20
508.891475
 30
0.0
 10
275.752986
 20
509.025450
 30
0.0
  0
SPLINE
  5
266
100
AcDbEntity
  8
0
 62
7
100
AcDbSpline
 70
8
 71
3
 72
8
 73
4
 74
0
 40
0
 40
0
 40
0
 40
0
 40
1
 40
1
 40
1
 40
1
 10
275.752986
 20
509.025450
 30
0.0
 10
275.520934
 20
509.159426
 30
0.0
 10
275.235033
 20
509.159426
 30
0.0
 10
275.002981
 20
509.025450
 30
0.0
  0
SPLINE
  5
267
100
AcDbEntity
  8
0
 62
7
100
AcDbSpline
 70
8
 71
3
 72
8
 73
4
 74
0
 40
0
 40
0
 40
0
 40
0
 40
1
 40
1
 40
1
 40
1
 10
275.002981
 20
509.025450
 30
0.0
 10
274.770928
 20
508.891475
 30
0.0
 10
274.627978
 20
508.643877
 30
0.0
 10
274.627978
 20
508.375926
 30
0.0
  0
SPLINE
  5
268
100
AcDbEntity
  8
0
 62
7
100
AcDbSpline
 70
8
 71
3
 72
8
 73
4
 74
0
 40
0
 40
0
 40
0
 40
0
 40
1
 40
1
 40
1
 40
1
 10
274.627978
 20
508.375926
 30
0.0
 10
274.627978
 20
507.961710
 30
0.0
 10
274.963767
 20
507.625921
 30
0.0
 10
275.377983
 20
507.625921
 30
0.0
  0
SPLINE
  5
269
100
AcDbEntity
  8
0
 62
7
100
AcDbSpline
 70
8
 71
3
 72
8
 73
4
 74
0
 40
0
 40
0
 40
0
 40
0
 40
1
 40
1
 40
1
 40
1
 10
275.377983
 20
507.625921
 30
0.0
 10
275.792200
 20
507.625921
 30
0.0
 10
276.127989
 20
507.961710
 30
0.0
 10
276.127989
 20
508.375926
 30
0.0
  0
LWPOLYLINE
  5
26a
100
AcDbEntity
  8
0
 62
7
100
AcDbPolyline
 90
2
 70
1
 10
300.479262
 20
528.508254
 30
0.0
 10
300.479262
 20
528.508254
 30
0.0
  0
SPLINE
  5
26b
100
AcDbEntity
  8
0
 62
7
100
AcDbSpline
 70
8
 71
3
 72
8
 73
4
 74
0
 40
0
 40
0
 40
0
 40
0
 40
1
 40
1
 40
1
 40
1
 10
284.411025
 20
478.752643
 30
0.0
 10
284.411025
 20
479.020594
 30
0.0
 10
284.268075
 20
479.268191
 30
0.0
 10
284.036022
 20
479.402167
 30
0.0
  0
SPLINE
  5
26c
100
AcDbEntity
  8
0
 62
7
100
AcDbSpline
 70
8
 71
3
 72
8
 73
4
 74
0
 40
0
 40
0
 40
0
 40
0
 40
1
 40
1
 40
1
 40
1
 10
284.036022
 20
479.402167
 30
0.0
 10
283.803970
 20
479.536142
 30
0.0
 10
283.518069
 20
479.536142
 30
0.0
 10
283.286017
 20
479.402167
 30
0.0
  0
SPLINE
  5
26d
100
AcDbEntity
  8
0
 62
7
100
AcDbSpline
 70
8
 71
3
 72
8
 73
4
 74
0
 40
0
 40
0
 40
0
 40
0
 40
1
 40
1
 40
1
 40
1
 10
283.286017
 20
479.402167
 30
0.0
 10
283.053964
 20
479.268191
 30
0.0
 10
282.911014
 20
479.020594
 30
0.0
 10
282.911014
 20
478.752643
 30
0.0
  0
SPLINE
  5
26e
100
AcDbEntity
  8
0
 62
7
100
AcDbSpline
 70
8
 71
3
 72
8
 73
4
 74
0
 40
0
 40
0
 40
0
 40
0
 40
1
 40
1
 40
1
 40
1
 10
282.911014
 20
478.752643
 30
0.0
 10
282.911014
 20
478.484692
 30
0.0
 10
283.053964
 20
478.237095
 30
0.0
 10
283.286017
 20
478.103119
 30
0.0
  0
SPLINE
  5
26f
100
AcDbEntity
  8
0
 62
7
100
AcDbSpline
 70
8
 71
3
 72
8
 73
4
 74
0
 40
0
 40
0
 40
0
 40
0
 40
1
 40
1
 40
1
 40
1
 10
283.286017
 20
478.103119
 30
0.0
 10
283.518069
 20
477.969143
 30
0.0
 10
283.803970
 20
477.969143
 30
0.0
 10
284.036022
 20
478.103119
 30
0.0
  0
SPLINE
  5
270
100
AcDbEntity
  8
0
 62
7
100
AcDbSpline
 70
8
 71
3
 72
8
 73
4
 74
0
 40
0
 40
0
 40
0
 40
0
 40
1
 40
1
 40
1
 40
1
 10
284.036022
 20
478.103119
 30
0.0
 10
284.268075
 20
478.237095
 30
0.0
 10
284.411025
 20
478.484692
 30
0.0
 10
284.411025
 20
478.752643
 30
0.0
  0
LWPOLYLINE
  5
271
100
AcDbEntity
  8
0
 62
7
100
AcDbPolyline
 90
2
 70
1
 10
276.127989
 20
508.375926
 30
0.0
 10
276.127989
 20
508.375926
 30
0.0
  0
LWPOLYLINE
  5
272
100
AcDbEntity
  8
0
 62
7
100
AcDbPolyline
 90
2
 70
1
 10
284.411025
 20
478.752643
 30
0.0
 10
284.411025
 20
478.752643
 30
0.0
  0
SPLINE
  5
273
100
AcDbEntity
  8
0
 62
7
100
AcDbSpline
 70
8
 71
3
 72
8
 73
4
 74
0
 40
0
 40
0
 40
0
 40
0
 40
1
 40
1
 40
1
 40
1
 10
222.747942
 20
552.182801
 30
0.0
 10
224.074027
 20
552.182796
 30
0.0
 10
225.345801
 20
552.709578
 30
0.0
 10
226.283487
 20
553.647260
 30
0.0
  0
SPLINE
  5
274
100
AcDbEntity
  8
0
 62
7
100
AcDbSpline
 70
8
 71
3
 72
8
 73
4
 74
0
 40
0
 40
0
 40
0
 40
0
 40
1
 40
1
 40
1
 40
1
 10
226.283487
 20
553.647260
 30
0.0
 10
227.221172
 20
554.584942
 30
0.0
 10
227.747959
 20
555.856714
 30
0.0
 10
227.747960
 20
557.182799
 30
0.0
  0
LWPOLYLINE
  5
275
100
AcDbEntity
  8
0
 62
7
100
AcDbPolyline
 90
2
 70
1
 10
217.747952
 20
552.182496
 30
0.0
 10
222.747942
 20
552.182801
 30
0.0
  0
LWPOLYLINE
  5
276
100
AcDbEntity
  8
0
 62
7
100
AcDbPolyline
 90
7
 70
1
 10
227.747960
 20
557.182799
 30
0.0
 10
227.747960
 20
562.182798
 30
0.0
 10
317.747960
 20
562.182798
 30
0.0
 10
317.747960
 20
462.182800
 30
0.0
 10
217.747952
 20
462.182800
 30
0.0
 10
217.747952
 20
552.182496
 30
0.0
 10
217.747952
 20
552.182496
 30
0.0
  0
LWPOLYLINE
  5
277
100
AcDbEntity
  8
0
 62
7
100
AcDbPolyline
 90
6
 70
1
 10
217.747952
 20
457.131285
 30
0.0
 10
297.747972
 20
457.131285
 30
0.0
 10
297.747972
 20
437.131286
 30
0.0
 10
217.747952
 20
437.131286
 30
0.0
 10
217.747952
 20
457.131285
 30
0.0
 10
217.747952
 20
457.131285
 30
0.0
  0
LWPOLYLINE
  5
278
100
AcDbEntity
  8
0
 62
7
100
AcDbPolyline
 90
6
 70
1
 10
217.747952
 20
433.261198
 30
0.0
 10
297.747972
 20
433.261198
 30
0.0
 10
297.747972
 20
413.261198
 30
0.0
 10
217.747952
 20
413.261198
 30
0.0
 10
217.747952
 20
433.261198
 30
0.0
 10
217.747952
 20
433.261198
 30
0.0
  0
LWPOLYLINE
  5
279
100
AcDbEntity
  8
0
 62
7
100
AcDbPolyline
 90
6
 70
1
 10
293.747952
 20
410.718102
 30
0.0
 10
293.747952
 20
390.718103
 30
0.0
 10
217.747952
 20
390.718103
 30
0.0
 10
217.747952
 20
410.718102
 30
0.0
 10
293.747952
 20
410.718102
 30
0.0
 10
293.747952
 20
410.718102
 30
0.0
  0
LWPOLYLINE
  5
27a
100
AcDbEntity
  8
0
 62
7
100
AcDbPolyline
 90
6
 70
1
 10
217.747952
 20
368.385974
 30
0.0
 10
217.747952
 20
388.385973
 30
0.0
 10
293.747952
 20
388.385973
 30
0.0
 10
293.747952
 20
368.385974
 30
0.0
 10
217.747952
 20
368.385974
 30
0.0
 10
217.747952
 20
368.385974
 30
0.0
  0
LWPOLYLINE
  5
27b
100
AcDbEntity
  8
0
 62
7
100
AcDbPolyline
 90
6
 70
1
 10
217.747952
 20
327.328076
 30
0.0
 10
217.747952
 20
367.328078
 30
0.0
 10
317.747960
 20
367.328078
 30
0.0
 10
317.747960
 20
327.328076
 30
0.0
 10
217.747952
 20
327.328076
 30
0.0
 10
217.747952
 20
327.328076
 30
0.0
  0
LWPOLYLINE
  5
27c
100
AcDbEntity
  8
0
 62
7
100
AcDbPolyline
 90
6
 70
1
 10
218.046910
 20
245.662010
 30
0.0
 10
218.046910
 20
325.662008
 30
0.0
 10
220.046906
 20
325.662008
 30
0.0
 10
220.046906
 20
245.662010
 30
0.0
 10
218.046910
 20
245.662010
 30
0.0
 10
218.046910
 20
245.662010
 30
0.0
  0
LWPOLYLINE
  5
27d
100
AcDbEntity
  8
0
 62
7
100
AcDbPolyline
 90
6
 70
1
 10
224.005213
 20
325.662008
 30
0.0
 10
224.005213
 20
245.662010
 30
0.0
 10
222.005217
 20
245.662010
 30
0.0
 10
222.005217
 20
325.662008
 30
0.0
 10
224.005213
 20
325.662008
 30
0.0
 10
224.005213
 20
325.662008
 30
0.0
  0
LWPOLYLINE
  5
27e
100
AcDbEntity
  8
0
 62
7
100
AcDbPolyline
 90
6
 70
1
 10
236.015603
 20
325.662008
 30
0.0
 10
236.015603
 20
226.162010
 30
0.0
 10
226.015595
 20
226.162010
 30
0.0
 10
226.015595
 20
325.662008
 30
0.0
 10
236.015603
 20
325.662008
 30
0.0
 10
236.015603
 20
325.662008
 30
0.0
  0
LWPOLYLINE
  5
27f
100
AcDbEntity
  8
0
 62
7
100
AcDbPolyline
 90
6
 70
1
 10
237.681420
 20
325.662008
 30
0.0
 10
247.681428
 20
325.662008
 30
0.0
 10
247.681428
 20
226.162010
 30
0.0
 10
237.681420
 20
226.162010
 30
0.0
 10
237.681420
 20
325.662008
 30
0.0
 10
237.681420
 20
325.662008
 30
0.0
  0
LWPOLYLINE
  5
280
100
AcDbEntity
  8
0
 62
7
100
AcDbPolyline
 90
6
 70
1
 10
248.521942
 20
300.662010
 30
0.0
 10
248.521942
 20
325.662008
 30
0.0
 10
250.521938
 20
325.662008
 30
0.0
 10
250.521938
 20
300.662010
 30
0.0
 10
248.521942
 20
300.662010
 30
0.0
 10
248.521942
 20
300.662010
 30
0.0
  0
LWPOLYLINE
  5
281
100
AcDbEntity
  8
0
 62
7
100
AcDbPolyline
 90
6
 70
1
 10
300.925315
 20
385.385974
 30
0.0
 10
296.925323
 20
385.385974
 30
0.0
 10
296.925323
 20
388.385973
 30
0.0
 10
300.925315
 20
388.385973
 30
0.0
 10
300.925315
 20
385.385974
 30
0.0
 10
300.925315
 20
385.385974
 30
0.0
  0
LWPOLYLINE
  5
282
100
AcDbEntity
  8
0
 62
7
100
AcDbPolyline
 90
6
 70
1
 10
300.925315
 20
380.472682
 30
0.0
 10
296.925323
 20
380.472682
 30
0.0
 10
296.925323
 20
383.472682
 30
0.0
 10
300.925315
 20
383.472682
 30
0.0
 10
300.925315
 20
380.472682
 30
0.0
 10
300.925315
 20
380.472682
 30
0.0
  0
LWPOLYLINE
  5
283
100
AcDbEntity
  8
0
 62
7
100
AcDbPolyline
 90
6
 70
1
 10
300.925315
 20
375.684297
 30
0.0
 10
296.925323
 20
375.684297
 30
0.0
 10
296.925323
 20
378.684297
 30
0.0
 10
300.925315
 20
378.684297
 30
0.0
 10
300.925315
 20
375.684297
 30
0.0
 10
300.925315
 20
375.684297
 30
0.0
  0
LWPOLYLINE
  5
284
100
AcDbEntity
  8
0
 62
7
100
AcDbPolyline
 90
6
 70
1
 10
300.925315
 20
373.649266
 30
0.0
 10
300.925315
 20
370.649266
 30
0.0
 10
296.925323
 20
370.649266
 30
0.0
 10
296.925323
 20
373.649266
 30
0.0
 10
300.925315
 20
373.649266
 30
0.0
 10
300.925315
 20
373.649266
 30
0.0
  0
ENDSEC
  0
SECTION
  2
OBJECTS
  0
DICTIONARY
  5
C
330
0
100
AcDbDictionary
  3
ACAD_GROUP
350
D
  3
ACAD_MLINESTYLE
350
17
  0
DICTIONARY
  5
D
330
C
100
AcDbDictionary
  0
DICTIONARY
  5
1A
330
C
100
AcDbDictionary
  0
DICTIONARY
  5
17
330
C
100
AcDbDictionary
  3
STANDARD
350
18
  0
DICTIONARY
  5
19
330
C
100
AcDbDictionary
  0
ENDSEC
  0
EOF
