  0
SECTION
  2
HEADER
  9
$ACADVER
  1
AC1014
  9
$HANDSEED
  5
FFFF
  9
$MEASUREMENT
 70
     1
  0
ENDSEC
  0
SECTION
  2
TABLES
  0
TABLE
  2
VPORT
  5
8
330
0
100
AcDbSymbolTable
 70
     4
  0
VPORT
  5
2E
330
8
100
AcDbSymbolTableRecord
100
AcDbViewportTableRecord
  2
*ACTIVE
 70
     0
 10
0.0
 20
0.0
 11
1.0
 21
1.0
 12
210.0
 22
148.5
 13
0.0
 23
0.0
 14
10.0
 24
10.0
 15
10.0
 25
10.0
 16
0.0
 26
0.0
 36
1.0
 17
0.0
 27
0.0
 37
0.0
 40
341.0
 41
1.24
 42
50.0
 43
0.0
 44
0.0
 50
0.0
 51
0.0
 71
     0
 72
   100
 73
     1
 74
     3
 75
     0
 76
     0
 77
     0
 78
     0
  0
ENDTAB
  0
TABLE
  2
LTYPE
  5
5
330
0
100
AcDbSymbolTable
 70
     1
  0
LTYPE
  5
14
330
5
100
AcDbSymbolTableRecord
100
AcDbLinetypeTableRecord
  2
BYBLOCK
 70
     0
  3

 72
    65
 73
     0
 40
0.0
  0
LTYPE
  5
15
330
5
100
AcDbSymbolTableRecord
100
AcDbLinetypeTableRecord
  2
BYLAYER
 70
     0
  3

 72
    65
 73
     0
 40
0.0
  0
LTYPE
  5
16
330
5
100
AcDbSymbolTableRecord
100
AcDbLinetypeTableRecord
  2
CONTINUOUS
 70
     0
  3
Solid line
 72
    65
 73
     0
 40
0.0
  0
ENDTAB
  0
TABLE
  2
LAYER
  5
2
100
AcDbSymbolTable
 70
1
  0
LAYER
  5
50
100
AcDbSymbolTableRecord
100
AcDbLayerTableRecord
  2
0
 70
0
  6
CONTINUOUS
  0
ENDTAB
  0
TABLE
  2
STYLE
  5
3
330
0
100
AcDbSymbolTable
 70
     1
  0
STYLE
  5
11
330
3
100
AcDbSymbolTableRecord
100
AcDbTextStyleTableRecord
  2
STANDARD
 70
     0
 40
0.0
 41
1.0
 50
0.0
 71
     0
 42
2.5
  3
txt
  4

  0
ENDTAB
  0
TABLE
  2
VIEW
  5
6
330
0
100
AcDbSymbolTable
 70
     0
  0
ENDTAB
  0
TABLE
  2
UCS
  5
7
330
0
100
AcDbSymbolTable
 70
     0
  0
ENDTAB
  0
TABLE
  2
APPID
  5
9
330
0
100
AcDbSymbolTable
 70
     2
  0
APPID
  5
12
330
9
100
AcDbSymbolTableRecord
100
AcDbRegAppTableRecord
  2
ACAD
 70
     0
  0
ENDTAB
  0
TABLE
  2
DIMSTYLE
  5
A
330
0
100
AcDbSymbolTable
 70
     1
  0
DIMSTYLE
105
27
330
A
100
AcDbSymbolTableRecord
100
AcDbDimStyleTableRecord
  2
ISO-25
 70
     0
  3

  4

  5

  6

  7

 40
1.0
 41
2.5
 42
0.625
 43
3.75
 44
1.25
 45
0.0
 46
0.0
 47
0.0
 48
0.0
140
2.5
141
2.5
142
0.0
143
0.03937007874016
144
1.0
145
0.0
146
1.0
147
0.625
 71
     0
 72
     0
 73
     0
 74
     0
 75
     0
 76
     0
 77
     1
 78
     8
170
     0
171
     3
172
     1
173
     0
174
     0
175
     0
176
     0
177
     0
178
     0
270
     2
271
     2
272
     2
273
     2
274
     3
340
11
275
     0
280
     0
281
     0
282
     0
283
     0
284
     8
285
     0
286
     0
287
     3
288
     0
  0
ENDTAB
  0
TABLE
  2
BLOCK_RECORD
  5
1
330
0
100
AcDbSymbolTable
 70
     1
  0
BLOCK_RECORD
  5
1F
330
1
100
AcDbSymbolTableRecord
100
AcDbBlockTableRecord
  2
*MODEL_SPACE
  0
BLOCK_RECORD
  5
1B
330
1
100
AcDbSymbolTableRecord
100
AcDbBlockTableRecord
  2
*PAPER_SPACE
  0
ENDTAB
  0
ENDSEC
  0
SECTION
  2
BLOCKS
  0
BLOCK
  5
20
330
1F
100
AcDbEntity
  8
0
100
AcDbBlockBegin
  2
*MODEL_SPACE
 70
     0
 10
0.0
 20
0.0
 30
0.0
  3
*MODEL_SPACE
  1

  0
ENDBLK
  5
21
330
1F
100
AcDbEntity
  8
0
100
AcDbBlockEnd
  0
BLOCK
  5
1C
330
1B
100
AcDbEntity
 67
     1
  8
0
100
AcDbBlockBegin
  2
*PAPER_SPACE
  1

  0
ENDBLK
  5
1D
330
1B
100
AcDbEntity
 67
     1
  8
0
100
AcDbBlockEnd
  0
ENDSEC
  0
SECTION
  2
ENTITIES
  0
LWPOLYLINE
  5
100
100
AcDbEntity
  8
0
 62
7
100
AcDbPolyline
 90
6
 70
1
 10
109.559101
 20
594.472565
 30
0.0
 10
109.559101
 20
224.472565
 30
0.0
 10
5.559101
 20
224.472565
 30
0.0
 10
5.559101
 20
594.472565
 30
0.0
 10
109.559101
 20
594.472565
 30
0.0
 10
109.559101
 20
594.472565
 30
0.0
  0
LWPOLYLINE
  5
101
100
AcDbEntity
  8
0
 62
7
100
AcDbPolyline
 90
6
 70
1
 10
112.995366
 20
224.472565
 30
0.0
 10
112.995366
 20
594.472565
 30
0.0
 10
216.995367
 20
594.472565
 30
0.0
 10
216.995367
 20
224.472565
 30
0.0
 10
112.995366
 20
224.472565
 30
0.0
 10
112.995366
 20
224.472565
 30
0.0
  0
LWPOLYLINE
  5
102
100
AcDbEntity
  8
0
 62
7
100
AcDbPolyline
 90
6
 70
1
 10
219.305384
 20
244.403536
 30
0.0
 10
219.305384
 20
324.403534
 30
0.0
 10
221.305380
 20
324.403534
 30
0.0
 10
221.305380
 20
244.403536
 30
0.0
 10
219.305384
 20
244.403536
 30
0.0
 10
219.305384
 20
244.403536
 30
0.0
  0
LWPOLYLINE
  5
103
100
AcDbEntity
  8
0
 62
7
100
AcDbPolyline
 90
6
 70
1
 10
225.263687
 20
324.403534
 30
0.0
 10
225.263687
 20
244.403536
 30
0.0
 10
223.263691
 20
244.403536
 30
0.0
 10
223.263691
 20
324.403534
 30
0.0
 10
225.263687
 20
324.403534
 30
0.0
 10
225.263687
 20
324.403534
 30
0.0
  0
LWPOLYLINE
  5
104
100
AcDbEntity
  8
0
 62
7
100
AcDbPolyline
 90
6
 70
1
 10
237.274077
 20
324.403534
 30
0.0
 10
237.274077
 20
224.903536
 30
0.0
 10
227.274069
 20
224.903536
 30
0.0
 10
227.274069
 20
324.403534
 30
0.0
 10
237.274077
 20
324.403534
 30
0.0
 10
237.274077
 20
324.403534
 30
0.0
  0
LWPOLYLINE
  5
105
100
AcDbEntity
  8
0
 62
7
100
AcDbPolyline
 90
6
 70
1
 10
238.939894
 20
324.403534
 30
0.0
 10
248.939902
 20
324.403534
 30
0.0
 10
248.939902
 20
224.903536
 30
0.0
 10
238.939894
 20
224.903536
 30
0.0
 10
238.939894
 20
324.403534
 30
0.0
 10
238.939894
 20
324.403534
 30
0.0
  0
LWPOLYLINE
  5
106
100
AcDbEntity
  8
0
 62
7
100
AcDbPolyline
 90
6
 70
1
 10
219.006426
 20
326.069602
 30
0.0
 10
219.006426
 20
366.069604
 30
0.0
 10
319.006418
 20
366.069604
 30
0.0
 10
319.006418
 20
326.069602
 30
0.0
 10
219.006426
 20
326.069602
 30
0.0
 10
219.006426
 20
326.069602
 30
0.0
  0
LWPOLYLINE
  5
107
100
AcDbEntity
  8
0
 62
7
100
AcDbPolyline
 90
6
 70
1
 10
219.006426
 20
367.127497
 30
0.0
 10
219.006426
 20
387.127497
 30
0.0
 10
295.006409
 20
387.127497
 30
0.0
 10
295.006409
 20
367.127497
 30
0.0
 10
219.006426
 20
367.127497
 30
0.0
 10
219.006426
 20
367.127497
 30
0.0
  0
LWPOLYLINE
  5
108
100
AcDbEntity
  8
0
 62
7
100
AcDbPolyline
 90
6
 70
1
 10
302.183772
 20
372.390792
 30
0.0
 10
302.183772
 20
369.390792
 30
0.0
 10
298.183780
 20
369.390792
 30
0.0
 10
298.183780
 20
372.390792
 30
0.0
 10
302.183772
 20
372.390792
 30
0.0
 10
302.183772
 20
372.390792
 30
0.0
  0
LWPOLYLINE
  5
109
100
AcDbEntity
  8
0
 62
7
100
AcDbPolyline
 90
6
 70
1
 10
302.183772
 20
374.425823
 30
0.0
 10
298.183780
 20
374.425823
 30
0.0
 10
298.183780
 20
377.425823
 30
0.0
 10
302.183772
 20
377.425823
 30
0.0
 10
302.183772
 20
374.425823
 30
0.0
 10
302.183772
 20
374.425823
 30
0.0
  0
LWPOLYLINE
  5
10a
100
AcDbEntity
  8
0
 62
7
100
AcDbPolyline
 90
6
 70
1
 10
302.183772
 20
379.214208
 30
0.0
 10
298.183780
 20
379.214208
 30
0.0
 10
298.183780
 20
382.214208
 30
0.0
 10
302.183772
 20
382.214208
 30
0.0
 10
302.183772
 20
379.214208
 30
0.0
 10
302.183772
 20
379.214208
 30
0.0
  0
LWPOLYLINE
  5
10b
100
AcDbEntity
  8
0
 62
7
100
AcDbPolyline
 90
6
 70
1
 10
302.183772
 20
384.127497
 30
0.0
 10
298.183780
 20
384.127497
 30
0.0
 10
298.183780
 20
387.127497
 30
0.0
 10
302.183772
 20
387.127497
 30
0.0
 10
302.183772
 20
384.127497
 30
0.0
 10
302.183772
 20
384.127497
 30
0.0
  0
LWPOLYLINE
  5
10c
100
AcDbEntity
  8
0
 62
7
100
AcDbPolyline
 90
6
 70
1
 10
295.006409
 20
409.459628
 30
0.0
 10
295.006409
 20
389.459629
 30
0.0
 10
219.006426
 20
389.459629
 30
0.0
 10
219.006426
 20
409.459628
 30
0.0
 10
295.006409
 20
409.459628
 30
0.0
 10
295.006409
 20
409.459628
 30
0.0
  0
LWPOLYLINE
  5
10d
100
AcDbEntity
  8
0
 62
7
100
AcDbPolyline
 90
6
 70
1
 10
219.006426
 20
432.002724
 30
0.0
 10
299.006429
 20
432.002724
 30
0.0
 10
299.006429
 20
412.002721
 30
0.0
 10
219.006426
 20
412.002721
 30
0.0
 10
219.006426
 20
432.002724
 30
0.0
 10
219.006426
 20
432.002724
 30
0.0
  0
SPLINE
  5
10e
100
AcDbEntity
  8
0
 62
7
100
AcDbSpline
 70
8
 71
3
 72
8
 73
4
 74
0
 40
0
 40
0
 40
0
 40
0
 40
1
 40
1
 40
1
 40
1
 10
274.817930
 20
546.346731
 30
0.0
 10
274.818641
 20
546.704469
 30
0.0
 10
274.628199
 20
547.035337
 30
0.0
 10
274.318506
 20
547.214412
 30
0.0
  0
SPLINE
  5
10f
100
AcDbEntity
  8
0
 62
7
100
AcDbSpline
 70
8
 71
3
 72
8
 73
4
 74
0
 40
0
 40
0
 40
0
 40
0
 40
1
 40
1
 40
1
 40
1
 10
274.318506
 20
547.214412
 30
0.0
 10
274.008813
 20
547.393487
 30
0.0
 10
273.627051
 20
547.393487
 30
0.0
 10
273.317359
 20
547.214412
 30
0.0
  0
SPLINE
  5
110
100
AcDbEntity
  8
0
 62
7
100
AcDbSpline
 70
8
 71
3
 72
8
 73
4
 74
0
 40
0
 40
0
 40
0
 40
0
 40
1
 40
1
 40
1
 40
1
 10
273.317359
 20
547.214412
 30
0.0
 10
273.007666
 20
547.035337
 30
0.0
 10
272.817223
 20
546.704469
 30
0.0
 10
272.817934
 20
546.346731
 30
0.0
  0
SPLINE
  5
111
100
AcDbEntity
  8
0
 62
7
100
AcDbSpline
 70
8
 71
3
 72
8
 73
4
 74
0
 40
0
 40
0
 40
0
 40
0
 40
1
 40
1
 40
1
 40
1
 10
272.817934
 20
546.346731
 30
0.0
 10
272.817223
 20
545.988992
 30
0.0
 10
273.007666
 20
545.658124
 30
0.0
 10
273.317359
 20
545.479049
 30
0.0
  0
SPLINE
  5
112
100
AcDbEntity
  8
0
 62
7
100
AcDbSpline
 70
8
 71
3
 72
8
 73
4
 74
0
 40
0
 40
0
 40
0
 40
0
 40
1
 40
1
 40
1
 40
1
 10
273.317359
 20
545.479049
 30
0.0
 10
273.627051
 20
545.299974
 30
0.0
 10
274.008813
 20
545.299974
 30
0.0
 10
274.318506
 20
545.479049
 30
0.0
  0
SPLINE
  5
113
100
AcDbEntity
  8
0
 62
7
100
AcDbSpline
 70
8
 71
3
 72
8
 73
4
 74
0
 40
0
 40
0
 40
0
 40
0
 40
1
 40
1
 40
1
 40
1
 10
274.318506
 20
545.479049
 30
0.0
 10
274.628199
 20
545.658124
 30
0.0
 10
274.818641
 20
545.988992
 30
0.0
 10
274.817930
 20
546.346731
 30
0.0
  0
LWPOLYLINE
  5
114
100
AcDbEntity
  8
0
 62
7
100
AcDbPolyline
 90
6
 70
1
 10
219.006426
 20
455.872811
 30
0.0
 10
299.006429
 20
455.872811
 30
0.0
 10
299.006429
 20
435.872812
 30
0.0
 10
219.006426
 20
435.872812
 30
0.0
 10
219.006426
 20
455.872811
 30
0.0
 10
219.006426
 20
455.872811
 30
0.0
  0
SPLINE
  5
115
100
AcDbEntity
  8
0
 62
7
100
AcDbSpline
 70
8
 71
3
 72
8
 73
4
 74
0
 40
0
 40
0
 40
0
 40
0
 40
1
 40
1
 40
1
 40
1
 10
285.919474
 20
532.139060
 30
0.0
 10
285.920186
 20
532.496798
 30
0.0
 10
285.729743
 20
532.827667
 30
0.0
 10
285.420050
 20
533.006742
 30
0.0
  0
SPLINE
  5
116
100
AcDbEntity
  8
0
 62
7
100
AcDbSpline
 70
8
 71
3
 72
8
 73
4
 74
0
 40
0
 40
0
 40
0
 40
0
 40
1
 40
1
 40
1
 40
1
 10
285.420050
 20
533.006742
 30
0.0
 10
285.110358
 20
533.185816
 30
0.0
 10
284.728595
 20
533.185816
 30
0.0
 10
284.418903
 20
533.006742
 30
0.0
  0
SPLINE
  5
117
100
AcDbEntity
  8
0
 62
7
100
AcDbSpline
 70
8
 71
3
 72
8
 73
4
 74
0
 40
0
 40
0
 40
0
 40
0
 40
1
 40
1
 40
1
 40
1
 10
284.418903
 20
533.006742
 30
0.0
 10
284.109210
 20
532.827667
 30
0.0
 10
283.918767
 20
532.496798
 30
0.0
 10
283.919478
 20
532.139060
 30
0.0
  0
SPLINE
  5
118
100
AcDbEntity
  8
0
 62
7
100
AcDbSpline
 70
8
 71
3
 72
8
 73
4
 74
0
 40
0
 40
0
 40
0
 40
0
 40
1
 40
1
 40
1
 40
1
 10
283.919478
 20
532.139060
 30
0.0
 10
283.918767
 20
531.781322
 30
0.0
 10
284.109210
 20
531.450453
 30
0.0
 10
284.418903
 20
531.271378
 30
0.0
  0
SPLINE
  5
119
100
AcDbEntity
  8
0
 62
7
100
AcDbSpline
 70
8
 71
3
 72
8
 73
4
 74
0
 40
0
 40
0
 40
0
 40
0
 40
1
 40
1
 40
1
 40
1
 10
284.418903
 20
531.271378
 30
0.0
 10
284.728595
 20
531.092303
 30
0.0
 10
285.110358
 20
531.092303
 30
0.0
 10
285.420050
 20
531.271378
 30
0.0
  0
SPLINE
  5
11a
100
AcDbEntity
  8
0
 62
7
100
AcDbSpline
 70
8
 71
3
 72
8
 73
4
 74
0
 40
0
 40
0
 40
0
 40
0
 40
1
 40
1
 40
1
 40
1
 10
285.420050
 20
531.271378
 30
0.0
 10
285.729743
 20
531.450453
 30
0.0
 10
285.920186
 20
531.781322
 30
0.0
 10
285.919474
 20
532.139060
 30
0.0
  0
LWPOLYLINE
  5
11b
100
AcDbEntity
  8
0
 62
7
100
AcDbPolyline
 90
2
 70
1
 10
274.817930
 20
546.346731
 30
0.0
 10
274.817930
 20
546.346731
 30
0.0
  0
SPLINE
  5
11c
100
AcDbEntity
  8
0
 62
7
100
AcDbSpline
 70
8
 71
3
 72
8
 73
4
 74
0
 40
0
 40
0
 40
0
 40
0
 40
1
 40
1
 40
1
 40
1
 10
296.598453
 20
487.732895
 30
0.0
 10
296.598453
 20
488.000846
 30
0.0
 10
296.455503
 20
488.248443
 30
0.0
 10
296.223450
 20
488.382419
 30
0.0
  0
SPLINE
  5
11d
100
AcDbEntity
  8
0
 62
7
100
AcDbSpline
 70
8
 71
3
 72
8
 73
4
 74
0
 40
0
 40
0
 40
0
 40
0
 40
1
 40
1
 40
1
 40
1
 10
296.223450
 20
488.382419
 30
0.0
 10
295.991398
 20
488.516394
 30
0.0
 10
295.705497
 20
488.516394
 30
0.0
 10
295.473445
 20
488.382419
 30
0.0
  0
SPLINE
  5
11e
100
AcDbEntity
  8
0
 62
7
100
AcDbSpline
 70
8
 71
3
 72
8
 73
4
 74
0
 40
0
 40
0
 40
0
 40
0
 40
1
 40
1
 40
1
 40
1
 10
295.473445
 20
488.382419
 30
0.0
 10
295.241392
 20
488.248443
 30
0.0
 10
295.098442
 20
488.000846
 30
0.0
 10
295.098442
 20
487.732895
 30
0.0
  0
SPLINE
  5
11f
100
AcDbEntity
  8
0
 62
7
100
AcDbSpline
 70
8
 71
3
 72
8
 73
4
 74
0
 40
0
 40
0
 40
0
 40
0
 40
1
 40
1
 40
1
 40
1
 10
295.098442
 20
487.732895
 30
0.0
 10
295.098442
 20
487.464943
 30
0.0
 10
295.241392
 20
487.217346
 30
0.0
 10
295.473445
 20
487.083371
 30
0.0
  0
SPLINE
  5
120
100
AcDbEntity
  8
0
 62
7
100
AcDbSpline
 70
8
 71
3
 72
8
 73
4
 74
0
 40
0
 40
0
 40
0
 40
0
 40
1
 40
1
 40
1
 40
1
 10
295.473445
 20
487.083371
 30
0.0
 10
295.705497
 20
486.949395
 30
0.0
 10
295.991398
 20
486.949395
 30
0.0
 10
296.223450
 20
487.083371
 30
0.0
  0
SPLINE
  5
121
100
AcDbEntity
  8
0
 62
7
100
AcDbSpline
 70
8
 71
3
 72
8
 73
4
 74
0
 40
0
 40
0
 40
0
 40
0
 40
1
 40
1
 40
1
 40
1
 10
296.223450
 20
487.083371
 30
0.0
 10
296.455503
 20
487.217346
 30
0.0
 10
296.598453
 20
487.464943
 30
0.0
 10
296.598453
 20
487.732895
 30
0.0
  0
LWPOLYLINE
  5
122
100
AcDbEntity
  8
0
 62
7
100
AcDbPolyline
 90
2
 70
1
 10
285.919474
 20
532.139060
 30
0.0
 10
285.919474
 20
532.139060
 30
0.0
  0
SPLINE
  5
123
100
AcDbEntity
  8
0
 62
7
100
AcDbSpline
 70
8
 71
3
 72
8
 73
4
 74
0
 40
0
 40
0
 40
0
 40
0
 40
1
 40
1
 40
1
 40
1
 10
291.479083
 20
546.404250
 30
0.0
 10
291.480360
 20
546.673045
 30
0.0
 10
291.337693
 20
546.921971
 30
0.0
 10
291.105120
 20
547.056738
 30
0.0
  0
SPLINE
  5
124
100
AcDbEntity
  8
0
 62
7
100
AcDbSpline
 70
8
 71
3
 72
8
 73
4
 74
0
 40
0
 40
0
 40
0
 40
0
 40
1
 40
1
 40
1
 40
1
 10
291.105120
 20
547.056738
 30
0.0
 10
290.872547
 20
547.191506
 30
0.0
 10
290.585636
 20
547.191506
 30
0.0
 10
290.353063
 20
547.056738
 30
0.0
  0
SPLINE
  5
125
100
AcDbEntity
  8
0
 62
7
100
AcDbSpline
 70
8
 71
3
 72
8
 73
4
 74
0
 40
0
 40
0
 40
0
 40
0
 40
1
 40
1
 40
1
 40
1
 10
290.353063
 20
547.056738
 30
0.0
 10
290.120490
 20
546.921971
 30
0.0
 10
289.977823
 20
546.673045
 30
0.0
 10
289.979100
 20
546.404250
 30
0.0
  0
SPLINE
  5
126
100
AcDbEntity
  8
0
 62
7
100
AcDbSpline
 70
8
 71
3
 72
8
 73
4
 74
0
 40
0
 40
0
 40
0
 40
0
 40
1
 40
1
 40
1
 40
1
 10
289.979100
 20
546.404250
 30
0.0
 10
289.977823
 20
546.135455
 30
0.0
 10
290.120490
 20
545.886530
 30
0.0
 10
290.353063
 20
545.751762
 30
0.0
  0
SPLINE
  5
127
100
AcDbEntity
  8
0
 62
7
100
AcDbSpline
 70
8
 71
3
 72
8
 73
4
 74
0
 40
0
 40
0
 40
0
 40
0
 40
1
 40
1
 40
1
 40
1
 10
290.353063
 20
545.751762
 30
0.0
 10
290.585636
 20
545.616995
 30
0.0
 10
290.872547
 20
545.616995
 30
0.0
 10
291.105120
 20
545.751762
 30
0.0
  0
SPLINE
  5
128
100
AcDbEntity
  8
0
 62
7
100
AcDbSpline
 70
8
 71
3
 72
8
 73
4
 74
0
 40
0
 40
0
 40
0
 40
0
 40
1
 40
1
 40
1
 40
1
 10
291.105120
 20
545.751762
 30
0.0
 10
291.337693
 20
545.886530
 30
0.0
 10
291.480360
 20
546.135455
 30
0.0
 10
291.479083
 20
546.404250
 30
0.0
  0
LWPOLYLINE
  5
129
100
AcDbEntity
  8
0
 62
7
100
AcDbPolyline
 90
2
 70
1
 10
296.598453
 20
487.732895
 30
0.0
 10
296.598453
 20
487.732895
 30
0.0
  0
SPLINE
  5
12a
100
AcDbEntity
  8
0
 62
7
100
AcDbSpline
 70
8
 71
3
 72
8
 73
4
 74
0
 40
0
 40
0
 40
0
 40
0
 40
1
 40
1
 40
1
 40
1
 10
276.581170
 20
522.763147
 30
0.0
 10
276.581170
 20
523.031098
 30
0.0
 10
276.438220
 20
523.278695
 30
0.0
 10
276.206167
 20
523.412670
 30
0.0
  0
SPLINE
  5
12b
100
AcDbEntity
  8
0
 62
7
100
AcDbSpline
 70
8
 71
3
 72
8
 73
4
 74
0
 40
0
 40
0
 40
0
 40
0
 40
1
 40
1
 40
1
 40
1
 10
276.206167
 20
523.412670
 30
0.0
 10
275.974115
 20
523.546646
 30
0.0
 10
275.688214
 20
523.546646
 30
0.0
 10
275.456162
 20
523.412670
 30
0.0
  0
SPLINE
  5
12c
100
AcDbEntity
  8
0
 62
7
100
AcDbSpline
 70
8
 71
3
 72
8
 73
4
 74
0
 40
0
 40
0
 40
0
 40
0
 40
1
 40
1
 40
1
 40
1
 10
275.456162
 20
523.412670
 30
0.0
 10
275.224109
 20
523.278695
 30
0.0
 10
275.081159
 20
523.031098
 30
0.0
 10
275.081159
 20
522.763147
 30
0.0
  0
SPLINE
  5
12d
100
AcDbEntity
  8
0
 62
7
100
AcDbSpline
 70
8
 71
3
 72
8
 73
4
 74
0
 40
0
 40
0
 40
0
 40
0
 40
1
 40
1
 40
1
 40
1
 10
275.081159
 20
522.763147
 30
0.0
 10
275.081159
 20
522.348930
 30
0.0
 10
275.416948
 20
522.013141
 30
0.0
 10
275.831165
 20
522.013141
 30
0.0
  0
SPLINE
  5
12e
100
AcDbEntity
  8
0
 62
7
100
AcDbSpline
 70
8
 71
3
 72
8
 73
4
 74
0
 40
0
 40
0
 40
0
 40
0
 40
1
 40
1
 40
1
 40
1
 10
275.831165
 20
522.013141
 30
0.0
 10
276.245381
 20
522.013141
 30
0.0
 10
276.581170
 20
522.348930
 30
0.0
 10
276.581170
 20
522.763147
 30
0.0
  0
LWPOLYLINE
  5
12f
100
AcDbEntity
  8
0
 62
7
100
AcDbPolyline
 90
2
 70
1
 10
291.479083
 20
546.404250
 30
0.0
 10
291.479083
 20
546.404250
 30
0.0
  0
SPLINE
  5
130
100
AcDbEntity
  8
0
 62
7
100
AcDbSpline
 70
8
 71
3
 72
8
 73
4
 74
0
 40
0
 40
0
 40
0
 40
0
 40
1
 40
1
 40
1
 40
1
 10
269.736181
 20
510.856312
 30
0.0
 10
269.736181
 20
511.124264
 30
0.0
 10
269.593230
 20
511.371861
 30
0.0
 10
269.361178
 20
511.505836
 30
0.0
  0
SPLINE
  5
131
100
AcDbEntity
  8
0
 62
7
100
AcDbSpline
 70
8
 71
3
 72
8
 73
4
 74
0
 40
0
 40
0
 40
0
 40
0
 40
1
 40
1
 40
1
 40
1
 10
269.361178
 20
511.505836
 30
0.0
 10
269.129125
 20
511.639812
 30
0.0
 10
268.843225
 20
511.639812
 30
0.0
 10
268.611172
 20
511.505836
 30
0.0
  0
SPLINE
  5
132
100
AcDbEntity
  8
0
 62
7
100
AcDbSpline
 70
8
 71
3
 72
8
 73
4
 74
0
 40
0
 40
0
 40
0
 40
0
 40
1
 40
1
 40
1
 40
1
 10
268.611172
 20
511.505836
 30
0.0
 10
268.379120
 20
511.371861
 30
0.0
 10
268.236169
 20
511.124264
 30
0.0
 10
268.236169
 20
510.856312
 30
0.0
  0
SPLINE
  5
133
100
AcDbEntity
  8
0
 62
7
100
AcDbSpline
 70
8
 71
3
 72
8
 73
4
 74
0
 40
0
 40
0
 40
0
 40
0
 40
1
 40
1
 40
1
 40
1
 10
268.236169
 20
510.856312
 30
0.0
 10
268.236169
 20
510.588361
 30
0.0
 10
268.379120
 20
510.340764
 30
0.0
 10
268.611172
 20
510.206789
 30
0.0
  0
SPLINE
  5
134
100
AcDbEntity
  8
0
 62
7
100
AcDbSpline
 70
8
 71
3
 72
8
 73
4
 74
0
 40
0
 40
0
 40
0
 40
0
 40
1
 40
1
 40
1
 40
1
 10
268.611172
 20
510.206789
 30
0.0
 10
268.843225
 20
510.072813
 30
0.0
 10
269.129125
 20
510.072813
 30
0.0
 10
269.361178
 20
510.206789
 30
0.0
  0
SPLINE
  5
135
100
AcDbEntity
  8
0
 62
7
100
AcDbSpline
 70
8
 71
3
 72
8
 73
4
 74
0
 40
0
 40
0
 40
0
 40
0
 40
1
 40
1
 40
1
 40
1
 10
269.361178
 20
510.206789
 30
0.0
 10
269.593230
 20
510.340764
 30
0.0
 10
269.736181
 20
510.588361
 30
0.0
 10
269.736181
 20
510.856312
 30
0.0
  0
LWPOLYLINE
  5
136
100
AcDbEntity
  8
0
 62
7
100
AcDbPolyline
 90
2
 70
1
 10
276.581170
 20
522.763147
 30
0.0
 10
276.581170
 20
522.763147
 30
0.0
  0
SPLINE
  5
137
100
AcDbEntity
  8
0
 62
7
100
AcDbSpline
 70
8
 71
3
 72
8
 73
4
 74
0
 40
0
 40
0
 40
0
 40
0
 40
1
 40
1
 40
1
 40
1
 10
278.479369
 20
492.622175
 30
0.0
 10
278.479369
 20
492.890126
 30
0.0
 10
278.336418
 20
493.137723
 30
0.0
 10
278.104366
 20
493.271698
 30
0.0
  0
SPLINE
  5
138
100
AcDbEntity
  8
0
 62
7
100
AcDbSpline
 70
8
 71
3
 72
8
 73
4
 74
0
 40
0
 40
0
 40
0
 40
0
 40
1
 40
1
 40
1
 40
1
 10
278.104366
 20
493.271698
 30
0.0
 10
277.872313
 20
493.405674
 30
0.0
 10
277.586413
 20
493.405674
 30
0.0
 10
277.354360
 20
493.271698
 30
0.0
  0
SPLINE
  5
139
100
AcDbEntity
  8
0
 62
7
100
AcDbSpline
 70
8
 71
3
 72
8
 73
4
 74
0
 40
0
 40
0
 40
0
 40
0
 40
1
 40
1
 40
1
 40
1
 10
277.354360
 20
493.271698
 30
0.0
 10
277.122308
 20
493.137723
 30
0.0
 10
276.979357
 20
492.890126
 30
0.0
 10
276.979357
 20
492.622175
 30
0.0
  0
SPLINE
  5
13a
100
AcDbEntity
  8
0
 62
7
100
AcDbSpline
 70
8
 71
3
 72
8
 73
4
 74
0
 40
0
 40
0
 40
0
 40
0
 40
1
 40
1
 40
1
 40
1
 10
276.979357
 20
492.622175
 30
0.0
 10
276.979357
 20
492.354223
 30
0.0
 10
277.122308
 20
492.106626
 30
0.0
 10
277.354360
 20
491.972651
 30
0.0
  0
SPLINE
  5
13b
100
AcDbEntity
  8
0
 62
7
100
AcDbSpline
 70
8
 71
3
 72
8
 73
4
 74
0
 40
0
 40
0
 40
0
 40
0
 40
1
 40
1
 40
1
 40
1
 10
277.354360
 20
491.972651
 30
0.0
 10
277.586413
 20
491.838675
 30
0.0
 10
277.872313
 20
491.838675
 30
0.0
 10
278.104366
 20
491.972651
 30
0.0
  0
SPLINE
  5
13c
100
AcDbEntity
  8
0
 62
7
100
AcDbSpline
 70
8
 71
3
 72
8
 73
4
 74
0
 40
0
 40
0
 40
0
 40
0
 40
1
 40
1
 40
1
 40
1
 10
278.104366
 20
491.972651
 30
0.0
 10
278.336418
 20
492.106626
 30
0.0
 10
278.479369
 20
492.354223
 30
0.0
 10
278.479369
 20
492.622175
 30
0.0
  0
LWPOLYLINE
  5
13d
100
AcDbEntity
  8
0
 62
7
100
AcDbPolyline
 90
2
 70
1
 10
269.736181
 20
510.856312
 30
0.0
 10
269.736181
 20
510.856312
 30
0.0
  0
SPLINE
  5
13e
100
AcDbEntity
  8
0
 62
7
100
AcDbSpline
 70
8
 71
3
 72
8
 73
4
 74
0
 40
0
 40
0
 40
0
 40
0
 40
1
 40
1
 40
1
 40
1
 10
272.382155
 20
498.316747
 30
0.0
 10
272.382155
 20
498.584698
 30
0.0
 10
272.239205
 20
498.832296
 30
0.0
 10
272.007152
 20
498.966271
 30
0.0
  0
SPLINE
  5
13f
100
AcDbEntity
  8
0
 62
7
100
AcDbSpline
 70
8
 71
3
 72
8
 73
4
 74
0
 40
0
 40
0
 40
0
 40
0
 40
1
 40
1
 40
1
 40
1
 10
272.007152
 20
498.966271
 30
0.0
 10
271.775100
 20
499.100247
 30
0.0
 10
271.489199
 20
499.100247
 30
0.0
 10
271.257147
 20
498.966271
 30
0.0
  0
SPLINE
  5
140
100
AcDbEntity
  8
0
 62
7
100
AcDbSpline
 70
8
 71
3
 72
8
 73
4
 74
0
 40
0
 40
0
 40
0
 40
0
 40
1
 40
1
 40
1
 40
1
 10
271.257147
 20
498.966271
 30
0.0
 10
271.025094
 20
498.832296
 30
0.0
 10
270.882144
 20
498.584698
 30
0.0
 10
270.882144
 20
498.316747
 30
0.0
  0
SPLINE
  5
141
100
AcDbEntity
  8
0
 62
7
100
AcDbSpline
 70
8
 71
3
 72
8
 73
4
 74
0
 40
0
 40
0
 40
0
 40
0
 40
1
 40
1
 40
1
 40
1
 10
270.882144
 20
498.316747
 30
0.0
 10
270.882144
 20
498.048796
 30
0.0
 10
271.025094
 20
497.801199
 30
0.0
 10
271.257147
 20
497.667223
 30
0.0
  0
SPLINE
  5
142
100
AcDbEntity
  8
0
 62
7
100
AcDbSpline
 70
8
 71
3
 72
8
 73
4
 74
0
 40
0
 40
0
 40
0
 40
0
 40
1
 40
1
 40
1
 40
1
 10
271.257147
 20
497.667223
 30
0.0
 10
271.489199
 20
497.533248
 30
0.0
 10
271.775100
 20
497.533248
 30
0.0
 10
272.007152
 20
497.667223
 30
0.0
  0
SPLINE
  5
143
100
AcDbEntity
  8
0
 62
7
100
AcDbSpline
 70
8
 71
3
 72
8
 73
4
 74
0
 40
0
 40
0
 40
0
 40
0
 40
1
 40
1
 40
1
 40
1
 10
272.007152
 20
497.667223
 30
0.0
 10
272.239205
 20
497.801199
 30
0.0
 10
272.382155
 20
498.048796
 30
0.0
 10
272.382155
 20
498.316747
 30
0.0
  0
LWPOLYLINE
  5
144
100
AcDbEntity
  8
0
 62
7
100
AcDbPolyline
 90
2
 70
1
 10
278.479369
 20
492.622175
 30
0.0
 10
278.479369
 20
492.622175
 30
0.0
  0
SPLINE
  5
145
100
AcDbEntity
  8
0
 62
7
100
AcDbSpline
 70
8
 71
3
 72
8
 73
4
 74
0
 40
0
 40
0
 40
0
 40
0
 40
1
 40
1
 40
1
 40
1
 10
252.749818
 20
485.144454
 30
0.0
 10
252.749818
 20
485.591038
 30
0.0
 10
252.511568
 20
486.003698
 30
0.0
 10
252.124815
 20
486.226990
 30
0.0
  0
SPLINE
  5
146
100
AcDbEntity
  8
0
 62
7
100
AcDbSpline
 70
8
 71
3
 72
8
 73
4
 74
0
 40
0
 40
0
 40
0
 40
0
 40
1
 40
1
 40
1
 40
1
 10
252.124815
 20
486.226990
 30
0.0
 10
251.738063
 20
486.450282
 30
0.0
 10
251.261564
 20
486.450282
 30
0.0
 10
250.874811
 20
486.226990
 30
0.0
  0
SPLINE
  5
147
100
AcDbEntity
  8
0
 62
7
100
AcDbSpline
 70
8
 71
3
 72
8
 73
4
 74
0
 40
0
 40
0
 40
0
 40
0
 40
1
 40
1
 40
1
 40
1
 10
250.874811
 20
486.226990
 30
0.0
 10
250.488058
 20
486.003698
 30
0.0
 10
250.249809
 20
485.591038
 30
0.0
 10
250.249809
 20
485.144454
 30
0.0
  0
SPLINE
  5
148
100
AcDbEntity
  8
0
 62
7
100
AcDbSpline
 70
8
 71
3
 72
8
 73
4
 74
0
 40
0
 40
0
 40
0
 40
0
 40
1
 40
1
 40
1
 40
1
 10
250.249809
 20
485.144454
 30
0.0
 10
250.249809
 20
484.697870
 30
0.0
 10
250.488058
 20
484.285210
 30
0.0
 10
250.874811
 20
484.061918
 30
0.0
  0
SPLINE
  5
149
100
AcDbEntity
  8
0
 62
7
100
AcDbSpline
 70
8
 71
3
 72
8
 73
4
 74
0
 40
0
 40
0
 40
0
 40
0
 40
1
 40
1
 40
1
 40
1
 10
250.874811
 20
484.061918
 30
0.0
 10
251.261564
 20
483.838627
 30
0.0
 10
251.738063
 20
483.838627
 30
0.0
 10
252.124815
 20
484.061918
 30
0.0
  0
SPLINE
  5
14a
100
AcDbEntity
  8
0
 62
7
100
AcDbSpline
 70
8
 71
3
 72
8
 73
4
 74
0
 40
0
 40
0
 40
0
 40
0
 40
1
 40
1
 40
1
 40
1
 10
252.124815
 20
484.061918
 30
0.0
 10
252.511568
 20
484.285210
 30
0.0
 10
252.749818
 20
484.697870
 30
0.0
 10
252.749818
 20
485.144454
 30
0.0
  0
LWPOLYLINE
  5
14b
100
AcDbEntity
  8
0
 62
7
100
AcDbPolyline
 90
2
 70
1
 10
272.382155
 20
498.316747
 30
0.0
 10
272.382155
 20
498.316747
 30
0.0
  0
SPLINE
  5
14c
100
AcDbEntity
  8
0
 62
7
100
AcDbSpline
 70
8
 71
3
 72
8
 73
4
 74
0
 40
0
 40
0
 40
0
 40
0
 40
1
 40
1
 40
1
 40
1
 10
240.210261
 20
503.263550
 30
0.0
 10
240.210261
 20
503.710133
 30
0.0
 10
239.972011
 20
504.122794
 30
0.0
 10
239.585259
 20
504.346085
 30
0.0
  0
SPLINE
  5
14d
100
AcDbEntity
  8
0
 62
7
100
AcDbSpline
 70
8
 71
3
 72
8
 73
4
 74
0
 40
0
 40
0
 40
0
 40
0
 40
1
 40
1
 40
1
 40
1
 10
239.585259
 20
504.346085
 30
0.0
 10
239.198506
 20
504.569377
 30
0.0
 10
238.722007
 20
504.569377
 30
0.0
 10
238.335254
 20
504.346085
 30
0.0
  0
SPLINE
  5
14e
100
AcDbEntity
  8
0
 62
7
100
AcDbSpline
 70
8
 71
3
 72
8
 73
4
 74
0
 40
0
 40
0
 40
0
 40
0
 40
1
 40
1
 40
1
 40
1
 10
238.335254
 20
504.346085
 30
0.0
 10
237.948501
 20
504.122794
 30
0.0
 10
237.710252
 20
503.710133
 30
0.0
 10
237.710252
 20
503.263550
 30
0.0
  0
SPLINE
  5
14f
100
AcDbEntity
  8
0
 62
7
100
AcDbSpline
 70
8
 71
3
 72
8
 73
4
 74
0
 40
0
 40
0
 40
0
 40
0
 40
1
 40
1
 40
1
 40
1
 10
237.710252
 20
503.263550
 30
0.0
 10
237.710252
 20
502.816966
 30
0.0
 10
237.948501
 20
502.404306
 30
0.0
 10
238.335254
 20
502.181014
 30
0.0
  0
SPLINE
  5
150
100
AcDbEntity
  8
0
 62
7
100
AcDbSpline
 70
8
 71
3
 72
8
 73
4
 74
0
 40
0
 40
0
 40
0
 40
0
 40
1
 40
1
 40
1
 40
1
 10
238.335254
 20
502.181014
 30
0.0
 10
238.722007
 20
501.957722
 30
0.0
 10
239.198506
 20
501.957722
 30
0.0
 10
239.585259
 20
502.181014
 30
0.0
  0
SPLINE
  5
151
100
AcDbEntity
  8
0
 62
7
100
AcDbSpline
 70
8
 71
3
 72
8
 73
4
 74
0
 40
0
 40
0
 40
0
 40
0
 40
1
 40
1
 40
1
 40
1
 10
239.585259
 20
502.181014
 30
0.0
 10
239.972011
 20
502.404306
 30
0.0
 10
240.210261
 20
502.816966
 30
0.0
 10
240.210261
 20
503.263550
 30
0.0
  0
LWPOLYLINE
  5
152
100
AcDbEntity
  8
0
 62
7
100
AcDbPolyline
 90
2
 70
1
 10
252.749818
 20
485.144454
 30
0.0
 10
252.749818
 20
485.144454
 30
0.0
  0
SPLINE
  5
153
100
AcDbEntity
  8
0
 62
7
100
AcDbSpline
 70
8
 71
3
 72
8
 73
4
 74
0
 40
0
 40
0
 40
0
 40
0
 40
1
 40
1
 40
1
 40
1
 10
291.518933
 20
520.059661
 30
0.0
 10
291.518933
 20
520.506245
 30
0.0
 10
291.280683
 20
520.918905
 30
0.0
 10
290.893930
 20
521.142197
 30
0.0
  0
SPLINE
  5
154
100
AcDbEntity
  8
0
 62
7
100
AcDbSpline
 70
8
 71
3
 72
8
 73
4
 74
0
 40
0
 40
0
 40
0
 40
0
 40
1
 40
1
 40
1
 40
1
 10
290.893930
 20
521.142197
 30
0.0
 10
290.507178
 20
521.365488
 30
0.0
 10
290.030679
 20
521.365488
 30
0.0
 10
289.643926
 20
521.142197
 30
0.0
  0
SPLINE
  5
155
100
AcDbEntity
  8
0
 62
7
100
AcDbSpline
 70
8
 71
3
 72
8
 73
4
 74
0
 40
0
 40
0
 40
0
 40
0
 40
1
 40
1
 40
1
 40
1
 10
289.643926
 20
521.142197
 30
0.0
 10
289.257173
 20
520.918905
 30
0.0
 10
289.018924
 20
520.506245
 30
0.0
 10
289.018924
 20
520.059661
 30
0.0
  0
SPLINE
  5
156
100
AcDbEntity
  8
0
 62
7
100
AcDbSpline
 70
8
 71
3
 72
8
 73
4
 74
0
 40
0
 40
0
 40
0
 40
0
 40
1
 40
1
 40
1
 40
1
 10
289.018924
 20
520.059661
 30
0.0
 10
289.018924
 20
519.613077
 30
0.0
 10
289.257173
 20
519.200417
 30
0.0
 10
289.643926
 20
518.977125
 30
0.0
  0
SPLINE
  5
157
100
AcDbEntity
  8
0
 62
7
100
AcDbSpline
 70
8
 71
3
 72
8
 73
4
 74
0
 40
0
 40
0
 40
0
 40
0
 40
1
 40
1
 40
1
 40
1
 10
289.643926
 20
518.977125
 30
0.0
 10
290.030679
 20
518.753833
 30
0.0
 10
290.507178
 20
518.753833
 30
0.0
 10
290.893930
 20
518.977125
 30
0.0
  0
SPLINE
  5
158
100
AcDbEntity
  8
0
 62
7
100
AcDbSpline
 70
8
 71
3
 72
8
 73
4
 74
0
 40
0
 40
0
 40
0
 40
0
 40
1
 40
1
 40
1
 40
1
 10
290.893930
 20
518.977125
 30
0.0
 10
291.280683
 20
519.200417
 30
0.0
 10
291.518933
 20
519.613077
 30
0.0
 10
291.518933
 20
520.059661
 30
0.0
  0
LWPOLYLINE
  5
159
100
AcDbEntity
  8
0
 62
7
100
AcDbPolyline
 90
2
 70
1
 10
240.210261
 20
503.263550
 30
0.0
 10
240.210261
 20
503.263550
 30
0.0
  0
SPLINE
  5
15a
100
AcDbEntity
  8
0
 62
7
100
AcDbSpline
 70
8
 71
3
 72
8
 73
4
 74
0
 40
0
 40
0
 40
0
 40
0
 40
1
 40
1
 40
1
 40
1
 10
250.314014
 20
501.883046
 30
0.0
 10
250.314725
 20
502.240784
 30
0.0
 10
250.124282
 20
502.571652
 30
0.0
 10
249.814590
 20
502.750727
 30
0.0
  0
SPLINE
  5
15b
100
AcDbEntity
  8
0
 62
7
100
AcDbSpline
 70
8
 71
3
 72
8
 73
4
 74
0
 40
0
 40
0
 40
0
 40
0
 40
1
 40
1
 40
1
 40
1
 10
249.814590
 20
502.750727
 30
0.0
 10
249.504897
 20
502.929802
 30
0.0
 10
249.123135
 20
502.929802
 30
0.0
 10
248.813442
 20
502.750727
 30
0.0
  0
SPLINE
  5
15c
100
AcDbEntity
  8
0
 62
7
100
AcDbSpline
 70
8
 71
3
 72
8
 73
4
 74
0
 40
0
 40
0
 40
0
 40
0
 40
1
 40
1
 40
1
 40
1
 10
248.813442
 20
502.750727
 30
0.0
 10
248.503750
 20
502.571652
 30
0.0
 10
248.313307
 20
502.240784
 30
0.0
 10
248.314018
 20
501.883046
 30
0.0
  0
SPLINE
  5
15d
100
AcDbEntity
  8
0
 62
7
100
AcDbSpline
 70
8
 71
3
 72
8
 73
4
 74
0
 40
0
 40
0
 40
0
 40
0
 40
1
 40
1
 40
1
 40
1
 10
248.314018
 20
501.883046
 30
0.0
 10
248.313307
 20
501.525307
 30
0.0
 10
248.503750
 20
501.194439
 30
0.0
 10
248.813442
 20
501.015364
 30
0.0
  0
SPLINE
  5
15e
100
AcDbEntity
  8
0
 62
7
100
AcDbSpline
 70
8
 71
3
 72
8
 73
4
 74
0
 40
0
 40
0
 40
0
 40
0
 40
1
 40
1
 40
1
 40
1
 10
248.813442
 20
501.015364
 30
0.0
 10
249.123135
 20
500.836289
 30
0.0
 10
249.504897
 20
500.836289
 30
0.0
 10
249.814590
 20
501.015364
 30
0.0
  0
SPLINE
  5
15f
100
AcDbEntity
  8
0
 62
7
100
AcDbSpline
 70
8
 71
3
 72
8
 73
4
 74
0
 40
0
 40
0
 40
0
 40
0
 40
1
 40
1
 40
1
 40
1
 10
249.814590
 20
501.015364
 30
0.0
 10
250.124282
 20
501.194439
 30
0.0
 10
250.314725
 20
501.525307
 30
0.0
 10
250.314014
 20
501.883046
 30
0.0
  0
LWPOLYLINE
  5
160
100
AcDbEntity
  8
0
 62
7
100
AcDbPolyline
 90
2
 70
1
 10
291.518933
 20
520.059661
 30
0.0
 10
291.518933
 20
520.059661
 30
0.0
  0
SPLINE
  5
161
100
AcDbEntity
  8
0
 62
7
100
AcDbSpline
 70
8
 71
3
 72
8
 73
4
 74
0
 40
0
 40
0
 40
0
 40
0
 40
1
 40
1
 40
1
 40
1
 10
262.010686
 20
501.077753
 30
0.0
 10
262.010686
 20
501.524336
 30
0.0
 10
261.772436
 20
501.936997
 30
0.0
 10
261.385684
 20
502.160288
 30
0.0
  0
SPLINE
  5
162
100
AcDbEntity
  8
0
 62
7
100
AcDbSpline
 70
8
 71
3
 72
8
 73
4
 74
0
 40
0
 40
0
 40
0
 40
0
 40
1
 40
1
 40
1
 40
1
 10
261.385684
 20
502.160288
 30
0.0
 10
260.998931
 20
502.383580
 30
0.0
 10
260.522432
 20
502.383580
 30
0.0
 10
260.135679
 20
502.160288
 30
0.0
  0
SPLINE
  5
163
100
AcDbEntity
  8
0
 62
7
100
AcDbSpline
 70
8
 71
3
 72
8
 73
4
 74
0
 40
0
 40
0
 40
0
 40
0
 40
1
 40
1
 40
1
 40
1
 10
260.135679
 20
502.160288
 30
0.0
 10
259.748926
 20
501.936997
 30
0.0
 10
259.510677
 20
501.524336
 30
0.0
 10
259.510677
 20
501.077753
 30
0.0
  0
SPLINE
  5
164
100
AcDbEntity
  8
0
 62
7
100
AcDbSpline
 70
8
 71
3
 72
8
 73
4
 74
0
 40
0
 40
0
 40
0
 40
0
 40
1
 40
1
 40
1
 40
1
 10
259.510677
 20
501.077753
 30
0.0
 10
259.510677
 20
500.631169
 30
0.0
 10
259.748926
 20
500.218509
 30
0.0
 10
260.135679
 20
499.995217
 30
0.0
  0
SPLINE
  5
165
100
AcDbEntity
  8
0
 62
7
100
AcDbSpline
 70
8
 71
3
 72
8
 73
4
 74
0
 40
0
 40
0
 40
0
 40
0
 40
1
 40
1
 40
1
 40
1
 10
260.135679
 20
499.995217
 30
0.0
 10
260.522432
 20
499.771925
 30
0.0
 10
260.998931
 20
499.771925
 30
0.0
 10
261.385684
 20
499.995217
 30
0.0
  0
SPLINE
  5
166
100
AcDbEntity
  8
0
 62
7
100
AcDbSpline
 70
8
 71
3
 72
8
 73
4
 74
0
 40
0
 40
0
 40
0
 40
0
 40
1
 40
1
 40
1
 40
1
 10
261.385684
 20
499.995217
 30
0.0
 10
261.772436
 20
500.218509
 30
0.0
 10
262.010686
 20
500.631169
 30
0.0
 10
262.010686
 20
501.077753
 30
0.0
  0
LWPOLYLINE
  5
167
100
AcDbEntity
  8
0
 62
7
100
AcDbPolyline
 90
2
 70
1
 10
250.314014
 20
501.883046
 30
0.0
 10
250.314014
 20
501.883046
 30
0.0
  0
SPLINE
  5
168
100
AcDbEntity
  8
0
 62
7
100
AcDbSpline
 70
8
 71
3
 72
8
 73
4
 74
0
 40
0
 40
0
 40
0
 40
0
 40
1
 40
1
 40
1
 40
1
 10
300.434671
 20
503.090985
 30
0.0
 10
300.434671
 20
503.537569
 30
0.0
 10
300.196422
 20
503.950229
 30
0.0
 10
299.809669
 20
504.173521
 30
0.0
  0
SPLINE
  5
169
100
AcDbEntity
  8
0
 62
7
100
AcDbSpline
 70
8
 71
3
 72
8
 73
4
 74
0
 40
0
 40
0
 40
0
 40
0
 40
1
 40
1
 40
1
 40
1
 10
299.809669
 20
504.173521
 30
0.0
 10
299.422916
 20
504.396812
 30
0.0
 10
298.946417
 20
504.396812
 30
0.0
 10
298.559665
 20
504.173521
 30
0.0
  0
SPLINE
  5
16a
100
AcDbEntity
  8
0
 62
7
100
AcDbSpline
 70
8
 71
3
 72
8
 73
4
 74
0
 40
0
 40
0
 40
0
 40
0
 40
1
 40
1
 40
1
 40
1
 10
298.559665
 20
504.173521
 30
0.0
 10
298.172912
 20
503.950229
 30
0.0
 10
297.934662
 20
503.537569
 30
0.0
 10
297.934662
 20
503.090985
 30
0.0
  0
SPLINE
  5
16b
100
AcDbEntity
  8
0
 62
7
100
AcDbSpline
 70
8
 71
3
 72
8
 73
4
 74
0
 40
0
 40
0
 40
0
 40
0
 40
1
 40
1
 40
1
 40
1
 10
297.934662
 20
503.090985
 30
0.0
 10
297.934662
 20
502.644401
 30
0.0
 10
298.172912
 20
502.231741
 30
0.0
 10
298.559665
 20
502.008449
 30
0.0
  0
SPLINE
  5
16c
100
AcDbEntity
  8
0
 62
7
100
AcDbSpline
 70
8
 71
3
 72
8
 73
4
 74
0
 40
0
 40
0
 40
0
 40
0
 40
1
 40
1
 40
1
 40
1
 10
298.559665
 20
502.008449
 30
0.0
 10
298.946417
 20
501.785157
 30
0.0
 10
299.422916
 20
501.785157
 30
0.0
 10
299.809669
 20
502.008449
 30
0.0
  0
SPLINE
  5
16d
100
AcDbEntity
  8
0
 62
7
100
AcDbSpline
 70
8
 71
3
 72
8
 73
4
 74
0
 40
0
 40
0
 40
0
 40
0
 40
1
 40
1
 40
1
 40
1
 10
299.809669
 20
502.008449
 30
0.0
 10
300.196422
 20
502.231741
 30
0.0
 10
300.434671
 20
502.644401
 30
0.0
 10
300.434671
 20
503.090985
 30
0.0
  0
LWPOLYLINE
  5
16e
100
AcDbEntity
  8
0
 62
7
100
AcDbPolyline
 90
2
 70
1
 10
262.010686
 20
501.077753
 30
0.0
 10
262.010686
 20
501.077753
 30
0.0
  0
SPLINE
  5
16f
100
AcDbEntity
  8
0
 62
7
100
AcDbSpline
 70
8
 71
3
 72
8
 73
4
 74
0
 40
0
 40
0
 40
0
 40
0
 40
1
 40
1
 40
1
 40
1
 10
265.313899
 20
519.741828
 30
0.0
 10
265.313899
 20
520.188412
 30
0.0
 10
265.075650
 20
520.601072
 30
0.0
 10
264.688897
 20
520.824364
 30
0.0
  0
SPLINE
  5
170
100
AcDbEntity
  8
0
 62
7
100
AcDbSpline
 70
8
 71
3
 72
8
 73
4
 74
0
 40
0
 40
0
 40
0
 40
0
 40
1
 40
1
 40
1
 40
1
 10
264.688897
 20
520.824364
 30
0.0
 10
264.302144
 20
521.047655
 30
0.0
 10
263.825645
 20
521.047655
 30
0.0
 10
263.438893
 20
520.824364
 30
0.0
  0
SPLINE
  5
171
100
AcDbEntity
  8
0
 62
7
100
AcDbSpline
 70
8
 71
3
 72
8
 73
4
 74
0
 40
0
 40
0
 40
0
 40
0
 40
1
 40
1
 40
1
 40
1
 10
263.438893
 20
520.824364
 30
0.0
 10
263.052140
 20
520.601072
 30
0.0
 10
262.813890
 20
520.188412
 30
0.0
 10
262.813890
 20
519.741828
 30
0.0
  0
SPLINE
  5
172
100
AcDbEntity
  8
0
 62
7
100
AcDbSpline
 70
8
 71
3
 72
8
 73
4
 74
0
 40
0
 40
0
 40
0
 40
0
 40
1
 40
1
 40
1
 40
1
 10
262.813890
 20
519.741828
 30
0.0
 10
262.813890
 20
519.295244
 30
0.0
 10
263.052140
 20
518.882584
 30
0.0
 10
263.438893
 20
518.659292
 30
0.0
  0
SPLINE
  5
173
100
AcDbEntity
  8
0
 62
7
100
AcDbSpline
 70
8
 71
3
 72
8
 73
4
 74
0
 40
0
 40
0
 40
0
 40
0
 40
1
 40
1
 40
1
 40
1
 10
263.438893
 20
518.659292
 30
0.0
 10
263.825645
 20
518.436000
 30
0.0
 10
264.302144
 20
518.436000
 30
0.0
 10
264.688897
 20
518.659292
 30
0.0
  0
SPLINE
  5
174
100
AcDbEntity
  8
0
 62
7
100
AcDbSpline
 70
8
 71
3
 72
8
 73
4
 74
0
 40
0
 40
0
 40
0
 40
0
 40
1
 40
1
 40
1
 40
1
 10
264.688897
 20
518.659292
 30
0.0
 10
265.075650
 20
518.882584
 30
0.0
 10
265.313899
 20
519.295244
 30
0.0
 10
265.313899
 20
519.741828
 30
0.0
  0
LWPOLYLINE
  5
175
100
AcDbEntity
  8
0
 62
7
100
AcDbPolyline
 90
2
 70
1
 10
300.434671
 20
503.090985
 30
0.0
 10
300.434671
 20
503.090985
 30
0.0
  0
SPLINE
  5
176
100
AcDbEntity
  8
0
 62
7
100
AcDbSpline
 70
8
 71
3
 72
8
 73
4
 74
0
 40
0
 40
0
 40
0
 40
0
 40
1
 40
1
 40
1
 40
1
 10
271.616684
 20
489.285961
 30
0.0
 10
271.616684
 20
489.732544
 30
0.0
 10
271.378434
 20
490.145205
 30
0.0
 10
270.991681
 20
490.368496
 30
0.0
  0
SPLINE
  5
177
100
AcDbEntity
  8
0
 62
7
100
AcDbSpline
 70
8
 71
3
 72
8
 73
4
 74
0
 40
0
 40
0
 40
0
 40
0
 40
1
 40
1
 40
1
 40
1
 10
270.991681
 20
490.368496
 30
0.0
 10
270.604929
 20
490.591788
 30
0.0
 10
270.128430
 20
490.591788
 30
0.0
 10
269.741677
 20
490.368496
 30
0.0
  0
SPLINE
  5
178
100
AcDbEntity
  8
0
 62
7
100
AcDbSpline
 70
8
 71
3
 72
8
 73
4
 74
0
 40
0
 40
0
 40
0
 40
0
 40
1
 40
1
 40
1
 40
1
 10
269.741677
 20
490.368496
 30
0.0
 10
269.354924
 20
490.145205
 30
0.0
 10
269.116675
 20
489.732544
 30
0.0
 10
269.116675
 20
489.285961
 30
0.0
  0
SPLINE
  5
179
100
AcDbEntity
  8
0
 62
7
100
AcDbSpline
 70
8
 71
3
 72
8
 73
4
 74
0
 40
0
 40
0
 40
0
 40
0
 40
1
 40
1
 40
1
 40
1
 10
269.116675
 20
489.285961
 30
0.0
 10
269.116675
 20
488.839377
 30
0.0
 10
269.354924
 20
488.426717
 30
0.0
 10
269.741677
 20
488.203425
 30
0.0
  0
SPLINE
  5
17a
100
AcDbEntity
  8
0
 62
7
100
AcDbSpline
 70
8
 71
3
 72
8
 73
4
 74
0
 40
0
 40
0
 40
0
 40
0
 40
1
 40
1
 40
1
 40
1
 10
269.741677
 20
488.203425
 30
0.0
 10
270.128430
 20
487.980133
 30
0.0
 10
270.604929
 20
487.980133
 30
0.0
 10
270.991681
 20
488.203425
 30
0.0
  0
SPLINE
  5
17b
100
AcDbEntity
  8
0
 62
7
100
AcDbSpline
 70
8
 71
3
 72
8
 73
4
 74
0
 40
0
 40
0
 40
0
 40
0
 40
1
 40
1
 40
1
 40
1
 10
270.991681
 20
488.203425
 30
0.0
 10
271.378434
 20
488.426717
 30
0.0
 10
271.616684
 20
488.839377
 30
0.0
 10
271.616684
 20
489.285961
 30
0.0
  0
LWPOLYLINE
  5
17c
100
AcDbEntity
  8
0
 62
7
100
AcDbPolyline
 90
2
 70
1
 10
265.313899
 20
519.741828
 30
0.0
 10
265.313899
 20
519.741828
 30
0.0
  0
SPLINE
  5
17d
100
AcDbEntity
  8
0
 62
7
100
AcDbSpline
 70
8
 71
3
 72
8
 73
4
 74
0
 40
0
 40
0
 40
0
 40
0
 40
1
 40
1
 40
1
 40
1
 10
245.864978
 20
506.829845
 30
0.0
 10
245.866256
 20
507.098640
 30
0.0
 10
245.723588
 20
507.347565
 30
0.0
 10
245.491015
 20
507.482333
 30
0.0
  0
SPLINE
  5
17e
100
AcDbEntity
  8
0
 62
7
100
AcDbSpline
 70
8
 71
3
 72
8
 73
4
 74
0
 40
0
 40
0
 40
0
 40
0
 40
1
 40
1
 40
1
 40
1
 10
245.491015
 20
507.482333
 30
0.0
 10
245.258442
 20
507.617101
 30
0.0
 10
244.971531
 20
507.617101
 30
0.0
 10
244.738959
 20
507.482333
 30
0.0
  0
SPLINE
  5
17f
100
AcDbEntity
  8
0
 62
7
100
AcDbSpline
 70
8
 71
3
 72
8
 73
4
 74
0
 40
0
 40
0
 40
0
 40
0
 40
1
 40
1
 40
1
 40
1
 10
244.738959
 20
507.482333
 30
0.0
 10
244.506386
 20
507.347565
 30
0.0
 10
244.363718
 20
507.098640
 30
0.0
 10
244.364995
 20
506.829845
 30
0.0
  0
SPLINE
  5
180
100
AcDbEntity
  8
0
 62
7
100
AcDbSpline
 70
8
 71
3
 72
8
 73
4
 74
0
 40
0
 40
0
 40
0
 40
0
 40
1
 40
1
 40
1
 40
1
 10
244.364995
 20
506.829845
 30
0.0
 10
244.363718
 20
506.561050
 30
0.0
 10
244.506386
 20
506.312125
 30
0.0
 10
244.738959
 20
506.177357
 30
0.0
  0
SPLINE
  5
181
100
AcDbEntity
  8
0
 62
7
100
AcDbSpline
 70
8
 71
3
 72
8
 73
4
 74
0
 40
0
 40
0
 40
0
 40
0
 40
1
 40
1
 40
1
 40
1
 10
244.738959
 20
506.177357
 30
0.0
 10
244.971531
 20
506.042590
 30
0.0
 10
245.258442
 20
506.042590
 30
0.0
 10
245.491015
 20
506.177357
 30
0.0
  0
SPLINE
  5
182
100
AcDbEntity
  8
0
 62
7
100
AcDbSpline
 70
8
 71
3
 72
8
 73
4
 74
0
 40
0
 40
0
 40
0
 40
0
 40
1
 40
1
 40
1
 40
1
 10
245.491015
 20
506.177357
 30
0.0
 10
245.723588
 20
506.312125
 30
0.0
 10
245.866256
 20
506.561050
 30
0.0
 10
245.864978
 20
506.829845
 30
0.0
  0
LWPOLYLINE
  5
183
100
AcDbEntity
  8
0
 62
7
100
AcDbPolyline
 90
2
 70
1
 10
271.616684
 20
489.285961
 30
0.0
 10
271.616684
 20
489.285961
 30
0.0
  0
SPLINE
  5
184
100
AcDbEntity
  8
0
 62
7
100
AcDbSpline
 70
8
 71
3
 72
8
 73
4
 74
0
 40
0
 40
0
 40
0
 40
0
 40
1
 40
1
 40
1
 40
1
 10
254.608166
 20
515.342946
 30
0.0
 10
254.609454
 20
515.611748
 30
0.0
 10
254.466789
 20
515.860684
 30
0.0
 10
254.234212
 20
515.995458
 30
0.0
  0
SPLINE
  5
185
100
AcDbEntity
  8
0
 62
7
100
AcDbSpline
 70
8
 71
3
 72
8
 73
4
 74
0
 40
0
 40
0
 40
0
 40
0
 40
1
 40
1
 40
1
 40
1
 10
254.234212
 20
515.995458
 30
0.0
 10
254.001634
 20
516.130233
 30
0.0
 10
253.714715
 20
516.130233
 30
0.0
 10
253.482138
 20
515.995458
 30
0.0
  0
SPLINE
  5
186
100
AcDbEntity
  8
0
 62
7
100
AcDbSpline
 70
8
 71
3
 72
8
 73
4
 74
0
 40
0
 40
0
 40
0
 40
0
 40
1
 40
1
 40
1
 40
1
 10
253.482138
 20
515.995458
 30
0.0
 10
253.249561
 20
515.860684
 30
0.0
 10
253.106896
 20
515.611748
 30
0.0
 10
253.108183
 20
515.342946
 30
0.0
  0
SPLINE
  5
187
100
AcDbEntity
  8
0
 62
7
100
AcDbSpline
 70
8
 71
3
 72
8
 73
4
 74
0
 40
0
 40
0
 40
0
 40
0
 40
1
 40
1
 40
1
 40
1
 10
253.108183
 20
515.342946
 30
0.0
 10
253.106896
 20
515.074144
 30
0.0
 10
253.249561
 20
514.825207
 30
0.0
 10
253.482138
 20
514.690433
 30
0.0
  0
SPLINE
  5
188
100
AcDbEntity
  8
0
 62
7
100
AcDbSpline
 70
8
 71
3
 72
8
 73
4
 74
0
 40
0
 40
0
 40
0
 40
0
 40
1
 40
1
 40
1
 40
1
 10
253.482138
 20
514.690433
 30
0.0
 10
253.714715
 20
514.555659
 30
0.0
 10
254.001634
 20
514.555659
 30
0.0
 10
254.234212
 20
514.690433
 30
0.0
  0
SPLINE
  5
189
100
AcDbEntity
  8
0
 62
7
100
AcDbSpline
 70
8
 71
3
 72
8
 73
4
 74
0
 40
0
 40
0
 40
0
 40
0
 40
1
 40
1
 40
1
 40
1
 10
254.234212
 20
514.690433
 30
0.0
 10
254.466789
 20
514.825207
 30
0.0
 10
254.609454
 20
515.074144
 30
0.0
 10
254.608166
 20
515.342946
 30
0.0
  0
LWPOLYLINE
  5
18a
100
AcDbEntity
  8
0
 62
7
100
AcDbPolyline
 90
2
 70
1
 10
245.864978
 20
506.829845
 30
0.0
 10
245.864978
 20
506.829845
 30
0.0
  0
SPLINE
  5
18b
100
AcDbEntity
  8
0
 62
7
100
AcDbSpline
 70
8
 71
3
 72
8
 73
4
 74
0
 40
0
 40
0
 40
0
 40
0
 40
1
 40
1
 40
1
 40
1
 10
261.280605
 20
509.705893
 30
0.0
 10
261.280605
 20
509.973844
 30
0.0
 10
261.137655
 20
510.221441
 30
0.0
 10
260.905602
 20
510.355417
 30
0.0
  0
SPLINE
  5
18c
100
AcDbEntity
  8
0
 62
7
100
AcDbSpline
 70
8
 71
3
 72
8
 73
4
 74
0
 40
0
 40
0
 40
0
 40
0
 40
1
 40
1
 40
1
 40
1
 10
260.905602
 20
510.355417
 30
0.0
 10
260.673550
 20
510.489392
 30
0.0
 10
260.387649
 20
510.489392
 30
0.0
 10
260.155597
 20
510.355417
 30
0.0
  0
SPLINE
  5
18d
100
AcDbEntity
  8
0
 62
7
100
AcDbSpline
 70
8
 71
3
 72
8
 73
4
 74
0
 40
0
 40
0
 40
0
 40
0
 40
1
 40
1
 40
1
 40
1
 10
260.155597
 20
510.355417
 30
0.0
 10
259.923544
 20
510.221441
 30
0.0
 10
259.780594
 20
509.973844
 30
0.0
 10
259.780594
 20
509.705893
 30
0.0
  0
SPLINE
  5
18e
100
AcDbEntity
  8
0
 62
7
100
AcDbSpline
 70
8
 71
3
 72
8
 73
4
 74
0
 40
0
 40
0
 40
0
 40
0
 40
1
 40
1
 40
1
 40
1
 10
259.780594
 20
509.705893
 30
0.0
 10
259.780594
 20
509.291676
 30
0.0
 10
260.116383
 20
508.955887
 30
0.0
 10
260.530600
 20
508.955887
 30
0.0
  0
SPLINE
  5
18f
100
AcDbEntity
  8
0
 62
7
100
AcDbSpline
 70
8
 71
3
 72
8
 73
4
 74
0
 40
0
 40
0
 40
0
 40
0
 40
1
 40
1
 40
1
 40
1
 10
260.530600
 20
508.955887
 30
0.0
 10
260.944816
 20
508.955887
 30
0.0
 10
261.280605
 20
509.291676
 30
0.0
 10
261.280605
 20
509.705893
 30
0.0
  0
LWPOLYLINE
  5
190
100
AcDbEntity
  8
0
 62
7
100
AcDbPolyline
 90
2
 70
1
 10
254.608166
 20
515.342946
 30
0.0
 10
254.608166
 20
515.342946
 30
0.0
  0
SPLINE
  5
191
100
AcDbEntity
  8
0
 62
7
100
AcDbSpline
 70
8
 71
3
 72
8
 73
4
 74
0
 40
0
 40
0
 40
0
 40
0
 40
1
 40
1
 40
1
 40
1
 10
255.778514
 20
530.931118
 30
0.0
 10
255.779225
 20
531.288856
 30
0.0
 10
255.588782
 20
531.619725
 30
0.0
 10
255.279089
 20
531.798799
 30
0.0
  0
SPLINE
  5
192
100
AcDbEntity
  8
0
 62
7
100
AcDbSpline
 70
8
 71
3
 72
8
 73
4
 74
0
 40
0
 40
0
 40
0
 40
0
 40
1
 40
1
 40
1
 40
1
 10
255.279089
 20
531.798799
 30
0.0
 10
254.969397
 20
531.977874
 30
0.0
 10
254.587634
 20
531.977874
 30
0.0
 10
254.277942
 20
531.798799
 30
0.0
  0
SPLINE
  5
193
100
AcDbEntity
  8
0
 62
7
100
AcDbSpline
 70
8
 71
3
 72
8
 73
4
 74
0
 40
0
 40
0
 40
0
 40
0
 40
1
 40
1
 40
1
 40
1
 10
254.277942
 20
531.798799
 30
0.0
 10
253.968249
 20
531.619725
 30
0.0
 10
253.777807
 20
531.288856
 30
0.0
 10
253.778518
 20
530.931118
 30
0.0
  0
SPLINE
  5
194
100
AcDbEntity
  8
0
 62
7
100
AcDbSpline
 70
8
 71
3
 72
8
 73
4
 74
0
 40
0
 40
0
 40
0
 40
0
 40
1
 40
1
 40
1
 40
1
 10
253.778518
 20
530.931118
 30
0.0
 10
253.777807
 20
530.573379
 30
0.0
 10
253.968249
 20
530.242511
 30
0.0
 10
254.277942
 20
530.063436
 30
0.0
  0
SPLINE
  5
195
100
AcDbEntity
  8
0
 62
7
100
AcDbSpline
 70
8
 71
3
 72
8
 73
4
 74
0
 40
0
 40
0
 40
0
 40
0
 40
1
 40
1
 40
1
 40
1
 10
254.277942
 20
530.063436
 30
0.0
 10
254.587634
 20
529.884361
 30
0.0
 10
254.969397
 20
529.884361
 30
0.0
 10
255.279089
 20
530.063436
 30
0.0
  0
SPLINE
  5
196
100
AcDbEntity
  8
0
 62
7
100
AcDbSpline
 70
8
 71
3
 72
8
 73
4
 74
0
 40
0
 40
0
 40
0
 40
0
 40
1
 40
1
 40
1
 40
1
 10
255.279089
 20
530.063436
 30
0.0
 10
255.588782
 20
530.242511
 30
0.0
 10
255.779225
 20
530.573379
 30
0.0
 10
255.778514
 20
530.931118
 30
0.0
  0
LWPOLYLINE
  5
197
100
AcDbEntity
  8
0
 62
7
100
AcDbPolyline
 90
2
 70
1
 10
261.280605
 20
509.705893
 30
0.0
 10
261.280605
 20
509.705893
 30
0.0
  0
SPLINE
  5
198
100
AcDbEntity
  8
0
 62
7
100
AcDbSpline
 70
8
 71
3
 72
8
 73
4
 74
0
 40
0
 40
0
 40
0
 40
0
 40
1
 40
1
 40
1
 40
1
 10
238.004553
 20
516.205758
 30
0.0
 10
238.004553
 20
516.563028
 30
0.0
 10
237.813952
 20
516.893159
 30
0.0
 10
237.504547
 20
517.071794
 30
0.0
  0
SPLINE
  5
199
100
AcDbEntity
  8
0
 62
7
100
AcDbSpline
 70
8
 71
3
 72
8
 73
4
 74
0
 40
0
 40
0
 40
0
 40
0
 40
1
 40
1
 40
1
 40
1
 10
237.504547
 20
517.071794
 30
0.0
 10
237.195142
 20
517.250429
 30
0.0
 10
236.813940
 20
517.250429
 30
0.0
 10
236.504535
 20
517.071794
 30
0.0
  0
SPLINE
  5
19a
100
AcDbEntity
  8
0
 62
7
100
AcDbSpline
 70
8
 71
3
 72
8
 73
4
 74
0
 40
0
 40
0
 40
0
 40
0
 40
1
 40
1
 40
1
 40
1
 10
236.504535
 20
517.071794
 30
0.0
 10
236.195130
 20
516.893159
 30
0.0
 10
236.004529
 20
516.563028
 30
0.0
 10
236.004529
 20
516.205758
 30
0.0
  0
SPLINE
  5
19b
100
AcDbEntity
  8
0
 62
7
100
AcDbSpline
 70
8
 71
3
 72
8
 73
4
 74
0
 40
0
 40
0
 40
0
 40
0
 40
1
 40
1
 40
1
 40
1
 10
236.004529
 20
516.205758
 30
0.0
 10
236.004529
 20
515.848489
 30
0.0
 10
236.195130
 20
515.518357
 30
0.0
 10
236.504535
 20
515.339723
 30
0.0
  0
SPLINE
  5
19c
100
AcDbEntity
  8
0
 62
7
100
AcDbSpline
 70
8
 71
3
 72
8
 73
4
 74
0
 40
0
 40
0
 40
0
 40
0
 40
1
 40
1
 40
1
 40
1
 10
236.504535
 20
515.339723
 30
0.0
 10
236.813940
 20
515.161088
 30
0.0
 10
237.195142
 20
515.161088
 30
0.0
 10
237.504547
 20
515.339723
 30
0.0
  0
SPLINE
  5
19d
100
AcDbEntity
  8
0
 62
7
100
AcDbSpline
 70
8
 71
3
 72
8
 73
4
 74
0
 40
0
 40
0
 40
0
 40
0
 40
1
 40
1
 40
1
 40
1
 10
237.504547
 20
515.339723
 30
0.0
 10
237.813952
 20
515.518357
 30
0.0
 10
238.004553
 20
515.848489
 30
0.0
 10
238.004553
 20
516.205758
 30
0.0
  0
LWPOLYLINE
  5
19e
100
AcDbEntity
  8
0
 62
7
100
AcDbPolyline
 90
2
 70
1
 10
255.778514
 20
530.931118
 30
0.0
 10
255.778514
 20
530.931118
 30
0.0
  0
SPLINE
  5
19f
100
AcDbEntity
  8
0
 62
7
100
AcDbSpline
 70
8
 71
3
 72
8
 73
4
 74
0
 40
0
 40
0
 40
0
 40
0
 40
1
 40
1
 40
1
 40
1
 10
277.041333
 20
516.665927
 30
0.0
 10
277.042621
 20
516.934730
 30
0.0
 10
276.899956
 20
517.183666
 30
0.0
 10
276.667379
 20
517.318440
 30
0.0
  0
SPLINE
  5
1a0
100
AcDbEntity
  8
0
 62
7
100
AcDbSpline
 70
8
 71
3
 72
8
 73
4
 74
0
 40
0
 40
0
 40
0
 40
0
 40
1
 40
1
 40
1
 40
1
 10
276.667379
 20
517.318440
 30
0.0
 10
276.434802
 20
517.453214
 30
0.0
 10
276.147882
 20
517.453214
 30
0.0
 10
275.915305
 20
517.318440
 30
0.0
  0
SPLINE
  5
1a1
100
AcDbEntity
  8
0
 62
7
100
AcDbSpline
 70
8
 71
3
 72
8
 73
4
 74
0
 40
0
 40
0
 40
0
 40
0
 40
1
 40
1
 40
1
 40
1
 10
275.915305
 20
517.318440
 30
0.0
 10
275.682728
 20
517.183666
 30
0.0
 10
275.540063
 20
516.934730
 30
0.0
 10
275.541351
 20
516.665927
 30
0.0
  0
SPLINE
  5
1a2
100
AcDbEntity
  8
0
 62
7
100
AcDbSpline
 70
8
 71
3
 72
8
 73
4
 74
0
 40
0
 40
0
 40
0
 40
0
 40
1
 40
1
 40
1
 40
1
 10
275.541351
 20
516.665927
 30
0.0
 10
275.540063
 20
516.397125
 30
0.0
 10
275.682728
 20
516.148189
 30
0.0
 10
275.915305
 20
516.013415
 30
0.0
  0
SPLINE
  5
1a3
100
AcDbEntity
  8
0
 62
7
100
AcDbSpline
 70
8
 71
3
 72
8
 73
4
 74
0
 40
0
 40
0
 40
0
 40
0
 40
1
 40
1
 40
1
 40
1
 10
275.915305
 20
516.013415
 30
0.0
 10
276.147882
 20
515.878641
 30
0.0
 10
276.434802
 20
515.878641
 30
0.0
 10
276.667379
 20
516.013415
 30
0.0
  0
SPLINE
  5
1a4
100
AcDbEntity
  8
0
 62
7
100
AcDbSpline
 70
8
 71
3
 72
8
 73
4
 74
0
 40
0
 40
0
 40
0
 40
0
 40
1
 40
1
 40
1
 40
1
 10
276.667379
 20
516.013415
 30
0.0
 10
276.899956
 20
516.148189
 30
0.0
 10
277.042621
 20
516.397125
 30
0.0
 10
277.041333
 20
516.665927
 30
0.0
  0
LWPOLYLINE
  5
1a5
100
AcDbEntity
  8
0
 62
7
100
AcDbPolyline
 90
2
 70
1
 10
238.004553
 20
516.205758
 30
0.0
 10
238.004553
 20
516.205758
 30
0.0
  0
SPLINE
  5
1a6
100
AcDbEntity
  8
0
 62
7
100
AcDbSpline
 70
8
 71
3
 72
8
 73
4
 74
0
 40
0
 40
0
 40
0
 40
0
 40
1
 40
1
 40
1
 40
1
 10
264.271681
 20
526.732091
 30
0.0
 10
264.272958
 20
527.000886
 30
0.0
 10
264.130291
 20
527.249812
 30
0.0
 10
263.897718
 20
527.384579
 30
0.0
  0
SPLINE
  5
1a7
100
AcDbEntity
  8
0
 62
7
100
AcDbSpline
 70
8
 71
3
 72
8
 73
4
 74
0
 40
0
 40
0
 40
0
 40
0
 40
1
 40
1
 40
1
 40
1
 10
263.897718
 20
527.384579
 30
0.0
 10
263.665145
 20
527.519347
 30
0.0
 10
263.378234
 20
527.519347
 30
0.0
 10
263.145661
 20
527.384579
 30
0.0
  0
SPLINE
  5
1a8
100
AcDbEntity
  8
0
 62
7
100
AcDbSpline
 70
8
 71
3
 72
8
 73
4
 74
0
 40
0
 40
0
 40
0
 40
0
 40
1
 40
1
 40
1
 40
1
 10
263.145661
 20
527.384579
 30
0.0
 10
262.913088
 20
527.249812
 30
0.0
 10
262.770421
 20
527.000886
 30
0.0
 10
262.771698
 20
526.732091
 30
0.0
  0
SPLINE
  5
1a9
100
AcDbEntity
  8
0
 62
7
100
AcDbSpline
 70
8
 71
3
 72
8
 73
4
 74
0
 40
0
 40
0
 40
0
 40
0
 40
1
 40
1
 40
1
 40
1
 10
262.771698
 20
526.732091
 30
0.0
 10
262.770421
 20
526.463296
 30
0.0
 10
262.913088
 20
526.214371
 30
0.0
 10
263.145661
 20
526.079603
 30
0.0
  0
SPLINE
  5
1aa
100
AcDbEntity
  8
0
 62
7
100
AcDbSpline
 70
8
 71
3
 72
8
 73
4
 74
0
 40
0
 40
0
 40
0
 40
0
 40
1
 40
1
 40
1
 40
1
 10
263.145661
 20
526.079603
 30
0.0
 10
263.378234
 20
525.944836
 30
0.0
 10
263.665145
 20
525.944836
 30
0.0
 10
263.897718
 20
526.079603
 30
0.0
  0
SPLINE
  5
1ab
100
AcDbEntity
  8
0
 62
7
100
AcDbSpline
 70
8
 71
3
 72
8
 73
4
 74
0
 40
0
 40
0
 40
0
 40
0
 40
1
 40
1
 40
1
 40
1
 10
263.897718
 20
526.079603
 30
0.0
 10
264.130291
 20
526.214371
 30
0.0
 10
264.272958
 20
526.463296
 30
0.0
 10
264.271681
 20
526.732091
 30
0.0
  0
LWPOLYLINE
  5
1ac
100
AcDbEntity
  8
0
 62
7
100
AcDbPolyline
 90
2
 70
1
 10
277.041333
 20
516.665927
 30
0.0
 10
277.041333
 20
516.665927
 30
0.0
  0
SPLINE
  5
1ad
100
AcDbEntity
  8
0
 62
7
100
AcDbSpline
 70
8
 71
3
 72
8
 73
4
 74
0
 40
0
 40
0
 40
0
 40
0
 40
1
 40
1
 40
1
 40
1
 10
289.178238
 20
496.245995
 30
0.0
 10
289.179526
 20
496.514797
 30
0.0
 10
289.036861
 20
496.763734
 30
0.0
 10
288.804283
 20
496.898508
 30
0.0
  0
SPLINE
  5
1ae
100
AcDbEntity
  8
0
 62
7
100
AcDbSpline
 70
8
 71
3
 72
8
 73
4
 74
0
 40
0
 40
0
 40
0
 40
0
 40
1
 40
1
 40
1
 40
1
 10
288.804283
 20
496.898508
 30
0.0
 10
288.571706
 20
497.033282
 30
0.0
 10
288.284787
 20
497.033282
 30
0.0
 10
288.052210
 20
496.898508
 30
0.0
  0
SPLINE
  5
1af
100
AcDbEntity
  8
0
 62
7
100
AcDbSpline
 70
8
 71
3
 72
8
 73
4
 74
0
 40
0
 40
0
 40
0
 40
0
 40
1
 40
1
 40
1
 40
1
 10
288.052210
 20
496.898508
 30
0.0
 10
287.819632
 20
496.763734
 30
0.0
 10
287.676967
 20
496.514797
 30
0.0
 10
287.678255
 20
496.245995
 30
0.0
  0
SPLINE
  5
1b0
100
AcDbEntity
  8
0
 62
7
100
AcDbSpline
 70
8
 71
3
 72
8
 73
4
 74
0
 40
0
 40
0
 40
0
 40
0
 40
1
 40
1
 40
1
 40
1
 10
287.678255
 20
496.245995
 30
0.0
 10
287.676967
 20
495.977193
 30
0.0
 10
287.819632
 20
495.728257
 30
0.0
 10
288.052210
 20
495.593483
 30
0.0
  0
SPLINE
  5
1b1
100
AcDbEntity
  8
0
 62
7
100
AcDbSpline
 70
8
 71
3
 72
8
 73
4
 74
0
 40
0
 40
0
 40
0
 40
0
 40
1
 40
1
 40
1
 40
1
 10
288.052210
 20
495.593483
 30
0.0
 10
288.284787
 20
495.458708
 30
0.0
 10
288.571706
 20
495.458708
 30
0.0
 10
288.804283
 20
495.593483
 30
0.0
  0
SPLINE
  5
1b2
100
AcDbEntity
  8
0
 62
7
100
AcDbSpline
 70
8
 71
3
 72
8
 73
4
 74
0
 40
0
 40
0
 40
0
 40
0
 40
1
 40
1
 40
1
 40
1
 10
288.804283
 20
495.593483
 30
0.0
 10
289.036861
 20
495.728257
 30
0.0
 10
289.179526
 20
495.977193
 30
0.0
 10
289.178238
 20
496.245995
 30
0.0
  0
LWPOLYLINE
  5
1b3
100
AcDbEntity
  8
0
 62
7
100
AcDbPolyline
 90
2
 70
1
 10
264.271681
 20
526.732091
 30
0.0
 10
264.271681
 20
526.732091
 30
0.0
  0
SPLINE
  5
1b4
100
AcDbEntity
  8
0
 62
7
100
AcDbSpline
 70
8
 71
3
 72
8
 73
4
 74
0
 40
0
 40
0
 40
0
 40
0
 40
1
 40
1
 40
1
 40
1
 10
274.357767
 20
473.985393
 30
0.0
 10
274.358478
 20
474.343131
 30
0.0
 10
274.168035
 20
474.674000
 30
0.0
 10
273.858343
 20
474.853075
 30
0.0
  0
SPLINE
  5
1b5
100
AcDbEntity
  8
0
 62
7
100
AcDbSpline
 70
8
 71
3
 72
8
 73
4
 74
0
 40
0
 40
0
 40
0
 40
0
 40
1
 40
1
 40
1
 40
1
 10
273.858343
 20
474.853075
 30
0.0
 10
273.548650
 20
475.032149
 30
0.0
 10
273.166888
 20
475.032149
 30
0.0
 10
272.857195
 20
474.853075
 30
0.0
  0
SPLINE
  5
1b6
100
AcDbEntity
  8
0
 62
7
100
AcDbSpline
 70
8
 71
3
 72
8
 73
4
 74
0
 40
0
 40
0
 40
0
 40
0
 40
1
 40
1
 40
1
 40
1
 10
272.857195
 20
474.853075
 30
0.0
 10
272.547503
 20
474.674000
 30
0.0
 10
272.357060
 20
474.343131
 30
0.0
 10
272.357771
 20
473.985393
 30
0.0
  0
SPLINE
  5
1b7
100
AcDbEntity
  8
0
 62
7
100
AcDbSpline
 70
8
 71
3
 72
8
 73
4
 74
0
 40
0
 40
0
 40
0
 40
0
 40
1
 40
1
 40
1
 40
1
 10
272.357771
 20
473.985393
 30
0.0
 10
272.357060
 20
473.627655
 30
0.0
 10
272.547503
 20
473.296786
 30
0.0
 10
272.857195
 20
473.117711
 30
0.0
  0
SPLINE
  5
1b8
100
AcDbEntity
  8
0
 62
7
100
AcDbSpline
 70
8
 71
3
 72
8
 73
4
 74
0
 40
0
 40
0
 40
0
 40
0
 40
1
 40
1
 40
1
 40
1
 10
272.857195
 20
473.117711
 30
0.0
 10
273.166888
 20
472.938637
 30
0.0
 10
273.548650
 20
472.938637
 30
0.0
 10
273.858343
 20
473.117711
 30
0.0
  0
SPLINE
  5
1b9
100
AcDbEntity
  8
0
 62
7
100
AcDbSpline
 70
8
 71
3
 72
8
 73
4
 74
0
 40
0
 40
0
 40
0
 40
0
 40
1
 40
1
 40
1
 40
1
 10
273.858343
 20
473.117711
 30
0.0
 10
274.168035
 20
473.296786
 30
0.0
 10
274.358478
 20
473.627655
 30
0.0
 10
274.357767
 20
473.985393
 30
0.0
  0
LWPOLYLINE
  5
1ba
100
AcDbEntity
  8
0
 62
7
100
AcDbPolyline
 90
2
 70
1
 10
289.178238
 20
496.245995
 30
0.0
 10
289.178238
 20
496.245995
 30
0.0
  0
SPLINE
  5
1bb
100
AcDbEntity
  8
0
 62
7
100
AcDbSpline
 70
8
 71
3
 72
8
 73
4
 74
0
 40
0
 40
0
 40
0
 40
0
 40
1
 40
1
 40
1
 40
1
 10
301.067385
 20
479.104755
 30
0.0
 10
301.069140
 20
479.552500
 30
0.0
 10
300.831277
 20
479.966986
 30
0.0
 10
300.443808
 20
480.191367
 30
0.0
  0
SPLINE
  5
1bc
100
AcDbEntity
  8
0
 62
7
100
AcDbSpline
 70
8
 71
3
 72
8
 73
4
 74
0
 40
0
 40
0
 40
0
 40
0
 40
1
 40
1
 40
1
 40
1
 10
300.443808
 20
480.191367
 30
0.0
 10
300.056339
 20
480.415748
 30
0.0
 10
299.578451
 20
480.415748
 30
0.0
 10
299.190982
 20
480.191367
 30
0.0
  0
SPLINE
  5
1bd
100
AcDbEntity
  8
0
 62
7
100
AcDbSpline
 70
8
 71
3
 72
8
 73
4
 74
0
 40
0
 40
0
 40
0
 40
0
 40
1
 40
1
 40
1
 40
1
 10
299.190982
 20
480.191367
 30
0.0
 10
298.803512
 20
479.966986
 30
0.0
 10
298.565650
 20
479.552500
 30
0.0
 10
298.567404
 20
479.104755
 30
0.0
  0
SPLINE
  5
1be
100
AcDbEntity
  8
0
 62
7
100
AcDbSpline
 70
8
 71
3
 72
8
 73
4
 74
0
 40
0
 40
0
 40
0
 40
0
 40
1
 40
1
 40
1
 40
1
 10
298.567404
 20
479.104755
 30
0.0
 10
298.565650
 20
478.657009
 30
0.0
 10
298.803512
 20
478.242523
 30
0.0
 10
299.190982
 20
478.018142
 30
0.0
  0
SPLINE
  5
1bf
100
AcDbEntity
  8
0
 62
7
100
AcDbSpline
 70
8
 71
3
 72
8
 73
4
 74
0
 40
0
 40
0
 40
0
 40
0
 40
1
 40
1
 40
1
 40
1
 10
299.190982
 20
478.018142
 30
0.0
 10
299.578451
 20
477.793761
 30
0.0
 10
300.056339
 20
477.793761
 30
0.0
 10
300.443808
 20
478.018142
 30
0.0
  0
SPLINE
  5
1c0
100
AcDbEntity
  8
0
 62
7
100
AcDbSpline
 70
8
 71
3
 72
8
 73
4
 74
0
 40
0
 40
0
 40
0
 40
0
 40
1
 40
1
 40
1
 40
1
 10
300.443808
 20
478.018142
 30
0.0
 10
300.831277
 20
478.242523
 30
0.0
 10
301.069140
 20
478.657009
 30
0.0
 10
301.067385
 20
479.104755
 30
0.0
  0
LWPOLYLINE
  5
1c1
100
AcDbEntity
  8
0
 62
7
100
AcDbPolyline
 90
2
 70
1
 10
274.357767
 20
473.985393
 30
0.0
 10
274.357767
 20
473.985393
 30
0.0
  0
SPLINE
  5
1c2
100
AcDbEntity
  8
0
 62
7
100
AcDbSpline
 70
8
 71
3
 72
8
 73
4
 74
0
 40
0
 40
0
 40
0
 40
0
 40
1
 40
1
 40
1
 40
1
 10
235.493537
 20
478.299462
 30
0.0
 10
235.493537
 20
478.746045
 30
0.0
 10
235.255288
 20
479.158706
 30
0.0
 10
234.868535
 20
479.381997
 30
0.0
  0
SPLINE
  5
1c3
100
AcDbEntity
  8
0
 62
7
100
AcDbSpline
 70
8
 71
3
 72
8
 73
4
 74
0
 40
0
 40
0
 40
0
 40
0
 40
1
 40
1
 40
1
 40
1
 10
234.868535
 20
479.381997
 30
0.0
 10
234.481782
 20
479.605289
 30
0.0
 10
234.005283
 20
479.605289
 30
0.0
 10
233.618531
 20
479.381997
 30
0.0
  0
SPLINE
  5
1c4
100
AcDbEntity
  8
0
 62
7
100
AcDbSpline
 70
8
 71
3
 72
8
 73
4
 74
0
 40
0
 40
0
 40
0
 40
0
 40
1
 40
1
 40
1
 40
1
 10
233.618531
 20
479.381997
 30
0.0
 10
233.231778
 20
479.158706
 30
0.0
 10
232.993528
 20
478.746045
 30
0.0
 10
232.993528
 20
478.299462
 30
0.0
  0
SPLINE
  5
1c5
100
AcDbEntity
  8
0
 62
7
100
AcDbSpline
 70
8
 71
3
 72
8
 73
4
 74
0
 40
0
 40
0
 40
0
 40
0
 40
1
 40
1
 40
1
 40
1
 10
232.993528
 20
478.299462
 30
0.0
 10
232.993528
 20
477.852878
 30
0.0
 10
233.231778
 20
477.440218
 30
0.0
 10
233.618531
 20
477.216926
 30
0.0
  0
SPLINE
  5
1c6
100
AcDbEntity
  8
0
 62
7
100
AcDbSpline
 70
8
 71
3
 72
8
 73
4
 74
0
 40
0
 40
0
 40
0
 40
0
 40
1
 40
1
 40
1
 40
1
 10
233.618531
 20
477.216926
 30
0.0
 10
234.005283
 20
476.993634
 30
0.0
 10
234.481782
 20
476.993634
 30
0.0
 10
234.868535
 20
477.216926
 30
0.0
  0
SPLINE
  5
1c7
100
AcDbEntity
  8
0
 62
7
100
AcDbSpline
 70
8
 71
3
 72
8
 73
4
 74
0
 40
0
 40
0
 40
0
 40
0
 40
1
 40
1
 40
1
 40
1
 10
234.868535
 20
477.216926
 30
0.0
 10
235.255288
 20
477.440218
 30
0.0
 10
235.493537
 20
477.852878
 30
0.0
 10
235.493537
 20
478.299462
 30
0.0
  0
LWPOLYLINE
  5
1c8
100
AcDbEntity
  8
0
 62
7
100
AcDbPolyline
 90
2
 70
1
 10
301.067385
 20
479.104755
 30
0.0
 10
301.067385
 20
479.104755
 30
0.0
  0
SPLINE
  5
1c9
100
AcDbEntity
  8
0
 62
7
100
AcDbSpline
 70
8
 71
3
 72
8
 73
4
 74
0
 40
0
 40
0
 40
0
 40
0
 40
1
 40
1
 40
1
 40
1
 10
250.121539
 20
493.830114
 30
0.0
 10
250.122826
 20
494.098916
 30
0.0
 10
249.980161
 20
494.347852
 30
0.0
 10
249.747584
 20
494.482627
 30
0.0
  0
SPLINE
  5
1ca
100
AcDbEntity
  8
0
 62
7
100
AcDbSpline
 70
8
 71
3
 72
8
 73
4
 74
0
 40
0
 40
0
 40
0
 40
0
 40
1
 40
1
 40
1
 40
1
 10
249.747584
 20
494.482627
 30
0.0
 10
249.515007
 20
494.617401
 30
0.0
 10
249.228087
 20
494.617401
 30
0.0
 10
248.995510
 20
494.482627
 30
0.0
  0
SPLINE
  5
1cb
100
AcDbEntity
  8
0
 62
7
100
AcDbSpline
 70
8
 71
3
 72
8
 73
4
 74
0
 40
0
 40
0
 40
0
 40
0
 40
1
 40
1
 40
1
 40
1
 10
248.995510
 20
494.482627
 30
0.0
 10
248.762933
 20
494.347852
 30
0.0
 10
248.620268
 20
494.098916
 30
0.0
 10
248.621556
 20
493.830114
 30
0.0
  0
SPLINE
  5
1cc
100
AcDbEntity
  8
0
 62
7
100
AcDbSpline
 70
8
 71
3
 72
8
 73
4
 74
0
 40
0
 40
0
 40
0
 40
0
 40
1
 40
1
 40
1
 40
1
 10
248.621556
 20
493.830114
 30
0.0
 10
248.620268
 20
493.561312
 30
0.0
 10
248.762933
 20
493.312375
 30
0.0
 10
248.995510
 20
493.177601
 30
0.0
  0
SPLINE
  5
1cd
100
AcDbEntity
  8
0
 62
7
100
AcDbSpline
 70
8
 71
3
 72
8
 73
4
 74
0
 40
0
 40
0
 40
0
 40
0
 40
1
 40
1
 40
1
 40
1
 10
248.995510
 20
493.177601
 30
0.0
 10
249.228087
 20
493.042827
 30
0.0
 10
249.515007
 20
493.042827
 30
0.0
 10
249.747584
 20
493.177601
 30
0.0
  0
SPLINE
  5
1ce
100
AcDbEntity
  8
0
 62
7
100
AcDbSpline
 70
8
 71
3
 72
8
 73
4
 74
0
 40
0
 40
0
 40
0
 40
0
 40
1
 40
1
 40
1
 40
1
 10
249.747584
 20
493.177601
 30
0.0
 10
249.980161
 20
493.312375
 30
0.0
 10
250.122826
 20
493.561312
 30
0.0
 10
250.121539
 20
493.830114
 30
0.0
  0
LWPOLYLINE
  5
1cf
100
AcDbEntity
  8
0
 62
7
100
AcDbPolyline
 90
2
 70
1
 10
235.493537
 20
478.299462
 30
0.0
 10
235.493537
 20
478.299462
 30
0.0
  0
SPLINE
  5
1d0
100
AcDbEntity
  8
0
 62
7
100
AcDbSpline
 70
8
 71
3
 72
8
 73
4
 74
0
 40
0
 40
0
 40
0
 40
0
 40
1
 40
1
 40
1
 40
1
 10
304.231040
 20
541.112324
 30
0.0
 10
304.232794
 20
541.560069
 30
0.0
 10
303.994932
 20
541.974556
 30
0.0
 10
303.607463
 20
542.198936
 30
0.0
  0
SPLINE
  5
1d1
100
AcDbEntity
  8
0
 62
7
100
AcDbSpline
 70
8
 71
3
 72
8
 73
4
 74
0
 40
0
 40
0
 40
0
 40
0
 40
1
 40
1
 40
1
 40
1
 10
303.607463
 20
542.198936
 30
0.0
 10
303.219994
 20
542.423317
 30
0.0
 10
302.742105
 20
542.423317
 30
0.0
 10
302.354636
 20
542.198936
 30
0.0
  0
SPLINE
  5
1d2
100
AcDbEntity
  8
0
 62
7
100
AcDbSpline
 70
8
 71
3
 72
8
 73
4
 74
0
 40
0
 40
0
 40
0
 40
0
 40
1
 40
1
 40
1
 40
1
 10
302.354636
 20
542.198936
 30
0.0
 10
301.967167
 20
541.974556
 30
0.0
 10
301.729305
 20
541.560069
 30
0.0
 10
301.731059
 20
541.112324
 30
0.0
  0
SPLINE
  5
1d3
100
AcDbEntity
  8
0
 62
7
100
AcDbSpline
 70
8
 71
3
 72
8
 73
4
 74
0
 40
0
 40
0
 40
0
 40
0
 40
1
 40
1
 40
1
 40
1
 10
301.731059
 20
541.112324
 30
0.0
 10
301.729305
 20
540.664579
 30
0.0
 10
301.967167
 20
540.250092
 30
0.0
 10
302.354636
 20
540.025712
 30
0.0
  0
SPLINE
  5
1d4
100
AcDbEntity
  8
0
 62
7
100
AcDbSpline
 70
8
 71
3
 72
8
 73
4
 74
0
 40
0
 40
0
 40
0
 40
0
 40
1
 40
1
 40
1
 40
1
 10
302.354636
 20
540.025712
 30
0.0
 10
302.742105
 20
539.801331
 30
0.0
 10
303.219994
 20
539.801331
 30
0.0
 10
303.607463
 20
540.025712
 30
0.0
  0
SPLINE
  5
1d5
100
AcDbEntity
  8
0
 62
7
100
AcDbSpline
 70
8
 71
3
 72
8
 73
4
 74
0
 40
0
 40
0
 40
0
 40
0
 40
1
 40
1
 40
1
 40
1
 10
303.607463
 20
540.025712
 30
0.0
 10
303.994932
 20
540.250092
 30
0.0
 10
304.232794
 20
540.664579
 30
0.0
 10
304.231040
 20
541.112324
 30
0.0
  0
LWPOLYLINE
  5
1d6
100
AcDbEntity
  8
0
 62
7
100
AcDbPolyline
 90
2
 70
1
 10
250.121539
 20
493.830114
 30
0.0
 10
250.121539
 20
493.830114
 30
0.0
  0
SPLINE
  5
1d7
100
AcDbEntity
  8
0
 62
7
100
AcDbSpline
 70
8
 71
3
 72
8
 73
4
 74
0
 40
0
 40
0
 40
0
 40
0
 40
1
 40
1
 40
1
 40
1
 10
238.657192
 20
527.550347
 30
0.0
 10
238.657192
 20
527.996930
 30
0.0
 10
238.418943
 20
528.409591
 30
0.0
 10
238.032190
 20
528.632882
 30
0.0
  0
SPLINE
  5
1d8
100
AcDbEntity
  8
0
 62
7
100
AcDbSpline
 70
8
 71
3
 72
8
 73
4
 74
0
 40
0
 40
0
 40
0
 40
0
 40
1
 40
1
 40
1
 40
1
 10
238.032190
 20
528.632882
 30
0.0
 10
237.645437
 20
528.856174
 30
0.0
 10
237.168938
 20
528.856174
 30
0.0
 10
236.782185
 20
528.632882
 30
0.0
  0
SPLINE
  5
1d9
100
AcDbEntity
  8
0
 62
7
100
AcDbSpline
 70
8
 71
3
 72
8
 73
4
 74
0
 40
0
 40
0
 40
0
 40
0
 40
1
 40
1
 40
1
 40
1
 10
236.782185
 20
528.632882
 30
0.0
 10
236.395433
 20
528.409591
 30
0.0
 10
236.157183
 20
527.996930
 30
0.0
 10
236.157183
 20
527.550347
 30
0.0
  0
SPLINE
  5
1da
100
AcDbEntity
  8
0
 62
7
100
AcDbSpline
 70
8
 71
3
 72
8
 73
4
 74
0
 40
0
 40
0
 40
0
 40
0
 40
1
 40
1
 40
1
 40
1
 10
236.157183
 20
527.550347
 30
0.0
 10
236.157183
 20
527.103763
 30
0.0
 10
236.395433
 20
526.691103
 30
0.0
 10
236.782185
 20
526.467811
 30
0.0
  0
SPLINE
  5
1db
100
AcDbEntity
  8
0
 62
7
100
AcDbSpline
 70
8
 71
3
 72
8
 73
4
 74
0
 40
0
 40
0
 40
0
 40
0
 40
1
 40
1
 40
1
 40
1
 10
236.782185
 20
526.467811
 30
0.0
 10
237.168938
 20
526.244519
 30
0.0
 10
237.645437
 20
526.244519
 30
0.0
 10
238.032190
 20
526.467811
 30
0.0
  0
SPLINE
  5
1dc
100
AcDbEntity
  8
0
 62
7
100
AcDbSpline
 70
8
 71
3
 72
8
 73
4
 74
0
 40
0
 40
0
 40
0
 40
0
 40
1
 40
1
 40
1
 40
1
 10
238.032190
 20
526.467811
 30
0.0
 10
238.418943
 20
526.691103
 30
0.0
 10
238.657192
 20
527.103763
 30
0.0
 10
238.657192
 20
527.550347
 30
0.0
  0
LWPOLYLINE
  5
1dd
100
AcDbEntity
  8
0
 62
7
100
AcDbPolyline
 90
2
 70
1
 10
304.231040
 20
541.112324
 30
0.0
 10
304.231040
 20
541.112324
 30
0.0
  0
SPLINE
  5
1de
100
AcDbEntity
  8
0
 62
7
100
AcDbSpline
 70
8
 71
3
 72
8
 73
4
 74
0
 40
0
 40
0
 40
0
 40
0
 40
1
 40
1
 40
1
 40
1
 10
261.223088
 20
488.365626
 30
0.0
 10
261.223088
 20
488.633577
 30
0.0
 10
261.080138
 20
488.881174
 30
0.0
 10
260.848086
 20
489.015149
 30
0.0
  0
SPLINE
  5
1df
100
AcDbEntity
  8
0
 62
7
100
AcDbSpline
 70
8
 71
3
 72
8
 73
4
 74
0
 40
0
 40
0
 40
0
 40
0
 40
1
 40
1
 40
1
 40
1
 10
260.848086
 20
489.015149
 30
0.0
 10
260.616033
 20
489.149125
 30
0.0
 10
260.330133
 20
489.149125
 30
0.0
 10
260.098080
 20
489.015149
 30
0.0
  0
SPLINE
  5
1e0
100
AcDbEntity
  8
0
 62
7
100
AcDbSpline
 70
8
 71
3
 72
8
 73
4
 74
0
 40
0
 40
0
 40
0
 40
0
 40
1
 40
1
 40
1
 40
1
 10
260.098080
 20
489.015149
 30
0.0
 10
259.866027
 20
488.881174
 30
0.0
 10
259.723077
 20
488.633577
 30
0.0
 10
259.723077
 20
488.365626
 30
0.0
  0
SPLINE
  5
1e1
100
AcDbEntity
  8
0
 62
7
100
AcDbSpline
 70
8
 71
3
 72
8
 73
4
 74
0
 40
0
 40
0
 40
0
 40
0
 40
1
 40
1
 40
1
 40
1
 10
259.723077
 20
488.365626
 30
0.0
 10
259.723077
 20
488.097674
 30
0.0
 10
259.866027
 20
487.850077
 30
0.0
 10
260.098080
 20
487.716102
 30
0.0
  0
SPLINE
  5
1e2
100
AcDbEntity
  8
0
 62
7
100
AcDbSpline
 70
8
 71
3
 72
8
 73
4
 74
0
 40
0
 40
0
 40
0
 40
0
 40
1
 40
1
 40
1
 40
1
 10
260.098080
 20
487.716102
 30
0.0
 10
260.330133
 20
487.582126
 30
0.0
 10
260.616033
 20
487.582126
 30
0.0
 10
260.848086
 20
487.716102
 30
0.0
  0
SPLINE
  5
1e3
100
AcDbEntity
  8
0
 62
7
100
AcDbSpline
 70
8
 71
3
 72
8
 73
4
 74
0
 40
0
 40
0
 40
0
 40
0
 40
1
 40
1
 40
1
 40
1
 10
260.848086
 20
487.716102
 30
0.0
 10
261.080138
 20
487.850077
 30
0.0
 10
261.223088
 20
488.097674
 30
0.0
 10
261.223088
 20
488.365626
 30
0.0
  0
LWPOLYLINE
  5
1e4
100
AcDbEntity
  8
0
 62
7
100
AcDbPolyline
 90
2
 70
1
 10
238.657192
 20
527.550347
 30
0.0
 10
238.657192
 20
527.550347
 30
0.0
  0
SPLINE
  5
1e5
100
AcDbEntity
  8
0
 62
7
100
AcDbSpline
 70
8
 71
3
 72
8
 73
4
 74
0
 40
0
 40
0
 40
0
 40
0
 40
1
 40
1
 40
1
 40
1
 10
246.657176
 20
542.550348
 30
0.0
 10
246.658930
 20
542.998093
 30
0.0
 10
246.421068
 20
543.412579
 30
0.0
 10
246.033599
 20
543.636960
 30
0.0
  0
SPLINE
  5
1e6
100
AcDbEntity
  8
0
 62
7
100
AcDbSpline
 70
8
 71
3
 72
8
 73
4
 74
0
 40
0
 40
0
 40
0
 40
0
 40
1
 40
1
 40
1
 40
1
 10
246.033599
 20
543.636960
 30
0.0
 10
245.646130
 20
543.861341
 30
0.0
 10
245.168241
 20
543.861341
 30
0.0
 10
244.780772
 20
543.636960
 30
0.0
  0
SPLINE
  5
1e7
100
AcDbEntity
  8
0
 62
7
100
AcDbSpline
 70
8
 71
3
 72
8
 73
4
 74
0
 40
0
 40
0
 40
0
 40
0
 40
1
 40
1
 40
1
 40
1
 10
244.780772
 20
543.636960
 30
0.0
 10
244.393303
 20
543.412579
 30
0.0
 10
244.155441
 20
542.998093
 30
0.0
 10
244.157195
 20
542.550348
 30
0.0
  0
SPLINE
  5
1e8
100
AcDbEntity
  8
0
 62
7
100
AcDbSpline
 70
8
 71
3
 72
8
 73
4
 74
0
 40
0
 40
0
 40
0
 40
0
 40
1
 40
1
 40
1
 40
1
 10
244.157195
 20
542.550348
 30
0.0
 10
244.155441
 20
542.102602
 30
0.0
 10
244.393303
 20
541.688116
 30
0.0
 10
244.780772
 20
541.463735
 30
0.0
  0
SPLINE
  5
1e9
100
AcDbEntity
  8
0
 62
7
100
AcDbSpline
 70
8
 71
3
 72
8
 73
4
 74
0
 40
0
 40
0
 40
0
 40
0
 40
1
 40
1
 40
1
 40
1
 10
244.780772
 20
541.463735
 30
0.0
 10
245.168241
 20
541.239355
 30
0.0
 10
245.646130
 20
541.239355
 30
0.0
 10
246.033599
 20
541.463735
 30
0.0
  0
SPLINE
  5
1ea
100
AcDbEntity
  8
0
 62
7
100
AcDbSpline
 70
8
 71
3
 72
8
 73
4
 74
0
 40
0
 40
0
 40
0
 40
0
 40
1
 40
1
 40
1
 40
1
 10
246.033599
 20
541.463735
 30
0.0
 10
246.421068
 20
541.688116
 30
0.0
 10
246.658930
 20
542.102602
 30
0.0
 10
246.657176
 20
542.550348
 30
0.0
  0
LWPOLYLINE
  5
1eb
100
AcDbEntity
  8
0
 62
7
100
AcDbPolyline
 90
2
 70
1
 10
261.223088
 20
488.365626
 30
0.0
 10
261.223088
 20
488.365626
 30
0.0
  0
SPLINE
  5
1ec
100
AcDbEntity
  8
0
 62
7
100
AcDbSpline
 70
8
 71
3
 72
8
 73
4
 74
0
 40
0
 40
0
 40
0
 40
0
 40
1
 40
1
 40
1
 40
1
 10
272.767106
 20
529.205490
 30
0.0
 10
272.767106
 20
529.652073
 30
0.0
 10
272.528857
 20
530.064734
 30
0.0
 10
272.142104
 20
530.288026
 30
0.0
  0
SPLINE
  5
1ed
100
AcDbEntity
  8
0
 62
7
100
AcDbSpline
 70
8
 71
3
 72
8
 73
4
 74
0
 40
0
 40
0
 40
0
 40
0
 40
1
 40
1
 40
1
 40
1
 10
272.142104
 20
530.288026
 30
0.0
 10
271.755351
 20
530.511317
 30
0.0
 10
271.278852
 20
530.511317
 30
0.0
 10
270.892099
 20
530.288026
 30
0.0
  0
SPLINE
  5
1ee
100
AcDbEntity
  8
0
 62
7
100
AcDbSpline
 70
8
 71
3
 72
8
 73
4
 74
0
 40
0
 40
0
 40
0
 40
0
 40
1
 40
1
 40
1
 40
1
 10
270.892099
 20
530.288026
 30
0.0
 10
270.505346
 20
530.064734
 30
0.0
 10
270.267097
 20
529.652073
 30
0.0
 10
270.267097
 20
529.205490
 30
0.0
  0
SPLINE
  5
1ef
100
AcDbEntity
  8
0
 62
7
100
AcDbSpline
 70
8
 71
3
 72
8
 73
4
 74
0
 40
0
 40
0
 40
0
 40
0
 40
1
 40
1
 40
1
 40
1
 10
270.267097
 20
529.205490
 30
0.0
 10
270.267097
 20
528.758906
 30
0.0
 10
270.505347
 20
528.346246
 30
0.0
 10
270.892099
 20
528.122954
 30
0.0
  0
SPLINE
  5
1f0
100
AcDbEntity
  8
0
 62
7
100
AcDbSpline
 70
8
 71
3
 72
8
 73
4
 74
0
 40
0
 40
0
 40
0
 40
0
 40
1
 40
1
 40
1
 40
1
 10
270.892099
 20
528.122954
 30
0.0
 10
271.278852
 20
527.899662
 30
0.0
 10
271.755351
 20
527.899662
 30
0.0
 10
272.142104
 20
528.122954
 30
0.0
  0
SPLINE
  5
1f1
100
AcDbEntity
  8
0
 62
7
100
AcDbSpline
 70
8
 71
3
 72
8
 73
4
 74
0
 40
0
 40
0
 40
0
 40
0
 40
1
 40
1
 40
1
 40
1
 10
272.142104
 20
528.122954
 30
0.0
 10
272.528857
 20
528.346246
 30
0.0
 10
272.767106
 20
528.758906
 30
0.0
 10
272.767106
 20
529.205490
 30
0.0
  0
LWPOLYLINE
  5
1f2
100
AcDbEntity
  8
0
 62
7
100
AcDbPolyline
 90
2
 70
1
 10
246.657176
 20
542.550348
 30
0.0
 10
246.657176
 20
542.550348
 30
0.0
  0
SPLINE
  5
1f3
100
AcDbEntity
  8
0
 62
7
100
AcDbSpline
 70
8
 71
3
 72
8
 73
4
 74
0
 40
0
 40
0
 40
0
 40
0
 40
1
 40
1
 40
1
 40
1
 10
264.541598
 20
541.399928
 30
0.0
 10
264.543353
 20
541.847673
 30
0.0
 10
264.305490
 20
542.262160
 30
0.0
 10
263.918021
 20
542.486541
 30
0.0
  0
SPLINE
  5
1f4
100
AcDbEntity
  8
0
 62
7
100
AcDbSpline
 70
8
 71
3
 72
8
 73
4
 74
0
 40
0
 40
0
 40
0
 40
0
 40
1
 40
1
 40
1
 40
1
 10
263.918021
 20
542.486541
 30
0.0
 10
263.530552
 20
542.710921
 30
0.0
 10
263.052664
 20
542.710921
 30
0.0
 10
262.665194
 20
542.486541
 30
0.0
  0
SPLINE
  5
1f5
100
AcDbEntity
  8
0
 62
7
100
AcDbSpline
 70
8
 71
3
 72
8
 73
4
 74
0
 40
0
 40
0
 40
0
 40
0
 40
1
 40
1
 40
1
 40
1
 10
262.665194
 20
542.486541
 30
0.0
 10
262.277725
 20
542.262160
 30
0.0
 10
262.039863
 20
541.847673
 30
0.0
 10
262.041617
 20
541.399928
 30
0.0
  0
SPLINE
  5
1f6
100
AcDbEntity
  8
0
 62
7
100
AcDbSpline
 70
8
 71
3
 72
8
 73
4
 74
0
 40
0
 40
0
 40
0
 40
0
 40
1
 40
1
 40
1
 40
1
 10
262.041617
 20
541.399928
 30
0.0
 10
262.039863
 20
540.952183
 30
0.0
 10
262.277725
 20
540.537696
 30
0.0
 10
262.665194
 20
540.313316
 30
0.0
  0
SPLINE
  5
1f7
100
AcDbEntity
  8
0
 62
7
100
AcDbSpline
 70
8
 71
3
 72
8
 73
4
 74
0
 40
0
 40
0
 40
0
 40
0
 40
1
 40
1
 40
1
 40
1
 10
262.665194
 20
540.313316
 30
0.0
 10
263.052664
 20
540.088935
 30
0.0
 10
263.530552
 20
540.088935
 30
0.0
 10
263.918021
 20
540.313316
 30
0.0
  0
SPLINE
  5
1f8
100
AcDbEntity
  8
0
 62
7
100
AcDbSpline
 70
8
 71
3
 72
8
 73
4
 74
0
 40
0
 40
0
 40
0
 40
0
 40
1
 40
1
 40
1
 40
1
 10
263.918021
 20
540.313316
 30
0.0
 10
264.305490
 20
540.537696
 30
0.0
 10
264.543353
 20
540.952183
 30
0.0
 10
264.541598
 20
541.399928
 30
0.0
  0
LWPOLYLINE
  5
1f9
100
AcDbEntity
  8
0
 62
7
100
AcDbPolyline
 90
2
 70
1
 10
272.767106
 20
529.205490
 30
0.0
 10
272.767106
 20
529.205490
 30
0.0
  0
SPLINE
  5
1fa
100
AcDbEntity
  8
0
 62
7
100
AcDbSpline
 70
8
 71
3
 72
8
 73
4
 74
0
 40
0
 40
0
 40
0
 40
0
 40
1
 40
1
 40
1
 40
1
 10
250.236572
 20
547.209543
 30
0.0
 10
250.237850
 20
547.478338
 30
0.0
 10
250.095182
 20
547.727263
 30
0.0
 10
249.862609
 20
547.862031
 30
0.0
  0
SPLINE
  5
1fb
100
AcDbEntity
  8
0
 62
7
100
AcDbSpline
 70
8
 71
3
 72
8
 73
4
 74
0
 40
0
 40
0
 40
0
 40
0
 40
1
 40
1
 40
1
 40
1
 10
249.862609
 20
547.862031
 30
0.0
 10
249.630036
 20
547.996799
 30
0.0
 10
249.343125
 20
547.996799
 30
0.0
 10
249.110553
 20
547.862031
 30
0.0
  0
SPLINE
  5
1fc
100
AcDbEntity
  8
0
 62
7
100
AcDbSpline
 70
8
 71
3
 72
8
 73
4
 74
0
 40
0
 40
0
 40
0
 40
0
 40
1
 40
1
 40
1
 40
1
 10
249.110553
 20
547.862031
 30
0.0
 10
248.877980
 20
547.727263
 30
0.0
 10
248.735312
 20
547.478338
 30
0.0
 10
248.736589
 20
547.209543
 30
0.0
  0
SPLINE
  5
1fd
100
AcDbEntity
  8
0
 62
7
100
AcDbSpline
 70
8
 71
3
 72
8
 73
4
 74
0
 40
0
 40
0
 40
0
 40
0
 40
1
 40
1
 40
1
 40
1
 10
248.736589
 20
547.209543
 30
0.0
 10
248.735312
 20
546.940748
 30
0.0
 10
248.877980
 20
546.691823
 30
0.0
 10
249.110553
 20
546.557055
 30
0.0
  0
SPLINE
  5
1fe
100
AcDbEntity
  8
0
 62
7
100
AcDbSpline
 70
8
 71
3
 72
8
 73
4
 74
0
 40
0
 40
0
 40
0
 40
0
 40
1
 40
1
 40
1
 40
1
 10
249.110553
 20
546.557055
 30
0.0
 10
249.343125
 20
546.422288
 30
0.0
 10
249.630036
 20
546.422288
 30
0.0
 10
249.862609
 20
546.557055
 30
0.0
  0
SPLINE
  5
1ff
100
AcDbEntity
  8
0
 62
7
100
AcDbSpline
 70
8
 71
3
 72
8
 73
4
 74
0
 40
0
 40
0
 40
0
 40
0
 40
1
 40
1
 40
1
 40
1
 10
249.862609
 20
546.557055
 30
0.0
 10
250.095182
 20
546.691823
 30
0.0
 10
250.237850
 20
546.940748
 30
0.0
 10
250.236572
 20
547.209543
 30
0.0
  0
LWPOLYLINE
  5
200
100
AcDbEntity
  8
0
 62
7
100
AcDbPolyline
 90
2
 70
1
 10
264.541598
 20
541.399928
 30
0.0
 10
264.541598
 20
541.399928
 30
0.0
  0
SPLINE
  5
201
100
AcDbEntity
  8
0
 62
7
100
AcDbSpline
 70
8
 71
3
 72
8
 73
4
 74
0
 40
0
 40
0
 40
0
 40
0
 40
1
 40
1
 40
1
 40
1
 10
305.936763
 20
492.334570
 30
0.0
 10
305.937474
 20
492.692309
 30
0.0
 10
305.747031
 20
493.023177
 30
0.0
 10
305.437339
 20
493.202252
 30
0.0
  0
SPLINE
  5
202
100
AcDbEntity
  8
0
 62
7
100
AcDbSpline
 70
8
 71
3
 72
8
 73
4
 74
0
 40
0
 40
0
 40
0
 40
0
 40
1
 40
1
 40
1
 40
1
 10
305.437339
 20
493.202252
 30
0.0
 10
305.127646
 20
493.381327
 30
0.0
 10
304.745884
 20
493.381327
 30
0.0
 10
304.436191
 20
493.202252
 30
0.0
  0
SPLINE
  5
203
100
AcDbEntity
  8
0
 62
7
100
AcDbSpline
 70
8
 71
3
 72
8
 73
4
 74
0
 40
0
 40
0
 40
0
 40
0
 40
1
 40
1
 40
1
 40
1
 10
304.436191
 20
493.202252
 30
0.0
 10
304.126499
 20
493.023177
 30
0.0
 10
303.936056
 20
492.692309
 30
0.0
 10
303.936767
 20
492.334570
 30
0.0
  0
SPLINE
  5
204
100
AcDbEntity
  8
0
 62
7
100
AcDbSpline
 70
8
 71
3
 72
8
 73
4
 74
0
 40
0
 40
0
 40
0
 40
0
 40
1
 40
1
 40
1
 40
1
 10
303.936767
 20
492.334570
 30
0.0
 10
303.936056
 20
491.976832
 30
0.0
 10
304.126499
 20
491.645963
 30
0.0
 10
304.436191
 20
491.466889
 30
0.0
  0
SPLINE
  5
205
100
AcDbEntity
  8
0
 62
7
100
AcDbSpline
 70
8
 71
3
 72
8
 73
4
 74
0
 40
0
 40
0
 40
0
 40
0
 40
1
 40
1
 40
1
 40
1
 10
304.436191
 20
491.466889
 30
0.0
 10
304.745884
 20
491.287814
 30
0.0
 10
305.127646
 20
491.287814
 30
0.0
 10
305.437339
 20
491.466889
 30
0.0
  0
SPLINE
  5
206
100
AcDbEntity
  8
0
 62
7
100
AcDbSpline
 70
8
 71
3
 72
8
 73
4
 74
0
 40
0
 40
0
 40
0
 40
0
 40
1
 40
1
 40
1
 40
1
 10
305.437339
 20
491.466889
 30
0.0
 10
305.747031
 20
491.645963
 30
0.0
 10
305.937474
 20
491.976832
 30
0.0
 10
305.936763
 20
492.334570
 30
0.0
  0
LWPOLYLINE
  5
207
100
AcDbEntity
  8
0
 62
7
100
AcDbPolyline
 90
2
 70
1
 10
250.236572
 20
547.209543
 30
0.0
 10
250.236572
 20
547.209543
 30
0.0
  0
SPLINE
  5
208
100
AcDbEntity
  8
0
 62
7
100
AcDbSpline
 70
8
 71
3
 72
8
 73
4
 74
0
 40
0
 40
0
 40
0
 40
0
 40
1
 40
1
 40
1
 40
1
 10
246.805230
 20
532.254099
 30
0.0
 10
246.805941
 20
532.611838
 30
0.0
 10
246.615498
 20
532.942706
 30
0.0
 10
246.305806
 20
533.121781
 30
0.0
  0
SPLINE
  5
209
100
AcDbEntity
  8
0
 62
7
100
AcDbSpline
 70
8
 71
3
 72
8
 73
4
 74
0
 40
0
 40
0
 40
0
 40
0
 40
1
 40
1
 40
1
 40
1
 10
246.305806
 20
533.121781
 30
0.0
 10
245.996113
 20
533.300856
 30
0.0
 10
245.614351
 20
533.300856
 30
0.0
 10
245.304658
 20
533.121781
 30
0.0
  0
SPLINE
  5
20a
100
AcDbEntity
  8
0
 62
7
100
AcDbSpline
 70
8
 71
3
 72
8
 73
4
 74
0
 40
0
 40
0
 40
0
 40
0
 40
1
 40
1
 40
1
 40
1
 10
245.304658
 20
533.121781
 30
0.0
 10
244.994966
 20
532.942706
 30
0.0
 10
244.804523
 20
532.611838
 30
0.0
 10
244.805234
 20
532.254099
 30
0.0
  0
SPLINE
  5
20b
100
AcDbEntity
  8
0
 62
7
100
AcDbSpline
 70
8
 71
3
 72
8
 73
4
 74
0
 40
0
 40
0
 40
0
 40
0
 40
1
 40
1
 40
1
 40
1
 10
244.805234
 20
532.254099
 30
0.0
 10
244.804523
 20
531.896361
 30
0.0
 10
244.994966
 20
531.565492
 30
0.0
 10
245.304658
 20
531.386418
 30
0.0
  0
SPLINE
  5
20c
100
AcDbEntity
  8
0
 62
7
100
AcDbSpline
 70
8
 71
3
 72
8
 73
4
 74
0
 40
0
 40
0
 40
0
 40
0
 40
1
 40
1
 40
1
 40
1
 10
245.304658
 20
531.386418
 30
0.0
 10
245.614351
 20
531.207343
 30
0.0
 10
245.996113
 20
531.207343
 30
0.0
 10
246.305806
 20
531.386418
 30
0.0
  0
SPLINE
  5
20d
100
AcDbEntity
  8
0
 62
7
100
AcDbSpline
 70
8
 71
3
 72
8
 73
4
 74
0
 40
0
 40
0
 40
0
 40
0
 40
1
 40
1
 40
1
 40
1
 10
246.305806
 20
531.386418
 30
0.0
 10
246.615498
 20
531.565492
 30
0.0
 10
246.805941
 20
531.896361
 30
0.0
 10
246.805230
 20
532.254099
 30
0.0
  0
LWPOLYLINE
  5
20e
100
AcDbEntity
  8
0
 62
7
100
AcDbPolyline
 90
2
 70
1
 10
305.936763
 20
492.334570
 30
0.0
 10
305.936763
 20
492.334570
 30
0.0
  0
SPLINE
  5
20f
100
AcDbEntity
  8
0
 62
7
100
AcDbSpline
 70
8
 71
3
 72
8
 73
4
 74
0
 40
0
 40
0
 40
0
 40
0
 40
1
 40
1
 40
1
 40
1
 10
249.221137
 20
474.215475
 30
0.0
 10
249.221137
 20
474.572745
 30
0.0
 10
249.030536
 20
474.902876
 30
0.0
 10
248.721131
 20
475.081511
 30
0.0
  0
SPLINE
  5
210
100
AcDbEntity
  8
0
 62
7
100
AcDbSpline
 70
8
 71
3
 72
8
 73
4
 74
0
 40
0
 40
0
 40
0
 40
0
 40
1
 40
1
 40
1
 40
1
 10
248.721131
 20
475.081511
 30
0.0
 10
248.411726
 20
475.260146
 30
0.0
 10
248.030523
 20
475.260146
 30
0.0
 10
247.721119
 20
475.081511
 30
0.0
  0
SPLINE
  5
211
100
AcDbEntity
  8
0
 62
7
100
AcDbSpline
 70
8
 71
3
 72
8
 73
4
 74
0
 40
0
 40
0
 40
0
 40
0
 40
1
 40
1
 40
1
 40
1
 10
247.721119
 20
475.081511
 30
0.0
 10
247.411714
 20
474.902876
 30
0.0
 10
247.221113
 20
474.572745
 30
0.0
 10
247.221113
 20
474.215475
 30
0.0
  0
SPLINE
  5
212
100
AcDbEntity
  8
0
 62
7
100
AcDbSpline
 70
8
 71
3
 72
8
 73
4
 74
0
 40
0
 40
0
 40
0
 40
0
 40
1
 40
1
 40
1
 40
1
 10
247.221113
 20
474.215475
 30
0.0
 10
247.221113
 20
473.858205
 30
0.0
 10
247.411714
 20
473.528074
 30
0.0
 10
247.721119
 20
473.349439
 30
0.0
  0
SPLINE
  5
213
100
AcDbEntity
  8
0
 62
7
100
AcDbSpline
 70
8
 71
3
 72
8
 73
4
 74
0
 40
0
 40
0
 40
0
 40
0
 40
1
 40
1
 40
1
 40
1
 10
247.721119
 20
473.349439
 30
0.0
 10
248.030523
 20
473.170804
 30
0.0
 10
248.411726
 20
473.170804
 30
0.0
 10
248.721131
 20
473.349439
 30
0.0
  0
SPLINE
  5
214
100
AcDbEntity
  8
0
 62
7
100
AcDbSpline
 70
8
 71
3
 72
8
 73
4
 74
0
 40
0
 40
0
 40
0
 40
0
 40
1
 40
1
 40
1
 40
1
 10
248.721131
 20
473.349439
 30
0.0
 10
249.030536
 20
473.528074
 30
0.0
 10
249.221137
 20
473.858205
 30
0.0
 10
249.221137
 20
474.215475
 30
0.0
  0
LWPOLYLINE
  5
215
100
AcDbEntity
  8
0
 62
7
100
AcDbPolyline
 90
2
 70
1
 10
246.805230
 20
532.254099
 30
0.0
 10
246.805230
 20
532.254099
 30
0.0
  0
SPLINE
  5
216
100
AcDbEntity
  8
0
 62
7
100
AcDbSpline
 70
8
 71
3
 72
8
 73
4
 74
0
 40
0
 40
0
 40
0
 40
0
 40
1
 40
1
 40
1
 40
1
 10
239.710248
 20
488.710752
 30
0.0
 10
239.711536
 20
488.979554
 30
0.0
 10
239.568870
 20
489.228491
 30
0.0
 10
239.336293
 20
489.363265
 30
0.0
  0
SPLINE
  5
217
100
AcDbEntity
  8
0
 62
7
100
AcDbSpline
 70
8
 71
3
 72
8
 73
4
 74
0
 40
0
 40
0
 40
0
 40
0
 40
1
 40
1
 40
1
 40
1
 10
239.336293
 20
489.363265
 30
0.0
 10
239.103716
 20
489.498039
 30
0.0
 10
238.816797
 20
489.498039
 30
0.0
 10
238.584220
 20
489.363265
 30
0.0
  0
SPLINE
  5
218
100
AcDbEntity
  8
0
 62
7
100
AcDbSpline
 70
8
 71
3
 72
8
 73
4
 74
0
 40
0
 40
0
 40
0
 40
0
 40
1
 40
1
 40
1
 40
1
 10
238.584220
 20
489.363265
 30
0.0
 10
238.351642
 20
489.228491
 30
0.0
 10
238.208977
 20
488.979554
 30
0.0
 10
238.210265
 20
488.710752
 30
0.0
  0
SPLINE
  5
219
100
AcDbEntity
  8
0
 62
7
100
AcDbSpline
 70
8
 71
3
 72
8
 73
4
 74
0
 40
0
 40
0
 40
0
 40
0
 40
1
 40
1
 40
1
 40
1
 10
238.210265
 20
488.710752
 30
0.0
 10
238.208977
 20
488.441950
 30
0.0
 10
238.351642
 20
488.193014
 30
0.0
 10
238.584220
 20
488.058240
 30
0.0
  0
SPLINE
  5
21a
100
AcDbEntity
  8
0
 62
7
100
AcDbSpline
 70
8
 71
3
 72
8
 73
4
 74
0
 40
0
 40
0
 40
0
 40
0
 40
1
 40
1
 40
1
 40
1
 10
238.584220
 20
488.058240
 30
0.0
 10
238.816797
 20
487.923465
 30
0.0
 10
239.103716
 20
487.923465
 30
0.0
 10
239.336293
 20
488.058240
 30
0.0
  0
SPLINE
  5
21b
100
AcDbEntity
  8
0
 62
7
100
AcDbSpline
 70
8
 71
3
 72
8
 73
4
 74
0
 40
0
 40
0
 40
0
 40
0
 40
1
 40
1
 40
1
 40
1
 10
239.336293
 20
488.058240
 30
0.0
 10
239.568870
 20
488.193014
 30
0.0
 10
239.711536
 20
488.441950
 30
0.0
 10
239.710248
 20
488.710752
 30
0.0
  0
LWPOLYLINE
  5
21c
100
AcDbEntity
  8
0
 62
7
100
AcDbPolyline
 90
2
 70
1
 10
249.221137
 20
474.215475
 30
0.0
 10
249.221137
 20
474.215475
 30
0.0
  0
SPLINE
  5
21d
100
AcDbEntity
  8
0
 62
7
100
AcDbSpline
 70
8
 71
3
 72
8
 73
4
 74
0
 40
0
 40
0
 40
0
 40
0
 40
1
 40
1
 40
1
 40
1
 10
248.090611
 20
520.347265
 30
0.0
 10
248.092365
 20
520.795010
 30
0.0
 10
247.854503
 20
521.209497
 30
0.0
 10
247.467034
 20
521.433878
 30
0.0
  0
SPLINE
  5
21e
100
AcDbEntity
  8
0
 62
7
100
AcDbSpline
 70
8
 71
3
 72
8
 73
4
 74
0
 40
0
 40
0
 40
0
 40
0
 40
1
 40
1
 40
1
 40
1
 10
247.467034
 20
521.433878
 30
0.0
 10
247.079565
 20
521.658258
 30
0.0
 10
246.601676
 20
521.658258
 30
0.0
 10
246.214207
 20
521.433878
 30
0.0
  0
SPLINE
  5
21f
100
AcDbEntity
  8
0
 62
7
100
AcDbSpline
 70
8
 71
3
 72
8
 73
4
 74
0
 40
0
 40
0
 40
0
 40
0
 40
1
 40
1
 40
1
 40
1
 10
246.214207
 20
521.433878
 30
0.0
 10
245.826738
 20
521.209497
 30
0.0
 10
245.588876
 20
520.795010
 30
0.0
 10
245.590630
 20
520.347265
 30
0.0
  0
SPLINE
  5
220
100
AcDbEntity
  8
0
 62
7
100
AcDbSpline
 70
8
 71
3
 72
8
 73
4
 74
0
 40
0
 40
0
 40
0
 40
0
 40
1
 40
1
 40
1
 40
1
 10
245.590630
 20
520.347265
 30
0.0
 10
245.588876
 20
519.899520
 30
0.0
 10
245.826738
 20
519.485033
 30
0.0
 10
246.214207
 20
519.260653
 30
0.0
  0
SPLINE
  5
221
100
AcDbEntity
  8
0
 62
7
100
AcDbSpline
 70
8
 71
3
 72
8
 73
4
 74
0
 40
0
 40
0
 40
0
 40
0
 40
1
 40
1
 40
1
 40
1
 10
246.214207
 20
519.260653
 30
0.0
 10
246.601676
 20
519.036272
 30
0.0
 10
247.079565
 20
519.036272
 30
0.0
 10
247.467034
 20
519.260653
 30
0.0
  0
SPLINE
  5
222
100
AcDbEntity
  8
0
 62
7
100
AcDbSpline
 70
8
 71
3
 72
8
 73
4
 74
0
 40
0
 40
0
 40
0
 40
0
 40
1
 40
1
 40
1
 40
1
 10
247.467034
 20
519.260653
 30
0.0
 10
247.854503
 20
519.485033
 30
0.0
 10
248.092365
 20
519.899520
 30
0.0
 10
248.090611
 20
520.347265
 30
0.0
  0
LWPOLYLINE
  5
223
100
AcDbEntity
  8
0
 62
7
100
AcDbPolyline
 90
2
 70
1
 10
239.710248
 20
488.710752
 30
0.0
 10
239.710248
 20
488.710752
 30
0.0
  0
SPLINE
  5
224
100
AcDbEntity
  8
0
 62
7
100
AcDbSpline
 70
8
 71
3
 72
8
 73
4
 74
0
 40
0
 40
0
 40
0
 40
0
 40
1
 40
1
 40
1
 40
1
 10
287.040094
 20
539.423698
 30
0.0
 10
287.041849
 20
539.871443
 30
0.0
 10
286.803986
 20
540.285930
 30
0.0
 10
286.416517
 20
540.510310
 30
0.0
  0
SPLINE
  5
225
100
AcDbEntity
  8
0
 62
7
100
AcDbSpline
 70
8
 71
3
 72
8
 73
4
 74
0
 40
0
 40
0
 40
0
 40
0
 40
1
 40
1
 40
1
 40
1
 10
286.416517
 20
540.510310
 30
0.0
 10
286.029048
 20
540.734691
 30
0.0
 10
285.551159
 20
540.734691
 30
0.0
 10
285.163690
 20
540.510310
 30
0.0
  0
SPLINE
  5
226
100
AcDbEntity
  8
0
 62
7
100
AcDbSpline
 70
8
 71
3
 72
8
 73
4
 74
0
 40
0
 40
0
 40
0
 40
0
 40
1
 40
1
 40
1
 40
1
 10
285.163690
 20
540.510310
 30
0.0
 10
284.776221
 20
540.285930
 30
0.0
 10
284.538359
 20
539.871443
 30
0.0
 10
284.540113
 20
539.423698
 30
0.0
  0
SPLINE
  5
227
100
AcDbEntity
  8
0
 62
7
100
AcDbSpline
 70
8
 71
3
 72
8
 73
4
 74
0
 40
0
 40
0
 40
0
 40
0
 40
1
 40
1
 40
1
 40
1
 10
284.540113
 20
539.423698
 30
0.0
 10
284.538359
 20
538.975953
 30
0.0
 10
284.776221
 20
538.561466
 30
0.0
 10
285.163690
 20
538.337086
 30
0.0
  0
SPLINE
  5
228
100
AcDbEntity
  8
0
 62
7
100
AcDbSpline
 70
8
 71
3
 72
8
 73
4
 74
0
 40
0
 40
0
 40
0
 40
0
 40
1
 40
1
 40
1
 40
1
 10
285.163690
 20
538.337086
 30
0.0
 10
285.551159
 20
538.112705
 30
0.0
 10
286.029048
 20
538.112705
 30
0.0
 10
286.416517
 20
538.337086
 30
0.0
  0
SPLINE
  5
229
100
AcDbEntity
  8
0
 62
7
100
AcDbSpline
 70
8
 71
3
 72
8
 73
4
 74
0
 40
0
 40
0
 40
0
 40
0
 40
1
 40
1
 40
1
 40
1
 10
286.416517
 20
538.337086
 30
0.0
 10
286.803986
 20
538.561466
 30
0.0
 10
287.041849
 20
538.975953
 30
0.0
 10
287.040094
 20
539.423698
 30
0.0
  0
LWPOLYLINE
  5
22a
100
AcDbEntity
  8
0
 62
7
100
AcDbPolyline
 90
2
 70
1
 10
248.090611
 20
520.347265
 30
0.0
 10
248.090611
 20
520.347265
 30
0.0
  0
SPLINE
  5
22b
100
AcDbEntity
  8
0
 62
7
100
AcDbSpline
 70
8
 71
3
 72
8
 73
4
 74
0
 40
0
 40
0
 40
0
 40
0
 40
1
 40
1
 40
1
 40
1
 10
261.280605
 20
479.392359
 30
0.0
 10
261.280605
 20
479.660310
 30
0.0
 10
261.137655
 20
479.907907
 30
0.0
 10
260.905602
 20
480.041883
 30
0.0
  0
SPLINE
  5
22c
100
AcDbEntity
  8
0
 62
7
100
AcDbSpline
 70
8
 71
3
 72
8
 73
4
 74
0
 40
0
 40
0
 40
0
 40
0
 40
1
 40
1
 40
1
 40
1
 10
260.905602
 20
480.041883
 30
0.0
 10
260.673550
 20
480.175858
 30
0.0
 10
260.387649
 20
480.175858
 30
0.0
 10
260.155597
 20
480.041883
 30
0.0
  0
SPLINE
  5
22d
100
AcDbEntity
  8
0
 62
7
100
AcDbSpline
 70
8
 71
3
 72
8
 73
4
 74
0
 40
0
 40
0
 40
0
 40
0
 40
1
 40
1
 40
1
 40
1
 10
260.155597
 20
480.041883
 30
0.0
 10
259.923544
 20
479.907907
 30
0.0
 10
259.780594
 20
479.660310
 30
0.0
 10
259.780594
 20
479.392359
 30
0.0
  0
SPLINE
  5
22e
100
AcDbEntity
  8
0
 62
7
100
AcDbSpline
 70
8
 71
3
 72
8
 73
4
 74
0
 40
0
 40
0
 40
0
 40
0
 40
1
 40
1
 40
1
 40
1
 10
259.780594
 20
479.392359
 30
0.0
 10
259.780594
 20
478.978142
 30
0.0
 10
260.116383
 20
478.642353
 30
0.0
 10
260.530600
 20
478.642353
 30
0.0
  0
SPLINE
  5
22f
100
AcDbEntity
  8
0
 62
7
100
AcDbSpline
 70
8
 71
3
 72
8
 73
4
 74
0
 40
0
 40
0
 40
0
 40
0
 40
1
 40
1
 40
1
 40
1
 10
260.530600
 20
478.642353
 30
0.0
 10
260.944816
 20
478.642353
 30
0.0
 10
261.280605
 20
478.978142
 30
0.0
 10
261.280605
 20
479.392359
 30
0.0
  0
LWPOLYLINE
  5
230
100
AcDbEntity
  8
0
 62
7
100
AcDbPolyline
 90
2
 70
1
 10
287.040094
 20
539.423698
 30
0.0
 10
287.040094
 20
539.423698
 30
0.0
  0
SPLINE
  5
231
100
AcDbEntity
  8
0
 62
7
100
AcDbSpline
 70
8
 71
3
 72
8
 73
4
 74
0
 40
0
 40
0
 40
0
 40
0
 40
1
 40
1
 40
1
 40
1
 10
277.271429
 20
484.109077
 30
0.0
 10
277.271429
 20
484.377028
 30
0.0
 10
277.128479
 20
484.624625
 30
0.0
 10
276.896426
 20
484.758601
 30
0.0
  0
SPLINE
  5
232
100
AcDbEntity
  8
0
 62
7
100
AcDbSpline
 70
8
 71
3
 72
8
 73
4
 74
0
 40
0
 40
0
 40
0
 40
0
 40
1
 40
1
 40
1
 40
1
 10
276.896426
 20
484.758601
 30
0.0
 10
276.664374
 20
484.892576
 30
0.0
 10
276.378473
 20
484.892576
 30
0.0
 10
276.146421
 20
484.758601
 30
0.0
  0
SPLINE
  5
233
100
AcDbEntity
  8
0
 62
7
100
AcDbSpline
 70
8
 71
3
 72
8
 73
4
 74
0
 40
0
 40
0
 40
0
 40
0
 40
1
 40
1
 40
1
 40
1
 10
276.146421
 20
484.758601
 30
0.0
 10
275.914368
 20
484.624625
 30
0.0
 10
275.771418
 20
484.377028
 30
0.0
 10
275.771418
 20
484.109077
 30
0.0
  0
SPLINE
  5
234
100
AcDbEntity
  8
0
 62
7
100
AcDbSpline
 70
8
 71
3
 72
8
 73
4
 74
0
 40
0
 40
0
 40
0
 40
0
 40
1
 40
1
 40
1
 40
1
 10
275.771418
 20
484.109077
 30
0.0
 10
275.771418
 20
483.694860
 30
0.0
 10
276.107207
 20
483.359071
 30
0.0
 10
276.521424
 20
483.359071
 30
0.0
  0
SPLINE
  5
235
100
AcDbEntity
  8
0
 62
7
100
AcDbSpline
 70
8
 71
3
 72
8
 73
4
 74
0
 40
0
 40
0
 40
0
 40
0
 40
1
 40
1
 40
1
 40
1
 10
276.521424
 20
483.359071
 30
0.0
 10
276.935640
 20
483.359071
 30
0.0
 10
277.271429
 20
483.694860
 30
0.0
 10
277.271429
 20
484.109077
 30
0.0
  0
LWPOLYLINE
  5
236
100
AcDbEntity
  8
0
 62
7
100
AcDbPolyline
 90
2
 70
1
 10
261.280605
 20
479.392359
 30
0.0
 10
261.280605
 20
479.392359
 30
0.0
  0
SPLINE
  5
237
100
AcDbEntity
  8
0
 62
7
100
AcDbSpline
 70
8
 71
3
 72
8
 73
4
 74
0
 40
0
 40
0
 40
0
 40
0
 40
1
 40
1
 40
1
 40
1
 10
292.744539
 20
511.258959
 30
0.0
 10
292.745827
 20
511.527761
 30
0.0
 10
292.603162
 20
511.776697
 30
0.0
 10
292.370585
 20
511.911472
 30
0.0
  0
SPLINE
  5
238
100
AcDbEntity
  8
0
 62
7
100
AcDbSpline
 70
8
 71
3
 72
8
 73
4
 74
0
 40
0
 40
0
 40
0
 40
0
 40
1
 40
1
 40
1
 40
1
 10
292.370585
 20
511.911472
 30
0.0
 10
292.138007
 20
512.046246
 30
0.0
 10
291.851088
 20
512.046246
 30
0.0
 10
291.618511
 20
511.911472
 30
0.0
  0
SPLINE
  5
239
100
AcDbEntity
  8
0
 62
7
100
AcDbSpline
 70
8
 71
3
 72
8
 73
4
 74
0
 40
0
 40
0
 40
0
 40
0
 40
1
 40
1
 40
1
 40
1
 10
291.618511
 20
511.911472
 30
0.0
 10
291.385934
 20
511.776697
 30
0.0
 10
291.243268
 20
511.527761
 30
0.0
 10
291.244556
 20
511.258959
 30
0.0
  0
SPLINE
  5
23a
100
AcDbEntity
  8
0
 62
7
100
AcDbSpline
 70
8
 71
3
 72
8
 73
4
 74
0
 40
0
 40
0
 40
0
 40
0
 40
1
 40
1
 40
1
 40
1
 10
291.244556
 20
511.258959
 30
0.0
 10
291.243268
 20
510.990157
 30
0.0
 10
291.385934
 20
510.741220
 30
0.0
 10
291.618511
 20
510.606446
 30
0.0
  0
SPLINE
  5
23b
100
AcDbEntity
  8
0
 62
7
100
AcDbSpline
 70
8
 71
3
 72
8
 73
4
 74
0
 40
0
 40
0
 40
0
 40
0
 40
1
 40
1
 40
1
 40
1
 10
291.618511
 20
510.606446
 30
0.0
 10
291.851088
 20
510.471672
 30
0.0
 10
292.138007
 20
510.471672
 30
0.0
 10
292.370585
 20
510.606446
 30
0.0
  0
SPLINE
  5
23c
100
AcDbEntity
  8
0
 62
7
100
AcDbSpline
 70
8
 71
3
 72
8
 73
4
 74
0
 40
0
 40
0
 40
0
 40
0
 40
1
 40
1
 40
1
 40
1
 10
292.370585
 20
510.606446
 30
0.0
 10
292.603162
 20
510.741220
 30
0.0
 10
292.745827
 20
510.990157
 30
0.0
 10
292.744539
 20
511.258959
 30
0.0
  0
LWPOLYLINE
  5
23d
100
AcDbEntity
  8
0
 62
7
100
AcDbPolyline
 90
2
 70
1
 10
277.271429
 20
484.109077
 30
0.0
 10
277.271429
 20
484.109077
 30
0.0
  0
SPLINE
  5
23e
100
AcDbEntity
  8
0
 62
7
100
AcDbSpline
 70
8
 71
3
 72
8
 73
4
 74
0
 40
0
 40
0
 40
0
 40
0
 40
1
 40
1
 40
1
 40
1
 10
294.412670
 20
532.656746
 30
0.0
 10
294.412670
 20
532.924697
 30
0.0
 10
294.269720
 20
533.172294
 30
0.0
 10
294.037667
 20
533.306270
 30
0.0
  0
SPLINE
  5
23f
100
AcDbEntity
  8
0
 62
7
100
AcDbSpline
 70
8
 71
3
 72
8
 73
4
 74
0
 40
0
 40
0
 40
0
 40
0
 40
1
 40
1
 40
1
 40
1
 10
294.037667
 20
533.306270
 30
0.0
 10
293.805615
 20
533.440245
 30
0.0
 10
293.519714
 20
533.440245
 30
0.0
 10
293.287662
 20
533.306270
 30
0.0
  0
SPLINE
  5
240
100
AcDbEntity
  8
0
 62
7
100
AcDbSpline
 70
8
 71
3
 72
8
 73
4
 74
0
 40
0
 40
0
 40
0
 40
0
 40
1
 40
1
 40
1
 40
1
 10
293.287662
 20
533.306270
 30
0.0
 10
293.055609
 20
533.172294
 30
0.0
 10
292.912659
 20
532.924697
 30
0.0
 10
292.912659
 20
532.656746
 30
0.0
  0
SPLINE
  5
241
100
AcDbEntity
  8
0
 62
7
100
AcDbSpline
 70
8
 71
3
 72
8
 73
4
 74
0
 40
0
 40
0
 40
0
 40
0
 40
1
 40
1
 40
1
 40
1
 10
292.912659
 20
532.656746
 30
0.0
 10
292.912659
 20
532.388795
 30
0.0
 10
293.055609
 20
532.141197
 30
0.0
 10
293.287662
 20
532.007222
 30
0.0
  0
SPLINE
  5
242
100
AcDbEntity
  8
0
 62
7
100
AcDbSpline
 70
8
 71
3
 72
8
 73
4
 74
0
 40
0
 40
0
 40
0
 40
0
 40
1
 40
1
 40
1
 40
1
 10
293.287662
 20
532.007222
 30
0.0
 10
293.519714
 20
531.873246
 30
0.0
 10
293.805615
 20
531.873246
 30
0.0
 10
294.037667
 20
532.007222
 30
0.0
  0
SPLINE
  5
243
100
AcDbEntity
  8
0
 62
7
100
AcDbSpline
 70
8
 71
3
 72
8
 73
4
 74
0
 40
0
 40
0
 40
0
 40
0
 40
1
 40
1
 40
1
 40
1
 10
294.037667
 20
532.007222
 30
0.0
 10
294.269720
 20
532.141197
 30
0.0
 10
294.412670
 20
532.388795
 30
0.0
 10
294.412670
 20
532.656746
 30
0.0
  0
LWPOLYLINE
  5
244
100
AcDbEntity
  8
0
 62
7
100
AcDbPolyline
 90
2
 70
1
 10
292.744539
 20
511.258959
 30
0.0
 10
292.744539
 20
511.258959
 30
0.0
  0
SPLINE
  5
245
100
AcDbEntity
  8
0
 62
7
100
AcDbSpline
 70
8
 71
3
 72
8
 73
4
 74
0
 40
0
 40
0
 40
0
 40
0
 40
1
 40
1
 40
1
 40
1
 10
238.657192
 20
542.550348
 30
0.0
 10
238.657192
 20
542.996931
 30
0.0
 10
238.418943
 20
543.409592
 30
0.0
 10
238.032190
 20
543.632883
 30
0.0
  0
SPLINE
  5
246
100
AcDbEntity
  8
0
 62
7
100
AcDbSpline
 70
8
 71
3
 72
8
 73
4
 74
0
 40
0
 40
0
 40
0
 40
0
 40
1
 40
1
 40
1
 40
1
 10
238.032190
 20
543.632883
 30
0.0
 10
237.645437
 20
543.856175
 30
0.0
 10
237.168938
 20
543.856175
 30
0.0
 10
236.782185
 20
543.632883
 30
0.0
  0
SPLINE
  5
247
100
AcDbEntity
  8
0
 62
7
100
AcDbSpline
 70
8
 71
3
 72
8
 73
4
 74
0
 40
0
 40
0
 40
0
 40
0
 40
1
 40
1
 40
1
 40
1
 10
236.782185
 20
543.632883
 30
0.0
 10
236.395433
 20
543.409592
 30
0.0
 10
236.157183
 20
542.996931
 30
0.0
 10
236.157183
 20
542.550348
 30
0.0
  0
SPLINE
  5
248
100
AcDbEntity
  8
0
 62
7
100
AcDbSpline
 70
8
 71
3
 72
8
 73
4
 74
0
 40
0
 40
0
 40
0
 40
0
 40
1
 40
1
 40
1
 40
1
 10
236.157183
 20
542.550348
 30
0.0
 10
236.157183
 20
542.103764
 30
0.0
 10
236.395433
 20
541.691104
 30
0.0
 10
236.782185
 20
541.467812
 30
0.0
  0
SPLINE
  5
249
100
AcDbEntity
  8
0
 62
7
100
AcDbSpline
 70
8
 71
3
 72
8
 73
4
 74
0
 40
0
 40
0
 40
0
 40
0
 40
1
 40
1
 40
1
 40
1
 10
236.782185
 20
541.467812
 30
0.0
 10
237.168938
 20
541.244520
 30
0.0
 10
237.645437
 20
541.244520
 30
0.0
 10
238.032190
 20
541.467812
 30
0.0
  0
SPLINE
  5
24a
100
AcDbEntity
  8
0
 62
7
100
AcDbSpline
 70
8
 71
3
 72
8
 73
4
 74
0
 40
0
 40
0
 40
0
 40
0
 40
1
 40
1
 40
1
 40
1
 10
238.032190
 20
541.467812
 30
0.0
 10
238.418943
 20
541.691104
 30
0.0
 10
238.657192
 20
542.103764
 30
0.0
 10
238.657192
 20
542.550348
 30
0.0
  0
LWPOLYLINE
  5
24b
100
AcDbEntity
  8
0
 62
7
100
AcDbPolyline
 90
2
 70
1
 10
294.412670
 20
532.656746
 30
0.0
 10
294.412670
 20
532.656746
 30
0.0
  0
SPLINE
  5
24c
100
AcDbEntity
  8
0
 62
7
100
AcDbSpline
 70
8
 71
3
 72
8
 73
4
 74
0
 40
0
 40
0
 40
0
 40
0
 40
1
 40
1
 40
1
 40
1
 10
285.651787
 20
504.989178
 30
0.0
 10
285.651787
 20
505.435761
 30
0.0
 10
285.413537
 20
505.848422
 30
0.0
 10
285.026784
 20
506.071714
 30
0.0
  0
SPLINE
  5
24d
100
AcDbEntity
  8
0
 62
7
100
AcDbSpline
 70
8
 71
3
 72
8
 73
4
 74
0
 40
0
 40
0
 40
0
 40
0
 40
1
 40
1
 40
1
 40
1
 10
285.026784
 20
506.071714
 30
0.0
 10
284.640032
 20
506.295005
 30
0.0
 10
284.163533
 20
506.295005
 30
0.0
 10
283.776780
 20
506.071714
 30
0.0
  0
SPLINE
  5
24e
100
AcDbEntity
  8
0
 62
7
100
AcDbSpline
 70
8
 71
3
 72
8
 73
4
 74
0
 40
0
 40
0
 40
0
 40
0
 40
1
 40
1
 40
1
 40
1
 10
283.776780
 20
506.071714
 30
0.0
 10
283.390027
 20
505.848422
 30
0.0
 10
283.151777
 20
505.435761
 30
0.0
 10
283.151778
 20
504.989178
 30
0.0
  0
SPLINE
  5
24f
100
AcDbEntity
  8
0
 62
7
100
AcDbSpline
 70
8
 71
3
 72
8
 73
4
 74
0
 40
0
 40
0
 40
0
 40
0
 40
1
 40
1
 40
1
 40
1
 10
283.151778
 20
504.989178
 30
0.0
 10
283.151778
 20
504.542594
 30
0.0
 10
283.390027
 20
504.129934
 30
0.0
 10
283.776780
 20
503.906642
 30
0.0
  0
SPLINE
  5
250
100
AcDbEntity
  8
0
 62
7
100
AcDbSpline
 70
8
 71
3
 72
8
 73
4
 74
0
 40
0
 40
0
 40
0
 40
0
 40
1
 40
1
 40
1
 40
1
 10
283.776780
 20
503.906642
 30
0.0
 10
284.163533
 20
503.683350
 30
0.0
 10
284.640032
 20
503.683350
 30
0.0
 10
285.026784
 20
503.906642
 30
0.0
  0
SPLINE
  5
251
100
AcDbEntity
  8
0
 62
7
100
AcDbSpline
 70
8
 71
3
 72
8
 73
4
 74
0
 40
0
 40
0
 40
0
 40
0
 40
1
 40
1
 40
1
 40
1
 10
285.026784
 20
503.906642
 30
0.0
 10
285.413537
 20
504.129934
 30
0.0
 10
285.651787
 20
504.542594
 30
0.0
 10
285.651787
 20
504.989178
 30
0.0
  0
LWPOLYLINE
  5
252
100
AcDbEntity
  8
0
 62
7
100
AcDbPolyline
 90
2
 70
1
 10
238.657192
 20
542.550348
 30
0.0
 10
238.657192
 20
542.550348
 30
0.0
  0
SPLINE
  5
253
100
AcDbEntity
  8
0
 62
7
100
AcDbSpline
 70
8
 71
3
 72
8
 73
4
 74
0
 40
0
 40
0
 40
0
 40
0
 40
1
 40
1
 40
1
 40
1
 10
303.615993
 20
516.263281
 30
0.0
 10
303.617270
 20
516.532076
 30
0.0
 10
303.474603
 20
516.781001
 30
0.0
 10
303.242030
 20
516.915769
 30
0.0
  0
SPLINE
  5
254
100
AcDbEntity
  8
0
 62
7
100
AcDbSpline
 70
8
 71
3
 72
8
 73
4
 74
0
 40
0
 40
0
 40
0
 40
0
 40
1
 40
1
 40
1
 40
1
 10
303.242030
 20
516.915769
 30
0.0
 10
303.009457
 20
517.050536
 30
0.0
 10
302.722546
 20
517.050536
 30
0.0
 10
302.489973
 20
516.915769
 30
0.0
  0
SPLINE
  5
255
100
AcDbEntity
  8
0
 62
7
100
AcDbSpline
 70
8
 71
3
 72
8
 73
4
 74
0
 40
0
 40
0
 40
0
 40
0
 40
1
 40
1
 40
1
 40
1
 10
302.489973
 20
516.915769
 30
0.0
 10
302.257401
 20
516.781001
 30
0.0
 10
302.114733
 20
516.532076
 30
0.0
 10
302.116010
 20
516.263281
 30
0.0
  0
SPLINE
  5
256
100
AcDbEntity
  8
0
 62
7
100
AcDbSpline
 70
8
 71
3
 72
8
 73
4
 74
0
 40
0
 40
0
 40
0
 40
0
 40
1
 40
1
 40
1
 40
1
 10
302.116010
 20
516.263281
 30
0.0
 10
302.114733
 20
515.994486
 30
0.0
 10
302.257401
 20
515.745561
 30
0.0
 10
302.489973
 20
515.610793
 30
0.0
  0
SPLINE
  5
257
100
AcDbEntity
  8
0
 62
7
100
AcDbSpline
 70
8
 71
3
 72
8
 73
4
 74
0
 40
0
 40
0
 40
0
 40
0
 40
1
 40
1
 40
1
 40
1
 10
302.489973
 20
515.610793
 30
0.0
 10
302.722546
 20
515.476025
 30
0.0
 10
303.009457
 20
515.476025
 30
0.0
 10
303.242030
 20
515.610793
 30
0.0
  0
SPLINE
  5
258
100
AcDbEntity
  8
0
 62
7
100
AcDbSpline
 70
8
 71
3
 72
8
 73
4
 74
0
 40
0
 40
0
 40
0
 40
0
 40
1
 40
1
 40
1
 40
1
 10
303.242030
 20
515.610793
 30
0.0
 10
303.474603
 20
515.745561
 30
0.0
 10
303.617270
 20
515.994486
 30
0.0
 10
303.615993
 20
516.263281
 30
0.0
  0
LWPOLYLINE
  5
259
100
AcDbEntity
  8
0
 62
7
100
AcDbPolyline
 90
2
 70
1
 10
285.651787
 20
504.989178
 30
0.0
 10
285.651787
 20
504.989178
 30
0.0
  0
SPLINE
  5
25a
100
AcDbEntity
  8
0
 62
7
100
AcDbSpline
 70
8
 71
3
 72
8
 73
4
 74
0
 40
0
 40
0
 40
0
 40
0
 40
1
 40
1
 40
1
 40
1
 10
289.025612
 20
490.781504
 30
0.0
 10
289.026323
 20
491.139243
 30
0.0
 10
288.835880
 20
491.470111
 30
0.0
 10
288.526188
 20
491.649186
 30
0.0
  0
SPLINE
  5
25b
100
AcDbEntity
  8
0
 62
7
100
AcDbSpline
 70
8
 71
3
 72
8
 73
4
 74
0
 40
0
 40
0
 40
0
 40
0
 40
1
 40
1
 40
1
 40
1
 10
288.526188
 20
491.649186
 30
0.0
 10
288.216495
 20
491.828261
 30
0.0
 10
287.834733
 20
491.828261
 30
0.0
 10
287.525041
 20
491.649186
 30
0.0
  0
SPLINE
  5
25c
100
AcDbEntity
  8
0
 62
7
100
AcDbSpline
 70
8
 71
3
 72
8
 73
4
 74
0
 40
0
 40
0
 40
0
 40
0
 40
1
 40
1
 40
1
 40
1
 10
287.525041
 20
491.649186
 30
0.0
 10
287.215348
 20
491.470111
 30
0.0
 10
287.024905
 20
491.139243
 30
0.0
 10
287.025616
 20
490.781504
 30
0.0
  0
SPLINE
  5
25d
100
AcDbEntity
  8
0
 62
7
100
AcDbSpline
 70
8
 71
3
 72
8
 73
4
 74
0
 40
0
 40
0
 40
0
 40
0
 40
1
 40
1
 40
1
 40
1
 10
287.025616
 20
490.781504
 30
0.0
 10
287.024905
 20
490.423766
 30
0.0
 10
287.215348
 20
490.092897
 30
0.0
 10
287.525041
 20
489.913823
 30
0.0
  0
SPLINE
  5
25e
100
AcDbEntity
  8
0
 62
7
100
AcDbSpline
 70
8
 71
3
 72
8
 73
4
 74
0
 40
0
 40
0
 40
0
 40
0
 40
1
 40
1
 40
1
 40
1
 10
287.525041
 20
489.913823
 30
0.0
 10
287.834733
 20
489.734748
 30
0.0
 10
288.216495
 20
489.734748
 30
0.0
 10
288.526188
 20
489.913823
 30
0.0
  0
SPLINE
  5
25f
100
AcDbEntity
  8
0
 62
7
100
AcDbSpline
 70
8
 71
3
 72
8
 73
4
 74
0
 40
0
 40
0
 40
0
 40
0
 40
1
 40
1
 40
1
 40
1
 10
288.526188
 20
489.913823
 30
0.0
 10
288.835880
 20
490.092897
 30
0.0
 10
289.026323
 20
490.423766
 30
0.0
 10
289.025612
 20
490.781504
 30
0.0
  0
LWPOLYLINE
  5
260
100
AcDbEntity
  8
0
 62
7
100
AcDbPolyline
 90
2
 70
1
 10
303.615993
 20
516.263281
 30
0.0
 10
303.615993
 20
516.263281
 30
0.0
  0
SPLINE
  5
261
100
AcDbEntity
  8
0
 62
7
100
AcDbSpline
 70
8
 71
3
 72
8
 73
4
 74
0
 40
0
 40
0
 40
0
 40
0
 40
1
 40
1
 40
1
 40
1
 10
301.737720
 20
527.249780
 30
0.0
 10
301.738456
 20
527.607535
 30
0.0
 10
301.548018
 20
527.938430
 30
0.0
 10
301.238315
 20
528.117520
 30
0.0
  0
SPLINE
  5
262
100
AcDbEntity
  8
0
 62
7
100
AcDbSpline
 70
8
 71
3
 72
8
 73
4
 74
0
 40
0
 40
0
 40
0
 40
0
 40
1
 40
1
 40
1
 40
1
 10
301.238315
 20
528.117520
 30
0.0
 10
300.928613
 20
528.296610
 30
0.0
 10
300.546830
 20
528.296610
 30
0.0
 10
300.237128
 20
528.117520
 30
0.0
  0
SPLINE
  5
263
100
AcDbEntity
  8
0
 62
7
100
AcDbSpline
 70
8
 71
3
 72
8
 73
4
 74
0
 40
0
 40
0
 40
0
 40
0
 40
1
 40
1
 40
1
 40
1
 10
300.237128
 20
528.117520
 30
0.0
 10
299.927425
 20
527.938430
 30
0.0
 10
299.736987
 20
527.607535
 30
0.0
 10
299.737724
 20
527.249780
 30
0.0
  0
SPLINE
  5
264
100
AcDbEntity
  8
0
 62
7
100
AcDbSpline
 70
8
 71
3
 72
8
 73
4
 74
0
 40
0
 40
0
 40
0
 40
0
 40
1
 40
1
 40
1
 40
1
 10
299.737724
 20
527.249780
 30
0.0
 10
299.736987
 20
526.892025
 30
0.0
 10
299.927425
 20
526.561130
 30
0.0
 10
300.237128
 20
526.382040
 30
0.0
  0
SPLINE
  5
265
100
AcDbEntity
  8
0
 62
7
100
AcDbSpline
 70
8
 71
3
 72
8
 73
4
 74
0
 40
0
 40
0
 40
0
 40
0
 40
1
 40
1
 40
1
 40
1
 10
300.237128
 20
526.382040
 30
0.0
 10
300.546830
 20
526.202950
 30
0.0
 10
300.928613
 20
526.202950
 30
0.0
 10
301.238315
 20
526.382040
 30
0.0
  0
SPLINE
  5
266
100
AcDbEntity
  8
0
 62
7
100
AcDbSpline
 70
8
 71
3
 72
8
 73
4
 74
0
 40
0
 40
0
 40
0
 40
0
 40
1
 40
1
 40
1
 40
1
 10
301.238315
 20
526.382040
 30
0.0
 10
301.548018
 20
526.561130
 30
0.0
 10
301.738456
 20
526.892025
 30
0.0
 10
301.737720
 20
527.249780
 30
0.0
  0
LWPOLYLINE
  5
267
100
AcDbEntity
  8
0
 62
7
100
AcDbPolyline
 90
2
 70
1
 10
289.025612
 20
490.781504
 30
0.0
 10
289.025612
 20
490.781504
 30
0.0
  0
SPLINE
  5
268
100
AcDbEntity
  8
0
 62
7
100
AcDbSpline
 70
8
 71
3
 72
8
 73
4
 74
0
 40
0
 40
0
 40
0
 40
0
 40
1
 40
1
 40
1
 40
1
 10
277.386463
 20
507.117452
 30
0.0
 10
277.386463
 20
507.385403
 30
0.0
 10
277.243513
 20
507.633000
 30
0.0
 10
277.011460
 20
507.766976
 30
0.0
  0
SPLINE
  5
269
100
AcDbEntity
  8
0
 62
7
100
AcDbSpline
 70
8
 71
3
 72
8
 73
4
 74
0
 40
0
 40
0
 40
0
 40
0
 40
1
 40
1
 40
1
 40
1
 10
277.011460
 20
507.766976
 30
0.0
 10
276.779408
 20
507.900952
 30
0.0
 10
276.493507
 20
507.900952
 30
0.0
 10
276.261455
 20
507.766976
 30
0.0
  0
SPLINE
  5
26a
100
AcDbEntity
  8
0
 62
7
100
AcDbSpline
 70
8
 71
3
 72
8
 73
4
 74
0
 40
0
 40
0
 40
0
 40
0
 40
1
 40
1
 40
1
 40
1
 10
276.261455
 20
507.766976
 30
0.0
 10
276.029402
 20
507.633000
 30
0.0
 10
275.886452
 20
507.385403
 30
0.0
 10
275.886452
 20
507.117452
 30
0.0
  0
SPLINE
  5
26b
100
AcDbEntity
  8
0
 62
7
100
AcDbSpline
 70
8
 71
3
 72
8
 73
4
 74
0
 40
0
 40
0
 40
0
 40
0
 40
1
 40
1
 40
1
 40
1
 10
275.886452
 20
507.117452
 30
0.0
 10
275.886452
 20
506.703236
 30
0.0
 10
276.222241
 20
506.367447
 30
0.0
 10
276.636457
 20
506.367447
 30
0.0
  0
SPLINE
  5
26c
100
AcDbEntity
  8
0
 62
7
100
AcDbSpline
 70
8
 71
3
 72
8
 73
4
 74
0
 40
0
 40
0
 40
0
 40
0
 40
1
 40
1
 40
1
 40
1
 10
276.636457
 20
506.367447
 30
0.0
 10
277.050674
 20
506.367447
 30
0.0
 10
277.386463
 20
506.703236
 30
0.0
 10
277.386463
 20
507.117452
 30
0.0
  0
LWPOLYLINE
  5
26d
100
AcDbEntity
  8
0
 62
7
100
AcDbPolyline
 90
2
 70
1
 10
301.737720
 20
527.249780
 30
0.0
 10
301.737720
 20
527.249780
 30
0.0
  0
SPLINE
  5
26e
100
AcDbEntity
  8
0
 62
7
100
AcDbSpline
 70
8
 71
3
 72
8
 73
4
 74
0
 40
0
 40
0
 40
0
 40
0
 40
1
 40
1
 40
1
 40
1
 10
285.669482
 20
477.494169
 30
0.0
 10
285.669482
 20
477.762120
 30
0.0
 10
285.526532
 20
478.009717
 30
0.0
 10
285.294479
 20
478.143693
 30
0.0
  0
SPLINE
  5
26f
100
AcDbEntity
  8
0
 62
7
100
AcDbSpline
 70
8
 71
3
 72
8
 73
4
 74
0
 40
0
 40
0
 40
0
 40
0
 40
1
 40
1
 40
1
 40
1
 10
285.294479
 20
478.143693
 30
0.0
 10
285.062427
 20
478.277668
 30
0.0
 10
284.776526
 20
478.277668
 30
0.0
 10
284.544474
 20
478.143693
 30
0.0
  0
SPLINE
  5
270
100
AcDbEntity
  8
0
 62
7
100
AcDbSpline
 70
8
 71
3
 72
8
 73
4
 74
0
 40
0
 40
0
 40
0
 40
0
 40
1
 40
1
 40
1
 40
1
 10
284.544474
 20
478.143693
 30
0.0
 10
284.312421
 20
478.009717
 30
0.0
 10
284.169471
 20
477.762120
 30
0.0
 10
284.169471
 20
477.494169
 30
0.0
  0
SPLINE
  5
271
100
AcDbEntity
  8
0
 62
7
100
AcDbSpline
 70
8
 71
3
 72
8
 73
4
 74
0
 40
0
 40
0
 40
0
 40
0
 40
1
 40
1
 40
1
 40
1
 10
284.169471
 20
477.494169
 30
0.0
 10
284.169471
 20
477.079952
 30
0.0
 10
284.505260
 20
476.744163
 30
0.0
 10
284.919476
 20
476.744163
 30
0.0
  0
SPLINE
  5
272
100
AcDbEntity
  8
0
 62
7
100
AcDbSpline
 70
8
 71
3
 72
8
 73
4
 74
0
 40
0
 40
0
 40
0
 40
0
 40
1
 40
1
 40
1
 40
1
 10
284.919476
 20
476.744163
 30
0.0
 10
285.333693
 20
476.744163
 30
0.0
 10
285.669482
 20
477.079952
 30
0.0
 10
285.669482
 20
477.494169
 30
0.0
  0
LWPOLYLINE
  5
273
100
AcDbEntity
  8
0
 62
7
100
AcDbPolyline
 90
2
 70
1
 10
277.386463
 20
507.117452
 30
0.0
 10
277.386463
 20
507.117452
 30
0.0
  0
LWPOLYLINE
  5
274
100
AcDbEntity
  8
0
 62
7
100
AcDbPolyline
 90
2
 70
1
 10
285.669482
 20
477.494169
 30
0.0
 10
285.669482
 20
477.494169
 30
0.0
  0
SPLINE
  5
275
100
AcDbEntity
  8
0
 62
7
100
AcDbSpline
 70
8
 71
3
 72
8
 73
4
 74
0
 40
0
 40
0
 40
0
 40
0
 40
1
 40
1
 40
1
 40
1
 10
224.006416
 20
550.924304
 30
0.0
 10
225.332501
 20
550.924300
 30
0.0
 10
226.604275
 20
551.451081
 30
0.0
 10
227.541961
 20
552.388764
 30
0.0
  0
SPLINE
  5
276
100
AcDbEntity
  8
0
 62
7
100
AcDbSpline
 70
8
 71
3
 72
8
 73
4
 74
0
 40
0
 40
0
 40
0
 40
0
 40
1
 40
1
 40
1
 40
1
 10
227.541961
 20
552.388764
 30
0.0
 10
228.479647
 20
553.326446
 30
0.0
 10
229.006433
 20
554.598218
 30
0.0
 10
229.006434
 20
555.924303
 30
0.0
  0
LWPOLYLINE
  5
277
100
AcDbEntity
  8
0
 62
7
100
AcDbPolyline
 90
2
 70
1
 10
219.006426
 20
550.924022
 30
0.0
 10
224.006416
 20
550.924304
 30
0.0
  0
SPLINE
  5
278
100
AcDbEntity
  8
0
 62
7
100
AcDbSpline
 70
8
 71
3
 72
8
 73
4
 74
0
 40
0
 40
0
 40
0
 40
0
 40
1
 40
1
 40
1
 40
1
 10
246.506413
 20
578.472566
 30
0.0
 10
246.511566
 20
582.584550
 30
0.0
 10
244.320808
 20
586.386386
 30
0.0
 10
240.760582
 20
588.443868
 30
0.0
  0
SPLINE
  5
279
100
AcDbEntity
  8
0
 62
7
100
AcDbSpline
 70
8
 71
3
 72
8
 73
4
 74
0
 40
0
 40
0
 40
0
 40
0
 40
1
 40
1
 40
1
 40
1
 10
240.760582
 20
588.443868
 30
0.0
 10
237.200356
 20
590.501349
 30
0.0
 10
232.812488
 20
590.501349
 30
0.0
 10
229.252262
 20
588.443868
 30
0.0
  0
SPLINE
  5
27a
100
AcDbEntity
  8
0
 62
7
100
AcDbSpline
 70
8
 71
3
 72
8
 73
4
 74
0
 40
0
 40
0
 40
0
 40
0
 40
1
 40
1
 40
1
 40
1
 10
229.252262
 20
588.443868
 30
0.0
 10
225.692036
 20
586.386386
 30
0.0
 10
223.501277
 20
582.584550
 30
0.0
 10
223.506431
 20
578.472566
 30
0.0
  0
SPLINE
  5
27b
100
AcDbEntity
  8
0
 62
7
100
AcDbSpline
 70
8
 71
3
 72
8
 73
4
 74
0
 40
0
 40
0
 40
0
 40
0
 40
1
 40
1
 40
1
 40
1
 10
223.506431
 20
578.472566
 30
0.0
 10
223.501277
 20
574.360582
 30
0.0
 10
225.692036
 20
570.558745
 30
0.0
 10
229.252262
 20
568.501264
 30
0.0
  0
SPLINE
  5
27c
100
AcDbEntity
  8
0
 62
7
100
AcDbSpline
 70
8
 71
3
 72
8
 73
4
 74
0
 40
0
 40
0
 40
0
 40
0
 40
1
 40
1
 40
1
 40
1
 10
229.252262
 20
568.501264
 30
0.0
 10
232.812488
 20
566.443783
 30
0.0
 10
237.200356
 20
566.443783
 30
0.0
 10
240.760582
 20
568.501264
 30
0.0
  0
SPLINE
  5
27d
100
AcDbEntity
  8
0
 62
7
100
AcDbSpline
 70
8
 71
3
 72
8
 73
4
 74
0
 40
0
 40
0
 40
0
 40
0
 40
1
 40
1
 40
1
 40
1
 10
240.760582
 20
568.501264
 30
0.0
 10
244.320808
 20
570.558745
 30
0.0
 10
246.511566
 20
574.360582
 30
0.0
 10
246.506413
 20
578.472566
 30
0.0
  0
LWPOLYLINE
  5
27e
100
AcDbEntity
  8
0
 62
7
100
AcDbPolyline
 90
7
 70
1
 10
229.006434
 20
555.924303
 30
0.0
 10
229.006434
 20
560.924301
 30
0.0
 10
319.006418
 20
560.924301
 30
0.0
 10
319.006418
 20
460.924304
 30
0.0
 10
219.006426
 20
460.924304
 30
0.0
 10
219.006426
 20
550.924000
 30
0.0
 10
219.006426
 20
550.924022
 30
0.0
  0
LWPOLYLINE
  5
27f
100
AcDbEntity
  8
0
 62
7
100
AcDbPolyline
 90
2
 70
1
 10
246.506413
 20
578.472566
 30
0.0
 10
246.506413
 20
578.472566
 30
0.0
  0
LWPOLYLINE
  5
280
100
AcDbEntity
  8
0
 62
7
100
AcDbPolyline
 90
6
 70
1
 10
219.006426
 20
564.472566
 30
0.0
 10
219.006426
 20
594.472565
 30
0.0
 10
251.006418
 20
594.472565
 30
0.0
 10
251.006418
 20
564.472566
 30
0.0
 10
219.006426
 20
564.472566
 30
0.0
 10
219.006426
 20
564.472566
 30
0.0
  0
LWPOLYLINE
  5
281
100
AcDbEntity
  8
0
 62
7
100
AcDbPolyline
 90
6
 70
1
 10
254.163271
 20
594.472565
 30
0.0
 10
265.163277
 20
594.472565
 30
0.0
 10
265.163277
 20
566.472564
 30
0.0
 10
254.163271
 20
566.472564
 30
0.0
 10
254.163271
 20
594.472565
 30
0.0
 10
254.163271
 20
594.472565
 30
0.0
  0
LWPOLYLINE
  5
282
100
AcDbEntity
  8
0
 62
7
100
AcDbPolyline
 90
6
 70
1
 10
278.440563
 20
594.472565
 30
0.0
 10
278.440563
 20
564.472566
 30
0.0
 10
267.440557
 20
564.472566
 30
0.0
 10
267.440557
 20
594.472565
 30
0.0
 10
278.440563
 20
594.472565
 30
0.0
 10
278.440563
 20
594.472565
 30
0.0
  0
LWPOLYLINE
  5
283
100
AcDbEntity
  8
0
 62
7
100
AcDbPolyline
 90
6
 70
1
 10
291.351039
 20
564.472566
 30
0.0
 10
280.351038
 20
564.472566
 30
0.0
 10
280.351038
 20
594.472565
 30
0.0
 10
291.351039
 20
594.472565
 30
0.0
 10
291.351039
 20
564.472566
 30
0.0
 10
291.351039
 20
564.472566
 30
0.0
  0
ENDSEC
  0
SECTION
  2
OBJECTS
  0
DICTIONARY
  5
C
330
0
100
AcDbDictionary
  3
ACAD_GROUP
350
D
  3
ACAD_MLINESTYLE
350
17
  0
DICTIONARY
  5
D
330
C
100
AcDbDictionary
  0
DICTIONARY
  5
1A
330
C
100
AcDbDictionary
  0
DICTIONARY
  5
17
330
C
100
AcDbDictionary
  3
STANDARD
350
18
  0
DICTIONARY
  5
19
330
C
100
AcDbDictionary
  0
ENDSEC
  0
EOF
