<?xml version="1.0" encoding="UTF-8" standalone="no"?>
<svg
   xmlns:dc="http://purl.org/dc/elements/1.1/"
   xmlns:cc="http://creativecommons.org/ns#"
   xmlns:rdf="http://www.w3.org/1999/02/22-rdf-syntax-ns#"
   xmlns:svg="http://www.w3.org/2000/svg"
   xmlns="http://www.w3.org/2000/svg"
   xmlns:sodipodi="http://sodipodi.sourceforge.net/DTD/sodipodi-0.dtd"
   xmlns:inkscape="http://www.inkscape.org/namespaces/inkscape"
   width="900mm"
   height="600mm"
   id="svg2"
   version="1.1"
   inkscape:version="0.91 r13725"
   sodipodi:docname="Opentempescope_part2_550x320.svg">
  <metadata
     id="metadata172">
    <rdf:RDF>
      <cc:Work
         rdf:about="">
        <dc:format>image/svg+xml</dc:format>
        <dc:type
           rdf:resource="http://purl.org/dc/dcmitype/StillImage" />
        <dc:title></dc:title>
      </cc:Work>
    </rdf:RDF>
  </metadata>
  <sodipodi:namedview
     pagecolor="#ffffff"
     bordercolor="#666666"
     borderopacity="1"
     objecttolerance="10"
     gridtolerance="10"
     guidetolerance="10"
     inkscape:pageopacity="0"
     inkscape:pageshadow="2"
     inkscape:window-width="1621"
     inkscape:window-height="1139"
     id="namedview170"
     showgrid="false"
     inkscape:document-units="mm"
     units="mm"
     inkscape:zoom="0.22425739"
     inkscape:cx="372.04724"
     inkscape:cy="347.81462"
     inkscape:window-x="0"
     inkscape:window-y="0"
     inkscape:window-maximized="0"
     inkscape:current-layer="g20" />
  <desc
     id="desc4">/Users/sergio/gopath/src/github.com/sergio-daniels/tempescope/hardware/OpenTempescope/Opentempescope_part2_550x320.dxf - scale = 1.000000, origin = (0.000000, 0.000000), auto = False</desc>
  <defs
     id="defs6">
    <marker
       id="DistanceX"
       orient="auto"
       refX="0"
       refY="0"
       style="overflow:visible">
      <path
         d="M 3,-3 -3,3 M 0,-5 0,5"
         style="stroke:#000000;stroke-width:0.5"
         id="path9"
         inkscape:connector-curvature="0" />
    </marker>
    <pattern
       height="8"
       id="Hatch"
       patternUnits="userSpaceOnUse"
       width="8"
       x="0"
       y="0">
      <path
         d="M8 4 l-4,4"
         linecap="square"
         stroke="#000000"
         stroke-width="0.25"
         id="path12" />
      <path
         d="M6 2 l-4,4"
         linecap="square"
         stroke="#000000"
         stroke-width="0.25"
         id="path14" />
      <path
         d="M4 0 l-4,4"
         linecap="square"
         stroke="#000000"
         stroke-width="0.25"
         id="path16" />
    </pattern>
    <symbol
       id="*MODEL_SPACE" />
    <symbol
       id="*PAPER_SPACE" />
  </defs>
  <g
     inkscape:groupmode="layer"
     inkscape:label="0"
     id="g20"
     transform="translate(0,1073.622)">
    <path
       d="M 383.74238,-1058.4958 383.74238,252.52786 15.23844,252.52786 15.23844,-1058.4958 383.74238,-1058.4958 Z"
       style="fill:none;stroke:#000000;stroke-width:0.63779527;stroke-miterlimit:4;stroke-dasharray:none"
       id="path22"
       inkscape:connector-curvature="0" />
    <path
       d="M 395.91812,252.52786 395.91812,-1058.4958 764.42206,-1058.4958 764.42206,252.52786 395.91812,252.52786 Z"
       style="fill:none;stroke:#000000;stroke-width:0.63779527;stroke-miterlimit:4;stroke-dasharray:none"
       id="path24"
       inkscape:connector-curvature="0" />
    <path
       d="M 868.98876,-1001.8028 A 40.748032,40.748032 0 1 0 787.49276,-1001.8028 40.748032,40.748032 0 1 0 868.98876,-1001.8028 Z"
       style="fill:none;stroke:#000000;stroke-width:0.63779527;stroke-miterlimit:4;stroke-dasharray:none"
       id="path26"
       inkscape:connector-curvature="0" />
    <path
       d="M 771.54786,-952.19655 771.54786,-1058.4958 884.93366,-1058.4958 884.93366,-952.19655 771.54786,-952.19655 Z"
       style="fill:none;stroke:#000000;stroke-width:0.63779527;stroke-miterlimit:4;stroke-dasharray:none"
       id="path28"
       inkscape:connector-curvature="0" />
    <path
       d="M 896.11936,-1058.4958 935.09576,-1058.4958 935.09576,-959.28316 896.11936,-959.28316 896.11936,-1058.4958 Z"
       style="fill:none;stroke:#000000;stroke-width:0.63779527;stroke-miterlimit:4;stroke-dasharray:none"
       id="path30"
       inkscape:connector-curvature="0" />
    <path
       d="M 982.14126,-1058.4958 982.14126,-952.19655 943.16486,-952.19655 943.16486,-1058.4958 982.14126,-1058.4958 Z"
       style="fill:none;stroke:#000000;stroke-width:0.63779527;stroke-miterlimit:4;stroke-dasharray:none"
       id="path32"
       inkscape:connector-curvature="0" />
    <path
       d="M 1027.8871,-952.19655 988.91066,-952.19655 988.91066,-1058.4958 1027.8871,-1058.4958 1027.8871,-952.19655 Z"
       style="fill:none;stroke:#000000;stroke-width:0.63779527;stroke-miterlimit:4;stroke-dasharray:none"
       id="path34"
       inkscape:connector-curvature="0" />
    <path
       d="M 969.30516,-887.97115 A 3.543307,3.543307 0 1 0 962.21856,-887.97115 3.543307,3.543307 0 1 0 969.30516,-887.97115 Z"
       style="fill:none;stroke:#000000;stroke-width:0.63779527;stroke-miterlimit:4;stroke-dasharray:none"
       id="path36"
       inkscape:connector-curvature="0" />
    <path
       d="M 1008.6414,-837.62901 A 3.543307,3.543307 0 1 0 1001.5548,-837.62901 3.543307,3.543307 0 1 0 1008.6414,-837.62901 Z"
       style="fill:none;stroke:#000000;stroke-width:0.63779527;stroke-miterlimit:4;stroke-dasharray:none"
       id="path38"
       inkscape:connector-curvature="0" />
    <path
       d="M 1046.4803,-680.28433 A 2.6575,2.6575 0 1 0 1041.1653,-680.28433 2.6575,2.6575 0 1 0 1046.4803,-680.28433 Z"
       style="fill:none;stroke:#000000;stroke-width:0.63779527;stroke-miterlimit:4;stroke-dasharray:none"
       id="path40"
       inkscape:connector-curvature="0" />
    <path
       d="M 1028.3408,-888.17496 A 2.65748,2.65748 0 1 0 1023.0259,-888.17496 2.65748,2.65748 0 1 0 1028.3408,-888.17496 Z"
       style="fill:none;stroke:#000000;stroke-width:0.63779527;stroke-miterlimit:4;stroke-dasharray:none"
       id="path42"
       inkscape:connector-curvature="0" />
    <path
       d="M 975.55286,-804.40727 A 2.6575,2.6575 0 1 0 970.23786,-804.40727 2.6575,2.6575 0 0 0 975.55286,-804.40727 Z"
       style="fill:none;stroke:#000000;stroke-width:0.63779527;stroke-miterlimit:4;stroke-dasharray:none"
       id="path44"
       inkscape:connector-curvature="0" />
    <path
       d="M 951.29896,-762.2177 A 2.6575,2.6575 0 1 0 945.98396,-762.2177 2.6575,2.6575 0 1 0 951.29896,-762.2177 Z"
       style="fill:none;stroke:#000000;stroke-width:0.63779527;stroke-miterlimit:4;stroke-dasharray:none"
       id="path46"
       inkscape:connector-curvature="0" />
    <path
       d="M 982.27876,-697.60855 A 2.6575,2.6575 0 1 0 976.96376,-697.60855 2.6575,2.6575 0 0 0 982.27876,-697.60855 Z"
       style="fill:none;stroke:#000000;stroke-width:0.63779527;stroke-miterlimit:4;stroke-dasharray:none"
       id="path48"
       inkscape:connector-curvature="0" />
    <path
       d="M 960.67446,-717.78617 A 2.6575,2.6575 0 1 0 955.35946,-717.78617 2.6575,2.6575 0 0 0 960.67446,-717.78617 Z"
       style="fill:none;stroke:#000000;stroke-width:0.63779527;stroke-miterlimit:4;stroke-dasharray:none"
       id="path50"
       inkscape:connector-curvature="0" />
    <path
       d="M 891.11106,-671.11269 A 4.42915,4.42915 0 1 0 882.25276,-671.11269 4.42915,4.42915 0 0 0 891.11106,-671.11269 Z"
       style="fill:none;stroke:#000000;stroke-width:0.63779527;stroke-miterlimit:4;stroke-dasharray:none"
       id="path52"
       inkscape:connector-curvature="0" />
    <path
       d="M 846.67956,-735.31421 A 4.42915,4.42915 0 1 0 837.82126,-735.31421 4.42915,4.42915 0 0 0 846.67956,-735.31421 Z"
       style="fill:none;stroke:#000000;stroke-width:0.63779527;stroke-miterlimit:4;stroke-dasharray:none"
       id="path54"
       inkscape:connector-curvature="0" />
    <path
       d="M 1028.482,-794.82799 A 4.42915,4.42915 0 1 0 1019.6237,-794.82799 4.42915,4.42915 0 1 0 1028.482,-794.82799 Z"
       style="fill:none;stroke:#000000;stroke-width:0.63779527;stroke-miterlimit:4;stroke-dasharray:none"
       id="path56"
       inkscape:connector-curvature="0" />
    <path
       d="M 882.48026,-730.42266 A 3.543307,3.543307 0 1 0 875.39366,-730.42266 3.543307,3.543307 0 1 0 882.48026,-730.42266 Z"
       style="fill:none;stroke:#000000;stroke-width:0.63779527;stroke-miterlimit:4;stroke-dasharray:none"
       id="path58"
       inkscape:connector-curvature="0" />
    <path
       d="M 923.92516,-727.56926 A 4.42915,4.42915 0 1 0 915.06686,-727.56926 4.42915,4.42915 0 0 0 923.92516,-727.56926 Z"
       style="fill:none;stroke:#000000;stroke-width:0.63779527;stroke-miterlimit:4;stroke-dasharray:none"
       id="path60"
       inkscape:connector-curvature="0" />
    <path
       d="M 1060.0732,-734.70276 A 4.42915,4.42915 0 1 0 1051.2149,-734.70276 4.42915,4.42915 0 0 0 1060.0732,-734.70276 Z"
       style="fill:none;stroke:#000000;stroke-width:0.63779527;stroke-miterlimit:4;stroke-dasharray:none"
       id="path62"
       inkscape:connector-curvature="0" />
    <path
       d="M 935.62946,-793.70181 A 4.42915,4.42915 0 1 0 926.77116,-793.70181 4.42915,4.42915 0 1 0 935.62946,-793.70181 Z"
       style="fill:none;stroke:#000000;stroke-width:0.63779527;stroke-miterlimit:4;stroke-dasharray:none"
       id="path64"
       inkscape:connector-curvature="0" />
    <path
       d="M 957.96216,-685.78732 A 4.42915,4.42915 0 1 0 949.10386,-685.78732 4.42915,4.42915 0 0 0 957.96216,-685.78732 Z"
       style="fill:none;stroke:#000000;stroke-width:0.63779527;stroke-miterlimit:4;stroke-dasharray:none"
       id="path66"
       inkscape:connector-curvature="0" />
    <path
       d="M 866.71596,-747.95069 A 2.65748,2.65748 0 1 0 861.40106,-747.95069 2.65748,2.65748 0 1 0 866.71596,-747.95069 Z"
       style="fill:none;stroke:#000000;stroke-width:0.63779527;stroke-miterlimit:4;stroke-dasharray:none"
       id="path68"
       inkscape:connector-curvature="0" />
    <path
       d="M 897.69576,-778.11522 A 2.6574805,2.6574805 0 1 0 892.38086,-778.11522 2.6574805,2.6574805 0 1 0 897.69576,-778.11522 Z"
       style="fill:none;stroke:#000000;stroke-width:0.63779527;stroke-miterlimit:4;stroke-dasharray:none"
       id="path70"
       inkscape:connector-curvature="0" />
    <path
       d="M 921.33826,-758.14141 A 2.6575,2.6575 0 1 0 916.02326,-758.14141 2.6575,2.6575 0 0 0 921.33826,-758.14141 Z"
       style="fill:none;stroke:#000000;stroke-width:0.63779527;stroke-miterlimit:4;stroke-dasharray:none"
       id="path72"
       inkscape:connector-curvature="0" />
    <path
       d="M 901.84266,-833.3489 A 3.543307,3.543307 0 1 0 894.75606,-833.3489 3.543307,3.543307 0 1 0 901.84266,-833.3489 Z"
       style="fill:none;stroke:#000000;stroke-width:0.63779527;stroke-miterlimit:4;stroke-dasharray:none"
       id="path74"
       inkscape:connector-curvature="0" />
    <path
       d="M 838.86406,-781.17243 A 3.54335,3.54335 0 1 0 831.77736,-781.17243 3.54335,3.54335 0 0 0 838.86406,-781.17243 Z"
       style="fill:none;stroke:#000000;stroke-width:0.63779527;stroke-miterlimit:4;stroke-dasharray:none"
       id="path76"
       inkscape:connector-curvature="0" />
    <path
       d="M 977.18336,-782.80295 A 2.6574805,2.6574805 0 1 0 971.86846,-782.80295 2.6574805,2.6574805 0 1 0 977.18336,-782.80295 Z"
       style="fill:none;stroke:#000000;stroke-width:0.63779527;stroke-miterlimit:4;stroke-dasharray:none"
       id="path78"
       inkscape:connector-curvature="0" />
    <path
       d="M 931.93656,-818.47046 A 2.65748,2.65748 0 1 0 926.62166,-818.47046 2.65748,2.65748 0 1 0 931.93656,-818.47046 Z"
       style="fill:none;stroke:#000000;stroke-width:0.63779527;stroke-miterlimit:4;stroke-dasharray:none"
       id="path80"
       inkscape:connector-curvature="0" />
    <path
       d="M 1020.1882,-710.44886 A 2.6574805,2.6574805 0 1 0 1014.8733,-710.44886 2.6574805,2.6574805 0 1 0 1020.1882,-710.44886 Z"
       style="fill:none;stroke:#000000;stroke-width:0.63779527;stroke-miterlimit:4;stroke-dasharray:none"
       id="path82"
       inkscape:connector-curvature="0" />
    <path
       d="M 967.67466,-631.57271 A 3.543307,3.543307 0 1 0 960.58806,-631.57271 3.543307,3.543307 0 1 0 967.67466,-631.57271 Z"
       style="fill:none;stroke:#000000;stroke-width:0.63779527;stroke-miterlimit:4;stroke-dasharray:none"
       id="path84"
       inkscape:connector-curvature="0" />
    <path
       d="M 1062.3151,-649.71218 A 4.429134,4.429134 0 1 0 1053.4569,-649.71218 4.429134,4.429134 0 1 0 1062.3151,-649.71218 Z"
       style="fill:none;stroke:#000000;stroke-width:0.63779527;stroke-miterlimit:4;stroke-dasharray:none"
       id="path86"
       inkscape:connector-curvature="0" />
    <path
       d="M 829.96676,-646.85878 A 4.42915,4.42915 0 1 0 821.10846,-646.85878 4.42915,4.42915 0 0 0 829.96676,-646.85878 Z"
       style="fill:none;stroke:#000000;stroke-width:0.63779527;stroke-miterlimit:4;stroke-dasharray:none"
       id="path88"
       inkscape:connector-curvature="0" />
    <path
       d="M 881.79826,-701.88865 A 2.6574805,2.6574805 0 1 0 876.48336,-701.88865 2.6574805,2.6574805 0 1 0 881.79826,-701.88865 Z"
       style="fill:none;stroke:#000000;stroke-width:0.63779527;stroke-miterlimit:4;stroke-dasharray:none"
       id="path90"
       inkscape:connector-curvature="0" />
    <path
       d="M 1073.5249,-869.42404 A 4.429134,4.429134 0 1 0 1064.6667,-869.42404 4.429134,4.429134 0 1 0 1073.5249,-869.42404 Z"
       style="fill:none;stroke:#000000;stroke-width:0.63779527;stroke-miterlimit:4;stroke-dasharray:none"
       id="path92"
       inkscape:connector-curvature="0" />
    <path
       d="M 841.17656,-821.36979 A 4.42915,4.42915 0 1 0 832.31826,-821.36979 4.42915,4.42915 0 1 0 841.17656,-821.36979 Z"
       style="fill:none;stroke:#000000;stroke-width:0.63779527;stroke-miterlimit:4;stroke-dasharray:none"
       id="path94"
       inkscape:connector-curvature="0" />
    <path
       d="M 921.13446,-682.52629 A 2.6575,2.6575 0 1 0 915.81946,-682.52629 2.6575,2.6575 0 0 0 921.13446,-682.52629 Z"
       style="fill:none;stroke:#000000;stroke-width:0.63779527;stroke-miterlimit:4;stroke-dasharray:none"
       id="path96"
       inkscape:connector-curvature="0" />
    <path
       d="M 869.52296,-874.5194 A 4.429134,4.429134 0 1 0 860.66476,-874.5194 4.429134,4.429134 0 1 0 869.52296,-874.5194 Z"
       style="fill:none;stroke:#000000;stroke-width:0.63779527;stroke-miterlimit:4;stroke-dasharray:none"
       id="path98"
       inkscape:connector-curvature="0" />
    <path
       d="M 962.03846,-827.23447 A 4.42915,4.42915 0 1 0 953.18016,-827.23447 4.42915,4.42915 0 0 0 962.03846,-827.23447 Z"
       style="fill:none;stroke:#000000;stroke-width:0.63779527;stroke-miterlimit:4;stroke-dasharray:none"
       id="path100"
       inkscape:connector-curvature="0" />
    <path
       d="M 932.89296,-870.44311 A 4.429134,4.429134 0 1 0 924.03476,-870.44311 4.429134,4.429134 0 1 0 932.89296,-870.44311 Z"
       style="fill:none;stroke:#000000;stroke-width:0.63779527;stroke-miterlimit:4;stroke-dasharray:none"
       id="path102"
       inkscape:connector-curvature="0" />
    <path
       d="M 882.20586,-891.02836 A 2.65748,2.65748 0 1 0 876.89096,-891.02836 2.65748,2.65748 0 1 0 882.20586,-891.02836 Z"
       style="fill:none;stroke:#000000;stroke-width:0.63779527;stroke-miterlimit:4;stroke-dasharray:none"
       id="path104"
       inkscape:connector-curvature="0" />
    <path
       d="M 1079.5688,-696.58948 A 3.543307,3.543307 0 1 0 1072.4822,-696.58948 3.543307,3.543307 0 1 0 1079.5688,-696.58948 Z"
       style="fill:none;stroke:#000000;stroke-width:0.63779527;stroke-miterlimit:4;stroke-dasharray:none"
       id="path106"
       inkscape:connector-curvature="0" />
    <path
       d="M 870.04756,-838.03663 A 3.543307,3.543307 0 1 0 862.96096,-838.03663 3.543307,3.543307 0 1 0 870.04756,-838.03663 Z"
       style="fill:none;stroke:#000000;stroke-width:0.63779527;stroke-miterlimit:4;stroke-dasharray:none"
       id="path108"
       inkscape:connector-curvature="0" />
    <path
       d="M 878.60786,-632.38796 A 3.54335,3.54335 0 1 0 871.52116,-632.38796 3.54335,3.54335 0 1 0 878.60786,-632.38796 Z"
       style="fill:none;stroke:#000000;stroke-width:0.63779527;stroke-miterlimit:4;stroke-dasharray:none"
       id="path110"
       inkscape:connector-curvature="0" />
    <path
       d="M 844.90786,-683.74918 A 2.6574805,2.6574805 0 1 0 839.59296,-683.74918 2.6574805,2.6574805 0 1 0 844.90786,-683.74918 Z"
       style="fill:none;stroke:#000000;stroke-width:0.63779527;stroke-miterlimit:4;stroke-dasharray:none"
       id="path112"
       inkscape:connector-curvature="0" />
    <path
       d="M 874.60206,-795.84706 A 4.429134,4.429134 0 1 0 865.74386,-795.84706 4.429134,4.429134 0 1 0 874.60206,-795.84706 Z"
       style="fill:none;stroke:#000000;stroke-width:0.63779527;stroke-miterlimit:4;stroke-dasharray:none"
       id="path114"
       inkscape:connector-curvature="0" />
    <path
       d="M 1012.6121,-863.44072 A 4.429134,4.429134 0 1 0 1003.7539,-863.44072 4.429134,4.429134 0 1 0 1012.6121,-863.44072 Z"
       style="fill:none;stroke:#000000;stroke-width:0.63779527;stroke-miterlimit:4;stroke-dasharray:none"
       id="path116"
       inkscape:connector-curvature="0" />
    <path
       d="M 921.33826,-650.73125 A 2.6575,2.6575 0 1 0 916.02326,-650.73125 2.6575,2.6575 0 0 0 921.33826,-650.73125 Z"
       style="fill:none;stroke:#000000;stroke-width:0.63779527;stroke-miterlimit:4;stroke-dasharray:none"
       id="path118"
       inkscape:connector-curvature="0" />
    <path
       d="M 977.99866,-667.44403 A 2.6575,2.6575 0 1 0 972.68366,-667.44403 2.6575,2.6575 0 0 0 977.99866,-667.44403 Z"
       style="fill:none;stroke:#000000;stroke-width:0.63779527;stroke-miterlimit:4;stroke-dasharray:none"
       id="path120"
       inkscape:connector-curvature="0" />
    <path
       d="M 1032.8247,-763.6444 A 2.6574805,2.6574805 0 1 0 1027.5098,-763.6444 2.6574805,2.6574805 0 1 0 1032.8247,-763.6444 Z"
       style="fill:none;stroke:#000000;stroke-width:0.63779527;stroke-miterlimit:4;stroke-dasharray:none"
       id="path122"
       inkscape:connector-curvature="0" />
    <path
       d="M 1038.7354,-839.46333 A 2.6575,2.6575 0 1 0 1033.4204,-839.46333 2.6575,2.6575 0 0 0 1038.7354,-839.46333 Z"
       style="fill:none;stroke:#000000;stroke-width:0.63779527;stroke-miterlimit:4;stroke-dasharray:none"
       id="path124"
       inkscape:connector-curvature="0" />
    <path
       d="M 841.17656,-874.5194 A 4.42915,4.42915 0 1 0 832.31826,-874.5194 4.42915,4.42915 0 1 0 841.17656,-874.5194 Z"
       style="fill:none;stroke:#000000;stroke-width:0.63779527;stroke-miterlimit:4;stroke-dasharray:none"
       id="path126"
       inkscape:connector-curvature="0" />
    <path
       d="M 1007.6929,-741.42864 A 4.42915,4.42915 0 1 0 998.83456,-741.42864 4.42915,4.42915 0 1 0 1007.6929,-741.42864 Z"
       style="fill:none;stroke:#000000;stroke-width:0.63779527;stroke-miterlimit:4;stroke-dasharray:none"
       id="path128"
       inkscape:connector-curvature="0" />
    <path
       d="M 1071.3456,-781.37625 A 2.65748,2.65748 0 1 0 1066.0307,-781.37625 2.65748,2.65748 0 1 0 1071.3456,-781.37625 Z"
       style="fill:none;stroke:#000000;stroke-width:0.63779527;stroke-miterlimit:4;stroke-dasharray:none"
       id="path130"
       inkscape:connector-curvature="0" />
    <path
       d="M 1019.6474,-691.08649 A 3.543307,3.543307 0 1 0 1012.5608,-691.08649 3.543307,3.543307 0 1 0 1019.6474,-691.08649 Z"
       style="fill:none;stroke:#000000;stroke-width:0.63779527;stroke-miterlimit:4;stroke-dasharray:none"
       id="path132"
       inkscape:connector-curvature="0" />
    <path
       d="M 1064.6903,-820.30479 A 3.5433075,3.5433075 0 1 0 1057.6037,-820.30479 3.5433075,3.5433075 0 1 0 1064.6903,-820.30479 Z"
       style="fill:none;stroke:#000000;stroke-width:0.63779527;stroke-miterlimit:4;stroke-dasharray:none"
       id="path134"
       inkscape:connector-curvature="0" />
    <path
       d="M 978.40626,-748.96977 A 2.6575,2.6575 0 1 0 973.09126,-748.96977 2.6575,2.6575 0 0 0 978.40626,-748.96977 Z"
       style="fill:none;stroke:#000000;stroke-width:0.63779527;stroke-miterlimit:4;stroke-dasharray:none"
       id="path136"
       inkscape:connector-curvature="0" />
    <path
       d="M 1007.7556,-644.00538 A 2.6575,2.6575 0 1 0 1002.4406,-644.00538 2.6575,2.6575 0 1 0 1007.7556,-644.00538 Z"
       style="fill:none;stroke:#000000;stroke-width:0.63779527;stroke-miterlimit:4;stroke-dasharray:none"
       id="path138"
       inkscape:connector-curvature="0" />
    <path
       d="M 771.54786,-904.1899 789.26436,-904.19098 A 17.716536,17.716536 0 0 0 806.98096,-921.90751 L 806.98096,-939.62404 1125.8786,-939.62404 1125.8786,-585.29334 771.54786,-585.29334 771.54786,-904.1899 Z"
       style="fill:none;stroke:#000000;stroke-width:0.63779527;stroke-miterlimit:4;stroke-dasharray:none"
       id="path140"
       inkscape:connector-curvature="0" />
    <path
       d="M 771.54786,-567.39427 1055.0125,-567.39427 1055.0125,-496.52813 771.54786,-496.52813 771.54786,-567.39427 Z"
       style="fill:none;stroke:#000000;stroke-width:0.63779527;stroke-miterlimit:4;stroke-dasharray:none"
       id="path142"
       inkscape:connector-curvature="0" />
    <path
       d="M 771.54786,-482.81522 1055.0125,-482.81522 1055.0125,-411.94908 771.54786,-411.94908 771.54786,-482.81522 Z"
       style="fill:none;stroke:#000000;stroke-width:0.63779527;stroke-miterlimit:4;stroke-dasharray:none"
       id="path144"
       inkscape:connector-curvature="0" />
    <path
       d="M 1040.8392,-402.93811 1040.8392,-332.07197 771.54786,-332.07197 771.54786,-402.93811 1040.8392,-402.93811 Z"
       style="fill:none;stroke:#000000;stroke-width:0.63779527;stroke-miterlimit:4;stroke-dasharray:none"
       id="path146"
       inkscape:connector-curvature="0" />
    <path
       d="M 771.54786,-252.94238 771.54786,-323.80852 1040.8392,-323.80852 1040.8392,-252.94238 771.54786,-252.94238 Z"
       style="fill:none;stroke:#000000;stroke-width:0.63779527;stroke-miterlimit:4;stroke-dasharray:none"
       id="path148"
       inkscape:connector-curvature="0" />
    <path
       d="M 771.54786,-107.46164 771.54786,-249.19393 1125.8786,-249.19393 1125.8786,-107.46164 771.54786,-107.46164 Z"
       style="fill:none;stroke:#000000;stroke-width:0.63779527;stroke-miterlimit:4;stroke-dasharray:none"
       id="path150"
       inkscape:connector-curvature="0" />
    <path
       d="M 772.60716,181.90631 772.60716,-101.55825 779.69376,-101.55825 779.69376,181.90631 772.60716,181.90631 Z"
       style="fill:none;stroke:#000000;stroke-width:0.63779527;stroke-miterlimit:4;stroke-dasharray:none"
       id="path152"
       inkscape:connector-curvature="0" />
    <path
       d="M 793.71926,-101.55825 793.71926,181.90631 786.63266,181.90631 786.63266,-101.55825 793.71926,-101.55825 Z"
       style="fill:none;stroke:#000000;stroke-width:0.63779527;stroke-miterlimit:4;stroke-dasharray:none"
       id="path154"
       inkscape:connector-curvature="0" />
    <path
       d="M 836.27576,-101.55825 836.27576,251.0008 800.84266,251.0008 800.84266,-101.55825 836.27576,-101.55825 Z"
       style="fill:none;stroke:#000000;stroke-width:0.63779527;stroke-miterlimit:4;stroke-dasharray:none"
       id="path156"
       inkscape:connector-curvature="0" />
    <path
       d="M 842.17826,-101.55825 877.61136,-101.55825 877.61136,251.0008 842.17826,251.0008 842.17826,-101.55825 Z"
       style="fill:none;stroke:#000000;stroke-width:0.63779527;stroke-miterlimit:4;stroke-dasharray:none"
       id="path158"
       inkscape:connector-curvature="0" />
    <path
       d="M 880.58956,-12.97558 880.58956,-101.55825 887.67616,-101.55825 887.67616,-12.97558 880.58956,-12.97558 Z"
       style="fill:none;stroke:#000000;stroke-width:0.63779527;stroke-miterlimit:4;stroke-dasharray:none"
       id="path160"
       inkscape:connector-curvature="0" />
    <path
       d="M 1066.2708,-313.1786 1052.0976,-313.1786 1052.0976,-323.80852 1066.2708,-323.80852 1066.2708,-313.1786 Z"
       style="fill:none;stroke:#000000;stroke-width:0.63779527;stroke-miterlimit:4;stroke-dasharray:none"
       id="path162"
       inkscape:connector-curvature="0" />
    <path
       d="M 1066.2708,-295.7693 1052.0976,-295.7693 1052.0976,-306.39922 1066.2708,-306.39922 1066.2708,-295.7693 Z"
       style="fill:none;stroke:#000000;stroke-width:0.63779527;stroke-miterlimit:4;stroke-dasharray:none"
       id="path164"
       inkscape:connector-curvature="0" />
    <path
       d="M 1066.2708,-278.80258 1052.0976,-278.80258 1052.0976,-289.4325 1066.2708,-289.4325 1066.2708,-278.80258 Z"
       style="fill:none;stroke:#000000;stroke-width:0.63779527;stroke-miterlimit:4;stroke-dasharray:none"
       id="path166"
       inkscape:connector-curvature="0" />
    <path
       d="M 1066.2708,-271.59184 1066.2708,-260.96192 1052.0976,-260.96192 1052.0976,-271.59184 1066.2708,-271.59184 Z"
       style="fill:none;stroke:#000000;stroke-width:0.63779527;stroke-miterlimit:4;stroke-dasharray:none"
       id="path168"
       inkscape:connector-curvature="0" />
  </g>
</svg>
